<svg width="55" height="54" viewBox="0 0 55 54" fill="none" xmlns="http://www.w3.org/2000/svg">
<path fill-rule="evenodd" clip-rule="evenodd" d="M3.6676 0.813477H51.3324C53.3546 0.813477 55 2.45896 54.9999 4.48107V34.7301C54.9999 35.2361 54.5892 35.6467 54.0833 35.6467H0.916631C0.410674 35.6467 0 35.2361 0 34.7301V4.48107C0 2.45896 1.64538 0.813477 3.6676 0.813477ZM1.83338 33.8135H53.1666V4.48106C53.1666 3.46904 52.3435 2.64684 51.3324 2.64684H3.66761C2.65656 2.64684 1.83338 3.46904 1.83338 4.48106V33.8135Z" fill="white"/>
<path fill-rule="evenodd" clip-rule="evenodd" d="M0.916631 33.8135H54.0834C54.5893 33.8135 55 34.2242 55 34.7301V39.3125C55 41.3347 53.3546 42.9801 51.3324 42.9801H3.6676C1.64538 42.9801 0 41.3347 0 39.3125V34.7301C0 34.2242 0.410674 33.8135 0.916631 33.8135ZM51.3324 41.1468C52.3435 41.1468 53.1666 40.3246 53.1666 39.3126H53.1668V35.6468H1.83338V39.3126C1.83338 40.3246 2.65656 41.1468 3.66761 41.1468H51.3324Z" fill="white"/>
<path d="M30.2506 37.48H24.7506C24.2447 37.48 23.834 37.8907 23.834 38.3966C23.834 38.9026 24.2447 39.3132 24.7506 39.3132H30.2506C30.7566 39.3132 31.1672 38.9026 31.1672 38.3966C31.1672 37.8907 30.7566 37.48 30.2506 37.48Z" fill="white"/>
<path fill-rule="evenodd" clip-rule="evenodd" d="M4.58265 4.47998H50.4159C50.922 4.47998 51.3326 4.89065 51.3326 5.39661V34.73C51.3326 35.2359 50.922 35.6466 50.416 35.6466H4.58265C4.07669 35.6466 3.66602 35.2359 3.66602 34.73V5.39661C3.66602 4.89065 4.07669 4.47998 4.58265 4.47998ZM5.49926 33.8132H49.4993V6.31325H5.49926V33.8132Z" fill="white"/>
<path fill-rule="evenodd" clip-rule="evenodd" d="M15.584 48.48H39.4172C40.9334 48.48 42.1673 49.7138 42.1673 51.23C42.1673 52.7461 40.9335 53.98 39.4173 53.98H15.584C14.0678 53.98 12.834 52.7461 12.834 51.23C12.834 49.7138 14.0678 48.48 15.584 48.48ZM15.584 52.1466H39.4173C39.9233 52.1466 40.334 51.7351 40.334 51.23C40.334 50.7249 39.9233 50.3133 39.4174 50.3133H15.584C15.078 50.3133 14.6674 50.7249 14.6674 51.23C14.6674 51.7351 15.078 52.1466 15.584 52.1466Z" fill="white"/>
<path fill-rule="evenodd" clip-rule="evenodd" d="M32.9999 42.0636C32.9999 46.3215 34.5417 48.4802 37.5833 48.4802C38.0892 48.4802 38.4999 48.8909 38.4999 49.3969C38.4999 49.9028 38.0892 50.3135 37.5833 50.3135H17.4166C16.9107 50.3135 16.5 49.9028 16.5 49.3969C16.5 48.8909 16.9107 48.4802 17.4166 48.4802C20.4582 48.4802 22 46.3215 22 42.0636C22 41.5576 22.4107 41.147 22.9166 41.147H32.0833C32.5892 41.147 32.9999 41.5576 32.9999 42.0636ZM23.8085 42.9802C23.6746 45.3681 23.0101 47.23 21.8816 48.4802H33.119C31.9897 47.23 31.3251 45.3681 31.1922 42.9802H23.8085Z" fill="white"/>
<path fill-rule="evenodd" clip-rule="evenodd" d="M41.5897 25.6095L43.8024 27.8223C44.1608 28.1808 44.1608 28.7601 43.8023 29.1185L41.21 31.7117C41.0386 31.884 40.8048 31.9803 40.5619 31.9803C40.3191 31.9803 40.0853 31.884 39.9139 31.7117L37.7011 29.498L36.4049 30.7951C36.1767 31.0233 35.8439 31.1132 35.5322 31.0362C35.2196 30.9573 34.9713 30.7199 34.8787 30.4101L32.1287 21.2435C32.0316 20.9208 32.1196 20.5707 32.3588 20.3323C32.5972 20.094 32.9464 20.005 33.2699 20.1022L42.4366 22.8522C42.7455 22.9457 42.9829 23.1932 43.0618 23.5058C43.1406 23.8184 43.049 24.1502 42.8207 24.3785L41.5897 25.6095ZM38.5472 27.7517L40.562 29.7675L41.8581 28.4704L39.7315 26.3438C39.5353 26.1494 39.4272 25.8873 39.4272 25.6095C39.4272 25.3327 39.5344 25.0723 39.7297 24.8762L40.4392 24.1666L34.3736 22.347L36.1932 28.4126L36.855 27.7508C37.0878 27.5189 37.394 27.4015 37.7011 27.4015C38.0073 27.4015 38.3134 27.518 38.5472 27.7517Z" fill="white"/>
<path fill-rule="evenodd" clip-rule="evenodd" d="M12.8326 8.14697H38.4993C39.0052 8.14697 39.4159 8.55765 39.4159 9.0636V13.647C39.4159 14.1529 39.0052 14.5636 38.4993 14.5636H12.8326C12.3267 14.5636 11.916 14.1529 11.916 13.647V9.0636C11.916 8.55765 12.3267 8.14697 12.8326 8.14697ZM13.7493 12.7303H37.5826V9.98033H13.7493V12.7303Z" fill="white"/>
<path fill-rule="evenodd" clip-rule="evenodd" d="M16.5006 18.23H23.834C24.3399 18.23 24.7506 18.6407 24.7506 19.1466V22.8132C24.7506 23.3192 24.3399 23.7299 23.834 23.7299H16.5006C15.9947 23.7299 15.584 23.3192 15.584 22.8132V19.1466C15.584 18.6407 15.9947 18.23 16.5006 18.23ZM17.4172 21.8966H22.9172V20.0632H17.4172V21.8966Z" fill="white"/>
<path fill-rule="evenodd" clip-rule="evenodd" d="M12.8326 8.14697H38.4993C39.0052 8.14697 39.4159 8.55765 39.416 9.0636V22.6284C39.416 22.9181 39.2794 23.1913 39.0466 23.3636C38.8148 23.5369 38.5141 23.59 38.2363 23.5066L34.3726 22.347L35.533 26.2162C35.6165 26.494 35.5633 26.7947 35.3901 27.0274C35.2176 27.2603 34.9454 27.3969 34.6549 27.3969H12.8326C12.3267 27.3969 11.916 26.9862 11.916 26.4802V9.0636C11.916 8.55765 12.3267 8.14697 12.8326 8.14697ZM33.2678 20.1022L37.5826 21.3965V9.98033H13.7493V25.5637H33.4227L32.1266 21.2444C32.0295 20.9207 32.1174 20.5715 32.3567 20.3323C32.595 20.0939 32.9443 20.0049 33.2678 20.1022Z" fill="white"/>
</svg>
