<svg width="55" height="56" viewBox="0 0 55 56" fill="none" xmlns="http://www.w3.org/2000/svg">
<path d="M41.9893 7.1996H44.7795C45.9541 7.1996 46.9095 8.15512 46.9095 9.32956V10.4616C46.9095 11.6361 45.954 12.5916 44.7795 12.5916C43.214 12.5916 41.9401 13.8653 41.9401 15.431V16.6085C41.9401 17.0534 42.3008 17.4141 42.7458 17.4141C43.1909 17.4141 43.5515 17.0534 43.5515 16.6085V15.431C43.5515 14.7539 44.1023 14.203 44.7795 14.203C46.8425 14.203 48.5208 12.5246 48.5208 10.4616V9.32956C48.5208 7.26663 46.8425 5.58827 44.7795 5.58827H41.9893C41.2952 5.58827 40.7305 5.02355 40.7305 4.3295V1.61914C40.7305 1.1742 40.3699 0.813477 39.9248 0.813477C39.4798 0.813477 39.1191 1.1742 39.1191 1.61914V4.32939C39.1191 5.91204 40.4067 7.1996 41.9893 7.1996Z" fill="white"/>
<path d="M37.8628 13.5279C38.4108 13.5279 38.8566 13.9737 38.8566 14.5216V15.8323C38.8566 16.2772 39.2172 16.6379 39.6622 16.6379C40.1073 16.6379 40.4679 16.2772 40.4679 15.8323V14.5216C40.4679 13.0852 39.2992 11.9165 37.8628 11.9165C37.3148 11.9165 36.8691 11.4707 36.8691 10.9229V9.17578C36.8691 8.73084 36.5085 8.37012 36.0635 8.37012C35.6184 8.37012 35.2578 8.73084 35.2578 9.17578V10.9229C35.2578 12.3592 36.4265 13.5279 37.8628 13.5279Z" fill="white"/>
<path d="M43.8213 3.96407C44.2663 3.96407 44.627 3.60335 44.627 3.15841V1.62646C44.627 1.18152 44.2663 0.820801 43.8213 0.820801C43.3762 0.820801 43.0156 1.18152 43.0156 1.62646V3.15841C43.0156 3.60335 43.3762 3.96407 43.8213 3.96407Z" fill="white"/>
<path d="M32.7412 49.4004C32.2962 49.4004 31.9355 49.761 31.9355 50.2061V50.9665C31.9355 51.4115 32.2962 51.7722 32.7412 51.7722C33.1863 51.7722 33.5469 51.4115 33.5469 50.9665V50.2061C33.5469 49.7611 33.1862 49.4004 32.7412 49.4004Z" fill="white"/>
<path d="M37.7744 49.4004C37.3294 49.4004 36.9688 49.761 36.9688 50.2061V50.9665C36.9688 51.4115 37.3294 51.7722 37.7744 51.7722C38.2195 51.7722 38.5801 51.4115 38.5801 50.9665V50.2061C38.5801 49.7611 38.2194 49.4004 37.7744 49.4004Z" fill="white"/>
<path d="M42.8057 49.4004C42.3606 49.4004 42 49.761 42 50.2061V50.9665C42 51.4115 42.3606 51.7722 42.8057 51.7722C43.2507 51.7722 43.6113 51.4115 43.6113 50.9665V50.2061C43.6113 49.7611 43.2506 49.4004 42.8057 49.4004Z" fill="white"/>
<path d="M47.8369 49.4004C47.3919 49.4004 47.0312 49.761 47.0312 50.2061V50.9665C47.0312 51.4115 47.3919 51.7722 47.8369 51.7722C48.282 51.7722 48.6426 51.4115 48.6426 50.9665V50.2061C48.6426 49.7611 48.282 49.4004 47.8369 49.4004Z" fill="white"/>
<path fill-rule="evenodd" clip-rule="evenodd" d="M53.1492 54.2023H54.1943C54.6394 54.2023 55 54.5629 55 55.008C55 55.453 54.6394 55.8137 54.1943 55.8137H0.805664C0.360723 55.8137 0 55.453 0 55.008C0 54.5629 0.360723 54.2023 0.805664 54.2023H1.85099V25.7318C1.85099 25.4659 1.98204 25.2172 2.20129 25.067C2.42054 24.9168 2.70005 24.8844 2.94766 24.9805L7.06449 26.5753V21.426C7.06449 20.981 7.42521 20.6203 7.87016 20.6203C8.3151 20.6203 8.67582 20.981 8.67582 21.426V27.1995L23.7896 33.0544C24.2046 33.2151 24.4107 33.6817 24.25 34.0966C24.0892 34.5115 23.6226 34.7179 23.2076 34.5568L3.46221 26.9078V54.2023H9.27566V49.5649C9.27566 49.1199 9.63639 48.7593 10.0813 48.7593H20.8104C21.2554 48.7593 21.6161 49.1199 21.6161 49.5649V54.2023H27.4294V36.1923L26.4289 35.8046C26.014 35.6439 25.808 35.1772 25.9687 34.7623C26.1294 34.3474 26.5962 34.1412 27.011 34.3022L28.5262 34.8893C28.8363 35.0094 29.0408 35.3078 29.0408 35.6405V38.4201H36.849C37.6741 28.6923 37.4083 31.8285 37.2733 33.4209L38.4376 19.6895C38.4959 19.0038 39.0587 18.4868 39.7467 18.4868H44.0274C44.7045 18.4868 45.2795 19.0152 45.3365 19.6897L47.5967 46.335H50.8007C52.0956 46.335 53.1492 47.3885 53.1492 48.6835V54.2023ZM29.0409 43.6555V46.335H36.1774L36.4048 43.6555H29.0409ZM45.9795 46.3349H37.7946L38.2484 40.9841H40.2763C40.7214 40.9841 41.082 40.6235 41.082 40.1784C41.082 39.7334 40.7214 39.3727 40.2763 39.3727H38.3851L38.8389 34.0221H44.935L45.3889 39.3727H43.4976C43.0525 39.3727 42.6919 39.7334 42.6919 40.1784C42.6919 40.6235 43.0525 40.9841 43.4976 40.9841H45.5255L45.9795 46.3349ZM38.9757 32.4108H44.7984L44.3445 27.0602H39.4295L38.9757 32.4108ZM40.0201 20.0981H43.754L44.2079 25.4488H39.5663L40.0201 20.0981ZM36.5416 42.0442L36.7124 40.0315H29.0409V42.0442H36.5416ZM10.887 54.2023V50.3706H20.0049V54.2023H10.887ZM29.0409 47.9463V54.2023H51.5378V48.6835C51.5378 48.2771 51.207 47.9463 50.8006 47.9463H29.0409Z" fill="white"/>
<path fill-rule="evenodd" clip-rule="evenodd" d="M7.22212 31.2021C6.97559 31.1151 6.70209 31.1534 6.48875 31.3043C6.2753 31.4553 6.14854 31.7005 6.14854 31.9619V36.5745C6.14854 37.0196 6.50927 37.3802 6.95421 37.3802C7.39915 37.3802 7.75987 37.0196 7.75987 36.5745V33.1003L11.9053 34.5622V42.7502H7.75977V39.7958C7.75977 39.3507 7.39904 38.9901 6.9541 38.9901C6.50916 38.9901 6.14844 39.3507 6.14844 39.7958V43.5559C6.14844 44.0009 6.50916 44.3615 6.9541 44.3615H23.9386C24.3835 44.3615 24.7442 44.0009 24.7442 43.5559V37.9517C24.7442 37.6099 24.5287 37.3054 24.2066 37.1919L7.22212 31.2021ZM13.5165 35.1306L17.3762 36.4917V42.7503H13.5165V35.1306ZM18.9875 42.7503H23.1329V38.5219L18.9875 37.0599V42.7503Z" fill="white"/>
</svg>
