<svg width="55" height="56" viewBox="0 0 55 56" fill="none" xmlns="http://www.w3.org/2000/svg">
<path d="M41.9901 7.1996H44.7803C45.9548 7.1996 46.9102 8.15512 46.9102 9.32956V10.4616C46.9102 11.6361 45.9547 12.5916 44.7803 12.5916C43.2147 12.5916 41.9409 13.8653 41.9409 15.431V16.6085C41.9409 17.0534 42.3015 17.4141 42.7465 17.4141C43.1916 17.4141 43.5522 17.0534 43.5522 16.6085V15.431C43.5522 14.7539 44.1031 14.203 44.7803 14.203C46.8432 14.203 48.5215 12.5246 48.5215 10.4616V9.32956C48.5215 7.26663 46.8432 5.58827 44.7803 5.58827H41.9901C41.2959 5.58827 40.7312 5.02355 40.7312 4.3295V1.61914C40.7312 1.1742 40.3706 0.813477 39.9255 0.813477C39.4805 0.813477 39.1199 1.1742 39.1199 1.61914V4.32939C39.1199 5.91204 40.4074 7.1996 41.9901 7.1996Z" fill="white"/>
<path d="M37.8625 13.528C38.4105 13.528 38.8563 13.9738 38.8563 14.5218V15.8324C38.8563 16.2773 39.2169 16.6381 39.662 16.6381C40.107 16.6381 40.4676 16.2773 40.4676 15.8324V14.5218C40.4676 13.0853 39.299 11.9167 37.8625 11.9167C37.3146 11.9167 36.8689 11.4709 36.8689 10.923V9.1759C36.8689 8.73096 36.5083 8.37024 36.0632 8.37024C35.6182 8.37024 35.2576 8.73096 35.2576 9.1759V10.923C35.2576 12.3594 36.4262 13.528 37.8625 13.528Z" fill="white"/>
<path d="M43.8208 3.96395C44.2658 3.96395 44.6265 3.60323 44.6265 3.15829V1.62634C44.6265 1.1814 44.2658 0.820679 43.8208 0.820679C43.3758 0.820679 43.0151 1.1814 43.0151 1.62634V3.15829C43.0151 3.60323 43.3758 3.96395 43.8208 3.96395Z" fill="white"/>
<path d="M32.7419 49.4006C32.2969 49.4006 31.9363 49.7613 31.9363 50.2063V50.9667C31.9363 51.4118 32.2969 51.7724 32.7419 51.7724C33.187 51.7724 33.5476 51.4118 33.5476 50.9667V50.2063C33.5476 49.7614 33.1869 49.4006 32.7419 49.4006Z" fill="white"/>
<path d="M37.7737 49.4006C37.3286 49.4006 36.968 49.7613 36.968 50.2063V50.9667C36.968 51.4118 37.3286 51.7724 37.7737 51.7724C38.2187 51.7724 38.5793 51.4118 38.5793 50.9667V50.2063C38.5793 49.7614 38.2186 49.4006 37.7737 49.4006Z" fill="white"/>
<path d="M42.8052 49.4006C42.3601 49.4006 41.9995 49.7613 41.9995 50.2063V50.9667C41.9995 51.4118 42.3601 51.7724 42.8052 51.7724C43.2502 51.7724 43.6108 51.4118 43.6108 50.9667V50.2063C43.6108 49.7614 43.2501 49.4006 42.8052 49.4006Z" fill="white"/>
<path d="M47.8367 49.4006C47.3916 49.4006 47.031 49.7613 47.031 50.2063V50.9667C47.031 51.4118 47.3916 51.7724 47.8367 51.7724C48.2817 51.7724 48.6423 51.4118 48.6423 50.9667V50.2063C48.6423 49.7614 48.2817 49.4006 47.8367 49.4006Z" fill="white"/>
<path fill-rule="evenodd" clip-rule="evenodd" d="M53.1492 54.2021H54.1943C54.6394 54.2021 55 54.5627 55 55.0077C55 55.4528 54.6394 55.8134 54.1943 55.8134H0.805664C0.360723 55.8134 0 55.4528 0 55.0077C0 54.5627 0.360723 54.2021 0.805664 54.2021H1.85099V25.7315C1.85099 25.4657 1.98204 25.217 2.20129 25.0668C2.42054 24.9165 2.70005 24.8842 2.94766 24.9802L7.06449 26.575V21.4257C7.06449 20.9808 7.42521 20.6201 7.87016 20.6201C8.3151 20.6201 8.67582 20.9808 8.67582 21.4257V27.1992L23.7896 33.0542C24.2046 33.2149 24.4107 33.6815 24.25 34.0964C24.0892 34.5112 23.6226 34.7177 23.2076 34.5566L3.46221 26.9076V54.2021H9.27566V49.5647C9.27566 49.1196 9.63639 48.759 10.0813 48.759H20.8104C21.2554 48.759 21.6161 49.1196 21.6161 49.5647V54.2021H27.4294V36.1921L26.4289 35.8044C26.014 35.6437 25.808 35.1769 25.9687 34.7621C26.1294 34.3472 26.5962 34.1409 27.011 34.302L28.5262 34.889C28.8363 35.0091 29.0408 35.3075 29.0408 35.6402V38.4199H36.849C37.6741 28.6921 37.4083 31.8282 37.2733 33.4206L38.4376 19.6893C38.4959 19.0036 39.0587 18.4866 39.7467 18.4866H44.0274C44.7045 18.4866 45.2795 19.015 45.3365 19.6895L47.5967 46.3347H50.8007C52.0956 46.3347 53.1492 47.3882 53.1492 48.6833V54.2021ZM29.0409 43.6553V46.3347H36.1774L36.4048 43.6553H29.0409ZM45.9795 46.3346H37.7946L38.2484 40.9838H40.2763C40.7214 40.9838 41.082 40.6232 41.082 40.1782C41.082 39.7331 40.7214 39.3725 40.2763 39.3725H38.3851L38.8389 34.0218H44.935L45.3889 39.3725H43.4976C43.0525 39.3725 42.6919 39.7331 42.6919 40.1782C42.6919 40.6232 43.0525 40.9838 43.4976 40.9838H45.5255L45.9795 46.3346ZM38.9757 32.4106H44.7984L44.3445 27.0599H39.4295L38.9757 32.4106ZM40.0201 20.0979H43.754L44.2079 25.4486H39.5663L40.0201 20.0979ZM36.5416 42.044L36.7124 40.0312H29.0409V42.044H36.5416ZM10.887 54.2021V50.3703H20.0049V54.2021H10.887ZM29.0409 47.9461V54.2021H51.5378V48.6833C51.5378 48.2768 51.207 47.9461 50.8006 47.9461H29.0409Z" fill="white"/>
<path fill-rule="evenodd" clip-rule="evenodd" d="M7.22139 31.2022C6.97485 31.1152 6.70136 31.1535 6.48802 31.3044C6.27457 31.4554 6.14781 31.7006 6.14781 31.962V36.5746C6.14781 37.0197 6.50854 37.3803 6.95348 37.3803C7.39842 37.3803 7.75914 37.0197 7.75914 36.5746V33.1004L11.9046 34.5623V42.7503H7.75903V39.7959C7.75903 39.3508 7.39831 38.9902 6.95337 38.9902C6.50843 38.9902 6.14771 39.3508 6.14771 39.7959V43.556C6.14771 44.001 6.50843 44.3616 6.95337 44.3616H23.9378C24.3828 44.3616 24.7435 44.001 24.7435 43.556V37.9518C24.7435 37.6101 24.528 37.3055 24.2059 37.192L7.22139 31.2022ZM13.5158 35.1307L17.3755 36.4918V42.7504H13.5158V35.1307ZM18.9868 42.7504H23.1322V38.522L18.9868 37.0601V42.7504Z" fill="white"/>
</svg>
