<svg width="55" height="55" viewBox="0 0 55 55" fill="none" xmlns="http://www.w3.org/2000/svg">
<path d="M41.9893 6.38612H44.7795C45.9541 6.38612 46.9095 7.34164 46.9095 8.51608V9.6481C46.9095 10.8226 45.954 11.7782 44.7795 11.7782C43.214 11.7782 41.9401 13.0519 41.9401 14.6175V15.795C41.9401 16.2399 42.3008 16.6007 42.7458 16.6007C43.1909 16.6007 43.5515 16.2399 43.5515 15.795V14.6175C43.5515 13.9405 44.1023 13.3895 44.7795 13.3895C46.8425 13.3895 48.5208 11.7111 48.5208 9.6481V8.51608C48.5208 6.45315 46.8425 4.7748 44.7795 4.7748H41.9893C41.2952 4.7748 40.7305 4.21008 40.7305 3.51603V0.805664C40.7305 0.360723 40.3699 0 39.9248 0C39.4798 0 39.1191 0.360723 39.1191 0.805664V3.51592C39.1191 5.09856 40.4067 6.38612 41.9893 6.38612Z" fill="white"/>
<path d="M37.8628 12.7144C38.4108 12.7144 38.8566 13.1602 38.8566 13.7082V15.0188C38.8566 15.4637 39.2172 15.8245 39.6622 15.8245C40.1073 15.8245 40.4679 15.4637 40.4679 15.0188V13.7082C40.4679 12.2717 39.2992 11.1031 37.8628 11.1031C37.3148 11.1031 36.8691 10.6573 36.8691 10.1094V8.3623C36.8691 7.91736 36.5085 7.55664 36.0635 7.55664C35.6184 7.55664 35.2578 7.91736 35.2578 8.3623V10.1094C35.2578 11.5458 36.4265 12.7144 37.8628 12.7144Z" fill="white"/>
<path d="M43.8213 3.1506C44.2663 3.1506 44.627 2.78987 44.627 2.34493V0.812988C44.627 0.368047 44.2663 0.00732422 43.8213 0.00732422C43.3762 0.00732422 43.0156 0.368047 43.0156 0.812988V2.34493C43.0156 2.78987 43.3762 3.1506 43.8213 3.1506Z" fill="white"/>
<path d="M32.7412 48.5869C32.2962 48.5869 31.9355 48.9475 31.9355 49.3926V50.153C31.9355 50.5981 32.2962 50.9587 32.7412 50.9587C33.1863 50.9587 33.5469 50.5981 33.5469 50.153V49.3926C33.5469 48.9476 33.1862 48.5869 32.7412 48.5869Z" fill="white"/>
<path d="M37.7744 48.5869C37.3294 48.5869 36.9688 48.9475 36.9688 49.3926V50.153C36.9688 50.5981 37.3294 50.9587 37.7744 50.9587C38.2195 50.9587 38.5801 50.5981 38.5801 50.153V49.3926C38.5801 48.9476 38.2194 48.5869 37.7744 48.5869Z" fill="white"/>
<path d="M42.8057 48.5869C42.3606 48.5869 42 48.9475 42 49.3926V50.153C42 50.5981 42.3606 50.9587 42.8057 50.9587C43.2507 50.9587 43.6113 50.5981 43.6113 50.153V49.3926C43.6113 48.9476 43.2506 48.5869 42.8057 48.5869Z" fill="white"/>
<path d="M47.8369 48.5869C47.3919 48.5869 47.0312 48.9475 47.0312 49.3926V50.153C47.0312 50.5981 47.3919 50.9587 47.8369 50.9587C48.282 50.9587 48.6426 50.5981 48.6426 50.153V49.3926C48.6426 48.9476 48.282 48.5869 47.8369 48.5869Z" fill="white"/>
<path fill-rule="evenodd" clip-rule="evenodd" d="M53.1492 53.3888H54.1943C54.6394 53.3888 55 53.7495 55 54.1945C55 54.6396 54.6394 55.0002 54.1943 55.0002H0.805664C0.360723 55.0002 0 54.6396 0 54.1945C0 53.7495 0.360723 53.3888 0.805664 53.3888H1.85099V24.9183C1.85099 24.6524 1.98204 24.4037 2.20129 24.2536C2.42054 24.1033 2.70005 24.071 2.94766 24.167L7.06449 25.7618V20.6125C7.06449 20.1676 7.42521 19.8068 7.87016 19.8068C8.3151 19.8068 8.67582 20.1676 8.67582 20.6125V26.386L23.7896 32.2409C24.2046 32.4016 24.4107 32.8683 24.25 33.2831C24.0892 33.698 23.6226 33.9045 23.2076 33.7433L3.46221 26.0944V53.3888H9.27566V48.7514C9.27566 48.3064 9.63639 47.9458 10.0813 47.9458H20.8104C21.2554 47.9458 21.6161 48.3064 21.6161 48.7514V53.3888H27.4294V35.3788L26.4289 34.9911C26.014 34.8304 25.808 34.3637 25.9687 33.9488C26.1294 33.534 26.5962 33.3277 27.011 33.4887L28.5262 34.0758C28.8363 34.1959 29.0408 34.4943 29.0408 34.827V37.6066H36.849C37.6741 27.8789 37.4083 31.015 37.2733 32.6074L38.4376 18.876C38.4959 18.1904 39.0587 17.6733 39.7467 17.6733H44.0274C44.7045 17.6733 45.2795 18.2017 45.3365 18.8762L47.5967 45.5215H50.8007C52.0956 45.5215 53.1492 46.575 53.1492 47.8701V53.3888ZM29.0409 42.8421V45.5215H36.1774L36.4048 42.8421H29.0409ZM45.9795 45.5214H37.7946L38.2484 40.1706H40.2763C40.7214 40.1706 41.082 39.81 41.082 39.3649C41.082 38.9199 40.7214 38.5593 40.2763 38.5593H38.3851L38.8389 33.2086H44.935L45.3889 38.5593H43.4976C43.0525 38.5593 42.6919 38.9199 42.6919 39.3649C42.6919 39.81 43.0525 40.1706 43.4976 40.1706H45.5255L45.9795 45.5214ZM38.9757 31.5974H44.7984L44.3445 26.2467H39.4295L38.9757 31.5974ZM40.0201 19.2847H43.754L44.2079 24.6354H39.5663L40.0201 19.2847ZM36.5416 41.2307L36.7124 39.218H29.0409V41.2307H36.5416ZM10.887 53.3889V49.5571H20.0049V53.3889H10.887ZM29.0409 47.1328V53.3889H51.5378V47.8701C51.5378 47.4636 51.207 47.1328 50.8006 47.1328H29.0409Z" fill="white"/>
<path fill-rule="evenodd" clip-rule="evenodd" d="M7.22212 30.3886C6.97559 30.3016 6.70209 30.3399 6.48875 30.4908C6.2753 30.6418 6.14854 30.887 6.14854 31.1484V35.761C6.14854 36.2061 6.50927 36.5667 6.95421 36.5667C7.39915 36.5667 7.75987 36.2061 7.75987 35.761V32.2868L11.9053 33.7487V41.9367H7.75977V38.9823C7.75977 38.5372 7.39904 38.1766 6.9541 38.1766C6.50916 38.1766 6.14844 38.5372 6.14844 38.9823V42.7424C6.14844 43.1874 6.50916 43.548 6.9541 43.548H23.9386C24.3835 43.548 24.7442 43.1874 24.7442 42.7424V37.1382C24.7442 36.7965 24.5287 36.4919 24.2066 36.3784L7.22212 30.3886ZM13.5165 34.3171L17.3762 35.6782V41.9368H13.5165V34.3171ZM18.9875 41.9368H23.1329V37.7084L18.9875 36.2465V41.9368Z" fill="white"/>
</svg>
