<svg width="55" height="55" viewBox="0 0 55 55" fill="none" xmlns="http://www.w3.org/2000/svg">
<path fill-rule="evenodd" clip-rule="evenodd" d="M12 20.8203C12 12.097 19.097 5 27.8203 5C36.5436 5 43.6406 12.097 43.6406 20.8203C43.6406 23.6802 42.869 26.4829 41.4092 28.9256L29.171 49.3591C28.9349 49.7536 28.5102 49.9964 28.0504 50H28.04C27.5842 50 27.1603 49.7645 26.9198 49.3768L14.3615 29.1393C12.8164 26.6439 12 23.7676 12 20.8203ZM28.02 46.1492L39.1464 27.5719C40.3613 25.539 41.0127 23.204 41.0127 20.8203C41.0127 13.5509 35.0897 7.61914 27.8203 7.61914C20.5509 7.61914 14.6191 13.5509 14.6191 20.8203C14.6191 23.2769 15.3165 25.6731 16.6026 27.7501L28.02 46.1492Z" fill="white"/>
<path fill-rule="evenodd" clip-rule="evenodd" d="M19.9121 20.8203C19.9121 16.4587 23.4606 12.9102 27.8223 12.9102C32.1839 12.9102 35.7324 16.4587 35.7324 20.8203C35.7324 25.1065 32.2962 28.7305 27.8223 28.7305C23.4029 28.7305 19.9121 25.1541 19.9121 20.8203ZM22.5312 20.8203C22.5312 23.7354 24.8993 26.1113 27.8223 26.1113C30.7916 26.1113 33.1045 23.6928 33.1045 20.8203C33.1045 17.9125 30.73 15.5293 27.8223 15.5293C24.9145 15.5293 22.5312 17.9125 22.5312 20.8203Z" fill="white"/>
</svg>
