<svg width="55" height="55" viewBox="0 0 55 55" fill="none" xmlns="http://www.w3.org/2000/svg">
<path d="M0.919961 14.2386H8.32631C8.45899 14.2386 8.56685 14.3466 8.56685 14.4793V26.3293C8.56685 26.7721 8.92585 27.1311 9.36865 27.1311C9.81146 27.1311 10.1704 26.7721 10.1704 26.3293V15.7922H11.394C11.611 15.7922 11.8187 15.7042 11.9698 15.5485L12.7963 14.6957C13.7591 13.7022 15.1047 13.1324 16.4882 13.1324H23.5268L18.1716 19.3926C17.0848 20.6631 17.1597 22.5842 18.3417 23.7663C18.9686 24.3932 19.7928 24.7119 20.6207 24.7118C21.3315 24.7118 22.0452 24.4768 22.6385 24.0004L27.3076 20.2509H31.4968L35.7688 26.2985C35.9251 26.5197 36.1727 26.6377 36.4245 26.6377C36.5843 26.6377 36.7458 26.59 36.8863 26.4907C37.248 26.2352 37.334 25.7349 37.0786 25.3732L33.3665 20.1182C33.5837 19.9747 33.727 19.7287 33.727 19.449C33.727 19.0062 33.3681 18.6472 32.9252 18.6472H27.0256C26.843 18.6472 26.666 18.7096 26.5236 18.8238L21.6344 22.75C20.989 23.2682 20.0611 23.2177 19.4757 22.6324C18.8817 22.0384 18.8442 21.0733 19.3903 20.4349L25.8771 12.8518C26.2355 12.4328 26.7572 12.1925 27.3085 12.1925H34.2661C34.7091 12.1925 35.0679 11.8335 35.0679 11.3907C35.0679 10.9479 34.7091 10.5889 34.2661 10.5889H27.3085C26.4182 10.5889 25.5698 10.9274 24.9271 11.5287H16.4882C14.6732 11.5287 12.9079 12.2762 11.6448 13.5795L11.0546 14.1885H10.1453C10.0052 13.3096 9.2441 12.6351 8.32631 12.6351H0.919961C0.477155 12.6351 0.118164 12.994 0.118164 13.4368C0.118164 13.8797 0.477155 14.2386 0.919961 14.2386Z" fill="white"/>
<path d="M54.0793 33.2053H46.7798C46.6472 33.2053 46.5392 33.0974 46.5392 32.9648V14.4792C46.5392 14.3466 46.6472 14.2386 46.7798 14.2386H54.0793C54.5222 14.2386 54.8811 13.8796 54.8811 13.4368C54.8811 12.994 54.5222 12.635 54.0793 12.635H46.7798C45.7891 12.635 44.9808 13.4206 44.9395 14.4013H44.351L41.9736 12.2769C40.7979 11.2261 39.2806 10.6277 37.7014 10.592C37.2535 10.5818 36.8916 10.9327 36.8816 11.3755C36.8715 11.8182 37.2224 12.1852 37.665 12.1952C38.863 12.2222 40.0137 12.6759 40.9052 13.4725L43.5107 15.8009C43.6576 15.9323 43.8478 16.0049 44.0449 16.0049H44.9356V31.4503H40.82C40.7575 30.8465 40.5406 30.2669 40.1793 29.7624L39.0502 28.1641C38.7947 27.8025 38.2946 27.7164 37.9327 27.9718C37.571 28.2273 37.485 28.7276 37.7404 29.0892L38.8725 30.6918C39.1743 31.1133 39.2938 31.6272 39.2092 32.1387C39.1246 32.6503 38.8458 33.0982 38.4241 33.4C38.0025 33.7018 37.4886 33.8211 36.9772 33.7368C36.4657 33.6521 36.0177 33.3733 35.7159 32.9518L33.5044 29.8632C33.2467 29.5031 32.7456 29.4203 32.3858 29.6781C32.0257 29.9359 31.9427 30.4368 32.2007 30.7968L33.7179 32.9158C34.341 33.7862 34.1399 35.0011 33.2697 35.6241C32.8483 35.926 32.3347 36.0456 31.8228 35.9609C31.3112 35.8762 30.8633 35.5974 30.5614 35.1758L29.0442 33.0567C28.7864 32.6966 28.2854 32.6139 27.9255 32.8716C27.5655 33.1294 27.4826 33.6302 27.7405 33.9903L28.9545 35.6859C29.5773 36.5561 29.3761 37.7708 28.506 38.3938C27.6358 39.017 26.4209 38.8159 25.7978 37.9456L24.584 36.2502C24.3261 35.8901 23.8252 35.8071 23.4653 36.0651C23.1052 36.3228 23.0223 36.8237 23.2801 37.1838L24.3238 38.6415C24.6255 39.0631 24.7452 39.577 24.6605 40.0885C24.5758 40.6 24.297 41.048 23.8755 41.3498C23.0053 41.9728 21.7904 41.7718 21.17 40.9055L14.8431 31.9568C14.6189 31.6396 14.2532 31.4503 13.8648 31.4503H10.1706V29.7462C10.1706 29.3034 9.81156 28.9444 9.36876 28.9444C8.92595 28.9444 8.56696 29.3034 8.56696 29.7462V32.9647C8.56696 33.0974 8.45898 33.2052 8.32642 33.2052H0.91996C0.477155 33.2052 0.118164 33.5642 0.118164 34.007C0.118164 34.4498 0.477155 34.8088 0.91996 34.8088H8.32631C9.31306 34.8088 10.119 34.0292 10.166 33.0538H13.6548L19.8633 41.835C20.5546 42.8005 21.6446 43.3149 22.7502 43.3149C23.4644 43.3149 24.1852 43.1002 24.8089 42.6536C25.5787 42.1024 26.0878 41.2845 26.2425 40.3503C26.2519 40.2934 26.2598 40.2365 26.2665 40.1796C26.6258 40.2979 27.0022 40.3591 27.3806 40.3591C28.0948 40.3591 28.8156 40.1443 29.4393 39.6978C30.2444 39.1213 30.7349 38.2674 30.8757 37.3587C31.095 37.4418 31.3241 37.5039 31.5608 37.5431C31.7566 37.5755 31.9525 37.5915 32.147 37.5915C32.8807 37.5915 33.5946 37.3637 34.203 36.928C34.9089 36.4226 35.3727 35.7039 35.5715 34.9218C35.9222 35.1164 36.3076 35.2513 36.715 35.3188C36.9109 35.3512 37.1067 35.3672 37.3014 35.3672C38.035 35.3672 38.7489 35.1394 39.3573 34.7037C39.9415 34.2855 40.3751 33.7134 40.618 33.0538H44.9396C44.9866 34.0292 45.7924 34.8088 46.7794 34.8088H54.0788C54.5218 34.8088 54.8806 34.4498 54.8806 34.007C54.8806 33.5642 54.5222 33.2053 54.0793 33.2053Z" fill="white"/>
<path d="M27.5 6.38871C27.943 6.38871 28.3018 6.02972 28.3018 5.58692V2.8018C28.3018 2.35899 27.943 2 27.5 2C27.0572 2 26.6982 2.35899 26.6982 2.8018V5.58681C26.6982 6.02972 27.0572 6.38871 27.5 6.38871Z" fill="white"/>
<path d="M35.478 8.02793C35.5822 8.07326 35.6907 8.09475 35.7976 8.09475C36.107 8.09475 36.4018 7.91461 36.5332 7.61292L37.6451 5.05957C37.8219 4.65354 37.6361 4.18113 37.2301 4.0043C36.8244 3.82769 36.3516 4.01328 36.1749 4.41931L35.063 6.97266C34.8862 7.37858 35.072 7.851 35.478 8.02793Z" fill="white"/>
<path d="M18.4671 7.61301C18.5985 7.91481 18.8932 8.09484 19.2026 8.09484C19.3095 8.09484 19.4181 8.07335 19.5224 8.02792C19.9284 7.85109 20.1142 7.37868 19.9373 6.97265L18.8252 4.4193C18.6485 4.01338 18.1761 3.82757 17.7699 4.0044C17.3639 4.18122 17.1781 4.65364 17.355 5.05967L18.4671 7.61301Z" fill="white"/>
<path d="M27.5 47.6113C27.0572 47.6113 26.6982 47.9703 26.6982 48.4131V51.1981C26.6982 51.6409 27.0572 51.9999 27.5 51.9999C27.943 51.9999 28.3018 51.6409 28.3018 51.1981V48.4131C28.3018 47.9703 27.943 47.6113 27.5 47.6113Z" fill="white"/>
<path d="M36.5332 46.3872C36.3566 45.9812 35.8839 45.7953 35.478 45.9722C35.072 46.149 34.8862 46.6214 35.063 47.0274L36.1749 49.5808C36.3063 49.8826 36.6009 50.0626 36.9104 50.0626C37.0172 50.0626 37.126 50.0411 37.2301 49.9958C37.6361 49.819 37.8219 49.3465 37.6451 48.9405L36.5332 46.3872Z" fill="white"/>
<path d="M19.5223 45.9722C19.1162 45.7953 18.6439 45.9811 18.467 46.3871L17.355 48.9405C17.1782 49.3464 17.3639 49.8189 17.7699 49.9958C17.8741 50.0412 17.9828 50.0627 18.0897 50.0627C18.399 50.0627 18.6938 49.8825 18.8252 49.5808L19.9372 47.0275C20.1141 46.6215 19.9283 46.1491 19.5223 45.9722Z" fill="white"/>
</svg>
