<svg width="55" height="55" viewBox="0 0 55 55" fill="none" xmlns="http://www.w3.org/2000/svg">
<path d="M41.9903 6.38612H44.7805C45.955 6.38612 46.9105 7.34164 46.9105 8.51608V9.6481C46.9105 10.8226 45.9549 11.7782 44.7805 11.7782C43.2149 11.7782 41.9411 13.0519 41.9411 14.6175V15.795C41.9411 16.2399 42.3017 16.6007 42.7468 16.6007C43.1918 16.6007 43.5525 16.2399 43.5525 15.795V14.6175C43.5525 13.9405 44.1033 13.3895 44.7805 13.3895C46.8434 13.3895 48.5218 11.7111 48.5218 9.6481V8.51608C48.5218 6.45315 46.8434 4.7748 44.7805 4.7748H41.9903C41.2962 4.7748 40.7314 4.21008 40.7314 3.51603V0.805664C40.7314 0.360723 40.3708 0 39.9258 0C39.4807 0 39.1201 0.360723 39.1201 0.805664V3.51592C39.1201 5.09856 40.4077 6.38612 41.9903 6.38612Z" fill="white"/>
<path d="M37.8628 12.7144C38.4108 12.7144 38.8566 13.1602 38.8566 13.7082V15.0188C38.8566 15.4637 39.2172 15.8245 39.6622 15.8245C40.1073 15.8245 40.4679 15.4637 40.4679 15.0188V13.7082C40.4679 12.2717 39.2992 11.1031 37.8628 11.1031C37.3148 11.1031 36.8691 10.6573 36.8691 10.1094V8.3623C36.8691 7.91736 36.5085 7.55664 36.0635 7.55664C35.6184 7.55664 35.2578 7.91736 35.2578 8.3623V10.1094C35.2578 11.5458 36.4265 12.7144 37.8628 12.7144Z" fill="white"/>
<path d="M43.8203 3.15011C44.2654 3.15011 44.626 2.78938 44.626 2.34444V0.8125C44.626 0.367559 44.2654 0.00683594 43.8203 0.00683594C43.3753 0.00683594 43.0146 0.367559 43.0146 0.8125V2.34444C43.0146 2.78938 43.3753 3.15011 43.8203 3.15011Z" fill="white"/>
<path d="M32.7422 48.5869C32.2971 48.5869 31.9365 48.9475 31.9365 49.3926V50.153C31.9365 50.5981 32.2971 50.9587 32.7422 50.9587C33.1872 50.9587 33.5478 50.5981 33.5478 50.153V49.3926C33.5478 48.9476 33.1871 48.5869 32.7422 48.5869Z" fill="white"/>
<path d="M37.7734 48.5869C37.3284 48.5869 36.9678 48.9475 36.9678 49.3926V50.153C36.9678 50.5981 37.3284 50.9587 37.7734 50.9587C38.2185 50.9587 38.5791 50.5981 38.5791 50.153V49.3926C38.5791 48.9476 38.2184 48.5869 37.7734 48.5869Z" fill="white"/>
<path d="M42.8057 48.5869C42.3606 48.5869 42 48.9475 42 49.3926V50.153C42 50.5981 42.3606 50.9587 42.8057 50.9587C43.2507 50.9587 43.6113 50.5981 43.6113 50.153V49.3926C43.6113 48.9476 43.2506 48.5869 42.8057 48.5869Z" fill="white"/>
<path d="M47.8369 48.5869C47.3919 48.5869 47.0312 48.9475 47.0312 49.3926V50.153C47.0312 50.5981 47.3919 50.9587 47.8369 50.9587C48.282 50.9587 48.6426 50.5981 48.6426 50.153V49.3926C48.6426 48.9476 48.282 48.5869 47.8369 48.5869Z" fill="white"/>
<path fill-rule="evenodd" clip-rule="evenodd" d="M53.1492 53.3884H54.1943C54.6394 53.3884 55 53.749 55 54.194C55 54.6391 54.6394 54.9997 54.1943 54.9997H0.805664C0.360723 54.9997 0 54.6391 0 54.194C0 53.749 0.360723 53.3884 0.805664 53.3884H1.85099V24.9178C1.85099 24.6519 1.98204 24.4033 2.20129 24.2531C2.42054 24.1028 2.70005 24.0705 2.94766 24.1665L7.06449 25.7613V20.612C7.06449 20.1671 7.42521 19.8064 7.87016 19.8064C8.3151 19.8064 8.67582 20.1671 8.67582 20.612V26.3855L23.7896 32.2404C24.2046 32.4011 24.4107 32.8678 24.25 33.2826C24.0892 33.6975 23.6226 33.904 23.2076 33.7428L3.46221 26.0939V53.3884H9.27566V48.751C9.27566 48.3059 9.63639 47.9453 10.0813 47.9453H20.8104C21.2554 47.9453 21.6161 48.3059 21.6161 48.751V53.3884H27.4294V35.3783L26.4289 34.9907C26.014 34.8299 25.808 34.3632 25.9687 33.9483C26.1294 33.5335 26.5962 33.3272 27.011 33.4882L28.5262 34.0753C28.8363 34.1954 29.0408 34.4938 29.0408 34.8265V37.6062H36.849C37.6741 27.8784 37.4083 31.0145 37.2733 32.6069L38.4376 18.8755C38.4959 18.1899 39.0587 17.6729 39.7467 17.6729H44.0274C44.7045 17.6729 45.2795 18.2013 45.3365 18.8758L47.5967 45.521H50.8007C52.0956 45.521 53.1492 46.5745 53.1492 47.8696V53.3884ZM29.0409 42.8416V45.521H36.1774L36.4048 42.8416H29.0409ZM45.9795 45.5209H37.7946L38.2484 40.1701H40.2763C40.7214 40.1701 41.082 39.8095 41.082 39.3644C41.082 38.9194 40.7214 38.5588 40.2763 38.5588H38.3851L38.8389 33.2081H44.935L45.3889 38.5588H43.4976C43.0525 38.5588 42.6919 38.9194 42.6919 39.3644C42.6919 39.8095 43.0525 40.1701 43.4976 40.1701H45.5255L45.9795 45.5209ZM38.9757 31.5969H44.7984L44.3445 26.2462H39.4295L38.9757 31.5969ZM40.0201 19.2842H43.754L44.2079 24.6349H39.5663L40.0201 19.2842ZM36.5416 41.2303L36.7124 39.2175H29.0409V41.2303H36.5416ZM10.887 53.3884V49.5566H20.0049V53.3884H10.887ZM29.0409 47.1323V53.3884H51.5378V47.8696C51.5378 47.4631 51.207 47.1323 50.8006 47.1323H29.0409Z" fill="white"/>
<path fill-rule="evenodd" clip-rule="evenodd" d="M7.22114 30.3886C6.97461 30.3016 6.70111 30.3399 6.48777 30.4908C6.27433 30.6418 6.14757 30.887 6.14757 31.1484V35.761C6.14757 36.2061 6.50829 36.5667 6.95323 36.5667C7.39817 36.5667 7.7589 36.2061 7.7589 35.761V32.2868L11.9043 33.7487V41.9367H7.75879V38.9823C7.75879 38.5372 7.39807 38.1766 6.95312 38.1766C6.50818 38.1766 6.14746 38.5372 6.14746 38.9823V42.7424C6.14746 43.1874 6.50818 43.548 6.95312 43.548H23.9376C24.3825 43.548 24.7433 43.1874 24.7433 42.7424V37.1382C24.7433 36.7965 24.5278 36.4919 24.2056 36.3784L7.22114 30.3886ZM13.5156 34.3171L17.3752 35.6782V41.9368H13.5156V34.3171ZM18.9865 41.9368H23.132V37.7084L18.9865 36.2465V41.9368Z" fill="white"/>
</svg>
