<svg width="55" height="55" viewBox="0 0 55 55" fill="none" xmlns="http://www.w3.org/2000/svg">
<path fill-rule="evenodd" clip-rule="evenodd" d="M3.6676 1H51.3324C53.3546 1 55 2.64033 54.9999 4.65611V34.8104C54.9999 35.3148 54.5892 35.7242 54.0833 35.7242H0.916631C0.410674 35.7242 0 35.3148 0 34.8104V4.65611C0 2.64033 1.64538 1 3.6676 1ZM1.83398 33.8968H53.1672V4.65624C53.1672 3.64739 52.3441 2.82775 51.333 2.82775H3.66821C2.65716 2.82775 1.83398 3.64739 1.83398 4.65624V33.8968Z" fill="white"/>
<path fill-rule="evenodd" clip-rule="evenodd" d="M0.916631 33.8965H54.0834C54.5893 33.8965 55 34.3059 55 34.8102V39.3783C55 41.3942 53.3546 43.0344 51.3324 43.0344H3.6676C1.64538 43.0344 0 41.3942 0 39.3783V34.8102C0 34.3059 0.410674 33.8965 0.916631 33.8965ZM51.333 41.2072C52.3441 41.2072 53.1672 40.3876 53.1672 39.3787H53.1674V35.7244H1.83398V39.3787C1.83398 40.3876 2.65716 41.2072 3.66821 41.2072H51.333Z" fill="white"/>
<path d="M30.2506 37.5518H24.7506C24.2447 37.5518 23.834 37.9611 23.834 38.4655C23.834 38.9699 24.2447 39.3793 24.7506 39.3793H30.2506C30.7566 39.3793 31.1672 38.9699 31.1672 38.4655C31.1672 37.9611 30.7566 37.5518 30.2506 37.5518Z" fill="white"/>
<path fill-rule="evenodd" clip-rule="evenodd" d="M4.58265 4.65479H50.4159C50.922 4.65479 51.3326 5.06417 51.3326 5.56855V34.8101C51.3326 35.3144 50.922 35.7238 50.416 35.7238H4.58265C4.07669 35.7238 3.66602 35.3144 3.66602 34.8101V5.56855C3.66602 5.06417 4.07669 4.65479 4.58265 4.65479ZM5.5 33.8967H49.5V6.48278H5.5V33.8967Z" fill="white"/>
<path fill-rule="evenodd" clip-rule="evenodd" d="M15.584 48.5171H39.4172C40.9334 48.5171 42.1673 49.7471 42.1673 51.2585C42.1673 52.7699 40.9335 53.9999 39.4173 53.9999H15.584C14.0678 53.9999 12.834 52.7699 12.834 51.2585C12.834 49.7471 14.0678 48.5171 15.584 48.5171ZM15.5846 52.1725H39.4179C39.9239 52.1725 40.3346 51.7623 40.3346 51.2587C40.3346 50.7552 39.9239 50.345 39.418 50.345H15.5846C15.0786 50.345 14.668 50.7552 14.668 51.2587C14.668 51.7623 15.0786 52.1725 15.5846 52.1725Z" fill="white"/>
<path fill-rule="evenodd" clip-rule="evenodd" d="M32.9999 42.1208C32.9999 46.3653 34.5417 48.5173 37.5833 48.5173C38.0892 48.5173 38.4999 48.9267 38.4999 49.4311C38.4999 49.9355 38.0892 50.3448 37.5833 50.3448H17.4166C16.9107 50.3448 16.5 49.9355 16.5 49.4311C16.5 48.9267 16.9107 48.5173 17.4166 48.5173C20.4582 48.5173 22 46.3653 22 42.1208C22 41.6164 22.4107 41.207 22.9166 41.207H32.0833C32.5892 41.207 32.9999 41.6164 32.9999 42.1208ZM23.8077 43.0349C23.6738 45.4153 23.0093 47.2714 21.8809 48.5177H33.1183C31.9889 47.2714 31.3243 45.4153 31.1914 43.0349H23.8077Z" fill="white"/>
<path fill-rule="evenodd" clip-rule="evenodd" d="M41.5897 25.7186L43.8024 27.9245C44.1608 28.2818 44.1608 28.8593 43.8023 29.2166L41.21 31.8017C41.0386 31.9735 40.8048 32.0694 40.5619 32.0694C40.3191 32.0694 40.0853 31.9735 39.9139 31.8017L37.7011 29.5949L36.4049 30.888C36.1767 31.1154 35.8439 31.205 35.5322 31.1283C35.2196 31.0497 34.9713 30.813 34.8787 30.5042L32.1287 21.3663C32.0316 21.0446 32.1196 20.6956 32.3588 20.458C32.5972 20.2203 32.9464 20.1317 33.2699 20.2286L42.4366 22.97C42.7455 23.0631 42.9829 23.3099 43.0618 23.6215C43.1406 23.9331 43.049 24.2639 42.8207 24.4914L41.5897 25.7186ZM38.5466 27.854L40.5614 29.8635L41.8576 28.5704L39.7309 26.4505C39.5348 26.2568 39.4266 25.9955 39.4266 25.7185C39.4266 25.4426 39.5338 25.183 39.7291 24.9875L40.4386 24.2802L34.373 22.4663L36.1927 28.5128L36.8545 27.8531C37.0873 27.6219 37.3934 27.5049 37.7005 27.5049C38.0067 27.5049 38.3129 27.621 38.5466 27.854Z" fill="white"/>
<path fill-rule="evenodd" clip-rule="evenodd" d="M12.8326 8.31055H38.4993C39.0052 8.31055 39.4159 8.71993 39.4159 9.22431V13.7933C39.4159 14.2977 39.0052 14.7071 38.4993 14.7071H12.8326C12.3267 14.7071 11.916 14.2977 11.916 13.7933V9.22431C11.916 8.71993 12.3267 8.31055 12.8326 8.31055ZM13.75 12.8797H37.5834V10.1383H13.75V12.8797Z" fill="white"/>
<path fill-rule="evenodd" clip-rule="evenodd" d="M16.5006 18.3618H23.834C24.3399 18.3618 24.7506 18.7712 24.7506 19.2756V22.9307C24.7506 23.4351 24.3399 23.8445 23.834 23.8445H16.5006C15.9947 23.8445 15.584 23.4351 15.584 22.9307V19.2756C15.584 18.7712 15.9947 18.3618 16.5006 18.3618ZM17.418 22.0173H22.918V20.1897H17.418V22.0173Z" fill="white"/>
<path fill-rule="evenodd" clip-rule="evenodd" d="M12.8326 8.31055H38.4993C39.0052 8.31055 39.4159 8.71993 39.416 9.22431V22.7466C39.416 23.0354 39.2794 23.3078 39.0466 23.4795C38.8148 23.6523 38.5141 23.7053 38.2363 23.6221L34.3726 22.4661L35.533 26.3232C35.6165 26.6001 35.5633 26.8998 35.3901 27.1319C35.2176 27.3641 34.9454 27.5002 34.6549 27.5002H12.8326C12.3267 27.5002 11.916 27.0908 11.916 26.5864V9.22431C11.916 8.71993 12.3267 8.31055 12.8326 8.31055ZM33.2686 20.2284L37.5834 21.5187V10.1383H13.75V25.6729H33.4235L32.1273 21.3671C32.0302 21.0444 32.1182 20.6963 32.3574 20.4578C32.5958 20.2202 32.945 20.1315 33.2686 20.2284Z" fill="white"/>
</svg>
