<svg width="55" height="55" viewBox="0 0 55 55" fill="none" xmlns="http://www.w3.org/2000/svg">
<path d="M22.7819 11.4759C22.5015 11.1955 22.0471 11.1955 21.7668 11.4759L20.0186 13.2241L19.0261 12.2315C18.7458 11.9512 18.2913 11.9512 18.0111 12.2315C17.7307 12.5118 17.7307 12.9662 18.011 13.2466L19.511 14.7466C19.7913 15.0267 20.2458 15.0269 20.5262 14.7466L22.7819 12.4909C23.0622 12.2107 23.0622 11.7562 22.7819 11.4759Z" fill="white"/>
<path d="M22.7819 17.9495C22.5015 17.6692 22.0471 17.6692 21.7668 17.9495L20.0186 19.6977L19.0261 18.7052C18.7458 18.4248 18.2913 18.4248 18.0111 18.7052C17.7307 18.9855 17.7307 19.4399 18.011 19.7202L19.511 21.2202C19.7913 21.5004 20.2458 21.5005 20.5262 21.2202L22.7819 18.9645C23.0622 18.6842 23.0622 18.2297 22.7819 17.9495Z" fill="white"/>
<path d="M22.7819 24.555C22.5015 24.2746 22.0471 24.2746 21.7668 24.555L20.0186 26.3032L19.0261 25.3106C18.7458 25.0303 18.2913 25.0303 18.0111 25.3106C17.7307 25.5909 17.7307 26.0453 18.011 26.3257L19.511 27.8257C19.7913 28.1058 20.2458 28.106 20.5262 27.8257L22.7819 25.57C23.0622 25.2898 23.0622 24.8353 22.7819 24.555Z" fill="white"/>
<path fill-rule="evenodd" clip-rule="evenodd" d="M6.30222 52.0002H48.6978C50.5186 52.0002 52 50.5075 52 48.6727V46.7383C52 46.0324 51.4282 45.4581 50.7253 45.4581H48.2711C48.8579 44.7495 49.2099 43.8459 49.2099 42.8822V32.5616C49.2099 32.1652 48.8886 31.8439 48.4921 31.8439C48.0956 31.8439 47.7743 32.1652 47.7743 32.5616V42.8821C47.7743 44.1363 46.8525 45.2343 45.6216 45.458H9.3784C8.14747 45.2343 7.22576 44.1364 7.22576 42.8821V17.861C7.22576 16.4174 8.40012 15.2431 9.8437 15.2431H13.7197V16.7818H10.1031C9.37734 16.7818 8.78686 17.3723 8.78686 18.0981V42.6077C8.78686 43.3335 9.37734 43.924 10.1031 43.924H44.8968C45.6226 43.924 46.213 43.3335 46.213 42.6077V18.098C46.213 17.3722 45.6226 16.7817 44.8968 16.7817H41.2803V15.243H45.1563C46.5999 15.243 47.7742 16.4173 47.7742 17.8609V29.212C47.7742 29.6084 48.0955 29.9298 48.492 29.9298C48.8885 29.9298 49.2098 29.6084 49.2098 29.212V17.861C49.2098 15.6259 47.3913 13.8075 45.1563 13.8075H41.2803V4.97416C41.2803 3.88554 40.3947 3 39.3062 3H29.1748C28.7783 3 28.457 3.32137 28.457 3.71777C28.457 4.11417 28.7783 4.43554 29.1748 4.43554H39.3062C39.6032 4.43554 39.8448 4.6771 39.8448 4.97406V38.0479C39.8448 38.3328 39.613 38.5646 39.3281 38.5646H15.672C15.387 38.5646 15.1553 38.3328 15.1553 38.0479V10.0075H18.7532C19.8417 10.0075 20.7272 9.12191 20.7272 8.03339V4.43554H25.8253C26.2218 4.43554 26.5431 4.11417 26.5431 3.71777C26.5431 3.32137 26.2218 3 25.8253 3H20.0094C19.8138 3 19.6308 3.08135 19.5018 3.21026L13.9299 8.78217C13.802 8.91012 13.7198 9.09512 13.7198 9.28968V13.8074H9.8438C7.60876 13.8074 5.79031 15.6258 5.79031 17.8609V42.8821C5.79031 43.8458 6.14221 44.7494 6.72906 45.458H4.27466C3.57173 45.458 3 46.0323 3 46.7382V48.6726C3 50.5075 4.48129 52.0002 6.30222 52.0002ZM19.2919 5.45096V8.03369C19.2919 8.33065 19.0504 8.57221 18.7534 8.57221H16.1707L19.2919 5.45096ZM39.3274 40.0003H15.6713C14.5947 40.0003 13.719 39.1244 13.719 38.0479V18.2173H10.2218V42.4884H44.7768V18.2173H41.2796V38.048C41.2796 39.1247 40.4036 40.0003 39.3274 40.0003ZM21.2793 46.8938H33.7193V47.4738C33.7193 47.7134 33.522 47.9158 33.2886 47.9158H21.7101C21.4766 47.9158 21.2793 47.7134 21.2793 47.4738V46.8938ZM19.8445 46.8938H4.43555V48.6728C4.43555 49.716 5.27295 50.5647 6.30223 50.5647H48.6978C49.7271 50.5647 50.5645 49.716 50.5645 48.6728V46.8938H35.1556V47.4738C35.1556 48.509 34.3183 49.3513 33.2893 49.3513H21.7108C20.6817 49.3513 19.8445 48.509 19.8445 47.4738V46.8938Z" fill="white"/>
<path d="M36.9341 11.1333H25.2393C24.8428 11.1333 24.5215 11.4547 24.5215 11.8511C24.5215 12.2475 24.8428 12.5688 25.2393 12.5688H36.9341C37.3306 12.5688 37.6519 12.2475 37.6519 11.8511C37.6519 11.4547 37.3306 11.1333 36.9341 11.1333Z" fill="white"/>
<path d="M36.9341 13.9663H25.2393C24.8428 13.9663 24.5215 14.2877 24.5215 14.6841C24.5215 15.0805 24.8428 15.4018 25.2393 15.4018H36.9341C37.3306 15.4018 37.6519 15.0805 37.6519 14.6841C37.6519 14.2877 37.3306 13.9663 36.9341 13.9663V13.9663Z" fill="white"/>
<path d="M36.9341 17.7393H25.2393C24.8428 17.7393 24.5215 18.0606 24.5215 18.457C24.5215 18.8534 24.8428 19.1748 25.2393 19.1748H36.9341C37.3306 19.1748 37.6519 18.8534 37.6519 18.457C37.6519 18.0606 37.3306 17.7393 36.9341 17.7393Z" fill="white"/>
<path d="M36.9341 20.5723H25.2393C24.8428 20.5723 24.5215 20.8936 24.5215 21.29C24.5215 21.6864 24.8428 22.0078 25.2393 22.0078H36.9341C37.3306 22.0078 37.6519 21.6864 37.6519 21.29C37.6519 20.8936 37.3306 20.5723 36.9341 20.5723Z" fill="white"/>
<path d="M36.9341 24.3447H25.2393C24.8428 24.3447 24.5215 24.6661 24.5215 25.0625C24.5215 25.4589 24.8428 25.7803 25.2393 25.7803H36.9341C37.3306 25.7803 37.6519 25.4589 37.6519 25.0625C37.6519 24.6661 37.3306 24.3447 36.9341 24.3447Z" fill="white"/>
<path d="M36.9341 27.1768H25.2393C24.8428 27.1768 24.5215 27.4981 24.5215 27.8945C24.5215 28.2909 24.8428 28.6123 25.2393 28.6123H36.9341C37.3306 28.6123 37.6519 28.2909 37.6519 27.8945C37.6519 27.4981 37.3306 27.1768 36.9341 27.1768V27.1768Z" fill="white"/>
<path d="M21.7668 31.1599L20.0186 32.9081L19.0261 31.9156C18.7457 31.6353 18.2913 31.6353 18.011 31.9156C17.7307 32.1959 17.7307 32.6504 18.011 32.9306L19.5111 34.4307C19.7915 34.711 20.2459 34.711 20.5262 34.4307L22.7819 32.175C23.0622 31.8947 23.0622 31.4402 22.7819 31.1599C22.5015 30.8796 22.0471 30.8796 21.7668 31.1599Z" fill="white"/>
<path d="M36.9341 30.9497H25.2393C24.8428 30.9497 24.5215 31.2711 24.5215 31.6675C24.5215 32.0639 24.8428 32.3852 25.2393 32.3852H36.9341C37.3306 32.3852 37.6519 32.0639 37.6519 31.6675C37.6519 31.2711 37.3306 30.9497 36.9341 30.9497Z" fill="white"/>
<path d="M36.9341 33.7822H25.2393C24.8428 33.7822 24.5215 34.1036 24.5215 34.5C24.5215 34.8964 24.8428 35.2178 25.2393 35.2178H36.9341C37.3306 35.2178 37.6519 34.8964 37.6519 34.5C37.6519 34.1036 37.3306 33.7822 36.9341 33.7822Z" fill="white"/>
</svg>
