<svg width="55" height="55" viewBox="0 0 55 55" fill="none" xmlns="http://www.w3.org/2000/svg">
<path fill-rule="evenodd" clip-rule="evenodd" d="M44.531 18.4941C45.6856 19.7013 45.8543 21.5214 44.9412 22.9202C44.5389 23.5367 44.4671 24.3107 44.749 24.9909C45.3895 26.5337 44.8894 28.2918 43.5327 29.2664C42.9347 29.6959 42.5882 30.3917 42.6058 31.1276C42.6456 32.7977 41.5441 34.2564 39.927 34.675C39.4496 34.7985 39.0349 35.0748 38.7377 35.4515L42.457 44.4302C42.9779 45.6877 41.7992 46.9844 40.4977 46.5849L36.426 45.3353C36.307 45.2988 36.1786 45.352 36.1204 45.4618L34.1249 49.2246C33.4873 50.4265 31.7373 50.3452 31.2158 49.0864L27.3394 39.7281C27.2886 39.7264 27.2377 39.7264 27.1869 39.7281L23.3105 49.0864C22.7899 50.3433 21.0399 50.4282 20.4015 49.2245L18.4059 45.4618C18.3477 45.3521 18.2193 45.2989 18.1004 45.3352L14.0286 46.5848C12.7278 46.9841 11.5482 45.6884 12.0694 44.4301L15.7885 35.4514C15.4914 35.0747 15.0766 34.7984 14.5993 34.6749C12.9822 34.2562 11.8806 32.7975 11.9204 31.1275C11.9381 30.3916 11.5917 29.6958 10.9937 29.2662C9.63704 28.2917 9.13673 26.5336 9.77726 24.9908C10.0596 24.3108 9.98786 23.5368 9.58547 22.9204C8.67233 21.5216 8.84108 19.7014 9.9956 18.4941C10.5044 17.9621 10.7171 17.2144 10.5646 16.4943C10.2185 14.86 11.0333 13.2237 12.546 12.5151C13.2126 12.2028 13.6811 11.5825 13.799 10.8558C14.0667 9.20695 15.4175 7.97539 17.0841 7.86109C17.8186 7.81069 18.4794 7.40155 18.8519 6.76651C19.6971 5.32561 21.4016 4.66528 22.9969 5.16073C23.6999 5.37907 24.464 5.23633 25.0407 4.77868C26.3493 3.74044 28.1771 3.74044 29.4858 4.77868C30.0626 5.23615 30.8265 5.37907 31.5296 5.16073C33.1253 4.66537 34.8294 5.3257 35.6747 6.76651C36.0472 7.40155 36.708 7.81069 37.4425 7.86109C39.1091 7.97539 40.46 9.20686 40.7275 10.8558C40.8455 11.5825 41.3139 12.2028 41.9806 12.5151C43.4934 13.2236 44.3082 14.8599 43.962 16.4943C43.8095 17.2144 44.0222 17.962 44.531 18.4941ZM21.5943 48.5919C21.6975 48.7866 21.9788 48.7741 22.0635 48.5696L25.5018 40.2692C25.1877 40.3564 24.8673 40.401 24.5488 40.401C23.5418 40.401 22.5547 39.973 21.8543 39.1666C21.3714 38.6109 20.6466 38.3303 19.9155 38.4156C18.6054 38.5686 17.3608 38.0002 16.6164 36.9804L13.3168 44.9466C13.2322 45.1508 13.4216 45.3589 13.6329 45.2943L17.7046 44.0447C18.4411 43.8188 19.2377 44.1486 19.5987 44.8292L21.5943 48.5919ZM40.8939 45.2942L36.8223 44.0446C36.0858 43.8187 35.289 44.1486 34.9281 44.8291L32.9325 48.5919C32.8295 48.7863 32.5478 48.7737 32.4632 48.5695L29.0256 40.2707C30.3324 40.6334 31.7507 40.2275 32.6725 39.1664C33.1553 38.6107 33.8798 38.3299 34.6113 38.4154C35.9227 38.5686 37.1664 38.0001 37.9104 36.9803L41.2102 44.9462C41.295 45.1512 41.1045 45.3585 40.8939 45.2942ZM43.5027 25.5082C43.0493 24.416 43.1645 23.1727 43.8108 22.1824C44.3792 21.3116 44.2743 20.1785 43.5558 19.427C42.7384 18.5723 42.3968 17.3714 42.6417 16.2145C42.8572 15.1972 42.3501 14.1785 41.4083 13.7375C40.3375 13.2357 39.585 12.2393 39.3954 11.072C39.2289 10.0456 38.3879 9.27895 37.3505 9.20776C36.1707 9.12676 35.109 8.46949 34.5107 7.44943C33.9846 6.55258 32.9235 6.14146 31.9304 6.44989C30.8008 6.80071 29.5737 6.57112 28.6473 5.83618C27.8325 5.1898 26.6946 5.1898 25.8801 5.83618C24.9536 6.57121 23.7263 6.80062 22.5969 6.44989C21.6041 6.14155 20.5428 6.55249 20.0166 7.44943C19.4182 8.46958 18.3566 9.12685 17.1768 9.20776C16.1394 9.27886 15.2984 10.0455 15.1318 11.072C14.9423 12.2393 14.1899 13.2357 13.119 13.7374C12.1773 14.1785 11.67 15.1972 11.8855 16.2145C12.1305 17.3714 11.7888 18.5723 10.9715 19.427C10.2526 20.1785 10.1477 21.3116 10.716 22.1823C11.3624 23.1726 11.4776 24.4159 11.0242 25.5081C10.6254 26.4686 10.9369 27.5631 11.7815 28.1698C12.7419 28.8598 13.2985 29.9774 13.2702 31.1597C13.2454 32.1993 13.9311 33.1073 14.9379 33.3679C15.8793 33.6116 16.6697 34.2243 17.144 35.0527L17.1486 35.0612C17.2491 35.2377 17.336 35.4234 17.4061 35.6181C17.7585 36.5966 18.7264 37.1958 19.7589 37.0749C19.8979 37.0586 20.037 37.0506 20.175 37.0506C21.2038 37.0506 22.1896 37.4943 22.8734 38.2814C23.5554 39.0663 24.6739 39.2755 25.5935 38.7899C25.907 38.6244 26.2388 38.5095 26.5778 38.4432L26.5826 38.4422C27.0319 38.3549 27.4936 38.3548 27.9429 38.4418L27.9512 38.4436C28.2894 38.51 28.6206 38.6246 28.9334 38.7899C29.853 39.2754 30.9716 39.0663 31.6536 38.2814C32.4291 37.3887 33.5936 36.9375 34.768 37.0748C35.8015 37.196 36.7683 36.5964 37.1207 35.618C37.1908 35.4231 37.2779 35.2372 37.3785 35.0605L37.3823 35.0534C37.8565 34.2246 38.6473 33.6117 39.5889 33.3679C40.5957 33.1073 41.2815 32.1992 41.2566 31.1596C41.2284 29.9774 41.7849 28.8597 42.7454 28.1698C43.5901 27.563 43.9014 26.4686 43.5027 25.5082Z" fill="white"/>
<path d="M14.5515 21.2616C14.9259 21.3069 15.2675 21.0444 15.3135 20.6752C16.0686 14.6273 21.3084 10.0668 27.5016 10.0668C33.6978 10.0668 38.9377 14.6298 39.6903 20.6808C39.7328 21.0223 40.0276 21.2727 40.368 21.2727C40.3958 21.2727 40.4238 21.271 40.4521 21.2676C40.8269 21.2223 41.0935 20.8862 41.0476 20.5169C40.2111 13.7911 34.3875 8.71924 27.5016 8.71924C20.6188 8.71924 14.7956 13.7884 13.9563 20.5106C13.9103 20.8799 14.1767 21.2161 14.5515 21.2616Z" fill="white"/>
<path d="M40.4524 23.0699C40.0787 23.025 39.7365 23.2875 39.6906 23.6568C38.9383 29.7081 33.6982 34.2714 27.5018 34.2714C21.3081 34.2714 16.0683 29.7104 15.3136 23.6621C15.2675 23.2928 14.9266 23.0304 14.5515 23.0756C14.1768 23.121 13.9102 23.4573 13.9564 23.8266C14.7953 30.5493 20.6184 35.6188 27.5017 35.6188C34.388 35.6188 40.2115 30.5467 41.0477 23.8206C41.0937 23.4513 40.8272 23.1152 40.4524 23.0699Z" fill="white"/>
<path fill-rule="evenodd" clip-rule="evenodd" d="M35.9433 18.4883C36.5053 18.5082 36.9806 18.8616 37.1544 19.3886C37.3282 19.9157 37.1543 20.4769 36.7114 20.8185L32.4876 24.077L33.9612 29.1599C34.1157 29.6929 33.9216 30.2477 33.4666 30.5733C33.0116 30.8991 32.4162 30.9095 31.9499 30.6001L27.5 27.6483L23.0501 30.6003C22.5833 30.9101 21.9879 30.8989 21.5334 30.5735C21.0784 30.2478 20.8842 29.693 21.0387 29.1601L22.5124 24.0771L18.2885 20.8186C17.8457 20.477 17.672 19.9157 17.8457 19.3886C18.0195 18.8616 18.4949 18.5082 19.0569 18.4883L24.4176 18.2988L26.257 13.333C26.4498 12.8124 26.9378 12.4761 27.5001 12.4761C28.0624 12.4761 28.5503 12.8124 28.7431 13.333L30.5826 18.2988L35.9433 18.4883ZM31.165 24.4193C31.0162 23.9067 31.1955 23.3629 31.6217 23.034L35.7739 19.8307L30.5042 19.6443C29.9634 19.6253 29.4942 19.2892 29.3086 18.7883L27.5003 13.9067L25.692 18.7883C25.5065 19.2892 25.0372 19.6253 24.4964 19.6444L19.2265 19.8308L23.3788 23.034C23.8049 23.3629 23.9841 23.9065 23.8354 24.4193L22.3868 29.4159L26.7612 26.5142C26.9857 26.3653 27.2429 26.2909 27.5002 26.2909C27.7575 26.2909 28.0148 26.3653 28.2393 26.5143L32.6136 29.416L31.165 24.4193Z" fill="white"/>
</svg>
