<svg width="55" height="55" viewBox="0 0 55 55" fill="none" xmlns="http://www.w3.org/2000/svg">
<path fill-rule="evenodd" clip-rule="evenodd" d="M10.5028 10H44.5065C47.5419 10 50.0093 12.5313 50 15.6335V39.376C50 42.4783 47.5326 45 44.4972 45H10.5028C7.46741 45 5 42.4783 5 39.376V15.624C5 12.5218 7.46741 10 10.5028 10ZM44.507 42.4309C46.155 42.4309 47.4958 41.0606 47.4958 39.3763H47.4865V15.6338C47.4865 13.9494 46.1457 12.5791 44.4977 12.5791H10.5033C8.85522 12.5791 7.51444 13.9494 7.51444 15.6338V39.3763C7.51444 41.0606 8.85522 42.4309 10.5033 42.4309H44.507Z" fill="white"/>
<path d="M33.3802 27.205L44.3858 17.118C44.8979 16.6422 44.9444 15.8333 44.4789 15.3004C44.0133 14.777 43.2219 14.7295 42.7005 15.2053L27.5236 29.1272L24.5627 26.4247C24.5534 26.4152 24.5441 26.4057 24.5441 26.3961C24.4789 26.3295 24.4137 26.2724 24.3392 26.2153L12.2908 15.1958C11.7694 14.72 10.978 14.7675 10.5124 15.3004C10.0469 15.8333 10.0934 16.6422 10.6148 17.118L21.7508 27.2906L10.6614 37.901C10.1586 38.3863 10.1307 39.1952 10.6055 39.7186C10.8569 39.985 11.1921 40.1278 11.5273 40.1278C11.8346 40.1278 12.1418 40.0136 12.3839 39.7852L23.6409 29.0226L26.6949 31.8108C26.937 32.0296 27.2349 32.1343 27.5329 32.1343C27.8308 32.1343 28.1381 32.0201 28.3709 31.8012L31.5087 28.9274L42.7005 39.7947C42.9426 40.0326 43.2591 40.1468 43.5664 40.1468C43.9016 40.1468 44.2275 40.0136 44.4789 39.7471C44.9537 39.2333 44.9351 38.4149 44.4323 37.9296L33.3802 27.205Z" fill="white"/>
</svg>
