<svg width="55" height="55" viewBox="0 0 55 55" fill="none" xmlns="http://www.w3.org/2000/svg">
<path fill-rule="evenodd" clip-rule="evenodd" d="M10.5028 10H44.5065C47.5419 10 50.0093 12.5313 50 15.6335V39.376C50 42.4783 47.5326 45 44.4972 45H10.5028C7.46741 45 5 42.4783 5 39.376V15.624C5 12.5218 7.46741 10 10.5028 10ZM44.507 42.4309C46.155 42.4309 47.4958 41.0606 47.4958 39.3763H47.4865V15.6338C47.4865 13.9494 46.1457 12.5791 44.4977 12.5791H10.5033C8.85522 12.5791 7.51444 13.9494 7.51444 15.6338V39.3763C7.51444 41.0606 8.85522 42.4309 10.5033 42.4309H44.507Z" fill="white"/>
<path d="M33.3802 27.2045L44.3858 17.1175C44.8979 16.6417 44.9444 15.8328 44.4789 15.2999C44.0133 14.7766 43.2219 14.729 42.7005 15.2048L27.5236 29.1267L24.5627 26.4242C24.5534 26.4147 24.5441 26.4052 24.5441 26.3956C24.4789 26.329 24.4137 26.2719 24.3392 26.2148L12.2908 15.1953C11.7694 14.7195 10.978 14.767 10.5124 15.2999C10.0469 15.8328 10.0934 16.6417 10.6148 17.1175L21.7508 27.2902L10.6614 37.9005C10.1586 38.3859 10.1307 39.1947 10.6055 39.7181C10.8569 39.9846 11.1921 40.1273 11.5273 40.1273C11.8346 40.1273 12.1418 40.0131 12.3839 39.7847L23.6409 29.0221L26.6949 31.8103C26.937 32.0291 27.2349 32.1338 27.5329 32.1338C27.8308 32.1338 28.1381 32.0196 28.3709 31.8008L31.5087 28.9269L42.7005 39.7942C42.9426 40.0321 43.2591 40.1463 43.5664 40.1463C43.9016 40.1463 44.2275 40.0131 44.4789 39.7467C44.9537 39.2328 44.9351 38.4144 44.4323 37.9291L33.3802 27.2045Z" fill="white"/>
</svg>
