<svg width="55" height="55" viewBox="0 0 55 55" fill="none" xmlns="http://www.w3.org/2000/svg">
<path d="M0.920937 14.2386H8.32729C8.45996 14.2386 8.56783 14.3466 8.56783 14.4793V26.3293C8.56783 26.7721 8.92682 27.1311 9.36963 27.1311C9.81243 27.1311 10.1714 26.7721 10.1714 26.3293V15.7922H11.395C11.612 15.7922 11.8197 15.7042 11.9708 15.5485L12.7973 14.6957C13.7601 13.7022 15.1057 13.1324 16.4892 13.1324H23.5278L18.1726 19.3926C17.0858 20.6631 17.1606 22.5842 18.3427 23.7663C18.9696 24.3932 19.7937 24.7119 20.6217 24.7118C21.3324 24.7118 22.0461 24.4768 22.6395 24.0004L27.3086 20.2509H31.4978L35.7698 26.2985C35.9261 26.5197 36.1737 26.6377 36.4254 26.6377C36.5853 26.6377 36.7468 26.59 36.8873 26.4907C37.2489 26.2352 37.335 25.7349 37.0796 25.3732L33.3675 20.1182C33.5846 19.9747 33.728 19.7287 33.728 19.449C33.728 19.0062 33.3691 18.6472 32.9262 18.6472H27.0266C26.844 18.6472 26.6669 18.7096 26.5245 18.8238L21.6354 22.75C20.99 23.2682 20.0621 23.2177 19.4766 22.6324C18.8827 22.0384 18.8451 21.0733 19.3912 20.4349L25.8781 12.8518C26.2364 12.4328 26.7581 12.1925 27.3095 12.1925H34.2671C34.71 12.1925 35.0689 11.8335 35.0689 11.3907C35.0689 10.9479 34.71 10.5889 34.2671 10.5889H27.3095C26.4191 10.5889 25.5707 10.9274 24.9281 11.5287H16.4892C14.6742 11.5287 12.9089 12.2762 11.6458 13.5795L11.0555 14.1885H10.1463C10.0061 13.3096 9.24508 12.6351 8.32729 12.6351H0.920937C0.478132 12.6351 0.119141 12.994 0.119141 13.4368C0.119141 13.8797 0.478132 14.2386 0.920937 14.2386Z" fill="white"/>
<path d="M54.0802 33.2058H46.7808C46.6481 33.2058 46.5402 33.0979 46.5402 32.9653V14.4797C46.5402 14.347 46.6481 14.2391 46.7808 14.2391H54.0802C54.5232 14.2391 54.882 13.8801 54.882 13.4373C54.882 12.9945 54.5232 12.6355 54.0802 12.6355H46.7808C45.7901 12.6355 44.9818 13.4211 44.9405 14.4018H44.352L41.9746 12.2773C40.7989 11.2266 39.2815 10.6282 37.7023 10.5925C37.2545 10.5822 36.8926 10.9332 36.8826 11.376C36.8725 11.8187 37.2234 12.1857 37.666 12.1957C38.864 12.2227 40.0147 12.6764 40.9062 13.473L43.5117 15.8014C43.6586 15.9328 43.8488 16.0054 44.0459 16.0054H44.9366V31.4508H40.821C40.7585 30.847 40.5415 30.2674 40.1803 29.7629L39.0512 28.1646C38.7957 27.803 38.2956 27.7168 37.9337 27.9722C37.572 28.2278 37.4859 28.7281 37.7413 29.0897L38.8735 30.6923C39.1753 31.1138 39.2948 31.6277 39.2101 32.1392C39.1256 32.6508 38.8468 33.0987 38.4251 33.4005C38.0035 33.7023 37.4896 33.8216 36.9781 33.7373C36.4667 33.6526 36.0187 33.3738 35.7169 32.9523L33.5054 29.8637C33.2477 29.5036 32.7466 29.4208 32.3867 29.6786C32.0267 29.9364 31.9437 30.4373 32.2017 30.7972L33.7189 32.9163C34.3419 33.7867 34.1409 35.0015 33.2706 35.6246C32.8493 35.9265 32.3356 36.0461 31.8238 35.9613C31.3122 35.8767 30.8643 35.5979 30.5624 35.1763L29.0452 33.0572C28.7874 32.6971 28.2864 32.6144 27.9265 32.8721C27.5664 33.1299 27.4836 33.6307 27.7415 33.9907L28.9555 35.6864C29.5783 36.5566 29.3771 37.7713 28.507 38.3943C27.6368 39.0175 26.4219 38.8164 25.7988 37.9461L24.5849 36.2507C24.3271 35.8906 23.8262 35.8076 23.4663 36.0656C23.1062 36.3233 23.0233 36.8242 23.2811 37.1842L24.3247 38.642C24.6265 39.0635 24.7462 39.5774 24.6615 40.089C24.5768 40.6005 24.298 41.0485 23.8765 41.3503C23.0063 41.9733 21.7914 41.7723 21.171 40.906L14.8441 31.9573C14.6199 31.6401 14.2542 31.4508 13.8658 31.4508H10.1715V29.7467C10.1715 29.3039 9.81254 28.9449 9.36973 28.9449C8.92693 28.9449 8.56794 29.3039 8.56794 29.7467V32.9652C8.56794 33.0979 8.45996 33.2057 8.3274 33.2057H0.920937C0.478132 33.2057 0.119141 33.5647 0.119141 34.0075C0.119141 34.4503 0.478132 34.8093 0.920937 34.8093H8.32729C9.31403 34.8093 10.12 34.0297 10.1669 33.0542H13.6558L19.8643 41.8355C20.5555 42.801 21.6456 43.3154 22.7512 43.3154C23.4654 43.3154 24.1862 43.1006 24.8099 42.6541C25.5797 42.1029 26.0888 41.285 26.2435 40.3508C26.2529 40.2939 26.2608 40.2369 26.2674 40.1801C26.6267 40.2984 27.0032 40.3596 27.3816 40.3596C28.0957 40.3596 28.8166 40.1448 29.4403 39.6982C30.2454 39.1218 30.7359 38.2678 30.8767 37.3591C31.096 37.4423 31.3251 37.5044 31.5617 37.5436C31.7576 37.5759 31.9534 37.592 32.148 37.592C32.8817 37.592 33.5955 37.3642 34.2039 36.9285C34.9098 36.4231 35.3737 35.7043 35.5724 34.9223C35.9232 35.1169 36.3086 35.2518 36.716 35.3193C36.9119 35.3517 37.1077 35.3677 37.3024 35.3677C38.036 35.3677 38.7499 35.1399 39.3583 34.7042C39.9424 34.286 40.376 33.7139 40.6189 33.0542H44.9406C44.9876 34.0297 45.7934 34.8093 46.7804 34.8093H54.0798C54.5227 34.8093 54.8816 34.4503 54.8816 34.0075C54.8816 33.5647 54.5232 33.2058 54.0802 33.2058Z" fill="white"/>
<path d="M27.501 6.38871C27.9439 6.38871 28.3028 6.02972 28.3028 5.58692V2.8018C28.3028 2.35899 27.9439 2 27.501 2C27.0582 2 26.6992 2.35899 26.6992 2.8018V5.58681C26.6992 6.02972 27.0582 6.38871 27.501 6.38871Z" fill="white"/>
<path d="M35.48 8.02842C35.5842 8.07375 35.6927 8.09524 35.7996 8.09524C36.109 8.09524 36.4037 7.9151 36.5351 7.61341L37.647 5.06006C37.8239 4.65403 37.6381 4.18161 37.232 4.00479C36.8263 3.82818 36.3536 4.01377 36.1769 4.4198L35.0649 6.97315C34.8881 7.37907 35.0739 7.85149 35.48 8.02842Z" fill="white"/>
<path d="M18.4681 7.6135C18.5994 7.9153 18.8942 8.09533 19.2036 8.09533C19.3105 8.09533 19.4191 8.07384 19.5233 8.02841C19.9294 7.85158 20.1152 7.37916 19.9382 6.97313L18.8262 4.41979C18.6495 4.01386 18.1771 3.82806 17.7709 4.00488C17.3649 4.18171 17.1791 4.65413 17.356 5.06016L18.4681 7.6135Z" fill="white"/>
<path d="M27.501 47.6118C27.0582 47.6118 26.6992 47.9708 26.6992 48.4136V51.1986C26.6992 51.6414 27.0582 52.0004 27.501 52.0004C27.9439 52.0004 28.3028 51.6414 28.3028 51.1986V48.4136C28.3028 47.9708 27.9439 47.6118 27.501 47.6118Z" fill="white"/>
<path d="M36.5351 46.3872C36.3585 45.9812 35.8859 45.7953 35.48 45.9722C35.0739 46.149 34.8881 46.6214 35.0649 47.0274L36.1769 49.5808C36.3083 49.8826 36.6029 50.0626 36.9124 50.0626C37.0192 50.0626 37.1279 50.0411 37.232 49.9958C37.6381 49.819 37.8239 49.3465 37.647 48.9405L36.5351 46.3872Z" fill="white"/>
<path d="M19.5233 45.9722C19.1171 45.7953 18.6448 45.9811 18.468 46.3871L17.356 48.9405C17.1792 49.3464 17.3648 49.8189 17.7709 49.9958C17.8751 50.0412 17.9837 50.0627 18.0906 50.0627C18.4 50.0627 18.6948 49.8825 18.8261 49.5808L19.9382 47.0275C20.1151 46.6215 19.9293 46.1491 19.5233 45.9722Z" fill="white"/>
</svg>
