<svg width="55" height="55" viewBox="0 0 55 55" fill="none" xmlns="http://www.w3.org/2000/svg">
<path fill-rule="evenodd" clip-rule="evenodd" d="M44.9915 18.4689C46.161 19.674 46.3319 21.4909 45.4069 22.8874C44.9994 23.5027 44.9267 24.2753 45.2123 24.9544C45.8611 26.4945 45.3545 28.2496 43.9802 29.2225C43.3745 29.6512 43.0235 30.3458 43.0413 31.0805C43.0816 32.7476 41.9658 34.2038 40.3278 34.6216C39.8442 34.745 39.4241 35.0207 39.1231 35.3968L42.8905 44.3599C43.4182 45.6153 42.2242 46.9096 40.9059 46.5108L36.7814 45.2634C36.6609 45.227 36.5308 45.2801 36.4719 45.3897L34.4505 49.146C33.8046 50.3458 32.032 50.2647 31.5037 49.008L27.5771 39.666C27.5256 39.6643 27.474 39.6643 27.4225 39.666L23.4959 49.008C22.9686 50.2627 21.1959 50.3475 20.5492 49.1459L18.5278 45.3897C18.4688 45.2802 18.3388 45.2271 18.2183 45.2633L14.0938 46.5107C12.7761 46.9094 11.5812 45.6159 12.1092 44.3598L15.8765 35.3967C15.5755 35.0206 15.1554 34.7449 14.6718 34.6215C13.0338 34.2036 11.9179 32.7474 11.9583 31.0804C11.9761 30.3457 11.6252 29.6511 11.0195 29.2223C9.64529 28.2495 9.1385 26.4944 9.78733 24.9543C10.0733 24.2755 10.0007 23.5029 9.59306 22.8875C8.66808 21.4911 8.83902 19.6741 10.0085 18.4689C10.5239 17.9378 10.7394 17.1915 10.5849 16.4725C10.2343 14.8411 11.0596 13.2077 12.592 12.5003C13.2672 12.1885 13.7418 11.5693 13.8612 10.8439C14.1323 9.1979 15.5006 7.96848 17.1888 7.85438C17.9329 7.80406 18.6022 7.39564 18.9795 6.7617C19.8357 5.32331 21.5623 4.66412 23.1783 5.15871C23.8904 5.37667 24.6644 5.23418 25.2486 4.77733C26.5741 3.74089 28.4256 3.74089 29.7513 4.77733C30.3356 5.234 31.1094 5.37667 31.8216 5.15871C33.438 4.66421 35.1641 5.3234 36.0203 6.7617C36.3977 7.39564 37.0671 7.80406 37.8111 7.85438C39.4992 7.96848 40.8677 9.19781 41.1387 10.8439C41.2582 11.5693 41.7326 12.1885 42.408 12.5003C43.9404 13.2076 44.7657 14.8411 44.415 16.4725C44.2606 17.1915 44.476 17.9377 44.9915 18.4689ZM21.7579 48.5147C21.8624 48.709 22.1474 48.6965 22.2332 48.4924L25.716 40.2064C25.3979 40.2935 25.0733 40.3379 24.7507 40.3379C23.7306 40.338 22.7308 39.9107 22.0212 39.1057C21.5321 38.551 20.798 38.2709 20.0573 38.356C18.7302 38.5087 17.4696 37.9414 16.7154 36.9233L13.3731 44.8757C13.2874 45.0795 13.4793 45.2872 13.6933 45.2227L17.8178 43.9753C18.5638 43.7498 19.3708 44.079 19.7364 44.7585L21.7579 48.5147ZM41.3067 45.2227L37.1822 43.9753C36.4362 43.7498 35.6291 44.0791 35.2635 44.7585L33.2421 48.5147C33.1377 48.7088 32.8523 48.6963 32.7666 48.4924L29.2846 40.208C30.6082 40.5701 32.0449 40.1649 32.9787 39.1056C33.4677 38.5509 34.2016 38.2705 34.9426 38.3559C36.271 38.5089 37.5308 37.9414 38.2845 36.9233L41.627 44.8754C41.7129 45.0801 41.5199 45.287 41.3067 45.2227ZM43.9501 25.4709C43.4909 24.3805 43.6075 23.1394 44.2623 22.1509C44.838 21.2816 44.7317 20.1504 44.0039 19.4002C43.176 18.5471 42.8299 17.3482 43.078 16.1934C43.2963 15.1778 42.7826 14.1609 41.8286 13.7206C40.7439 13.2197 39.9817 12.2251 39.7897 11.0598C39.6209 10.0351 38.7691 9.26985 37.7182 9.19878C36.5231 9.11792 35.4477 8.4618 34.8416 7.44351C34.3088 6.54822 33.2339 6.13781 32.2279 6.44571C31.0837 6.79592 29.8406 6.56673 28.9022 5.83306C28.0769 5.18781 26.9242 5.18781 26.0991 5.83306C25.1607 6.56682 23.9174 6.79583 22.7734 6.44571C21.7677 6.1379 20.6927 6.54813 20.1597 7.44351C19.5536 8.46188 18.4782 9.11801 17.2831 9.19878C16.2322 9.26976 15.3804 10.035 15.2116 11.0598C15.0196 12.2251 14.2575 13.2197 13.1727 13.7205C12.2188 14.1609 11.705 15.1778 11.9232 16.1934C12.1714 17.3482 11.8252 18.5471 10.9974 19.4002C10.2692 20.1504 10.1629 21.2816 10.7386 22.1508C11.3934 23.1394 11.5101 24.3805 11.0508 25.4708C10.6468 26.4296 10.9623 27.5222 11.8178 28.1278C12.7908 28.8167 13.3545 29.9323 13.3259 31.1125C13.3008 32.1503 13.9954 33.0567 15.0151 33.3169C15.9687 33.5602 16.7695 34.1718 17.2499 34.9988L17.2546 35.0072C17.3563 35.1835 17.4444 35.3689 17.5154 35.5632C17.8723 36.54 18.8528 37.1381 19.8986 37.0175C20.0395 37.0012 20.1804 36.9932 20.3202 36.9932C21.3623 36.9932 22.3609 37.4362 23.0535 38.2218C23.7443 39.0055 24.8773 39.2142 25.8089 38.7295C26.1264 38.5642 26.4625 38.4496 26.806 38.3834L26.8108 38.3824C27.2659 38.2952 27.7336 38.2951 28.1887 38.382L28.1972 38.3838C28.5398 38.45 28.8752 38.5645 29.1921 38.7295C30.1236 39.2142 31.2567 39.0055 31.9475 38.2218C32.733 37.3307 33.9126 36.8803 35.1023 37.0174C36.1491 37.1383 37.1285 36.5398 37.4855 35.5631C37.5565 35.3686 37.6447 35.183 37.7466 35.0066L37.7505 34.9995C38.2308 34.1721 39.0318 33.5603 39.9857 33.3169C41.0055 33.0568 41.7002 32.1503 41.675 31.1124C41.6464 29.9323 42.2101 28.8166 43.1831 28.1278C44.0387 27.5221 44.354 26.4296 43.9501 25.4709Z" fill="white"/>
<path d="M14.5515 21.2616C14.9259 21.3069 15.2675 21.0444 15.3135 20.6752C16.0686 14.6273 21.3084 10.0668 27.5016 10.0668C33.6978 10.0668 38.9377 14.6298 39.6903 20.6808C39.7328 21.0223 40.0276 21.2727 40.368 21.2727C40.3958 21.2727 40.4238 21.271 40.4521 21.2676C40.8269 21.2223 41.0935 20.8862 41.0476 20.5169C40.2111 13.7911 34.3875 8.71924 27.5016 8.71924C20.6188 8.71924 14.7956 13.7884 13.9563 20.5106C13.9103 20.8799 14.1767 21.2161 14.5515 21.2616V21.2616Z" fill="white"/>
<path d="M40.4524 23.0699C40.0787 23.025 39.7365 23.2875 39.6906 23.6568C38.9383 29.7081 33.6982 34.2714 27.5018 34.2714C21.3081 34.2714 16.0683 29.7104 15.3136 23.6621C15.2675 23.2928 14.9266 23.0304 14.5515 23.0756C14.1768 23.121 13.9102 23.4573 13.9564 23.8266C14.7953 30.5493 20.6184 35.6188 27.5017 35.6188C34.388 35.6188 40.2115 30.5467 41.0477 23.8206C41.0937 23.4513 40.8272 23.1152 40.4524 23.0699V23.0699Z" fill="white"/>
<path fill-rule="evenodd" clip-rule="evenodd" d="M35.9433 18.4883C36.5053 18.5082 36.9806 18.8616 37.1544 19.3886C37.3282 19.9157 37.1543 20.4769 36.7114 20.8185L32.4876 24.077L33.9612 29.1599C34.1157 29.6929 33.9216 30.2477 33.4666 30.5733C33.0116 30.8991 32.4162 30.9095 31.9499 30.6001L27.5 27.6483L23.0501 30.6003C22.5833 30.9101 21.9879 30.8989 21.5334 30.5735C21.0784 30.2478 20.8842 29.693 21.0387 29.1601L22.5124 24.0771L18.2885 20.8186C17.8457 20.477 17.672 19.9157 17.8457 19.3886C18.0195 18.8616 18.4949 18.5082 19.0569 18.4883L24.4176 18.2988L26.257 13.333C26.4498 12.8124 26.9378 12.4761 27.5001 12.4761C28.0624 12.4761 28.5503 12.8124 28.7431 13.333L30.5826 18.2988L35.9433 18.4883ZM31.165 24.4193C31.0162 23.9067 31.1955 23.3629 31.6217 23.034L35.7739 19.8307L30.5042 19.6443C29.9634 19.6253 29.4942 19.2892 29.3086 18.7883L27.5003 13.9067L25.692 18.7883C25.5065 19.2892 25.0372 19.6253 24.4964 19.6444L19.2265 19.8308L23.3788 23.034C23.8049 23.3629 23.9841 23.9065 23.8354 24.4193L22.3868 29.4159L26.7612 26.5142C26.9857 26.3653 27.2429 26.2909 27.5002 26.2909C27.7575 26.2909 28.0148 26.3653 28.2393 26.5143L32.6136 29.416L31.165 24.4193Z" fill="white"/>
</svg>
