<svg width="55" height="55" viewBox="0 0 55 55" fill="none" xmlns="http://www.w3.org/2000/svg">
<path fill-rule="evenodd" clip-rule="evenodd" d="M21.2396 35.418L19.5827 33.761C19.0105 33.1889 19.0105 32.2578 19.5826 31.6855L20.6197 30.6485C20.5437 30.4822 20.473 30.3117 20.4088 30.1394H18.9423C18.133 30.1394 17.4746 29.481 17.4746 28.6717V26.3285C17.4746 25.5192 18.133 24.8608 18.9423 24.8608H20.4088C20.473 24.6886 20.5436 24.5181 20.6197 24.3517L19.5828 23.3149C19.0105 22.7424 19.0105 21.8113 19.5827 21.2392L21.2396 19.5823C21.8132 19.0085 22.7418 19.0086 23.3153 19.5823L24.3522 20.6192C24.5183 20.5432 24.6889 20.4726 24.8613 20.4084V18.9418C24.8613 18.1325 25.5197 17.4741 26.329 17.4741H28.6722C29.4815 17.4741 30.1399 18.1325 30.1399 18.9418V20.4084C30.3121 20.4725 30.4826 20.5431 30.649 20.6192L31.6858 19.5822C32.2581 19.0101 33.1893 19.0099 33.7614 19.5822L35.4185 21.2392C35.9906 21.8113 35.9906 22.7424 35.4186 23.3147L34.3814 24.3517C34.4576 24.5182 34.5283 24.6887 34.5923 24.8608H36.0588C36.8682 24.8608 37.5266 25.5192 37.5266 26.3285V28.6717C37.5266 29.481 36.8682 30.1394 36.0588 30.1394H34.5923C34.5282 30.3116 34.4576 30.4821 34.3814 30.6485L35.4184 31.6853C35.9906 32.2578 35.9906 33.1889 35.4185 33.761L33.7615 35.418C33.1893 35.9901 32.258 35.9898 31.686 35.4181L30.649 34.381C30.4826 34.4571 30.3121 34.5277 30.1399 34.5918V36.0584C30.1399 36.8677 29.4815 37.5261 28.6722 37.5261H26.329C25.5197 37.5261 24.8613 36.8677 24.8613 36.0584V34.5918C24.6891 34.5277 24.5186 34.4571 24.3522 34.381L23.3153 35.418C22.7415 35.9915 21.8134 35.9915 21.2396 35.418ZM19.0856 28.5277H20.5097C21.1287 28.5277 21.6835 28.9182 21.8904 29.4992C21.9573 29.687 22.0343 29.873 22.1194 30.052C22.3841 30.6096 22.268 31.2782 21.8307 31.7157L20.8235 32.7229L22.2772 34.1766L23.2842 33.1696C23.7217 32.7322 24.3902 32.6158 24.9478 32.8806C25.1271 32.9658 25.3131 33.0428 25.5011 33.1098C26.0819 33.3166 26.4724 33.8715 26.4724 34.4903V35.9145H28.5284V34.4903C28.5284 33.8713 28.9189 33.3165 29.5001 33.1096C29.6878 33.0428 29.8738 32.9658 30.0528 32.8807C30.6107 32.616 31.2791 32.7321 31.7165 33.1695L32.7237 34.1766L34.1774 32.7229L33.1705 31.7159C32.7329 31.2782 32.6168 30.6096 32.8814 30.0523C32.9666 29.873 33.0436 29.687 33.1106 29.4991C33.3174 28.9182 33.8723 28.5277 34.4911 28.5277H35.9153V26.4717H34.4912C33.8723 26.4717 33.3174 26.0812 33.1105 25.5002C33.0436 25.3125 32.9666 25.1264 32.8814 24.9472C32.6167 24.3897 32.7328 23.7211 33.1704 23.2835L34.1774 22.2765L32.7237 20.8228L31.7167 21.8298C31.279 22.2672 30.6106 22.3836 30.0531 22.1188C29.8738 22.0336 29.6878 21.9566 29.4999 21.8897C28.919 21.6828 28.5285 21.128 28.5285 20.5091V19.085H26.4725V20.5091C26.4725 21.128 26.082 21.6828 25.501 21.8897C25.3129 21.9567 25.1268 22.0339 24.9483 22.1186C24.3903 22.3837 23.7217 22.2673 23.2842 21.8299L22.2772 20.8228L20.8235 22.2765L21.8305 23.2835C22.268 23.721 22.3842 24.3896 22.1195 24.9472C22.0343 25.1264 21.9573 25.3124 21.8904 25.5004C21.6835 26.0812 21.1287 26.4717 20.5097 26.4717H19.0856V28.5277Z" fill="white"/>
<path fill-rule="evenodd" clip-rule="evenodd" d="M31.7993 27.5002C31.7993 29.8713 29.8703 31.8003 27.4993 31.8003C25.1283 31.8003 23.1992 29.8713 23.1992 27.5002C23.1992 25.1292 25.1283 23.2002 27.4993 23.2002C29.8703 23.2002 31.7993 25.1292 31.7993 27.5002ZM30.1885 27.5003C30.1885 26.0179 28.9824 24.8116 27.4998 24.8116C26.0172 24.8116 24.8111 26.0178 24.8111 27.5003C24.8111 28.9828 26.0172 30.1891 27.4998 30.1891C28.9823 30.1891 30.1885 28.9829 30.1885 27.5003Z" fill="white"/>
<path fill-rule="evenodd" clip-rule="evenodd" d="M10.1211 20.2423C15.7167 20.2423 20.2423 15.695 20.2423 10.1212C20.2423 4.5403 15.7019 0 10.1211 0C4.5403 0 0 4.5403 0 10.1211C0 15.6975 4.53708 20.2423 10.1211 20.2423ZM15.5134 16.6985C13.9883 17.9511 12.0898 18.6308 10.1205 18.6308C8.19377 18.6308 6.28445 17.9772 4.72769 16.6986C4.72769 15.0304 6.04286 13.8719 7.50541 13.8719H12.7356C14.1996 13.8717 15.5134 15.0316 15.5134 16.6985ZM18.6305 10.1212C18.6305 5.42891 14.813 1.61145 10.1206 1.61145C5.42832 1.61145 1.61086 5.42891 1.61086 10.1212C1.61086 12.0505 2.25722 13.831 3.34326 15.26C3.92613 13.5192 5.5712 12.2607 7.50554 12.2607H12.7357C14.6703 12.2607 16.3152 13.5192 16.8981 15.26C17.9841 13.831 18.6305 12.0505 18.6305 10.1212Z" fill="white"/>
<path fill-rule="evenodd" clip-rule="evenodd" d="M44.879 34.7578C39.2982 34.7578 34.7578 39.2982 34.7578 44.879C34.7578 50.4576 39.2901 55.0001 44.879 55.0001C50.4398 55.0001 55.0001 50.48 55.0001 44.879C55.0001 39.2982 50.4598 34.7578 44.879 34.7578ZM50.2717 51.4568C47.1468 54.0235 42.6356 54.0438 39.486 51.4568C39.486 49.7886 40.8012 48.6302 42.2637 48.6302H47.4939C48.9582 48.6301 50.2717 49.7898 50.2717 51.4568ZM47.494 47.0186C49.4285 47.0186 51.0734 48.277 51.6563 50.0178C52.7423 48.5889 53.3887 46.8084 53.3888 44.8791C53.3888 40.1866 49.5714 36.3692 44.8791 36.3692C40.1866 36.3692 36.3692 40.1866 36.3692 44.8791C36.3692 46.8084 37.0155 48.5889 38.1017 50.0178C38.6846 48.277 40.3295 47.0186 42.2639 47.0186H47.494Z" fill="white"/>
<path fill-rule="evenodd" clip-rule="evenodd" d="M11.8159 4.01519C13.1058 5.30489 13.1057 7.39235 11.8159 8.68205C10.5261 9.97193 8.43854 9.97166 7.14893 8.68205C5.85914 7.39217 5.85923 5.3048 7.14911 4.01519C8.43881 2.72522 10.5264 2.72558 11.816 4.01519H11.8159ZM10.8612 4.96964C10.1009 4.20932 8.86388 4.20932 8.10356 4.96964C7.34135 5.73185 7.34144 6.9653 8.10347 7.72742C8.86397 8.48765 10.101 8.48765 10.8612 7.72742C11.6235 6.96521 11.6234 5.73176 10.8613 4.96964H10.8612Z" fill="white"/>
<path fill-rule="evenodd" clip-rule="evenodd" d="M11.8175 43.4405C10.5307 44.7271 8.43698 44.7269 7.15061 43.4405C5.86388 42.1538 5.86388 40.0601 7.15052 38.7735C8.43716 37.487 10.5308 37.487 11.8174 38.7735H11.8175C13.1041 40.0601 13.1041 42.1538 11.8175 43.4405ZM10.8628 39.7281C10.1025 38.9678 8.86556 38.9678 8.10506 39.7281C7.34483 40.4884 7.34483 41.7256 8.10515 42.4859C8.86547 43.2463 10.1027 43.2463 10.8629 42.4859C11.6232 41.7256 11.6232 40.4884 10.8628 39.7281Z" fill="white"/>
<path fill-rule="evenodd" clip-rule="evenodd" d="M41.9083 8.68269C40.6217 7.39605 40.6217 5.30247 41.9083 4.01583C43.1949 2.72919 45.2886 2.72901 46.5753 4.01583H46.5752C47.8651 5.30553 47.865 7.39299 46.5752 8.68269C45.29 9.96807 43.1963 9.97068 41.9083 8.68269ZM42.8629 7.72815C43.6234 8.48856 44.8605 8.48847 45.6207 7.72815C46.3829 6.96603 46.3828 5.73258 45.6208 4.97037H45.6207C44.8605 4.21005 43.6231 4.21005 42.8629 4.97037C42.1026 5.73069 42.1026 6.96783 42.8629 7.72815Z" fill="white"/>
<path fill-rule="evenodd" clip-rule="evenodd" d="M41.9083 38.7736C43.1949 37.4869 45.2887 37.487 46.5752 38.7735C47.8619 40.0602 47.8619 42.1538 46.5753 43.4406C45.2886 44.7271 43.195 44.7272 41.9084 43.4406C40.6217 42.1539 40.6217 40.0603 41.9083 38.7736ZM42.8629 42.486C43.6234 43.2463 44.8605 43.2463 45.6208 42.4859C46.381 41.7256 46.381 40.4884 45.6207 39.7282C44.8603 38.9678 43.6232 38.9679 42.8628 39.7282C42.1027 40.4885 42.1027 41.7257 42.8629 42.486Z" fill="white"/>
<path d="M32.5694 10.9268C33.0144 10.9268 33.375 10.566 33.375 10.1211C33.375 9.67615 33.0144 9.31543 32.5694 9.31543H22.4307C21.9856 9.31543 21.625 9.67615 21.625 10.1211C21.625 10.566 21.9856 10.9268 22.4307 10.9268H32.5694Z" fill="white"/>
<path d="M22.4307 44.0732C21.9856 44.0732 21.625 44.4339 21.625 44.8789C21.625 45.324 21.9856 45.6846 22.4307 45.6846H32.5694C33.0144 45.6846 33.375 45.324 33.375 44.8789C33.375 44.4339 33.0144 44.0732 32.5694 44.0732H22.4307Z" fill="white"/>
<path d="M10.9277 32.5694V22.4307C10.9277 21.9856 10.5671 21.625 10.1221 21.625C9.67702 21.625 9.31641 21.9856 9.31641 22.4307V32.5694C9.31641 33.0144 9.67702 33.375 10.1221 33.375C10.5671 33.375 10.9277 33.0144 10.9277 32.5694Z" fill="white"/>
<path d="M45.6856 32.5694V22.4307C45.6856 21.9856 45.3249 21.625 44.8799 21.625C44.4348 21.625 44.0742 21.9856 44.0742 22.4307V32.5694C44.0742 33.0144 44.4348 33.375 44.8799 33.375C45.3249 33.375 45.6856 33.0144 45.6856 32.5694Z" fill="white"/>
<path fill-rule="evenodd" clip-rule="evenodd" d="M54.1752 9.11519C53.7391 9.20081 53.3153 8.91571 53.23 8.47904C52.4524 4.49959 48.9403 1.61133 44.879 1.61133C40.1867 1.61133 36.3691 5.42879 36.3693 10.1211C36.3693 12.0504 37.0155 13.8309 38.1016 15.2598C38.6845 13.5191 40.3296 12.2606 42.2639 12.2606H47.4941C49.4274 12.2606 51.0716 13.5176 51.6553 15.2568C52.3936 14.2895 52.9323 13.1571 53.1987 11.9153C53.2921 11.4802 53.7209 11.2035 54.1554 11.2965C54.5905 11.3897 54.8675 11.8181 54.7742 12.2532C53.7808 16.8843 49.6585 20.2422 44.879 20.2422C39.3167 20.2422 34.7578 15.7288 34.7578 10.1211C34.7578 4.5403 39.2982 0 44.879 0C49.7091 0 53.8864 3.436 54.8114 8.16999C54.8968 8.60666 54.6119 9.0299 54.1752 9.11519ZM47.494 13.8719H42.2638C40.8012 13.8719 39.486 15.0304 39.486 16.6986C41.0621 17.9932 42.9799 18.6309 44.8789 18.6309C46.8953 18.6309 48.7864 17.9072 50.2717 16.6891V16.6497C50.2717 15.118 49.0257 13.8719 47.494 13.8719Z" fill="white"/>
<path fill-rule="evenodd" clip-rule="evenodd" d="M16.9593 43.268C16.9593 47.9421 13.1592 51.7476 8.47962 51.7476C3.78981 51.7476 0 47.9352 0 43.268C0 39.2584 2.84679 35.7649 6.76908 34.961C7.13448 34.8866 7.49115 35.1216 7.56594 35.4868C7.64073 35.852 7.40538 36.2088 7.04016 36.2837C3.74301 36.9592 1.35 39.8966 1.35 43.268C1.35 44.8844 1.89153 46.3762 2.80143 47.5734C3.28977 46.1149 4.66803 45.0606 6.28866 45.0606H10.6706C12.2913 45.0606 13.6695 46.1149 14.1578 47.5734C15.0678 46.3761 15.6093 44.8843 15.6093 43.268C15.6093 39.8967 13.2162 36.9593 9.91908 36.2837C9.55386 36.2087 9.31842 35.852 9.3933 35.4868C9.46818 35.1216 9.82548 34.8868 10.1902 34.961C14.1124 35.7649 16.9593 39.2584 16.9593 43.268ZM10.6706 46.4106H6.28866C5.06331 46.4106 3.96144 47.3811 3.96144 48.7787C6.60375 50.9491 10.3843 50.9254 12.9979 48.7787C12.9979 47.3822 11.8973 46.4106 10.6706 46.4106Z" fill="white"/>
</svg>
