<svg width="55" height="55" viewBox="0 0 55 55" fill="none" xmlns="http://www.w3.org/2000/svg">
<path fill-rule="evenodd" clip-rule="evenodd" d="M39.4591 30.2621C40.7147 30.2621 41.8994 30.8065 42.8816 31.8246L48.4406 37.379C49.4633 38.3871 50 39.5867 50 40.8367C50 42.0766 49.4735 43.2863 48.471 44.3246C48.0356 44.7782 47.5901 45.2117 47.1547 45.625C47.1074 45.6706 47.0602 45.7159 47.0133 45.7611C46.4271 46.3254 45.8702 46.8616 45.3827 47.4496C45.3776 47.4597 45.37 47.4672 45.3624 47.4748C45.3548 47.4824 45.3472 47.4899 45.3422 47.5C43.803 49.1633 41.8386 50 39.4996 50C39.2971 50 39.0743 49.9899 38.8617 49.9798C35.3885 49.7581 32.2799 48.4577 29.951 47.3589C23.8553 44.4254 18.519 40.2621 14.084 34.9899C10.4286 30.6149 7.97813 26.5323 6.33776 22.127C5.66946 20.3327 4.79865 17.5907 5.04167 14.6472C5.20368 12.8226 5.94286 11.25 7.23895 9.95968L10.6817 6.50202L10.702 6.48185C11.7145 5.51411 12.9094 5 14.1447 5C15.3801 5 16.5546 5.51411 17.5368 6.48185C18.195 7.08669 18.8329 7.73185 19.4405 8.35685C19.7442 8.67943 20.0683 9.002 20.3821 9.31448L20.3822 9.31452L23.1465 12.0665C25.2729 14.1835 25.2729 16.9254 23.1465 19.0423C23.0048 19.1835 22.863 19.3271 22.7213 19.4707C22.5795 19.6144 22.4377 19.7581 22.2959 19.8992C22.2236 19.9721 22.1512 20.0454 22.0784 20.1188C21.3976 20.8067 20.697 21.5145 19.9468 22.1976C20.5644 23.5585 21.415 24.8992 22.6807 26.4919C25.2932 29.6875 28.017 32.1573 31.0142 34.0524C31.3079 34.2339 31.6521 34.4052 32.0167 34.5867C32.1025 34.6311 32.1896 34.6756 32.2774 34.7204C32.4484 34.8078 32.6224 34.8967 32.7963 34.9899L35.9961 31.8145C37.0188 30.7964 38.2136 30.2621 39.4591 30.2621ZM45.5012 43.4455C45.8504 43.1076 46.1815 42.7871 46.5057 42.4394C47.5386 41.3709 47.5386 40.3124 46.4956 39.2842L40.9163 33.7298L40.8961 33.7096C40.5822 33.3669 40.0658 32.9737 39.438 32.9737C38.8001 32.9737 38.2533 33.387 37.909 33.7298L34.446 37.1774C34.2738 37.3487 33.7473 37.8729 32.9069 37.8729C32.5727 37.8729 32.2487 37.7923 31.9044 37.6209C31.8842 37.6108 31.8639 37.5982 31.8437 37.5856C31.8234 37.573 31.8032 37.5604 31.7829 37.5503C31.4893 37.3689 31.145 37.1975 30.7805 37.0161L30.7804 37.016C30.3754 36.8144 29.9501 36.6027 29.535 36.3407C26.2846 34.2943 23.338 31.6229 20.5433 28.1955L20.5332 28.1854C18.9941 26.2399 17.9815 24.6068 17.2626 22.8729L17.2322 22.7822C17.0499 22.2076 16.8879 21.3608 17.7587 20.4939C17.7653 20.4809 17.776 20.4721 17.7883 20.462C17.795 20.4565 17.8022 20.4506 17.8094 20.4435C18.6903 19.6572 19.5004 18.8507 20.3509 17.9838C20.5463 17.796 20.7372 17.6037 20.9296 17.4099C21.0264 17.3125 21.1235 17.2147 21.2217 17.1169C22.2951 16.0483 22.2951 15.0604 21.2217 13.9919L18.4574 11.2399C18.2967 11.0748 18.1359 10.9123 17.9764 10.751C17.8144 10.5871 17.6537 10.4246 17.4955 10.262C16.8778 9.62695 16.2905 9.03219 15.6728 8.45759L15.6425 8.42735C15.3184 8.10477 14.802 7.72171 14.1641 7.72171C13.6477 7.72171 13.1211 7.97372 12.625 8.43743L9.1721 11.8749C8.33167 12.7116 7.87601 13.6895 7.77475 14.8689C7.62287 16.7136 7.96714 18.6693 8.90884 21.1794C10.4378 25.2923 12.7465 29.1229 16.1994 33.2661C20.3813 38.2358 25.4138 42.1572 31.145 44.9193C33.241 45.9173 36.0357 47.0866 39.0431 47.2782C39.195 47.2882 39.357 47.2882 39.5089 47.2882C41.0885 47.2882 42.2934 46.7741 43.3161 45.6854C43.9439 44.9495 44.6122 44.2943 45.2704 43.6693C45.3483 43.5936 45.4252 43.5191 45.5012 43.4455Z" fill="white"/>
</svg>
