<svg width="55" height="55" viewBox="0 0 55 55" fill="none" xmlns="http://www.w3.org/2000/svg">
<path fill-rule="evenodd" clip-rule="evenodd" d="M29.2621 49.5003C28.8149 52.6047 26.1444 55.0003 22.9186 55.0003C19.3809 55.0003 16.502 52.1219 16.502 48.5837C16.502 45.0455 19.3809 42.167 22.9186 42.167C26.1444 42.167 28.8149 44.5626 29.2621 47.667H39.0391L37.8538 46.4818L39.1501 45.1855L41.9001 47.9355C42.0791 48.1146 42.1686 48.3491 42.1686 48.5837C42.1686 48.8182 42.0791 49.0527 41.9001 49.2318L39.1501 51.9818L37.8538 50.6855L39.0391 49.5003H29.2621ZM27.5005 48.5834C27.5005 46.0563 25.4443 44.0001 22.9172 44.0001C20.3901 44.0001 18.3338 46.0563 18.3338 48.5834C18.3338 51.1105 20.3901 53.1667 22.9172 53.1667C25.4443 53.1667 27.5005 51.1105 27.5005 48.5834Z" fill="white"/>
<path fill-rule="evenodd" clip-rule="evenodd" d="M54.9993 48.5837C54.9993 52.1219 52.1204 55.0003 48.5827 55.0003C45.0449 55.0003 42.166 52.1219 42.166 48.5837C42.166 45.0455 45.0449 42.167 48.5827 42.167C52.1204 42.167 54.9993 45.0455 54.9993 48.5837ZM53.1649 48.5834C53.1649 46.0563 51.1086 44.0001 48.5815 44.0001C46.0544 44.0001 43.9982 46.0563 43.9982 48.5834C43.9982 51.1105 46.0544 53.1667 48.5815 53.1667C51.1086 53.1667 53.1649 51.1105 53.1649 48.5834Z" fill="white"/>
<path fill-rule="evenodd" clip-rule="evenodd" d="M12.9066 26.5835C13.3538 23.4791 16.0242 21.0835 19.25 21.0835C22.7878 21.0835 25.6667 23.962 25.6667 27.5002C25.6667 31.0384 22.7878 33.9168 19.25 33.9168C16.0242 33.9168 13.3538 31.5212 12.9066 28.4168H11.4583C6.1508 28.4168 1.83333 32.7347 1.83333 38.0418C1.83333 43.3489 6.1508 47.6668 11.4583 47.6668H13.3704L12.1852 46.4816L13.4814 45.1854L16.2314 47.9354C16.4105 48.1144 16.5 48.349 16.5 48.5835C16.5 48.818 16.4105 49.0526 16.2314 49.2316L13.4814 51.9816L12.1852 50.6854L13.3704 49.5002H11.4583C5.14014 49.5002 0 44.36 0 38.0418C0 31.7236 5.14014 26.5835 11.4583 26.5835H12.9066ZM14.6661 27.5C14.6661 30.0271 16.7223 32.0833 19.2494 32.0833C21.7765 32.0833 23.8327 30.0271 23.8327 27.5C23.8327 24.9729 21.7765 22.9167 19.2494 22.9167C16.7223 22.9167 14.6661 24.9729 14.6661 27.5Z" fill="white"/>
<path fill-rule="evenodd" clip-rule="evenodd" d="M21.3519 4.31478L22.6481 3.01856L25.3981 5.76856C25.5771 5.94759 25.6667 6.18213 25.6667 6.41667C25.6667 6.65121 25.5771 6.88574 25.3981 7.06478L22.6481 9.81478L21.3519 8.51856L22.5371 7.33333H12.7602C12.313 10.4377 9.64245 12.8333 6.41667 12.8333C2.8789 12.8333 0 9.95487 0 6.41667C0 2.87846 2.8789 0 6.41667 0C9.64245 0 12.313 2.39562 12.7602 5.5H22.5371L21.3519 4.31478ZM1.83264 6.41659C1.83264 8.9437 3.88887 10.9999 6.41597 10.9999C8.94307 10.9999 10.9993 8.9437 10.9993 6.41659C10.9993 3.88949 8.94307 1.83326 6.41597 1.83326C3.88887 1.83326 1.83264 3.88949 1.83264 6.41659Z" fill="white"/>
<path fill-rule="evenodd" clip-rule="evenodd" d="M43.541 5.5C49.8592 5.5 54.9994 10.6401 54.9994 16.9583C54.9994 23.2765 49.8592 28.4167 43.541 28.4167H28.7956L29.9808 29.6019L28.6846 30.8981L25.9346 28.1481C25.7555 27.9691 25.666 27.7345 25.666 27.5C25.666 27.2655 25.7555 27.0309 25.9346 26.8519L28.6846 24.1019L29.9808 25.3981L28.7956 26.5833H43.541C48.8486 26.5833 53.166 22.2654 53.166 16.9583C53.166 11.6512 48.8486 7.33333 43.541 7.33333H38.4262C37.979 10.4377 35.3085 12.8333 32.0827 12.8333C28.5449 12.8333 25.666 9.95487 25.666 6.41667C25.666 2.87846 28.5449 0 32.0827 0C35.3085 0 37.979 2.39562 38.4262 5.5H43.541ZM27.4995 6.41659C27.4995 8.9437 29.5557 10.9999 32.0828 10.9999C34.6099 10.9999 36.6662 8.9437 36.6662 6.41659C36.6662 3.88949 34.6099 1.83326 32.0828 1.83326C29.5557 1.83326 27.4995 3.88949 27.4995 6.41659Z" fill="white"/>
</svg>
