<svg width="55" height="56" viewBox="0 0 55 56" fill="none" xmlns="http://www.w3.org/2000/svg">
<path fill-rule="evenodd" clip-rule="evenodd" d="M49.3489 37.4244C47.3678 36.2808 45.0869 35.9093 42.8644 36.3571L34.8191 28.3135L42.8705 20.2637C43.4714 20.383 44.075 20.4411 44.6735 20.441C47.9404 20.4409 51.0561 18.7121 52.7479 15.7825C53.9921 13.6279 54.3226 11.1178 53.6785 8.71463C53.0344 6.31153 51.493 4.30309 49.338 3.0592C44.8899 0.491799 39.1815 2.02101 36.6133 6.46848C35.4694 8.44919 35.0979 10.7297 35.5456 12.9518L27.5 20.9958L26.8467 20.3427C26.4423 19.9384 25.787 19.9386 25.383 20.343C24.9789 20.7474 24.979 21.4029 25.3833 21.8071L26.0359 22.4596L21.6449 26.8497L13.9236 19.1299L18.3108 14.736L18.7949 15.22C19.1992 15.6242 19.8544 15.624 20.2586 15.2197C20.6627 14.8153 20.6626 14.1598 20.2583 13.7556L19.4482 12.9457C20.2184 9.0657 18.4331 5.07158 14.966 3.07017C12.28 1.51983 9.0099 1.40668 6.21867 2.76787C5.29271 3.21935 4.81069 3.80315 4.78626 4.5031C4.76225 5.19012 5.17793 5.7854 6.0216 6.2724L8.8004 7.87636C9.27353 8.14947 9.27352 8.28178 9.27352 8.52176V9.71161C9.27352 10.4536 9.19983 10.581 8.55706 10.9521L7.52646 11.547C7.32514 11.6633 7.20352 11.7335 6.72988 11.4601L3.95118 9.85613C3.10751 9.36903 2.38422 9.30702 1.80148 9.67134C1.20778 10.0425 0.943219 10.7517 1.01505 11.7792C1.23189 14.8769 2.96499 17.6521 5.65105 19.2026C7.63204 20.3461 9.91319 20.7176 12.1354 20.2698L20.1807 28.3136L12.1294 36.3632C8.24893 35.5927 4.25394 37.3779 2.25215 40.8443C1.00791 42.9989 0.677417 45.509 1.32143 47.9122C1.96554 50.3153 3.50694 52.3237 5.66181 53.5676C7.12517 54.4123 8.72412 54.8137 10.3036 54.8135C13.5252 54.8133 16.6633 53.1428 18.3865 50.1585C19.5304 48.1778 19.902 45.8973 19.4542 43.6752L27.4998 35.6311L35.5514 43.6812C34.7812 47.5613 36.5666 51.5554 40.0336 53.5567C41.4724 54.3874 43.0785 54.8054 44.6893 54.8054C46.0853 54.8053 47.485 54.4911 48.7809 53.8591C49.7069 53.4077 50.1889 52.8238 50.2134 52.1238C50.2373 51.4368 49.8218 50.8416 48.978 50.3545L46.1993 48.7507C45.7262 48.4774 45.7261 48.3452 45.7261 48.1053V46.9153C45.7261 46.1734 45.7998 46.0459 46.4426 45.6748L47.4732 45.08L47.4732 45.0799C47.6746 44.9637 47.7961 44.8935 48.2696 45.1668L51.0484 46.7708C51.8919 47.2579 52.6154 47.32 53.1982 46.9556C53.7918 46.5844 54.0565 45.8752 53.9846 44.8477C53.7681 41.75 52.035 38.9749 49.3489 37.4244ZM6.68594 17.4089C4.63002 16.2221 3.29191 14.1124 3.08924 11.7488L5.6954 13.2531C6.34272 13.6269 7.34434 14.0425 8.56135 13.34L9.59206 12.7451C10.869 12.008 11.3438 11.1858 11.3439 9.71133V8.52138C11.3439 7.11598 10.483 6.45651 9.8354 6.08267L7.23007 4.57882C9.37925 3.57263 11.8754 3.67636 13.9315 4.86311C16.6883 6.45444 18.0775 9.66464 17.3741 12.7438L11.9328 18.1932C10.1406 18.6074 8.28748 18.3333 6.68594 17.4089ZM48.3032 4.85228C44.8431 2.85512 40.4034 4.04455 38.4057 7.50364C37.4813 9.10439 37.2073 10.9568 37.6213 12.7484L43.0721 18.1889C43.6055 18.3106 44.143 18.3701 44.675 18.3701C47.2161 18.3703 49.6389 17.0255 50.9551 14.7465C51.9226 13.0711 52.1796 11.1192 51.6787 9.25047C51.1778 7.38168 49.979 5.81965 48.3032 4.85228ZM16.5941 49.1229C14.5965 52.582 10.1566 53.7713 6.69662 51.7741C5.02066 50.8068 3.82186 49.2447 3.321 47.3759C2.82014 45.5073 3.07725 43.5553 4.04471 41.8798C5.36078 39.6008 7.78373 38.2562 10.3247 38.2562C10.8568 38.2562 11.3943 38.3157 11.9277 38.4374L17.3787 43.8779C17.7925 45.6697 17.5185 47.522 16.5941 49.1229ZM13.92 37.5007L18.3148 41.887L41.0802 19.126L36.6856 14.7398L13.92 37.5007ZM28.9641 34.1674L33.3551 29.7773L41.0764 37.4971L36.6892 41.8909L28.9641 34.1674ZM46.4386 43.2865C47.6556 42.5841 48.6571 42.9996 49.3046 43.3735L51.9107 44.8778C51.7081 42.514 50.3699 40.4044 48.314 39.2177C46.7126 38.2933 44.8594 38.0192 43.0669 38.4332L37.6259 43.8825C36.9224 46.9618 38.3117 50.172 41.0684 51.7633C43.1245 52.9502 45.6209 53.054 47.7699 52.0476L45.1648 50.544C44.5171 50.17 43.6564 49.5105 43.6562 48.1052V46.915C43.6562 45.4408 44.131 44.6185 45.4079 43.8814L46.4386 43.2865Z" fill="white"/>
<path fill-rule="evenodd" clip-rule="evenodd" d="M44.1632 15.6071L41.058 13.8147C40.7376 13.6297 40.5403 13.288 40.5403 12.9181V9.33329C40.5403 8.96339 40.7376 8.62154 41.058 8.43664L44.1632 6.64425C44.4833 6.45935 44.8779 6.45945 45.1978 6.64425L48.3029 8.43664C48.6233 8.62154 48.8206 8.96339 48.8206 9.33329V12.9181C48.8206 13.288 48.6233 13.6298 48.3029 13.8147L45.1978 15.6071C45.0378 15.6996 44.8591 15.7457 44.6805 15.7457C44.5018 15.7457 44.3232 15.6996 44.1632 15.6071ZM44.6805 8.7356L42.6104 9.93053V12.3195L44.6805 13.5145L46.7505 12.3195V9.93053L44.6805 8.7356Z" fill="white"/>
<path fill-rule="evenodd" clip-rule="evenodd" d="M10.837 41.0199L13.9421 42.8123C14.2624 42.9972 14.4598 43.3391 14.4599 43.709V47.2937C14.4599 47.6636 14.2626 48.0054 13.9422 48.1903L10.8371 49.9827C10.677 50.0751 10.4984 50.1213 10.3197 50.1213C10.1409 50.1213 9.96235 50.0751 9.80223 49.9827L6.69707 48.1903C6.37683 48.0054 6.17944 47.6636 6.17944 47.2937V43.709C6.17944 43.3391 6.37672 42.9972 6.69707 42.8123L9.80223 41.0199C10.1225 40.8351 10.5167 40.8351 10.837 41.0199ZM10.3196 47.8903L12.3897 46.6954V44.3063L10.3196 43.1114L8.24945 44.3063V46.6954L10.3196 47.8903Z" fill="white"/>
<path d="M22.8213 18.8163C23.3929 18.8163 23.8563 18.3529 23.8563 17.7813C23.8563 17.2096 23.3929 16.7462 22.8213 16.7462H22.8205C22.2489 16.7462 21.7859 17.2096 21.7859 17.7813C21.7859 18.3529 22.2496 18.8163 22.8213 18.8163Z" fill="white"/>
</svg>
