<svg width="2048" height="1152" viewBox="0 0 2048 1152" fill="none" xmlns="http://www.w3.org/2000/svg">
<rect width="2048" height="1152" fill="white"/>
<g clip-path="url(#clip0)">
<path d="M212.582 567.688V597.225H204.69V555.607H212.75L236.813 584.833V555.607H244.714V597.225H236.62L212.582 567.688Z" fill="#171717"/>
<path d="M258.117 581.468C258.526 584.371 259.993 587.021 262.237 588.91C264.481 590.798 267.343 591.79 270.274 591.697C277.199 591.697 281.212 585.859 281.212 585.859L287.48 589.468C287.48 589.468 281.868 597.805 269.652 597.805C255.264 597.805 250.435 587.239 250.435 579.642C250.435 572.045 255.323 561.513 269.694 561.513C284.064 561.513 288.919 572.087 288.919 579.676C288.919 580.273 288.877 580.887 288.818 581.501L258.117 581.468ZM280.716 575.377C279.37 571.339 275.996 567.587 269.694 567.587C263.392 567.587 260.018 571.372 258.689 575.41L280.716 575.377Z" fill="#171717"/>
<path d="M353.906 562.169L337.819 597.183H324.315L322.127 575.133L312.031 597.183H298.485L295.01 562.169H303.256L306.015 589.931H307.109L319.864 562.169H329.119L331.87 589.931H332.964L345.728 562.169H353.906Z" fill="#171717"/>
<path d="M387.107 566.434L383.051 572.946C381.97 571.638 380.609 570.591 379.068 569.882C377.527 569.173 375.846 568.82 374.15 568.849C370.33 568.849 366.115 571.465 363.296 574.561V597.183H355.286V562.169H363.296V568.335C366.241 564.895 370.523 561.513 375.277 561.513C379.712 561.544 383.959 563.31 387.107 566.434V566.434Z" fill="#171717"/>
<path d="M426.12 577.59V597.183H418.102V593.54C413.754 596.272 408.74 597.759 403.605 597.839C393.509 597.839 389.891 592.615 389.891 587.374C389.891 582.132 393.896 576.891 403.605 576.891C408.742 576.98 413.756 578.475 418.102 581.215V577.59C418.102 570.96 417.084 567.923 408.746 567.923C403.544 568.001 398.446 569.397 393.93 571.978L390.278 566.695C390.278 566.695 398.507 561.496 408.174 561.496C422.191 561.496 426.12 567.881 426.12 577.59ZM418.102 586.692C415.006 584.328 410.437 582.124 405.608 582.124C400.038 582.124 397.901 584.564 397.901 587.374C397.901 590.183 401.266 592.615 405.608 592.615C410.147 592.474 414.523 590.892 418.102 588.097V586.692Z" fill="#171717"/>
<path d="M467.717 549.626V597.183H459.707V591.176C456.561 595.012 450.73 597.839 444.933 597.839C435.501 597.839 431.471 588.762 431.471 579.676C431.471 570.59 438.11 561.513 447.457 561.513C452.783 561.513 457.158 565.568 459.699 569.085V549.626H467.717ZM459.707 576.261C457.545 572.609 453.995 568.083 449.317 568.083C442.586 568.083 439.363 573.459 439.363 579.676C439.363 585.893 441.467 591.277 446.792 591.277C449.344 591.261 451.854 590.623 454.104 589.42C456.354 588.217 458.277 586.484 459.707 584.37V576.261Z" fill="#171717"/>
<path d="M481.045 581.468C481.454 584.371 482.922 587.021 485.165 588.91C487.409 590.798 490.272 591.79 493.203 591.697C500.127 591.697 504.141 585.859 504.141 585.859L510.409 589.468C510.409 589.468 504.797 597.805 492.58 597.805C478.193 597.805 473.355 587.239 473.355 579.642C473.355 572.045 478.235 561.513 492.589 561.513C506.942 561.513 511.805 572.087 511.805 579.676C511.805 580.273 511.763 580.887 511.704 581.501L481.045 581.468ZM503.644 575.377C502.298 571.339 498.916 567.587 492.622 567.587C486.329 567.587 482.947 571.339 481.6 575.377H503.644Z" fill="#171717"/>
<path d="M515.541 597.225V588.492H524.451V597.225H515.541Z" fill="#171717"/>
<path d="M345.963 596.014H290.122V598.428H345.963V596.014Z" fill="#171717"/>
<g clip-path="url(#clip1)">
<path d="M594.083 602.5H598.902C599.375 602.501 599.843 602.402 600.276 602.211C600.708 602.019 601.096 601.739 601.415 601.388C601.733 601.037 601.975 600.623 602.125 600.172C602.275 599.722 602.329 599.245 602.285 598.772C602.02 595.987 601.516 592.751 601.078 589.938C600.907 588.839 600.745 587.804 600.613 586.887L594.083 602.5ZM600.588 590.045C601.025 592.846 601.523 596.045 601.787 598.818C601.825 599.222 601.779 599.63 601.651 600.014C601.523 600.399 601.316 600.753 601.044 601.052C600.773 601.351 600.442 601.59 600.073 601.754C599.704 601.917 599.306 602.001 598.903 602H598.902H594.083L594.082 602C593.679 602.001 593.281 601.917 592.912 601.754C592.543 601.59 592.213 601.351 591.941 601.052C591.669 600.753 591.463 600.399 591.335 600.014C591.207 599.63 591.16 599.223 591.198 598.82C591.698 593.833 592.17 589.503 592.651 585.939L592.905 584.054L591.756 585.571C589.533 588.507 586.809 591.97 583.541 595.912C583.281 596.224 582.961 596.477 582.599 596.658C582.237 596.838 581.843 596.941 581.439 596.96C581.036 596.979 580.633 596.914 580.256 596.768C579.88 596.623 579.538 596.401 579.251 596.116C579.25 596.115 579.25 596.115 579.249 596.115L575.887 592.718L575.886 592.716C575.601 592.431 575.378 592.09 575.232 591.713C575.087 591.336 575.021 590.933 575.039 590.529C575.057 590.125 575.159 589.729 575.338 589.367C575.518 589.006 575.77 588.686 576.079 588.428C577.71 587.071 579.176 585.756 580.538 584.534C580.687 584.401 580.835 584.268 580.981 584.137C582.472 582.801 583.839 581.591 585.187 580.553L586.652 579.424L584.817 579.661C583.552 579.824 582.293 580.024 580.981 580.231C578.783 580.579 576.438 580.95 573.675 581.213L573.674 581.214C573.273 581.253 572.867 581.207 572.484 581.08C572.101 580.952 571.749 580.746 571.45 580.474C571.15 580.201 570.91 579.869 570.746 579.498C570.581 579.127 570.496 578.726 570.494 578.32V573.515C570.496 573.11 570.581 572.71 570.745 572.339C570.909 571.969 571.148 571.637 571.447 571.365C571.746 571.093 572.097 570.886 572.479 570.759C572.861 570.631 573.266 570.584 573.666 570.622L573.668 570.622C578 571.015 581.569 571.409 584.819 571.82L586.655 572.051L585.185 570.927C583.02 569.269 580.717 567.363 578.047 565.154C577.432 564.646 576.798 564.121 576.142 563.58C575.831 563.323 575.576 563.003 575.396 562.641C575.215 562.278 575.112 561.882 575.093 561.477C575.074 561.072 575.139 560.668 575.285 560.29C575.431 559.912 575.654 559.57 575.94 559.284C575.94 559.284 575.94 559.284 575.94 559.284L579.34 555.886C579.34 555.886 579.34 555.885 579.341 555.885C579.628 555.6 579.97 555.378 580.347 555.233C580.723 555.087 581.126 555.022 581.529 555.04C581.932 555.058 582.327 555.16 582.689 555.339C583.051 555.518 583.372 555.771 583.633 556.08C586.369 559.36 588.692 562.409 590.679 565.018C591.05 565.505 591.41 565.976 591.758 566.431L592.934 567.969L592.65 566.054C592.124 562.524 591.68 558.126 591.216 553.182C591.178 552.779 591.224 552.373 591.351 551.989C591.479 551.606 591.684 551.253 591.954 550.954C592.224 550.655 592.553 550.415 592.92 550.251C593.286 550.087 593.683 550.002 594.084 550L598.902 550L598.903 550C599.304 550 599.701 550.083 600.069 550.245C600.436 550.407 600.766 550.645 601.038 550.943C601.309 551.24 601.516 551.592 601.645 551.975C601.774 552.357 601.823 552.763 601.787 553.165C601.593 555.287 601.242 557.698 600.888 559.99C600.803 560.539 600.717 561.082 600.634 561.612C600.371 563.287 600.128 564.837 599.975 566.066L599.749 567.882L600.867 566.433C601.66 565.406 602.606 564.046 603.62 562.589C603.863 562.239 604.11 561.884 604.36 561.526C605.658 559.668 607.036 557.738 608.353 556.143C608.613 555.831 608.933 555.577 609.295 555.397C609.656 555.217 610.051 555.114 610.455 555.095C610.858 555.076 611.261 555.141 611.638 555.286C612.014 555.432 612.357 555.654 612.644 555.94C612.644 555.94 612.644 555.94 612.645 555.94L616.044 559.347L616.046 559.349C616.332 559.633 616.555 559.973 616.701 560.349C616.847 560.725 616.914 561.127 616.895 561.531C616.877 561.934 616.775 562.329 616.595 562.69C616.415 563.051 616.162 563.37 615.852 563.626L615.852 563.626C613.134 565.881 610.631 567.761 608.374 569.456C607.695 569.967 607.038 570.46 606.405 570.942L604.885 572.097L606.776 571.835C609.118 571.51 611.792 571.281 614.77 571.026C616.216 570.902 617.733 570.772 619.319 570.622L619.32 570.622C619.722 570.583 620.127 570.629 620.51 570.756C620.893 570.883 621.245 571.09 621.545 571.362C621.844 571.634 622.084 571.966 622.248 572.337C622.413 572.708 622.499 573.11 622.5 573.516V578.319C622.499 578.725 622.413 579.126 622.249 579.496C622.085 579.866 621.846 580.198 621.547 580.47C621.249 580.743 620.897 580.949 620.515 581.077C620.133 581.205 619.729 581.251 619.328 581.213C615.511 580.845 612.196 580.395 609.24 579.993C608.389 579.877 607.568 579.766 606.773 579.661L604.915 579.417L606.404 580.554C608.434 582.105 610.653 583.966 613.141 586.052C614.027 586.796 614.948 587.568 615.906 588.364L615.907 588.366C616.218 588.622 616.472 588.941 616.652 589.302C616.833 589.664 616.936 590.059 616.955 590.463C616.974 590.868 616.909 591.271 616.763 591.648C616.617 592.025 616.394 592.367 616.109 592.652L616.108 592.653L612.709 596.059C612.708 596.06 612.708 596.06 612.708 596.06C612.421 596.345 612.078 596.567 611.702 596.712C611.325 596.858 610.923 596.924 610.52 596.905C610.117 596.887 609.722 596.785 609.359 596.606C608.998 596.427 608.676 596.175 608.416 595.865C607.075 594.251 605.689 592.323 604.384 590.471C604.133 590.113 603.884 589.758 603.639 589.409C602.62 587.956 601.669 586.6 600.866 585.566L599.734 584.108L599.976 585.938C600.129 587.098 600.349 588.512 600.588 590.045Z" fill="#171717" stroke="#171717"/>
</g>
</g>
<defs>
<clipPath id="clip0">
<rect width="419" height="53" fill="white" transform="translate(204 549.5)"/>
</clipPath>
<clipPath id="clip1">
<rect width="53.006" height="53" fill="white" transform="translate(569.994 549.5)"/>
</clipPath>
</defs>
</svg>
