<svg width="320" height="132" viewBox="0 0 320 132" fill="none" xmlns="http://www.w3.org/2000/svg">
<path d="M10.7586 59.589V88.153H3V47.9062H10.9165L34.5661 76.1693V47.9062H42.3248V88.153H34.3585L10.7586 59.589Z" fill="#171717"/>
<path d="M55.4747 72.9151C55.867 75.7148 57.302 78.2736 59.5039 80.0997C61.7058 81.9259 64.5193 82.8904 67.4034 82.808C74.2067 82.808 78.2023 77.1619 78.2023 77.1619L84.366 80.6521C84.366 80.6521 78.8503 88.7145 66.8552 88.7145C52.7335 88.7145 47.9819 78.4962 47.9819 71.1497C47.9819 63.8033 52.7252 53.585 66.8552 53.585C80.9851 53.585 85.7284 63.8114 85.7284 71.1497C85.7284 71.7273 85.7284 72.3212 85.6287 72.9151H55.4747ZM77.6624 67.025C76.3416 63.1199 73.0189 59.4914 66.8635 59.4914C60.7081 59.4914 57.3604 63.1199 56.0645 67.025H77.6624Z" fill="#171717"/>
<path d="M149.533 54.252L133.75 88.1123H120.459L118.316 66.7889L108.348 88.1123H95.0567L91.6509 54.252H99.7418L102.45 81.0994H103.513L116.04 54.252H125.111L127.819 81.0994H128.891L141.426 54.252H149.533Z" fill="#171717"/>
<path d="M182.129 58.3765L178.15 64.6735C177.092 63.4113 175.757 62.3994 174.244 61.7134C172.731 61.0273 171.079 60.6848 169.412 60.7114C165.657 60.7114 161.52 63.2416 158.754 66.2355V88.1121H150.862V54.2518H158.737V60.2152C161.628 56.8877 165.831 53.6172 170.5 53.6172C174.864 53.646 179.042 55.3556 182.129 58.3765Z" fill="#171717"/>
<path d="M220.441 69.1649V88.1127H212.566V84.59C208.303 87.2316 203.379 88.6701 198.336 88.7473C188.443 88.7473 184.862 83.6951 184.862 78.6266C184.862 73.5582 188.8 68.4897 198.336 68.4897C203.382 68.5742 208.306 70.0213 212.566 72.6714V69.1649C212.566 62.7541 211.569 59.8172 203.428 59.8172C198.316 59.8937 193.307 61.2431 188.875 63.7385L185.286 58.6294C185.286 58.6294 193.369 53.6016 202.863 53.6016C216.586 53.6016 220.441 59.7765 220.441 69.1649ZM212.566 77.9677C209.525 75.6816 205.04 73.55 200.297 73.55C194.831 73.55 192.737 75.9094 192.737 78.6266C192.737 81.3439 196.018 83.6951 200.297 83.6951C204.758 83.5598 209.058 82.0288 212.566 79.3263V77.9677Z" fill="#171717"/>
<path d="M261.294 42.1221V88.1126H253.419V82.3038C250.329 86.0136 244.614 88.7472 238.915 88.7472C229.653 88.7472 225.716 79.9688 225.716 71.1824C225.716 62.396 232.27 53.6177 241.408 53.6177C246.641 53.6177 250.944 57.539 253.428 60.9397V42.1221H261.294ZM253.419 67.8794C251.301 64.3485 247.812 59.9716 243.227 59.9716C236.581 59.9716 233.45 65.1702 233.45 71.1824C233.45 77.1946 235.518 82.4014 240.743 82.4014C243.252 82.3841 245.718 81.7665 247.927 80.6023C250.137 79.4382 252.022 77.7628 253.419 75.7221V67.8794Z" fill="#171717"/>
<path d="M274.378 72.9151C274.772 75.7154 276.208 78.2744 278.412 80.1004C280.615 81.9264 283.429 82.8907 286.315 82.808C293.11 82.808 297.113 77.1619 297.113 77.1619L303.269 80.6521C303.269 80.6521 297.753 88.7145 285.758 88.7145C271.636 88.7145 266.885 78.4962 266.885 71.1497C266.885 63.8033 271.636 53.585 285.758 53.585C299.88 53.585 304.623 63.8439 304.623 71.1823C304.627 71.7609 304.599 72.3394 304.54 72.9151H274.378ZM296.565 67.0575C295.244 63.1524 291.93 59.5239 285.766 59.5239C279.603 59.5239 276.272 63.1524 274.967 67.0575H296.565Z" fill="#171717"/>
<path d="M308.245 88.1528V79.708H317V88.1528H308.245Z" fill="#171717"/>
<path d="M141.733 86.9814H86.8994V89.3164H141.733V86.9814Z" fill="#171717"/>
</svg>
