<svg width="1975" height="249" viewBox="0 0 1975 249" fill="none" xmlns="http://www.w3.org/2000/svg">
<path d="M40.4521 85.4505V224.219H3.25232V28.6943H41.2453L154.669 166V28.6943H191.908V224.219H153.757L40.4521 85.4505Z" fill="#171717"/>
<path d="M255.084 150.19C257.013 163.832 263.929 176.283 274.506 185.153C285.083 194.023 298.574 198.688 312.391 198.251C345.03 198.251 363.947 170.821 363.947 170.821L393.493 187.777C393.493 187.777 367.04 226.945 309.456 226.945C241.64 226.945 218.876 177.303 218.876 141.613C218.876 105.923 241.918 56.4395 309.654 56.4395C377.391 56.4395 400.274 106.121 400.274 141.771C400.274 144.578 400.076 147.463 399.799 150.348L255.084 150.19ZM361.607 121.575C355.262 102.603 339.359 84.9756 309.654 84.9756C279.95 84.9756 264.047 102.761 257.781 121.733L361.607 121.575Z" fill="#171717"/>
<path d="M706.598 59.5225L630.77 224.021H567.118L556.807 120.429L509.217 224.021H445.366L428.987 59.5225H467.853L480.861 189.951H486.016L546.139 59.5225H589.763L602.732 189.951H607.887L668.049 59.5225H706.598Z" fill="#171717"/>
<path d="M863.091 79.5609L843.976 110.152C838.88 104.011 832.463 99.0915 825.199 95.7594C817.935 92.4272 810.012 90.7678 802.017 90.9042C784.012 90.9042 764.143 103.196 750.857 117.741V224.02H713.102V59.5223H750.857V88.4933C764.738 72.328 784.924 56.4395 807.331 56.4395C828.236 56.585 848.252 64.8849 863.091 79.5609V79.5609Z" fill="#171717"/>
<path d="M1046.99 131.969V224.02H1009.19V206.907C988.698 219.74 965.063 226.725 940.861 227.103C893.271 227.103 876.218 202.559 876.218 177.936C876.218 153.312 895.095 128.689 940.861 128.689C965.074 129.104 988.709 136.131 1009.19 149.004V131.969C1009.19 100.825 1004.39 86.5565 965.093 86.5565C940.572 86.9234 916.544 93.4776 895.254 105.607L878.042 80.7861C878.042 80.7861 916.828 56.3604 962.396 56.3604C1028.47 56.3604 1046.99 86.3589 1046.99 131.969ZM1009.19 174.734C994.599 163.628 973.064 153.273 950.3 153.273C924.046 153.273 913.973 164.735 913.973 177.936C913.973 191.137 929.836 202.559 950.3 202.559C971.695 201.9 992.323 194.466 1009.19 181.335V174.734Z" fill="#171717"/>
<path d="M1243.06 0.592773V224.021H1205.3V195.801C1190.47 213.824 1162.99 227.104 1135.66 227.104C1091.21 227.104 1072.21 184.458 1072.21 141.772C1072.21 99.0861 1103.5 56.4399 1147.56 56.4399C1172.67 56.4399 1193.29 75.4904 1205.27 92.0113V0.592773H1243.06ZM1205.3 125.725C1195.11 108.572 1178.38 87.308 1156.33 87.308C1124.6 87.308 1109.41 112.564 1109.41 141.772C1109.41 170.98 1119.32 196.275 1144.43 196.275C1156.46 196.198 1168.28 193.203 1178.89 187.55C1189.5 181.896 1198.56 173.754 1205.3 163.826V125.725Z" fill="#171717"/>
<path d="M1305.88 150.19C1307.81 163.832 1314.73 176.283 1325.3 185.153C1335.88 194.023 1349.37 198.688 1363.19 198.251C1395.83 198.251 1414.74 170.821 1414.74 170.821L1444.29 187.777C1444.29 187.777 1417.84 226.945 1360.25 226.945C1292.44 226.945 1269.63 177.303 1269.63 141.613C1269.63 105.923 1292.63 56.4395 1360.29 56.4395C1427.95 56.4395 1450.87 106.121 1450.87 141.771C1450.87 144.578 1450.67 147.463 1450.4 150.348L1305.88 150.19ZM1412.4 121.575C1406.06 102.603 1390.11 84.9756 1360.45 84.9756C1330.79 84.9756 1314.84 102.603 1308.5 121.575H1412.4Z" fill="#171717"/>
<path d="M1468.48 224.218V183.192H1510.48V224.218H1468.48Z" fill="#171717"/>
<path d="M669.161 218.527H405.946V229.871H669.161V218.527Z" fill="#171717"/>
<g clip-path="url(#clip0)">
<path d="M1899.02 101.989C1898.72 102.029 1898.43 102.069 1898.13 102.11L1898.2 102.605L1898.5 103.004C1898.74 102.825 1898.98 102.646 1899.21 102.467C1910.07 101.005 1922.44 99.9494 1936.09 98.7834C1942.89 98.2026 1950.01 97.5945 1957.43 96.8953L1899.02 101.989ZM1869.2 170.575L1868.07 169.122L1868.31 170.948C1869.02 176.315 1870.06 182.912 1871.18 190.088C1873.24 203.294 1875.61 218.46 1876.86 231.531C1877.06 233.684 1876.81 235.855 1876.13 237.906C1875.44 239.957 1874.34 241.841 1872.88 243.439C1871.43 245.037 1869.66 246.312 1867.68 247.184C1865.71 248.055 1863.57 248.504 1861.41 248.5H1861.41H1838.7H1838.69C1836.54 248.504 1834.4 248.055 1832.42 247.184C1830.45 246.312 1828.68 245.037 1827.22 243.439C1825.77 241.841 1824.66 239.957 1823.98 237.906C1823.29 235.856 1823.05 233.685 1823.25 231.532C1825.6 208.094 1827.83 187.726 1830.1 170.949L1830.36 169.068L1829.21 170.58C1818.71 184.398 1805.86 200.689 1790.43 219.229C1789.05 220.89 1787.33 222.244 1785.4 223.206C1783.46 224.169 1781.35 224.718 1779.19 224.82C1777.03 224.921 1774.87 224.573 1772.85 223.797C1770.84 223.021 1769 221.834 1767.47 220.312C1767.47 220.312 1767.47 220.311 1767.47 220.31L1751.61 204.343L1751.61 204.341C1750.08 202.82 1748.89 200.997 1748.11 198.988C1747.33 196.978 1746.98 194.828 1747.07 192.674C1747.17 190.521 1747.72 188.411 1748.68 186.481C1749.64 184.551 1750.99 182.844 1752.65 181.468C1760.3 175.114 1767.19 168.96 1773.61 163.218C1774.31 162.591 1775.01 161.969 1775.7 161.351C1782.72 155.081 1789.22 149.35 1795.63 144.426L1797.1 143.297L1795.26 143.533C1789.4 144.287 1783.51 145.216 1777.34 146.189C1766.92 147.83 1755.73 149.594 1742.68 150.834L1742.68 150.834C1740.53 151.043 1738.35 150.799 1736.3 150.119C1734.25 149.439 1732.36 148.338 1730.76 146.885C1729.16 145.433 1727.88 143.662 1727 141.684C1726.12 139.707 1725.66 137.568 1725.65 135.404V112.824C1725.66 110.663 1726.12 108.528 1726.99 106.554C1727.87 104.58 1729.15 102.81 1730.75 101.359C1732.35 99.9069 1734.23 98.8046 1736.27 98.1218C1738.32 97.4391 1740.49 97.1909 1742.63 97.3931L1742.64 97.3933C1763.08 99.2388 1779.92 101.094 1795.26 103.025L1797.1 103.257L1795.63 102.132C1785.39 94.3197 1774.5 85.3387 1761.91 74.9606C1759.02 72.5733 1756.03 70.112 1752.94 67.574C1751.28 66.2009 1749.92 64.4932 1748.95 62.5611C1747.98 60.6291 1747.43 58.5154 1747.33 56.3564C1747.23 54.1974 1747.58 52.0411 1748.36 50.0263C1749.14 48.0116 1750.33 46.1832 1751.86 44.659L1767.89 28.6899C1767.89 28.6896 1767.89 28.6893 1767.9 28.6889C1769.43 27.1695 1771.26 25.9846 1773.28 25.2086C1775.29 24.4325 1777.45 24.0823 1779.61 24.18C1781.76 24.2776 1783.88 24.8211 1785.81 25.7762C1787.75 26.731 1789.47 28.0767 1790.86 29.7287C1803.79 45.17 1814.77 59.5315 1824.13 71.7896C1825.88 74.0758 1827.57 76.2889 1829.21 78.4221L1830.39 79.9541L1830.1 78.0438C1827.62 61.4018 1825.52 40.6957 1823.33 17.469C1823.13 15.3232 1823.38 13.1588 1824.06 11.1138C1824.74 9.06875 1825.84 7.18805 1827.28 5.59157C1828.73 3.99509 1830.49 2.71783 1832.45 1.84121C1834.42 0.964718 1836.54 0.507961 1838.7 0.500012L1861.41 0.500013L1861.41 0.500012C1863.56 0.49734 1865.69 0.943441 1867.66 1.80993C1869.63 2.67641 1871.4 3.9443 1872.85 5.53284C1874.3 7.12137 1875.41 8.99571 1876.1 11.0365C1876.79 13.0771 1877.05 15.2394 1876.86 17.3855C1875.94 27.4141 1874.28 38.7941 1872.61 49.5647C1872.2 52.1594 1871.8 54.7193 1871.41 57.2163C1870.17 65.0766 1869.03 72.314 1868.31 78.0557L1868.09 79.8674L1869.2 78.4237C1872.91 73.6392 1877.33 67.3006 1882.11 60.4571C1883.26 58.809 1884.43 57.1316 1885.62 55.4396C1891.74 46.7132 1898.27 37.5886 1904.53 30.0287C1905.92 28.368 1907.63 27.0136 1909.57 26.0513C1911.5 25.089 1913.62 24.5396 1915.78 24.4379C1917.94 24.3363 1920.09 24.6846 1922.11 25.4607C1924.13 26.2369 1925.96 27.424 1927.5 28.9471L1943.53 44.9591L1943.53 44.9608C1945.06 46.4746 1946.26 48.2933 1947.04 50.2993C1947.82 52.3053 1948.18 54.4539 1948.08 56.6059C1947.98 58.7579 1947.43 60.8653 1946.47 62.7916C1945.51 64.718 1944.15 66.4203 1942.49 67.7885L1942.49 67.7891C1929.64 78.4136 1917.8 87.2842 1907.15 95.2511C1903.96 97.6434 1900.87 99.9543 1897.9 102.207L1896.38 103.363L1898.27 103.1C1909.36 101.568 1922.04 100.485 1936.11 99.2832C1942.92 98.7022 1950.05 98.0935 1957.47 97.3931L1957.47 97.393C1959.63 97.1846 1961.8 97.4282 1963.85 98.1082C1965.9 98.7881 1967.79 99.8895 1969.39 101.342C1970.99 102.794 1972.27 104.566 1973.15 106.543C1974.03 108.52 1974.49 110.66 1974.5 112.824V135.403C1974.49 137.564 1974.03 139.699 1973.16 141.673C1972.28 143.647 1971 145.417 1969.4 146.869C1967.81 148.32 1965.92 149.423 1963.88 150.105C1961.83 150.788 1959.66 151.036 1957.52 150.834C1939.48 149.101 1923.81 146.978 1909.87 145.089C1905.87 144.546 1902 144.023 1898.27 143.534L1896.41 143.29L1897.9 144.427C1907.51 151.739 1918.01 160.522 1929.75 170.337C1933.92 173.824 1938.25 177.44 1942.75 181.168L1942.75 181.169C1944.41 182.538 1945.77 184.242 1946.74 186.17C1947.71 188.099 1948.26 190.209 1948.36 192.364C1948.46 194.52 1948.11 196.673 1947.33 198.684C1946.55 200.695 1945.36 202.52 1943.83 204.04L1943.83 204.041L1927.8 220.052C1927.8 220.053 1927.8 220.053 1927.8 220.054C1926.26 221.573 1924.43 222.758 1922.41 223.534C1920.4 224.31 1918.24 224.66 1916.09 224.562C1913.93 224.465 1911.82 223.921 1909.88 222.966C1907.94 222.011 1906.22 220.665 1904.83 219.013C1898.46 211.367 1891.88 202.253 1885.73 193.548C1884.54 191.858 1883.36 190.183 1882.2 188.537C1877.4 181.714 1872.96 175.392 1869.2 170.575Z" fill="#171717" stroke="#171717"/>
</g>
<defs>
<clipPath id="clip0">
<rect width="249.849" height="249" fill="white" transform="translate(1725.15)"/>
</clipPath>
</defs>
</svg>
