<svg width="880" height="880" viewBox="0 0 880 880" fill="none" xmlns="http://www.w3.org/2000/svg">
<g clip-path="url(#clip0)">
<g clip-path="url(#clip1)">
<path d="M499.412 673.771C495.212 629.681 485.182 574.558 480.795 541.35C501.051 567.429 530.588 613.733 558.404 647.223C561.535 650.949 565.398 653.985 569.752 656.139C574.106 658.292 578.856 659.518 583.704 659.738C588.551 659.958 593.392 659.168 597.921 657.418C602.45 655.668 606.571 652.996 610.023 649.568L644.933 614.578C648.37 611.148 651.052 607.031 652.808 602.494C654.563 597.957 655.352 593.101 655.123 588.238C654.894 583.376 653.653 578.616 651.48 574.266C649.306 569.915 646.249 566.072 642.506 562.983C605.169 531.932 573.182 504.343 544.806 482.673C581.209 487.458 623.277 493.752 673.868 498.63C678.696 499.086 683.566 498.526 688.167 496.986C692.768 495.446 696.999 492.96 700.59 489.686C704.182 486.412 707.056 482.421 709.028 477.969C711 473.517 712.028 468.7 712.046 463.827V414.484C712.029 409.601 710.999 404.777 709.021 400.317C707.043 395.858 704.161 391.863 700.559 388.587C696.957 385.311 692.714 382.827 688.102 381.294C683.49 379.76 678.611 379.211 673.776 379.681C624.211 384.371 580.649 387.185 544.806 392.157C572.809 370.863 605.542 347.129 641.946 316.922C645.681 313.835 648.729 309.995 650.893 305.649C653.057 301.303 654.289 296.548 654.509 291.693C654.729 286.839 653.933 281.991 652.17 277.466C650.408 272.94 647.719 268.837 644.279 265.421L609.369 230.431C605.918 226.996 601.794 224.319 597.26 222.569C592.726 220.818 587.879 220.033 583.027 220.262C578.176 220.491 573.424 221.73 569.073 223.901C564.722 226.071 560.867 229.125 557.751 232.87C530.402 265.984 500.771 312.758 480.795 338.649C484.902 305.629 495.398 249.943 499.412 206.04C499.84 201.2 499.26 196.323 497.709 191.72C496.157 187.117 493.669 182.89 490.403 179.306C487.136 175.723 483.163 172.863 478.735 170.909C474.308 168.954 469.525 167.948 464.689 167.954H415.218C410.381 167.972 405.601 169.002 401.182 170.98C396.763 172.957 392.803 175.838 389.553 179.439C386.304 183.04 383.837 187.282 382.309 191.894C380.782 196.507 380.227 201.388 380.681 206.228C385.442 256.979 390.016 302.251 395.429 338.649C372.747 309.006 345.305 272.269 311.888 232.213C308.758 228.487 304.894 225.451 300.541 223.298C296.187 221.144 291.437 219.919 286.589 219.698C281.742 219.478 276.901 220.268 272.372 222.018C267.843 223.768 263.722 226.441 260.27 229.868L225.36 264.765C221.921 268.203 219.237 272.327 217.48 276.872C215.724 281.416 214.935 286.28 215.164 291.15C215.392 296.02 216.634 300.788 218.808 305.146C220.982 309.504 224.041 313.356 227.787 316.453C263.724 346.097 293.326 370.978 320.769 391.992C287.352 387.77 250.656 383.714 206.131 379.681C201.304 379.224 196.434 379.784 191.833 381.324C187.233 382.864 183.002 385.35 179.41 388.625C175.818 391.899 172.944 395.889 170.972 400.342C169 404.794 167.972 409.61 167.955 414.484V463.827C167.971 468.709 169.001 473.534 170.979 477.993C172.957 482.452 175.839 486.448 179.441 489.723C183.043 492.999 187.286 495.483 191.898 497.017C196.51 498.551 201.39 499.1 206.225 498.63C251.496 494.315 286.605 487.082 320.769 482.673C292.766 504.249 264.097 532.87 227.133 563.64C223.409 566.744 220.371 570.596 218.214 574.949C216.057 579.302 214.83 584.06 214.61 588.918C214.39 593.776 215.183 598.627 216.938 603.158C218.693 607.69 221.371 611.804 224.8 615.234L259.337 650.131C262.788 653.566 266.912 656.243 271.446 657.993C275.98 659.744 280.827 660.529 285.678 660.3C290.53 660.07 295.282 658.832 299.633 656.661C303.984 654.491 307.839 651.437 310.955 647.692C344.558 607.167 372.561 571.556 395.429 541.35C390.482 578.029 385.628 622.551 380.494 673.771C380.039 678.626 380.599 683.524 382.137 688.149C383.676 692.775 386.16 697.026 389.43 700.629C392.699 704.233 396.682 707.111 401.123 709.076C405.564 711.042 410.365 712.053 415.218 712.045H464.689C469.542 712.053 474.343 711.042 478.784 709.076C483.225 707.111 487.208 704.233 490.477 700.629C493.747 697.026 496.231 692.775 497.77 688.149C499.308 683.524 499.867 678.626 499.412 673.771Z" fill="#171717"/>
</g>
</g>
<defs>
<clipPath id="clip0">
<rect width="880" height="880" fill="white"/>
</clipPath>
<clipPath id="clip1">
<rect width="544.091" height="544.091" fill="white" transform="translate(167.955 167.954)"/>
</clipPath>
</defs>
</svg>
