<svg viewBox="0 0 1148 545" height="90%" fill="currentColor" xmlns="http://www.w3.org/2000/svg">

  <path
    d="M531.817 61.9255C547.276 61.9255 559.808 49.3232 559.808 33.7775C559.808 18.2318 547.276 5.62953 531.817 5.62953C516.359 5.62953 503.827 18.2318 503.827 33.7775C503.827 49.3232 516.359 61.9255 531.817 61.9255Z" />
  <path
    d="M589.198 50.6664C599.246 50.6664 607.391 42.4749 607.391 32.3702C607.391 22.2655 599.246 14.074 589.198 14.074C579.15 14.074 571.004 22.2655 571.004 32.3702C571.004 42.4749 579.15 50.6664 589.198 50.6664Z" />
  <path
    d="M628.384 42.2219C633.795 42.2219 638.181 37.8111 638.181 32.3701C638.181 26.9291 633.795 22.5183 628.384 22.5183C622.974 22.5183 618.588 26.9291 618.588 32.3701C618.588 37.8111 622.974 42.2219 628.384 42.2219Z" />
  <path
    d="M87.1907 185.935L56.2195 271.749H55.6023L24.9397 185.935H2.80534L46.7935 297.412H63.9343L108.568 185.935H87.1907Z" />
  <path
    d="M182.265 185.935H165.124L116.731 297.412H138.894L148.937 271.889H197.189L207.569 297.412H230.18L182.265 185.935ZM155.698 254.884L173.147 209.546L190.288 254.884H155.698Z" />
  <path
    d="M324.244 250.949C322.196 247.295 319.587 244.231 316.389 241.814C313.191 239.425 309.684 237.457 305.869 235.995C302.026 234.534 298.351 233.213 294.788 232.06C291.646 231.133 288.756 230.177 286.147 229.221C283.51 228.294 281.294 227.169 279.47 225.933C277.619 224.668 276.188 223.15 275.15 221.351C274.084 219.58 273.579 217.416 273.579 214.914C273.579 212.16 274.168 209.827 275.375 207.887C276.581 205.948 278.124 204.374 280.003 203.165C281.883 201.956 283.987 201.085 286.288 200.495C288.588 199.905 290.916 199.623 293.217 199.623C297.088 199.623 300.932 200.551 304.775 202.378C308.59 204.233 311.536 206.51 313.64 209.236L326.516 195.07C322.224 191.079 317.175 188.071 311.367 186.075C305.56 184.08 299.809 183.096 294.143 183.096C289.121 183.096 284.183 183.742 279.302 185.064C274.421 186.385 270.072 188.38 266.257 191.051C262.442 193.721 259.356 197.122 256.999 201.198C254.643 205.301 253.465 210.164 253.465 215.842C253.465 221.098 254.278 225.483 255.961 228.996C257.645 232.51 259.805 235.489 262.498 237.879C265.163 240.296 268.165 242.235 271.531 243.725C274.87 245.187 278.236 246.452 281.574 247.492C285.053 248.644 288.335 249.74 291.477 250.808C294.619 251.848 297.341 253.085 299.641 254.49C301.97 255.924 303.793 257.61 305.168 259.55C306.514 261.489 307.187 263.935 307.187 266.858C307.187 269.894 306.598 272.452 305.392 274.503C304.186 276.555 302.615 278.242 300.679 279.619C298.743 280.968 296.555 281.952 294.143 282.542C291.73 283.104 289.373 283.386 287.073 283.386C282.669 283.386 278.208 282.289 273.635 280.097C269.091 277.876 265.444 274.897 262.722 271.102L248.583 284.341C252.988 289.597 258.627 293.561 265.556 296.231C272.457 298.901 279.527 300.25 286.764 300.25C292.207 300.25 297.397 299.52 302.334 298.03C307.244 296.568 311.536 294.376 315.211 291.424C318.886 288.501 321.803 284.791 324.02 280.322C326.208 275.853 327.302 270.653 327.302 264.666C327.302 259.213 326.292 254.631 324.244 250.949Z" />
  <path
    d="M382.624 279.76V248.279H433.709V231.582H382.624V203.25H436.543V185.935H362.818V297.412H439.348V279.76H382.624Z" />
  <path
    d="M555.659 269.528C552.825 273.435 549.094 276.555 544.493 278.916C539.892 281.277 534.59 282.458 528.615 282.458C522.864 282.458 517.674 281.446 513.073 279.45C508.444 277.455 504.489 274.644 501.207 271.046C497.896 267.42 495.343 263.092 493.576 258.032C491.78 253.001 490.911 247.435 490.911 241.364C490.911 235.574 491.809 230.233 493.66 225.286C495.484 220.367 498.093 216.067 501.515 212.385C504.91 208.702 508.977 205.835 513.69 203.727C518.403 201.619 523.649 200.579 529.4 200.579C533.917 200.579 538.518 201.507 543.231 203.334C547.944 205.161 551.787 208.084 554.705 212.075L569.798 200.101C567.581 197.15 564.916 194.648 561.774 192.54C558.632 190.432 555.294 188.689 551.731 187.256C548.168 185.851 544.437 184.811 540.566 184.108C536.694 183.433 532.963 183.096 529.4 183.096C520.816 183.096 512.849 184.473 505.527 187.2C498.177 189.926 491.809 193.805 486.422 198.836C481.036 203.868 476.772 209.995 473.686 217.191C470.6 224.387 469.057 232.426 469.057 241.364C469.057 250.078 470.516 258.032 473.461 265.2C476.407 272.395 480.475 278.579 485.721 283.779C490.967 288.979 497.223 293.027 504.489 295.922C511.783 298.789 519.778 300.25 528.475 300.25C537.985 300.25 546.317 298.536 553.442 295.135C560.568 291.706 566.6 286.899 571.537 280.715L555.659 269.528Z" />
  <path d="M586.939 185.935V203.25H621.024V297.412H640.829V203.25H674.943V185.935H586.939Z" />
  <path
    d="M808.59 217.191C805.589 209.995 801.437 203.868 796.107 198.836C790.748 193.805 784.408 189.926 777.086 187.2C772.345 185.457 767.352 184.248 762.049 183.63V201.507C764.462 202.013 766.734 202.743 768.894 203.727C773.607 205.835 777.647 208.702 781.014 212.385C784.352 216.067 786.961 220.367 788.785 225.286C790.608 230.233 791.534 235.574 791.534 241.364C791.534 247.351 790.608 252.832 788.785 257.807C786.961 262.782 784.324 267.111 780.929 270.793C777.535 274.475 773.467 277.342 768.754 279.366C766.622 280.294 764.378 281.024 762.049 281.502V299.688C767.352 299.042 772.345 297.777 777.086 295.922C784.408 293.027 790.748 288.979 796.107 283.779C801.437 278.579 805.589 272.395 808.59 265.2C811.564 258.032 813.079 250.077 813.079 241.364C813.079 232.426 811.564 224.387 808.59 217.191ZM710.375 198.836C705.072 203.868 700.949 209.995 697.947 217.191C694.973 224.387 693.486 232.426 693.486 241.364C693.486 250.077 694.973 258.032 697.947 265.2C700.949 272.395 705.072 278.579 710.375 283.779C715.649 288.979 721.933 293.027 729.227 295.922C734.248 297.889 739.55 299.21 745.217 299.801V281.699C742.58 281.193 740.083 280.406 737.699 279.366C733.042 277.342 729.002 274.475 725.608 270.793C722.213 267.111 719.576 262.782 717.753 257.807C715.929 252.832 715.003 247.351 715.003 241.364C715.003 235.574 715.929 230.233 717.753 225.286C719.576 220.367 722.185 216.067 725.524 212.385C728.89 208.702 732.902 205.835 737.559 203.727C739.971 202.631 742.524 201.844 745.217 201.31V183.518C739.55 184.08 734.248 185.316 729.227 187.2C721.933 189.926 715.649 193.805 710.375 198.836Z" />
  <path
    d="M936.908 185.935L908.293 265.144H907.816L878.921 185.935H847.95V297.412H866.802V207.803H867.138L900.438 297.412H914.268L948.073 207.803H948.382V297.412H968.019V185.935H936.908Z" />
  <path d="M1008.25 185.935V297.412H1028.05V185.935H1008.25Z" />
  <path
    d="M1088.09 279.76V248.279H1139.15V231.582H1088.09V203.25H1141.98V185.935H1068.28V297.412H1144.81V279.76H1088.09Z" />
  <path
    d="M94.2388 384.912H118.171C135.136 384.912 145.548 395.823 145.548 415.455C145.548 435.088 135.474 445.925 118.433 445.925H94.2388V384.912V384.912ZM104.501 437.315H117.684C131.466 437.315 135.324 427.146 135.324 415.455C135.324 403.765 131.466 393.522 117.684 393.522H104.501V437.315Z" />
  <path
    d="M186.333 401.575V410.037H186.146C177.457 408.59 170.454 414.379 170.454 423.694V445.962H161.428V402.355H170.454V410.557H170.641C172.963 405.101 176.596 401.353 182.364 401.353C183.936 401.316 185.023 401.39 186.333 401.575Z" />
  <path
    d="M194.535 441.063C194.535 437.723 196.932 435.496 200.116 435.496C203.224 435.496 205.621 437.723 205.621 441.063C205.621 444.477 203.224 446.593 200.116 446.593C196.932 446.63 194.535 444.477 194.535 441.063Z" />
  <path
    d="M248.017 384.912H274.196C285.993 384.912 294.532 390.367 294.532 403.171C294.532 415.975 285.993 421.505 274.196 421.505H258.279V445.925H248.017V384.912V384.912ZM258.279 412.82H273.784C280.675 412.82 284.308 409.926 284.308 403.171C284.308 396.528 280.675 393.522 273.784 393.522H258.279V412.82Z" />
  <path
    d="M308.989 390.219C308.989 387.138 311.573 385.542 314.083 385.542C316.742 385.542 319.251 387.175 319.251 390.219C319.251 393.262 316.742 395.006 314.083 395.006C311.573 395.006 308.989 393.299 308.989 390.219ZM318.652 402.354V445.962H309.626V402.354H318.652Z" />
  <path
    d="M367.227 432.639H376.253C374.006 440.915 367.452 447.224 356.179 447.224C342.471 447.224 334.119 437.834 334.119 424.177C334.119 410 342.471 401.13 355.729 401.13C369.924 401.13 376.927 410.928 376.927 426.478H343.183C343.183 433.826 347.902 439.875 355.916 439.875C363.444 439.875 366.441 435.274 367.227 432.639ZM343.183 419.835H367.901C367.901 413.08 363.07 408.218 355.767 408.218C348.464 408.218 343.183 413.08 343.183 419.835Z" />
  <path
    d="M416.664 401.575V410.037H416.476C407.787 408.59 400.784 414.379 400.784 423.694V445.962H391.758V402.355H400.784V410.557H400.971C403.293 405.101 406.926 401.353 412.694 401.353C414.267 401.316 415.39 401.39 416.664 401.575Z" />
  <path
    d="M455.951 401.575V410.037H455.764C447.075 408.59 440.071 414.379 440.071 423.694V445.962H431.045V402.355H440.071V410.557H440.259C442.581 405.101 446.213 401.353 451.981 401.353C453.517 401.316 454.64 401.39 455.951 401.575Z" />
  <path
    d="M499.62 432.639H508.646C506.399 440.915 499.845 447.224 488.572 447.224C474.864 447.224 466.513 437.834 466.513 424.177C466.513 410 474.864 401.13 488.122 401.13C502.317 401.13 509.32 410.928 509.32 426.478H475.576C475.576 433.826 480.295 439.875 488.31 439.875C495.838 439.875 498.834 435.274 499.62 432.639ZM475.576 419.835H500.294C500.294 413.08 495.463 408.218 488.16 408.218C480.857 408.218 475.576 413.08 475.576 419.835Z" />
  <path
    d="M565.423 447.224C550.592 447.224 546.473 437.315 546.473 426.812V423.991H556.21V426.812C556.21 433.641 557.409 438.502 565.161 438.502C572.839 438.502 574.187 433.641 574.187 426.812V384.912H584.337V426.812C584.374 437.315 580.254 447.224 565.423 447.224Z" />
  <path
    d="M626.77 401.575V410.037H626.583C617.894 408.59 610.89 414.379 610.89 423.694V445.962H601.864V402.355H610.89V410.557H611.078C613.4 405.101 617.032 401.353 622.8 401.353C624.336 401.316 625.459 401.39 626.77 401.575Z" />
  <path
    d="M634.935 441.063C634.935 437.723 637.332 435.496 640.515 435.496C643.624 435.496 646.021 437.723 646.021 441.063C646.021 444.477 643.624 446.593 640.515 446.593C637.369 446.63 634.935 444.477 634.935 441.063Z" />
  <path
    d="M725.306 413.006V413.192C731.748 414.305 737.291 418.981 737.291 428.111C737.291 439.876 729.127 445.962 716.355 445.962H688.454V384.949H714.895C727.554 384.949 734.857 390.516 734.857 400.313C734.857 407.81 730.362 411.299 725.306 413.006ZM714.52 410.185C721.823 410.185 724.595 407.291 724.595 401.909C724.595 396.528 721.224 393.559 715.119 393.559H698.678V410.185H714.52ZM698.678 437.315H715.569C724.37 437.315 727.029 433.232 727.029 427.517C727.029 421.282 723.172 417.794 716.692 417.794H698.678V437.315Z" />
  <path
    d="M772.159 447.224C758.377 447.224 750.025 437.76 750.025 424.177C750.025 410.594 758.377 401.13 772.159 401.13C785.941 401.13 794.293 410.594 794.293 424.177C794.293 437.76 785.941 447.224 772.159 447.224ZM772.159 439.875C780.773 439.875 785.267 433.121 785.267 424.177C785.267 415.121 780.773 408.478 772.159 408.478C763.545 408.478 759.051 415.121 759.051 424.177C759.051 433.158 763.545 439.875 772.159 439.875Z" />
  <path
    d="M847.175 402.355V445.962H838.149V440.321H837.962C835.64 443.735 831.071 447.15 823.506 447.15C815.341 447.15 808.862 442.473 808.862 432.453V402.318H818V429.892C818 435.793 820.51 439.542 826.689 439.542C833.655 439.542 838.149 435.348 838.149 428.89V402.355H847.175V402.355Z" />
  <path
    d="M883.804 408.478C874.928 408.478 871.145 415.975 871.145 424.177C871.145 432.379 874.853 439.875 883.804 439.875C891.556 439.875 894.403 434.568 894.74 429.707H903.766C903.092 439.764 895.227 447.187 883.804 447.187C870.621 447.187 862.119 437.797 862.119 424.14C862.119 410.482 870.658 401.093 883.729 401.093C895.189 401.093 902.68 408.33 903.803 418.239H894.777C894.403 413.86 891.556 408.478 883.804 408.478Z" />
  <path
    d="M956.648 415.827V445.962H947.51V418.387C947.51 412.486 945 408.738 938.709 408.738C932.08 408.738 927.323 412.932 927.323 419.389V445.925H918.297V384.912H927.323V407.959H927.51C929.832 404.544 934.401 401.13 941.817 401.13C950.206 401.13 956.648 405.843 956.648 415.827Z" />
  <path
    d="M1004.29 432.639H1013.31C1011.07 440.915 1004.51 447.224 993.239 447.224C979.531 447.224 971.179 437.834 971.179 424.177C971.179 410 979.531 401.13 992.789 401.13C1006.98 401.13 1013.99 410.928 1013.99 426.478H980.243C980.243 433.826 984.962 439.875 992.977 439.875C1000.5 439.875 1003.54 435.274 1004.29 432.639ZM980.28 419.835H1005C1005 413.08 1000.17 408.218 992.864 408.218C985.561 408.218 980.28 413.08 980.28 419.835Z" />
  <path
    d="M1053.76 401.575V410.037H1053.57C1044.89 408.59 1037.88 414.379 1037.88 423.694V445.962H1028.86V402.355H1037.88V410.557H1038.07C1040.39 405.101 1044.02 401.353 1049.79 401.353C1051.33 401.316 1052.45 401.39 1053.76 401.575Z" />
  <path
    d="M156.592 518.179C156.592 506.23 164.143 497.519 176.239 497.519C188.298 497.519 195.886 506.23 195.886 518.179C195.886 530.128 188.261 538.876 176.239 538.876C164.143 538.876 156.592 530.091 156.592 518.179ZM189.237 518.179C189.237 510.175 185.443 503.177 176.239 503.177C167.036 503.177 163.204 510.175 163.204 518.179C163.204 526.22 167.073 533.218 176.239 533.218C185.443 533.218 189.237 526.22 189.237 518.179Z" />
  <path
    d="M206.818 498.375H215.458L226.653 528.9H226.766L237.923 498.375H246.563V538.057H240.064V507.979H239.952L229.358 538.057H224.024L213.43 507.979H213.317V538.057H206.818V498.375V498.375Z" />
  <path
    d="M258.922 498.375H266.36L284.392 528.193H284.505V498.375H291.154V538.057H283.753L265.684 508.352H265.571V538.057H258.922V498.375Z" />
  <path d="M310.388 498.375V538.057H303.739V498.375H310.388Z" />
  <path
    d="M322.86 498.375H339.877C347.541 498.375 353.1 501.911 353.1 510.25C353.1 518.588 347.541 522.199 339.877 522.199H329.509V538.057H322.86V498.375ZM329.546 516.504H339.614C344.084 516.504 346.451 514.605 346.451 510.25C346.451 505.932 344.084 503.996 339.614 503.996H329.546V516.504Z" />
  <path
    d="M363.131 498.375H380.223C388.45 498.375 393.784 502.544 393.784 509.766C393.784 515.313 390.929 518.551 386.346 519.631V519.742C395.588 521.455 392.244 537.015 394.348 537.685V538.057H387.361C385.52 536.382 389.277 522.758 379.622 522.758H369.817V538.057H363.168V498.375H363.131ZM369.78 517.062H378.796C382.89 517.062 387.135 516.281 387.135 510.511C387.135 504.778 382.89 503.959 378.796 503.959H369.78V517.062Z" />
  <path
    d="M411.929 528.677L408.698 538.057H401.936L416.662 498.375H423.649L438.338 538.057H431.576L428.345 528.677H411.929ZM426.504 523.167L420.231 504.406H420.118L413.807 523.167H426.504Z" />
  <path d="M453.214 503.959H440.404V498.338H472.673V503.959H459.901V538.02H453.251V503.959H453.214Z" />
  <path d="M489.54 498.375V538.057H482.891V498.375H489.54Z" />
  <path
    d="M519.443 503.177C510.803 503.177 507.384 510.324 507.384 518.179C507.384 526.071 510.803 533.218 519.443 533.218C526.881 533.218 529.736 528.379 530.187 523.577H536.836C535.934 532.511 529.773 538.876 519.593 538.876C508.06 538.876 500.773 530.166 500.773 518.179C500.773 506.23 508.06 497.519 519.593 497.519C529.736 497.519 535.897 503.884 536.836 512H530.187C529.473 508.016 526.843 503.177 519.443 503.177Z" />
  <path d="M554.154 498.375V538.057H547.505V498.375H554.154Z" />
  <path
    d="M592.847 514.717V520.375H573.313V532.399H596.153V538.02H566.626V498.338H595.589V503.959H573.313V514.717H592.847V514.717Z" />
  <path
    d="M607.16 498.375H614.598L632.629 528.193H632.742V498.375H639.391V538.057H631.991L613.922 508.352H613.809V538.057H607.16V498.375Z" />
  <path
    d="M685.222 503.177C676.582 503.177 673.163 510.324 673.163 518.179C673.163 526.071 676.582 533.218 685.222 533.218C692.66 533.218 695.515 528.379 695.966 523.577H702.615C701.713 532.511 695.553 538.876 685.372 538.876C673.839 538.876 666.552 530.166 666.552 518.179C666.552 506.23 673.839 497.519 685.372 497.519C695.515 497.519 701.676 503.884 702.615 512H695.966C695.252 508.016 692.622 503.177 685.222 503.177Z" />
  <path
    d="M730.301 503.177C721.661 503.177 718.242 510.324 718.242 518.179C718.242 526.071 721.661 533.218 730.301 533.218C737.739 533.218 740.594 528.379 741.045 523.577H747.694C746.793 532.511 740.632 538.876 730.451 538.876C718.918 538.876 711.631 530.166 711.631 518.179C711.631 506.23 718.918 497.519 730.451 497.519C740.594 497.519 746.755 503.884 747.694 512H741.045C740.294 508.016 737.664 503.177 730.301 503.177Z" />
  <path
    d="M758.213 498.375H766.853L778.048 528.9H778.16L789.318 498.375H797.958V538.057H791.459V507.979H791.346L780.752 538.057H775.418L764.824 507.979H764.712V538.057H758.213V498.375V498.375Z" />
  <path d="M834.322 515.499V521.157H817.004V538.02H810.354V498.338H838.341V503.959H817.004V515.499H834.322Z" />
  <path
    d="M876.608 495.099C874.003 501.912 871.688 509.482 871.688 519.702C871.688 529.922 874.003 537.492 876.608 544.306H872.556C869.373 538.628 866.768 529.922 866.768 519.702C866.768 509.104 869.373 500.776 872.556 495.099H876.608Z" />
  <path
    d="M886.448 498.379H895.152L906.128 528.747L917.103 498.379H925.808V537.745H919.374V507.752L908.777 537.745H903.479L892.882 507.752V537.745H886.448V498.379Z" />
  <path
    d="M955.13 537.745C943.67 537.745 938.928 532.226 938.928 523.765V498.379H946.041V523.765C946.041 529.651 949.202 532.226 955.525 532.226C961.848 532.226 965.01 529.651 965.01 523.765V498.379H971.728V523.765C971.728 532.226 966.985 537.745 955.13 537.745Z" />
  <path
    d="M991.408 519.702C991.408 529.922 987.935 538.628 983.69 544.306H978.288C981.761 537.492 984.848 529.922 984.848 519.702C984.848 509.482 981.761 501.912 978.288 495.099H983.69C987.935 500.776 991.408 509.482 991.408 519.702Z" />
</svg>
