<svg preserveAspectRatio="xMidYMid meet" height="80%" viewBox="0 0 1024 482" fill="currentColor"
  xmlns="http://www.w3.org/2000/svg">

  <path
    d="M474.374 55.3243C488.163 55.3243 499.341 44.0654 499.341 30.1769C499.341 16.2883 488.163 5.02942 474.374 5.02942C460.585 5.02942 449.407 16.2883 449.407 30.1769C449.407 44.0654 460.585 55.3243 474.374 55.3243Z" />
  <path
    d="M525.556 45.2654C534.519 45.2654 541.785 37.9471 541.785 28.9196C541.785 19.892 534.519 12.5737 525.556 12.5737C516.593 12.5737 509.328 19.892 509.328 28.9196C509.328 37.9471 516.593 45.2654 525.556 45.2654Z" />
  <path
    d="M560.51 37.721C565.336 37.721 569.248 33.7804 569.248 28.9194C569.248 24.0584 565.336 20.1178 560.51 20.1178C555.684 20.1178 551.771 24.0584 551.771 28.9194C551.771 33.7804 555.684 37.721 560.51 37.721Z" />

  <path
    d="M77.7729 166.115L50.147 242.781H49.5965L22.2458 166.115H2.50233L41.7391 265.708H57.0285L96.8408 166.115H77.7729Z" />
  <path
    d="M162.577 166.115H147.288L104.123 265.708H123.891L132.85 242.906H175.89L185.149 265.708H205.318L162.577 166.115ZM138.88 227.714L154.445 187.208L169.734 227.714H138.88Z" />
  <path
    d="M289.221 224.198C287.395 220.933 285.067 218.196 282.215 216.037C279.362 213.902 276.234 212.144 272.831 210.839C269.403 209.533 266.125 208.352 262.947 207.323C260.144 206.494 257.567 205.64 255.239 204.787C252.887 203.958 250.91 202.953 249.284 201.848C247.632 200.718 246.356 199.362 245.43 197.755C244.479 196.173 244.029 194.24 244.029 192.005C244.029 189.544 244.554 187.459 245.63 185.727C246.706 183.994 248.083 182.588 249.759 181.508C251.436 180.428 253.313 179.65 255.365 179.122C257.416 178.595 259.493 178.344 261.545 178.344C264.999 178.344 268.427 179.173 271.855 180.805C275.258 182.462 277.886 184.496 279.762 186.932L291.248 174.276C287.42 170.71 282.915 168.023 277.736 166.24C272.556 164.457 267.426 163.578 262.371 163.578C257.892 163.578 253.488 164.156 249.134 165.336C244.78 166.516 240.901 168.299 237.498 170.685C234.095 173.07 231.342 176.109 229.24 179.75C227.138 183.416 226.087 187.761 226.087 192.833C226.087 197.529 226.813 201.447 228.314 204.586C229.816 207.725 231.742 210.387 234.145 212.521C236.522 214.681 239.199 216.413 242.202 217.744C245.18 219.05 248.183 220.18 251.161 221.109C254.263 222.139 257.191 223.118 259.994 224.072C262.796 225.002 265.224 226.106 267.276 227.362C269.353 228.643 270.979 230.149 272.205 231.882C273.406 233.615 274.007 235.8 274.007 238.411C274.007 241.123 273.482 243.409 272.406 245.242C271.33 247.075 269.928 248.582 268.202 249.812C266.475 251.017 264.523 251.896 262.371 252.424C260.219 252.926 258.117 253.177 256.065 253.177C252.136 253.177 248.158 252.198 244.079 250.239C240.025 248.255 236.772 245.593 234.345 242.203L221.733 254.031C225.662 258.727 230.691 262.267 236.872 264.653C243.028 267.039 249.334 268.244 255.79 268.244C260.644 268.244 265.274 267.591 269.678 266.26C274.057 264.954 277.886 262.996 281.164 260.359C284.442 257.747 287.044 254.433 289.021 250.44C290.973 246.447 291.949 241.801 291.949 236.453C291.949 231.581 291.048 227.488 289.221 224.198Z" />
  <path
    d="M341.295 249.938V221.812H386.863V206.896H341.295V181.583H389.39V166.115H323.629V265.708H391.893V249.938H341.295Z" />
  <path
    d="M495.64 240.797C493.112 244.287 489.784 247.075 485.68 249.184C481.577 251.294 476.847 252.348 471.517 252.348C466.387 252.348 461.758 251.444 457.654 249.661C453.525 247.878 449.997 245.367 447.069 242.153C444.116 238.914 441.839 235.046 440.263 230.526C438.661 226.031 437.886 221.059 437.886 215.635C437.886 210.462 438.686 205.691 440.338 201.271C441.964 196.876 444.292 193.034 447.344 189.745C450.372 186.455 454.001 183.894 458.205 182.01C462.409 180.127 467.088 179.198 472.218 179.198C476.247 179.198 480.35 180.026 484.554 181.659C488.758 183.291 492.186 185.903 494.789 189.468L508.252 178.771C506.275 176.134 503.897 173.899 501.095 172.016C498.292 170.132 495.314 168.575 492.136 167.295C488.958 166.039 485.63 165.11 482.177 164.482C478.724 163.879 475.396 163.578 472.218 163.578C464.561 163.578 457.454 164.809 450.923 167.244C444.367 169.68 438.686 173.146 433.882 177.641C429.077 182.136 425.274 187.61 422.521 194.039C419.769 200.467 418.392 207.649 418.392 215.635C418.392 223.42 419.693 230.526 422.321 236.93C424.948 243.358 428.577 248.883 433.256 253.529C437.936 258.174 443.516 261.79 449.997 264.377C456.503 266.938 463.635 268.244 471.392 268.244C479.875 268.244 487.307 266.712 493.663 263.674C500.019 260.61 505.399 256.316 509.803 250.791L495.64 240.797Z" />
  <path d="M523.541 166.115V181.583H553.944V265.708H571.611V181.583H602.039V166.115H523.541Z" />
  <path
    d="M721.251 194.039C718.574 187.61 714.87 182.136 710.116 177.641C705.336 173.146 699.681 169.68 693.15 167.244C688.921 165.687 684.467 164.608 679.738 164.055V180.026C681.89 180.478 683.916 181.131 685.843 182.01C690.047 183.894 693.651 186.455 696.653 189.745C699.631 193.034 701.958 196.876 703.585 201.271C705.211 205.691 706.037 210.462 706.037 215.635C706.037 220.984 705.211 225.88 703.585 230.325C701.958 234.77 699.606 238.637 696.578 241.927C693.55 245.217 689.922 247.778 685.718 249.586C683.816 250.415 681.814 251.068 679.738 251.494V267.742C684.467 267.164 688.921 266.034 693.15 264.377C699.681 261.79 705.336 258.174 710.116 253.529C714.87 248.883 718.574 243.358 721.251 236.93C723.904 230.526 725.255 223.42 725.255 215.635C725.255 207.649 723.904 200.467 721.251 194.039ZM633.644 177.641C628.915 182.136 625.236 187.61 622.559 194.039C619.906 200.467 618.58 207.649 618.58 215.635C618.58 223.42 619.906 230.526 622.559 236.93C625.236 243.358 628.915 248.883 633.644 253.529C638.349 258.174 643.954 261.79 650.46 264.377C654.939 266.135 659.669 267.315 664.723 267.842V251.67C662.371 251.218 660.144 250.515 658.017 249.586C653.863 247.778 650.26 245.217 647.232 241.927C644.204 238.637 641.852 234.77 640.226 230.325C638.599 225.88 637.773 220.984 637.773 215.635C637.773 210.462 638.599 205.691 640.226 201.271C641.852 196.876 644.179 193.034 647.157 189.745C650.16 186.455 653.738 183.894 657.892 182.01C660.044 181.031 662.321 180.328 664.723 179.851V163.955C659.669 164.457 654.939 165.562 650.46 167.244C643.954 169.68 638.349 173.146 633.644 177.641Z" />
  <path
    d="M835.709 166.115L810.185 236.88H809.759L783.985 166.115H756.359V265.708H773.175V185.651H773.475L803.178 265.708H815.515L845.668 185.651H845.943V265.708H863.46V166.115H835.709Z" />
  <path d="M899.343 166.115V265.708H917.01V166.115H899.343Z" />
  <path
    d="M970.56 249.938V221.812H1016.1V206.896H970.56V181.583H1018.63V166.115H952.894V265.708H1021.16V249.938H970.56Z" />
  <path
    d="M91.7015 343.881H112.318C126.934 343.881 135.903 353.4 135.903 370.528C135.903 387.656 127.224 397.11 112.544 397.11H91.7015V343.881V343.881ZM100.542 389.598H111.899C123.772 389.598 127.095 380.727 127.095 370.528C127.095 360.329 123.772 351.392 111.899 351.392H100.542V389.598Z" />
  <path
    d="M171.039 358.418V365.801H170.878C163.393 364.538 157.359 369.589 157.359 377.716V397.143H149.583V359.098H157.359V366.254H157.52C159.521 361.494 162.65 358.224 167.619 358.224C168.974 358.192 169.91 358.256 171.039 358.418Z" />
  <path
    d="M178.105 392.869C178.105 389.955 180.17 388.012 182.912 388.012C185.59 388.012 187.655 389.955 187.655 392.869C187.655 395.847 185.59 397.693 182.912 397.693C180.17 397.725 178.105 395.847 178.105 392.869Z" />
  <path
    d="M224.178 343.881H246.731C256.894 343.881 264.25 348.64 264.25 359.811C264.25 370.981 256.894 375.805 246.731 375.805H233.019V397.11H224.178V343.881V343.881ZM233.019 368.229H246.376C252.313 368.229 255.442 365.703 255.442 359.811C255.442 354.015 252.313 351.392 246.376 351.392H233.019V368.229Z" />
  <path
    d="M276.705 348.51C276.705 345.823 278.931 344.431 281.092 344.431C283.383 344.431 285.545 345.855 285.545 348.51C285.545 351.165 283.383 352.687 281.092 352.687C278.931 352.687 276.705 351.198 276.705 348.51ZM285.029 359.098V397.142H277.253V359.098H285.029Z" />
  <path
    d="M326.875 385.519H334.651C332.715 392.739 327.069 398.243 317.357 398.243C305.549 398.243 298.354 390.052 298.354 378.137C298.354 365.768 305.549 358.03 316.97 358.03C329.198 358.03 335.232 366.578 335.232 380.144H306.162C306.162 386.555 310.227 391.833 317.132 391.833C323.617 391.833 326.198 387.818 326.875 385.519ZM306.162 374.348H327.456C327.456 368.456 323.294 364.214 317.002 364.214C310.711 364.214 306.162 368.456 306.162 374.348Z" />
  <path
    d="M369.464 358.418V365.801H369.302C361.817 364.538 355.784 369.589 355.784 377.716V397.143H348.008V359.098H355.784V366.254H355.945C357.946 361.494 361.075 358.224 366.044 358.224C367.399 358.192 368.367 358.256 369.464 358.418Z" />
  <path
    d="M403.309 358.418V365.801H403.148C395.663 364.538 389.629 369.589 389.629 377.716V397.143H381.854V359.098H389.629V366.254H389.791C391.791 361.494 394.921 358.224 399.889 358.224C401.212 358.192 402.18 358.256 403.309 358.418Z" />
  <path
    d="M440.929 385.519H448.705C446.769 392.739 441.123 398.243 431.411 398.243C419.603 398.243 412.408 390.052 412.408 378.137C412.408 365.768 419.603 358.03 431.024 358.03C443.252 358.03 449.286 366.578 449.286 380.144H420.216C420.216 386.555 424.281 391.833 431.185 391.833C437.671 391.833 440.252 387.818 440.929 385.519ZM420.216 374.348H441.51C441.51 368.456 437.348 364.214 431.056 364.214C424.765 364.214 420.216 368.456 420.216 374.348Z" />
  <path
    d="M497.617 398.243C484.841 398.243 481.292 389.598 481.292 380.435V377.975H489.68V380.435C489.68 386.393 490.713 390.635 497.391 390.635C504.006 390.635 505.167 386.393 505.167 380.435V343.881H513.911V380.435C513.943 389.598 510.394 398.243 497.617 398.243Z" />
  <path
    d="M550.466 358.418V365.801H550.305C542.82 364.538 536.786 369.589 536.786 377.716V397.143H529.01V359.098H536.786V366.254H536.947C538.948 361.494 542.077 358.224 547.046 358.224C548.369 358.192 549.337 358.256 550.466 358.418Z" />
  <path
    d="M557.5 392.869C557.5 389.955 559.565 388.012 562.307 388.012C564.985 388.012 567.05 389.955 567.05 392.869C567.05 395.847 564.985 397.693 562.307 397.693C559.597 397.725 557.5 395.847 557.5 392.869Z" />
  <path
    d="M635.353 368.391V368.553C640.903 369.524 645.678 373.604 645.678 381.569C645.678 391.833 638.644 397.143 627.642 397.143H603.605V343.913H626.384C637.289 343.913 643.581 348.77 643.581 357.318C643.581 363.858 639.709 366.902 635.353 368.391ZM626.061 365.93C632.353 365.93 634.74 363.405 634.74 358.71C634.74 354.015 631.836 351.425 626.577 351.425H612.413V365.93H626.061ZM612.413 389.599H626.964C634.547 389.599 636.837 386.037 636.837 381.051C636.837 375.611 633.514 372.568 627.932 372.568H612.413V389.599Z" />
  <path
    d="M675.716 398.243C663.843 398.243 656.648 389.987 656.648 378.137C656.648 366.286 663.843 358.03 675.716 358.03C687.589 358.03 694.784 366.286 694.784 378.137C694.784 389.987 687.589 398.243 675.716 398.243ZM675.716 391.833C683.137 391.833 687.008 385.94 687.008 378.137C687.008 370.236 683.137 364.441 675.716 364.441C668.295 364.441 664.423 370.236 664.423 378.137C664.423 385.972 668.295 391.833 675.716 391.833Z" />
  <path
    d="M740.341 359.098V397.143H732.565V392.221H732.404C730.403 395.2 726.467 398.179 719.95 398.179C712.916 398.179 707.335 394.099 707.335 385.357V359.066H715.207V383.123C715.207 388.271 717.369 391.541 722.692 391.541C728.694 391.541 732.565 387.882 732.565 382.249V359.098H740.341V359.098Z" />
  <path
    d="M771.896 364.441C764.249 364.441 760.99 370.981 760.99 378.137C760.99 385.292 764.184 391.832 771.896 391.832C778.574 391.832 781.026 387.202 781.317 382.961H789.092C788.512 391.735 781.736 398.211 771.896 398.211C760.539 398.211 753.215 390.019 753.215 378.104C753.215 366.189 760.571 357.997 771.831 357.997C781.704 357.997 788.157 364.311 789.125 372.956H781.349C781.026 369.135 778.574 364.441 771.896 364.441Z" />
  <path
    d="M834.649 370.852V397.143H826.777V373.086C826.777 367.938 824.615 364.667 819.195 364.667C813.484 364.667 809.386 368.326 809.386 373.96V397.11H801.611V343.881H809.386V363.987H809.548C811.548 361.009 815.484 358.03 821.873 358.03C829.1 358.03 834.649 362.142 834.649 370.852Z" />
  <path
    d="M875.689 385.519H883.465C881.529 392.739 875.883 398.243 866.171 398.243C854.363 398.243 847.168 390.052 847.168 378.137C847.168 365.768 854.363 358.03 865.784 358.03C878.012 358.03 884.046 366.578 884.046 380.144H854.976C854.976 386.555 859.041 391.833 865.945 391.833C872.431 391.833 875.044 387.818 875.689 385.519ZM855.008 374.348H876.302C876.302 368.456 872.14 364.214 865.849 364.214C859.557 364.214 855.008 368.456 855.008 374.348Z" />
  <path
    d="M918.31 358.418V365.801H918.149C910.664 364.538 904.63 369.589 904.63 377.716V397.143H896.854V359.098H904.63V366.254H904.792C906.792 361.494 909.922 358.224 914.89 358.224C916.213 358.192 917.181 358.256 918.31 358.418Z" />
  <path
    d="M206.328 460.147C206.328 449.722 212.833 442.122 223.254 442.122C233.642 442.122 240.179 449.722 240.179 460.147C240.179 470.572 233.61 478.204 223.254 478.204C212.833 478.204 206.328 470.539 206.328 460.147ZM234.451 460.147C234.451 453.164 231.183 447.059 223.254 447.059C215.325 447.059 212.024 453.164 212.024 460.147C212.024 467.162 215.357 473.267 223.254 473.267C231.183 473.267 234.451 467.162 234.451 460.147Z" />
  <path
    d="M249.597 442.869H257.04L266.684 469.5H266.781L276.393 442.869H283.836V477.489H278.238V451.248H278.14L269.014 477.489H264.419L255.293 451.248H255.196V477.489H249.597V442.869V442.869Z" />
  <path
    d="M294.483 442.869H300.891L316.425 468.883H316.522V442.869H322.25V477.489H315.875L300.309 451.573H300.212V477.489H294.483V442.869Z" />
  <path d="M338.82 442.869V477.489H333.092V442.869H338.82Z" />
  <path
    d="M349.564 442.869H364.225C370.826 442.869 375.616 445.954 375.616 453.229C375.616 460.504 370.826 463.654 364.225 463.654H355.292V477.489H349.564V442.869ZM355.325 458.685H363.998C367.849 458.685 369.888 457.029 369.888 453.229C369.888 449.462 367.849 447.773 363.998 447.773H355.325V458.685Z" />
  <path
    d="M384.257 442.869H398.982C406.069 442.869 410.664 446.507 410.664 452.807C410.664 457.646 408.205 460.471 404.257 461.413V461.511C412.218 463.005 409.338 476.58 411.15 477.164V477.489H405.13C403.545 476.028 406.781 464.141 398.464 464.141H390.017V477.489H384.289V442.869H384.257ZM389.985 459.172H397.752C401.279 459.172 404.936 458.49 404.936 453.457C404.936 448.455 401.279 447.741 397.752 447.741H389.985V459.172Z" />
  <path
    d="M426.295 469.305L423.512 477.489H417.687L430.373 442.869H436.393L449.046 477.489H443.221L440.438 469.305H426.295ZM438.852 464.499L433.448 448.13H433.35L427.914 464.499H438.852Z" />
  <path d="M461.862 447.741H450.826V442.837H478.625V447.741H467.622V477.457H461.894V447.741H461.862Z" />
  <path d="M493.156 442.869V477.489H487.428V442.869H493.156Z" />
  <path
    d="M518.917 447.059C511.473 447.059 508.528 453.294 508.528 460.147C508.528 467.032 511.473 473.267 518.917 473.267C525.324 473.267 527.784 469.045 528.172 464.856H533.9C533.124 472.65 527.816 478.204 519.046 478.204C509.111 478.204 502.833 470.604 502.833 460.147C502.833 449.722 509.111 442.122 519.046 442.122C527.784 442.122 533.091 447.676 533.9 454.756H528.172C527.557 451.281 525.292 447.059 518.917 447.059Z" />
  <path d="M548.819 442.869V477.489H543.091V442.869H548.819Z" />
  <path
    d="M582.153 457.126V462.063H565.324V472.553H585.001V477.457H559.564V442.837H584.515V447.741H565.324V457.126H582.153V457.126Z" />
  <path
    d="M594.483 442.869H600.891L616.424 468.883H616.522V442.869H622.25V477.489H615.874L600.308 451.573H600.211V477.489H594.483V442.869Z" />
  <path
    d="M661.732 447.059C654.289 447.059 651.344 453.294 651.344 460.147C651.344 467.032 654.289 473.267 661.732 473.267C668.14 473.267 670.599 469.045 670.988 464.856H676.716C675.939 472.65 670.632 478.204 661.861 478.204C651.926 478.204 645.648 470.604 645.648 460.147C645.648 449.722 651.926 442.122 661.861 442.122C670.599 442.122 675.907 447.676 676.716 454.756H670.988C670.373 451.281 668.107 447.059 661.732 447.059Z" />
  <path
    d="M700.567 447.059C693.123 447.059 690.178 453.294 690.178 460.147C690.178 467.032 693.123 473.267 700.567 473.267C706.974 473.267 709.434 469.045 709.822 464.856H715.551C714.774 472.65 709.466 478.204 700.696 478.204C690.761 478.204 684.482 470.604 684.482 460.147C684.482 449.722 690.761 442.122 700.696 442.122C709.434 442.122 714.741 447.676 715.551 454.756H709.822C709.175 451.281 706.91 447.059 700.567 447.059Z" />
  <path
    d="M724.612 442.869H732.055L741.699 469.5H741.796L751.408 442.869H758.852V477.489H753.253V451.248H753.156L744.03 477.489H739.434L730.308 451.248H730.211V477.489H724.612V442.869V442.869Z" />
  <path d="M790.178 457.808V462.745H775.259V477.457H769.531V442.837H793.641V447.741H775.259V457.808H790.178Z" />
</svg>
