<svg width="192" height="192" viewBox="0 0 192 192" fill="none" xmlns="http://www.w3.org/2000/svg"
  preserveAspectRatio="xMidYMid meet">
  <path
    d="M48 132C55.1201 132 62.0804 129.889 68.0005 125.933C73.9207 121.977 78.5349 116.355 81.2597 109.777C83.9844 103.198 84.6973 95.9601 83.3083 88.9767C81.9192 81.9934 78.4905 75.5788 73.4558 70.5442C68.4212 65.5095 62.0066 62.0808 55.0233 60.6917C48.0399 59.3027 40.8015 60.0156 34.2234 62.7403C27.6453 65.4651 22.0228 70.0793 18.0671 75.9995C14.1114 81.9196 12 88.8799 12 96C12 105.548 15.7928 114.705 22.5442 121.456C29.2955 128.207 38.4522 132 48 132Z" />
  <path
    d="M120 120C124.747 120 129.387 118.592 133.334 115.955C137.28 113.318 140.357 109.57 142.173 105.184C143.99 100.799 144.465 95.9734 143.539 91.3178C142.613 86.6623 140.327 82.3859 136.971 79.0294C133.614 75.673 129.338 73.3872 124.682 72.4611C120.027 71.5351 115.201 72.0104 110.816 73.8269C106.43 75.6434 102.682 78.7195 100.045 82.6663C97.4076 86.6131 96 91.2532 96 96C96 102.365 98.5286 108.47 103.029 112.971C107.53 117.471 113.635 120 120 120Z" />
  <path
    d="M168 108C170.373 108 172.693 107.296 174.667 105.978C176.64 104.659 178.178 102.785 179.087 100.592C179.995 98.3995 180.232 95.9867 179.769 93.6589C179.306 91.3311 178.164 89.1929 176.485 87.5147C174.807 85.8365 172.669 84.6936 170.341 84.2306C168.013 83.7676 165.601 84.0052 163.408 84.9134C161.215 85.8217 159.341 87.3598 158.022 89.3332C156.704 91.3065 156 93.6266 156 96C156 99.1826 157.264 102.235 159.515 104.485C161.765 106.736 164.817 108 168 108Z" />
</svg>
