<svg viewBox="0 0 408 176" fill="none" xmlns="http://www.w3.org/2000/svg" preserveAspectRatio="xMidYMid meet">
  <path
    d="M190 22C195.523 22 200 17.5228 200 12C200 6.47715 195.523 2 190 2C184.477 2 180 6.47715 180 12C180 17.5228 184.477 22 190 22Z" />
  <path
    d="M210.5 18C214.09 18 217 15.0899 217 11.5C217 7.91015 214.09 5 210.5 5C206.91 5 204 7.91015 204 11.5C204 15.0899 206.91 18 210.5 18Z" />
  <path
    d="M224.5 15C226.433 15 228 13.433 228 11.5C228 9.567 226.433 8 224.5 8C222.567 8 221 9.567 221 11.5C221 13.433 222.567 15 224.5 15Z" />
  <path
    d="M31.1502 66.0562L20.0853 96.5429H19.8648L8.91009 66.0562H1.00226L16.7177 105.66H22.8415L38.7875 66.0562H31.1502Z" />
  <path
    d="M65.1168 66.0562H58.993L41.704 105.66H49.6219L53.21 96.5928H70.4489L74.1572 105.66H82.2354L65.1168 66.0562ZM55.6254 90.5514L61.8595 74.4443L67.9833 90.5514H55.6254Z" />
  <path
    d="M115.841 89.1534C115.11 87.8552 114.177 86.7668 113.035 85.908C111.892 85.0592 110.639 84.3602 109.276 83.8409C107.903 83.3217 106.59 82.8523 105.317 82.4429C104.195 82.1134 103.163 81.7739 102.231 81.4343C101.288 81.1048 100.497 80.7054 99.8451 80.266C99.1836 79.8166 98.6725 79.2774 98.3016 78.6383C97.9208 78.0092 97.7404 77.2403 97.7404 76.3516C97.7404 75.3729 97.9509 74.5441 98.3818 73.8551C98.8128 73.1661 99.364 72.6069 100.036 72.1775C100.707 71.7481 101.459 71.4385 102.281 71.2288C103.102 71.0191 103.934 70.9193 104.756 70.9193C106.139 70.9193 107.512 71.2488 108.886 71.8979C110.249 72.5569 111.301 73.3658 112.053 74.3344L116.653 69.3016C115.12 67.8836 113.316 66.8151 111.241 66.1061C109.166 65.3971 107.112 65.0476 105.087 65.0476C103.293 65.0476 101.529 65.2773 99.785 65.7466C98.0411 66.2159 96.4876 66.9249 95.1245 67.8736C93.7614 68.8222 92.6589 70.0305 91.817 71.4785C90.9751 72.9364 90.5542 74.664 90.5542 76.6811C90.5542 78.5484 90.8448 80.1062 91.4462 81.3545C92.0475 82.6027 92.8193 83.6612 93.7815 84.51C94.7336 85.3687 95.806 86.0578 97.0087 86.587C98.2014 87.1063 99.4041 87.5556 100.597 87.9251C101.84 88.3345 103.012 88.724 104.135 89.1034C105.257 89.4729 106.23 89.9123 107.051 90.4116C107.883 90.9209 108.535 91.52 109.026 92.209C109.507 92.8981 109.747 93.7668 109.747 94.8053C109.747 95.8838 109.537 96.7925 109.106 97.5215C108.675 98.2505 108.114 98.8496 107.422 99.3389C106.731 99.8182 105.949 100.168 105.087 100.377C104.225 100.577 103.383 100.677 102.561 100.677C100.988 100.677 99.3941 100.288 97.7604 99.5087C96.1368 98.7198 94.8338 97.6613 93.8616 96.3132L88.8102 101.017C90.3838 102.884 92.3983 104.292 94.8739 105.241C97.3395 106.189 99.8652 106.668 102.451 106.668C104.395 106.668 106.25 106.409 108.014 105.88C109.768 105.36 111.301 104.581 112.614 103.533C113.927 102.494 114.969 101.176 115.761 99.5886C116.543 98.0008 116.934 96.1534 116.934 94.0265C116.934 92.0892 116.573 90.4615 115.841 89.1534Z" />
  <path
    d="M136.698 99.3888V88.2047H154.949V82.2731H136.698V72.2074H155.962V66.0562H129.622V105.66H156.964V99.3888H136.698Z" />
  <path
    d="M198.518 95.754C197.505 97.142 196.172 98.2505 194.529 99.0893C192.885 99.9281 190.991 100.347 188.856 100.347C186.801 100.347 184.947 99.988 183.303 99.279C181.65 98.57 180.236 97.5714 179.064 96.2932C177.881 95.0051 176.969 93.4672 176.338 91.6698C175.696 89.8823 175.385 87.9051 175.385 85.7482C175.385 83.6911 175.706 81.7938 176.368 80.0363C177.019 78.2888 177.951 76.761 179.174 75.4528C180.387 74.1447 181.84 73.1261 183.524 72.3772C185.208 71.6283 187.082 71.2588 189.136 71.2588C190.75 71.2588 192.394 71.5883 194.078 72.2374C195.761 72.8865 197.135 73.925 198.177 75.343L203.569 71.089C202.777 70.0405 201.825 69.1518 200.703 68.4028C199.58 67.6539 198.387 67.0348 197.114 66.5255C195.842 66.0262 194.509 65.6567 193.125 65.4071C191.742 65.1674 190.409 65.0476 189.136 65.0476C186.07 65.0476 183.223 65.5369 180.607 66.5055C177.981 67.4742 175.706 68.8522 173.782 70.6397C171.858 72.4271 170.334 74.604 169.232 77.1604C168.129 79.7168 167.578 82.5727 167.578 85.7482C167.578 88.8438 168.099 91.6698 169.151 94.2162C170.204 96.7725 171.657 98.9694 173.531 100.817C175.406 102.664 177.641 104.102 180.236 105.131C182.842 106.149 185.699 106.668 188.806 106.668C192.203 106.668 195.18 106.059 197.726 104.851C200.272 103.633 202.426 101.925 204.19 99.7284L198.518 95.754Z" />
  <path d="M209.693 66.0562V72.2074H221.87V105.66H228.946V72.2074H241.134V66.0562H209.693Z" />
  <path
    d="M288.881 77.1604C287.809 74.604 286.326 72.4271 284.421 70.6397C282.507 68.8522 280.242 67.4742 277.626 66.5055C275.932 65.8864 274.148 65.457 272.254 65.2373V71.5883C273.116 71.7681 273.928 72.0277 274.699 72.3772C276.383 73.1261 277.826 74.1447 279.029 75.4528C280.222 76.761 281.154 78.2888 281.805 80.0363C282.457 81.7938 282.788 83.6911 282.788 85.7482C282.788 87.8752 282.457 89.8224 281.805 91.5899C281.154 93.3574 280.212 94.8952 278.999 96.2033C277.786 97.5115 276.333 98.53 274.649 99.249C273.888 99.5786 273.086 99.8382 272.254 100.008V106.469C274.148 106.239 275.932 105.79 277.626 105.131C280.242 104.102 282.507 102.664 284.421 100.817C286.326 98.9694 287.809 96.7725 288.881 94.2162C289.944 91.6698 290.485 88.8438 290.485 85.7482C290.485 82.5727 289.944 79.7168 288.881 77.1604ZM253.792 70.6397C251.898 72.4271 250.425 74.604 249.352 77.1604C248.29 79.7168 247.759 82.5727 247.759 85.7482C247.759 88.8438 248.29 91.6698 249.352 94.2162C250.425 96.7725 251.898 98.9694 253.792 100.817C255.677 102.664 257.922 104.102 260.527 105.131C262.322 105.83 264.216 106.299 266.24 106.509V100.078C265.298 99.8981 264.406 99.6185 263.554 99.249C261.891 98.53 260.447 97.5115 259.235 96.2033C258.022 94.8952 257.08 93.3574 256.428 91.5899C255.777 89.8224 255.446 87.8752 255.446 85.7482C255.446 83.6911 255.777 81.7938 256.428 80.0363C257.08 78.2888 258.012 76.761 259.204 75.4528C260.407 74.1447 261.84 73.1261 263.504 72.3772C264.366 71.9877 265.278 71.7081 266.24 71.5184V65.1974C264.216 65.3971 262.322 65.8365 260.527 66.5055C257.922 67.4742 255.677 68.8522 253.792 70.6397Z" />
  <path
    d="M334.725 66.0562L324.502 94.1962H324.331L314.008 66.0562H302.943V105.66H309.678V73.8251H309.799L321.695 105.66H326.637L338.714 73.8251H338.824V105.66H345.84V66.0562H334.725Z" />
  <path d="M360.212 66.0562V105.66H367.288V66.0562H360.212Z" />
  <path
    d="M388.737 99.3888V88.2047H406.978V82.2731H388.737V72.2074H407.99V66.0562H381.661V105.66H409.002V99.3888H388.737Z" />
  <path
    d="M76 134.699H82.385C86.9114 134.699 89.6893 137.626 89.6893 142.892C89.6893 148.159 87.0014 151.066 82.4549 151.066H76V134.699ZM78.7378 148.756H82.2551C85.9322 148.756 86.9614 146.028 86.9614 142.892C86.9614 139.756 85.9322 137.008 82.2551 137.008H78.7378V148.756Z" />
  <path
    d="M100.571 139.169V141.439H100.521C98.2026 141.05 96.3341 142.603 96.3341 145.102V151.076H93.926V139.378H96.3341V141.578H96.384C97.0036 140.114 97.9728 139.109 99.5116 139.109C99.9313 139.099 100.221 139.119 100.571 139.169Z" />
  <path
    d="M102.759 149.761C102.759 148.865 103.399 148.268 104.248 148.268C105.077 148.268 105.717 148.865 105.717 149.761C105.717 150.677 105.077 151.245 104.248 151.245C103.399 151.255 102.759 150.677 102.759 149.761Z" />
  <path
    d="M117.028 134.699H124.012C127.16 134.699 129.438 136.162 129.438 139.597C129.438 143.031 127.16 144.515 124.012 144.515H119.766V151.066H117.028V134.699ZM119.766 142.185H123.903C125.741 142.185 126.71 141.409 126.71 139.597C126.71 137.815 125.741 137.008 123.903 137.008H119.766V142.185Z" />
  <path
    d="M133.295 136.122C133.295 135.296 133.985 134.868 134.654 134.868C135.364 134.868 136.033 135.306 136.033 136.122C136.033 136.939 135.364 137.407 134.654 137.407C133.985 137.407 133.295 136.949 133.295 136.122ZM135.873 139.378V151.075H133.465V139.378H135.873Z" />
  <path
    d="M148.833 147.501H151.241C150.642 149.722 148.893 151.414 145.885 151.414C142.228 151.414 140 148.895 140 145.232C140 141.429 142.228 139.049 145.765 139.049C149.552 139.049 151.421 141.677 151.421 145.849H142.418C142.418 147.82 143.677 149.443 145.815 149.443C147.824 149.443 148.623 148.208 148.833 147.501ZM142.418 144.067H149.013C149.013 142.255 147.724 140.951 145.775 140.951C143.827 140.951 142.418 142.255 142.418 144.067Z" />
  <path
    d="M162.023 139.169V141.439H161.973C159.655 141.05 157.786 142.603 157.786 145.102V151.076H155.378V139.378H157.786V141.578H157.836C158.456 140.114 159.425 139.109 160.964 139.109C161.383 139.099 161.683 139.119 162.023 139.169Z" />
  <path
    d="M172.505 139.169V141.439H172.455C170.136 141.05 168.268 142.603 168.268 145.102V151.076H165.86V139.378H168.268V141.578H168.318C168.937 140.114 169.907 139.109 171.445 139.109C171.855 139.099 172.155 139.119 172.505 139.169Z" />
  <path
    d="M184.155 147.501H186.564C185.964 149.722 184.215 151.414 181.208 151.414C177.551 151.414 175.322 148.895 175.322 145.232C175.322 141.429 177.551 139.049 181.088 139.049C184.875 139.049 186.743 141.677 186.743 145.849H177.74C177.74 147.82 178.999 149.443 181.138 149.443C183.146 149.443 183.946 148.208 184.155 147.501ZM177.74 144.067H184.335C184.335 142.255 183.046 140.951 181.098 140.951C179.149 140.951 177.74 142.255 177.74 144.067Z" />
  <path
    d="M201.712 151.414C197.755 151.414 196.656 148.756 196.656 145.938V145.182H199.254V145.938C199.254 147.77 199.573 149.074 201.642 149.074C203.69 149.074 204.05 147.77 204.05 145.938V134.699H206.758V145.938C206.768 148.756 205.669 151.414 201.712 151.414Z" />
  <path
    d="M218.079 139.169V141.439H218.029C215.711 141.05 213.842 142.603 213.842 145.102V151.076H211.434V139.378H213.842V141.578H213.892C214.512 140.114 215.481 139.109 217.02 139.109C217.429 139.099 217.729 139.119 218.079 139.169Z" />
  <path
    d="M220.257 149.761C220.257 148.865 220.897 148.268 221.746 148.268C222.575 148.268 223.215 148.865 223.215 149.761C223.215 150.677 222.575 151.245 221.746 151.245C220.907 151.255 220.257 150.677 220.257 149.761Z" />
  <path
    d="M244.368 142.235V142.285C246.087 142.583 247.566 143.838 247.566 146.287C247.566 149.443 245.388 151.076 241.98 151.076H234.536V134.709H241.591C244.968 134.709 246.916 136.202 246.916 138.83C246.916 140.841 245.717 141.777 244.368 142.235ZM241.491 141.478C243.439 141.478 244.179 140.702 244.179 139.258C244.179 137.815 243.279 137.018 241.651 137.018H237.264V141.478H241.491ZM237.264 148.756H241.77C244.119 148.756 244.828 147.661 244.828 146.128C244.828 144.455 243.799 143.519 242.07 143.519H237.264V148.756Z" />
  <path
    d="M256.869 151.414C253.192 151.414 250.963 148.875 250.963 145.232C250.963 141.588 253.192 139.049 256.869 139.049C260.546 139.049 262.774 141.588 262.774 145.232C262.774 148.875 260.546 151.414 256.869 151.414ZM256.869 149.443C259.167 149.443 260.366 147.631 260.366 145.232C260.366 142.802 259.167 141.02 256.869 141.02C254.57 141.02 253.371 142.802 253.371 145.232C253.371 147.641 254.57 149.443 256.869 149.443Z" />
  <path
    d="M276.883 139.378V151.075H274.475V149.562H274.425C273.805 150.478 272.586 151.394 270.568 151.394C268.39 151.394 266.661 150.14 266.661 147.452V139.368H269.099V146.765C269.099 148.348 269.769 149.353 271.417 149.353C273.276 149.353 274.475 148.228 274.475 146.496V139.378H276.883Z" />
  <path
    d="M286.655 141.02C284.287 141.02 283.278 143.031 283.278 145.232C283.278 147.432 284.267 149.443 286.655 149.443C288.724 149.443 289.483 148.019 289.573 146.715H291.981C291.801 149.413 289.703 151.404 286.655 151.404C283.138 151.404 280.87 148.885 280.87 145.222C280.87 141.558 283.148 139.039 286.635 139.039C289.693 139.039 291.691 140.981 291.991 143.639H289.583C289.483 142.464 288.724 141.02 286.655 141.02Z" />
  <path
    d="M306.09 142.992V151.076H303.652V143.679C303.652 142.096 302.983 141.09 301.304 141.09C299.535 141.09 298.266 142.215 298.266 143.947V151.066H295.858V134.699H298.266V140.881H298.316C298.936 139.965 300.155 139.049 302.133 139.049C304.372 139.049 306.09 140.314 306.09 142.992Z" />
  <path
    d="M318.8 147.501H321.208C320.609 149.722 318.86 151.414 315.853 151.414C312.195 151.414 309.967 148.895 309.967 145.232C309.967 141.429 312.195 139.049 315.733 139.049C319.52 139.049 321.388 141.677 321.388 145.849H312.385C312.385 147.82 313.644 149.443 315.783 149.443C317.791 149.443 318.6 148.208 318.8 147.501ZM312.395 144.067H318.99C318.99 142.255 317.701 140.951 315.753 140.951C313.804 140.951 312.395 142.255 312.395 144.067Z" />
  <path
    d="M332 139.169V141.439H331.95C329.632 141.05 327.763 142.603 327.763 145.102V151.076H325.355V139.378H327.763V141.578H327.813C328.433 140.114 329.402 139.109 330.941 139.109C331.35 139.099 331.65 139.119 332 139.169Z" />
  <path
    d="M114.057 170.448C114.057 167.242 116.072 164.906 119.299 164.906C122.516 164.906 124.541 167.242 124.541 170.448C124.541 173.653 122.506 176 119.299 176C116.072 176 114.057 173.643 114.057 170.448ZM122.767 170.448C122.767 168.301 121.755 166.424 119.299 166.424C116.843 166.424 115.821 168.301 115.821 170.448C115.821 172.605 116.853 174.482 119.299 174.482C121.755 174.482 122.767 172.605 122.767 170.448Z" />
  <path
    d="M127.457 165.135H129.763L132.749 173.324H132.779L135.756 165.135H138.061V175.78H136.327V167.712H136.297L133.471 175.78H132.048L129.221 167.712H129.191V175.78H127.457V165.135Z" />
  <path
    d="M141.359 165.135H143.343L148.154 173.134H148.184V165.135H149.958V175.78H147.984L143.163 167.812H143.133V175.78H141.359V165.135Z" />
  <path d="M155.09 165.135V175.78H153.316V165.135H155.09Z" />
  <path
    d="M158.417 165.135H162.957C165.002 165.135 166.485 166.084 166.485 168.321C166.485 170.558 165.002 171.526 162.957 171.526H160.191V175.78H158.417V165.135ZM160.201 169.999H162.887C164.08 169.999 164.711 169.489 164.711 168.321C164.711 167.163 164.08 166.643 162.887 166.643H160.201V169.999Z" />
  <path
    d="M169.161 165.135H173.722C175.917 165.135 177.34 166.254 177.34 168.191C177.34 169.679 176.578 170.548 175.355 170.837V170.867C177.821 171.327 176.929 175.501 177.49 175.68V175.78H175.626C175.135 175.331 176.137 171.676 173.561 171.676H170.945V175.78H169.171V165.135H169.161ZM170.935 170.148H173.341C174.433 170.148 175.566 169.939 175.566 168.391C175.566 166.853 174.433 166.633 173.341 166.633H170.935V170.148Z" />
  <path
    d="M182.181 173.264L181.319 175.78H179.515L183.444 165.135H185.308L189.227 175.78H187.423L186.561 173.264H182.181ZM186.07 171.786L184.396 166.753H184.366L182.682 171.786H186.07Z" />
  <path d="M193.196 166.633H189.778V165.125H198.387V166.633H194.98V175.77H193.206V166.633H193.196Z" />
  <path d="M202.887 165.135V175.78H201.113V165.135H202.887Z" />
  <path
    d="M210.865 166.424C208.56 166.424 207.648 168.341 207.648 170.448C207.648 172.565 208.56 174.482 210.865 174.482C212.85 174.482 213.612 173.184 213.732 171.896H215.506C215.265 174.292 213.622 176 210.906 176C207.829 176 205.884 173.663 205.884 170.448C205.884 167.242 207.829 164.906 210.906 164.906C213.612 164.906 215.255 166.613 215.506 168.79H213.732C213.542 167.722 212.84 166.424 210.865 166.424Z" />
  <path d="M220.126 165.135V175.78H218.352V165.135H220.126Z" />
  <path
    d="M230.45 169.519V171.037H225.238V174.262H231.332V175.77H223.454V165.125H231.181V166.633H225.238V169.519H230.45Z" />
  <path
    d="M234.268 165.135H236.253L241.064 173.134H241.094V165.135H242.868V175.78H240.893L236.072 167.812H236.042V175.78H234.268V165.135Z" />
  <path
    d="M255.095 166.424C252.79 166.424 251.878 168.341 251.878 170.448C251.878 172.565 252.79 174.482 255.095 174.482C257.08 174.482 257.841 173.184 257.962 171.896H259.736C259.495 174.292 257.851 176 255.135 176C252.058 176 250.114 173.663 250.114 170.448C250.114 167.242 252.058 164.906 255.135 164.906C257.841 164.906 259.485 166.613 259.736 168.79H257.962C257.771 167.722 257.07 166.424 255.095 166.424Z" />
  <path
    d="M267.122 166.424C264.817 166.424 263.905 168.341 263.905 170.448C263.905 172.565 264.817 174.482 267.122 174.482C269.107 174.482 269.869 173.184 269.989 171.896H271.763C271.522 174.292 269.879 176 267.162 176C264.085 176 262.141 173.663 262.141 170.448C262.141 167.242 264.085 164.906 267.162 164.906C269.869 164.906 271.512 166.613 271.763 168.79H269.989C269.788 167.722 269.087 166.424 267.122 166.424Z" />
  <path
    d="M274.569 165.135H276.874L279.861 173.324H279.891L282.868 165.135H285.173V175.78H283.439V167.712H283.409L280.583 175.78H279.159L276.333 167.712H276.303V175.78H274.569V165.135Z" />
  <path d="M294.875 169.729V171.247H290.255V175.77H288.48V165.125H295.947V166.633H290.255V169.729H294.875Z" />

</svg>
