<svg width="16" height="16" viewBox="0 0 16 16" fill="none" xmlns="http://www.w3.org/2000/svg">
<path d="M14.0177 9.50862L14.0657 9.01093C12.766 8.88562 11.6678 8.76798 10.7395 8.64599L8.88169 8.40182L10.3709 9.5391C11.0962 10.093 11.9362 10.7549 12.891 11.5489L12.8925 11.5502C12.9348 11.5851 12.9695 11.6287 12.9943 11.6783C13.0191 11.7278 13.0333 11.7822 13.0359 11.8378C13.0385 11.8935 13.0295 11.949 13.0094 12.0007C12.9894 12.0525 12.9589 12.0993 12.9199 12.1382L12.9192 12.1389L12.0226 13.0376C12.0224 13.0378 12.0222 13.038 12.0219 13.0382C11.9822 13.0775 11.9349 13.108 11.8833 13.128C11.8313 13.1481 11.7758 13.1571 11.7203 13.1546C11.6648 13.1521 11.6104 13.138 11.5603 13.1133C11.5107 13.0887 11.4663 13.0541 11.4302 13.0113C10.7173 12.1529 10.1088 11.3998 9.59218 10.7347L8.45983 9.27677L8.7016 11.1069C8.81351 11.9539 8.92331 12.9324 9.03093 14.062C9.03615 14.1179 9.02969 14.1742 9.01203 14.2273C8.99435 14.2805 8.96586 14.3291 8.92852 14.3703C8.89119 14.4115 8.84587 14.4441 8.79556 14.4664C8.74524 14.4887 8.69095 14.5001 8.63614 14.5H8.63527L7.36233 14.5L7.36146 14.5C7.30666 14.5001 7.25236 14.4887 7.20205 14.4664C7.15174 14.4441 7.10642 14.4115 7.06909 14.3703C7.03175 14.3291 7.00325 14.2805 6.98557 14.2273C6.96802 14.1745 6.96153 14.1186 6.96656 14.0631C7.09881 12.7436 7.2108 11.6359 7.33666 10.7027L7.59098 8.81708L6.44251 10.3341C5.85985 11.1037 5.15629 11.9858 4.29494 13.0246C4.25903 13.0677 4.21477 13.1027 4.16504 13.1275C4.11521 13.1523 4.06091 13.1665 4.00555 13.1691C3.95019 13.1717 3.89485 13.1628 3.84299 13.1427C3.7916 13.1229 3.74465 13.0926 3.70512 13.0535C3.70475 13.0532 3.70439 13.0528 3.70403 13.0525L2.81807 12.1572L2.81632 12.1555C2.77734 12.1165 2.74675 12.0696 2.72666 12.0177C2.70657 11.9658 2.69746 11.9102 2.69998 11.8544C2.7025 11.7987 2.71659 11.7441 2.74125 11.6943C2.76592 11.6446 2.80056 11.6007 2.84282 11.5655C3.78942 10.7775 4.61545 10.1177 5.33056 9.56676L6.79538 8.43811L4.96139 8.6748C4.08807 8.78751 3.09686 8.90035 1.93729 9.01088L1.93636 9.01097C1.88156 9.01629 1.82623 9.01007 1.77386 8.99266C1.72149 8.97524 1.67314 8.94698 1.63196 8.90953C1.59078 8.87208 1.55767 8.82625 1.53488 8.77489C1.51218 8.72371 1.50028 8.66827 1.5 8.6121V7.34453C1.5003 7.28846 1.51218 7.23313 1.5348 7.18207C1.55751 7.13081 1.59052 7.08503 1.6316 7.04758C1.67267 7.01014 1.72089 6.98185 1.77313 6.96437C1.82537 6.94688 1.88058 6.94055 1.9353 6.94572L1.93721 6.94589C3.07749 7.0492 4.06357 7.1572 4.9171 7.26502L6.7529 7.49693L5.28374 6.37198C4.5833 5.83564 3.77869 5.19503 2.85771 4.43533L2.53954 4.82104M14.0177 9.50862L14.0647 9.01084C14.1194 9.01601 14.1746 9.00967 14.2269 8.99218C14.2791 8.9747 14.3273 8.94642 14.3684 8.90897C14.4095 8.87153 14.4425 8.82576 14.4652 8.77448C14.4878 8.72343 14.4997 8.66814 14.5 8.61212V7.34444C14.4997 7.28828 14.4878 7.23284 14.4651 7.18167C14.4423 7.1303 14.4092 7.08447 14.368 7.04702C14.3269 7.00957 14.2785 6.98131 14.2261 6.96389C14.1738 6.94648 14.1184 6.94026 14.0636 6.94559L14.0624 6.94571C12.7909 7.06603 11.7108 7.18594 10.7983 7.3125L8.90742 7.57479L10.427 6.41925C11.1386 5.87809 11.9412 5.22478 12.877 4.44832L12.8777 4.4477C12.9198 4.41291 12.9543 4.36949 12.9789 4.32014C13.0035 4.27079 13.0175 4.21667 13.02 4.16131C13.0225 4.10592 13.0135 4.05071 12.9934 3.99927C12.9734 3.94782 12.9429 3.90134 12.904 3.86277L12.9023 3.86108L12.0054 2.96201C12.0052 2.96185 12.005 2.96169 12.0049 2.96152C11.9652 2.9222 11.918 2.89168 11.8664 2.87174C11.8145 2.85172 11.7592 2.84277 11.7038 2.84538C11.6485 2.848 11.5942 2.86214 11.5443 2.88699C11.4947 2.91175 11.4505 2.94664 11.4146 2.9896C10.7141 3.8379 10.1174 4.58393 9.60758 5.24473L8.48964 6.69378L8.71553 4.8776C8.82051 4.03354 8.92797 3.05925 9.03072 1.93543C9.03555 1.87986 9.02885 1.82393 9.01108 1.7712C8.99325 1.7183 8.96471 1.66988 8.92742 1.62897C8.89013 1.58807 8.84492 1.55558 8.79476 1.53344C8.7446 1.51129 8.69051 1.49993 8.6359 1.5L8.63527 1.5L7.36343 1.5C7.30904 1.5003 7.25524 1.51193 7.2054 1.53423C7.15533 1.55664 7.11027 1.58937 7.07317 1.63048C7.03607 1.67159 7.00777 1.72018 6.99021 1.7732C6.97265 1.82623 6.96626 1.88241 6.97148 1.93814C7.09383 3.24246 7.21051 4.33917 7.34771 5.26161L7.63255 7.17657L6.45606 5.63901C5.87704 4.88228 5.17553 3.99975 4.32028 2.97454C4.28412 2.93165 4.2397 2.89686 4.18987 2.87221C4.13985 2.84747 4.08539 2.83344 4.02989 2.83092C3.9744 2.8284 3.91895 2.83743 3.86697 2.85751C3.81521 2.87751 3.76792 2.90808 3.72813 2.94744C3.72797 2.94761 3.7278 2.94777 3.72763 2.94794L2.8306 3.84464C2.8306 3.84464 2.83059 3.84465 2.83058 3.84466C2.7915 3.88373 2.76084 3.93076 2.74074 3.98279C2.72063 4.03483 2.71156 4.09061 2.71419 4.14651C2.71681 4.20239 2.73106 4.25703 2.75593 4.30688C2.78079 4.35671 2.81567 4.40056 2.85817 4.4357L2.53954 4.82104M14.0177 9.50862C13.1411 9.4241 12.3538 9.34286 11.6471 9.26123L15 8.6131C14.9995 8.7385 14.9731 8.86243 14.9224 8.97699C14.8716 9.09155 14.7977 9.19423 14.7052 9.27848C14.6128 9.36273 14.504 9.4267 14.3856 9.46633C14.2672 9.50595 14.1419 9.52036 14.0177 9.50862ZM2.53954 4.82104C3.1459 5.32121 3.70269 5.77052 4.21329 6.17306C4.5023 6.20624 4.77848 6.23956 5.04243 6.27291L4.97977 6.76897L4.67579 7.16595C4.46484 7.00443 4.2449 6.83383 4.01566 6.65379C3.39812 6.58402 2.72229 6.51497 1.98233 6.44793M2.53954 4.82104C2.44316 4.74133 2.36446 4.64222 2.30851 4.53008C2.25257 4.41794 2.22062 4.29526 2.21474 4.16996C2.20885 4.04465 2.22916 3.9195 2.27435 3.80256C2.31954 3.68563 2.3886 3.5795 2.4771 3.49103L1.98233 6.44793M1.98233 6.44793C1.8581 6.43619 1.73281 6.4506 1.61442 6.49022C1.49604 6.52985 1.38717 6.59382 1.29476 6.67807C1.20234 6.76233 1.12839 6.865 1.07764 6.97956C1.0269 7.09412 1.00045 7.21805 1 7.34345V8.6131L1.98233 6.44793ZM6.85315 5.33517C6.80708 5.0254 6.76337 4.69688 6.72107 4.34864C6.90773 4.58648 7.08388 4.81391 7.25025 5.03133L6.85315 5.33517ZM6.85315 5.33517C6.66277 5.08636 6.45936 4.82419 6.24182 4.54808C6.2793 4.84916 6.31801 5.13589 6.35859 5.40873L6.85315 5.33517Z" fill="#0E0E10" stroke="#0E0E10"/>
</svg>
