<svg width="192" height="192" viewBox="0 0 192 192" fill="none" xmlns="http://www.w3.org/2000/svg">
<path d="M103.986 116.394L105.118 117.852C108.911 122.735 113.369 128.252 118.58 134.527C119.123 135.172 119.792 135.698 120.546 136.071C121.3 136.444 122.123 136.656 122.963 136.695C123.802 136.733 124.64 136.596 125.425 136.293C126.209 135.99 126.922 135.527 127.52 134.934C127.521 134.934 127.521 134.933 127.522 134.933L134.064 128.375L134.065 128.374C134.66 127.78 135.125 127.068 135.428 126.282C135.732 125.497 135.869 124.656 135.829 123.814C135.79 122.972 135.575 122.147 135.199 121.394C134.822 120.641 134.293 119.976 133.645 119.441L133.644 119.44C126.65 113.624 120.496 108.774 115.181 104.716L113.692 103.578L115.55 103.823C122.366 104.718 130.409 105.579 139.891 106.494C140.726 106.572 141.569 106.476 142.365 106.209C143.161 105.943 143.894 105.512 144.516 104.945C145.138 104.378 145.635 103.687 145.977 102.916C146.319 102.145 146.497 101.311 146.5 100.467C146.5 100.466 146.5 100.466 146.5 100.465M103.986 116.394L139.826 84.6921C140.732 84.604 141.647 84.707 142.511 84.9945C143.376 85.282 144.171 85.7477 144.847 86.3618C145.522 86.9759 146.062 87.7249 146.433 88.5608C146.804 89.3968 146.997 90.3013 147 91.2166V100.467L146.5 100.465M103.986 116.394L104.227 118.224C105.049 124.442 105.853 131.611 106.64 139.872M103.986 116.394L106.64 139.872M146.5 100.465V91.2182M146.5 100.465V91.2182M106.64 139.872C106.719 140.713 106.622 141.561 106.356 142.362C106.089 143.164 105.659 143.9 105.093 144.524C104.526 145.148 103.837 145.646 103.068 145.986C102.3 146.326 101.469 146.501 100.629 146.5H100.628H91.3541L91.3533 146.5C90.5136 146.501 89.6828 146.326 88.9142 145.986C88.1456 145.646 87.4561 145.148 86.89 144.524C86.3238 143.9 85.8936 143.164 85.627 142.362C85.3606 141.562 85.2636 140.714 85.3422 139.873C86.3048 130.269 87.1264 122.137 88.0524 115.271L88.3068 113.385L87.1583 114.902C82.8768 120.558 77.7195 127.023 71.4231 134.617C70.8834 135.265 70.2156 135.794 69.4624 136.17C68.7088 136.546 67.886 136.76 67.0459 136.8C66.2058 136.84 65.3666 136.704 64.5814 136.401C63.7969 136.098 63.0832 135.635 62.4855 135.04C62.485 135.04 62.4844 135.039 62.4839 135.039L56.0121 128.499L56.0103 128.498C55.4167 127.904 54.9531 127.191 54.6491 126.407C54.3452 125.622 54.2079 124.782 54.2459 123.94C54.284 123.099 54.4966 122.275 54.8701 121.521C55.2435 120.767 55.7695 120.1 56.4141 119.563C63.3391 113.798 69.3887 108.966 74.633 104.925L76.0978 103.797L74.2638 104.033C67.865 104.859 60.6086 105.685 52.127 106.494L52.1261 106.494C51.2893 106.575 50.4447 106.48 49.6464 106.215C48.8481 105.949 48.1135 105.519 47.4898 104.952C46.866 104.384 46.3668 103.692 46.0241 102.92C45.6815 102.148 45.503 101.312 45.5 100.466V91.2175C45.5032 90.3732 45.6813 89.539 46.0228 88.7679C46.3645 87.9965 46.8624 87.3054 47.4844 86.7383C48.1063 86.1713 48.8389 85.7409 49.6352 85.4743C50.4316 85.2078 51.2744 85.1109 52.1099 85.1899L52.1119 85.19C60.4534 85.9458 67.6745 86.7365 73.9328 87.5271L75.7686 87.759L74.2994 86.6341C69.1605 82.6991 63.2681 78.0074 56.5348 72.4533C55.8867 71.9172 55.3573 71.2505 54.9809 70.4959C54.6044 69.7412 54.3893 68.9155 54.3497 68.0719C54.3101 67.2284 54.4468 66.386 54.7509 65.5989C55.0551 64.8118 55.5199 64.0977 56.1152 63.5026L62.6585 56.9617C62.6587 56.9616 62.6588 56.9614 62.659 56.9613C63.2571 56.3676 63.9708 55.9047 64.7552 55.6017C65.5397 55.2985 66.378 55.1618 67.2176 55.1999C68.0571 55.2381 68.8798 55.4503 69.634 55.8234C70.3879 56.1963 71.0571 56.722 71.5996 57.3674C77.8596 64.8714 82.9997 71.3374 87.2473 76.8887L88.4238 78.4262L88.139 76.5113C87.1261 69.7019 86.2697 61.6411 85.3774 52.1285C85.2988 51.29 85.3948 50.4443 85.6595 49.6452C85.9241 48.8462 86.3514 48.1115 86.914 47.488C87.4767 46.8645 88.1623 46.3658 88.927 46.0236C89.6915 45.6815 90.5184 45.5032 91.3551 45.5L100.628 45.5L100.629 45.5C101.466 45.499 102.294 45.6731 103.06 46.0113C103.826 46.3496 104.514 46.8447 105.079 47.4651C105.645 48.0855 106.076 48.8177 106.345 49.615C106.613 50.4124 106.714 51.2573 106.64 52.0959C105.888 60.3202 105.101 67.4544 104.332 73.639L104.106 75.4552L105.224 74.0061C108.965 69.1577 113.335 63.693 118.459 57.4889C118.999 56.8402 119.667 56.3114 120.42 55.9356C121.174 55.5598 121.997 55.3453 122.837 55.3056C123.677 55.2659 124.516 55.4019 125.301 55.705C126.086 56.008 126.8 56.4715 127.398 57.0663C127.398 57.0665 127.399 57.0667 127.399 57.0668L133.942 63.6252L133.944 63.6269C134.539 64.2179 135.004 64.928 135.309 65.7114C135.614 66.4949 135.752 67.334 135.714 68.1746C135.676 69.0152 135.463 69.8383 135.088 70.5905C134.714 71.3428 134.186 72.0074 133.54 72.5415L133.539 72.5421C126.716 78.2041 120.825 82.9995 115.585 86.9848L114.065 88.1403L115.956 87.878C122.666 86.9473 130.585 86.0688 139.873 85.1898L139.874 85.1897C140.711 85.1084 141.555 85.2035 142.354 85.4689C143.152 85.7344 143.886 86.1644 144.51 86.7317C145.134 87.299 145.633 87.991 145.976 88.7636C146.318 89.5356 146.497 90.3711 146.5 91.2166C146.5 91.2171 146.5 91.2177 146.5 91.2182M106.64 139.872L146.5 91.2182M87.0196 75.7701C87.0627 76.0685 87.1061 76.3646 87.1498 76.6584L87.6444 76.5848L88.0415 76.281C87.8612 76.0454 87.6793 75.8081 87.4958 75.5692C86.5451 68.9641 85.7281 61.2215 84.8796 52.1752C84.7945 51.2679 84.8985 50.3527 85.1848 49.488C85.4712 48.6234 85.9337 47.8281 86.5428 47.1531C87.152 46.478 87.8944 45.9379 88.7228 45.5672C89.5512 45.1965 90.4473 45.0033 91.3541 45L87.0196 75.7701ZM73.0137 86.908C73.241 87.0828 73.467 87.2561 73.6915 87.428L73.9954 87.031L74.0581 86.535C73.7775 86.4995 73.495 86.4641 73.2105 86.4286C68.2533 82.6154 62.6136 78.1157 56.2167 72.839L73.0137 86.908Z" fill="#0E0E10" stroke="#0E0E10"/>
</svg>
