<svg width="378" height="59" viewBox="0 0 378 59" fill="none" preserveAspectRatio="xMinYMin meet"
  xmlns="http://www.w3.org/2000/svg">
  <path d="M9.34 21.62V56.73H0V7.26001H9.53L38 42V7.26001H47.34V56.73H37.75L9.34 21.62Z" fill="#0E0E10" />
  <path
    d="M63.17 38C63.6422 41.4412 65.3697 44.5864 68.0204 46.8311C70.6712 49.0757 74.0581 50.2613 77.53 50.16C85.72 50.16 90.53 43.22 90.53 43.22L97.95 47.51C97.95 47.51 91.31 57.42 76.87 57.42C59.87 57.42 54.15 44.86 54.15 35.83C54.15 26.8 59.86 14.24 76.87 14.24C93.88 14.24 99.59 26.81 99.59 35.83C99.59 36.54 99.59 37.27 99.47 38H63.17ZM89.88 30.76C88.29 25.96 84.29 21.5 76.88 21.5C69.47 21.5 65.44 25.96 63.88 30.76H89.88Z"
    fill="#0E0E10" />
  <path
    d="M176.4 15.0601L157.4 56.6801H141.4L138.82 30.4701L126.82 56.6801H110.82L106.72 15.0601H116.46L119.72 48.0601H121L136.08 15.0601H147L150.26 48.0601H151.55L166.64 15.0601H176.4Z"
    fill="#0E0E10" />
  <path
    d="M215.64 20.13L210.85 27.87C209.576 26.3186 207.969 25.0748 206.147 24.2316C204.326 23.3883 202.337 22.9673 200.33 23C195.81 23 190.83 26.11 187.5 29.79V56.68H178V15.06H187.48V22.39C190.96 18.3 196.02 14.28 201.64 14.28C206.894 14.3154 211.923 16.4168 215.64 20.13Z"
    fill="#0E0E10" />
  <path
    d="M261.76 33.39V56.68H252.28V52.35C247.149 55.5969 241.221 57.3651 235.15 57.46C223.24 57.46 218.93 51.25 218.93 45.02C218.93 38.79 223.67 32.56 235.15 32.56C241.224 32.6639 247.152 34.4426 252.28 37.7V33.39C252.28 25.51 251.08 21.9 241.28 21.9C235.126 21.9941 229.096 23.6528 223.76 26.72L219.44 20.44C219.44 20.44 229.17 14.26 240.6 14.26C257.12 14.26 261.76 21.85 261.76 33.39ZM252.28 44.21C248.62 41.4 243.22 38.78 237.51 38.78C230.93 38.78 228.41 41.68 228.41 45.02C228.41 48.36 232.36 51.25 237.51 51.25C242.881 51.0837 248.057 49.2018 252.28 45.88V44.21Z"
    fill="#0E0E10" />
  <path
    d="M310.94 0.150024V56.68H301.46V49.54C297.74 54.1 290.86 57.46 284 57.46C272.85 57.46 268.11 46.67 268.11 35.87C268.11 25.07 276 14.28 287 14.28C293.3 14.28 298.48 19.1 301.47 23.28V0.150024H310.94ZM301.46 31.81C298.91 27.47 294.71 22.09 289.19 22.09C281.19 22.09 277.42 28.48 277.42 35.87C277.42 43.26 279.91 49.66 286.2 49.66C289.22 49.6388 292.189 48.8796 294.849 47.4487C297.508 46.0178 299.778 43.9585 301.46 41.45V31.81Z"
    fill="#0E0E10" />
  <path
    d="M326.69 38C327.164 41.442 328.894 44.5874 331.546 46.8318C334.199 49.0763 337.587 50.2616 341.06 50.16C349.24 50.16 354.06 43.22 354.06 43.22L361.47 47.51C361.47 47.51 354.83 57.42 340.39 57.42C323.39 57.42 317.67 44.86 317.67 35.83C317.67 26.8 323.39 14.24 340.39 14.24C357.39 14.24 363.1 26.85 363.1 35.87C363.105 36.5813 363.071 37.2923 363 38H326.69ZM353.4 30.8C351.81 26 347.82 21.54 340.4 21.54C332.98 21.54 328.97 26 327.4 30.8H353.4Z"
    fill="#0E0E10" />
  <path d="M367.46 56.73V46.35H378V56.73H367.46Z" fill="#0E0E10" />
  <path d="M167.01 55.29H101V58.16H167.01V55.29Z" fill="#0E0E10" />
</svg>
