<svg viewBox="0 0 1434 400" height="70%" fill="none" xmlns="http://www.w3.org/2000/svg">
  <path fill-rule="evenodd" clip-rule="evenodd"
    d="M561.257 0L661.394 154.923H617.986L561.257 67.2049L504.527 154.923H461.093L561.257 0ZM750.699 121.334H876.208V154.923H713.065V9.29066H750.699V121.334ZM1059.4 9.29066H896.257V42.9063H958.998V154.923H996.659V42.9063H1059.4V9.29066ZM1273.98 65.2991V98.9148C1273.98 136.254 1253.08 154.923 1211.29 154.923H1173.57C1131.73 154.941 1110.81 136.271 1110.81 98.9148V65.2991C1110.81 27.9601 1131.73 9.29066 1173.57 9.29066H1211.21C1253.05 9.3083 1273.98 27.9778 1273.98 65.2991ZM1211.21 121.334C1227.95 121.352 1236.32 113.879 1236.32 98.9148L1236.4 65.2991C1236.4 50.3706 1228.03 42.9063 1211.29 42.9063H1173.57C1156.84 42.9063 1148.47 50.3706 1148.47 65.2991V98.9148C1148.47 113.861 1156.84 121.334 1173.57 121.334H1211.21ZM500.448 244.839H462.788V390.471H500.448V244.839ZM564.408 235.31L689.918 328.401V244.839H727.552V400L602.069 306.882V390.471H564.408V235.31ZM954.681 244.839H791.511V278.454H954.681V244.839ZM829.172 390.471H791.511V300.847H954.681V334.463H829.172V390.471ZM1181.79 289.651C1181.79 259.776 1165.06 244.839 1131.6 244.839H1018.64V278.507H1131.6C1139.97 278.507 1144.15 282.266 1144.15 289.73C1144.15 297.194 1139.97 300.926 1131.6 300.926H1018.64V390.471H1056.28V334.463H1088.8L1145.08 390.471H1195.66L1138.99 334.224C1167.52 332.054 1181.79 317.196 1181.79 289.651ZM1276.86 390.471H1233.46L1333.59 235.521L1433.76 390.471H1390.32L1333.59 302.753L1276.86 390.471ZM0 390.948H386.46V7.75557H0V390.948ZM38.879 46.4268H347.607V352.276H38.879V46.4268ZM95.1846 103.547H291.301V140.471H95.1846V103.547ZM206.498 180.889H95.1846V217.814H206.498V180.889ZM95.1846 258.232H132.289V295.156H95.1846V258.232Z"
    fill="url(#gradient-logo-standard)" />
  <defs>
    <linearGradient id="gradient-logo-standard" x1="3088.09" y1="407.468" x2="-1873.01" y2="407.468"
      gradientUnits="userSpaceOnUse">
      <stop offset="0.0104167" stop-color="#DE0CDE" />
      <stop offset="1" stop-color="#1616C5" />
    </linearGradient>
  </defs>
</svg>
