<svg width="323" height="66" viewBox="0 0 323 66" fill="none" xmlns="http://www.w3.org/2000/svg">
<path d="M85.7365 29.2228C81.839 29.2228 79.3836 26.3921 79.3836 22.5758C79.3836 18.9563 81.4337 15.5971 85.7365 15.5971C87.0001 15.5884 88.2504 15.8573 89.4002 16.3856L88.4726 18.7512C87.6814 18.3112 86.7959 18.0723 85.8924 18.0573C83.2265 18.0573 82.3145 20.4781 82.3145 22.536C82.3145 25.2327 84.045 26.8098 86.0873 26.8098C86.9853 26.811 87.8669 26.5716 88.644 26.1161L89.4235 28.34C88.2699 28.892 87.0133 29.1933 85.7365 29.2228Z" fill="#414441"/>
<path d="M99.8531 28.8525L99.705 27.1806C99.5686 27.2281 99.4275 27.2595 99.2841 27.2755C98.9723 27.2755 98.9411 26.9835 98.9411 26.6367V22.1183C98.9411 19.2874 96.7429 18.7907 95.3866 18.7907C94.017 18.7205 92.6576 19.073 91.4891 19.8L92.3777 21.6375C93.0465 21.0627 93.8939 20.7442 94.7708 20.7384C96.1115 20.7384 96.5481 21.4006 96.5481 22.0946V22.7414C96.5481 23.0725 96.3142 23.0883 95.9089 23.0883C93.7653 23.0883 91.0058 23.6008 91.0058 26.2424C90.9396 27.7859 92.1228 29.0916 93.6483 29.1597H93.8744C95.0093 29.2025 96.0882 28.6625 96.7429 27.7246C96.8092 28.5067 97.4725 29.0978 98.2474 29.0654C98.7727 29.0549 99.2958 28.9865 99.8064 28.8603L99.8531 28.8525ZM96.5169 25.6036C96.5379 26.0317 96.3867 26.4503 96.096 26.7629C95.7358 27.127 95.2408 27.3217 94.7318 27.2989C94.0864 27.3254 93.5423 26.818 93.5166 26.1654C93.5158 26.1644 93.5158 26.1642 93.5158 26.1636V26.0687C93.5158 24.8939 94.8565 24.673 95.7452 24.673H96.5247L96.5169 25.6036Z" fill="#414441"/>
<path d="M100.983 28.9V19.1061H103.532V28.9157L100.983 28.9ZM102.27 17.8602C101.528 17.9257 100.874 17.3697 100.81 16.6191C100.746 15.8684 101.295 15.2076 102.037 15.1421C102.047 15.1414 102.058 15.1406 102.067 15.1398H102.27C103.012 15.0751 103.666 15.631 103.73 16.3809C103.794 17.1316 103.245 17.7932 102.503 17.8578C102.493 17.8586 102.482 17.8594 102.472 17.8602C102.405 17.8681 102.337 17.8681 102.27 17.8602Z" fill="#414441"/>
<path d="M108.147 29.2228C107.145 29.2077 106.164 28.9367 105.294 28.4343L106.074 26.5418C106.744 27.002 107.532 27.257 108.342 27.2755C109.012 27.2755 109.831 27.0386 109.831 26.2658C109.831 25.493 108.926 25.2725 108.396 25.0753L107.617 24.7602C106.362 24.2631 105.528 23.514 105.528 22.0786C105.528 20.2262 107.087 18.7512 109.34 18.7512C110.249 18.7512 111.145 18.9728 111.951 19.3978L111.171 21.2901C110.581 20.9195 109.902 20.7153 109.207 20.6987C108.17 20.6987 107.866 21.2353 107.866 21.6686C107.866 22.26 108.537 22.552 109.012 22.7175L109.862 23.0331C111.242 23.5457 112.2 24.3025 112.2 25.9347C112.208 27.8826 110.688 29.2228 108.147 29.2228Z" fill="#414441"/>
<path d="M116.308 29.2228C115.307 29.2077 114.325 28.9367 113.455 28.4343L114.235 26.5418C114.906 27.002 115.693 27.257 116.503 27.2755C117.174 27.2755 117.992 27.0386 117.992 26.2658C117.992 25.493 117.088 25.2725 116.558 25.0753L115.778 24.7602C114.523 24.2631 113.666 23.514 113.666 22.0786C113.666 20.2262 115.225 18.7512 117.478 18.7512C118.387 18.7512 119.283 18.9728 120.089 19.3978L119.309 21.2901C118.719 20.9195 118.04 20.7153 117.345 20.6987C116.308 20.6987 116.004 21.2353 116.004 21.6686C116.004 22.26 116.675 22.552 117.15 22.7175L118 23.0331C119.38 23.5457 120.338 24.3025 120.338 25.9347C120.377 27.8826 118.849 29.2228 116.308 29.2228Z" fill="#414441"/>
<path d="M130.636 23.3877C130.636 21.1327 129.529 18.7985 126.535 18.7985C123.542 18.7985 122.053 21.4955 122.053 24.0897C122.053 27.1415 123.963 29.2308 126.988 29.2308C128.178 29.2151 129.352 28.9468 130.433 28.4423L129.763 26.5344C129.043 26.9287 128.243 27.1499 127.424 27.1806C125.787 27.1806 124.54 26.2424 124.54 24.4996V24.4442H130.55C130.597 24.0974 130.628 23.7428 130.643 23.3877H130.636ZM128.243 22.7097H124.524C124.43 21.6428 125.208 20.7002 126.263 20.6044H126.434C127.437 20.5954 128.257 21.4111 128.266 22.4257C128.266 22.4257 128.266 22.4257 128.266 22.426C128.266 22.5212 128.258 22.6158 128.243 22.7097Z" fill="#414441"/>
<path d="M145.048 28.9074V15.3211H142.507V19.4925C141.955 19.0209 141.25 18.7733 140.527 18.7985C137.409 18.7985 136.279 21.6061 136.279 23.9003C136.279 26.195 137.277 29.2228 139.997 29.2228C141.322 29.2228 142.032 28.5057 142.702 27.496V28.9074H145.048ZM142.507 25.2327C142.56 25.704 142.393 26.1731 142.055 26.5026C141.745 26.8119 141.329 26.9896 140.894 26.9992C139.202 26.9992 138.914 24.8859 138.914 23.5691C138.914 22.2523 139.296 20.6518 140.855 20.6518C142.086 20.6518 142.507 21.1801 142.507 21.9212V25.2327Z" fill="#414441"/>
<path d="M155.447 23.3877C155.447 21.1327 154.34 18.7985 151.347 18.7985C148.354 18.7985 146.865 21.4955 146.865 24.0897C146.865 27.1415 148.774 29.2308 151.799 29.2308C152.989 29.2151 154.163 28.9468 155.244 28.4423L154.574 26.5344C153.854 26.9287 153.054 27.1499 152.235 27.1806C150.598 27.1806 149.351 26.2424 149.351 24.4996V24.4442H155.361C155.408 24.0974 155.439 23.7428 155.455 23.3877H155.447ZM153.054 22.7097H149.336C149.241 21.6425 150.02 20.7002 151.075 20.6048C151.077 20.6048 151.079 20.6044 151.082 20.6044H151.253C152.256 20.5954 153.077 21.4111 153.085 22.4257C153.085 22.4257 153.085 22.4257 153.085 22.426C153.083 22.5212 153.072 22.6161 153.054 22.7097Z" fill="#414441"/>
<path d="M169.992 28.9074V15.3211H167.451V19.4925C166.899 19.0209 166.194 18.7733 165.471 18.7985C162.353 18.7985 161.223 21.6061 161.223 23.9003C161.223 26.195 162.221 29.2228 164.941 29.2228C166.266 29.2228 166.976 28.5057 167.646 27.496V28.9074H169.992ZM167.451 25.2327C167.503 25.704 167.337 26.1731 166.999 26.5026C166.689 26.8119 166.273 26.9896 165.838 26.9992C164.146 26.9992 163.858 24.8859 163.858 23.5691C163.858 22.2523 164.24 20.6518 165.799 20.6518C167.03 20.6518 167.451 21.1801 167.451 21.9212V25.2327Z" fill="#414441"/>
<path d="M180.251 23.3803C180.251 21.1246 179.144 18.7907 176.15 18.7907C173.157 18.7907 171.668 21.4872 171.668 24.0816C171.668 27.1332 173.578 29.2228 176.603 29.2228C177.793 29.2074 178.967 28.9388 180.048 28.4343L179.378 26.5261C178.658 26.9206 177.858 27.1421 177.039 27.1729C175.402 27.1729 174.155 26.2344 174.155 24.4917V24.4442H180.165C180.219 24.0943 180.252 23.7416 180.266 23.3877L180.251 23.3803ZM179.923 15.3211H177.016L174.997 18.1362H176.961L179.923 15.3211ZM177.865 22.7097H174.147C174.053 21.6428 174.831 20.7002 175.885 20.6044H176.026C177.027 20.5822 177.859 21.3815 177.889 22.3946C177.889 22.5 177.881 22.6053 177.865 22.7097Z" fill="#414441"/>
<path d="M190.86 23.8925C190.86 21.5269 189.807 18.7907 187.266 18.7907C186.07 18.7962 184.977 19.4783 184.437 20.557V19.1061H182.098V32.582H184.6V28.5292C185.161 28.9973 185.87 29.2437 186.596 29.2228C189.714 29.2228 190.836 26.0687 190.836 23.9003L190.86 23.8925ZM188.209 24.2631C188.209 25.6036 187.812 27.37 186.175 27.37C185.013 27.37 184.616 26.7786 184.616 26.1004V22.7571C184.554 22.2835 184.74 21.8115 185.107 21.5112C185.412 21.1946 185.831 21.0157 186.268 21.0147C187.882 21.0147 188.209 22.9463 188.209 24.2631Z" fill="#414441"/>
<path d="M201.866 24.0342C201.866 21.2432 200.447 18.767 197.275 18.767C194.102 18.767 192.598 21.2275 192.598 24.0031C192.598 26.7786 194.017 29.2702 197.189 29.2702C200.362 29.2702 201.866 26.8098 201.866 24.0265V24.0342ZM200.744 18.1756L198.631 15.329H196.129L193.954 18.1362H195.911L197.306 16.6853L198.756 18.1362L200.744 18.1756ZM199.185 24.0499C199.185 25.4299 198.764 27.204 197.15 27.204C195.537 27.204 195.209 25.3119 195.209 23.932C195.209 22.552 195.63 20.7778 197.244 20.7778C198.857 20.7778 199.185 22.67 199.185 24.0499Z" fill="#414441"/>
<path d="M207.026 29.2228C205.64 29.3845 204.388 28.3791 204.228 26.9773C204.228 26.977 204.228 26.9761 204.228 26.9758C204.205 26.7818 204.205 26.5858 204.228 26.3921V21.1484H202.575V19.3111H204.267V17.3476L206.769 16.5591V19.3899H208.983V21.2275H206.769V26.1636C206.769 27.1332 207.299 27.3543 207.876 27.3543C208.254 27.3531 208.629 27.2838 208.983 27.1492L209.24 29.0414C208.511 29.1886 207.769 29.2493 207.026 29.2228Z" fill="#414441"/>
<path d="M222.936 23.3877C222.936 21.1327 221.829 18.7985 218.836 18.7985C215.842 18.7985 214.354 21.4955 214.354 24.0897C214.354 27.1415 216.263 29.2308 219.288 29.2308C220.479 29.2151 221.652 28.9468 222.733 28.4423L222.063 26.5344C221.343 26.9287 220.543 27.1499 219.724 27.1806C218.087 27.1806 216.84 26.2424 216.84 24.4996V24.4442H222.85C222.897 24.0974 222.928 23.7428 222.944 23.3877H222.936ZM220.543 22.7097H216.825C216.73 21.6428 217.508 20.7002 218.563 20.6044H218.734C219.738 20.5954 220.558 21.4111 220.566 22.4257C220.566 22.4257 220.566 22.4257 220.566 22.426C220.566 22.5212 220.558 22.6158 220.543 22.7097Z" fill="#414441"/>
<path d="M228.314 29.2228C226.929 29.3845 225.676 28.3791 225.516 26.9773C225.516 26.977 225.516 26.9761 225.516 26.9758C225.493 26.7818 225.493 26.5858 225.516 26.3921V21.1484H223.864V19.3111H225.555V17.3476L228.057 16.5591V19.3899H230.271V21.2275H228.057V26.1636C228.057 27.1332 228.58 27.3543 229.164 27.3543C229.542 27.3531 229.917 27.2838 230.271 27.1492L230.528 29.0414C229.8 29.1886 229.057 29.2493 228.314 29.2228Z" fill="#414441"/>
<path d="M245.12 23.8925C245.12 21.5269 244.068 18.7907 241.527 18.7907C240.331 18.7962 239.238 19.4783 238.697 20.557V19.1061H236.359V32.582H238.9V28.5292C239.46 28.9973 240.169 29.2437 240.896 29.2228C244.014 29.2228 245.12 26.0687 245.12 23.9003V23.8925ZM242.47 24.2631C242.47 25.6036 242.073 27.37 240.436 27.37C239.274 27.37 238.877 26.7786 238.877 26.1004V22.7571C238.815 22.2835 239.001 21.8115 239.368 21.5112C239.673 21.1946 240.092 21.0157 240.529 21.0147C242.151 21.0147 242.47 22.9463 242.47 24.2631Z" fill="#414441"/>
<path d="M247.046 28.9157V15.3211H249.587V28.9157H247.046Z" fill="#414441"/>
<path d="M260.515 28.8525L260.367 27.1806C260.231 27.2281 260.09 27.2595 259.946 27.2755C259.635 27.2755 259.603 26.9835 259.603 26.6367V22.1183C259.603 19.2874 257.405 18.7907 256.049 18.7907C254.679 18.7205 253.32 19.073 252.151 19.8L253.04 21.6375C253.709 21.0627 254.556 20.7442 255.433 20.7384C256.774 20.7384 257.21 21.4006 257.21 22.0946V22.7414C257.21 23.0725 256.977 23.0883 256.571 23.0883C254.428 23.0883 251.668 23.6008 251.668 26.2424C251.603 27.7859 252.785 29.0916 254.311 29.1597H254.537C255.671 29.2025 256.75 28.6625 257.405 27.7246C257.472 28.5067 258.135 29.0978 258.91 29.0654C259.451 29.0561 259.989 28.9874 260.515 28.8603V28.8525ZM257.179 25.6036C257.2 26.0317 257.049 26.4503 256.758 26.7629C256.398 27.127 255.903 27.3217 255.394 27.2989C254.749 27.3254 254.205 26.818 254.178 26.1654C254.178 26.1644 254.178 26.1642 254.178 26.1636V26.0687C254.178 24.8939 255.519 24.673 256.408 24.673H257.187L257.179 25.6036Z" fill="#414441"/>
<path d="M266.253 29.2228C263.275 29.2228 261.576 26.9992 261.576 24.1371C261.576 21.4561 262.971 18.7907 266.253 18.7907C267.282 18.7741 268.299 19.0115 269.215 19.4846L268.31 21.6295C267.757 21.2319 267.103 21.0018 266.424 20.9672C264.951 20.9672 264.226 22.3472 264.226 24.074C264.226 25.9664 265.426 27.0861 266.564 27.0861C267.241 27.0602 267.899 26.8563 268.474 26.4947L269.199 28.4028C268.308 28.9394 267.29 29.2228 266.253 29.2228Z" fill="#414441"/>
<path d="M278.826 23.3877C278.826 21.1327 277.719 18.7985 274.726 18.7985C271.732 18.7985 270.244 21.4955 270.244 24.0897C270.244 27.1415 272.146 29.2308 275.178 29.2308C276.368 29.2151 277.542 28.9468 278.623 28.4423L277.953 26.5344C277.233 26.9287 276.433 27.1499 275.614 27.1806C273.977 27.1806 272.73 26.2424 272.73 24.4996V24.4442H278.74C278.787 24.0974 278.818 23.7428 278.834 23.3877H278.826ZM276.433 22.7097H272.683C272.589 21.6428 273.367 20.7002 274.422 20.6044H274.585C275.588 20.5733 276.426 21.3707 276.456 22.3848C276.456 22.3851 276.456 22.386 276.456 22.3863C276.456 22.4944 276.448 22.6028 276.433 22.7097Z" fill="#414441"/>
<path d="M291.68 28.9157V22.7097C291.68 21.716 291.337 21.0381 290.37 21.0381C289.959 21.0298 289.563 21.1955 289.279 21.4955C288.906 21.8559 288.724 22.3733 288.788 22.8912V28.9157H286.247V22.7097C286.247 21.716 285.904 21.0381 284.937 21.0381C284.051 21.0553 283.345 21.7961 283.363 22.6934C283.364 22.7596 283.369 22.8256 283.378 22.8912V28.9157H280.837V19.1061H283.176V20.4073C283.711 19.4152 284.748 18.8064 285.865 18.8301C287.029 18.7615 288.095 19.483 288.476 20.5964C289.029 19.5358 290.105 18.86 291.29 18.8301C293.379 18.8301 294.213 20.2967 294.213 22.2049V28.9471L291.68 28.9157Z" fill="#414441"/>
<path d="M304.768 23.3877C304.768 21.1327 303.661 18.7985 300.667 18.7985C297.674 18.7985 296.185 21.4955 296.185 24.0897C296.185 27.1415 298.087 29.2308 301.12 29.2308C302.31 29.2151 303.484 28.9468 304.565 28.4423L303.863 26.5418C303.143 26.9366 302.343 27.1578 301.525 27.1883C299.888 27.1883 298.641 26.2501 298.641 24.5073V24.4442H304.643C304.704 24.0952 304.746 23.7419 304.768 23.3877ZM302.375 22.7097H298.656C298.562 21.6428 299.34 20.7002 300.395 20.6044H300.558C301.557 20.5869 302.381 21.3914 302.398 22.4017V22.402C302.398 22.5049 302.39 22.6078 302.375 22.7097Z" fill="#414441"/>
<path d="M312.524 28.9157V22.7097C312.524 21.716 312.181 21.0381 311.074 21.0381C310.619 21.0396 310.18 21.2109 309.842 21.5189C309.445 21.8442 309.247 22.3564 309.32 22.8671V28.8917H306.779V19.1061H309.117V20.5015C309.715 19.4388 310.832 18.7852 312.04 18.7907C314.2 18.7907 315.057 20.2576 315.057 22.1657V28.9074L312.524 28.9157Z" fill="#414441"/>
<path d="M320.817 29.2228C319.432 29.3845 318.179 28.3791 318.019 26.9773C318.019 26.977 318.019 26.9761 318.019 26.9758C317.996 26.7818 317.996 26.5858 318.019 26.3921V21.1484H316.335V19.3111H318.027V17.3476L320.529 16.5591V19.3899H322.743V21.2275H320.529V26.1636C320.529 27.1332 321.059 27.3543 321.636 27.3543C322.014 27.3531 322.389 27.2838 322.743 27.1492L323 29.0414C322.282 29.1843 321.549 29.2453 320.817 29.2228Z" fill="#414441"/>
<path d="M88.0672 50.9862V37.3767H85.5104V41.5479C84.9593 41.0754 84.2531 40.8283 83.5305 40.8536C80.4125 40.8536 79.2822 43.6609 79.2822 45.9557C79.2822 48.25 80.2722 51.2545 83.0004 51.2545C84.3256 51.2545 85.0349 50.5368 85.7053 49.5275V50.9391L88.0672 50.9862ZM85.526 47.3119C85.5782 47.7834 85.4114 48.2516 85.0739 48.5812C84.7637 48.8904 84.3482 49.0685 83.9125 49.078C82.2209 49.078 81.9325 46.9647 81.9325 45.6403C81.9325 44.3154 82.3145 42.7227 83.8735 42.7227C85.1051 42.7227 85.526 43.2589 85.526 43.992V47.3119Z" fill="#414441"/>
<path d="M95.6829 50.9628V49.7563C95.1092 50.6985 94.0881 51.2671 92.9936 51.2545C90.9046 51.2545 90.0316 49.7877 90.0316 47.8795V41.1613H92.5727V47.367C92.5727 48.3607 92.9547 49.0544 93.9135 49.0544C94.8005 49.0371 95.5052 48.2959 95.488 47.3993C95.4873 47.3331 95.4818 47.2669 95.4725 47.2013V41.1613H98.076V50.9628H95.6829Z" fill="#414441"/>
<path d="M116.246 44.4809C116.246 39.3794 113.487 37.6521 110.291 37.6521C107.547 37.6521 104.304 39.4345 104.304 44.4809C104.304 49.5275 107.064 51.3096 110.259 51.3096H110.548C111.113 52.1943 111.724 53.0468 112.38 53.8644L115.209 53.3518C114.362 52.538 113.563 51.6746 112.816 50.7657C114.687 49.8983 116.246 47.9741 116.246 44.4809ZM113.323 44.4809C113.323 46.9019 112.614 48.9835 110.275 48.9835C107.937 48.9835 107.227 46.9095 107.227 44.4809C107.227 42.0521 107.937 39.9865 110.275 39.9865C112.614 39.9865 113.323 42.0604 113.323 44.4809Z" fill="#414441"/>
<path d="M123.885 50.9628V49.7563C123.311 50.6985 122.29 51.2671 121.196 51.2545C119.107 51.2545 118.234 49.7877 118.234 47.8795V41.1613H120.775V47.367C120.775 48.3607 121.157 49.0544 122.116 49.0544C123.003 49.0371 123.707 48.2959 123.691 47.3993C123.689 47.3331 123.684 47.2669 123.675 47.2013V41.1613H126.216V50.9628H123.885Z" fill="#414441"/>
<path d="M136.7 45.4351C136.7 43.18 135.593 40.8459 132.6 40.8459C129.607 40.8459 128.118 43.5426 128.118 46.1368C128.118 49.1886 130.028 51.2782 133.052 51.2782C134.242 51.2631 135.416 50.9942 136.497 50.4897L135.827 48.5812C135.107 48.9733 134.306 49.1923 133.489 49.22C131.852 49.22 130.604 48.2818 130.604 46.539H136.614C136.663 46.1777 136.691 45.8151 136.7 45.4508V45.4351ZM136.373 37.3767H133.465L131.438 40.2148H133.395L136.373 37.3767ZM134.307 44.7571H130.581C130.487 43.6901 131.265 42.7476 132.319 42.6518H132.491C133.485 42.6296 134.309 43.4274 134.33 44.4331C134.333 44.5446 134.325 44.6554 134.307 44.7648V44.7571Z" fill="#414441"/>
<path d="M147.574 45.9557C147.574 43.5901 146.522 40.8536 143.981 40.8536C142.886 40.861 141.88 41.4635 141.346 42.4307V37.3767H138.789V50.9628H141.26V50.5211C141.836 50.9871 142.549 51.2459 143.287 51.2545C146.405 51.2545 147.574 48.1555 147.574 45.9557ZM144.924 46.3419C144.924 47.6824 144.526 49.496 142.889 49.496C141.728 49.496 141.33 48.8889 141.33 48.2106V44.8517C141.268 44.3712 141.453 43.8919 141.821 43.582C142.133 43.2648 142.556 43.0855 142.998 43.0852C144.612 43.0852 144.924 45.0174 144.924 46.3419Z" fill="#414441"/>
<path d="M157.941 45.4351C157.941 43.18 156.834 40.8459 153.841 40.8459C150.848 40.8459 149.359 43.5426 149.359 46.1368C149.359 49.1886 151.269 51.2782 154.293 51.2782C155.484 51.2631 156.658 50.9942 157.739 50.4897L157.068 48.5812C156.348 48.9733 155.547 49.1923 154.73 49.22C153.093 49.22 151.846 48.2818 151.846 46.539H157.856C157.902 46.1762 157.934 45.8136 157.949 45.4508L157.941 45.4351ZM155.548 44.7571H151.861C151.767 43.6901 152.545 42.7476 153.6 42.6518H153.771C154.774 42.6601 155.58 43.4899 155.572 44.5045C155.572 44.5045 155.572 44.5045 155.572 44.5048C155.571 44.5893 155.564 44.674 155.548 44.7571Z" fill="#414441"/>
<path d="M164.622 51.2545C161.644 51.2545 159.945 49.0309 159.945 46.1685C159.945 43.4878 161.34 40.8222 164.622 40.8222C165.651 40.8052 166.668 41.0437 167.584 41.5165L166.672 43.6923C166.118 43.2947 165.464 43.0649 164.785 43.03C163.312 43.03 162.587 44.41 162.587 46.1368C162.587 48.0292 163.788 49.1492 164.926 49.1492C165.602 49.123 166.26 48.9188 166.835 48.5578L167.56 50.466C166.669 50.9917 165.654 51.2647 164.622 51.2545Z" fill="#414441"/>
<path d="M32.6222 43.3141V44.7177C23.1827 44.1574 15.5512 38.6377 15.5512 32.5663C15.5512 26.4947 23.1982 21.992 32.6222 22.5992V21.1801C42.0463 21.7872 49.6857 27.2281 49.6857 33.3311C49.6857 39.4345 42.0386 43.9212 32.6147 43.3141H32.6222ZM32.6222 53.2178V48.2975C17.4452 47.3119 5.13736 38.5669 5.13736 28.7343C5.13736 18.9011 17.4376 11.7097 32.6064 12.6796V17.6C20.4545 16.8193 10.5938 22.5834 10.5938 30.4611C10.5938 38.3383 20.4545 45.3643 32.6147 46.1447V48.2975C44.7745 49.086 54.6275 43.3141 54.6275 35.4368C54.6275 27.5592 44.7669 20.5015 32.6064 19.7132V17.6C47.7756 18.5699 60.0683 27.3304 60.0761 37.1712C60.0839 47.0121 47.7835 54.1877 32.6147 53.2178H32.6222ZM32.6222 -3.22891e-06C14.6055 -3.22891e-06 0 14.7747 0 33C0 51.2252 14.6055 66 32.6222 66C50.639 66 65.2442 51.2252 65.2442 33C65.2442 14.7747 50.639 -3.22891e-06 32.6222 -3.22891e-06Z" fill="#8F1736"/>
<path d="M32.6147 38.7326C39.4894 39.1743 45.0866 35.9176 45.0866 31.4544C45.0866 26.9912 39.4894 23.0331 32.6147 22.5918V27.1649C25.7393 26.7232 20.1427 29.9879 20.1427 34.4431C20.1427 38.898 25.7393 42.8646 32.6147 43.3064V38.7326Z" fill="#8F1736"/>
</svg>
