<svg width="104" height="36" viewBox="0 0 104 36" fill="none" xmlns="http://www.w3.org/2000/svg">
  <path
    d="M20.0404 21.4438C21.9599 21.4438 23.516 19.8878 23.516 17.9682C23.516 16.0487 21.9599 14.4927 20.0404 14.4927C18.1209 14.4927 16.5648 16.0487 16.5648 17.9682C16.5648 19.8878 18.1209 21.4438 20.0404 21.4438Z"
    fill="#00D8FF" />
  <path fill-rule="evenodd" clip-rule="evenodd"
    d="M20.0405 10.9016C24.7069 10.9016 29.0419 11.5712 32.3105 12.6964C36.2486 14.0523 38.6699 16.1073 38.6699 17.9682C38.6699 19.9073 36.1038 22.0905 31.8748 23.4917C28.6775 24.551 24.4701 25.104 20.0405 25.104C15.4989 25.104 11.1983 24.585 7.96498 23.4801C3.87427 22.0819 1.4104 19.8704 1.4104 17.9682C1.4104 16.1224 3.72227 14.0832 7.60507 12.7295C10.8858 11.5857 15.3279 10.9016 20.0399 10.9016H20.0405Z"
    stroke="#00D8FF" stroke-width="1.66272" />
  <path fill-rule="evenodd" clip-rule="evenodd"
    d="M13.8888 14.4553C16.22 10.4129 18.9656 6.99216 21.5733 4.72282C24.7152 1.98862 27.7051 0.917826 29.317 1.84736C30.9969 2.8161 31.6062 6.12983 30.7073 10.4932C30.0283 13.7922 28.4048 17.713 26.1919 21.5503C23.9229 25.4846 21.3249 28.9508 18.7528 31.1991C15.498 34.0443 12.3513 35.0739 10.7035 34.1236C9.10451 33.2022 8.49304 30.1802 9.26011 26.1402C9.90823 22.7268 11.5347 18.5371 13.888 14.4552L13.8888 14.4553Z"
    stroke="#00D8FF" stroke-width="1.66272" />
  <path fill-rule="evenodd" clip-rule="evenodd"
    d="M13.8946 21.5608C11.5568 17.523 9.96507 13.4351 9.30067 10.0426C8.50091 5.95509 9.06637 2.82987 10.6769 1.89763C12.3551 0.926051 15.5303 2.0531 18.8616 5.01108C21.3803 7.24744 23.9667 10.6115 26.1861 14.4451C28.4615 18.3756 30.1669 22.3576 30.8303 25.7088C31.6698 29.9497 30.9904 33.19 29.3441 34.143C27.7467 35.0677 24.8235 34.0887 21.7066 31.4064C19.0731 29.1403 16.2556 25.6386 13.8946 21.5607V21.5608Z"
    stroke="#00D8FF" stroke-width="1.66272" />
  <path fill-rule="evenodd" clip-rule="evenodd"
    d="M58.62 26.8479L54.36 20.4119C56.513 20.2219 58.453 18.6619 58.453 15.8119C58.453 12.9119 56.395 11.0559 53.508 11.0559H47.168V26.8359H49.132V20.5659H52.279L56.301 26.8359L58.62 26.8479ZM53.273 18.8509H49.133V12.8179H53.273C55.143 12.8179 56.42 14.0479 56.42 15.8229C56.42 17.5979 55.142 18.8529 53.273 18.8529V18.8509ZM65.931 27.1309C67.801 27.1309 69.338 26.5159 70.474 25.3809L69.622 24.2209C68.722 25.1439 67.398 25.6639 66.097 25.6639C63.637 25.6639 62.122 23.8659 61.98 21.7139H71.23V21.2639C71.23 17.8339 69.195 15.1359 65.74 15.1359C62.475 15.1359 60.11 17.8099 60.11 21.1219C60.11 24.6949 62.547 27.1219 65.93 27.1219L65.931 27.1309ZM69.481 20.4109H61.981C62.076 18.6609 63.281 16.6009 65.719 16.6009C68.322 16.6009 69.457 18.7069 69.481 20.4109ZM83.015 26.8469V18.9919C83.015 16.2239 81.005 15.1349 78.591 15.1349C76.721 15.1349 75.255 15.7499 74.025 17.0279L74.853 18.2579C75.87 17.1699 76.983 16.6729 78.355 16.6729C80.011 16.6729 81.242 17.5479 81.242 19.0859V21.1439C80.319 20.0789 79.018 19.5819 77.456 19.5819C75.516 19.5819 73.456 20.7889 73.456 23.3439C73.456 25.8279 75.514 27.1299 77.456 27.1299C78.994 27.1299 80.296 26.5859 81.242 25.5449V26.8449L83.015 26.8469ZM78.095 25.8529C76.439 25.8529 75.279 24.8129 75.279 23.3689C75.279 21.9019 76.439 20.8609 78.095 20.8609C79.349 20.8609 80.555 21.3339 81.242 22.2809V24.4339C80.556 25.3799 79.349 25.8539 78.095 25.8539V25.8529ZM91.595 27.1309C93.677 27.1309 94.907 26.2789 95.783 25.1439L94.6 24.0559C93.843 25.0729 92.873 25.5459 91.7 25.5459C89.263 25.5459 87.75 23.6529 87.75 21.1219C87.75 18.5909 89.264 16.7219 91.7 16.7219C92.883 16.7219 93.853 17.1719 94.6 18.2119L95.783 17.1239C94.908 15.9879 93.677 15.1369 91.595 15.1369C88.188 15.1369 85.893 17.7399 85.893 21.1229C85.893 24.5299 88.188 27.1229 91.595 27.1229V27.1309ZM101.155 27.1309C102.195 27.1309 102.835 26.8229 103.285 26.3979L102.765 25.0729C102.528 25.3329 102.065 25.5459 101.558 25.5459C100.778 25.5459 100.398 24.9309 100.398 24.0789V16.9809H102.718V15.4199H100.398V12.2969H98.623V15.4199H96.73V16.9819H98.623V24.4589C98.623 26.1629 99.475 27.1329 101.155 27.1329V27.1309Z"
    fill="#00D8FF" />
</svg>
