<svg width="22" height="22" viewBox="0 0 22 22" fill="none" xmlns="http://www.w3.org/2000/svg">
<path fill-rule="evenodd" clip-rule="evenodd" d="M4.27777 11.3055C4.27777 10.7993 4.57874 10.3889 4.94999 10.3889H17.05C17.4213 10.3889 17.7222 10.7993 17.7222 11.3055C17.7222 11.8118 17.4213 12.2222 17.05 12.2222H4.94999C4.57874 12.2222 4.27777 11.8118 4.27777 11.3055Z" fill="#151516"/>
<path fill-rule="evenodd" clip-rule="evenodd" d="M11 18.0278C10.4937 18.0278 10.0833 17.7268 10.0833 17.3555L10.0833 5.25555C10.0833 4.88429 10.4937 4.58333 11 4.58333C11.5062 4.58333 11.9166 4.88429 11.9166 5.25555L11.9166 17.3555C11.9166 17.7268 11.5062 18.0278 11 18.0278Z" fill="#151516"/>
</svg>
