<svg width="22" height="22" viewBox="0 0 22 22" fill="none" xmlns="http://www.w3.org/2000/svg">
<path fill-rule="evenodd" clip-rule="evenodd" d="M5.36793 3.31594C6.59102 2.4987 8.02898 2.0625 9.49997 2.0625V2.75L9.50001 2.0625C11.4725 2.06263 13.3642 2.84625 14.7589 4.24101C16.1537 5.63577 16.9373 7.52743 16.9374 9.49992V9.49996C16.9374 10.971 16.5012 12.4089 15.684 13.632C14.8668 14.8551 13.7052 15.8084 12.3462 16.3713C10.9871 16.9342 9.49172 17.0815 8.04899 16.7945C6.60626 16.5075 5.28103 15.7992 4.24089 14.759C3.20074 13.7189 2.49239 12.3937 2.20541 10.9509C1.91844 9.50821 2.06572 8.01279 2.62865 6.65377C3.19157 5.29475 4.14485 4.13318 5.36793 3.31594ZM9.49997 3.4375C11.1078 3.43761 12.6497 4.07637 13.7867 5.21328C14.9236 6.35019 15.5623 7.89213 15.5624 9.49996M9.49992 3.4375C8.3009 3.43751 7.1288 3.79307 6.13184 4.45921C5.13488 5.12536 4.35784 6.07219 3.89898 7.17996C3.44013 8.28773 3.32007 9.50669 3.55399 10.6827C3.78791 11.8587 4.36531 12.9389 5.21316 13.7868C6.06101 14.6346 7.14124 15.212 8.31724 15.4459C9.49324 15.6799 10.7122 15.5598 11.82 15.1009C12.9277 14.6421 13.8746 13.8651 14.5407 12.8681C15.2069 11.8711 15.5624 10.699 15.5624 9.5" fill="#151516"/>
<path fill-rule="evenodd" clip-rule="evenodd" d="M14.0498 14.0498C14.3182 13.7813 14.7535 13.7813 15.022 14.0498L19.7361 18.7639C20.0046 19.0323 20.0046 19.4676 19.7361 19.7361C19.4676 20.0046 19.0323 20.0046 18.7639 19.7361L14.0498 15.022C13.7813 14.7535 13.7813 14.3182 14.0498 14.0498Z" fill="#151516"/>
</svg>
