<svg width="134" height="48" viewBox="0 0 134 48" fill="none" xmlns="http://www.w3.org/2000/svg">
<path d="M43.694 0.000732422L28.6308 25.3103L13.1608 0.000732422H0V47.4985H14.5876V26.5996L24.9009 43.2239H31.9569L42.2687 25.8533L42.4048 47.4985H56.9925L56.8564 0.000732422H43.694Z" fill="white"/>
<path d="M64.7268 47.4978H80.7397V0H64.7268V47.4978Z" fill="white"/>
<path fill-rule="evenodd" clip-rule="evenodd" d="M108.828 35.5565H104.485V47.4979H88.4724V0.00012207H111.338C115.725 0.00012207 119.548 0.725046 122.804 2.17183C126.062 3.62015 128.571 5.7001 130.336 8.41474C132.099 11.1278 132.982 14.2952 132.982 17.9152C132.982 21.3074 132.212 24.2713 130.675 26.8024C129.137 29.3366 126.92 31.3492 124.026 32.8419L134 47.4979H116.901L108.828 35.5565ZM110.321 12.3489H104.485V23.4758H110.321C112.491 23.4758 114.12 22.991 115.205 22.0184C116.291 21.0458 116.834 19.6771 116.834 17.9139C116.834 16.1491 116.291 14.7804 115.205 13.8078C114.12 12.8352 112.491 12.3489 110.321 12.3489Z" fill="white"/>
</svg>
