<svg width="200" height="200" viewBox="0 0 200 200" fill="none" xmlns="http://www.w3.org/2000/svg">
<rect width="200" height="200" fill="#0E0E11"/>
<path d="M169.322 112.457V137.925H143.9V146.62H178V112.457H169.322Z" fill="white"/>
<path d="M23 55V89.1633H31.6781V63.693H57.1V55H23Z" fill="white"/>
<path d="M84.7966 84.5052L73.6453 102.709L62.1929 84.5052H52.45V118.668H63.2492V103.637L70.8841 115.594H76.1077L83.7415 103.1L83.8422 118.668H94.6414L94.5407 84.5052H84.7966Z" fill="white"/>
<path d="M100.367 118.668H112.221V84.5047H100.367V118.668Z" fill="white"/>
<path fill-rule="evenodd" clip-rule="evenodd" d="M133.016 110.079H129.8V118.668H117.946V84.5048H134.873C138.121 84.5048 140.952 85.0262 143.362 86.0668C145.773 87.1085 147.631 88.6045 148.937 90.557C150.243 92.5084 150.896 94.7865 150.896 97.3902C150.896 99.83 150.327 101.962 149.189 103.782C148.05 105.605 146.408 107.053 144.266 108.126L151.65 118.668H138.992L133.016 110.079ZM134.12 93.3867H129.8V101.39H134.12C135.727 101.39 136.933 101.041 137.736 100.341C138.54 99.6419 138.942 98.6575 138.942 97.3893C138.942 96.12 138.54 95.1355 137.736 94.436C136.933 93.7364 135.727 93.3867 134.12 93.3867Z" fill="white"/>
</svg>
