<svg width="55" height="55" viewBox="0 0 55 55" fill="none" xmlns="http://www.w3.org/2000/svg">
<path fill-rule="evenodd" clip-rule="evenodd" d="M9.82411 42.1697C10.4211 41.8416 11.094 41.6669 11.794 41.6669C12.8896 41.6669 13.9196 42.0934 14.6943 42.8682C15.4691 43.6425 15.8956 44.6729 15.8956 45.7681C15.8956 46.8637 15.4691 47.894 14.6943 48.6684C13.9196 49.4432 12.8896 49.87 11.794 49.87C10.6984 49.87 9.66847 49.4432 8.89409 48.6684C8.11932 47.894 7.69246 46.8641 7.69246 45.7685C7.69246 44.9464 7.93279 44.1613 8.37987 43.4934C4.90735 39.0989 3 33.6171 3 28C3 21.3224 5.60048 15.0441 10.3223 10.3223C15.0441 5.60048 21.3224 3 28 3C29.6747 3 31.3489 3.1667 32.9767 3.49553C33.5054 3.60272 33.8472 4.11771 33.7404 4.64642C33.6335 5.17514 33.1178 5.51694 32.5898 5.41013C31.0891 5.10686 29.545 4.95312 28 4.95312C15.2917 4.95312 4.95312 15.2917 4.95312 28C4.95312 33.1304 6.67928 38.1383 9.82411 42.1697ZM11.794 47.9169C12.3678 47.9169 12.9075 47.6934 13.313 47.2875C13.7189 46.8816 13.9425 46.3422 13.9425 45.7685C13.9425 45.1944 13.7189 44.655 13.313 44.2491C12.9072 43.8436 12.3678 43.62 11.794 43.62C11.2203 43.62 10.6805 43.8432 10.275 44.2491C9.86913 44.655 9.64558 45.1944 9.64558 45.7685C9.64558 46.3422 9.86913 46.8816 10.275 47.2875C10.6809 47.6934 11.2203 47.9169 11.794 47.9169Z" fill="white"/>
<path fill-rule="evenodd" clip-rule="evenodd" d="M47.1059 7.33113C48.5101 8.73532 48.6806 10.9128 47.619 12.5054C51.0919 16.9003 52.9996 22.3824 52.9996 27.9999C52.9996 34.6776 50.3991 40.9558 45.6773 45.6776C40.9555 50.3994 34.6772 52.9999 27.9996 52.9999C26.3414 52.9999 24.6827 52.8363 23.0703 52.5139C22.5416 52.4079 22.1986 51.8937 22.3043 51.3646C22.4103 50.8358 22.9249 50.4929 23.4536 50.5986C24.9402 50.8961 26.4699 51.0468 27.9996 51.0468C40.7079 51.0468 51.0465 40.7082 51.0465 27.9999C51.0465 22.8695 49.3203 17.862 46.1755 13.8302C45.5785 14.1583 44.9056 14.333 44.2056 14.333C43.11 14.333 42.08 13.9065 41.3053 13.1318C40.5305 12.357 40.104 11.327 40.104 10.2314C40.104 9.13586 40.5305 8.1059 41.3053 7.33113C42.08 6.55675 43.11 6.12988 44.2056 6.12988C45.3012 6.12988 46.3311 6.55675 47.1059 7.33113ZM42.0572 10.2314C42.0572 10.8056 42.2807 11.345 42.6866 11.7508C43.0921 12.1563 43.6315 12.3799 44.2056 12.3799C44.7793 12.3799 45.3191 12.1563 45.725 11.7508C46.5623 10.9131 46.5623 9.55014 45.725 8.71243C45.3191 8.30655 44.7793 8.08301 44.2056 8.08301C43.6319 8.08301 43.0921 8.30655 42.6866 8.71243C42.2807 9.11832 42.0572 9.65771 42.0572 10.2314Z" fill="white"/>
<path fill-rule="evenodd" clip-rule="evenodd" d="M24.9463 45.7734C24.4073 45.7734 23.9697 45.3363 23.9697 44.7969V42.9036C22.6861 42.558 21.4585 42.0491 20.3046 41.3846L18.9683 42.7213C18.7852 42.9044 18.5368 43.0074 18.2778 43.0074H18.2774C18.0184 43.0074 17.7701 42.904 17.587 42.7209L13.271 38.4019C12.8896 38.0204 12.8899 37.4021 13.271 37.021L14.6062 35.6859C13.9417 34.5323 13.4328 33.3047 13.0872 32.0207H11.2012C10.9418 32.0207 10.6934 31.9177 10.5103 31.7346C10.3272 31.5515 10.2242 31.3028 10.2246 31.0437L10.228 24.9376C10.228 24.3985 10.6652 23.9614 11.2046 23.9614H13.0872C13.4328 22.6774 13.9417 21.4502 14.6062 20.2966L13.2783 18.9687C13.0952 18.7856 12.9922 18.5369 12.9922 18.2779C12.9922 18.0188 13.0952 17.7705 13.2787 17.5874L17.5977 13.2711C17.9791 12.89 18.5975 12.8904 18.9786 13.2715L20.3049 14.5978C21.4585 13.9333 22.6861 13.4244 23.9697 13.0792V11.2031C23.9697 10.6637 24.4073 10.2266 24.9463 10.2266H31.0525C31.5919 10.2266 32.029 10.6637 32.029 11.2031V13.0788C33.3131 13.4244 34.5406 13.9333 35.6942 14.5978L37.0202 13.2715C37.4017 12.89 38.02 12.89 38.4011 13.2711L42.7205 17.587C42.9036 17.7701 43.0066 18.0188 43.007 18.2779C43.007 18.5369 42.904 18.7856 42.7209 18.9687L41.393 20.2966C42.0575 21.4502 42.566 22.6777 42.9116 23.9614H44.798C45.3374 23.9614 45.7745 24.3985 45.7745 24.9379V31.0441C45.7745 31.5835 45.3374 32.0207 44.798 32.0207H42.912C42.5664 33.3047 42.0575 34.5323 41.393 35.6859L42.7281 37.021C43.1092 37.4021 43.1092 38.0204 42.7281 38.4019L38.4122 42.7209C38.2291 42.9044 37.9803 43.0074 37.7217 43.0074C37.4623 43.0074 37.214 42.9044 37.0309 42.7213L35.6942 41.3846C34.5406 42.0491 33.3131 42.558 32.029 42.9036V44.7969C32.029 45.3363 31.5919 45.7734 31.0525 45.7734H24.9463ZM19.4669 39.4605C19.7926 39.1351 20.3011 39.0809 20.6876 39.3308C22.0578 40.2162 23.5596 40.8387 25.1515 41.1805C25.6013 41.2774 25.9229 41.6753 25.9229 42.1354V43.8203H30.0759V42.1354C30.0759 41.6749 30.3971 41.2774 30.8472 41.1805C32.4391 40.8384 33.941 40.2162 35.3112 39.3308C35.6976 39.0809 36.2061 39.1347 36.5319 39.4605L37.7209 40.6492L40.6564 37.7115L39.4685 36.5236C39.1431 36.1982 39.0889 35.6897 39.3388 35.3029C40.2242 33.933 40.8467 32.4308 41.1885 30.8389C41.2854 30.3891 41.6829 30.0676 42.1433 30.0676H43.8214V25.9145H42.1433C41.6829 25.9145 41.285 25.5933 41.1885 25.1432C40.8463 23.5513 40.2242 22.0495 39.3388 20.6792C39.0889 20.2928 39.1427 19.7843 39.4685 19.4585L40.6487 18.2782L37.711 15.3428L36.5315 16.522C36.2061 16.8477 35.6976 16.9015 35.3112 16.6517C33.9413 15.7663 32.4391 15.1441 30.8472 14.8019C30.3971 14.7054 30.0759 14.3075 30.0759 13.8471V12.1797H25.9229V13.8475C25.9229 14.3075 25.6013 14.7054 25.1515 14.8023C23.5593 15.1441 22.0574 15.7666 20.6876 16.652C20.3008 16.9015 19.7926 16.8477 19.4669 16.5223L18.2877 15.3428L15.35 18.2782L16.5303 19.4589C16.8557 19.7843 16.9099 20.2928 16.66 20.6792C15.7746 22.0495 15.1521 23.5513 14.8103 25.1432C14.7134 25.5933 14.3159 25.9145 13.8554 25.9145H12.1804L12.1781 30.0676H13.8554C14.3159 30.0676 14.7134 30.3891 14.8103 30.8389C15.1521 32.4312 15.7746 33.933 16.66 35.3032C16.9099 35.6897 16.8557 36.1982 16.5303 36.5236L15.3424 37.7118L18.2778 40.6495L19.4669 39.4605Z" fill="white"/>
<path fill-rule="evenodd" clip-rule="evenodd" d="M28.0009 19.9307C32.4503 19.9307 36.0701 23.5504 36.0701 27.9999C36.0701 32.4494 32.4503 36.0691 28.0009 36.0691C23.5514 36.0691 19.9316 32.4494 19.9316 27.9999C19.9316 23.5504 23.5514 19.9307 28.0009 19.9307ZM28.0009 21.8838C24.6283 21.8838 21.8848 24.6273 21.8848 27.9999C21.8848 31.3725 24.6283 34.116 28.0009 34.116C31.3734 34.116 34.117 31.3721 34.117 27.9999C34.117 24.6277 31.3734 21.8838 28.0009 21.8838Z" fill="white"/>
<path d="M36.9922 6.69353C37.2493 6.69353 37.5011 6.589 37.6826 6.40742C37.8642 6.2247 37.9688 5.97293 37.9688 5.71582C37.9688 5.46024 37.8646 5.20808 37.6826 5.02536C37.5011 4.84378 37.2493 4.73926 36.9922 4.73926C36.7343 4.73926 36.4837 4.84378 36.3021 5.02536C36.1201 5.20808 36.0156 5.45909 36.0156 5.71582C36.0156 5.97369 36.1201 6.2247 36.3021 6.40742C36.4837 6.589 36.7343 6.69353 36.9922 6.69353Z" fill="white"/>
<path d="M19.0508 49.3242C18.7941 49.3242 18.5419 49.4287 18.3603 49.6103C18.1787 49.7919 18.0742 50.0441 18.0742 50.3008C18.0742 50.5587 18.1787 50.8097 18.3603 50.9912C18.5419 51.1728 18.7941 51.2773 19.0508 51.2773C19.3075 51.2773 19.5597 51.1728 19.7412 50.9912C19.9228 50.8097 20.0273 50.5575 20.0273 50.3008C20.0273 50.0441 19.9228 49.7919 19.7412 49.6103C19.5597 49.4287 19.3075 49.3242 19.0508 49.3242Z" fill="white"/>
</svg>
