<svg width="55" height="55" viewBox="0 0 55 55" fill="none" xmlns="http://www.w3.org/2000/svg">
<path fill-rule="evenodd" clip-rule="evenodd" d="M29.2611 49.5003C28.8139 52.6047 26.1434 55.0003 22.9176 55.0003C19.3799 55.0003 16.501 52.1219 16.501 48.5837C16.501 45.0455 19.3799 42.167 22.9176 42.167C26.1434 42.167 28.8139 44.5626 29.2611 47.667H39.0381L37.8529 46.4818L39.1491 45.1855L41.8991 47.9355C42.0781 48.1146 42.1676 48.3491 42.1676 48.5837C42.1676 48.8182 42.0781 49.0527 41.8991 49.2318L39.1491 51.9818L37.8529 50.6855L39.0381 49.5003H29.2611ZM27.4995 48.5834C27.4995 46.0563 25.4433 44.0001 22.9162 44.0001C20.3891 44.0001 18.3329 46.0563 18.3329 48.5834C18.3329 51.1105 20.3891 53.1667 22.9162 53.1667C25.4433 53.1667 27.4995 51.1105 27.4995 48.5834Z" fill="white"/>
<path fill-rule="evenodd" clip-rule="evenodd" d="M54.9993 48.5837C54.9993 52.1219 52.1204 55.0003 48.5827 55.0003C45.0449 55.0003 42.166 52.1219 42.166 48.5837C42.166 45.0455 45.0449 42.167 48.5827 42.167C52.1204 42.167 54.9993 45.0455 54.9993 48.5837ZM53.1649 48.5834C53.1649 46.0563 51.1086 44.0001 48.5815 44.0001C46.0544 44.0001 43.9982 46.0563 43.9982 48.5834C43.9982 51.1105 46.0544 53.1667 48.5815 53.1667C51.1086 53.1667 53.1649 51.1105 53.1649 48.5834Z" fill="white"/>
<path fill-rule="evenodd" clip-rule="evenodd" d="M12.9066 26.583C13.3538 23.4786 16.0242 21.083 19.25 21.083C22.7878 21.083 25.6667 23.9615 25.6667 27.4997C25.6667 31.0379 22.7878 33.9163 19.25 33.9163C16.0242 33.9163 13.3538 31.5207 12.9066 28.4163H11.4583C6.1508 28.4163 1.83333 32.7343 1.83333 38.0413C1.83333 43.3484 6.1508 47.6663 11.4583 47.6663H13.3704L12.1852 46.4811L13.4814 45.1849L16.2314 47.9349C16.4105 48.1139 16.5 48.3485 16.5 48.583C16.5 48.8175 16.4105 49.0521 16.2314 49.2311L13.4814 51.9811L12.1852 50.6849L13.3704 49.4997H11.4583C5.14014 49.4997 0 44.3595 0 38.0413C0 31.7231 5.14014 26.583 11.4583 26.583H12.9066ZM14.6661 27.4995C14.6661 30.0266 16.7223 32.0828 19.2494 32.0828C21.7765 32.0828 23.8327 30.0266 23.8327 27.4995C23.8327 24.9724 21.7765 22.9162 19.2494 22.9162C16.7223 22.9162 14.6661 24.9724 14.6661 27.4995Z" fill="white"/>
<path fill-rule="evenodd" clip-rule="evenodd" d="M21.3519 4.31478L22.6481 3.01856L25.3981 5.76856C25.5771 5.94759 25.6667 6.18213 25.6667 6.41667C25.6667 6.65121 25.5771 6.88574 25.3981 7.06478L22.6481 9.81478L21.3519 8.51856L22.5371 7.33333H12.7602C12.313 10.4377 9.64245 12.8333 6.41667 12.8333C2.8789 12.8333 0 9.95487 0 6.41667C0 2.87846 2.8789 0 6.41667 0C9.64245 0 12.313 2.39562 12.7602 5.5H22.5371L21.3519 4.31478ZM1.83264 6.41659C1.83264 8.9437 3.88887 10.9999 6.41597 10.9999C8.94307 10.9999 10.9993 8.9437 10.9993 6.41659C10.9993 3.88949 8.94307 1.83326 6.41597 1.83326C3.88887 1.83326 1.83264 3.88949 1.83264 6.41659Z" fill="white"/>
<path fill-rule="evenodd" clip-rule="evenodd" d="M43.542 5.5C49.8602 5.5 55.0003 10.6401 55.0003 16.9583C55.0003 23.2765 49.8602 28.4167 43.542 28.4167H28.7965L29.9818 29.6019L28.6855 30.8981L25.9355 28.1481C25.7565 27.9691 25.667 27.7345 25.667 27.5C25.667 27.2655 25.7565 27.0309 25.9355 26.8519L28.6855 24.1019L29.9818 25.3981L28.7965 26.5833H43.542C48.8495 26.5833 53.167 22.2654 53.167 16.9583C53.167 11.6512 48.8495 7.33333 43.542 7.33333H38.4271C37.9799 10.4377 35.3094 12.8333 32.0837 12.8333C28.5459 12.8333 25.667 9.95487 25.667 6.41667C25.667 2.87846 28.5459 0 32.0837 0C35.3094 0 37.9799 2.39562 38.4271 5.5H43.542ZM27.5005 6.41659C27.5005 8.9437 29.5567 10.9999 32.0838 10.9999C34.6109 10.9999 36.6671 8.9437 36.6671 6.41659C36.6671 3.88949 34.6109 1.83326 32.0838 1.83326C29.5567 1.83326 27.5005 3.88949 27.5005 6.41659Z" fill="white"/>
</svg>
