<svg width="55" height="55" viewBox="0 0 55 55" fill="none" xmlns="http://www.w3.org/2000/svg">
<path d="M22.7829 11.4759C22.5024 11.1955 22.0481 11.1955 21.7677 11.4759L20.0195 13.2241L19.0271 12.2315C18.7468 11.9512 18.2923 11.9512 18.0121 12.2315C17.7317 12.5118 17.7317 12.9662 18.012 13.2466L19.512 14.7466C19.7922 15.0267 20.2467 15.0269 20.5271 14.7466L22.7829 12.4909C23.0632 12.2107 23.0632 11.7562 22.7829 11.4759Z" fill="white"/>
<path d="M22.7829 17.9495C22.5024 17.6692 22.0481 17.6692 21.7677 17.9495L20.0195 19.6977L19.0271 18.7052C18.7468 18.4248 18.2923 18.4248 18.0121 18.7052C17.7317 18.9855 17.7317 19.4399 18.012 19.7202L19.512 21.2202C19.7922 21.5004 20.2467 21.5005 20.5271 21.2202L22.7829 18.9645C23.0632 18.6842 23.0632 18.2297 22.7829 17.9495Z" fill="white"/>
<path d="M22.7829 24.555C22.5024 24.2746 22.0481 24.2746 21.7677 24.555L20.0195 26.3032L19.0271 25.3106C18.7468 25.0303 18.2923 25.0303 18.0121 25.3106C17.7317 25.5909 17.7317 26.0453 18.012 26.3257L19.512 27.8257C19.7922 28.1058 20.2467 28.106 20.5271 27.8257L22.7829 25.57C23.0632 25.2898 23.0632 24.8353 22.7829 24.555Z" fill="white"/>
<path fill-rule="evenodd" clip-rule="evenodd" d="M6.30222 52.0002H48.6978C50.5186 52.0002 52 50.5075 52 48.6727V46.7383C52 46.0324 51.4282 45.4581 50.7253 45.4581H48.2711C48.8579 44.7495 49.2099 43.8459 49.2099 42.8822V32.5616C49.2099 32.1652 48.8886 31.8439 48.4921 31.8439C48.0956 31.8439 47.7743 32.1652 47.7743 32.5616V42.8821C47.7743 44.1363 46.8525 45.2343 45.6216 45.458H9.3784C8.14747 45.2343 7.22576 44.1364 7.22576 42.8821V17.861C7.22576 16.4174 8.40012 15.2431 9.8437 15.2431H13.7197V16.7818H10.1031C9.37734 16.7818 8.78686 17.3723 8.78686 18.0981V42.6077C8.78686 43.3335 9.37734 43.924 10.1031 43.924H44.8968C45.6226 43.924 46.213 43.3335 46.213 42.6077V18.098C46.213 17.3722 45.6226 16.7817 44.8968 16.7817H41.2803V15.243H45.1563C46.5999 15.243 47.7742 16.4173 47.7742 17.8609V29.212C47.7742 29.6084 48.0955 29.9298 48.492 29.9298C48.8885 29.9298 49.2098 29.6084 49.2098 29.212V17.861C49.2098 15.6259 47.3913 13.8075 45.1563 13.8075H41.2803V4.97416C41.2803 3.88554 40.3947 3 39.3062 3H29.1748C28.7783 3 28.457 3.32137 28.457 3.71777C28.457 4.11417 28.7783 4.43554 29.1748 4.43554H39.3062C39.6032 4.43554 39.8448 4.6771 39.8448 4.97406V38.0479C39.8448 38.3328 39.613 38.5646 39.3281 38.5646H15.672C15.387 38.5646 15.1553 38.3328 15.1553 38.0479V10.0075H18.7532C19.8417 10.0075 20.7272 9.12191 20.7272 8.03339V4.43554H25.8253C26.2218 4.43554 26.5431 4.11417 26.5431 3.71777C26.5431 3.32137 26.2218 3 25.8253 3H20.0094C19.8138 3 19.6308 3.08135 19.5018 3.21026L13.9299 8.78217C13.802 8.91012 13.7198 9.09512 13.7198 9.28968V13.8074H9.8438C7.60876 13.8074 5.79031 15.6258 5.79031 17.8609V42.8821C5.79031 43.8458 6.14221 44.7494 6.72906 45.458H4.27466C3.57173 45.458 3 46.0323 3 46.7382V48.6726C3 50.5075 4.48129 52.0002 6.30222 52.0002ZM19.2919 5.45096V8.03369C19.2919 8.33065 19.0504 8.57221 18.7534 8.57221H16.1707L19.2919 5.45096ZM39.3274 40.0003H15.6713C14.5947 40.0003 13.719 39.1244 13.719 38.0479V18.2173H10.2218V42.4884H44.7768V18.2173H41.2796V38.048C41.2796 39.1247 40.4036 40.0003 39.3274 40.0003ZM21.2793 46.8938H33.7193V47.4738C33.7193 47.7134 33.522 47.9158 33.2886 47.9158H21.7101C21.4766 47.9158 21.2793 47.7134 21.2793 47.4738V46.8938ZM19.8445 46.8938H4.43555V48.6728C4.43555 49.716 5.27295 50.5647 6.30223 50.5647H48.6978C49.7271 50.5647 50.5645 49.716 50.5645 48.6728V46.8938H35.1556V47.4738C35.1556 48.509 34.3183 49.3513 33.2893 49.3513H21.7108C20.6817 49.3513 19.8445 48.509 19.8445 47.4738V46.8938Z" fill="white"/>
<path d="M36.9341 11.1338H25.2393C24.8428 11.1338 24.5215 11.4552 24.5215 11.8516C24.5215 12.248 24.8428 12.5693 25.2393 12.5693H36.9341C37.3306 12.5693 37.6519 12.248 37.6519 11.8516C37.6519 11.4552 37.3306 11.1338 36.9341 11.1338Z" fill="white"/>
<path d="M36.9341 13.9658H25.2393C24.8428 13.9658 24.5215 14.2872 24.5215 14.6836C24.5215 15.08 24.8428 15.4014 25.2393 15.4014H36.9341C37.3306 15.4014 37.6519 15.08 37.6519 14.6836C37.6519 14.2872 37.3306 13.9658 36.9341 13.9658V13.9658Z" fill="white"/>
<path d="M36.9341 17.7393H25.2393C24.8428 17.7393 24.5215 18.0606 24.5215 18.457C24.5215 18.8534 24.8428 19.1748 25.2393 19.1748H36.9341C37.3306 19.1748 37.6519 18.8534 37.6519 18.457C37.6519 18.0606 37.3306 17.7393 36.9341 17.7393Z" fill="white"/>
<path d="M36.9341 20.5723H25.2393C24.8428 20.5723 24.5215 20.8936 24.5215 21.29C24.5215 21.6864 24.8428 22.0078 25.2393 22.0078H36.9341C37.3306 22.0078 37.6519 21.6864 37.6519 21.29C37.6519 20.8936 37.3306 20.5723 36.9341 20.5723Z" fill="white"/>
<path d="M36.9341 24.3447H25.2393C24.8428 24.3447 24.5215 24.6661 24.5215 25.0625C24.5215 25.4589 24.8428 25.7803 25.2393 25.7803H36.9341C37.3306 25.7803 37.6519 25.4589 37.6519 25.0625C37.6519 24.6661 37.3306 24.3447 36.9341 24.3447Z" fill="white"/>
<path d="M36.9341 27.1768H25.2393C24.8428 27.1768 24.5215 27.4981 24.5215 27.8945C24.5215 28.2909 24.8428 28.6123 25.2393 28.6123H36.9341C37.3306 28.6123 37.6519 28.2909 37.6519 27.8945C37.6519 27.4981 37.3306 27.1768 36.9341 27.1768V27.1768Z" fill="white"/>
<path d="M21.7678 31.1595L20.0195 32.9077L19.0271 31.9151C18.7467 31.6348 18.2923 31.6348 18.012 31.9151C17.7317 32.1954 17.7317 32.6499 18.012 32.9301L19.512 34.4302C19.7924 34.7105 20.2468 34.7105 20.5272 34.4302L22.7829 32.1745C23.0632 31.8942 23.0632 31.4397 22.7829 31.1595C22.5025 30.8791 22.0481 30.8791 21.7678 31.1595Z" fill="white"/>
<path d="M36.9341 30.9492H25.2393C24.8428 30.9492 24.5215 31.2706 24.5215 31.667C24.5215 32.0634 24.8428 32.3848 25.2393 32.3848H36.9341C37.3306 32.3848 37.6519 32.0634 37.6519 31.667C37.6519 31.2706 37.3306 30.9492 36.9341 30.9492Z" fill="white"/>
<path d="M36.9341 33.7822H25.2393C24.8428 33.7822 24.5215 34.1036 24.5215 34.5C24.5215 34.8964 24.8428 35.2178 25.2393 35.2178H36.9341C37.3306 35.2178 37.6519 34.8964 37.6519 34.5C37.6519 34.1036 37.3306 33.7822 36.9341 33.7822Z" fill="white"/>
</svg>
