<svg width="55" height="55" viewBox="0 0 55 55" fill="none" xmlns="http://www.w3.org/2000/svg">
<path fill-rule="evenodd" clip-rule="evenodd" d="M49.3489 36.6109C47.3678 35.4673 45.0869 35.0958 42.8644 35.5436L34.8191 27.5L42.8705 19.4502C43.4714 19.5695 44.075 19.6276 44.6735 19.6275C47.9404 19.6274 51.0561 17.8987 52.7479 14.969C53.9921 12.8144 54.3226 10.3044 53.6785 7.90116C53.0344 5.49806 51.493 3.48961 49.338 2.24572C44.8899 -0.321677 39.1815 1.20754 36.6133 5.65501C35.4694 7.63571 35.0979 9.91623 35.5456 12.1384L27.5 20.1823L26.8467 19.5292C26.4423 19.125 25.787 19.1252 25.383 19.5295C24.9789 19.9339 24.979 20.5895 25.3833 20.9936L26.0359 21.6461L21.6449 26.0362L13.9236 18.3164L18.3108 13.9226L18.7949 14.4066C19.1992 14.8107 19.8544 14.8105 20.2586 14.4062C20.6627 14.0019 20.6626 13.3463 20.2583 12.9422L19.4482 12.1323C20.2184 8.25222 18.4331 4.2581 14.966 2.25669C12.28 0.706358 9.0099 0.593202 6.21867 1.95439C5.29271 2.40588 4.81069 2.98967 4.78626 3.68963C4.76225 4.37664 5.17793 4.97193 6.0216 5.45892L8.8004 7.06289C9.27353 7.33599 9.27352 7.4683 9.27352 7.70828V8.89813C9.27352 9.64012 9.19983 9.76756 8.55706 10.1386L7.52646 10.7335C7.32514 10.8498 7.20352 10.92 6.72988 10.6466L3.95118 9.04266C3.10751 8.55556 2.38422 8.49354 1.80148 8.85786C1.20778 9.22901 0.943219 9.93818 1.01505 10.9657C1.23189 14.0635 2.96499 16.8386 5.65105 18.3891C7.63204 19.5327 9.91319 19.9041 12.1354 19.4564L20.1807 27.5001L12.1294 35.5497C8.24893 34.7793 4.25394 36.5644 2.25215 40.0308C1.00791 42.1855 0.677417 44.6955 1.32143 47.0987C1.96554 49.5018 3.50694 51.5102 5.66181 52.7541C7.12517 53.5988 8.72412 54.0002 10.3036 54C13.5252 53.9998 16.6633 52.3294 18.3865 49.3451C19.5304 47.3644 19.902 45.0838 19.4542 42.8617L27.4998 34.8177L35.5514 42.8677C34.7812 46.7478 36.5666 50.742 40.0336 52.7433C41.4724 53.5739 43.0785 53.9919 44.6893 53.9919C46.0853 53.9918 47.485 53.6776 48.7809 53.0457C49.7069 52.5942 50.1889 52.0103 50.2134 51.3103C50.2373 50.6233 49.8218 50.0281 48.978 49.541L46.1993 47.9372C45.7262 47.664 45.7261 47.5318 45.7261 47.2918V46.1018C45.7261 45.3599 45.7998 45.2324 46.4426 44.8614L47.4732 44.2665L47.4732 44.2664C47.6746 44.1502 47.7961 44.0801 48.2696 44.3533L51.0484 45.9573C51.8919 46.4444 52.6154 46.5065 53.1982 46.1421C53.7918 45.771 54.0565 45.0617 53.9846 44.0343C53.7681 40.9365 52.035 38.1614 49.3489 36.6109ZM6.68594 16.5954C4.63002 15.4086 3.29191 13.2989 3.08924 10.9353L5.6954 12.4397C6.34272 12.8134 7.34434 13.2291 8.56135 12.5265L9.59206 11.9316C10.869 11.1945 11.3438 10.3723 11.3439 8.89786V7.7079C11.3439 6.30251 10.483 5.64303 9.8354 5.26919L7.23007 3.76534C9.37925 2.75915 11.8754 2.86288 13.9315 4.04963C16.6883 5.64096 18.0775 8.85116 17.3741 11.9303L11.9328 17.3797C10.1406 17.7939 8.28748 17.5198 6.68594 16.5954ZM48.3032 4.03881C44.8431 2.04164 40.4034 3.23108 38.4057 6.69016C37.4813 8.29092 37.2073 10.1433 37.6213 11.9349L43.0721 17.3754C43.6055 17.4972 44.143 17.5566 44.675 17.5566C47.2161 17.5568 49.6389 16.2121 50.9551 13.933C51.9226 12.2576 52.1796 10.3057 51.6787 8.437C51.1778 6.56821 49.979 5.00617 48.3032 4.03881ZM16.5941 48.3094C14.5965 51.7685 10.1566 52.9578 6.69662 50.9607C5.02066 49.9933 3.82186 48.4313 3.321 46.5625C2.82014 44.6938 3.07725 42.7419 4.04471 41.0664C5.36078 38.7873 7.78373 37.4428 10.3247 37.4428C10.8568 37.4428 11.3943 37.5022 11.9277 37.6239L17.3787 43.0645C17.7925 44.8562 17.5185 46.7085 16.5941 48.3094ZM13.92 36.6873L18.3148 41.0735L41.0802 18.3126L36.6856 13.9263L13.92 36.6873ZM28.9641 33.354L33.3551 28.9638L41.0764 36.6836L36.6892 41.0775L28.9641 33.354ZM46.4386 42.473C47.6556 41.7706 48.6571 42.1862 49.3046 42.56L51.9107 44.0643C51.7081 41.7005 50.3699 39.5909 48.314 38.4042C46.7126 37.4798 44.8594 37.2057 43.0669 37.6197L37.6259 43.0691C36.9224 46.1483 38.3117 49.3585 41.0684 50.9498C43.1245 52.1367 45.6209 52.2405 47.7699 51.2341L45.1648 49.7305C44.5171 49.3565 43.6564 48.6971 43.6562 47.2918V46.1015C43.6562 44.6274 44.131 43.805 45.4079 43.0679L46.4386 42.473Z" fill="white"/>
<path fill-rule="evenodd" clip-rule="evenodd" d="M44.1629 14.7939L41.0578 13.0015C40.7373 12.8165 40.54 12.4747 40.54 12.1048V8.52006C40.54 8.15016 40.7373 7.80831 41.0578 7.6234L44.1629 5.83102C44.4831 5.64612 44.8776 5.64622 45.1976 5.83102L48.3026 7.6234C48.6231 7.80831 48.8203 8.15016 48.8203 8.52006V12.1048C48.8203 12.4747 48.6231 12.8166 48.3026 13.0015L45.1976 14.7939C45.0375 14.8863 44.8589 14.9325 44.6802 14.9325C44.5016 14.9325 44.3229 14.8863 44.1629 14.7939ZM44.6803 7.92237L42.6102 9.1173V11.5063L44.6803 12.7012L46.7503 11.5063V9.1173L44.6803 7.92237Z" fill="white"/>
<path fill-rule="evenodd" clip-rule="evenodd" d="M10.8372 40.207L13.9424 41.9993C14.2626 42.1842 14.46 42.5261 14.4601 42.896V46.4807C14.4601 46.8506 14.2628 47.1924 13.9425 47.3773L10.8373 49.1697C10.6772 49.2622 10.4986 49.3083 10.3199 49.3083C10.1411 49.3083 9.9626 49.2622 9.80247 49.1697L6.69732 47.3773C6.37707 47.1924 6.17969 46.8506 6.17969 46.4807V42.896C6.17969 42.5261 6.37697 42.1842 6.69732 41.9993L9.80247 40.207C10.1227 40.0222 10.517 40.0222 10.8372 40.207ZM10.3198 47.0773L12.3899 45.8824V43.4934L10.3198 42.2984L8.24969 43.4934V45.8824L10.3198 47.0773Z" fill="white"/>
<path d="M22.8215 18.0027C23.3932 18.0027 23.8565 17.5393 23.8565 16.9677C23.8565 16.396 23.3932 15.9326 22.8215 15.9326H22.8208C22.2491 15.9326 21.7861 16.396 21.7861 16.9677C21.7861 17.5393 22.2498 18.0027 22.8215 18.0027Z" fill="white"/>
</svg>
