<svg width="55" height="55" viewBox="0 0 55 55" fill="none" xmlns="http://www.w3.org/2000/svg">
<path fill-rule="evenodd" clip-rule="evenodd" d="M10.3819 39.4115L9.56598 40.2275C8.29178 41.5018 6.22937 41.5014 4.95557 40.2273C3.68128 38.9531 3.68167 36.8909 4.95557 35.617L9.01078 31.5614C6.81827 28.4568 5.52858 24.6715 5.52858 20.5902C5.52858 16.0641 7.14228 11.6777 10.0727 8.23705L10.0768 8.23172L10.0818 8.22535C11.5644 6.48715 13.328 5.04165 15.3238 3.92905C15.6855 3.72735 16.1424 3.85715 16.3441 4.21895C16.5458 4.58075 16.416 5.03755 16.0542 5.23925C14.332 6.19935 12.7971 7.42855 11.487 8.89625C11.5354 9.01464 11.5734 9.16279 11.616 9.32894C11.7616 9.89676 11.9611 10.6749 12.8164 11.1945L15.5503 12.8538C15.9749 13.1117 16.323 13.1651 16.8469 13.2454C17.0713 13.2798 17.3278 13.3191 17.6365 13.3815C19.8131 13.7541 20.7161 16.5292 18.9238 17.4478C18.2306 17.8176 17.7801 18.0399 17.4848 18.1856C17.0064 18.4217 16.9357 18.4566 16.9008 18.5914C16.5013 20.1341 16.2707 21.0071 16.1385 21.5074L16.1385 21.5075C15.9733 22.1326 15.9618 22.1762 15.9665 22.218L15.9678 22.2277L15.969 22.2358C16.0023 22.4926 16.3399 22.5664 16.4766 22.3451L16.9036 21.653C17.4802 20.7183 18.7031 20.562 19.4979 21.177C19.791 21.4037 19.805 21.4279 20.7322 23.0347C20.9882 23.4783 21.3137 24.0424 21.734 24.7647L21.738 24.7717C21.7436 24.7814 21.7485 24.7901 21.7543 24.7982C21.8013 24.865 21.8983 24.8965 22.7919 25.1869L22.7921 25.187L22.7923 25.187C23.1841 25.3144 23.7289 25.4914 24.4898 25.743C25.9062 26.2083 26.5645 27.792 25.9718 29.1003C25.8752 29.3134 25.7788 29.4521 25.663 29.6188L25.6629 29.6189C25.6179 29.6837 25.57 29.7526 25.518 29.8319C25.2658 30.2015 25.3024 30.7094 25.6116 31.0392L26.5085 31.9956C26.9403 32.4562 27.1761 33.056 27.1761 33.6834C27.1692 33.721 27.1715 33.7904 27.1746 33.8842C27.1905 34.369 27.2279 35.5064 26.1379 36.2795C25.7783 36.5362 25.6321 37.015 25.8057 37.4362C25.8015 37.426 26.0712 38.0807 26.0754 38.091C28.8932 37.8656 31.7885 36.8818 34.2422 35.265C34.5895 35.0361 35.0542 35.1343 35.2812 35.4786C35.5094 35.8251 35.413 36.2901 35.0676 36.5177C32.0721 38.4916 28.4541 39.654 24.5927 39.654C20.6267 39.654 16.8408 38.4561 13.6157 36.1776L11.4524 38.3409C15.3479 41.2423 19.9063 42.6721 24.5927 42.6721C30.4728 42.6721 36.0302 40.3801 40.2046 36.207C44.3763 32.0366 46.6738 26.4905 46.6738 20.5902C46.6738 15.7854 45.1793 11.2608 42.3424 7.45095L40.1792 9.61415C42.3732 12.7183 43.6559 16.4841 43.6559 20.5902C43.6559 26.2604 41.18 31.346 37.2642 34.8326C36.9527 35.1099 36.4768 35.0763 36.2053 34.7711C35.9286 34.4604 35.9586 33.9865 36.2667 33.7122C37.8506 32.3021 39.1612 30.6276 40.1424 28.7605C38.923 27.8255 38.1878 27.2579 37.7349 26.9083L37.7336 26.9073L37.7297 26.9043L37.7291 26.9039L37.7289 26.9037L37.7287 26.9035C37.0934 26.4131 37.0181 26.355 36.936 26.3092C36.925 26.3031 36.9139 26.2972 36.9013 26.2905L36.9011 26.2904L36.9001 26.2899C36.5639 26.1198 36.325 25.9889 36.141 25.8882C35.7732 25.6867 35.6253 25.6057 35.3604 25.573C35.1918 25.5523 34.9885 25.5576 34.7614 25.5635C34.0078 25.5829 32.9918 25.6092 32.1121 24.7155C31.7628 24.3603 31.2658 24.2426 30.8234 24.3582L28.9384 24.8486C28.3902 24.9904 27.8315 24.8692 27.4036 24.5595L26.0565 23.5828C25.2314 22.9841 25.0506 21.8258 25.6659 21.0035C26.1245 20.3666 26.4754 19.911 26.7468 19.5587L26.7468 19.5587C27.3353 18.7946 27.5494 18.5167 27.6756 17.9307C27.7154 17.747 27.751 17.5712 27.7854 17.402C27.9972 16.3572 28.1585 15.562 28.9376 14.7114C30.3124 13.2135 32.0463 13.38 32.5583 13.4291L32.5584 13.4291C32.6293 13.4359 32.6768 13.4405 32.6966 13.4381C33.104 13.467 33.4913 13.2535 33.6841 12.8942C33.8343 12.6281 33.9577 12.3903 34.069 12.1759L34.069 12.1759C34.4449 11.4516 34.6818 10.9951 35.3451 10.618C35.7716 10.3755 36.0589 10.3393 36.3046 10.3082C36.5044 10.283 36.6767 10.2613 36.8741 10.1348C37.1112 9.98382 37.2053 9.80824 37.381 9.48036C37.463 9.32737 37.5628 9.14123 37.7032 8.90895C36.9356 8.04755 36.119 7.28875 35.1931 6.58635C32.1701 4.29445 28.4642 3.02635 24.5927 3.02635C22.5229 3.02635 20.4945 3.38405 18.564 4.08965C18.175 4.23175 17.7442 4.03175 17.6021 3.64265C17.4599 3.25365 17.6601 2.82295 18.0491 2.68075C20.1451 1.91475 22.3467 1.52635 24.5927 1.52635C28.5717 1.52635 32.3893 2.76075 35.5692 5.00345L39.6194 0.95325C40.8905 -0.31775 42.9588 -0.31775 44.2298 0.95325C45.5008 2.22425 45.5008 4.29255 44.2298 5.56365L43.4128 6.38065C46.5293 10.4871 48.1738 15.3849 48.1738 20.5903C48.1738 26.8913 45.7202 32.8143 41.265 37.2681C38.9683 39.5642 36.2805 41.3265 33.3528 42.4967C35.1066 43.4927 36.2641 45.3738 36.2641 47.5206V47.793C36.2641 49.6716 34.7357 51.2 32.8571 51.2H16.3273C14.4487 51.2 12.9203 49.6716 12.9203 47.793V47.5206C12.9203 45.3769 14.0742 43.4985 15.8235 42.5014C13.8975 41.7295 12.0726 40.695 10.3819 39.4115ZM40.68 2.01395L36.77 5.92395C36.773 5.92635 36.7758 5.92895 36.779 5.93165C37.6564 6.66205 38.4841 7.48985 39.1914 8.33155C39.2037 8.34621 39.2157 8.36102 39.2278 8.37583L39.228 8.37603L39.2587 8.41345L43.1691 4.50305C43.8553 3.81675 43.8553 2.70025 43.1691 2.01395C42.4828 1.32775 41.3663 1.32775 40.68 2.01395ZM38.5344 25.6328L38.5343 25.6327L38.5341 25.6325C38.154 25.3344 37.9784 25.1966 37.7911 25.0773C37.6301 24.9748 37.4606 24.8859 37.1453 24.7207L37.1451 24.7206C36.9838 24.6361 36.7845 24.5316 36.5287 24.3951C35.8498 24.0333 35.2335 24.0498 34.6844 24.0644C34.1072 24.0799 33.6043 24.0933 33.1811 23.6635C32.5377 23.0098 31.577 22.6821 30.6194 22.8673C30.5254 22.8854 30.5221 22.8862 30.0539 23.0085L30.0538 23.0085C29.7693 23.0828 29.3134 23.2019 28.5616 23.3968C28.4648 23.4218 28.3633 23.4027 28.2834 23.3449C27.8606 23.0295 27.5575 22.8153 27.3405 22.6619L27.3403 22.6618L27.3402 22.6617L27.3401 22.6617C26.8623 22.324 26.8023 22.2816 26.8007 22.104C26.7994 21.982 26.8043 21.9756 27.1772 21.4876C27.4132 21.1787 27.7967 20.6769 28.4194 19.8307C29.0081 19.0486 29.1451 18.3065 29.2731 17.614C29.3988 16.9337 29.5156 16.3011 30.0432 15.7253C30.9183 14.7717 32.0178 14.8823 32.4373 14.9245C32.5099 14.9318 32.5622 14.937 32.5894 14.9344C33.5857 15.0052 34.5341 14.4829 35.0059 13.6034L35.6875 12.3331C35.8546 12.0217 36.165 11.8188 36.5179 11.7906C37.3589 11.7231 38.1157 11.239 38.5264 10.505L38.721 10.1592C40.9009 13.106 42.1558 16.7614 42.1558 20.5904C42.1558 22.9428 41.6944 25.2437 40.798 27.3726C39.6105 26.4771 38.9503 25.9591 38.5345 25.6329L38.5344 25.6328ZM34.7641 47.793V47.5206C34.7641 45.3574 33.1775 43.5585 31.0508 43.2805C28.9714 43.869 26.7867 44.1723 24.5927 44.1723C22.3174 44.1723 20.1354 43.8544 18.1178 43.283C15.9992 43.5679 14.4205 45.3627 14.4205 47.5206V47.793C14.4205 48.8445 15.2759 49.6999 16.3274 49.6999H32.8572C33.9087 49.6999 34.7641 48.8444 34.7641 47.793ZM10.3416 10.3231C10.8028 11.7713 11.5532 12.2128 13.1447 13.1493L13.1447 13.1493C13.6104 13.4233 14.1482 13.7397 14.7718 14.1361C15.4585 14.5533 16.0334 14.6442 16.8496 14.7733H16.8497C17.0166 14.7997 17.1936 14.8277 17.3837 14.8603C17.8869 14.9464 18.2732 15.3245 18.3815 15.8123C18.4011 15.8995 18.3751 16.0009 18.3007 16.07L18.2911 16.0789C18.2673 16.1003 18.2378 16.1154 17.8695 16.304C17.5962 16.4439 17.1363 16.6794 16.3539 17.0837C16.0173 17.2572 15.7476 17.5325 15.5805 17.8647C15.4896 18.0455 15.4843 18.0661 15.2597 18.9382C15.1214 19.4753 14.9 20.3353 14.5242 21.7544C14.0092 23.737 16.6967 24.8419 17.7528 23.1336L18.1802 22.4409C18.2895 22.2638 18.5467 22.2659 18.6514 22.4471L20.4368 25.5182C20.6553 25.8949 21.0037 26.1775 21.418 26.3137L24.0218 27.1684C24.3134 27.2641 24.5373 27.4859 24.6361 27.7766C24.8021 28.265 24.5485 28.6078 24.3835 28.8308C24.3387 28.8914 24.3004 28.9431 24.2789 28.9865C23.7863 29.7085 23.7184 30.6012 24.0515 31.361C24.2301 31.7685 24.4252 31.974 24.9 32.4741C25.0434 32.6252 25.2124 32.8032 25.4142 33.0218C25.6947 33.3209 25.6841 33.6447 25.674 33.9534C25.6705 34.0607 25.6671 34.1662 25.676 34.2682C25.676 34.5764 25.5282 34.8731 25.2683 35.0574C24.5278 35.5858 24.1217 36.4972 24.259 37.429C24.305 37.7413 24.3985 37.9616 24.4502 38.0837C24.4623 38.1122 24.4721 38.1353 24.4785 38.153C14.7335 38.0859 7.02877 30.131 7.02877 20.5901C7.02877 16.8942 8.19637 13.2997 10.3416 10.3231ZM9.92578 32.7681L6.01618 36.6777C5.32827 37.3656 5.32838 38.479 6.01618 39.1667C6.70408 39.8545 7.81748 39.8545 8.50527 39.1667L12.4149 35.257C11.5106 34.5056 10.6773 33.6723 9.92578 32.7681Z" fill="white"/>
</svg>
