<svg width="55" height="55" viewBox="0 0 55 55" fill="none" xmlns="http://www.w3.org/2000/svg">
<path d="M27.5 13.1005C27.9449 13.1005 28.3057 12.7397 28.3057 12.2948V11.1123C28.3057 10.6674 27.9449 10.3066 27.5 10.3066C27.0551 10.3066 26.6943 10.6674 26.6943 11.1123V12.2948C26.6943 12.7397 27.0551 13.1005 27.5 13.1005Z" fill="white"/>
<path d="M39.6139 15.361C39.2993 15.0464 38.7891 15.0463 38.4746 15.361L37.6384 16.1971C37.3237 16.5117 37.3237 17.0219 37.6383 17.3365C37.7957 17.4938 38.0018 17.5725 38.2081 17.5725C38.4142 17.5725 38.6205 17.4939 38.7777 17.3366L39.6139 16.5004C39.9284 16.1858 39.9284 15.6757 39.6139 15.361Z" fill="white"/>
<path d="M42.6162 26.6943C42.1712 26.6943 41.8105 27.0551 41.8105 27.5C41.8105 27.9449 42.1712 28.3057 42.6162 28.3057H43.7987C44.2438 28.3057 44.6044 27.945 44.6044 27.5C44.6044 27.055 44.2438 26.6943 43.7987 26.6943L42.6162 26.6943Z" fill="white"/>
<path d="M38.7152 37.6382C38.4005 37.3237 37.8905 37.3237 37.5758 37.6382C37.2612 37.953 37.2612 38.463 37.5758 38.7777L38.4119 39.6137C38.5693 39.771 38.7755 39.8496 38.9817 39.8496C39.1878 39.8496 39.394 39.771 39.5514 39.6137C39.8661 39.299 39.8661 38.7889 39.5514 38.4743L38.7152 37.6382Z" fill="white"/>
<path d="M26.6055 42.6172V43.7997C26.6055 44.2447 26.9662 44.6054 27.4111 44.6054C27.8561 44.6054 28.2168 44.2447 28.2168 43.7997V42.6172C28.2168 42.1721 27.8562 41.8115 27.4111 41.8115C26.9661 41.8115 26.6055 42.1721 26.6055 42.6172Z" fill="white"/>
<path d="M16.1347 37.5757L15.2985 38.4118C14.9838 38.7264 14.9838 39.2365 15.2985 39.5511C15.4557 39.7084 15.662 39.7871 15.8681 39.7871C16.0743 39.7871 16.2805 39.7084 16.4378 39.5512L17.274 38.7151C17.5886 38.4005 17.5886 37.8903 17.274 37.5758C16.9594 37.2612 16.4493 37.2613 16.1347 37.5757Z" fill="white"/>
<path d="M11.1133 26.6064C10.6683 26.6064 10.3076 26.9672 10.3076 27.4121C10.3076 27.8572 10.6683 28.2178 11.1133 28.2178H12.2958C12.7407 28.2178 13.1014 27.8572 13.1014 27.4121C13.1014 26.9672 12.7407 26.6064 12.2958 26.6064L11.1133 26.6064Z" fill="white"/>
<path d="M17.3365 16.1346L16.5004 15.2984C16.1856 14.9838 15.6757 14.9839 15.3609 15.2984C15.0463 15.6131 15.0464 16.1232 15.3609 16.4379L16.1971 17.2739C16.3545 17.4313 16.5606 17.5099 16.7668 17.5099C16.9729 17.5099 17.1792 17.4313 17.3365 17.2739C17.6512 16.9593 17.6511 16.4492 17.3365 16.1346Z" fill="white"/>
<path fill-rule="evenodd" clip-rule="evenodd" d="M35.3982 32.467L29.6595 29.5161C29.1197 30.0939 28.3519 30.456 27.5007 30.4559C26.15 30.4559 25.0089 29.545 24.6572 28.3055H20.6582C20.2133 28.3055 19.8525 27.9448 19.8525 27.4999C19.8525 27.0549 20.2133 26.6942 20.6582 26.6942H24.6572C24.9362 25.7111 25.7119 24.9354 26.695 24.6564V16.4443C26.695 15.9994 27.0557 15.6387 27.5007 15.6387C27.9456 15.6387 28.3063 15.9994 28.3063 16.4443V24.6564C29.5458 25.0081 30.4566 26.1493 30.4566 27.4999C30.4566 27.6998 30.4364 27.8951 30.3984 28.084L36.1351 31.0339C36.5308 31.2375 36.6867 31.7232 36.4832 32.1189C36.2808 32.5123 35.7963 32.6717 35.3982 32.467ZM26.1558 27.5C26.1558 28.2415 26.7591 28.8447 27.5005 28.8447C28.2419 28.8447 28.8452 28.2415 28.8451 27.5C28.8451 26.7585 28.2419 26.1553 27.5005 26.1553C26.759 26.1553 26.1558 26.7586 26.1558 27.5Z" fill="white"/>
<path d="M48.3022 26.6926C48.7459 26.6586 49.078 26.2715 49.0441 25.8277C48.6295 20.4144 46.2047 15.3893 42.2161 11.678C38.2067 7.94724 32.9807 5.89258 27.5007 5.89258C15.5866 5.89258 5.89355 15.5855 5.89355 27.4997C5.89355 39.414 15.5866 49.1069 27.5007 49.1069C38.7688 49.1069 48.182 40.4266 49.044 29.172C49.0778 28.7283 48.7459 28.3412 48.3021 28.3071C47.8603 28.2739 47.4713 28.6052 47.4373 29.049C46.6416 39.4408 37.95 47.4956 27.5007 47.4956C16.4749 47.4956 7.50488 38.5255 7.50488 27.4997C7.50488 16.474 16.4749 7.50391 27.5007 7.50391C32.5719 7.50391 37.4081 9.40527 41.1185 12.8577C44.8097 16.2924 47.0539 20.9423 47.4373 25.9508C47.4713 26.3943 47.8569 26.7273 48.3022 26.6926Z" fill="white"/>
<path d="M46.9458 8.0546C41.7517 2.86043 34.8459 0 27.5003 0C22.2212 0 17.0929 1.50004 12.6695 4.33813C12.295 4.57843 12.1862 5.07676 12.4265 5.45134C12.6668 5.8257 13.165 5.93452 13.5397 5.69433C17.7029 3.02317 22.5304 1.61133 27.5003 1.61133C34.4154 1.61133 40.9166 4.30418 45.8064 9.19392C50.6961 14.0837 53.3889 20.5848 53.3889 27.5C53.3889 41.8078 41.8102 53.3887 27.5003 53.3887C24.9433 53.3887 22.4144 53.0153 19.9837 52.2791C19.5578 52.15 19.108 52.3906 18.9791 52.8167C18.8501 53.2425 19.0907 53.6921 19.5166 53.8213C22.0989 54.6034 24.785 55 27.5003 55C42.6987 55 55.0003 42.7005 55.0003 27.5C55.0003 20.1545 52.1397 13.2487 46.9458 8.0546Z" fill="white"/>
<path d="M17.0539 51.1929C7.67293 47.0506 1.61133 37.7506 1.61133 27.5C1.61133 19.7541 5.03927 12.4779 11.0161 7.53688C11.359 7.25339 11.4072 6.74561 11.1236 6.40261C10.8403 6.05983 10.3325 6.01159 9.98938 6.29497C3.64106 11.5431 0 19.272 0 27.5C0 38.3883 6.43854 48.267 16.4029 52.6671C16.5087 52.7138 16.6192 52.7359 16.7279 52.7359C17.0373 52.7359 17.3323 52.5567 17.4654 52.2554C17.6451 51.8484 17.4609 51.3727 17.0539 51.1929Z" fill="white"/>
</svg>
