<svg width="55" height="55" viewBox="0 0 55 55" fill="none" xmlns="http://www.w3.org/2000/svg">
<path fill-rule="evenodd" clip-rule="evenodd" d="M44.532 18.4941C45.6866 19.7013 45.8553 21.5214 44.9421 22.9202C44.5398 23.5367 44.4681 24.3107 44.75 24.9909C45.3905 26.5337 44.8904 28.2918 43.5336 29.2664C42.9357 29.6959 42.5892 30.3917 42.6068 31.1276C42.6466 32.7977 41.5451 34.2564 39.928 34.675C39.4506 34.7985 39.0359 35.0748 38.7387 35.4515L42.458 44.4302C42.9789 45.6877 41.8001 46.9844 40.4987 46.5849L36.427 45.3353C36.308 45.2988 36.1796 45.352 36.1214 45.4618L34.1258 49.2246C33.4883 50.4265 31.7383 50.3452 31.2168 49.0864L27.3404 39.7281C27.2895 39.7264 27.2387 39.7264 27.1878 39.7281L23.3114 49.0864C22.7909 50.3433 21.0408 50.4282 20.4025 49.2245L18.4069 45.4618C18.3487 45.3521 18.2203 45.2989 18.1013 45.3352L14.0296 46.5848C12.7288 46.9841 11.5492 45.6884 12.0704 44.4301L15.7895 35.4514C15.4923 35.0747 15.0776 34.7984 14.6003 34.6749C12.9831 34.2562 11.8815 32.7975 11.9214 31.1275C11.939 30.3916 11.5926 29.6958 10.9947 29.2662C9.63802 28.2917 9.13771 26.5336 9.77824 24.9908C10.0606 24.3108 9.98884 23.5368 9.58645 22.9204C8.67331 21.5216 8.84206 19.7014 9.99658 18.4941C10.5053 17.9621 10.7181 17.2144 10.5656 16.4943C10.2195 14.86 11.0343 13.2237 12.547 12.5151C13.2136 12.2028 13.6821 11.5825 13.8 10.8558C14.0676 9.20695 15.4184 7.97539 17.0851 7.86109C17.8196 7.81069 18.4803 7.40155 18.8528 6.76651C19.698 5.32561 21.4025 4.66528 22.9979 5.16073C23.7009 5.37907 24.465 5.23633 25.0417 4.77868C26.3503 3.74044 28.1781 3.74044 29.4868 4.77868C30.0636 5.23615 30.8275 5.37907 31.5306 5.16073C33.1263 4.66537 34.8304 5.3257 35.6756 6.76651C36.0482 7.40155 36.709 7.81069 37.4435 7.86109C39.11 7.97539 40.4609 9.20686 40.7285 10.8558C40.8465 11.5825 41.3149 12.2028 41.9816 12.5151C43.4944 13.2236 44.3092 14.8599 43.9629 16.4943C43.8105 17.2144 44.0231 17.962 44.532 18.4941ZM21.5952 48.5919C21.6985 48.7866 21.9798 48.7741 22.0645 48.5696L25.5028 40.2692C25.1887 40.3564 24.8683 40.401 24.5498 40.401C23.5427 40.401 22.5557 39.973 21.8552 39.1666C21.3724 38.6109 20.6476 38.3303 19.9165 38.4156C18.6063 38.5686 17.3618 38.0002 16.6173 36.9804L13.3178 44.9466C13.2332 45.1508 13.4226 45.3589 13.6338 45.2943L17.7056 44.0447C18.4421 43.8188 19.2387 44.1486 19.5997 44.8292L21.5952 48.5919ZM40.8949 45.2942L36.8232 44.0446C36.0868 43.8187 35.29 44.1486 34.9291 44.8291L32.9335 48.5919C32.8305 48.7863 32.5488 48.7737 32.4642 48.5695L29.0266 40.2707C30.3333 40.6334 31.7516 40.2275 32.6735 39.1664C33.1563 38.6107 33.8808 38.3299 34.6123 38.4154C35.9237 38.5686 37.1674 38.0001 37.9114 36.9803L41.2112 44.9462C41.296 45.1512 41.1054 45.3585 40.8949 45.2942ZM43.5037 25.5082C43.0502 24.416 43.1654 23.1727 43.8118 22.1824C44.3802 21.3116 44.2752 20.1785 43.5568 19.427C42.7394 18.5723 42.3977 17.3714 42.6427 16.2145C42.8582 15.1972 42.351 14.1785 41.4093 13.7375C40.3385 13.2357 39.586 12.2393 39.3964 11.072C39.2298 10.0456 38.3889 9.27895 37.3514 9.20776C36.1716 9.12676 35.11 8.46949 34.5117 7.44943C33.9856 6.55258 32.9245 6.14146 31.9314 6.44989C30.8018 6.80071 29.5746 6.57112 28.6483 5.83618C27.8335 5.1898 26.6955 5.1898 25.881 5.83618C24.9546 6.57121 23.7272 6.80062 22.5978 6.44989C21.605 6.14155 20.5438 6.55249 20.0175 7.44943C19.4192 8.46958 18.3576 9.12685 17.1778 9.20776C16.1403 9.27886 15.2994 10.0455 15.1328 11.072C14.9432 12.2393 14.1908 13.2357 13.1199 13.7374C12.1783 14.1785 11.671 15.1972 11.8865 16.2145C12.1315 17.3714 11.7897 18.5723 10.9724 19.427C10.2536 20.1785 10.1487 21.3116 10.717 22.1823C11.3634 23.1726 11.4786 24.4159 11.0252 25.5081C10.6264 26.4686 10.9379 27.5631 11.7824 28.1698C12.7429 28.8598 13.2995 29.9774 13.2712 31.1597C13.2464 32.1993 13.9321 33.1073 14.9388 33.3679C15.8802 33.6116 16.6707 34.2243 17.145 35.0527L17.1496 35.0612C17.25 35.2377 17.337 35.4234 17.4071 35.6181C17.7594 36.5966 18.7274 37.1958 19.7599 37.0749C19.8989 37.0586 20.038 37.0506 20.176 37.0506C21.2048 37.0506 22.1906 37.4943 22.8744 38.2814C23.5563 39.0663 24.6749 39.2755 25.5945 38.7899C25.9079 38.6244 26.2398 38.5095 26.5788 38.4432L26.5836 38.4422C27.0329 38.3549 27.4946 38.3548 27.9438 38.4418L27.9522 38.4436C28.2904 38.51 28.6216 38.6246 28.9344 38.7899C29.854 39.2754 30.9726 39.0663 31.6545 38.2814C32.4301 37.3887 33.5946 36.9375 34.769 37.0748C35.8025 37.196 36.7693 36.5964 37.1217 35.618C37.1918 35.4231 37.2789 35.2372 37.3794 35.0605L37.3833 35.0534C37.8575 34.2246 38.6483 33.6117 39.5899 33.3679C40.5967 33.1073 41.2825 32.1992 41.2576 31.1596C41.2294 29.9774 41.7859 28.8597 42.7464 28.1698C43.5911 27.563 43.9024 26.4686 43.5037 25.5082Z" fill="white"/>
<path d="M14.5525 21.2611C14.9269 21.3065 15.2685 21.0439 15.3145 20.6747C16.0696 14.6269 21.3093 10.0663 27.5025 10.0663C33.6987 10.0663 38.9387 14.6293 39.6913 20.6803C39.7338 21.0218 40.0286 21.2722 40.369 21.2722C40.3968 21.2722 40.4248 21.2705 40.4531 21.2671C40.8279 21.2218 41.0944 20.8857 41.0486 20.5164C40.212 13.7906 34.3885 8.71875 27.5025 8.71875C20.6198 8.71875 14.7966 13.7879 13.9573 20.5101C13.9113 20.8794 14.1777 21.2156 14.5525 21.2611Z" fill="white"/>
<path d="M40.4534 23.0695C40.0797 23.0245 39.7375 23.287 39.6916 23.6563C38.9393 29.7076 33.6992 34.2709 27.5027 34.2709C21.3091 34.2709 16.0693 29.7099 15.3145 23.6616C15.2685 23.2924 14.9275 23.0299 14.5525 23.0751C14.1778 23.1205 13.9112 23.4568 13.9573 23.8261C14.7962 30.5488 20.6194 35.6184 27.5026 35.6184C34.389 35.6184 40.2125 30.5462 41.0487 23.8201C41.0947 23.4508 40.8281 23.1147 40.4534 23.0695Z" fill="white"/>
<path fill-rule="evenodd" clip-rule="evenodd" d="M35.9442 18.4888C36.5063 18.5087 36.9816 18.8621 37.1554 19.3891C37.3291 19.9161 37.1553 20.4774 36.7124 20.819L32.4886 24.0775L33.9622 29.1604C34.1167 29.6934 33.9226 30.2482 33.4676 30.5738C33.0126 30.8996 32.4172 30.91 31.9509 30.6006L27.501 27.6488L23.0511 30.6008C22.5843 30.9106 21.9889 30.8994 21.5344 30.574C21.0794 30.2482 20.8852 29.6935 21.0397 29.1606L22.5133 24.0776L18.2895 20.8191C17.8467 20.4775 17.673 19.9161 17.8467 19.3891C18.0205 18.8621 18.4959 18.5087 19.0579 18.4888L24.4185 18.2993L26.258 13.3335C26.4508 12.8129 26.9387 12.4766 27.501 12.4766C28.0634 12.4766 28.5513 12.8129 28.7441 13.3335L30.5836 18.2993L35.9442 18.4888ZM31.166 24.4198C31.0172 23.9072 31.1965 23.3633 31.6227 23.0345L35.7749 19.8311L30.5052 19.6448C29.9644 19.6258 29.4952 19.2897 29.3096 18.7888L27.5013 13.9072L25.693 18.7888C25.5075 19.2897 25.0381 19.6258 24.4974 19.6449L19.2275 19.8312L23.3797 23.0345C23.8059 23.3633 23.9851 23.907 23.8364 24.4198L22.3878 29.4164L26.7622 26.5147C26.9866 26.3658 27.2439 26.2913 27.5012 26.2913C27.7585 26.2913 28.0157 26.3658 28.2403 26.5148L32.6146 29.4165L31.166 24.4198Z" fill="white"/>
</svg>
