<svg width="55" height="55" viewBox="0 0 55 55" fill="none" xmlns="http://www.w3.org/2000/svg">
<path fill-rule="evenodd" clip-rule="evenodd" d="M21.2396 35.4185L19.5827 33.7615C19.0105 33.1894 19.0105 32.2583 19.5826 31.686L20.6197 30.649C20.5437 30.4827 20.473 30.3122 20.4088 30.1399H18.9423C18.133 30.1399 17.4746 29.4815 17.4746 28.6722V26.329C17.4746 25.5197 18.133 24.8613 18.9423 24.8613H20.4088C20.473 24.6891 20.5436 24.5186 20.6197 24.3522L19.5828 23.3154C19.0105 22.7429 19.0105 21.8118 19.5827 21.2396L21.2396 19.5828C21.8132 19.009 22.7418 19.0091 23.3153 19.5828L24.3522 20.6197C24.5183 20.5437 24.6889 20.4731 24.8613 20.4088V18.9423C24.8613 18.133 25.5197 17.4746 26.329 17.4746H28.6722C29.4815 17.4746 30.1399 18.133 30.1399 18.9423V20.4088C30.3121 20.473 30.4826 20.5436 30.649 20.6197L31.6858 19.5827C32.2581 19.0106 33.1893 19.0104 33.7614 19.5827L35.4185 21.2396C35.9906 21.8118 35.9906 22.7429 35.4186 23.3151L34.3814 24.3522C34.4576 24.5187 34.5283 24.6892 34.5923 24.8613H36.0588C36.8682 24.8613 37.5266 25.5197 37.5266 26.329V28.6722C37.5266 29.4815 36.8682 30.1399 36.0588 30.1399H34.5923C34.5282 30.3121 34.4576 30.4826 34.3814 30.649L35.4184 31.6858C35.9906 32.2583 35.9906 33.1894 35.4185 33.7615L33.7615 35.4185C33.1893 35.9906 32.258 35.9903 31.686 35.4186L30.649 34.3814C30.4826 34.4576 30.3121 34.5282 30.1399 34.5923V36.0588C30.1399 36.8682 29.4815 37.5266 28.6722 37.5266H26.329C25.5197 37.5266 24.8613 36.8682 24.8613 36.0588V34.5923C24.6891 34.5282 24.5186 34.4576 24.3522 34.3814L23.3153 35.4185C22.7415 35.992 21.8134 35.992 21.2396 35.4185ZM19.0856 28.5282H20.5097C21.1287 28.5282 21.6835 28.9187 21.8904 29.4997C21.9573 29.6875 22.0343 29.8735 22.1194 30.0524C22.3841 30.6101 22.268 31.2787 21.8307 31.7162L20.8235 32.7234L22.2772 34.1771L23.2842 33.17C23.7217 32.7327 24.3902 32.6163 24.9478 32.8811C25.1271 32.9663 25.3131 33.0433 25.5011 33.1103C26.0819 33.3171 26.4724 33.8719 26.4724 34.4908V35.915H28.5284V34.4908C28.5284 33.8718 28.9189 33.317 29.5001 33.1101C29.6878 33.0433 29.8738 32.9663 30.0528 32.8812C30.6107 32.6165 31.2791 32.7326 31.7165 33.1699L32.7237 34.1771L34.1774 32.7234L33.1705 31.7164C32.7329 31.2787 32.6168 30.6101 32.8814 30.0528C32.9666 29.8735 33.0436 29.6875 33.1106 29.4995C33.3174 28.9187 33.8723 28.5282 34.4911 28.5282H35.9153V26.4722H34.4912C33.8723 26.4722 33.3174 26.0817 33.1105 25.5006C33.0436 25.313 32.9666 25.1269 32.8814 24.9476C32.6167 24.3902 32.7328 23.7216 33.1704 23.284L34.1774 22.277L32.7237 20.8233L31.7167 21.8303C31.279 22.2677 30.6106 22.3841 30.0531 22.1193C29.8738 22.0341 29.6878 21.9571 29.4999 21.8902C28.919 21.6833 28.5285 21.1285 28.5285 20.5096V19.0855H26.4725V20.5096C26.4725 21.1285 26.082 21.6833 25.501 21.8902C25.3129 21.9572 25.1268 22.0344 24.9483 22.1191C24.3903 22.3842 23.7217 22.2678 23.2842 21.8304L22.2772 20.8233L20.8235 22.277L21.8305 23.284C22.268 23.7215 22.3842 24.3901 22.1195 24.9476C22.0343 25.1269 21.9573 25.3129 21.8904 25.5009C21.6835 26.0817 21.1287 26.4722 20.5097 26.4722H19.0856V28.5282Z" fill="white"/>
<path fill-rule="evenodd" clip-rule="evenodd" d="M31.8003 27.5002C31.8003 29.8713 29.8713 31.8003 27.5003 31.8003C25.1293 31.8003 23.2002 29.8713 23.2002 27.5002C23.2002 25.1292 25.1293 23.2002 27.5003 23.2002C29.8713 23.2002 31.8003 25.1292 31.8003 27.5002ZM30.1895 27.5003C30.1895 26.0179 28.9833 24.8116 27.5008 24.8116C26.0182 24.8116 24.812 26.0178 24.812 27.5003C24.812 28.9828 26.0182 30.1891 27.5008 30.1891C28.9832 30.1891 30.1895 28.9829 30.1895 27.5003Z" fill="white"/>
<path fill-rule="evenodd" clip-rule="evenodd" d="M10.1211 20.2423C15.7167 20.2423 20.2423 15.695 20.2423 10.1212C20.2423 4.5403 15.7019 0 10.1211 0C4.5403 0 0 4.5403 0 10.1211C0 15.6975 4.53708 20.2423 10.1211 20.2423ZM15.5134 16.6985C13.9883 17.9511 12.0898 18.6308 10.1205 18.6308C8.19377 18.6308 6.28445 17.9772 4.72769 16.6986C4.72769 15.0304 6.04286 13.8719 7.50541 13.8719H12.7356C14.1996 13.8717 15.5134 15.0316 15.5134 16.6985ZM18.6305 10.1212C18.6305 5.42891 14.813 1.61145 10.1206 1.61145C5.42832 1.61145 1.61086 5.42891 1.61086 10.1212C1.61086 12.0505 2.25722 13.831 3.34326 15.26C3.92613 13.5192 5.5712 12.2607 7.50554 12.2607H12.7357C14.6703 12.2607 16.3152 13.5192 16.8981 15.26C17.9841 13.831 18.6305 12.0505 18.6305 10.1212Z" fill="white"/>
<path fill-rule="evenodd" clip-rule="evenodd" d="M44.88 34.7578C39.2992 34.7578 34.7588 39.2982 34.7588 44.879C34.7588 50.4576 39.291 55.0001 44.88 55.0001C50.4408 55.0001 55.0011 50.48 55.0011 44.879C55.0011 39.2982 50.4608 34.7578 44.88 34.7578ZM50.2727 51.4568C47.1478 54.0235 42.6366 54.0438 39.487 51.4568C39.487 49.7886 40.8022 48.6302 42.2647 48.6302H47.4949C48.9591 48.6301 50.2727 49.7898 50.2727 51.4568ZM47.495 47.0186C49.4295 47.0186 51.0744 48.277 51.6573 50.0178C52.7433 48.5889 53.3897 46.8084 53.3898 44.8791C53.3898 40.1866 49.5723 36.3692 44.88 36.3692C40.1876 36.3692 36.3702 40.1866 36.3702 44.8791C36.3702 46.8084 37.0165 48.5889 38.1027 50.0178C38.6855 48.277 40.3305 47.0186 42.2648 47.0186H47.495Z" fill="white"/>
<path fill-rule="evenodd" clip-rule="evenodd" d="M11.8169 4.01519C13.1067 5.30489 13.1066 7.39235 11.8169 8.68205C10.5271 9.97193 8.43951 9.97166 7.1499 8.68205C5.86011 7.39217 5.8602 5.3048 7.15008 4.01519C8.43978 2.72522 10.5273 2.72558 11.8169 4.01519H11.8169ZM10.8622 4.96964C10.1019 4.20932 8.86485 4.20932 8.10453 4.96964C7.34232 5.73185 7.34241 6.9653 8.10444 7.72742C8.86494 8.48765 10.102 8.48765 10.8622 7.72742C11.6244 6.96521 11.6243 5.73176 10.8623 4.96964H10.8622Z" fill="white"/>
<path fill-rule="evenodd" clip-rule="evenodd" d="M11.8165 43.4405C10.5298 44.7271 8.436 44.7269 7.14963 43.4405C5.8629 42.1538 5.8629 40.0601 7.14954 38.7735C8.43618 37.487 10.5298 37.487 11.8164 38.7735H11.8165C13.1031 40.0601 13.1031 42.1538 11.8165 43.4405ZM10.8619 39.7281C10.1015 38.9678 8.86458 38.9678 8.10408 39.7281C7.34385 40.4884 7.34385 41.7256 8.10417 42.4859C8.86449 43.2463 10.1017 43.2463 10.8619 42.4859C11.6222 41.7256 11.6222 40.4884 10.8619 39.7281Z" fill="white"/>
<path fill-rule="evenodd" clip-rule="evenodd" d="M41.9083 8.68269C40.6217 7.39605 40.6217 5.30247 41.9083 4.01583C43.1949 2.72919 45.2886 2.72901 46.5753 4.01583H46.5752C47.8651 5.30553 47.865 7.39299 46.5752 8.68269C45.29 9.96807 43.1963 9.97068 41.9083 8.68269ZM42.8629 7.72815C43.6234 8.48856 44.8605 8.48847 45.6207 7.72815C46.3829 6.96603 46.3828 5.73258 45.6208 4.97037H45.6207C44.8605 4.21005 43.6231 4.21005 42.8629 4.97037C42.1026 5.73069 42.1026 6.96783 42.8629 7.72815Z" fill="white"/>
<path fill-rule="evenodd" clip-rule="evenodd" d="M41.9083 38.7736C43.1949 37.4869 45.2887 37.487 46.5752 38.7735C47.8619 40.0602 47.8619 42.1538 46.5753 43.4406C45.2886 44.7271 43.195 44.7272 41.9084 43.4406C40.6217 42.1539 40.6217 40.0603 41.9083 38.7736ZM42.8629 42.486C43.6234 43.2463 44.8605 43.2463 45.6208 42.4859C46.381 41.7256 46.381 40.4884 45.6207 39.7282C44.8603 38.9678 43.6232 38.9679 42.8628 39.7282C42.1027 40.4885 42.1027 41.7257 42.8629 42.486Z" fill="white"/>
<path d="M32.5684 10.9268C33.0135 10.9268 33.3741 10.566 33.3741 10.1211C33.3741 9.67615 33.0135 9.31543 32.5684 9.31543H22.4297C21.9846 9.31543 21.624 9.67615 21.624 10.1211C21.624 10.566 21.9846 10.9268 22.4297 10.9268H32.5684Z" fill="white"/>
<path d="M22.4297 44.0732C21.9846 44.0732 21.624 44.4339 21.624 44.8789C21.624 45.324 21.9846 45.6846 22.4297 45.6846H32.5684C33.0135 45.6846 33.3741 45.324 33.3741 44.8789C33.3741 44.4339 33.0135 44.0732 32.5684 44.0732H22.4297Z" fill="white"/>
<path d="M10.9268 32.5694V22.4307C10.9268 21.9856 10.5661 21.625 10.1211 21.625C9.67605 21.625 9.31543 21.9856 9.31543 22.4307V32.5694C9.31543 33.0144 9.67605 33.375 10.1211 33.375C10.5661 33.375 10.9268 33.0144 10.9268 32.5694Z" fill="white"/>
<path d="M45.6856 32.5694V22.4307C45.6856 21.9856 45.3249 21.625 44.8799 21.625C44.4348 21.625 44.0742 21.9856 44.0742 22.4307V32.5694C44.0742 33.0144 44.4348 33.375 44.8799 33.375C45.3249 33.375 45.6856 33.0144 45.6856 32.5694Z" fill="white"/>
<path fill-rule="evenodd" clip-rule="evenodd" d="M54.1762 9.11519C53.7401 9.20081 53.3163 8.91571 53.231 8.47904C52.4534 4.49959 48.9413 1.61133 44.88 1.61133C40.1877 1.61133 36.3701 5.42879 36.3702 10.1211C36.3702 12.0504 37.0165 13.8309 38.1026 15.2598C38.6855 13.5191 40.3306 12.2606 42.2649 12.2606H47.4951C49.4283 12.2606 51.0726 13.5176 51.6563 15.2568C52.3946 14.2895 52.9333 13.1571 53.1997 11.9153C53.2931 11.4802 53.7219 11.2035 54.1564 11.2965C54.5915 11.3897 54.8685 11.8181 54.7752 12.2532C53.7817 16.8843 49.6595 20.2422 44.88 20.2422C39.3177 20.2422 34.7588 15.7288 34.7588 10.1211C34.7588 4.5403 39.2992 0 44.88 0C49.7101 0 53.8873 3.436 54.8123 8.16999C54.8977 8.60666 54.6129 9.0299 54.1762 9.11519ZM47.495 13.8719H42.2648C40.8022 13.8719 39.487 15.0304 39.487 16.6986C41.0631 17.9932 42.9809 18.6309 44.8799 18.6309C46.8963 18.6309 48.7874 17.9072 50.2727 16.6891V16.6497C50.2727 15.118 49.0267 13.8719 47.495 13.8719Z" fill="white"/>
<path fill-rule="evenodd" clip-rule="evenodd" d="M16.9593 43.268C16.9593 47.9421 13.1592 51.7476 8.47962 51.7476C3.78981 51.7476 0 47.9352 0 43.268C0 39.2584 2.84679 35.7649 6.76908 34.961C7.13448 34.8866 7.49115 35.1216 7.56594 35.4868C7.64073 35.852 7.40538 36.2088 7.04016 36.2837C3.74301 36.9592 1.35 39.8966 1.35 43.268C1.35 44.8844 1.89153 46.3762 2.80143 47.5734C3.28977 46.1149 4.66803 45.0606 6.28866 45.0606H10.6706C12.2913 45.0606 13.6695 46.1149 14.1578 47.5734C15.0678 46.3761 15.6093 44.8843 15.6093 43.268C15.6093 39.8967 13.2162 36.9593 9.91908 36.2837C9.55386 36.2087 9.31842 35.852 9.3933 35.4868C9.46818 35.1216 9.82548 34.8868 10.1902 34.961C14.1124 35.7649 16.9593 39.2584 16.9593 43.268ZM10.6706 46.4106H6.28866C5.06331 46.4106 3.96144 47.3811 3.96144 48.7787C6.60375 50.9491 10.3843 50.9254 12.9979 48.7787C12.9979 47.3822 11.8973 46.4106 10.6706 46.4106Z" fill="white"/>
</svg>
