<svg width="16" height="16" viewBox="0 0 16 16" fill="none" xmlns="http://www.w3.org/2000/svg">
<path d="M8.00003 10.5004V10.8406C5.68516 10.7048 3.81366 9.36672 3.81366 7.89487C3.81366 6.42295 5.68896 5.3314 8.00003 5.47859V5.13456C10.3111 5.28175 12.1845 6.60075 12.1845 8.08028C12.1845 9.55988 10.3092 10.6476 7.99818 10.5004H8.00003ZM8.00003 12.9013V11.7085C4.27812 11.4695 1.25985 9.34955 1.25985 6.96588C1.25985 4.58207 4.27627 2.83871 7.99615 3.07383V4.26666C5.01611 4.07742 2.59796 5.47477 2.59796 7.3845C2.59796 9.29414 5.01611 10.9974 7.99818 11.1866V11.7085C10.9802 11.8996 13.3964 10.5004 13.3964 8.59073C13.3964 6.68101 10.9783 4.97007 7.99615 4.77897V4.26666C11.7161 4.50179 14.7307 6.62554 14.7326 9.0112C14.7345 11.3969 11.7181 13.1364 7.99818 12.9013H8.00003ZM8.00003 -2.38419e-07C3.58175 -2.38419e-07 0 3.58174 0 8.00001C0 12.4182 3.58175 16 8.00003 16C12.4183 16 16 12.4182 16 8.00001C16 3.58174 12.4183 -2.38419e-07 8.00003 -2.38419e-07Z" fill="#1A1B1B"/>
<path d="M7.99817 9.38971C9.68409 9.4968 11.0567 8.7073 11.0567 7.6253C11.0567 6.54332 9.68409 5.58378 7.99817 5.47679V6.58544C6.3121 6.47835 4.93964 7.2698 4.93964 8.34985C4.93964 9.42982 6.3121 10.3914 7.99817 10.4985V9.38971Z" fill="#1A1B1B"/>
</svg>
