<svg viewBox="0 0 286 84" fill="none" xmlns="http://www.w3.org/2000/svg" height="70%">
  <path
    d="M41.8 0C18.7 0 0 18.7 0 41.8C0 64.9 18.7 83.6 41.8 83.6C64.9 83.6 83.6 64.9 83.6 41.8C83.6 18.7 64.9 0 41.8 0ZM41.8 67.5V61.3C22.3 60.1 6.5 49 6.5 36.5C6.5 24 22.3 14.9 41.7 16.1V22.3C26.1 21.3 13.5 28.6 13.5 38.6C13.5 48.6 26.2 57.5 41.7 58.5V61.2C57.3 62.2 69.9 54.9 69.9 44.9C69.9 34.9 57.4 26 41.8 25V22.3C61.3 23.5 77 34.6 77 47.1C77 59.6 61.2 68.8 41.8 67.5ZM41.8 55V56.8C29.7 56 19.9 49 19.9 41.3C19.9 33.6 29.7 27.9 41.8 28.7V26.9C53.9 27.7 63.7 34.6 63.7 42.3C63.7 50 53.9 55.8 41.8 55Z" />
  <path
    d="M41.8 49.2C50.6 49.8 57.8 45.6 57.8 40C57.8 34.4 50.6 29.3 41.8 28.8V34.6C33 34 25.8 38.2 25.8 43.8C25.8 49.4 33 54.5 41.8 55V49.2Z" />
  <path
    d="M127.6 68.8C112.5 68.8 103.1 58.1 103.1 43.5C103.1 29.7 111 17.2 127.6 17.2C132.5 17.1 137.3 18.1 141.8 20.1L138.2 29.1C135.1 27.4 131.7 26.5 128.3 26.4C118 26.4 114.5 35.4 114.5 43.2C114.5 53.5 121.3 59.5 129.1 59.5C132.6 59.5 136.1 58.6 139.1 56.8L141.9 65.3C137.4 67.5 132.5 68.6 127.6 68.8Z" />
  <path
    d="M163.2 18.2H148.8V67.7H162.7C177.8 67.7 193.2 63.5 193.2 41.8C193.2 18.5 172.7 18.2 163.2 18.2ZM165.1 59.1H159.8V26.8H164.8C171.5 26.8 182 28.6 182 42.5C181.9 55.5 174.6 59.1 165.1 59.1Z" />
  <path
    d="M213.8 18.2H199.6V67.7H210.5V50.3H214.6C223.1 50.3 235.1 47.9 235.1 33.5C235 17.5 217.7 18.2 213.8 18.2ZM214.8 41.7H210.4V26.4H214.6C218.2 26.4 224.1 27.2 224.1 34C224.2 40.4 218.9 41.6 214.8 41.7Z" />
  <path
    d="M281.8 76.7C278.5 73.6 275.5 70.3 272.6 66.9C279.8 63.6 285.8 56.2 285.8 42.9C285.8 23.4 275.1 16.8 262.8 16.8C252.2 16.8 239.7 23.6 239.7 42.9C239.7 62.4 250.4 69 262.7 69H263.8C265.1 71 267.4 74.3 269.3 76.7H281.8ZM251 42.8C251 33.6 253.7 25.6 262.8 25.6C271.9 25.6 274.6 33.6 274.6 42.8C274.6 52 271.9 60 262.8 60C253.7 60 251 52.1 251 42.8Z" />
</svg>
