<svg width="24" height="25" viewBox="0 0 24 25" fill="none" xmlns="http://www.w3.org/2000/svg">
<path fill-rule="evenodd" clip-rule="evenodd" d="M12.0004 14.0196L3.62365 22.3963C3.55696 22.463 3.46632 22.5003 3.37168 22.5C3.27704 22.4997 3.18615 22.4618 3.11901 22.3946L2.10634 21.382C2.0392 21.3148 2.0013 21.2239 2.00098 21.1293C2.00066 21.0346 2.03795 20.944 2.10465 20.8773L10.4814 12.5006L2.10545 4.12471C2.03876 4.05801 2.00147 3.96738 2.00179 3.87274C2.0021 3.7781 2.04 3.68721 2.10715 3.62007L3.11982 2.6074C3.18696 2.54026 3.27785 2.50236 3.37249 2.50204C3.46713 2.50172 3.55776 2.53901 3.62446 2.6057L12.0004 10.9816L20.3783 2.60367C20.445 2.53697 20.5356 2.49968 20.6303 2.5C20.7249 2.50032 20.8158 2.53822 20.8829 2.60536L21.8956 3.61803C21.9627 3.68518 22.0006 3.77607 22.001 3.87071C22.0013 3.96534 21.964 4.05598 21.8973 4.12267L13.5194 12.5006L21.8981 20.8794C21.9648 20.946 22.0021 21.0367 22.0018 21.1313C22.0015 21.226 21.9636 21.3168 21.8964 21.384L20.8837 22.3967C20.8166 22.4638 20.7257 22.5017 20.6311 22.502C20.5364 22.5023 20.4458 22.4651 20.3791 22.3984L12.0004 14.0196Z" fill="white"/>
</svg>
