<svg width="200" height="201" viewBox="0 0 200 201" fill="none" xmlns="http://www.w3.org/2000/svg">
<path d="M188.293 154V188.297H154V200.005H200V154H188.293Z" fill="#375BF0"/>
<path d="M0 0V46.0035H11.7064V11.7058H46V0H0Z" fill="#375BF0"/>
<path d="M9.05404 150.731H2.21041V154.74H8.32713V155.894H2.21041V160.783H0.935646V149.56H9.05404V150.731Z" fill="white"/>
<path fill-rule="evenodd" clip-rule="evenodd" d="M13.1694 150.682H11.7493V149.319H13.1694V150.682ZM13.0715 160.784H11.8288V152.495H13.0715V160.784Z" fill="white"/>
<path d="M17.6076 160.784H16.365V152.495H17.6076V154.658C17.7576 154.318 17.9459 154.002 18.1723 153.713C18.3973 153.424 18.6559 153.176 18.9467 152.968C19.2374 152.759 19.5542 152.601 19.8986 152.495C20.2413 152.387 20.6132 152.34 21.0126 152.351V153.681H20.9147C20.4632 153.681 20.0363 153.761 19.6323 153.921C19.2283 154.082 18.8763 154.322 18.5763 154.643C18.2749 154.964 18.0377 155.362 17.8647 155.838C17.6933 156.312 17.6076 156.861 17.6076 157.482V160.784Z" fill="white"/>
<path d="M30.4281 153.328C30.6179 153.125 30.8291 152.948 31.0663 152.799C31.3035 152.649 31.5698 152.532 31.8651 152.447C32.162 152.362 32.4926 152.317 32.8568 152.317C33.8255 152.317 34.5845 152.615 35.1339 153.208C35.6818 153.801 35.9572 154.616 35.9572 155.653V160.784H34.7146V155.942C34.7146 155.139 34.5233 154.523 34.1407 154.09C33.7581 153.657 33.2286 153.441 32.5507 153.441C32.2385 153.441 31.9432 153.497 31.6646 153.608C31.3846 153.721 31.1397 153.886 30.9286 154.105C30.7189 154.324 30.5521 154.595 30.4281 154.916C30.3057 155.236 30.243 155.6 30.243 156.006V160.784H29.0156V155.91C29.0156 155.13 28.8244 154.523 28.4448 154.09C28.0623 153.657 27.5373 153.441 26.8701 153.441C26.538 153.441 26.2304 153.505 25.9504 153.632C25.6703 153.762 25.4255 153.943 25.2158 154.178C25.0062 154.414 24.8424 154.689 24.7231 155.004C24.6052 155.319 24.5471 155.67 24.5471 156.054V160.784H23.3045V152.495H24.5471V153.889C24.6863 153.686 24.8394 153.488 25.0062 153.297C25.173 153.103 25.3643 152.935 25.5801 152.79C25.7943 152.647 26.0361 152.532 26.3054 152.447C26.5732 152.362 26.887 152.317 27.242 152.317C27.9199 152.317 28.4785 152.476 28.9192 152.79C29.3615 153.106 29.6936 153.5 29.9201 153.97C30.0716 153.745 30.2414 153.532 30.4281 153.328Z" fill="white"/>
<path fill-rule="evenodd" clip-rule="evenodd" d="M40.7987 159.172C40.5278 158.932 40.3075 158.637 40.1376 158.291C39.9647 157.944 39.8576 157.544 39.8132 157.096H46.4135C46.4257 157.021 46.4303 156.951 46.4303 156.887V156.711C46.4303 156.101 46.3446 155.53 46.1732 154.995C46.0003 154.461 45.7478 153.996 45.4142 153.601C45.0806 153.205 44.672 152.892 44.1869 152.663C43.7033 152.433 43.1539 152.317 42.5418 152.317C41.9602 152.317 41.4246 152.43 40.9364 152.655C40.4452 152.88 40.0244 153.187 39.6678 153.576C39.3143 153.967 39.0358 154.426 38.8384 154.955C38.6379 155.484 38.5384 156.048 38.5384 156.647C38.5384 157.289 38.6501 157.876 38.8736 158.411C39.097 158.946 39.3985 159.402 39.778 159.782C40.1575 160.162 40.5982 160.456 41.1048 160.664C41.6098 160.872 42.1485 160.976 42.7193 160.976C43.515 160.976 44.1823 160.834 44.7209 160.551C45.2581 160.269 45.7371 159.892 46.1564 159.42L45.3821 158.732C45.0377 159.084 44.6582 159.367 44.2435 159.581C43.8288 159.796 43.3314 159.902 42.7514 159.902C42.3857 159.902 42.0352 159.84 41.7016 159.717C41.368 159.595 41.0665 159.413 40.7987 159.172ZM44.923 155.109C45.0469 155.451 45.1234 155.808 45.1556 156.182H39.8132C39.856 155.776 39.9524 155.402 40.1024 155.06C40.2524 154.718 40.4452 154.422 40.6794 154.171C40.9166 153.918 41.189 153.721 41.4996 153.576C41.8087 153.432 42.1454 153.36 42.5081 153.36C42.9259 153.36 43.2916 153.438 43.6084 153.593C43.9236 153.748 44.1915 153.953 44.4103 154.21C44.6291 154.467 44.8005 154.767 44.923 155.109Z" fill="white"/>
<path fill-rule="evenodd" clip-rule="evenodd" d="M60.9565 159.116V160.784H62.1991V149.079H60.9565V154.081C60.7943 153.847 60.6091 153.622 60.3979 153.409C60.1898 153.195 59.9557 153.008 59.697 152.846C59.4399 152.687 59.1492 152.558 58.8263 152.462C58.5034 152.366 58.1484 152.317 57.7612 152.317C57.2562 152.317 56.7649 152.416 56.2921 152.615C55.8192 152.813 55.3938 153.096 55.0173 153.464C54.6408 153.833 54.3394 154.285 54.1129 154.82C53.8879 155.353 53.7747 155.963 53.7747 156.647C53.7747 157.331 53.8879 157.941 54.1129 158.475C54.3394 159.01 54.6408 159.461 55.0173 159.829C55.3938 160.199 55.8192 160.478 56.2921 160.671C56.7649 160.863 57.2562 160.96 57.7612 160.96C58.1484 160.96 58.5003 160.912 58.8186 160.816C59.1354 160.718 59.4231 160.586 59.6817 160.414C59.9388 160.244 60.173 160.047 60.3826 159.822C60.5938 159.597 60.7836 159.362 60.9565 159.116ZM60.0766 154.318C60.3612 154.595 60.5877 154.929 60.7545 155.323C60.9213 155.717 61.0039 156.152 61.0039 156.63C61.0039 157.109 60.9213 157.549 60.7545 157.947C60.5877 158.345 60.3612 158.684 60.0766 158.959C59.7904 159.236 59.469 159.452 59.1079 159.607C58.7482 159.761 58.3748 159.837 57.9877 159.837C57.5882 159.837 57.2133 159.762 56.8568 159.615C56.5017 159.466 56.1911 159.25 55.9202 158.969C55.6524 158.686 55.4381 158.348 55.2836 157.955C55.1275 157.561 55.0494 157.12 55.0494 156.63C55.0494 156.132 55.1275 155.682 55.2836 155.282C55.4381 154.884 55.6493 154.549 55.9141 154.278C56.1773 154.006 56.4849 153.8 56.8414 153.655C57.1965 153.512 57.5775 153.441 57.9877 153.441C58.3748 153.441 58.7482 153.517 59.1079 153.672C59.469 153.825 59.7904 154.041 60.0766 154.318Z" fill="white"/>
<path fill-rule="evenodd" clip-rule="evenodd" d="M67.1217 159.172C66.8524 158.932 66.6305 158.637 66.4606 158.291C66.2877 157.944 66.1806 157.544 66.1362 157.096H72.7365C72.7488 157.021 72.7533 156.951 72.7533 156.887V156.711C72.7533 156.101 72.6676 155.53 72.4962 154.995C72.3233 154.461 72.0708 153.996 71.7372 153.601C71.4051 153.205 70.995 152.892 70.5099 152.663C70.0263 152.433 69.4769 152.317 68.8648 152.317C68.2833 152.317 67.7476 152.43 67.2595 152.655C66.7682 152.88 66.3474 153.187 65.9924 153.576C65.6373 153.967 65.3588 154.426 65.1614 154.955C64.9609 155.484 64.8615 156.048 64.8615 156.647C64.8615 157.289 64.9732 157.876 65.1966 158.411C65.4215 158.946 65.7215 159.402 66.101 159.782C66.4805 160.162 66.9213 160.456 67.4278 160.664C67.9328 160.872 68.4715 160.976 69.0423 160.976C69.8381 160.976 70.5053 160.834 71.044 160.551C71.5811 160.269 72.0601 159.892 72.4794 159.42L71.7051 158.732C71.3607 159.084 70.9812 159.367 70.5665 159.581C70.1518 159.796 69.6544 159.902 69.0744 159.902C68.7087 159.902 68.3582 159.84 68.0246 159.717C67.691 159.595 67.3895 159.413 67.1217 159.172ZM71.246 155.109C71.3699 155.451 71.4464 155.808 71.4786 156.182H66.1362C66.1791 155.776 66.2755 155.402 66.4254 155.06C66.5754 154.718 66.7682 154.422 67.0024 154.171C67.2396 153.918 67.512 153.721 67.8226 153.576C68.1318 153.432 68.4684 153.36 68.8326 153.36C69.2489 153.36 69.6162 153.438 69.9314 153.593C70.2467 153.748 70.5145 153.953 70.7333 154.21C70.9522 154.467 71.1235 154.767 71.246 155.109Z" fill="white"/>
<path d="M1.96846 179.109H0.725838V170.82H1.96846V172.984C2.11997 172.642 2.30667 172.327 2.53316 172.038C2.75811 171.749 3.01827 171.501 3.3075 171.292C3.59826 171.085 3.91657 170.927 4.2609 170.82C4.60369 170.712 4.97556 170.665 5.37345 170.676V172.006H5.2755C4.82406 172.006 4.3971 172.087 3.99309 172.246C3.58908 172.408 3.23864 172.648 2.93716 172.969C2.63569 173.289 2.39849 173.688 2.22709 174.163C2.05416 174.638 1.96846 175.187 1.96846 175.807V179.109Z" fill="white"/>
<path fill-rule="evenodd" clip-rule="evenodd" d="M9.05404 177.498C8.78317 177.258 8.56281 176.963 8.39141 176.616C8.22001 176.269 8.11289 175.87 8.06851 175.421H14.6688C14.6811 175.347 14.6857 175.277 14.6857 175.213V175.036C14.6857 174.427 14.6 173.855 14.4286 173.32C14.2556 172.786 14.0031 172.321 13.6695 171.926C13.3359 171.531 12.9273 171.217 12.4422 170.988C11.9586 170.758 11.4092 170.643 10.7971 170.643C10.2156 170.643 9.67995 170.755 9.19177 170.98C8.70054 171.205 8.2797 171.512 7.92313 171.902C7.56962 172.292 7.2911 172.751 7.09369 173.28C6.89322 173.81 6.79375 174.374 6.79375 174.973C6.79375 175.614 6.90546 176.201 7.12889 176.736C7.35232 177.271 7.65379 177.727 8.03331 178.107C8.41283 178.486 8.85357 178.779 9.36011 178.989C9.86512 179.197 10.4038 179.301 10.9746 179.301C11.7704 179.301 12.4376 179.159 12.9763 178.877C13.5134 178.594 13.9924 178.217 14.4117 177.746L13.6374 177.057C13.2931 177.41 12.9135 177.692 12.4988 177.907C12.0841 178.12 11.5867 178.228 11.0067 178.228C10.641 178.228 10.2905 178.165 9.95694 178.042C9.62332 177.92 9.32185 177.738 9.05404 177.498ZM13.1783 173.433C13.3022 173.775 13.3787 174.133 13.4109 174.507H8.06851C8.11136 174.101 8.20777 173.727 8.35774 173.385C8.50771 173.043 8.70054 172.747 8.93468 172.496C9.17188 172.244 9.44428 172.046 9.75493 171.902C10.0641 171.757 10.4007 171.686 10.7649 171.686C11.1812 171.686 11.5469 171.763 11.8637 171.918C12.179 172.073 12.4468 172.279 12.6656 172.536C12.8845 172.791 13.0559 173.092 13.1783 173.433Z" fill="white"/>
<path d="M23.0071 178.846C22.473 179.15 21.8135 179.301 21.0284 179.301C20.4147 179.301 19.8485 179.187 19.3251 178.957C18.8048 178.727 18.3534 178.417 17.9708 178.027C17.5882 177.636 17.2898 177.18 17.0756 176.655C16.8598 176.132 16.7527 175.576 16.7527 174.988C16.7527 174.401 16.8598 173.841 17.0756 173.312C17.2898 172.783 17.5882 172.321 17.9708 171.926C18.3534 171.53 18.8048 171.217 19.3251 170.988C19.8485 170.758 20.4147 170.643 21.0284 170.643C21.4263 170.643 21.7874 170.681 22.1103 170.755C22.4332 170.831 22.7286 170.934 22.9979 171.068C23.2673 171.202 23.5152 171.36 23.7417 171.541C23.9666 171.724 24.1763 171.915 24.3691 172.119L23.5473 172.984C23.2137 172.642 22.8495 172.348 22.4577 172.102C22.0644 171.857 21.5839 171.734 21.0131 171.734C20.5938 171.734 20.2005 171.816 19.8347 171.982C19.4705 172.146 19.1522 172.376 18.8829 172.669C18.6135 172.963 18.4039 173.303 18.2539 173.692C18.1024 174.081 18.0259 174.501 18.0259 174.948C18.0259 175.397 18.1055 175.818 18.26 176.211C18.4177 176.607 18.6319 176.95 18.9074 177.244C19.1813 177.536 19.5042 177.765 19.8745 177.931C20.2464 178.097 20.6519 178.179 21.0927 178.179C21.6313 178.179 22.1073 178.062 22.5235 177.826C22.9367 177.592 23.3116 177.297 23.6437 176.944L24.4349 177.682C24.0156 178.154 23.5381 178.542 23.0071 178.846Z" fill="white"/>
<path d="M28.1305 179.109H26.8879V170.82H28.1305V172.984C28.2805 172.642 28.4687 172.327 28.6952 172.038C28.9202 171.749 29.1788 171.501 29.4695 171.292C29.7588 171.085 30.0771 170.927 30.4214 170.82C30.7657 170.712 31.1376 170.665 31.5355 170.676V172.006H31.4391C30.9861 172.006 30.5591 172.087 30.1551 172.246C29.7527 172.408 29.3991 172.648 29.0992 172.969C28.7962 173.289 28.5605 173.688 28.3876 174.163C28.2162 174.638 28.1305 175.187 28.1305 175.807V179.109Z" fill="white"/>
<path d="M39.7497 170.82H40.977V179.108H39.7497V177.666C39.4711 178.114 39.1054 178.497 38.6524 178.812C38.201 179.127 37.6149 179.285 36.8941 179.285C36.3875 179.285 35.9392 179.206 35.5459 179.045C35.1526 178.885 34.8205 178.657 34.5466 178.364C34.2711 178.069 34.0614 177.719 33.9161 177.313C33.7707 176.907 33.6972 176.459 33.6972 175.966V170.82H34.9398V175.662C34.9398 176.431 35.1403 177.041 35.5382 177.489C35.9361 177.938 36.5069 178.163 37.2476 178.163C37.6041 178.163 37.9347 178.102 38.2408 177.979C38.5468 177.856 38.8116 177.679 39.0319 177.45C39.2523 177.22 39.4283 176.944 39.5553 176.624C39.6869 176.304 39.7497 175.951 39.7497 175.565V170.82Z" fill="white"/>
<path d="M45.8514 176.752C45.8514 177.266 45.9799 177.623 46.2386 177.827C46.4972 178.029 46.8354 178.131 47.2547 178.131C47.4705 178.131 47.6725 178.109 47.8592 178.067C48.0489 178.024 48.251 177.948 48.4652 177.842V178.9C48.251 179.018 48.0214 179.107 47.7796 179.164C47.5378 179.224 47.2654 179.253 46.9639 179.253C46.6303 179.253 46.3197 179.21 46.0289 179.125C45.7382 179.04 45.4887 178.903 45.2775 178.716C45.0679 178.529 44.9041 178.286 44.7863 177.986C44.6669 177.687 44.6088 177.329 44.6088 176.913V171.91H43.4473V170.819H44.6088V168.319H45.8514V170.819H48.4973V171.91H45.8514V176.752Z" fill="white"/>
<path fill-rule="evenodd" clip-rule="evenodd" d="M52.5969 177.498C52.3261 177.258 52.1057 176.963 51.9358 176.616C51.7629 176.269 51.6558 175.87 51.6114 175.421H58.2117C58.224 175.347 58.2285 175.277 58.2285 175.213V175.036C58.2285 174.427 58.1428 173.855 57.9714 173.32C57.7985 172.786 57.546 172.321 57.2124 171.926C56.8788 171.531 56.4702 171.217 55.9851 170.988C55.5015 170.758 54.9521 170.643 54.34 170.643C53.7585 170.643 53.2228 170.755 52.7347 170.98C52.2434 171.205 51.8226 171.512 51.466 171.902C51.1125 172.292 50.834 172.751 50.6366 173.28C50.4361 173.81 50.3366 174.374 50.3366 174.973C50.3366 175.614 50.4484 176.201 50.6718 176.736C50.8952 177.271 51.1967 177.727 51.5762 178.107C51.9557 178.486 52.3965 178.779 52.903 178.989C53.408 179.197 53.9467 179.301 54.5175 179.301C55.3133 179.301 55.9805 179.159 56.5192 178.877C57.0563 178.594 57.5353 178.217 57.9546 177.746L57.1803 177.057C56.8359 177.41 56.4564 177.692 56.0417 177.907C55.627 178.12 55.1296 178.228 54.5496 178.228C54.1839 178.228 53.8334 178.165 53.4998 178.042C53.1662 177.92 52.8647 177.738 52.5969 177.498ZM56.7212 173.433C56.8451 173.775 56.9216 174.133 56.9538 174.507H51.6114C51.6542 174.101 51.7507 173.727 51.9006 173.385C52.0506 173.043 52.2434 172.747 52.4776 172.496C52.7148 172.244 52.9872 172.046 53.2978 171.902C53.6069 171.757 53.9436 171.686 54.3063 171.686C54.7241 171.686 55.0914 171.763 55.4066 171.918C55.7219 172.073 55.9897 172.279 56.2085 172.536C56.4273 172.791 56.5987 173.092 56.7212 173.433Z" fill="white"/>
<path d="M67.9369 171.654C68.1267 171.45 68.3379 171.274 68.5736 171.125C68.8108 170.974 69.077 170.857 69.3739 170.772C69.6693 170.687 69.9998 170.643 70.3656 170.643C71.3343 170.643 72.0933 170.941 72.6412 171.534C73.1906 172.127 73.4645 172.941 73.4645 173.978V179.109H72.2219V174.267C72.2219 173.464 72.0306 172.849 71.6495 172.415C71.2669 171.982 70.7374 171.766 70.0595 171.766C69.7473 171.766 69.452 171.823 69.1719 171.933C68.8919 172.046 68.647 172.212 68.4374 172.431C68.2277 172.65 68.0609 172.92 67.9369 173.241C67.813 173.562 67.7518 173.925 67.7518 174.331V179.109H66.5245V174.235C66.5245 173.455 66.3332 172.849 65.9521 172.415C65.5711 171.982 65.0462 171.766 64.3789 171.766C64.0453 171.766 63.7377 171.83 63.4592 171.958C63.1792 172.087 62.9343 172.268 62.7246 172.504C62.515 172.739 62.3512 173.014 62.2319 173.329C62.114 173.644 62.0544 173.995 62.0544 174.38V179.109H60.8117V170.821H62.0544V172.215C62.1936 172.011 62.3467 171.813 62.515 171.622C62.6818 171.429 62.8716 171.26 63.0873 171.117C63.3031 170.973 63.5449 170.857 63.8142 170.772C64.082 170.687 64.3958 170.643 64.7493 170.643C65.4272 170.643 65.9873 170.801 66.428 171.117C66.8703 171.432 67.2024 171.826 67.4289 172.295C67.5789 172.07 67.7487 171.857 67.9369 171.654Z" fill="white"/>
<path fill-rule="evenodd" clip-rule="evenodd" d="M78.306 177.498C78.0367 177.258 77.8163 176.963 77.6464 176.616C77.472 176.269 77.3648 175.87 77.322 175.421H83.9223C83.9345 175.347 83.9391 175.277 83.9391 175.213V175.036C83.9391 174.427 83.8534 173.855 83.6805 173.32C83.5091 172.786 83.2566 172.321 82.923 171.926C82.5894 171.531 82.1808 171.217 81.6957 170.988C81.2121 170.758 80.6627 170.643 80.0506 170.643C79.469 170.643 78.9334 170.755 78.4437 170.98C77.954 171.205 77.5316 171.512 77.1766 171.902C76.8216 172.292 76.5446 172.751 76.3472 173.28C76.1467 173.81 76.0472 174.374 76.0472 174.973C76.0472 175.614 76.1589 176.201 76.3824 176.736C76.6058 177.271 76.9073 177.727 77.2853 178.107C77.6663 178.486 78.107 178.779 78.6136 178.989C79.1186 179.197 79.6557 179.301 80.2266 179.301C81.0223 179.301 81.6911 179.159 82.2282 178.877C82.7654 178.594 83.2459 178.217 83.6637 177.746L82.8893 177.057C82.545 177.41 82.167 177.692 81.7523 177.907C81.3376 178.12 80.8402 178.228 80.2602 178.228C79.8945 178.228 79.544 178.165 79.2104 178.042C78.8768 177.92 78.5753 177.738 78.306 177.498ZM82.4318 173.433C82.5542 173.775 82.6322 174.133 82.6644 174.507H77.322C77.3648 174.101 77.4612 173.727 77.6112 173.385C77.7612 173.043 77.9525 172.747 78.1882 172.496C78.4238 172.244 78.6978 172.046 79.0069 171.902C79.316 171.757 79.6542 171.686 80.0169 171.686C80.4347 171.686 80.8004 171.763 81.1157 171.918C81.4309 172.073 81.6987 172.279 81.9191 172.536C82.1379 172.791 82.3078 173.092 82.4318 173.433Z" fill="white"/>
<path d="M87.7642 179.109H86.5215V170.82H87.7642V172.263C88.0427 171.813 88.41 171.431 88.8614 171.117C89.3129 170.801 89.9005 170.642 90.6213 170.642C91.1263 170.642 91.5762 170.723 91.9695 170.884C92.3613 171.044 92.6949 171.272 92.9703 171.565C93.2443 171.859 93.4539 172.21 93.5978 172.616C93.7447 173.022 93.8166 173.47 93.8166 173.961V179.109H92.574V174.267C92.574 173.498 92.3751 172.888 91.9772 172.439C91.5777 171.991 91.0085 171.766 90.2663 171.766C89.9112 171.766 89.5807 171.827 89.2731 171.95C88.967 172.073 88.7007 172.249 88.4742 172.479C88.2478 172.709 88.0733 172.984 87.9493 173.304C87.8254 173.625 87.7642 173.978 87.7642 174.363V179.109Z" fill="white"/>
<path d="M98.5457 176.752C98.5457 177.266 98.6757 177.623 98.9328 177.827C99.1915 178.029 99.5312 178.131 99.949 178.131C100.165 178.131 100.367 178.109 100.555 178.067C100.743 178.024 100.945 177.948 101.161 177.842V178.9C100.945 179.018 100.716 179.107 100.474 179.164C100.232 179.224 99.9612 179.253 99.6597 179.253C99.3261 179.253 99.0124 179.21 98.7232 179.125C98.4324 179.04 98.1814 178.903 97.9733 178.716C97.7637 178.529 97.5984 178.286 97.479 177.986C97.3627 177.687 97.303 177.329 97.303 176.913V171.91H96.1415V170.819H97.303V168.319H98.5457V170.819H101.192V171.91H98.5457V176.752Z" fill="white"/>
<path d="M2.40415 195.077C2.40415 195.591 2.53422 195.948 2.79132 196.152C3.04994 196.354 3.38968 196.456 3.80746 196.456C4.02323 196.456 4.22524 196.434 4.41347 196.392C4.6017 196.349 4.8037 196.273 5.01948 196.167V197.225C4.8037 197.344 4.57415 197.432 4.33236 197.49C4.09057 197.549 3.8197 197.578 3.51822 197.578C3.18461 197.578 2.8709 197.535 2.58013 197.45C2.2909 197.365 2.03993 197.228 1.83027 197.041C1.62215 196.854 1.45687 196.611 1.33751 196.311C1.2212 196.012 1.16152 195.655 1.16152 195.238V190.235H0V189.145H1.16152V186.644H2.40415V189.145H5.05008V190.235H2.40415V195.077Z" fill="white"/>
<path fill-rule="evenodd" clip-rule="evenodd" d="M9.14922 195.823C8.87988 195.583 8.65952 195.288 8.48965 194.941C8.31519 194.595 8.20807 194.195 8.16522 193.746H14.7655C14.7778 193.672 14.7824 193.602 14.7824 193.538V193.362C14.7824 192.752 14.6967 192.18 14.5237 191.645C14.3523 191.112 14.0998 190.646 13.7662 190.251C13.4326 189.856 13.024 189.543 12.5389 189.313C12.0553 189.083 11.5059 188.968 10.8938 188.968C10.3123 188.968 9.77666 189.08 9.28695 189.305C8.79725 189.53 8.37488 189.838 8.01984 190.227C7.6648 190.617 7.38781 191.077 7.1904 191.606C6.98993 192.135 6.89046 192.699 6.89046 193.298C6.89046 193.939 7.00217 194.528 7.2256 195.061C7.44903 195.596 7.7505 196.053 8.12849 196.433C8.50954 196.811 8.95028 197.106 9.45682 197.314C9.96183 197.523 10.499 197.626 11.0698 197.626C11.8656 197.626 12.5343 197.485 13.0715 197.202C13.6086 196.919 14.0891 196.542 14.5069 196.071L13.7326 195.382C13.3882 195.735 13.0102 196.018 12.5955 196.232C12.1808 196.445 11.6834 196.553 11.1035 196.553C10.7377 196.553 10.3873 196.49 10.0536 196.367C9.72003 196.246 9.41856 196.063 9.14922 195.823ZM13.275 191.758C13.3974 192.1 13.4755 192.459 13.5076 192.833H8.16522C8.20807 192.427 8.30448 192.053 8.45445 191.711C8.60442 191.368 8.79572 191.072 9.03139 190.821C9.26706 190.569 9.54099 190.371 9.85011 190.227C10.1592 190.082 10.4974 190.011 10.8601 190.011C11.2779 190.011 11.6437 190.088 11.9604 190.243C12.2742 190.399 12.542 190.604 12.7623 190.861C12.9812 191.118 13.1526 191.417 13.275 191.758Z" fill="white"/>
<path d="M23.1027 197.171C22.5702 197.475 21.9106 197.626 21.124 197.626C20.5119 197.626 19.9457 197.512 19.4223 197.282C18.9005 197.053 18.449 196.743 18.0664 196.352C17.6839 195.961 17.387 195.505 17.1712 194.981C16.9554 194.458 16.8483 193.901 16.8483 193.313C16.8483 192.726 16.9554 192.166 17.1712 191.637C17.387 191.108 17.6839 190.646 18.0664 190.251C18.449 189.856 18.9005 189.542 19.4223 189.313C19.9457 189.083 20.5119 188.968 21.124 188.968C21.5235 188.968 21.8831 189.006 22.206 189.08C22.5289 189.156 22.8242 189.26 23.0951 189.393C23.3629 189.527 23.6108 189.685 23.8373 189.866C24.0638 190.049 24.2719 190.24 24.4663 190.444L23.643 191.309C23.3093 190.967 22.9467 190.674 22.5549 190.427C22.1601 190.182 21.6795 190.059 21.1087 190.059C20.6894 190.059 20.2961 190.141 19.9319 190.307C19.5662 190.471 19.2479 190.701 18.9785 190.994C18.7092 191.288 18.4995 191.628 18.3495 192.019C18.1996 192.407 18.1231 192.826 18.1231 193.273C18.1231 193.722 18.2026 194.143 18.3572 194.537C18.5133 194.932 18.7291 195.275 19.003 195.569C19.2769 195.862 19.5998 196.09 19.9717 196.256C20.3436 196.422 20.7491 196.504 21.1898 196.504C21.7285 196.504 22.2029 196.387 22.6192 196.151C23.0324 195.917 23.4073 195.622 23.7394 195.269L24.5305 196.007C24.1112 196.48 23.6353 196.867 23.1027 197.171Z" fill="white"/>
<path d="M28.2261 197.434H26.9835V185.729H28.2261V190.588C28.5047 190.138 28.8719 189.756 29.3234 189.442C29.7748 189.125 30.3625 188.969 31.0833 188.969C31.5883 188.969 32.0382 189.049 32.4315 189.209C32.8233 189.369 33.1569 189.597 33.4323 189.89C33.7063 190.185 33.9159 190.535 34.0598 190.941C34.2067 191.347 34.2786 191.795 34.2786 192.288V197.434H33.036V192.592C33.036 191.822 32.837 191.213 32.4391 190.764C32.0397 190.316 31.4704 190.091 30.7282 190.091C30.3732 190.091 30.0426 190.152 29.7351 190.275C29.429 190.398 29.1627 190.574 28.9362 190.804C28.7097 191.033 28.5353 191.309 28.4113 191.629C28.2874 191.95 28.2261 192.303 28.2261 192.688V197.434Z" fill="white"/>
<path d="M38.5721 197.434H37.3295V189.145H38.5721V190.588C38.8506 190.138 39.2179 189.757 39.6693 189.442C40.1208 189.126 40.7069 188.969 41.4277 188.969C41.9342 188.969 42.3841 189.05 42.7759 189.209C43.1692 189.369 43.5028 189.597 43.7767 189.89C44.0507 190.185 44.2603 190.535 44.4057 190.941C44.5526 191.347 44.6245 191.795 44.6245 192.288V197.434H43.3819V192.592C43.3819 191.823 43.1814 191.213 42.7851 190.765C42.3857 190.316 41.8164 190.091 41.0742 190.091C40.7176 190.091 40.3871 190.152 40.081 190.275C39.7749 190.398 39.5086 190.575 39.2806 190.804C39.0557 191.034 38.8812 191.309 38.7573 191.63C38.6333 191.95 38.5721 192.303 38.5721 192.688V197.434Z" fill="white"/>
<path fill-rule="evenodd" clip-rule="evenodd" d="M49.1275 187.332H47.7074V185.97H49.1275V187.332ZM49.0296 197.433H47.787V189.145H49.0296V197.433Z" fill="white"/>
<path fill-rule="evenodd" clip-rule="evenodd" d="M59.02 195.767V199.999H60.2627V189.146H59.02V190.731C58.8593 190.497 58.6726 190.272 58.463 190.06C58.2533 189.845 58.0192 189.658 57.7606 189.497C57.5035 189.337 57.2127 189.208 56.8898 189.112C56.5669 189.017 56.2119 188.968 55.8247 188.968C55.3197 188.968 54.8285 189.067 54.3556 189.266C53.8827 189.464 53.4573 189.746 53.0808 190.114C52.7044 190.484 52.4029 190.935 52.1764 191.47C51.9514 192.004 51.8382 192.614 51.8382 193.298C51.8382 193.982 51.9514 194.592 52.1764 195.125C52.4029 195.66 52.7044 196.112 53.0808 196.48C53.4573 196.849 53.8827 197.129 54.3556 197.322C54.8285 197.514 55.3197 197.611 55.8247 197.611C56.2119 197.611 56.5638 197.562 56.8822 197.466C57.1989 197.369 57.4882 197.237 57.7453 197.065C58.0024 196.895 58.2365 196.697 58.4462 196.472C58.6573 196.247 58.8471 196.013 59.02 195.767ZM58.1401 190.969C58.4247 191.245 58.6512 191.58 58.818 191.974C58.9848 192.367 59.0675 192.802 59.0675 193.281C59.0675 193.76 58.9848 194.199 58.818 194.598C58.6512 194.996 58.4247 195.335 58.1401 195.61C57.8539 195.887 57.5325 196.103 57.1714 196.258C56.8118 196.411 56.4384 196.487 56.0512 196.487C55.6518 196.487 55.2768 196.413 54.9203 196.265C54.5652 196.116 54.2546 195.9 53.9837 195.619C53.7159 195.336 53.5017 194.999 53.3471 194.605C53.191 194.211 53.113 193.771 53.113 193.281C53.113 192.782 53.191 192.332 53.3471 191.934C53.5017 191.534 53.7128 191.2 53.9776 190.929C54.2408 190.657 54.5484 190.45 54.905 190.306C55.26 190.163 55.6411 190.09 56.0512 190.09C56.4384 190.09 56.8118 190.167 57.1714 190.323C57.5325 190.476 57.8539 190.692 58.1401 190.969Z" fill="white"/>
<path d="M69.3644 189.145H70.5917V197.434H69.3644V195.991C69.0859 196.44 68.7202 196.823 68.2672 197.137C67.8157 197.452 67.2296 197.61 66.5088 197.61C66.0023 197.61 65.5539 197.53 65.1606 197.37C64.7673 197.21 64.4352 196.982 64.1613 196.689C63.8859 196.394 63.6762 196.044 63.5308 195.638C63.3854 195.232 63.312 194.784 63.312 194.291V189.145H64.5546V193.987C64.5546 194.757 64.7551 195.366 65.153 195.815C65.5508 196.263 66.1217 196.488 66.8623 196.488C67.2189 196.488 67.5495 196.427 67.8555 196.304C68.1616 196.181 68.4263 196.005 68.6467 195.775C68.8671 195.546 69.0431 195.269 69.1701 194.95C69.3017 194.629 69.3644 194.276 69.3644 193.89V189.145Z" fill="white"/>
<path fill-rule="evenodd" clip-rule="evenodd" d="M75.5298 195.823C75.2605 195.583 75.0401 195.288 74.8687 194.941C74.6958 194.595 74.5887 194.195 74.5458 193.746H81.1461C81.1568 193.672 81.163 193.602 81.163 193.538V193.362C81.163 192.752 81.0773 192.18 80.9043 191.645C80.7329 191.112 80.4789 190.646 80.1453 190.251C79.8117 189.856 79.4046 189.543 78.9195 189.313C78.4344 189.083 77.8865 188.968 77.2729 188.968C76.6929 188.968 76.1573 189.08 75.666 189.305C75.1778 189.53 74.7539 189.838 74.4004 190.227C74.0454 190.617 73.7684 191.077 73.5695 191.606C73.3705 192.135 73.2711 192.699 73.2711 193.298C73.2711 193.939 73.3828 194.528 73.6062 195.061C73.8296 195.596 74.1311 196.053 74.5091 196.433C74.8886 196.811 75.3309 197.106 75.8359 197.314C76.3424 197.523 76.8796 197.626 77.4504 197.626C78.2462 197.626 78.9134 197.485 79.4521 197.202C79.9892 196.919 80.4697 196.542 80.8875 196.071L80.1132 195.382C79.7688 195.735 79.3893 196.018 78.9761 196.232C78.5614 196.445 78.064 196.553 77.4841 196.553C77.1168 196.553 76.7679 196.49 76.4342 196.367C76.1006 196.246 75.7992 196.063 75.5298 195.823ZM79.6541 191.758C79.778 192.1 79.8545 192.459 79.8882 192.833H74.5458C74.5887 192.427 74.6851 192.053 74.8335 191.711C74.985 191.368 75.1763 191.072 75.412 190.821C75.6461 190.569 75.9201 190.371 76.2292 190.227C76.5398 190.082 76.8765 190.011 77.2407 190.011C77.657 190.011 78.0243 190.088 78.3395 190.243C78.6548 190.399 78.9226 190.604 79.1414 190.861C79.3618 191.118 79.5332 191.417 79.6541 191.758Z" fill="white"/>
<path d="M43.694 74.0007L28.6308 99.3103L13.1608 74.0007H0V121.498H14.5876V100.6L24.9009 117.224H31.9569L42.2687 99.8533L42.4048 121.498H56.9925L56.8564 74.0007H43.694Z" fill="white"/>
<path d="M64.7268 121.498H80.7397V74H64.7268V121.498Z" fill="white"/>
<path fill-rule="evenodd" clip-rule="evenodd" d="M108.828 109.557H104.485V121.498H88.4724V74.0001H111.338C115.725 74.0001 119.548 74.725 122.804 76.1718C126.062 77.6202 128.571 79.7001 130.336 82.4147C132.099 85.1278 132.982 88.2952 132.982 91.9152C132.982 95.3074 132.212 98.2713 130.675 100.802C129.137 103.337 126.92 105.349 124.026 106.842L134 121.498H116.901L108.828 109.557ZM110.321 86.3489H104.485V97.4758H110.321C112.491 97.4758 114.12 96.991 115.205 96.0184C116.291 95.0458 116.834 93.6771 116.834 91.9139C116.834 90.1491 116.291 88.7804 115.205 87.8078C114.12 86.8352 112.491 86.3489 110.321 86.3489Z" fill="white"/>
</svg>
