<svg width="100" height="59" viewBox="0 0 100 59" fill="none" xmlns="http://www.w3.org/2000/svg">
<path d="M39.3401 19.3979L32.4503 31.0258L25.3745 19.3979H19.3548V41.2195H26.0271V31.6181L30.7443 39.2557H33.9716L38.6882 31.2752L38.7504 41.2195H45.4226L45.3604 19.3979H39.3401Z" fill="#0E0E11"/>
<path d="M48.9603 41.2191H56.2844V19.3975H48.9603V41.2191Z" fill="#0E0E11"/>
<path fill-rule="evenodd" clip-rule="evenodd" d="M69.1319 35.7329H67.1454V41.219H59.8213V19.3975H70.2797C72.2865 19.3975 74.0352 19.7305 75.5244 20.3952C77.0142 21.0606 78.1621 22.0162 78.9693 23.2633C79.7757 24.5098 80.1793 25.9649 80.1793 27.6281C80.1793 29.1865 79.8275 30.5482 79.1245 31.7111C78.4209 32.8753 77.4066 33.8 76.0832 34.4857L80.6452 41.219H72.8244L69.1319 35.7329ZM69.8146 25.0706H67.1454V30.1826H69.8146C70.8071 30.1826 71.5521 29.9599 72.0487 29.513C72.5453 29.0662 72.7936 28.4374 72.7936 27.6273C72.7936 26.8165 72.5453 26.1877 72.0487 25.7409C71.5521 25.294 70.8071 25.0706 69.8146 25.0706Z" fill="#0E0E11"/>
<path d="M0 0.000271916V21.8219H5.65753V5.65753H21.7742V0L0 0.000271916Z" fill="#0E0E11"/>
<path d="M100 58.9997L100 37.1781L94.3425 37.1781L94.3425 53.3425L78.2258 53.3425L78.2258 59L100 58.9997Z" fill="#0E0E11"/>
</svg>
