<svg width="124" height="73" viewBox="0 0 124 73" fill="none" xmlns="http://www.w3.org/2000/svg">
<path d="M48.7817 24.0005L40.2384 38.3875L31.4643 24.0005H24V51.0001H32.2736V39.1203L38.1229 48.5702H42.1248L47.9733 38.6961L48.0505 51.0001H56.3241L56.2469 24.0005H48.7817Z" fill="white"/>
<path d="M60.7107 50.9996H69.7927V24H60.7107V50.9996Z" fill="white"/>
<path fill-rule="evenodd" clip-rule="evenodd" d="M85.7236 44.2117H83.2603V50.9996H74.1784V24H87.1469C89.6353 24 91.8036 24.4121 93.6502 25.2345C95.4976 26.0578 96.9209 27.2401 97.9219 28.7832C98.9219 30.3254 99.4224 32.1259 99.4224 34.1836C99.4224 36.1119 98.9861 37.7967 98.1144 39.2355C97.2419 40.676 95.9842 41.8201 94.3432 42.6685L100 50.9996H90.3023L85.7236 44.2117ZM86.5701 31.0194H83.2603V37.3443H86.5701C87.8009 37.3443 88.7246 37.0688 89.3404 36.5159C89.9562 35.963 90.2641 35.185 90.2641 34.1827C90.2641 33.1796 89.9562 32.4016 89.3404 31.8487C88.7246 31.2958 87.8009 31.0194 86.5701 31.0194Z" fill="white"/>
<path d="M0 0.000336438V27H7.01533V7H27V0L0 0.000336438Z" fill="white"/>
<path d="M124 72.9997L124 46L116.985 46L116.985 66L97 66L97 73L124 72.9997Z" fill="white"/>
</svg>
