<svg width="134" height="48" viewBox="0 0 134 48" fill="none" xmlns="http://www.w3.org/2000/svg">
<path d="M43.694 0.000976562L28.6308 25.5778L13.1608 0.000976562H0V48.0002H14.5876V26.8807L24.9009 43.6805H31.9569L42.2687 26.1265L42.4048 48.0002H56.9925L56.8564 0.000976562H43.694Z" fill="white"/>
<path d="M64.7268 47.9993H80.7397V0H64.7268V47.9993Z" fill="white"/>
<path fill-rule="evenodd" clip-rule="evenodd" d="M108.828 35.9318H104.485V47.9993H88.4724V0H111.338C115.725 0 119.548 0.732577 122.804 2.19464C126.062 3.65825 128.571 5.76016 130.336 8.50346C132.099 11.2452 132.982 14.446 132.982 18.1042C132.982 21.5322 132.212 24.5274 130.675 27.0853C129.137 29.6462 126.92 31.6801 124.026 33.1885L134 47.9993H116.901L108.828 35.9318ZM110.321 12.4792H104.485V23.7235H110.321C112.491 23.7235 114.12 23.2336 115.205 22.2508C116.291 21.2679 116.834 19.8847 116.834 18.1029C116.834 16.3195 116.291 14.9364 115.205 13.9535C114.12 12.9706 112.491 12.4792 110.321 12.4792Z" fill="white"/>
</svg>
