<svg width="84" height="84" viewBox="0 0 84 84" fill="none" xmlns="http://www.w3.org/2000/svg">
<path d="M42.0002 55.127V56.9134C29.8471 56.2004 20.0217 49.1753 20.0217 41.4481C20.0217 33.7205 29.8671 27.9898 42.0002 28.7626V26.9564C54.1333 27.7292 63.9688 34.6539 63.9688 42.4215C63.9688 50.1894 54.1235 55.8997 41.9904 55.127H42.0002ZM42.0002 67.7317V61.4696C22.4601 60.2151 6.6142 49.0851 6.6142 36.5709C6.6142 24.0559 22.4504 14.9032 41.9798 16.1376V22.4C26.3346 21.4064 13.6393 28.7425 13.6393 38.7686C13.6393 48.7942 26.3346 57.7363 41.9904 58.7297V61.4696C57.6459 62.4731 70.3312 55.127 70.3312 45.1013C70.3312 35.0753 57.636 26.0929 41.9798 25.0896V22.4C61.5097 23.6344 77.3362 34.7841 77.3463 47.3088C77.3563 59.8336 61.5198 68.9662 41.9904 67.7317H42.0002ZM42.0002 -1.2517e-06C18.8042 -1.2517e-06 0 18.8041 0 42.0001C0 65.1958 18.8042 84 42.0002 84C65.1962 84 84 65.1958 84 42.0001C84 18.8041 65.1962 -1.2517e-06 42.0002 -1.2517e-06Z" fill="#8F1736"/>
<path d="M41.9904 49.296C50.8415 49.8582 58.0477 45.7133 58.0477 40.0328C58.0477 34.3525 50.8415 29.3149 41.9904 28.7532V34.5735C33.1385 34.0113 25.9331 38.1665 25.9331 43.8367C25.9331 49.5066 33.1385 54.555 41.9904 55.1172V49.296Z" fill="#8F1736"/>
</svg>
