<svg width="85" height="33" viewBox="0 0 85 33" fill="none" xmlns="http://www.w3.org/2000/svg">
<path d="M16.5001 21.657V22.3588C11.7256 22.0787 7.86568 19.3189 7.86568 16.2832C7.86568 13.2473 11.7335 10.996 16.5001 11.2996V10.59C21.2667 10.8936 25.1306 13.614 25.1306 16.6656C25.1306 19.7173 21.2628 21.9606 16.4962 21.657H16.5001ZM16.5001 26.6089V24.1488C8.82362 23.6559 2.59844 19.2834 2.59844 14.3671C2.59844 9.45052 8.8198 5.85483 16.4921 6.33978V8.79999C10.3457 8.40967 5.35828 11.2917 5.35828 15.2305C5.35828 19.1692 10.3457 22.6821 16.4962 23.0724V24.1488C22.6466 24.543 27.6301 21.657 27.6301 17.7184C27.6301 13.7796 22.6427 10.2508 16.4921 9.85662V8.79999C24.1645 9.28494 30.3821 13.6652 30.386 18.5856C30.39 23.5061 24.1685 27.0939 16.4962 26.6089H16.5001ZM16.5001 -4.91738e-07C7.38736 -4.91738e-07 0 7.38734 0 16.5C0 25.6126 7.38736 33 16.5001 33C25.6128 33 33 25.6126 33 16.5C33 7.38734 25.6128 -4.91738e-07 16.5001 -4.91738e-07Z" fill="#8F1736"/>
<path d="M16.4962 19.3663C19.9734 19.5872 22.8045 17.9588 22.8045 15.7272C22.8045 13.4956 19.9734 11.5166 16.4962 11.2959V13.5825C13.0187 13.3616 10.188 14.994 10.188 17.2216C10.188 19.449 13.0187 21.4323 16.4962 21.6532V19.3663Z" fill="#8F1736"/>
<path d="M51.5735 14.4102H49.2404C49.1978 14.1083 49.1108 13.8402 48.9794 13.6058C48.848 13.3679 48.6793 13.1655 48.4734 12.9986C48.2674 12.8317 48.0295 12.7038 47.7596 12.6151C47.4933 12.5263 47.2038 12.4819 46.8913 12.4819C46.3267 12.4819 45.8349 12.6222 45.4158 12.9027C44.9968 13.1797 44.6719 13.5845 44.4411 14.1172C44.2102 14.6463 44.0948 15.2891 44.0948 16.0455C44.0948 16.8232 44.2102 17.4766 44.4411 18.0057C44.6754 18.5348 45.0021 18.9343 45.4212 19.2042C45.8402 19.4741 46.3249 19.609 46.8754 19.609C47.1843 19.609 47.4702 19.5682 47.733 19.4865C47.9993 19.4048 48.2354 19.2859 48.4414 19.1296C48.6474 18.9698 48.8178 18.7763 48.9528 18.549C49.0913 18.3217 49.1871 18.0625 49.2404 17.7713L51.5735 17.782C51.5131 18.2827 51.3622 18.7656 51.1207 19.2308C50.8828 19.6925 50.5614 20.1062 50.1566 20.4719C49.7553 20.8342 49.2759 21.1218 48.7184 21.3349C48.1644 21.5444 47.5376 21.6491 46.8381 21.6491C45.8651 21.6491 44.995 21.429 44.228 20.9886C43.4645 20.5483 42.8608 19.9109 42.4169 19.0763C41.9766 18.2418 41.7564 17.2315 41.7564 16.0455C41.7564 14.8558 41.9801 13.8438 42.4276 13.0092C42.875 12.1747 43.4822 11.5391 44.2493 11.1023C45.0163 10.6619 45.8793 10.4418 46.8381 10.4418C47.4702 10.4418 48.0561 10.5305 48.5959 10.7081C49.1392 10.8857 49.6204 11.1449 50.0394 11.4858C50.4585 11.8232 50.7994 12.2369 51.0621 12.7269C51.3285 13.217 51.4989 13.7781 51.5735 14.4102ZM57.1696 21.5H53.3025V10.5909H57.2016C58.2989 10.5909 59.2435 10.8093 60.0354 11.2461C60.8273 11.6793 61.4363 12.3026 61.8625 13.1158C62.2922 13.929 62.507 14.902 62.507 16.0348C62.507 17.1712 62.2922 18.1477 61.8625 18.9645C61.4363 19.7812 60.8238 20.408 60.0248 20.8448C59.2293 21.2816 58.2776 21.5 57.1696 21.5ZM55.6089 19.5238H57.0738C57.7556 19.5238 58.3291 19.4031 58.7943 19.1616C59.263 18.9165 59.6146 18.5384 59.849 18.027C60.0869 17.5121 60.2059 16.848 60.2059 16.0348C60.2059 15.2287 60.0869 14.57 59.849 14.0586C59.6146 13.5472 59.2648 13.1708 58.7996 12.9293C58.3344 12.6879 57.7609 12.5671 57.0791 12.5671H55.6089V19.5238ZM64.2905 21.5V10.5909H68.5945C69.4219 10.5909 70.1268 10.7489 70.7092 11.065C71.2916 11.3775 71.7355 11.8125 72.0409 12.37C72.3498 12.924 72.5043 13.5632 72.5043 14.2876C72.5043 15.0121 72.3481 15.6513 72.0356 16.2053C71.7231 16.7592 71.2703 17.1907 70.6773 17.4996C70.0878 17.8086 69.374 17.9631 68.5359 17.9631H65.7927V16.1147H68.1631C68.6069 16.1147 68.9727 16.0384 69.2604 15.8857C69.5515 15.7294 69.7682 15.5146 69.9102 15.2411C70.0558 14.9641 70.1286 14.6463 70.1286 14.2876C70.1286 13.9254 70.0558 13.6094 69.9102 13.3395C69.7682 13.0661 69.5515 12.8548 69.2604 12.7056C68.9692 12.5529 68.5998 12.4766 68.1524 12.4766H66.597V21.5H64.2905ZM78.195 17.7074H80.1552L81.1407 18.9751L82.1101 20.1044L83.9372 22.3949H81.7852L80.5281 20.8501L79.8836 19.9339L78.195 17.7074ZM84.1023 16.0455C84.1023 17.2351 83.8768 18.2472 83.4258 19.0817C82.9784 19.9162 82.3676 20.5536 81.5934 20.994C80.8228 21.4308 79.9564 21.6491 78.994 21.6491C78.0245 21.6491 77.1545 21.429 76.3839 20.9886C75.6133 20.5483 75.0043 19.9109 74.5569 19.0763C74.1094 18.2418 73.8857 17.2315 73.8857 16.0455C73.8857 14.8558 74.1094 13.8438 74.5569 13.0092C75.0043 12.1747 75.6133 11.5391 76.3839 11.1023C77.1545 10.6619 78.0245 10.4418 78.994 10.4418C79.9564 10.4418 80.8228 10.6619 81.5934 11.1023C82.3676 11.5391 82.9784 12.1747 83.4258 13.0092C83.8768 13.8438 84.1023 14.8558 84.1023 16.0455ZM81.7639 16.0455C81.7639 15.2749 81.6485 14.625 81.4176 14.0959C81.1904 13.5668 80.869 13.1655 80.4535 12.892C80.038 12.6186 79.5515 12.4819 78.994 12.4819C78.4365 12.4819 77.95 12.6186 77.5345 12.892C77.119 13.1655 76.7958 13.5668 76.565 14.0959C76.3377 14.625 76.2241 15.2749 76.2241 16.0455C76.2241 16.8161 76.3377 17.4659 76.565 17.995C76.7958 18.5241 77.119 18.9254 77.5345 19.1989C77.95 19.4723 78.4365 19.609 78.994 19.609C79.5515 19.609 80.038 19.4723 80.4535 19.1989C80.869 18.9254 81.1904 18.5241 81.4176 17.995C81.6485 17.4659 81.7639 16.8161 81.7639 16.0455Z" fill="#414441"/>
</svg>
