<svg width="192" height="192" viewBox="0 0 192 192" fill="none" xmlns="http://www.w3.org/2000/svg">
<path d="M174 57.6409V133.361C174 134.745 173.818 136.124 173.46 137.461C172.566 140.771 170.606 143.694 167.884 145.778C165.162 147.862 161.829 148.992 158.4 148.992C154.971 148.992 151.638 147.862 148.916 145.778C146.194 143.694 144.234 140.771 143.34 137.461C142.982 136.124 142.8 134.745 142.8 133.361V128.841C142.8 126.792 142.396 124.764 141.613 122.871C140.829 120.978 139.679 119.259 138.231 117.81C136.782 116.361 135.063 115.212 133.17 114.428C131.277 113.644 129.249 113.241 127.2 113.241C125.151 113.241 123.123 113.644 121.23 114.428C119.337 115.212 117.618 116.361 116.169 117.81C114.721 119.259 113.571 120.978 112.787 122.871C112.004 124.764 111.6 126.792 111.6 128.841V133.361C111.602 134.746 111.417 136.125 111.05 137.461C110.159 140.773 108.201 143.698 105.48 145.785C102.758 147.871 99.4244 149.002 95.995 149.002C92.5656 149.002 89.2319 147.871 86.5102 145.785C83.7885 143.698 81.8307 140.773 80.94 137.461C80.5816 136.124 80.4001 134.745 80.4 133.361V128.841C80.4 126.792 79.9965 124.764 79.2125 122.871C78.4286 120.978 77.2795 119.259 75.8309 117.81C74.3823 116.361 72.6625 115.212 70.7699 114.428C68.8772 113.644 66.8486 113.241 64.8 113.241C62.7514 113.241 60.7228 113.644 58.8301 114.428C56.9375 115.212 55.2177 116.361 53.7691 117.81C52.3205 119.259 51.1715 120.978 50.3875 122.871C49.6035 124.764 49.2 126.792 49.2 128.841V133.361C49.2043 135.415 48.8027 137.449 48.0185 139.347C47.2342 141.245 46.0827 142.969 44.63 144.421C42.6943 146.358 40.2826 147.751 37.6376 148.459C34.9926 149.168 32.2076 149.168 29.5628 148.458C26.918 147.748 24.5068 146.355 22.5717 144.417C20.6367 142.48 19.2462 140.067 18.54 137.421C18.1816 136.084 18.0001 134.705 18 133.321V57.6409C18.0001 56.2565 18.1816 54.8781 18.54 53.5409C19.4343 50.2311 21.394 47.308 24.1162 45.2237C26.8384 43.1394 30.1715 42.0099 33.6 42.0099C37.0285 42.0099 40.3616 43.1394 43.0838 45.2237C45.806 47.308 47.7657 50.2311 48.66 53.5409C49.0184 54.8781 49.1999 56.2565 49.2 57.6409V62.1609C49.2 64.2095 49.6035 66.2381 50.3875 68.1308C51.1715 70.0235 52.3205 71.7432 53.7691 73.1918C55.2177 74.6404 56.9375 75.7895 58.8301 76.5734C60.7228 77.3574 62.7514 77.7609 64.8 77.7609C66.8486 77.7609 68.8772 77.3574 70.7699 76.5734C72.6625 75.7895 74.3823 74.6404 75.8309 73.1918C77.2795 71.7432 78.4286 70.0235 79.2125 68.1308C79.9965 66.2381 80.4 64.2095 80.4 62.1609V57.6409C80.3985 56.2558 80.5835 54.8767 80.95 53.5409C81.8407 50.2292 83.7985 47.3036 86.5202 45.2172C89.2419 43.1308 92.5756 42 96.005 42C99.4344 42 102.768 43.1308 105.49 45.2172C108.211 47.3036 110.169 50.2292 111.06 53.5409C111.418 54.8781 111.6 56.2565 111.6 57.6409V62.1609C111.6 64.2095 112.004 66.2381 112.787 68.1308C113.571 70.0235 114.721 71.7432 116.169 73.1918C117.618 74.6404 119.337 75.7895 121.23 76.5734C123.123 77.3574 125.151 77.7609 127.2 77.7609C129.249 77.7609 131.277 77.3574 133.17 76.5734C135.063 75.7895 136.782 74.6404 138.231 73.1918C139.679 71.7432 140.829 70.0235 141.613 68.1308C142.396 66.2381 142.8 64.2095 142.8 62.1609V57.6409C142.796 55.5873 143.197 53.553 143.982 51.655C144.766 49.7569 145.917 48.0326 147.37 46.5809C149.306 44.644 151.717 43.2511 154.362 42.5424C157.007 41.8337 159.792 41.8342 162.437 42.5438C165.082 43.2534 167.493 44.6471 169.428 46.5846C171.363 48.5222 172.754 50.9352 173.46 53.5809C173.815 54.9052 173.996 56.2699 174 57.6409Z" fill="#EBA0C0"/>
</svg>
