<svg width="498" height="63" viewBox="0 0 498 63" fill="none" xmlns="http://www.w3.org/2000/svg">
  <path d="M10.2001 21.62V56.73H0.820068V7.26001H10.4001L39.0001 42V7.26001H48.3901V56.73H38.7701L10.2001 21.62Z"
    fill="#0E0E10" />
  <path
    d="M64.3199 38C64.8063 41.4515 66.5503 44.6018 69.2172 46.8461C71.8842 49.0904 75.2861 50.2705 78.7699 50.16C86.9999 50.16 91.7699 43.22 91.7699 43.22L99.2199 47.51C99.2199 47.51 92.5499 57.42 78.0299 57.42C60.9299 57.42 55.1899 44.86 55.1899 35.83C55.1899 26.8 60.9999 14.28 78.0799 14.28C95.1599 14.28 100.93 26.85 100.93 35.87C100.93 36.58 100.88 37.31 100.81 38.04L64.3199 38ZM91.1799 30.76C89.5799 25.96 85.5699 21.5 78.0799 21.5C70.5899 21.5 66.5799 26 64.9999 30.8L91.1799 30.76Z"
    fill="#0E0E10" />
  <path
    d="M178.17 15.0601L159.05 56.6801H143L140.4 30.4701L128.4 56.6801H112.3L108.17 15.0601H117.97L121.25 48.0601H122.55L137.71 15.0601H148.71L151.98 48.0601H153.28L168.45 15.0601H178.17Z"
    fill="#0E0E10" />
  <path
    d="M217.63 20.13L212.81 27.87C211.525 26.3162 209.907 25.0715 208.075 24.2284C206.244 23.3854 204.246 22.9655 202.23 23C197.69 23 192.68 26.11 189.33 29.79V56.68H179.81V15.06H189.33V22.39C192.83 18.3 197.92 14.28 203.57 14.28C208.841 14.3169 213.888 16.4168 217.63 20.13Z"
    fill="#0E0E10" />
  <path
    d="M264 33.39V56.68H254.47V52.35C249.302 55.597 243.342 57.3644 237.24 57.46C225.24 57.46 220.94 51.25 220.94 45.02C220.94 38.79 225.7 32.56 237.24 32.56C243.345 32.6651 249.305 34.443 254.47 37.7V33.39C254.47 25.51 253.26 21.9 243.35 21.9C237.167 21.9928 231.108 23.6511 225.74 26.72L221.4 20.44C221.4 20.44 231.18 14.26 242.67 14.26C259.33 14.26 264 21.85 264 33.39ZM254.47 44.21C250.79 41.4 245.36 38.78 239.62 38.78C233 38.78 230.46 41.68 230.46 45.02C230.46 48.36 234.46 51.25 239.62 51.25C245.015 51.0833 250.216 49.2023 254.47 45.88V44.21Z"
    fill="#0E0E10" />
  <path
    d="M313.44 0.150024V56.68H303.92V49.54C300.18 54.1 293.25 57.46 286.36 57.46C275.15 57.46 270.36 46.67 270.36 35.87C270.36 25.07 278.25 14.28 289.36 14.28C295.69 14.28 300.89 19.1 303.91 23.28V0.150024H313.44ZM303.92 31.81C301.35 27.47 297.13 22.09 291.57 22.09C283.57 22.09 279.74 28.48 279.74 35.87C279.74 43.26 282.24 49.66 288.57 49.66C291.603 49.6405 294.585 48.8828 297.26 47.4524C299.934 46.0219 302.22 43.9618 303.92 41.45V31.81Z"
    fill="#0E0E10" />
  <path
    d="M329.28 38C329.766 41.4515 331.51 44.6018 334.177 46.8461C336.844 49.0904 340.246 50.2705 343.73 50.16C351.96 50.16 356.73 43.22 356.73 43.22L364.18 47.51C364.18 47.51 357.51 57.42 342.99 57.42C325.89 57.42 320.14 44.86 320.14 35.83C320.14 26.8 325.94 14.28 343 14.28C360.06 14.28 365.84 26.85 365.84 35.87C365.84 36.58 365.79 37.31 365.72 38.04L329.28 38ZM356.14 30.76C354.54 25.96 350.52 21.5 343.04 21.5C335.56 21.5 331.54 25.96 329.94 30.76H356.14Z"
    fill="#0E0E10" />
  <path d="M370.28 56.73V46.35H380.87V56.73H370.28Z" fill="#0E0E10" />
  <path d="M168.73 55.29H102.36V58.16H168.73V55.29Z" fill="#0E0E10" />
  <path
    d="M474.72 58.92C474.27 54.22 473.81 50.14 473.34 46.6C475.51 49.38 478.06 52.52 481.04 56.09C481.375 56.4872 481.789 56.8108 482.256 57.0404C482.722 57.27 483.231 57.4006 483.75 57.4241C484.27 57.4475 484.788 57.3634 485.273 57.1768C485.759 56.9902 486.2 56.7053 486.57 56.34L490.31 52.61C490.678 52.2444 490.966 51.8056 491.154 51.3219C491.342 50.8383 491.426 50.3206 491.402 49.8022C491.377 49.2839 491.244 48.7765 491.011 48.3127C490.779 47.849 490.451 47.4393 490.05 47.11C486.05 43.8 482.53 41.04 479.49 38.73C483.39 39.24 487.99 39.73 493.41 40.25C493.927 40.2986 494.449 40.239 494.942 40.0748C495.435 39.9106 495.888 39.6456 496.273 39.2966C496.658 38.9475 496.965 38.5221 497.177 38.0475C497.388 37.5729 497.498 37.0595 497.5 36.54V31.28C497.498 30.7596 497.388 30.2452 497.176 29.7699C496.964 29.2945 496.655 28.8686 496.269 28.5195C495.883 28.1703 495.429 27.9055 494.935 27.742C494.441 27.5785 493.918 27.5199 493.4 27.57C488.09 28.07 483.56 28.57 479.72 29.1C482.72 26.83 486.09 24.1 489.99 20.88C490.39 20.5509 490.717 20.1415 490.949 19.6782C491.18 19.2149 491.312 18.7081 491.336 18.1906C491.359 17.6731 491.274 17.1564 491.085 16.6739C490.897 16.1915 490.609 15.7541 490.24 15.39L486.5 11.66C486.13 11.2939 485.688 11.0085 485.203 10.8219C484.717 10.6353 484.198 10.5516 483.678 10.576C483.158 10.6005 482.649 10.7325 482.183 10.9639C481.717 11.1952 481.304 11.5208 480.97 11.92C478.04 15.45 475.54 18.56 473.4 21.32C473.84 17.8 474.29 13.74 474.72 9.06C474.766 8.54399 474.704 8.0241 474.537 7.53343C474.371 7.04277 474.105 6.59211 473.755 6.21016C473.405 5.82821 472.979 5.52334 472.505 5.31499C472.03 5.10663 471.518 4.99936 471 5H465.7C465.182 5.00188 464.67 5.11172 464.196 5.32251C463.723 5.5333 463.299 5.84042 462.95 6.22428C462.602 6.60815 462.338 7.06034 462.174 7.55202C462.011 8.0437 461.951 8.56409 462 9.08C462.51 14.49 463 19.08 463.58 22.96C461.15 19.8 458.21 16.12 454.63 11.85C454.295 11.4528 453.881 11.1292 453.414 10.8996C452.948 10.67 452.439 10.5394 451.92 10.5159C451.4 10.4925 450.882 10.5766 450.396 10.7632C449.911 10.9498 449.47 11.2347 449.1 11.6L445.36 15.32C444.992 15.6865 444.704 16.1262 444.516 16.6106C444.328 17.0951 444.243 17.6136 444.268 18.1327C444.292 18.6518 444.425 19.16 444.658 19.6246C444.891 20.0892 445.219 20.4998 445.62 20.83C449.47 23.99 452.84 26.66 455.78 28.9C452.2 28.45 448.07 28 443.3 27.57C442.783 27.5214 442.261 27.5811 441.768 27.7452C441.275 27.9094 440.822 28.1744 440.437 28.5235C440.052 28.8725 439.745 29.2979 439.533 29.7725C439.322 30.2471 439.212 30.7605 439.21 31.28V36.54C439.212 37.0604 439.322 37.5748 439.534 38.0501C439.746 38.5255 440.055 38.9514 440.441 39.3006C440.826 39.6497 441.281 39.9146 441.775 40.078C442.269 40.2415 442.792 40.3001 443.31 40.25C448.16 39.79 452.31 39.32 455.97 38.85C452.97 41.15 449.51 43.9 445.55 47.18C445.151 47.5109 444.825 47.9215 444.594 48.3856C444.363 48.8496 444.232 49.3568 444.208 49.8747C444.185 50.3926 444.27 50.9096 444.458 51.3927C444.646 51.8758 444.933 52.3143 445.3 52.68L449 56.4C449.37 56.7661 449.812 57.0515 450.297 57.2381C450.783 57.4247 451.302 57.5084 451.822 57.484C452.342 57.4595 452.851 57.3275 453.317 57.0961C453.783 56.8648 454.196 56.5392 454.53 56.14C458.13 51.82 461.08 48.14 463.53 44.92C463 48.83 462.53 53.46 461.98 58.92C461.931 59.4376 461.991 59.9597 462.156 60.4527C462.321 60.9458 462.587 61.3989 462.937 61.7831C463.288 62.1673 463.714 62.474 464.19 62.6836C464.666 62.8931 465.18 63.0009 465.7 63H471C471.52 63.0009 472.034 62.8931 472.51 62.6836C472.986 62.474 473.412 62.1673 473.763 61.7831C474.113 61.3989 474.379 60.9458 474.544 60.4527C474.709 59.9597 474.769 59.4376 474.72 58.92Z"
    fill="#0E0E10" />
</svg>
