<svg width="192" height="192" viewBox="0 0 192 192" fill="none" xmlns="http://www.w3.org/2000/svg">
<rect width="192" height="192" fill="#0E0E10"/>
<path d="M107.138 139.825C106.35 131.559 105.546 124.384 104.723 118.159C108.52 123.048 112.982 128.57 118.197 134.848C118.784 135.546 119.508 136.116 120.324 136.519C121.141 136.923 122.031 137.153 122.94 137.194C123.849 137.235 124.756 137.087 125.605 136.759C126.454 136.431 127.227 135.93 127.874 135.288L134.418 128.728C135.063 128.085 135.566 127.313 135.895 126.463C136.224 125.612 136.372 124.702 136.329 123.79C136.286 122.879 136.053 121.986 135.646 121.171C135.238 120.355 134.665 119.635 133.963 119.056C126.964 113.234 120.804 108.381 115.485 104.318C122.309 105.215 130.359 106.077 139.843 106.991C140.748 107.077 141.661 106.972 142.524 106.683C143.386 106.395 144.179 105.928 144.853 105.315C145.526 104.701 146.065 103.953 146.434 103.118C146.804 102.283 146.997 101.381 147 100.467V91.2166C146.997 90.3013 146.804 89.3968 146.433 88.5608C146.062 87.7249 145.522 86.9759 144.847 86.3618C144.171 85.7477 143.376 85.282 142.511 84.9945C141.647 84.707 140.732 84.604 139.826 84.6921C130.534 85.5714 122.607 86.4507 115.887 87.3828C121.137 83.3907 127.034 78.5897 133.858 72.9269C134.559 72.3482 135.13 71.6282 135.536 70.8134C135.942 69.9987 136.172 69.1074 136.214 68.1973C136.255 67.2871 136.106 66.3784 135.775 65.53C135.445 64.6816 134.941 63.9123 134.296 63.2721L127.751 56.7124C127.104 56.0685 126.331 55.5667 125.481 55.2385C124.631 54.9104 123.723 54.7632 122.813 54.8061C121.904 54.8491 121.013 55.0814 120.197 55.4882C119.381 55.895 118.659 56.4676 118.075 57.1697C112.947 63.3776 108.573 68.8469 104.828 73.7007C105.598 67.5103 106.385 60.3703 107.138 52.14C107.218 51.2325 107.109 50.3182 106.819 49.4554C106.528 48.5925 106.061 47.7999 105.449 47.1282C104.837 46.4565 104.092 45.9204 103.262 45.5539C102.432 45.1875 101.535 44.9989 100.628 45H91.3541C90.4473 45.0033 89.5512 45.1965 88.7228 45.5672C87.8944 45.9379 87.152 46.478 86.5428 47.1531C85.9337 47.8281 85.4712 48.6234 85.1848 49.488C84.8985 50.3527 84.7945 51.2679 84.8796 52.1752C85.772 61.6893 86.6295 69.7614 87.6444 76.5848C83.3922 71.0276 78.2476 64.5559 71.983 57.0466C71.3962 56.348 70.6719 55.779 69.8557 55.3752C69.0395 54.9715 68.149 54.7417 67.2403 54.7004C66.3315 54.6591 65.4241 54.8072 64.575 55.1353C63.7259 55.4634 62.9534 55.9644 62.3063 56.6069L55.7617 63.149C55.117 63.7935 54.6138 64.5667 54.2845 65.4187C53.9553 66.2706 53.8074 67.1825 53.8502 68.0954C53.8931 69.0083 54.1259 69.9021 54.5335 70.7191C54.941 71.5362 55.5144 72.2583 56.2167 72.839C62.9537 78.3962 68.8508 83.0917 73.9954 87.031C67.7309 86.2397 60.5039 85.4483 52.157 84.6921C51.2519 84.6066 50.339 84.7115 49.4765 85.0002C48.614 85.2889 47.8208 85.755 47.1475 86.3688C46.4742 86.9827 45.9354 87.7307 45.5657 88.5654C45.196 89.4 45.0033 90.3029 45 91.2166V100.467C45.0031 101.382 45.1962 102.287 45.567 103.123C45.9378 103.959 46.4781 104.708 47.1534 105.322C47.8287 105.936 48.624 106.401 49.4886 106.689C50.3532 106.976 51.268 107.079 52.1745 106.991C60.6614 106.182 67.9233 105.356 74.3278 104.529C69.0782 108.574 63.0237 113.41 56.0942 119.179C55.3959 119.761 54.8264 120.483 54.4221 121.299C54.0178 122.115 53.7876 123.007 53.7464 123.918C53.7052 124.828 53.8539 125.738 54.1829 126.587C54.5118 127.437 55.0138 128.208 55.6567 128.851L62.1313 135.393C62.7783 136.037 63.5513 136.539 64.4014 136.867C65.2514 137.195 66.16 137.342 67.0695 137.299C67.9791 137.256 68.8699 137.024 69.6855 136.617C70.5012 136.21 71.2239 135.638 71.808 134.936C78.1076 127.339 83.2698 120.867 87.5569 115.204C86.6295 122.08 85.807 130.223 84.8445 139.825C84.7592 140.735 84.8641 141.653 85.1526 142.52C85.441 143.387 85.9067 144.184 86.5197 144.86C87.1326 145.536 87.8793 146.075 88.7118 146.443C89.5444 146.812 90.4444 147.002 91.3541 147H100.628C101.538 147.002 102.438 146.812 103.271 146.443C104.103 146.075 104.85 145.536 105.463 144.86C106.076 144.184 106.542 143.387 106.83 142.52C107.118 141.653 107.223 140.735 107.138 139.825V139.825Z" fill="white"/>
</svg>
