<svg width="88" height="88" viewBox="0 0 88 88" fill="none" xmlns="http://www.w3.org/2000/svg">
<path d="M48.6709 54.5554L47.5386 53.0975L47.7804 54.9276C48.1825 57.9718 48.5764 61.4827 48.9619 65.5294C48.9973 65.9067 48.9539 66.2871 48.8344 66.6462C48.7149 67.0054 48.522 67.3354 48.2684 67.615C48.0147 67.8946 47.7059 68.1176 47.3617 68.27C47.0175 68.4223 46.6456 68.5006 46.2697 68.5H46.2688H41.7226H41.7217C41.3459 68.5006 40.9739 68.4223 40.6297 68.27C40.2856 68.1176 39.9767 67.8946 39.7231 67.615C39.4694 67.3354 39.2766 67.0054 39.1571 66.6462C39.0377 66.2875 38.9942 65.9076 39.0293 65.5309C39.5013 60.8224 39.9036 56.8407 40.3568 53.4806L40.6111 51.595L39.4626 53.112C37.3668 55.8803 34.8412 59.0467 31.7563 62.7671C31.5143 63.0577 31.215 63.2947 30.8776 63.463C30.5399 63.6315 30.1712 63.7276 29.7948 63.7453C29.4184 63.7631 29.0424 63.7022 28.6905 63.5664C28.3392 63.4308 28.0195 63.2234 27.7516 62.9571C27.7512 62.9567 27.7508 62.9563 27.7504 62.9559L24.5793 59.7517L24.5775 59.75C24.3116 59.484 24.1039 59.1649 23.9677 58.8132C23.8315 58.4614 23.7699 58.0849 23.7869 57.7077C23.804 57.3305 23.8993 56.9611 24.0667 56.6233C24.234 56.2855 24.4697 55.9868 24.7584 55.7462C28.1507 52.9224 31.1136 50.5557 33.6815 48.5771L35.1464 47.4485L33.3124 47.6851C30.1786 48.0896 26.6244 48.4941 22.4695 48.8902L22.4685 48.8903C22.0938 48.9267 21.7156 48.8841 21.3581 48.7652C21.0006 48.6463 20.6715 48.4537 20.392 48.1995C20.1125 47.9453 19.8887 47.6352 19.735 47.2888C19.5815 46.9426 19.5014 46.5679 19.5 46.1888V41.6561C19.5015 41.2776 19.5814 40.9037 19.7344 40.5581C19.8877 40.2122 20.1108 39.9024 20.3895 39.6483C20.6683 39.3943 20.9964 39.2015 21.3531 39.0821C21.7097 38.9627 22.0871 38.9193 22.4613 38.9547L22.4632 38.9549C26.5494 39.3251 30.0862 39.7124 33.1508 40.0995L34.9866 40.3314L33.5174 39.2065C31.0014 37.2799 28.1155 34.9821 24.817 32.2612C24.5266 32.0211 24.2894 31.7224 24.1207 31.3842C23.952 31.046 23.8556 30.6759 23.8378 30.2978C23.82 29.9197 23.8813 29.5421 24.0176 29.1894C24.1539 28.8367 24.3622 28.5167 24.6288 28.2502L27.8357 25.0445C27.8359 25.0443 27.8361 25.0441 27.8363 25.044C28.1045 24.7779 28.4244 24.5705 28.7758 24.4347C29.1274 24.2988 29.5032 24.2375 29.8794 24.2546C30.2556 24.2717 30.6244 24.3668 30.9625 24.5341C31.3003 24.7012 31.6003 24.9367 31.8435 25.2261C34.9099 28.9017 37.4272 32.0684 39.507 34.7866L40.6835 36.3242L40.3987 34.4092C39.9033 31.0785 39.484 27.1328 39.0466 22.4706C39.0114 22.0946 39.0545 21.7154 39.1731 21.3572C39.2917 20.999 39.4833 20.6698 39.7353 20.3904C39.9874 20.111 40.2945 19.8877 40.637 19.7344C40.9791 19.5813 41.3492 19.5015 41.7236 19.5L46.2688 19.5L46.2695 19.5C46.644 19.4995 47.0146 19.5775 47.3577 19.7289C47.7008 19.8804 48.0089 20.1021 48.2623 20.3801C48.5158 20.6581 48.7089 20.9862 48.8294 21.3437C48.9498 21.7009 48.9949 22.0795 48.9617 22.4553C48.5934 26.484 48.2081 29.9783 47.8313 33.0073L47.6055 34.8234L48.7234 33.3744C50.5549 31.0005 52.6956 28.324 55.2058 25.2847C55.4478 24.994 55.747 24.757 56.0845 24.5887C56.4222 24.4203 56.7909 24.3242 57.1673 24.3064C57.5437 24.2886 57.9197 24.3495 58.2716 24.4853C58.6232 24.6211 58.9432 24.8288 59.2113 25.0954C59.2114 25.0955 59.2116 25.0957 59.2117 25.0958L62.4185 28.31L62.4202 28.3117C62.6867 28.5763 62.8951 28.8943 63.0318 29.2452C63.1684 29.596 63.2302 29.972 63.2131 30.3486C63.196 30.7252 63.1005 31.0939 62.9327 31.4308C62.7649 31.7677 62.5287 32.0652 62.2395 32.3043L62.2388 32.3049C58.8944 35.08 56.0104 37.4277 53.446 39.3779L51.9264 40.5334L53.8173 40.2711C57.1014 39.8156 60.9793 39.3853 65.5302 38.9547L65.5315 38.9546C65.9062 38.9181 66.2844 38.9607 66.6419 39.0796C66.9994 39.1985 67.3285 39.3911 67.608 39.6453C67.8875 39.8995 68.1113 40.2097 68.265 40.5561C68.4187 40.9025 68.4987 41.2774 68.5 41.6569V46.1878C68.4986 46.5666 68.4187 46.9409 68.2655 47.2867C68.1123 47.6326 67.8892 47.9424 67.6105 48.1965C67.3317 48.4506 67.0036 48.6434 66.647 48.7627C66.2905 48.8821 65.9132 48.9255 65.5392 48.8902C60.8924 48.4421 56.9534 48.0204 53.6165 47.5819L51.7587 47.3377L53.2479 48.475C55.8507 50.4626 58.8646 52.8376 62.2898 55.6862L62.2913 55.6874C62.5813 55.9267 62.8184 56.2246 62.9869 56.562C63.1555 56.8995 63.2518 57.2688 63.2696 57.6461C63.2873 58.0235 63.2261 58.4003 63.0899 58.7523C62.9538 59.1042 62.7457 59.4234 62.4794 59.6892L62.4786 59.69L59.2722 62.9038C59.2718 62.9042 59.2715 62.9045 59.2711 62.9049C59.003 63.1707 58.6833 63.3779 58.3321 63.5136C57.9805 63.6495 57.6048 63.7108 57.2285 63.6937C56.8523 63.6766 56.4835 63.5815 56.1454 63.4142C55.8077 63.2472 55.5078 63.0117 55.2646 62.7225C52.7111 59.6481 50.5278 56.9461 48.6709 54.5554ZM41.7226 69H46.2688H41.7226Z" fill="#0E0E10" stroke="#0E0E10"/>
</svg>
