<svg width="192" height="192" viewBox="0 0 192 192" fill="none" xmlns="http://www.w3.org/2000/svg">
<path d="M144.92 82.93C135.59 83.81 127.49 84.72 120.48 85.64C125.99 81.36 132.23 76.34 139.29 70.46C140.079 69.803 140.722 68.9889 141.179 68.0695C141.636 67.1502 141.896 66.1457 141.943 65.1202C141.99 64.0947 141.823 63.0707 141.452 62.1134C141.081 61.156 140.515 60.2864 139.79 59.56L132.4 52.18C131.673 51.4528 130.802 50.8856 129.843 50.5147C128.883 50.1439 127.857 49.9776 126.83 50.0266C125.803 50.0755 124.797 50.3387 123.877 50.799C122.958 51.2594 122.145 51.9069 121.49 52.7C114.93 60.63 109.49 67.52 104.88 73.51C105.88 65.82 106.88 56.76 107.88 46.06C107.971 45.0392 107.85 44.0106 107.523 43.0393C107.196 42.068 106.671 41.1752 105.981 40.4174C105.291 39.6597 104.451 39.0536 103.514 38.6374C102.578 38.2213 101.565 38.0042 100.54 38H90.1C89.072 38.0011 88.0555 38.2166 87.1156 38.6328C86.1756 39.0491 85.3328 39.6568 84.6411 40.4173C83.9494 41.1777 83.4239 42.0741 83.0983 43.0492C82.7726 44.0242 82.654 45.0565 82.75 46.08C83.75 56.57 84.75 65.49 85.75 73.08C81.27 67.21 75.9 60.5 69.49 52.8C68.8332 52.0121 68.0194 51.3698 67.1005 50.9141C66.1816 50.4583 65.1778 50.1991 64.1531 50.153C63.1284 50.1069 62.1053 50.2749 61.1492 50.6463C60.1931 51.0177 59.3249 51.5843 58.6 52.31L51.21 59.69C50.4828 60.4172 49.9156 61.2883 49.5447 62.2475C49.1739 63.2067 49.0076 64.2328 49.0566 65.26C49.1055 66.2873 49.3687 67.2929 49.829 68.2125C50.2894 69.1321 50.9369 69.9453 51.73 70.6C58.73 76.38 64.89 81.31 70.36 85.53C63.36 84.65 55.36 83.77 46.06 82.92C45.0376 82.8284 44.0072 82.9506 43.0346 83.2787C42.0619 83.6069 41.1681 84.1338 40.4101 84.826C39.652 85.5182 39.0463 86.3606 38.6314 87.2995C38.2165 88.2385 38.0015 89.2535 38 90.28V100.72C38.0011 101.748 38.2166 102.764 38.6328 103.704C39.0491 104.644 39.6568 105.487 40.4173 106.179C41.1777 106.871 42.0741 107.396 43.0492 107.722C44.0242 108.047 45.0565 108.166 46.08 108.07C56.81 107.07 65.9 106 73.6 104.96C67.34 109.74 60.05 115.55 51.6 122.6C50.8119 123.258 50.1694 124.072 49.7136 124.992C49.2577 125.912 48.9985 126.917 48.9524 127.942C48.9063 128.967 49.0743 129.991 49.4458 130.948C49.8173 131.905 50.3841 132.774 51.11 133.5L58.49 140.88C59.2165 141.608 60.087 142.176 61.0459 142.547C62.0047 142.919 63.0306 143.086 64.0578 143.038C65.085 142.99 66.0909 142.728 67.0108 142.269C67.9308 141.809 68.7446 141.162 69.4 140.37C75.67 132.78 80.96 126.14 85.4 120.37C84.51 127.43 83.62 135.58 82.76 144.98C82.6714 145.998 82.7952 147.024 83.1236 147.992C83.4521 148.959 83.978 149.849 84.6681 150.603C85.3581 151.357 86.1972 151.959 87.1323 152.372C88.0673 152.784 89.0779 152.998 90.1 153H100.54C101.568 153 102.586 152.786 103.526 152.37C104.467 151.955 105.31 151.347 106.003 150.586C106.695 149.825 107.22 148.928 107.545 147.952C107.87 146.977 107.988 145.944 107.89 144.92C106.99 135.36 106.05 127.1 105.12 119.97C109.68 125.89 115.12 132.7 121.63 140.51C122.287 141.299 123.101 141.942 124.02 142.399C124.94 142.856 125.944 143.116 126.97 143.163C127.995 143.21 129.019 143.043 129.977 142.672C130.934 142.301 131.804 141.735 132.53 141.01L139.91 133.62C140.638 132.894 141.206 132.023 141.577 131.064C141.949 130.105 142.116 129.079 142.068 128.052C142.02 127.025 141.758 126.019 141.299 125.099C140.839 124.179 140.192 123.365 139.4 122.71C130.83 115.63 123.47 109.81 117.16 105.02C124.91 106.02 134.09 107.08 144.94 108.08C145.962 108.172 146.993 108.049 147.965 107.721C148.938 107.393 149.832 106.866 150.59 106.174C151.348 105.482 151.954 104.639 152.369 103.7C152.784 102.762 152.999 101.747 153 100.72V90.28C152.999 89.252 152.783 88.2355 152.367 87.2956C151.951 86.3556 151.343 85.5128 150.583 84.8211C149.822 84.1294 148.926 83.6039 147.951 83.2783C146.976 82.9526 145.944 82.834 144.92 82.93Z" fill="#2C308C"/>
</svg>
