<svg width="303" height="136" viewBox="0 0 303 136" fill="none" xmlns="http://www.w3.org/2000/svg">
<path d="M23.4182 0V104.789H0V0H23.4182ZM76.7763 26.3826C94.2659 26.3826 117.388 39.5739 117.388 66.5493C117.388 93.673 94.2659 106.271 76.7763 106.271C59.2867 106.271 36.1649 93.673 36.1649 66.5493C36.1649 39.5739 59.2867 26.3826 76.7763 26.3826ZM76.7763 46.9847C67.8833 46.9847 58.8421 53.8027 58.8421 66.5493C58.8421 78.8513 67.8833 85.6693 76.7763 85.6693C85.6693 85.6693 94.8587 78.8513 94.8587 66.5493C94.8587 53.8027 85.6693 46.9847 76.7763 46.9847V46.9847ZM185.567 27.7165H208.986V104.789C208.986 128.208 185.271 135.322 168.078 135.322C159.926 135.322 152.515 133.988 147.772 131.468V112.348C152.515 114.868 159.629 115.906 168.078 115.906C181.862 115.906 185.567 108.791 185.567 104.789V97.082C184.53 99.7499 177.564 106.271 165.706 106.271C148.069 106.271 127.763 93.673 127.763 66.1047C127.763 39.5739 148.069 26.3826 165.706 26.3826C177.564 26.3826 184.53 33.2006 185.567 34.8309V27.7165V27.7165ZM169.115 85.6693C178.749 85.6693 186.605 78.9995 186.605 66.1047C186.605 53.6545 178.749 46.9847 169.115 46.9847C159.037 46.9847 150.44 53.8027 150.44 66.1047C150.44 78.8513 159.037 85.6693 169.115 85.6693ZM262.344 26.3826C279.833 26.3826 302.955 39.5739 302.955 66.5493C302.955 93.673 279.833 106.271 262.344 106.271C244.854 106.271 221.732 93.673 221.732 66.5493C221.732 39.5739 244.854 26.3826 262.344 26.3826ZM262.344 46.9847C253.451 46.9847 244.409 53.8027 244.409 66.5493C244.409 78.8513 253.451 85.6693 262.344 85.6693C271.237 85.6693 280.426 78.8513 280.426 66.5493C280.426 53.8027 271.237 46.9847 262.344 46.9847V46.9847Z" fill="#111111"/>
</svg>
