<svg width="16" height="16" viewBox="0 0 16 16" fill="none" xmlns="http://www.w3.org/2000/svg">
  <style>
    .logo-favicon {
      fill: black;
    }

    @media (prefers-color-scheme: dark) {
      .logo-favicon {
        fill: #ffffff;
      }
    }
  </style>
  <path class="logo-favicon"
    d="M4.57998 2V13.7521H2V2H4.57998ZM10.4584 4.95879C12.3852 4.95879 14.9325 6.43819 14.9325 9.46348C14.9325 12.5054 12.3852 13.9183 10.4584 13.9183C8.53159 13.9183 5.98427 12.5054 5.98427 9.46348C5.98427 6.43819 8.53159 4.95879 10.4584 4.95879ZM10.4584 7.26931C9.47867 7.26931 8.4826 8.03395 8.4826 9.46348C8.4826 10.8431 9.47867 11.6078 10.4584 11.6078C11.4381 11.6078 12.4505 10.8431 12.4505 9.46348C12.4505 8.03395 11.4381 7.26931 10.4584 7.26931Z" />
</svg>
