<svg width="116" height="116" viewBox="0 0 116 116" fill="none" xmlns="http://www.w3.org/2000/svg">
<rect width="116" height="116" fill="#1B1B1B"/>
<path d="M58.0001 70.5019V72.2032C46.4258 71.5241 37.0683 64.8336 37.0683 57.4744C37.0683 50.1148 46.4448 44.657 58.0001 45.3929V43.6728C69.5556 44.4088 78.9227 51.0037 78.9227 58.4014C78.9227 65.7994 69.5462 71.2378 57.9909 70.5019H58.0001ZM58.0001 82.5064V76.5424C39.3906 75.3477 24.2992 64.7478 24.2992 52.8294C24.2992 40.9104 39.3813 32.1935 57.9807 33.3692V39.3333C43.0805 38.3871 30.9898 45.3738 30.9898 54.9225C30.9898 64.4707 43.0805 72.987 57.9909 73.933V76.5424C72.9008 77.4982 84.9821 70.5019 84.9821 60.9536C84.9821 51.4051 72.8915 42.8503 57.9807 41.8948V39.3333C76.5806 40.5089 91.6536 51.1277 91.6631 63.056C91.6727 74.9844 76.5903 83.6821 57.9909 82.5064H58.0001ZM58.0001 18C35.9088 18 18 35.9087 18 58C18 80.0912 35.9088 98 58.0001 98C80.0916 98 98 80.0912 98 58C98 35.9087 80.0916 18 58.0001 18Z" fill="white"/>
<path d="M57.9909 64.9486C66.4205 65.484 73.2836 61.5365 73.2836 56.1265C73.2836 50.7166 66.4205 45.9189 57.9909 45.384V50.9272C49.5605 50.3917 42.6982 54.349 42.6982 59.7492C42.6982 65.1491 49.5605 69.9571 57.9909 70.4926V64.9486Z" fill="white"/>
</svg>
