<svg width="111" height="111" viewBox="0 0 111 111" fill="none" xmlns="http://www.w3.org/2000/svg">
<circle cx="55.5" cy="55.5" r="55.5" fill="#0E0E11"/>
<path d="M41.0642 40.0005L31.734 55.986L22.1518 40.0005H14V70H23.0356V56.8003L29.4237 67.3002H33.7942L40.1814 56.3289L40.2657 70H49.3013L49.217 40.0005H41.0642Z" fill="white"/>
<path d="M54.092 69.9996H64.0104V40H54.092V69.9996Z" fill="white"/>
<path fill-rule="evenodd" clip-rule="evenodd" d="M81.4086 62.4574H78.7185V69.9995H68.8001V40H82.963C85.6806 40 88.0487 40.4579 90.0653 41.3717C92.0829 42.2864 93.6373 43.6001 94.7304 45.3147C95.8226 47.0283 96.3691 49.0287 96.3691 51.3151C96.3691 53.4576 95.8927 55.3296 94.9407 56.9283C93.9878 58.5289 92.6143 59.8001 90.8222 60.7428L97 69.9995H86.409L81.4086 62.4574ZM82.3331 47.7993H78.7185V54.8271H82.3331C83.6772 54.8271 84.686 54.5209 85.3586 53.9066C86.0311 53.2923 86.3674 52.4278 86.3674 51.3142C86.3674 50.1996 86.0311 49.3351 85.3586 48.7208C84.686 48.1065 83.6772 47.7993 82.3331 47.7993Z" fill="white"/>
</svg>
