<svg width="2048" height="1152" viewBox="0 0 2048 1152" fill="none" xmlns="http://www.w3.org/2000/svg">
<rect width="2048" height="1152" fill="white"/>
<path fill-rule="evenodd" clip-rule="evenodd" d="M246.733 523L273.269 564.055H261.766L246.733 540.809L231.7 564.055H220.19L246.733 523ZM296.935 555.154H330.195V564.055H286.962V525.462H296.935V555.154ZM378.741 525.462H335.508V534.37H352.135V564.055H362.115V534.37H378.741V525.462ZM435.604 540.304V549.212C435.604 559.107 430.066 564.055 418.991 564.055H408.997C397.908 564.059 392.364 559.112 392.364 549.212V540.304C392.364 530.409 397.908 525.462 408.997 525.462H418.97C430.059 525.467 435.604 530.414 435.604 540.304ZM418.97 555.154C423.406 555.158 425.624 553.178 425.624 549.212L425.645 540.304C425.645 536.348 423.427 534.37 418.991 534.37H408.997C404.562 534.37 402.344 536.348 402.344 540.304V549.212C402.344 553.173 404.562 555.154 408.997 555.154H418.97ZM230.619 587.882H220.639V626.475H230.619V587.882ZM247.568 585.357L280.828 610.026V587.882H290.801V629L257.548 604.324V626.475H247.568V585.357ZM350.99 587.882H307.75V596.79H350.99V587.882ZM317.731 626.475H307.75V602.724H350.99V611.633H317.731V626.475ZM411.173 599.757C411.173 591.841 406.74 587.882 397.873 587.882H367.94V596.804H397.873C400.091 596.804 401.2 597.8 401.2 599.778C401.2 601.756 400.091 602.746 397.873 602.746H367.94V626.475H377.913V611.633H386.532L401.446 626.475H414.851L399.831 611.569C407.392 610.994 411.173 607.057 411.173 599.757ZM436.369 626.475H424.866L451.402 585.413L477.946 626.475H466.435L451.402 603.229L436.369 626.475ZM98 626.601H200.412V525.055H98V626.601ZM108.303 535.303H190.116V616.353H108.303V535.303ZM123.224 550.44H175.195V560.225H123.224V550.44ZM152.722 570.936H123.224V580.721H152.722V570.936ZM123.224 591.431H133.057V601.216H123.224V591.431Z" fill="url(#paint0_linear)"/>
<defs>
<linearGradient id="paint0_linear" x1="916.344" y1="630.979" x2="-398.348" y2="630.979" gradientUnits="userSpaceOnUse">
<stop offset="0.0104167" stop-color="#DE0CDE"/>
<stop offset="1" stop-color="#1616C5"/>
</linearGradient>
</defs>
</svg>
