<svg width="893" height="249" viewBox="0 0 893 249" fill="none" xmlns="http://www.w3.org/2000/svg">
<path fill-rule="evenodd" clip-rule="evenodd" d="M349.382 0L411.718 96.4397H384.696L349.382 41.835L314.068 96.4397H287.03L349.382 0ZM467.31 75.5304H545.44V96.4397H443.883V5.78343H467.31V75.5304ZM659.477 5.78343H557.92V26.7092H596.976V96.4397H620.42V26.7092H659.477V5.78343ZM793.05 40.6487V61.5745C793.05 84.818 780.043 96.4397 754.027 96.4397H730.55C704.501 96.4507 691.477 84.829 691.477 61.5745V40.6487C691.477 17.4052 704.501 5.78343 730.55 5.78343H753.977C780.026 5.79442 793.05 17.4162 793.05 40.6487ZM753.977 75.5304C764.397 75.5414 769.607 70.8894 769.607 61.5745L769.656 40.6487C769.656 31.3557 764.446 26.7092 754.027 26.7092H730.55C720.131 26.7092 714.921 31.3557 714.921 40.6487V61.5745C714.921 70.8785 720.131 75.5304 730.55 75.5304H753.977ZM311.529 152.412H288.085V243.068H311.529V152.412ZM351.344 146.48L429.474 204.43V152.412H452.901V249L374.788 191.034V243.068H351.344V146.48ZM594.289 152.412H492.716V173.338H594.289V152.412ZM516.159 243.068H492.716V187.277H594.289V208.203H516.159V243.068ZM735.661 180.308C735.661 161.711 725.247 152.412 704.419 152.412H634.104V173.371H704.419C709.629 173.371 712.234 175.71 712.234 180.357C712.234 185.003 709.629 187.327 704.419 187.327H634.104V243.068H657.532V208.203H677.777L712.811 243.068H744.3L709.019 208.055C726.78 206.704 735.661 197.455 735.661 180.308ZM794.848 243.068H767.826L830.162 146.612L892.514 243.068H865.476L830.162 188.464L794.848 243.068ZM0 243.365H240.571V4.82784H0V243.365ZM24.2022 28.9007H216.385V219.292H24.2022V28.9007ZM59.2524 64.4579H181.335V87.4433H59.2524V64.4579ZM128.545 112.604H59.2524V135.589H128.545V112.604ZM59.2524 160.749H82.35V183.735H59.2524V160.749Z" fill="url(#paint0_linear)"/>
<defs>
<linearGradient id="paint0_linear" x1="1922.34" y1="253.649" x2="-1165.95" y2="253.649" gradientUnits="userSpaceOnUse">
<stop offset="0.0104167" stop-color="#DE0CDE"/>
<stop offset="1" stop-color="#1616C5"/>
</linearGradient>
</defs>
</svg>
