<svg width="300" height="300" viewBox="0 0 300 300" fill="none" xmlns="http://www.w3.org/2000/svg">
<rect width="300" height="300" fill="white"/>
<path fill-rule="evenodd" clip-rule="evenodd" d="M126.189 120L141.209 143.238H134.698L126.189 130.081L117.679 143.238H111.164L126.189 120ZM154.605 138.2H173.431V143.238H148.96V121.394H154.605V138.2ZM200.91 121.394H176.439V126.436H185.85V143.238H191.499V126.436H200.91V121.394ZM233.096 129.795V134.837C233.096 140.438 229.962 143.238 223.693 143.238H218.036C211.759 143.241 208.621 140.441 208.621 134.837V129.795C208.621 124.194 211.759 121.394 218.036 121.394H223.681C229.958 121.396 233.096 124.197 233.096 129.795ZM223.681 138.2C226.192 138.203 227.447 137.082 227.447 134.837L227.459 129.795C227.459 127.556 226.204 126.436 223.693 126.436H218.036C215.525 126.436 214.27 127.556 214.27 129.795V134.837C214.27 137.079 215.525 138.2 218.036 138.2H223.681ZM117.067 156.726H111.418V178.571H117.067V156.726ZM126.661 155.296L145.488 169.26V156.726H151.133V180L132.31 166.032V178.571H126.661V155.296ZM185.202 156.726H160.727V161.768H185.202V156.726ZM166.376 178.571H160.727V165.127H185.202V170.169H166.376V178.571ZM219.268 163.448C219.268 158.966 216.758 156.726 211.74 156.726H194.796V161.776H211.74C212.995 161.776 213.623 162.34 213.623 163.46C213.623 164.579 212.995 165.139 211.74 165.139H194.796V178.571H200.441V170.169H205.32L213.762 178.571H221.349L212.848 170.134C217.128 169.808 219.268 167.579 219.268 163.448ZM233.53 178.571H227.018L242.039 155.328L257.064 178.571H250.548L242.039 165.413L233.53 178.571ZM42 178.642H99.969V121.163H42V178.642ZM47.8319 126.964H94.1411V172.841H47.8319V126.964ZM56.2777 135.532H85.6952V141.071H56.2777V135.532ZM72.9748 147.133H56.2777V152.672H72.9748V147.133ZM56.2777 158.735H61.8434V164.273H56.2777V158.735Z" fill="url(#paint0_linear)"/>
<defs>
<linearGradient id="paint0_linear" x1="505.214" y1="181.12" x2="-238.952" y2="181.12" gradientUnits="userSpaceOnUse">
<stop offset="0.0104167" stop-color="#DE0CDE"/>
<stop offset="1" stop-color="#1616C5"/>
</linearGradient>
</defs>
</svg>
