<svg width="150" height="150" viewBox="0 0 150 150" fill="none" xmlns="http://www.w3.org/2000/svg">
<path fill-rule="evenodd" clip-rule="evenodd" d="M63.0943 60L70.6046 71.6192H67.349L63.0943 65.0404L58.8395 71.6192H55.582L63.0943 60ZM77.3024 69.1001H86.7156V71.6192H74.4798V60.6968H77.3024V69.1001ZM100.455 60.6968H88.2193V63.218H92.9249V71.6192H95.7494V63.218H100.455V60.6968ZM116.548 64.8974V67.4186C116.548 70.219 114.981 71.6192 111.847 71.6192H109.018C105.88 71.6206 104.31 70.2204 104.31 67.4186V64.8974C104.31 62.097 105.88 60.6968 109.018 60.6968H111.841C114.979 60.6981 116.548 62.0983 116.548 64.8974ZM111.841 69.1001C113.096 69.1014 113.724 68.5409 113.724 67.4186L113.73 64.8974C113.73 63.7778 113.102 63.218 111.847 63.218H109.018C107.763 63.218 107.135 63.7778 107.135 64.8974V67.4186C107.135 68.5396 107.763 69.1001 109.018 69.1001H111.841ZM58.5336 78.3629H55.7091V89.2853H58.5336V78.3629ZM63.3306 77.6482L72.7438 84.6301V78.3629H75.5664V90L66.1552 83.0162V89.2853H63.3306V77.6482ZM92.6011 78.3629H80.3633V80.8841H92.6011V78.3629ZM83.1879 89.2853H80.3633V82.5635H92.6011V85.0847H83.1879V89.2853ZM109.634 81.7238C109.634 79.4832 108.379 78.3629 105.87 78.3629H97.3981V80.888H105.87C106.497 80.888 106.811 81.1699 106.811 81.7298C106.811 82.2896 106.497 82.5695 105.87 82.5695H97.3981V89.2853H100.221V85.0847H102.66L106.881 89.2853H110.675L106.424 85.0668C108.564 84.9041 109.634 83.7897 109.634 81.7238ZM116.765 89.2853H113.509L121.019 77.6641L128.532 89.2853H125.274L121.019 82.7065L116.765 89.2853ZM21 89.3211H49.9845V60.5817H21V89.3211ZM23.9159 63.482H47.0705V86.4207H23.9159V63.482ZM28.1388 67.766H42.8476V70.5353H28.1388V67.766ZM36.4874 73.5667H28.1388V76.336H36.4874V73.5667ZM28.1388 79.3674H30.9217V82.1367H28.1388V79.3674Z" fill="url(#paint0_linear)"/>
<defs>
<linearGradient id="paint0_linear" x1="252.607" y1="90.5601" x2="-119.476" y2="90.5601" gradientUnits="userSpaceOnUse">
<stop offset="0.0104167" stop-color="#DE0CDE"/>
<stop offset="1" stop-color="#1616C5"/>
</linearGradient>
</defs>
</svg>
