<svg width="320" height="132" viewBox="0 0 320 132" fill="none" xmlns="http://www.w3.org/2000/svg">
<path fill-rule="evenodd" clip-rule="evenodd" d="M142.738 44L153.753 61.0416H148.978L142.738 51.3925L136.498 61.0416H131.72L142.738 44ZM163.577 57.3467H177.383V61.0416H159.437V45.022H163.577V57.3467ZM197.534 45.022H179.588V48.7197H186.49V61.0416H190.632V48.7197H197.534V45.022ZM221.137 51.1829V54.8806C221.137 58.9879 218.839 61.0416 214.242 61.0416H210.093C205.49 61.0435 203.189 58.9899 203.189 54.8806V51.1829C203.189 47.0756 205.49 45.022 210.093 45.022H214.233C218.836 45.0239 221.137 47.0776 221.137 51.1829ZM214.233 57.3467C216.074 57.3487 216.995 56.5266 216.995 54.8806L217.003 51.1829C217.003 49.5408 216.083 48.7197 214.242 48.7197H210.093C208.252 48.7197 207.331 49.5408 207.331 51.1829V54.8806C207.331 56.5247 208.252 57.3467 210.093 57.3467H214.233ZM136.049 70.9322H131.907V86.9518H136.049V70.9322ZM143.085 69.8841L156.891 80.1242V70.9322H161.031V88L147.228 77.757V86.9518H143.085V69.8841ZM186.015 70.9322H168.066V74.63H186.015V70.9322ZM172.209 86.9518H168.066V77.0932H186.015V80.7909H172.209V86.9518ZM210.996 75.8616C210.996 72.5753 209.156 70.9322 205.476 70.9322H193.051V74.6358H205.476C206.396 74.6358 206.857 75.0492 206.857 75.8703C206.857 76.6914 206.396 77.1019 205.476 77.1019H193.051V86.9518H197.19V80.7909H200.768L206.959 86.9518H212.523L206.289 80.7647C209.427 80.5259 210.996 78.8916 210.996 75.8616ZM221.455 86.9518H216.68L227.695 69.9074L238.713 86.9518H233.935L227.695 77.3028L221.455 86.9518ZM81 87.0042H123.511V44.8531H81V87.0042ZM85.2767 49.107H119.237V82.7504H85.2767V49.107ZM91.4703 55.3901H113.043V59.4518H91.4703V55.3901ZM103.715 63.8978H91.4703V67.9595H103.715V63.8978ZM91.4703 72.4055H95.5518V76.4672H91.4703V72.4055Z" fill="url(#paint0_linear)"/>
<defs>
<linearGradient id="paint0_linear" x1="420.69" y1="88.8215" x2="-125.031" y2="88.8215" gradientUnits="userSpaceOnUse">
<stop offset="0.0104167" stop-color="#DE0CDE"/>
<stop offset="1" stop-color="#1616C5"/>
</linearGradient>
</defs>
</svg>
