<svg width="440" height="440" viewBox="0 0 440 440" fill="none" xmlns="http://www.w3.org/2000/svg">
<rect width="440" height="440" fill="white"/>
<path fill-rule="evenodd" clip-rule="evenodd" d="M185.283 175L207.814 209.858H198.047L185.283 190.121L172.519 209.858H162.746L185.283 175ZM227.907 202.3H256.147V209.858H219.44V177.09H227.907V202.3ZM297.365 177.09H260.658V184.654H274.775V209.858H283.248V184.654H297.365V177.09ZM345.645 189.692V197.256C345.645 205.657 340.943 209.858 331.54 209.858H323.054C313.639 209.862 308.931 205.661 308.931 197.256V189.692C308.931 181.291 313.639 177.09 323.054 177.09H331.522C340.937 177.094 345.645 181.295 345.645 189.692ZM331.522 202.3C335.288 202.304 337.171 200.623 337.171 197.256L337.189 189.692C337.189 186.333 335.306 184.654 331.54 184.654H323.054C319.288 184.654 317.405 186.333 317.405 189.692V197.256C317.405 200.619 319.288 202.3 323.054 202.3H331.522ZM171.601 230.089H163.127V262.856H171.601V230.089ZM185.992 227.945L214.231 248.89V230.089H222.699V265L194.466 244.048V262.856H185.992V227.945ZM273.803 230.089H237.09V237.652H273.803V230.089ZM245.564 262.856H237.09V242.691H273.803V250.254H245.564V262.856ZM324.902 240.171C324.902 233.45 321.138 230.089 313.609 230.089H288.194V237.664H313.609C315.492 237.664 316.434 238.51 316.434 240.189C316.434 241.869 315.492 242.708 313.609 242.708H288.194V262.856H296.662V250.254H303.98L316.642 262.856H328.024L315.272 250.201C321.692 249.712 324.902 246.369 324.902 240.171ZM346.294 262.856H336.528L359.058 227.992L381.595 262.856H371.823L359.058 243.119L346.294 262.856ZM59 262.963H145.953V176.745H59V262.963ZM67.7478 185.446H137.212V254.262H67.7478V185.446ZM80.4165 198.298H124.543V206.606H80.4165V198.298ZM105.462 215.7H80.4165V224.008H105.462V215.7ZM80.4165 233.102H88.7651V241.41H80.4165V233.102Z" fill="url(#paint0_linear)"/>
<defs>
<linearGradient id="paint0_linear" x1="753.821" y1="266.68" x2="-362.428" y2="266.68" gradientUnits="userSpaceOnUse">
<stop offset="0.0104167" stop-color="#DE0CDE"/>
<stop offset="1" stop-color="#1616C5"/>
</linearGradient>
</defs>
</svg>
