<svg width="360" height="360" viewBox="0 0 360 360" fill="none" xmlns="http://www.w3.org/2000/svg">
<rect width="360" height="360" fill="white"/>
<path fill-rule="evenodd" clip-rule="evenodd" d="M151.236 143L170.011 172.048H161.872L151.236 155.601L140.599 172.048H132.455L151.236 143ZM186.756 165.75H210.289V172.048H179.7V144.742H186.756V165.75ZM244.638 144.742H214.048V151.045H225.812V172.048H232.874V151.045H244.638V144.742ZM284.871 155.244V161.547C284.871 168.548 280.953 172.048 273.117 172.048H266.045C258.199 172.051 254.276 168.551 254.276 161.547V155.244C254.276 148.243 258.199 144.742 266.045 144.742H273.102C280.948 144.745 284.871 148.246 284.871 155.244ZM273.102 165.75C276.24 165.753 277.809 164.352 277.809 161.547L277.824 155.244C277.824 152.444 276.255 151.045 273.117 151.045H266.045C262.907 151.045 261.338 152.444 261.338 155.244V161.547C261.338 164.349 262.907 165.75 266.045 165.75H273.102ZM139.834 188.907H132.773V216.213H139.834V188.907ZM151.827 187.121L175.36 204.575V188.907H182.416V218L158.888 200.54V216.213H151.827V187.121ZM225.003 188.907H194.408V195.21H225.003V188.907ZM201.47 216.213H194.408V199.409H225.003V205.712H201.47V216.213ZM267.585 197.309C267.585 191.708 264.448 188.907 258.174 188.907H236.995V195.22H258.174C259.744 195.22 260.528 195.925 260.528 197.324C260.528 198.724 259.744 199.424 258.174 199.424H236.995V216.213H244.052V205.712H250.15L260.702 216.213H270.187L259.56 205.667C264.91 205.26 267.585 202.474 267.585 197.309ZM285.412 216.213H277.273L296.049 187.16L314.829 216.213H306.685L296.049 199.766L285.412 216.213ZM46 216.303H118.461V144.454H46V216.303ZM53.2898 151.705H111.176V209.052H53.2898V151.705ZM63.8471 162.415H100.619V169.338H63.8471V162.415ZM84.7184 176.917H63.8471V183.84H84.7184V176.917ZM63.8471 191.419H70.8042V198.342H63.8471V191.419Z" fill="url(#paint0_linear)"/>
<defs>
<linearGradient id="paint0_linear" x1="625.017" y1="219.4" x2="-305.19" y2="219.4" gradientUnits="userSpaceOnUse">
<stop offset="0.0104167" stop-color="#DE0CDE"/>
<stop offset="1" stop-color="#1616C5"/>
</linearGradient>
</defs>
</svg>
