<svg width="973" height="401" viewBox="0 0 973 401" fill="none" xmlns="http://www.w3.org/2000/svg">
<path fill-rule="evenodd" clip-rule="evenodd" d="M100.348 0L200.405 155.046H157.032L100.348 67.2583L43.6642 155.046H0.264648L100.348 0ZM289.639 121.43H415.047V155.046H252.035V9.29804H289.639V121.43ZM598.093 9.29804H435.08V42.9404H497.772V155.046H535.402V42.9404H598.093V9.29804ZM812.498 65.351V98.9934C812.498 136.362 791.618 155.046 749.859 155.046H712.176C670.364 155.064 649.458 136.38 649.458 98.9934V65.351C649.458 27.9824 670.364 9.29804 712.176 9.29804H749.78C791.592 9.3157 812.498 28 812.498 65.351ZM749.78 121.43C766.505 121.448 774.867 113.969 774.867 98.9934L774.946 65.351C774.946 50.4106 766.584 42.9404 749.859 42.9404H712.176C695.451 42.9404 687.089 50.4106 687.089 65.351V98.9934C687.089 113.951 695.451 121.43 712.176 121.43H749.78ZM39.5886 245.033H1.958V390.781H39.5886V245.033ZM103.497 235.497L228.906 328.662V245.033H266.51V400.318L141.128 307.126V390.781H103.497V235.497ZM493.458 245.033H330.419V278.676H493.458V245.033ZM368.049 390.782H330.419V301.086H493.458V334.729H368.049V390.782ZM720.379 289.881C720.379 259.982 703.663 245.033 670.232 245.033H557.366V278.728H670.232C678.594 278.728 682.775 282.49 682.775 289.96C682.775 297.43 678.594 301.166 670.232 301.166H557.366V390.781H594.971V334.728H627.467L683.701 390.781H734.246L677.615 334.49C706.125 332.318 720.379 317.448 720.379 289.881ZM815.382 390.781H772.008L872.066 235.709L972.149 390.781H928.75L872.066 302.993L815.382 390.781Z" fill="url(#paint0_linear)"/>
<defs>
<linearGradient id="paint0_linear" x1="2093.55" y1="407.792" x2="-1269.37" y2="407.792" gradientUnits="userSpaceOnUse">
<stop offset="0.0104167" stop-color="#DE0CDE"/>
<stop offset="1" stop-color="#1616C5"/>
</linearGradient>
</defs>
</svg>
