<svg width="55" height="54" viewBox="0 0 55 54" fill="none" xmlns="http://www.w3.org/2000/svg">
<path fill-rule="evenodd" clip-rule="evenodd" d="M3.6676 0.813477H51.3324C53.3546 0.813477 55 2.45896 54.9999 4.48107V34.7301C54.9999 35.2361 54.5892 35.6467 54.0833 35.6467H0.916631C0.410674 35.6467 0 35.2361 0 34.7301V4.48107C0 2.45896 1.64538 0.813477 3.6676 0.813477ZM1.83338 33.8135H53.1666V4.48106C53.1666 3.46904 52.3435 2.64684 51.3324 2.64684H3.66761C2.65656 2.64684 1.83338 3.46904 1.83338 4.48106V33.8135Z" fill="white"/>
<path fill-rule="evenodd" clip-rule="evenodd" d="M0.916631 33.8135H54.0834C54.5893 33.8135 55 34.2242 55 34.7301V39.3125C55 41.3347 53.3546 42.9801 51.3324 42.9801H3.6676C1.64538 42.9801 0 41.3347 0 39.3125V34.7301C0 34.2242 0.410674 33.8135 0.916631 33.8135ZM51.3324 41.1468C52.3435 41.1468 53.1666 40.3246 53.1666 39.3126H53.1668V35.6468H1.83338V39.3126C1.83338 40.3246 2.65656 41.1468 3.66761 41.1468H51.3324Z" fill="white"/>
<path d="M30.2499 37.4802H24.7499C24.2439 37.4802 23.8333 37.8909 23.8333 38.3969C23.8333 38.9028 24.2439 39.3135 24.7499 39.3135H30.2499C30.7558 39.3135 31.1665 38.9028 31.1665 38.3969C31.1665 37.8909 30.7558 37.4802 30.2499 37.4802Z" fill="white"/>
<path fill-rule="evenodd" clip-rule="evenodd" d="M4.58338 4.48022H50.4166C50.9227 4.48022 51.3334 4.8909 51.3334 5.39686V34.7302C51.3334 35.2362 50.9227 35.6469 50.4167 35.6469H4.58338C4.07742 35.6469 3.66675 35.2362 3.66675 34.7302V5.39686C3.66675 4.8909 4.07742 4.48022 4.58338 4.48022ZM5.5 33.8135H49.5V6.31349H5.5V33.8135Z" fill="white"/>
<path fill-rule="evenodd" clip-rule="evenodd" d="M15.5833 48.4802H39.4165C40.9327 48.4802 42.1666 49.7141 42.1666 51.2302C42.1666 52.7464 40.9328 53.9802 39.4166 53.9802H15.5833C14.0671 53.9802 12.8333 52.7464 12.8333 51.2302C12.8333 49.7141 14.0671 48.4802 15.5833 48.4802ZM15.5833 52.1469H39.4165C39.9226 52.1469 40.3333 51.7353 40.3333 51.2302C40.3333 50.7251 39.9226 50.3136 39.4166 50.3136H15.5833C15.0773 50.3136 14.6666 50.7251 14.6666 51.2302C14.6666 51.7353 15.0773 52.1469 15.5833 52.1469Z" fill="white"/>
<path fill-rule="evenodd" clip-rule="evenodd" d="M32.9999 42.0636C32.9999 46.3215 34.5417 48.4802 37.5833 48.4802C38.0892 48.4802 38.4999 48.8909 38.4999 49.3969C38.4999 49.9028 38.0892 50.3135 37.5833 50.3135H17.4166C16.9107 50.3135 16.5 49.9028 16.5 49.3969C16.5 48.8909 16.9107 48.4802 17.4166 48.4802C20.4582 48.4802 22 46.3215 22 42.0636C22 41.5576 22.4107 41.147 22.9166 41.147H32.0833C32.5892 41.147 32.9999 41.5576 32.9999 42.0636ZM23.8085 42.9802C23.6746 45.3681 23.0101 47.23 21.8816 48.4802H33.119C31.9897 47.23 31.3251 45.3681 31.1922 42.9802H23.8085Z" fill="white"/>
<path fill-rule="evenodd" clip-rule="evenodd" d="M41.5892 25.6093L43.8019 27.8221C44.1603 28.1805 44.1603 28.7599 43.8018 29.1182L41.2095 31.7115C41.0381 31.8838 40.8043 31.9801 40.5615 31.9801C40.3186 31.9801 40.0848 31.8838 39.9134 31.7115L37.7006 29.4977L36.4044 30.7949C36.1762 31.023 35.8434 31.1129 35.5318 31.0359C35.2192 30.9571 34.9708 30.7197 34.8782 30.4099L32.1282 21.2432C32.0311 20.9205 32.1191 20.5705 32.3583 20.3321C32.5967 20.0937 32.9459 20.0048 33.2695 20.102L42.4361 22.852C42.745 22.9454 42.9824 23.1929 43.0613 23.5055C43.1401 23.8181 43.0485 24.15 42.8202 24.3782L41.5892 25.6093ZM38.5467 27.7515L40.5615 29.7673L41.8576 28.4702L39.731 26.3435C39.5348 26.1492 39.4267 25.8871 39.4267 25.6093C39.4267 25.3325 39.5339 25.0721 39.7292 24.8759L40.4387 24.1664L34.3731 22.3468L36.1927 28.4124L36.8546 27.7505C37.0873 27.5186 37.3935 27.4013 37.7006 27.4013C38.0068 27.4013 38.3129 27.5178 38.5467 27.7515Z" fill="white"/>
<path fill-rule="evenodd" clip-rule="evenodd" d="M12.8334 8.14685H38.5C39.006 8.14685 39.4166 8.55752 39.4166 9.06348V13.6469C39.4166 14.1528 39.006 14.5635 38.5 14.5635H12.8334C12.3274 14.5635 11.9167 14.1528 11.9167 13.6469V9.06348C11.9167 8.55752 12.3274 8.14685 12.8334 8.14685ZM13.75 12.7302H37.5834V9.98021H13.75V12.7302Z" fill="white"/>
<path fill-rule="evenodd" clip-rule="evenodd" d="M16.5001 18.2302H23.8335C24.3395 18.2302 24.7501 18.6409 24.7501 19.1469V22.8135C24.7501 23.3194 24.3395 23.7301 23.8335 23.7301H16.5001C15.9942 23.7301 15.5835 23.3194 15.5835 22.8135V19.1469C15.5835 18.6409 15.9942 18.2302 16.5001 18.2302ZM17.4167 21.8969H22.9167V20.0635H17.4167V21.8969Z" fill="white"/>
<path fill-rule="evenodd" clip-rule="evenodd" d="M12.8334 8.14685H38.5C39.006 8.14685 39.4166 8.55752 39.4167 9.06348V22.6283C39.4167 22.918 39.2801 23.1912 39.0473 23.3635C38.8155 23.5368 38.5148 23.5899 38.237 23.5065L34.3733 22.3468L35.5338 26.2161C35.6172 26.4939 35.5641 26.7945 35.3908 27.0273C35.2184 27.2602 34.9462 27.3967 34.6556 27.3967H12.8334C12.3274 27.3967 11.9167 26.9861 11.9167 26.4801V9.06348C11.9167 8.55752 12.3274 8.14685 12.8334 8.14685ZM33.2686 20.102L37.5834 21.3964V9.98021H13.75V25.5636H33.4235L32.1273 21.2443C32.0302 20.9206 32.1182 20.5714 32.3574 20.3321C32.5958 20.0938 32.945 20.0048 33.2686 20.102Z" fill="white"/>
</svg>
