<svg viewBox="0 0 1159 545" fill="currentColor" xmlns="http://www.w3.org/2000/svg">
  <style>
    #center-dot-1,
    #center-dot-2,
    #center-dot-3 {
      visibility: hidden;
    }
  </style>
  <!-- Small dots -->
  <path id="small-dot-1" class="small-dot"
    d="M536.913 62.6292C552.52 62.6292 565.172 49.8837 565.172 34.1613C565.172 18.439 552.52 5.69348 536.913 5.69348C521.306 5.69348 508.655 18.439 508.655 34.1613C508.655 49.8837 521.306 62.6292 536.913 62.6292Z" />
  <path id="small-dot-2" class="small-dot"
    d="M594.843 51.2421C604.988 51.2421 613.211 42.9575 613.211 32.738C613.211 22.5185 604.988 14.2339 594.843 14.2339C584.699 14.2339 576.475 22.5185 576.475 32.738C576.475 42.9575 584.699 51.2421 594.843 51.2421Z" />
  <path id="small-dot-3" class="small-dot"
    d="M634.405 42.7017C639.868 42.7017 644.296 38.2408 644.296 32.7379C644.296 27.2351 639.868 22.7742 634.405 22.7742C628.943 22.7742 624.515 27.2351 624.515 32.7379C624.515 38.2408 628.943 42.7017 634.405 42.7017Z" />

  <!-- Text -->
  <path class="text-path"
    d="M88.0262 188.048L56.7582 274.837H56.1351L25.1786 188.048H2.83223L47.2418 300.791H64.5469L109.608 188.048H88.0262Z" />

  <path class="text-path"
    d="M184.011 188.048H166.706L117.85 300.791H140.225L150.364 274.979H199.079L209.558 300.791H232.386L184.011 188.048ZM157.19 257.78L174.806 211.927L192.111 257.78H157.19Z" />
  <path class="text-path"
    d="M327.351 253.8C325.284 250.105 322.65 247.006 319.421 244.562C316.192 242.145 312.652 240.155 308.8 238.677C304.92 237.199 301.209 235.863 297.612 234.697C294.44 233.759 291.523 232.793 288.889 231.826C286.227 230.888 283.989 229.751 282.148 228.5C280.279 227.221 278.835 225.686 277.787 223.866C276.71 222.075 276.201 219.886 276.201 217.356C276.201 214.571 276.795 212.211 278.013 210.25C279.231 208.288 280.789 206.696 282.687 205.474C284.584 204.251 286.708 203.37 289.031 202.773C291.353 202.176 293.704 201.892 296.026 201.892C299.935 201.892 303.815 202.83 307.695 204.678C311.547 206.554 314.521 208.857 316.645 211.614L329.645 197.287C325.312 193.25 320.214 190.208 314.351 188.19C308.488 186.171 302.682 185.177 296.961 185.177C291.891 185.177 286.907 185.83 281.978 187.166C277.05 188.503 272.66 190.521 268.809 193.221C264.957 195.922 261.841 199.362 259.462 203.484C257.083 207.634 255.893 212.552 255.893 218.295C255.893 223.61 256.715 228.045 258.414 231.599C260.113 235.152 262.294 238.165 265.013 240.582C267.704 243.026 270.734 244.988 274.133 246.495C277.503 247.973 280.902 249.252 284.273 250.304C287.785 251.469 291.098 252.578 294.27 253.658C297.443 254.71 300.19 255.961 302.512 257.382C304.863 258.832 306.704 260.538 308.092 262.499C309.451 264.461 310.131 266.934 310.131 269.89C310.131 272.961 309.536 275.548 308.318 277.623C307.1 279.698 305.514 281.404 303.56 282.797C301.606 284.161 299.397 285.156 296.961 285.753C294.525 286.322 292.146 286.606 289.824 286.606C285.377 286.606 280.874 285.497 276.257 283.28C271.669 281.034 267.987 278.021 265.24 274.183L250.965 287.572C255.412 292.888 261.105 296.897 268.1 299.597C275.068 302.298 282.205 303.662 289.512 303.662C295.007 303.662 300.246 302.923 305.231 301.417C310.188 299.938 314.521 297.721 318.231 294.736C321.941 291.78 324.887 288.027 327.124 283.507C329.334 278.987 330.438 273.728 330.438 267.673C330.438 262.158 329.419 257.524 327.351 253.8Z" />
  <path class="text-path"
    d="M386.29 282.939V251.1H437.865V234.214H386.29V205.559H440.726V188.048H366.294V300.791H443.558V282.939H386.29Z" />
  <path class="text-path"
    d="M560.983 272.591C558.122 276.542 554.355 279.698 549.711 282.086C545.066 284.474 539.713 285.668 533.68 285.668C527.874 285.668 522.634 284.644 517.989 282.626C513.316 280.608 509.323 277.765 506.009 274.126C502.667 270.459 500.09 266.081 498.305 260.964C496.493 255.876 495.615 250.247 495.615 244.107C495.615 238.251 496.521 232.849 498.39 227.846C500.231 222.871 502.865 218.522 506.321 214.798C509.748 211.074 513.854 208.174 518.612 206.042C523.371 203.91 528.667 202.858 534.473 202.858C539.033 202.858 543.678 203.797 548.436 205.644C553.194 207.492 557.074 210.449 560.02 214.485L575.257 202.375C573.02 199.39 570.329 196.86 567.157 194.728C563.985 192.596 560.615 190.834 557.018 189.384C553.421 187.962 549.654 186.911 545.745 186.2C541.837 185.518 538.07 185.177 534.473 185.177C525.806 185.177 517.763 186.569 510.371 189.327C502.95 192.084 496.521 196.007 491.083 201.096C485.645 206.184 481.34 212.382 478.225 219.659C475.109 226.936 473.551 235.067 473.551 244.107C473.551 252.919 475.024 260.964 477.998 268.213C480.972 275.491 485.079 281.745 490.375 287.004C495.671 292.263 501.987 296.356 509.323 299.284C516.687 302.184 524.758 303.662 533.538 303.662C543.14 303.662 551.551 301.928 558.745 298.489C565.939 295.02 572.029 290.159 577.013 283.905L560.983 272.591Z" />
  <path class="text-path" d="M592.563 188.048V205.559H626.974V300.791H646.97V205.559H681.41V188.048H592.563Z" />
  <path class="text-path"
    d="M816.338 219.659C813.308 212.382 809.116 206.184 803.735 201.096C798.325 196.007 791.924 192.084 784.532 189.327C779.746 187.564 774.704 186.342 769.351 185.717V203.797C771.787 204.308 774.081 205.047 776.262 206.042C781.02 208.174 785.099 211.074 788.497 214.798C791.868 218.522 794.502 222.871 796.343 227.846C798.184 232.849 799.118 238.251 799.118 244.107C799.118 250.162 798.184 255.705 796.343 260.737C794.502 265.768 791.839 270.146 788.412 273.87C784.985 277.594 780.879 280.494 776.12 282.541C773.968 283.479 771.702 284.218 769.351 284.701V303.094C774.704 302.44 779.746 301.161 784.532 299.284C791.924 296.356 798.325 292.263 803.735 287.004C809.116 281.745 813.308 275.491 816.338 268.213C819.34 260.964 820.87 252.919 820.87 244.107C820.87 235.067 819.34 226.936 816.338 219.659ZM717.181 201.096C711.828 206.184 707.665 212.382 704.635 219.659C701.632 226.936 700.131 235.067 700.131 244.107C700.131 252.919 701.632 260.964 704.635 268.213C707.665 275.491 711.828 281.745 717.181 287.004C722.506 292.263 728.85 296.356 736.214 299.284C741.284 301.274 746.637 302.611 752.358 303.207V284.9C749.696 284.388 747.175 283.593 744.767 282.541C740.066 280.494 735.987 277.594 732.56 273.87C729.133 270.146 726.471 265.768 724.63 260.737C722.789 255.705 721.855 250.162 721.855 244.107C721.855 238.251 722.789 232.849 724.63 227.846C726.471 222.871 729.105 218.522 732.476 214.798C735.874 211.074 739.924 208.174 744.626 206.042C747.062 204.934 749.639 204.138 752.358 203.598V185.603C746.637 186.171 741.284 187.422 736.214 189.327C728.85 192.084 722.506 196.007 717.181 201.096Z" />
  <path class="text-path"
    d="M945.885 188.048L916.996 268.157H916.515L887.342 188.048H856.074V300.791H875.107V210.164H875.447L909.066 300.791H923.029L957.157 210.164H957.469V300.791H977.295V188.048H945.885Z" />
  <path class="text-path" d="M1017.91 188.048V300.791H1037.9V188.048H1017.91Z" />
  <path class="text-path"
    d="M1098.51 282.939V251.1H1150.06V234.214H1098.51V205.559H1152.92V188.048H1078.52V300.791H1155.78V282.939H1098.51Z" />
  <path class="text-path"
    d="M95.1418 389.286H119.303C136.431 389.286 146.943 400.321 146.943 420.177C146.943 440.032 136.772 450.992 119.568 450.992H95.1418V389.286V389.286ZM105.502 442.284H118.811C132.726 442.284 136.62 432 136.62 420.177C136.62 408.353 132.726 397.994 118.811 397.994H105.502V442.284Z" />
  <path class="text-path"
    d="M188.119 406.139V414.697H187.93C179.158 413.233 172.087 419.088 172.087 428.509V451.03H162.975V406.927H172.087V415.222H172.276C174.62 409.705 178.288 405.914 184.111 405.914C185.699 405.876 186.795 405.951 188.119 406.139Z" />
  <path class="text-path"
    d="M196.399 446.075C196.399 442.697 198.819 440.445 202.033 440.445C205.172 440.445 207.591 442.697 207.591 446.075C207.591 449.528 205.172 451.668 202.033 451.668C198.819 451.705 196.399 449.528 196.399 446.075Z" />
  <path class="text-path"
    d="M250.393 389.286H276.823C288.734 389.286 297.355 394.803 297.355 407.753C297.355 420.702 288.734 426.295 276.823 426.295H260.754V450.992H250.393V389.286V389.286ZM260.754 417.512H276.407C283.365 417.512 287.032 414.584 287.032 407.753C287.032 401.034 283.365 397.994 276.407 397.994H260.754V417.512Z" />
  <path class="text-path"
    d="M311.95 394.653C311.95 391.538 314.559 389.924 317.092 389.924C319.777 389.924 322.31 391.575 322.31 394.653C322.31 397.731 319.777 399.495 317.092 399.495C314.559 399.495 311.95 397.768 311.95 394.653ZM321.705 406.927V451.03H312.593V406.927H321.705Z" />
  <path class="text-path"
    d="M370.746 437.555H379.858C377.59 445.925 370.973 452.306 359.592 452.306C345.753 452.306 337.321 442.81 337.321 428.997C337.321 414.659 345.753 405.688 359.138 405.688C373.468 405.688 380.539 415.597 380.539 431.324H346.471C346.471 438.756 351.235 444.874 359.327 444.874C366.927 444.874 369.952 440.22 370.746 437.555ZM346.471 424.606H371.426C371.426 417.774 366.549 412.857 359.176 412.857C351.803 412.857 346.471 417.774 346.471 424.606Z" />
  <path class="text-path"
    d="M420.656 406.139V414.697H420.467C411.695 413.233 404.624 419.088 404.624 428.509V451.03H395.512V406.927H404.624V415.222H404.813C407.157 409.705 410.825 405.914 416.648 405.914C418.236 405.876 419.37 405.951 420.656 406.139Z" />
  <path class="text-path"
    d="M460.32 406.139V414.697H460.131C451.359 413.233 444.288 419.088 444.288 428.509V451.03H435.176V406.927H444.288V415.222H444.477C446.821 409.705 450.489 405.914 456.312 405.914C457.862 405.876 458.996 405.951 460.32 406.139Z" />
  <path class="text-path"
    d="M504.407 437.555H513.52C511.251 445.925 504.634 452.306 493.253 452.306C479.414 452.306 470.983 442.81 470.983 428.997C470.983 414.659 479.414 405.688 492.8 405.688C507.13 405.688 514.2 415.597 514.2 431.324H480.133C480.133 438.756 484.897 444.874 492.989 444.874C500.589 444.874 503.613 440.22 504.407 437.555ZM480.133 424.606H505.088C505.088 417.774 500.21 412.857 492.837 412.857C485.464 412.857 480.133 417.774 480.133 424.606Z" />
  <path class="text-path"
    d="M570.841 452.306C555.868 452.306 551.709 442.284 551.709 431.662V428.809H561.54V431.662C561.54 438.568 562.75 443.485 570.577 443.485C578.328 443.485 579.689 438.568 579.689 431.662V389.286H589.936V431.662C589.974 442.284 585.814 452.306 570.841 452.306Z" />
  <path class="text-path"
    d="M632.776 406.139V414.697H632.587C623.815 413.233 616.744 419.088 616.744 428.509V451.03H607.631V406.927H616.744V415.222H616.933C619.277 409.705 622.945 405.914 628.768 405.914C630.318 405.876 631.452 405.951 632.776 406.139Z" />
  <path class="text-path"
    d="M641.019 446.075C641.019 442.697 643.438 440.445 646.652 440.445C649.791 440.445 652.211 442.697 652.211 446.075C652.211 449.528 649.791 451.668 646.652 451.668C643.476 451.705 641.019 449.528 641.019 446.075Z" />
  <path class="text-path"
    d="M732.256 417.699V417.887C738.76 419.013 744.356 423.742 744.356 432.976C744.356 444.874 736.113 451.03 723.219 451.03H695.05V389.323H721.745C734.525 389.323 741.898 394.953 741.898 404.862C741.898 412.444 737.361 415.973 732.256 417.699ZM721.367 414.847C728.74 414.847 731.538 411.919 731.538 406.476C731.538 401.034 728.135 398.031 721.972 398.031H705.373V414.847H721.367ZM705.373 442.284H722.425C731.311 442.284 733.995 438.155 733.995 432.375C733.995 426.069 730.101 422.541 723.56 422.541H705.373V442.284Z" />
  <path class="text-path"
    d="M779.558 452.306C765.643 452.306 757.211 442.735 757.211 428.997C757.211 415.26 765.643 405.688 779.558 405.688C793.472 405.688 801.904 415.26 801.904 428.997C801.904 442.735 793.472 452.306 779.558 452.306ZM779.558 444.874C788.254 444.874 792.792 438.043 792.792 428.997C792.792 419.839 788.254 413.12 779.558 413.12C770.861 413.12 766.324 419.839 766.324 428.997C766.324 438.08 770.861 444.874 779.558 444.874Z" />
  <path class="text-path"
    d="M855.293 406.927V451.03H846.181V445.325H845.991C843.647 448.778 839.034 452.231 831.397 452.231C823.154 452.231 816.613 447.502 816.613 437.367V406.889H825.838V434.777C825.838 440.745 828.372 444.536 834.611 444.536C841.643 444.536 846.181 440.295 846.181 433.764V406.927H855.293V406.927Z" />
  <path class="text-path"
    d="M892.272 413.12C883.311 413.12 879.492 420.702 879.492 428.997C879.492 437.292 883.236 444.874 892.272 444.874C900.099 444.874 902.973 439.507 903.313 434.59H912.426C911.745 444.761 903.805 452.268 892.272 452.268C878.963 452.268 870.38 442.772 870.38 428.959C870.38 415.147 879.001 405.651 892.197 405.651C903.767 405.651 911.329 412.97 912.463 422.991H903.351C902.973 418.562 900.099 413.12 892.272 413.12Z" />
  <path class="text-path"
    d="M965.814 420.552V451.03H956.589V423.142C956.589 417.174 954.055 413.383 947.703 413.383C941.011 413.383 936.209 417.624 936.209 424.155V450.992H927.096V389.286H936.209V412.595H936.398C938.742 409.141 943.355 405.688 950.841 405.688C959.311 405.688 965.814 410.455 965.814 420.552Z" />
  <path class="text-path"
    d="M1013.91 437.555H1023.02C1020.75 445.925 1014.14 452.306 1002.76 452.306C988.917 452.306 980.485 442.81 980.485 428.997C980.485 414.659 988.917 405.688 1002.3 405.688C1016.63 405.688 1023.7 415.597 1023.7 431.324H989.635C989.635 438.756 994.4 444.874 1002.49 444.874C1010.09 444.874 1013.15 440.22 1013.91 437.555ZM989.673 424.606H1014.63C1014.63 417.774 1009.75 412.857 1002.38 412.857C995.005 412.857 989.673 417.774 989.673 424.606Z" />
  <path class="text-path"
    d="M1063.86 406.139V414.697H1063.67C1054.9 413.233 1047.83 419.088 1047.83 428.509V451.03H1038.71V406.927H1047.83V415.222H1048.02C1050.36 409.705 1054.03 405.914 1059.85 405.914C1061.4 405.876 1062.54 405.951 1063.86 406.139Z" />
  <path class="text-path"
    d="M229.475 524.067C229.475 511.982 237.098 503.172 249.31 503.172C261.485 503.172 269.146 511.982 269.146 524.067C269.146 536.153 261.447 545 249.31 545C237.098 545 229.475 536.115 229.475 524.067ZM262.433 524.067C262.433 515.973 258.602 508.895 249.31 508.895C240.018 508.895 236.15 515.973 236.15 524.067C236.15 532.2 240.056 539.277 249.31 539.277C258.602 539.277 262.433 532.2 262.433 524.067Z" />
  <path class="text-path"
    d="M280.182 504.038H288.905L300.207 534.91H300.321L311.585 504.038H320.308V544.172H313.747V513.752H313.633L302.938 544.172H297.552L286.857 513.752H286.743V544.172H280.182V504.038V504.038Z" />
  <path class="text-path"
    d="M332.785 504.038H340.295L358.499 534.195H358.613V504.038H365.326V544.172H357.854L339.612 514.128H339.498V544.172H332.785V504.038Z" />
  <path class="text-path" d="M384.744 504.038V544.172H378.031V504.038H384.744Z" />
  <path class="text-path"
    d="M397.335 504.038H414.516C422.253 504.038 427.866 507.615 427.866 516.048C427.866 524.482 422.253 528.133 414.516 528.133H404.048V544.172H397.335V504.038ZM404.086 522.373H414.25C418.764 522.373 421.153 520.453 421.153 516.048C421.153 511.681 418.764 509.723 414.25 509.723H404.086V522.373Z" />
  <path class="text-path"
    d="M437.992 504.038H455.249C463.554 504.038 468.94 508.255 468.94 515.559C468.94 521.168 466.058 524.444 461.431 525.536V525.649C470.76 527.381 467.385 543.118 469.509 543.795V544.172H462.455C460.596 542.478 464.389 528.698 454.642 528.698H444.743V544.172H438.03V504.038H437.992ZM444.705 522.938H453.807C457.941 522.938 462.227 522.147 462.227 516.312C462.227 510.514 457.941 509.686 453.807 509.686H444.705V522.938Z" />
  <path class="text-path"
    d="M487.258 534.684L483.996 544.172H477.17L492.037 504.038H499.091L513.92 544.172H507.093L503.832 534.684H487.258ZM501.973 529.112L495.64 510.138H495.526L489.154 529.112H501.973Z" />
  <path class="text-path"
    d="M528.939 509.686H516.006V504.001H548.584V509.686H535.69V544.134H528.977V509.686H528.939Z" />
  <path class="text-path" d="M565.613 504.038V544.172H558.9V504.038H565.613Z" />
  <path class="text-path"
    d="M595.802 508.895C587.079 508.895 583.628 516.124 583.628 524.067C583.628 532.049 587.079 539.277 595.802 539.277C603.312 539.277 606.194 534.383 606.649 529.526H613.362C612.452 538.562 606.232 545 595.954 545C584.311 545 576.953 536.19 576.953 524.067C576.953 511.982 584.311 503.172 595.954 503.172C606.194 503.172 612.414 509.61 613.362 517.818H606.649C605.929 513.789 603.274 508.895 595.802 508.895Z" />
  <path class="text-path" d="M630.846 504.038V544.172H624.133V504.038H630.846Z" />
  <path class="text-path"
    d="M669.91 520.566V526.289H650.188V538.449H673.247V544.134H643.437V504.001H672.678V509.686H650.188V520.566H669.91V520.566Z" />
  <path class="text-path"
    d="M684.36 504.038H691.869L710.073 534.195H710.187V504.038H716.9V544.172H709.429L691.186 514.128H691.072V544.172H684.36V504.038Z" />
  <path class="text-path"
    d="M763.17 508.895C754.447 508.895 750.996 516.124 750.996 524.067C750.996 532.049 754.447 539.277 763.17 539.277C770.679 539.277 773.562 534.383 774.017 529.526H780.73C779.819 538.562 773.6 545 763.322 545C751.678 545 744.321 536.19 744.321 524.067C744.321 511.982 751.678 503.172 763.322 503.172C773.562 503.172 779.781 509.61 780.73 517.818H774.017C773.296 513.789 770.641 508.895 763.17 508.895Z" />
  <path class="text-path"
    d="M808.681 508.895C799.958 508.895 796.507 516.124 796.507 524.067C796.507 532.049 799.958 539.277 808.681 539.277C816.19 539.277 819.073 534.383 819.528 529.526H826.241C825.331 538.562 819.111 545 808.833 545C797.189 545 789.831 536.19 789.831 524.067C789.831 511.982 797.189 503.172 808.833 503.172C819.073 503.172 825.293 509.61 826.241 517.818H819.528C818.769 513.789 816.115 508.895 808.681 508.895Z" />
  <path class="text-path"
    d="M836.86 504.038H845.583L856.885 534.91H856.999L868.263 504.038H876.986V544.172H870.425V513.752H870.311L859.616 544.172H854.23L843.535 513.752H843.421V544.172H836.86V504.038V504.038Z" />
  <path class="text-path"
    d="M913.698 521.357V527.079H896.214V544.134H889.501V504.001H917.756V509.686H896.214V521.357H913.698Z" />

  <!-- Center dots -->
  <path id="center-dot-1" class="center-dot"
    d="M532 309C539.12 309 546.08 306.889 552.001 302.933C557.921 298.977 562.535 293.355 565.26 286.777C567.984 280.198 568.697 272.96 567.308 265.977C565.919 258.993 562.491 252.579 557.456 247.544C552.421 242.509 546.007 239.081 539.023 237.692C532.04 236.303 524.802 237.016 518.223 239.74C511.645 242.465 506.023 247.079 502.067 252.999C498.111 258.92 496 265.88 496 273C496 282.548 499.793 291.705 506.544 298.456C513.295 305.207 522.452 309 532 309Z" />
  <path id="center-dot-2" class="center-dot"
    d="M604 297C608.747 297 613.387 295.592 617.334 292.955C621.28 290.318 624.357 286.57 626.173 282.184C627.99 277.799 628.465 272.973 627.539 268.318C626.613 263.662 624.327 259.386 620.971 256.029C617.614 252.673 613.338 250.387 608.682 249.461C604.027 248.535 599.201 249.01 594.816 250.827C590.43 252.643 586.682 255.72 584.045 259.666C581.408 263.613 580 268.253 580 273C580 279.365 582.529 285.47 587.029 289.971C591.53 294.471 597.635 297 604 297Z" />
  <path id="center-dot-3" class="center-dot"
    d="M652 285C654.373 285 656.693 284.296 658.667 282.978C660.64 281.659 662.178 279.785 663.087 277.592C663.995 275.399 664.232 272.987 663.769 270.659C663.306 268.331 662.164 266.193 660.485 264.515C658.807 262.836 656.669 261.694 654.341 261.231C652.013 260.768 649.601 261.005 647.408 261.913C645.215 262.822 643.341 264.36 642.022 266.333C640.704 268.307 640 270.627 640 273C640 276.183 641.264 279.235 643.515 281.485C645.765 283.736 648.817 285 652 285Z" />
</svg>
