<svg width="150" height="150" viewBox="0 0 150 150" fill="none" xmlns="http://www.w3.org/2000/svg">
<g opacity="0.7" clip-path="url(#clip0)">
<path d="M20.8144 72.6476V81.0071H18.686V69.2285H20.8598L27.3494 77.4999V69.2285H29.48V81.0071H27.2972L20.8144 72.6476Z" fill="white"/>
<path d="M33.0946 76.548C33.205 77.3698 33.6007 78.1199 34.2059 78.6542C34.811 79.1886 35.5829 79.4696 36.3734 79.4432C38.2409 79.4432 39.3232 77.7909 39.3232 77.7909L41.0137 78.8123C41.0137 78.8123 39.5002 81.1718 36.2055 81.1718C32.3254 81.1718 31.0229 78.1813 31.0229 76.0313C31.0229 73.8813 32.3413 70.9004 36.2169 70.9004C40.0924 70.9004 41.4017 73.8932 41.4017 76.0409C41.4017 76.2099 41.3904 76.3837 41.3745 76.5575L33.0946 76.548ZM39.1894 74.8242C38.8263 73.6813 37.9164 72.6194 36.2169 72.6194C34.5173 72.6194 33.6074 73.6909 33.2489 74.8337L39.1894 74.8242Z" fill="white"/>
<path d="M58.928 71.0859L54.5895 80.9955H50.9476L50.3577 74.755L47.6348 80.9955H43.9816L43.0444 71.0859H45.2681L46.0124 78.9431H46.3074L49.7473 71.0859H52.2433L52.9853 78.9431H53.2802L56.7224 71.0859H58.928Z" fill="white"/>
<path d="M67.8819 72.2932L66.7882 74.1361C66.4967 73.7661 66.1295 73.4698 65.7139 73.2691C65.2983 73.0683 64.845 72.9684 64.3876 72.9766C63.3574 72.9766 62.2206 73.7171 61.4605 74.5932V80.9956H59.3003V71.0861H61.4605V72.8313C62.2546 71.8575 63.4096 70.9004 64.6916 70.9004C65.8877 70.9092 67.0329 71.4092 67.8819 72.2932V72.2932Z" fill="white"/>
<path d="M78.4035 75.4503V80.9955H76.241V79.9646C75.0684 80.7376 73.7161 81.1585 72.3314 81.1812C69.6085 81.1812 68.6328 79.7026 68.6328 78.2193C68.6328 76.736 69.7129 75.2526 72.3314 75.2526C73.7168 75.2777 75.069 75.701 76.241 76.4765V75.4503C76.241 73.5741 75.9665 72.7146 73.7178 72.7146C72.3148 72.7367 70.9401 73.1315 69.722 73.8622L68.7372 72.3669C68.7372 72.3669 70.9563 70.8955 73.5635 70.8955C77.3438 70.8955 78.4035 72.7026 78.4035 75.4503ZM76.241 78.0265C75.406 77.3574 74.1739 76.7336 72.8714 76.7336C71.3693 76.7336 70.793 77.4241 70.793 78.2193C70.793 79.0146 71.7006 79.7026 72.8714 79.7026C74.0956 79.6629 75.2758 79.2151 76.241 78.4241V78.0265Z" fill="white"/>
<path d="M89.6219 67.5361V80.9957H87.4617V79.2957C86.6131 80.3814 85.0406 81.1814 83.4772 81.1814C80.9336 81.1814 79.8467 78.6123 79.8467 76.0409C79.8467 73.4695 81.637 70.9004 84.1579 70.9004C85.5942 70.9004 86.7742 72.048 87.4594 73.0433V67.5361H89.6219ZM87.4617 75.0742C86.8786 74.0409 85.921 72.7599 84.6594 72.7599C82.8441 72.7599 81.9751 74.2814 81.9751 76.0409C81.9751 77.8004 82.5423 79.3242 83.9787 79.3242C84.6669 79.3196 85.3436 79.1392 85.9504 78.7986C86.5573 78.458 87.076 77.9675 87.4617 77.3695V75.0742Z" fill="white"/>
<path d="M93.216 76.548C93.3264 77.3698 93.7221 78.1199 94.3273 78.6542C94.9324 79.1886 95.7043 79.4696 96.4948 79.4432C98.3623 79.4432 99.4446 77.7909 99.4446 77.7909L101.135 78.8123C101.135 78.8123 99.6216 81.1718 96.3269 81.1718C92.4468 81.1718 91.1421 78.1813 91.1421 76.0313C91.1421 73.8813 92.4582 70.9004 96.3292 70.9004C100.2 70.9004 101.512 73.8932 101.512 76.0409C101.512 76.2099 101.5 76.3837 101.485 76.5575L93.216 76.548ZM99.3108 74.8242C98.9477 73.6813 98.0355 72.6194 96.3383 72.6194C94.641 72.6194 93.7288 73.6813 93.3658 74.8242H99.3108Z" fill="white"/>
<path d="M102.52 81.0076V78.5361H104.922V81.0076H102.52Z" fill="white"/>
<path d="M56.7859 80.665H41.7261V81.3484H56.7859V80.665Z" fill="white"/>
<g clip-path="url(#clip1)">
<path d="M125.826 77.4966L124.689 75.9611L124.928 77.8566C124.971 78.2003 125.032 78.6085 125.097 79.0466C125.214 79.8315 125.345 80.7124 125.415 81.4896C125.421 81.5578 125.414 81.6262 125.393 81.6901C125.373 81.7541 125.341 81.8112 125.3 81.8583C125.26 81.9052 125.212 81.9409 125.161 81.9647C125.11 81.9884 125.056 82.0001 125.002 82H125.001L123.701 82L123.7 82C123.646 82.0001 123.592 81.9884 123.541 81.9647C123.49 81.9409 123.442 81.9052 123.402 81.8583C123.361 81.8112 123.329 81.7541 123.309 81.6901C123.288 81.6264 123.281 81.5584 123.287 81.4906C123.421 80.0806 123.548 78.8603 123.677 77.8579L122.776 77.5016C122.179 78.3284 121.448 79.3042 120.57 80.4155C120.53 80.465 120.483 80.5035 120.432 80.5301C120.381 80.5568 120.327 80.5714 120.273 80.574C120.218 80.5767 120.164 80.5676 120.111 80.5464C120.059 80.5254 120.01 80.4925 119.968 80.4484C119.967 80.448 119.967 80.4476 119.967 80.4473L119.062 79.488L119.06 79.4862C119.018 79.4419 118.984 79.3873 118.961 79.325C118.938 79.2627 118.927 79.1952 118.93 79.1271C118.933 79.0589 118.949 78.9931 118.977 78.9339C119.005 78.8748 119.043 78.8245 119.088 78.7852C119.534 78.3964 119.934 78.0197 120.301 77.6743C120.341 77.6364 120.381 77.5989 120.42 77.5618C120.823 77.183 121.183 76.8493 121.534 76.5653L122.924 75.441L121.152 75.681C120.788 75.7303 120.441 75.7882 120.085 75.8475C119.503 75.9443 118.899 76.045 118.16 76.1189L118.159 76.119C118.105 76.1245 118.051 76.1181 117.998 76.0998C117.946 76.0815 117.896 76.0512 117.852 76.0091C117.807 75.967 117.77 75.914 117.745 75.8528C117.719 75.7917 117.705 75.7245 117.705 75.656V74.2976C117.705 74.2291 117.719 74.1621 117.745 74.1011C117.77 74.04 117.807 73.9871 117.851 73.945C117.895 73.9029 117.945 73.8725 117.998 73.8541C118.05 73.8358 118.105 73.8293 118.158 73.8346L118.16 73.8348C119.324 73.9455 120.282 74.0566 121.154 74.1721L122.927 74.4072L121.533 73.2867C120.955 72.8222 120.34 72.2887 119.62 71.664C119.454 71.5197 119.282 71.3705 119.104 71.2162C119.059 71.177 119.02 71.1267 118.992 71.0675C118.964 71.0083 118.947 70.9423 118.944 70.874C118.941 70.8057 118.952 70.738 118.975 70.6755C118.998 70.6131 119.032 70.5583 119.075 70.514C119.075 70.514 119.075 70.514 119.075 70.514L119.991 69.5532C119.991 69.553 119.991 69.5528 119.991 69.5526C120.034 69.5081 120.084 69.475 120.136 69.4538C120.188 69.4326 120.243 69.4234 120.298 69.426C120.352 69.4286 120.407 69.443 120.458 69.4695C120.509 69.496 120.556 69.5343 120.595 69.5835C121.328 70.5046 121.949 71.3603 122.485 72.0985C122.585 72.2367 122.683 72.3708 122.777 72.5005L123.676 72.1357C123.536 71.1468 123.417 69.9108 123.292 68.5107C123.286 68.4427 123.293 68.3744 123.313 68.3105C123.333 68.2466 123.365 68.1897 123.406 68.1426C123.446 68.0957 123.494 68.0599 123.545 68.036C123.595 68.0122 123.649 68.0003 123.702 68L125.001 68L125.002 68C125.055 67.9999 125.109 68.0116 125.16 68.0351C125.211 68.0588 125.258 68.0942 125.299 68.1409C125.34 68.1877 125.372 68.2444 125.392 68.3081C125.413 68.3716 125.421 68.4396 125.415 68.5075C125.364 69.0963 125.27 69.7695 125.175 70.4176C125.152 70.5704 125.13 70.7223 125.107 70.8714C125.036 71.3469 124.969 71.7934 124.927 72.147L124.704 74.0286L125.827 72.5021C126.046 72.2037 126.308 71.809 126.582 71.396C126.647 71.2979 126.712 71.1987 126.778 71.0996C127.128 70.5741 127.493 70.0388 127.838 69.5997C127.877 69.5504 127.924 69.512 127.975 69.4854C128.026 69.4587 128.08 69.4442 128.135 69.4415C128.189 69.4388 128.244 69.4479 128.296 69.4691C128.348 69.4902 128.398 69.5233 128.441 69.5677C128.441 69.5679 128.441 69.5681 128.441 69.5683L129.357 70.5316L129.359 70.5333C129.401 70.5771 129.435 70.6313 129.458 70.6931C129.481 70.7549 129.491 70.822 129.489 70.8898C129.486 70.9575 129.469 71.023 129.441 71.0817C129.414 71.1404 129.375 71.1903 129.33 71.2292L129.33 71.2298C128.604 71.8615 127.938 72.3864 127.331 72.8653C127.147 73.0106 126.968 73.1517 126.794 73.2902L125.351 74.4417L127.178 74.1758C127.799 74.0854 128.504 74.0221 129.3 73.9505C129.692 73.9153 130.106 73.8781 130.544 73.8346L130.545 73.8345C130.599 73.829 130.654 73.8353 130.706 73.8536C130.758 73.872 130.809 73.9023 130.853 73.9443C130.897 73.9865 130.934 74.0394 130.96 74.1007C130.986 74.1618 130.999 74.2289 131 74.2974V75.6559C130.999 75.7243 130.986 75.7913 130.96 75.8523C130.934 75.9135 130.897 75.9664 130.853 76.0085C130.809 76.0505 130.759 76.0809 130.707 76.0993C130.655 76.1177 130.6 76.1241 130.546 76.1188C129.525 76.0155 128.641 75.8894 127.845 75.7759C127.615 75.743 127.391 75.7111 127.174 75.6812L125.379 75.4336L126.793 76.5667C127.334 76.9997 127.923 77.5182 128.591 78.1067C128.831 78.3181 129.082 78.5385 129.344 78.7672L129.345 78.7685C129.39 78.8075 129.429 78.8576 129.457 78.9165C129.485 78.9755 129.502 79.0412 129.505 79.1092C129.508 79.1772 129.497 79.2446 129.474 79.3068C129.451 79.369 129.417 79.4235 129.375 79.4676L129.374 79.4684L128.459 80.4313C128.458 80.4316 128.458 80.4318 128.458 80.432C128.415 80.4764 128.366 80.5095 128.313 80.5306C128.261 80.5519 128.206 80.5611 128.152 80.5585C128.097 80.5559 128.043 80.5414 127.992 80.5149C127.941 80.4885 127.894 80.4504 127.854 80.4013C127.502 79.9569 127.136 79.4221 126.784 78.8983C126.718 78.7993 126.652 78.7002 126.586 78.6022C126.311 78.1904 126.048 77.7969 125.826 77.4966Z" fill="white" stroke="white"/>
</g>
</g>
<defs>
<clipPath id="clip0">
<rect width="113" height="15" fill="white" transform="translate(18.5 67.5)"/>
</clipPath>
<clipPath id="clip1">
<rect width="14.2952" height="15" fill="white" transform="translate(117.205 67.5)"/>
</clipPath>
</defs>
</svg>
