<svg width="800" height="800" viewBox="0 0 800 800" fill="none" xmlns="http://www.w3.org/2000/svg">
<path d="M449.793 595.87C446.273 558.918 442.675 526.841 438.998 499.009C455.974 520.866 475.922 545.553 499.234 573.62C501.858 576.743 505.096 579.287 508.744 581.092C512.393 582.897 516.375 583.924 520.437 584.109C524.5 584.293 528.557 583.632 532.353 582.165C536.149 580.698 539.602 578.458 542.495 575.586L571.753 546.26C574.634 543.386 576.882 539.936 578.353 536.133C579.824 532.331 580.485 528.261 580.294 524.186C580.102 520.11 579.062 516.121 577.24 512.475C575.419 508.829 572.856 505.608 569.719 503.019C538.427 476.996 510.89 455.296 487.109 437.135C517.618 441.145 553.604 444.997 596.004 449.085C600.05 449.467 604.132 448.998 607.988 447.708C611.844 446.417 615.389 444.333 618.399 441.589C621.41 438.845 623.818 435.501 625.471 431.769C627.124 428.038 627.985 424.001 628 419.917V378.562C627.986 374.471 627.123 370.427 625.465 366.69C623.807 362.953 621.392 359.604 618.373 356.859C615.354 354.113 611.799 352.031 607.933 350.746C604.068 349.461 599.979 349 595.926 349.394C554.386 353.325 518.948 357.256 488.908 361.423C512.377 343.576 538.74 322.113 569.25 296.797C572.38 294.21 574.935 290.991 576.748 287.348C578.562 283.706 579.595 279.721 579.779 275.653C579.963 271.584 579.296 267.521 577.819 263.729C576.342 259.936 574.089 256.497 571.205 253.634L541.948 224.309C539.055 221.43 535.599 219.186 531.799 217.72C527.999 216.253 523.937 215.594 519.871 215.786C515.804 215.979 511.822 217.017 508.175 218.836C504.529 220.655 501.298 223.214 498.686 226.353C475.765 254.106 456.208 278.557 439.467 300.256C442.909 272.582 446.429 240.662 449.793 203.867C450.151 199.81 449.665 195.723 448.365 191.865C447.065 188.008 444.98 184.465 442.242 181.462C439.504 178.459 436.174 176.062 432.464 174.424C428.754 172.786 424.744 171.942 420.692 171.947H379.23C375.176 171.962 371.17 172.826 367.467 174.483C363.763 176.14 360.444 178.555 357.721 181.573C354.998 184.591 352.93 188.146 351.65 192.011C350.37 195.877 349.905 199.968 350.285 204.025C354.275 246.558 358.108 282.645 362.646 313.15C343.636 288.306 320.636 259.373 292.63 225.802C290.006 222.679 286.769 220.136 283.12 218.331C279.471 216.526 275.49 215.498 271.427 215.314C267.364 215.129 263.308 215.791 259.512 217.258C255.716 218.725 252.262 220.965 249.369 223.837L220.111 253.084C217.229 255.965 214.979 259.422 213.507 263.231C212.036 267.04 211.374 271.116 211.566 275.197C211.757 279.279 212.798 283.274 214.62 286.927C216.442 290.58 219.006 293.808 222.145 296.404C252.264 321.248 278.627 342.24 301.627 359.851C273.62 356.313 241.311 352.775 203.996 349.394C199.95 349.012 195.869 349.481 192.013 350.772C188.157 352.062 184.611 354.146 181.601 356.89C178.59 359.634 176.182 362.979 174.529 366.71C172.876 370.441 172.015 374.478 172 378.562V419.917C172.014 424.009 172.877 428.052 174.535 431.79C176.193 435.527 178.608 438.875 181.627 441.621C184.646 444.366 188.202 446.448 192.067 447.733C195.932 449.019 200.022 449.479 204.074 449.085C242.015 445.469 274.481 441.773 303.113 438.078C279.644 456.161 252.576 477.782 221.598 503.569C218.476 506.171 215.93 509.399 214.122 513.048C212.315 516.696 211.286 520.684 211.102 524.755C210.917 528.827 211.582 532.892 213.053 536.69C214.524 540.488 216.768 543.935 219.642 546.811L248.587 576.058C251.48 578.936 254.935 581.18 258.736 582.647C262.536 584.114 266.597 584.772 270.664 584.58C274.73 584.388 278.712 583.349 282.359 581.531C286.005 579.712 289.236 577.152 291.848 574.013C320.01 540.049 343.088 511.117 362.255 485.801C358.108 516.542 354.431 552.943 350.129 595.87C349.747 599.939 350.216 604.044 351.506 607.92C352.795 611.797 354.877 615.36 357.617 618.38C360.357 621.4 363.696 623.812 367.417 625.459C371.139 627.107 375.163 627.954 379.23 627.947H420.692C424.759 627.954 428.783 627.107 432.505 625.459C436.227 623.812 439.565 621.4 442.305 618.38C445.045 615.36 447.127 611.797 448.416 607.92C449.706 604.044 450.175 599.939 449.793 595.87V595.87Z" fill="#171717"/>
</svg>
