<svg width="1499" height="234" viewBox="0 0 1499 234" fill="none" xmlns="http://www.w3.org/2000/svg">
<path d="M37.0388 85.7472V224.997H0V28.7939H37.7922L150.693 166.576V28.7939H187.732V224.997H149.702L37.0388 85.7472Z" fill="#171717"/>
<path d="M250.508 150.711C252.38 164.359 259.231 176.834 269.742 185.736C280.254 194.638 293.685 199.341 307.454 198.939C339.932 198.939 359.007 171.414 359.007 171.414L388.431 188.429C388.431 188.429 362.1 227.733 304.836 227.733C237.421 227.733 214.738 177.919 214.738 142.105C214.738 106.291 237.381 56.4766 304.836 56.4766C372.291 56.4766 394.935 106.33 394.935 142.105C394.935 144.921 394.935 147.816 394.459 150.711H250.508ZM356.429 121.997C350.124 102.959 334.261 85.2705 304.876 85.2705C275.491 85.2705 259.51 102.959 253.323 121.997H356.429Z" fill="#171717"/>
<path d="M699.533 59.7295L624.187 224.799H560.737L550.506 120.847L502.918 224.799H439.469L423.21 59.7295H461.835L474.763 190.611H479.838L539.64 59.7295H582.944L595.872 190.611H600.988L660.829 59.7295H699.533Z" fill="#171717"/>
<path d="M855.144 79.8374L836.149 110.535C831.098 104.382 824.722 99.449 817.499 96.1046C810.275 92.7601 802.389 91.0904 794.43 91.2202C776.506 91.2202 756.757 103.555 743.552 118.15V224.798H705.878V59.7293H743.472V88.8008C757.273 72.5795 777.339 56.6357 799.625 56.6357C820.46 56.7761 840.403 65.1104 855.144 79.8374Z" fill="#171717"/>
<path d="M1038.04 132.428V224.799H1000.44V207.625C980.095 220.503 956.589 227.516 932.513 227.892C885.282 227.892 868.19 203.263 868.19 178.554C868.19 153.845 886.987 129.136 932.513 129.136C956.601 129.548 980.108 136.603 1000.44 149.522V132.428C1000.44 101.175 995.685 86.8577 956.822 86.8577C932.416 87.2307 908.506 93.8093 887.344 105.974L870.213 81.0671C870.213 81.0671 908.798 56.5566 954.125 56.5566C1019.64 56.5566 1038.04 86.6593 1038.04 132.428ZM1000.44 175.341C985.929 164.197 964.515 153.805 941.871 153.805C915.778 153.805 905.784 165.307 905.784 178.554C905.784 191.801 921.449 203.263 941.871 203.263C963.169 202.603 983.696 195.139 1000.44 181.965V175.341Z" fill="#171717"/>
<path d="M1233.07 0.594727V224.798H1195.47V196.48C1180.72 214.566 1153.44 227.892 1126.23 227.892C1082.02 227.892 1063.22 185.098 1063.22 142.264C1063.22 99.43 1094.51 56.6357 1138.13 56.6357C1163.11 56.6357 1183.65 75.7523 1195.51 92.3306V0.594727H1233.07ZM1195.47 126.161C1185.36 108.949 1168.7 87.611 1146.81 87.611C1115.09 87.611 1100.14 112.954 1100.14 142.264C1100.14 171.573 1110.01 196.956 1134.96 196.956C1146.93 196.872 1158.71 193.861 1169.25 188.186C1179.8 182.511 1188.8 174.343 1195.47 164.395V126.161Z" fill="#171717"/>
<path d="M1295.52 150.711C1297.41 164.363 1304.26 176.837 1314.78 185.739C1325.3 194.641 1338.74 199.342 1352.51 198.939C1384.95 198.939 1404.06 171.414 1404.06 171.414L1433.45 188.429C1433.45 188.429 1407.12 227.733 1349.85 227.733C1282.44 227.733 1259.76 177.919 1259.76 142.105C1259.76 106.291 1282.44 56.4766 1349.85 56.4766C1417.27 56.4766 1439.91 106.489 1439.91 142.263C1439.93 145.084 1439.8 147.904 1439.52 150.711H1295.52ZM1401.45 122.155C1395.14 103.118 1379.32 85.4291 1349.89 85.4291C1320.47 85.4291 1304.57 103.118 1298.34 122.155H1401.45Z" fill="#171717"/>
<path d="M1457.2 224.996V183.828H1499V224.996H1457.2Z" fill="#171717"/>
<path d="M662.296 219.285H400.526V230.668H662.296V219.285Z" fill="#171717"/>
</svg>
