<svg width="1975" height="249" viewBox="0 0 1975 249" fill="none" xmlns="http://www.w3.org/2000/svg">
<path d="M40.4521 85.4505V224.219H3.25232V28.6943H41.2453L154.669 166V28.6943H191.908V224.219H153.757L40.4521 85.4505Z" fill="#171717"/>
<path d="M255.084 150.19C257.013 163.832 263.929 176.283 274.506 185.153C285.083 194.024 298.574 198.688 312.391 198.251C345.03 198.251 363.947 170.822 363.947 170.822L393.493 187.778C393.493 187.778 367.04 226.946 309.456 226.946C241.64 226.946 218.876 177.304 218.876 141.614C218.876 105.924 241.918 56.4399 309.654 56.4399C377.391 56.4399 400.274 106.121 400.274 141.772C400.274 144.578 400.076 147.463 399.799 150.349L255.084 150.19ZM361.607 121.575C355.262 102.604 339.359 84.9761 309.654 84.9761C279.95 84.9761 264.047 102.762 257.781 121.733L361.607 121.575Z" fill="#171717"/>
<path d="M706.598 59.5229L630.77 224.021H567.118L556.807 120.429L509.217 224.021H445.366L428.987 59.5229H467.853L480.861 189.951H486.016L546.139 59.5229H589.763L602.732 189.951H607.887L668.049 59.5229H706.598Z" fill="#171717"/>
<path d="M863.091 79.5614L843.976 110.153C838.88 104.011 832.463 99.092 825.199 95.7598C817.935 92.4277 810.012 90.7683 802.017 90.9047C784.012 90.9047 764.143 103.197 750.857 117.741V224.021H713.102V59.5228H750.857V88.4938C764.738 72.3285 784.924 56.4399 807.331 56.4399C828.236 56.5855 848.252 64.8854 863.091 79.5614Z" fill="#171717"/>
<path d="M1046.99 131.97V224.021H1009.19V206.907C988.698 219.74 965.063 226.726 940.861 227.104C893.271 227.104 876.218 202.559 876.218 177.936C876.218 153.313 895.095 128.689 940.861 128.689C965.074 129.105 988.709 136.132 1009.19 149.005V131.97C1009.19 100.825 1004.39 86.557 965.093 86.557C940.572 86.9239 916.544 93.4781 895.254 105.607L878.042 80.7866C878.042 80.7866 916.828 56.3608 962.396 56.3608C1028.47 56.3608 1046.99 86.3594 1046.99 131.97ZM1009.19 174.735C994.599 163.628 973.064 153.273 950.3 153.273C924.046 153.273 913.973 164.735 913.973 177.936C913.973 191.137 929.836 202.559 950.3 202.559C971.695 201.9 992.323 194.466 1009.19 181.335V174.735Z" fill="#171717"/>
<path d="M1243.06 0.592773V224.021H1205.3V195.801C1190.47 213.824 1162.99 227.104 1135.66 227.104C1091.21 227.104 1072.21 184.458 1072.21 141.772C1072.21 99.0861 1103.5 56.4399 1147.56 56.4399C1172.67 56.4399 1193.29 75.4904 1205.27 92.0113V0.592773H1243.06ZM1205.3 125.725C1195.11 108.572 1178.38 87.308 1156.33 87.308C1124.6 87.308 1109.41 112.564 1109.41 141.772C1109.41 170.98 1119.32 196.275 1144.43 196.275C1156.46 196.198 1168.28 193.203 1178.89 187.55C1189.5 181.896 1198.56 173.754 1205.3 163.826V125.725Z" fill="#171717"/>
<path d="M1305.88 150.19C1307.81 163.832 1314.73 176.283 1325.3 185.153C1335.88 194.024 1349.37 198.688 1363.19 198.251C1395.83 198.251 1414.74 170.822 1414.74 170.822L1444.29 187.778C1444.29 187.778 1417.84 226.946 1360.25 226.946C1292.44 226.946 1269.63 177.304 1269.63 141.614C1269.63 105.924 1292.63 56.4399 1360.29 56.4399C1427.95 56.4399 1450.87 106.121 1450.87 141.772C1450.87 144.578 1450.67 147.463 1450.4 150.349L1305.88 150.19ZM1412.4 121.575C1406.06 102.604 1390.11 84.9761 1360.45 84.9761C1330.79 84.9761 1314.84 102.604 1308.5 121.575H1412.4Z" fill="#171717"/>
<path d="M1468.48 224.218V183.192H1510.48V224.218H1468.48Z" fill="#171717"/>
<path d="M669.161 218.527H405.946V229.87H669.161V218.527Z" fill="#171717"/>
<path d="M1882.67 232.874C1880.89 214.298 1879.07 191.532 1877.2 177.541C1885.81 188.528 1895.92 207.579 1907.74 221.689C1909.07 223.259 1910.71 224.538 1912.56 225.445C1914.41 226.352 1916.43 226.869 1918.49 226.962C1920.55 227.054 1922.6 226.722 1924.53 225.984C1926.45 225.247 1928.2 224.121 1929.67 222.677L1944.5 207.935C1945.96 206.489 1947.1 204.755 1947.85 202.844C1948.59 200.932 1948.93 198.886 1948.83 196.837C1948.73 194.789 1948.21 192.783 1947.28 190.95C1946.36 189.117 1945.06 187.498 1943.47 186.196C1927.61 173.114 1914.56 162.68 1902.5 153.55C1917.97 155.566 1935.3 157.028 1956.8 159.083C1958.85 159.275 1960.92 159.039 1962.87 158.391C1964.83 157.742 1966.62 156.694 1968.15 155.315C1969.68 153.935 1970.9 152.254 1971.73 150.378C1972.57 148.502 1973.01 146.473 1973.02 144.42V123.63C1973.01 121.573 1972.57 119.54 1971.73 117.662C1970.89 115.783 1969.67 114.1 1968.14 112.72C1966.61 111.339 1964.8 110.293 1962.84 109.647C1960.88 109 1958.81 108.769 1956.76 108.967C1935.7 110.943 1917.73 112.524 1902.5 114.619C1914.4 105.647 1927.77 95.2522 1943.23 82.5255C1944.82 81.2249 1946.12 79.6067 1947.03 77.7757C1947.95 75.9446 1948.48 73.9415 1948.57 71.896C1948.66 69.8505 1948.33 67.8083 1947.58 65.9015C1946.83 63.9948 1945.69 62.2659 1944.22 60.827L1929.39 46.0846C1927.93 44.6375 1926.17 43.5096 1924.25 42.7721C1922.32 42.0347 1920.26 41.7037 1918.2 41.8003C1916.14 41.8969 1914.12 42.4189 1912.27 43.3333C1910.42 44.2476 1908.78 45.5344 1907.46 47.1122C1895.84 61.0641 1885.69 79.8379 1877.2 90.7465C1878.95 76.8341 1880.97 54.3055 1882.67 35.8084C1882.86 33.7689 1882.61 31.7141 1881.95 29.7748C1881.29 27.8355 1880.23 26.0544 1878.85 24.5447C1877.46 23.0351 1875.77 21.8302 1873.89 21.0067C1872.01 20.1832 1869.98 19.7592 1867.92 19.7617H1846.9C1844.85 19.7692 1842.82 20.2033 1840.94 21.0364C1839.06 21.8695 1837.38 23.0834 1836 24.6006C1834.62 26.1177 1833.57 27.905 1832.92 29.8483C1832.27 31.7916 1832.04 33.8484 1832.23 35.8874C1834.25 57.2698 1836.19 75.4112 1838.49 90.7465C1828.86 78.257 1817.2 63.7122 1803 46.8355C1801.67 45.2656 1800.03 43.9867 1798.18 43.0793C1796.33 42.1719 1794.31 41.6556 1792.25 41.5628C1790.19 41.47 1788.14 41.8027 1786.21 42.5401C1784.29 43.2774 1782.54 44.4035 1781.07 45.8474L1766.24 60.5503C1764.78 61.9989 1763.64 63.7366 1762.89 65.6513C1762.14 67.566 1761.81 69.6153 1761.9 71.6671C1762 73.7188 1762.53 75.7276 1763.45 77.5638C1764.38 79.3999 1765.68 81.0229 1767.27 82.3279C1782.54 94.8174 1796.77 105.766 1808.43 114.619C1794.24 112.84 1776.98 110.666 1758.07 108.967C1756.02 108.775 1753.95 109.011 1751.99 109.659C1750.04 110.308 1748.24 111.356 1746.71 112.735C1745.19 114.115 1743.97 115.796 1743.13 117.672C1742.29 119.548 1741.85 121.577 1741.85 123.63V144.42C1741.85 146.477 1742.29 148.51 1743.13 150.388C1743.97 152.267 1745.2 153.95 1746.73 155.331C1748.26 156.711 1750.06 157.757 1752.02 158.404C1753.98 159.05 1756.05 159.281 1758.11 159.083C1777.34 157.265 1793.8 155.407 1808.31 153.55C1796.42 162.64 1782.7 173.509 1766.99 186.473C1765.41 187.781 1764.12 189.404 1763.2 191.238C1762.28 193.072 1761.76 195.077 1761.67 197.124C1761.58 199.17 1761.91 201.214 1762.66 203.123C1763.4 205.033 1764.54 206.766 1766 208.211L1780.67 222.914C1782.14 224.361 1783.89 225.489 1785.82 226.227C1787.74 226.964 1789.8 227.295 1791.86 227.198C1793.93 227.102 1795.94 226.58 1797.79 225.665C1799.64 224.751 1801.28 223.464 1802.6 221.886C1816.88 204.812 1828.58 190.267 1838.3 177.541C1836.19 192.995 1834.33 211.294 1832.15 232.874C1831.96 234.92 1832.19 236.983 1832.85 238.932C1833.5 240.881 1834.56 242.672 1835.95 244.19C1837.33 245.709 1839.03 246.921 1840.91 247.749C1842.8 248.577 1844.84 249.003 1846.9 249H1867.92C1869.98 249.003 1872.02 248.577 1873.91 247.749C1875.8 246.921 1877.49 245.709 1878.88 244.19C1880.27 242.672 1881.32 240.881 1881.98 238.932C1882.63 236.983 1882.87 234.92 1882.67 232.874Z" fill="#171717"/>
</svg>
