<svg width="1499" height="234" viewBox="0 0 1499 234" fill="none" xmlns="http://www.w3.org/2000/svg">
<path d="M37.0388 85.7472V224.997H0V28.7939H37.7922L150.693 166.576V28.7939H187.732V224.997H149.702L37.0388 85.7472Z" fill="#171717"/>
<path d="M250.508 150.712C252.38 164.36 259.231 176.835 269.742 185.737C280.254 194.639 293.685 199.342 307.454 198.94C339.932 198.94 359.007 171.415 359.007 171.415L388.431 188.43C388.431 188.43 362.1 227.734 304.836 227.734C237.421 227.734 214.738 177.92 214.738 142.106C214.738 106.292 237.381 56.4775 304.836 56.4775C372.291 56.4775 394.935 106.331 394.935 142.106C394.935 144.922 394.935 147.817 394.459 150.712H250.508ZM356.429 121.998C350.124 102.96 334.261 85.2714 304.876 85.2714C275.491 85.2714 259.51 102.96 253.323 121.998H356.429Z" fill="#171717"/>
<path d="M699.533 59.73L624.187 224.799H560.737L550.506 120.848L502.918 224.799H439.469L423.21 59.73H461.835L474.763 190.611H479.838L539.64 59.73H582.944L595.872 190.611H600.988L660.829 59.73H699.533Z" fill="#171717"/>
<path d="M855.144 79.8379L836.149 110.536C831.098 104.382 824.722 99.4495 817.499 96.105C810.275 92.7606 802.389 91.0909 794.43 91.2206C776.506 91.2206 756.757 103.555 743.552 118.15V224.799H705.878V59.7298H743.472V88.8013C757.273 72.58 777.339 56.6362 799.625 56.6362C820.46 56.7766 840.403 65.1109 855.144 79.8379Z" fill="#171717"/>
<path d="M1038.04 132.428V224.799H1000.44V207.625C980.095 220.503 956.589 227.516 932.513 227.892C885.282 227.892 868.19 203.263 868.19 178.554C868.19 153.845 886.987 129.136 932.513 129.136C956.601 129.548 980.108 136.603 1000.44 149.522V132.428C1000.44 101.175 995.685 86.8577 956.822 86.8577C932.416 87.2307 908.506 93.8093 887.344 105.974L870.213 81.0671C870.213 81.0671 908.798 56.5566 954.125 56.5566C1019.64 56.5566 1038.04 86.6593 1038.04 132.428ZM1000.44 175.341C985.929 164.197 964.515 153.805 941.871 153.805C915.778 153.805 905.784 165.307 905.784 178.554C905.784 191.801 921.449 203.263 941.871 203.263C963.169 202.603 983.696 195.139 1000.44 181.965V175.341Z" fill="#171717"/>
<path d="M1233.07 0.595215V224.799H1195.47V196.481C1180.72 214.566 1153.44 227.892 1126.23 227.892C1082.02 227.892 1063.22 185.098 1063.22 142.264C1063.22 99.4305 1094.51 56.6362 1138.13 56.6362C1163.11 56.6362 1183.65 75.7528 1195.51 92.3311V0.595215H1233.07ZM1195.47 126.162C1185.36 108.949 1168.7 87.6115 1146.81 87.6115C1115.09 87.6115 1100.14 112.955 1100.14 142.264C1100.14 171.574 1110.01 196.957 1134.96 196.957C1146.93 196.873 1158.71 193.862 1169.25 188.187C1179.8 182.511 1188.8 174.344 1195.47 164.395V126.162Z" fill="#171717"/>
<path d="M1295.52 150.712C1297.41 164.364 1304.26 176.838 1314.78 185.74C1325.3 194.642 1338.74 199.343 1352.51 198.94C1384.95 198.94 1404.06 171.415 1404.06 171.415L1433.45 188.43C1433.45 188.43 1407.12 227.734 1349.85 227.734C1282.44 227.734 1259.76 177.92 1259.76 142.106C1259.76 106.292 1282.44 56.4775 1349.85 56.4775C1417.27 56.4775 1439.91 106.49 1439.91 142.264C1439.93 145.085 1439.8 147.905 1439.52 150.712H1295.52ZM1401.45 122.156C1395.14 103.119 1379.32 85.4301 1349.89 85.4301C1320.47 85.4301 1304.57 103.119 1298.34 122.156H1401.45Z" fill="#171717"/>
<path d="M1457.2 224.997V183.829H1499V224.997H1457.2Z" fill="#171717"/>
<path d="M662.296 219.286H400.526V230.669H662.296V219.286Z" fill="#171717"/>
</svg>
