<svg width="880" height="880" viewBox="0 0 880 880" fill="none" xmlns="http://www.w3.org/2000/svg">
<rect width="880" height="880" fill="white"/>
<g clip-path="url(#clip0)">
<path d="M489.793 635.923C486.273 598.971 477.867 552.773 474.19 524.941C491.166 546.798 515.922 585.605 539.234 613.673C541.858 616.796 545.096 619.34 548.744 621.145C552.393 622.95 556.375 623.977 560.437 624.162C564.5 624.346 568.557 623.684 572.353 622.218C576.149 620.751 579.602 618.511 582.495 615.639L611.753 586.313C614.634 583.438 616.882 579.989 618.353 576.186C619.824 572.384 620.485 568.313 620.294 564.238C620.102 560.163 619.062 556.174 617.24 552.528C615.419 548.882 612.856 545.66 609.719 543.072C578.427 517.048 551.619 493.926 527.837 475.765C558.347 479.774 593.604 485.05 636.004 489.138C640.05 489.52 644.132 489.051 647.988 487.76C651.844 486.47 655.389 484.386 658.399 481.642C661.41 478.898 663.818 475.553 665.471 471.822C667.124 468.091 667.985 464.054 668 459.97V418.615C667.986 414.523 667.123 410.48 665.465 406.743C663.808 403.005 661.392 399.657 658.373 396.912C655.354 394.166 651.799 392.084 647.933 390.799C644.068 389.513 639.979 389.053 635.926 389.447C594.386 393.378 557.878 395.737 527.837 399.903C551.306 382.057 578.74 362.165 609.25 336.85C612.38 334.262 614.935 331.044 616.748 327.401C618.562 323.759 619.595 319.774 619.779 315.705C619.963 311.637 619.296 307.574 617.819 303.781C616.342 299.988 614.089 296.549 611.205 293.687L581.948 264.361C579.055 261.483 575.599 259.239 571.799 257.772C567.999 256.305 563.937 255.647 559.871 255.839C555.804 256.031 551.822 257.07 548.175 258.888C544.529 260.707 541.298 263.267 538.686 266.406C515.765 294.159 490.931 333.36 474.19 355.059C477.632 327.384 486.429 280.714 489.793 243.92C490.152 239.863 489.665 235.776 488.365 231.918C487.065 228.06 484.98 224.517 482.242 221.514C479.504 218.511 476.174 216.115 472.464 214.476C468.754 212.838 464.744 211.995 460.692 212H419.23C415.176 212.015 411.17 212.878 407.467 214.536C403.763 216.193 400.444 218.607 397.721 221.625C394.998 224.643 392.93 228.199 391.65 232.064C390.37 235.93 389.905 240.021 390.285 244.077C394.275 286.611 398.108 324.554 402.646 355.059C383.636 330.215 360.636 299.426 332.63 265.855C330.006 262.732 326.769 260.188 323.12 258.383C319.471 256.578 315.49 255.551 311.427 255.367C307.364 255.182 303.308 255.844 299.512 257.311C295.716 258.777 292.262 261.017 289.369 263.89L260.111 293.137C257.229 296.018 254.979 299.475 253.507 303.283C252.036 307.092 251.374 311.169 251.566 315.25C251.757 319.331 252.798 323.327 254.62 326.98C256.442 330.632 259.006 333.861 262.145 336.457C292.264 361.301 317.073 382.154 340.073 399.765C312.066 396.227 281.311 392.828 243.996 389.447C239.95 389.065 235.869 389.534 232.013 390.824C228.157 392.115 224.611 394.199 221.601 396.943C218.59 399.687 216.182 403.031 214.529 406.763C212.876 410.494 212.015 414.531 212 418.615V459.97C212.014 464.061 212.877 468.105 214.535 471.842C216.193 475.58 218.608 478.928 221.627 481.673C224.646 484.419 228.202 486.501 232.067 487.786C235.932 489.071 240.022 489.532 244.074 489.138C282.015 485.521 311.441 479.46 340.073 475.765C316.604 493.847 292.576 517.834 261.598 543.622C258.476 546.224 255.93 549.452 254.122 553.1C252.315 556.749 251.286 560.737 251.102 564.808C250.917 568.879 251.582 572.945 253.053 576.743C254.524 580.541 256.768 583.988 259.642 586.863L288.587 616.11C291.48 618.989 294.935 621.233 298.736 622.7C302.536 624.166 306.597 624.825 310.664 624.633C314.73 624.44 318.712 623.402 322.359 621.583C326.005 619.764 329.236 617.205 331.848 614.066C360.01 580.102 383.479 550.257 402.646 524.941C398.499 555.682 394.431 592.996 390.129 635.923C389.747 639.992 390.216 644.097 391.506 647.973C392.795 651.85 394.877 655.412 397.617 658.433C400.357 661.453 403.696 663.864 407.417 665.512C411.139 667.16 415.163 668.007 419.23 668H460.692C464.759 668.007 468.783 667.16 472.505 665.512C476.227 663.864 479.565 661.453 482.305 658.433C485.045 655.412 487.127 651.85 488.416 647.973C489.706 644.097 490.175 639.992 489.793 635.923Z" fill="#171717"/>
</g>
<defs>
<clipPath id="clip0">
<rect width="456" height="456" fill="white" transform="translate(212 212)"/>
</clipPath>
</defs>
</svg>
