<svg width="16" height="16" viewBox="0 0 16 16" fill="none" xmlns="http://www.w3.org/2000/svg">
<ellipse cx="7.99999" cy="7.99998" rx="6.99999" ry="6.99998" fill="#F5C7F7"/>
<path d="M6.28822 4.8897C4.6432 4.8897 3.31013 6.22053 3.31013 7.86127C3.31013 9.50202 4.64388 10.8328 6.28822 10.8328C7.93256 10.8328 9.26631 9.50202 9.26631 7.86127C9.26631 6.22053 7.93324 4.8897 6.28822 4.8897Z" fill="#F5C7F7"/>
<path fill-rule="evenodd" clip-rule="evenodd" d="M12.6394 8.00036C12.6394 5.10846 10.2906 2.76416 7.39234 2.76416C4.49275 2.76416 2.14398 5.10914 2.14398 8.00036C2.14398 10.8916 4.49275 13.2359 7.39234 13.2359C10.2906 13.2359 12.6394 10.8916 12.6394 8.00036ZM3.31013 7.86127C3.31013 6.22053 4.6432 4.8897 6.28822 4.8897C7.93324 4.8897 9.26631 6.22053 9.26631 7.86127C9.26631 9.50202 7.93256 10.8328 6.28822 10.8328C4.64388 10.8328 3.31013 9.50202 3.31013 7.86127Z" fill="white"/>
</svg>
