<svg width="210" height="40" viewBox="0 0 210 40" fill="none" xmlns="http://www.w3.org/2000/svg">
<path d="M6.55724 18.1607C6.55724 18.88 5.94249 19.463 5.18458 19.463C4.42667 19.463 3.81192 18.8798 3.81192 18.1607C3.81192 17.4417 4.42667 16.8584 5.18458 16.8584C5.94249 16.8584 6.55724 17.4414 6.55724 18.1607ZM13.0781 16.8584C12.3198 16.8584 11.7054 17.4417 11.7054 18.1607C11.7054 18.8798 12.3202 19.463 13.0781 19.463C13.836 19.463 14.4507 18.8798 14.4507 18.1607C14.4507 17.4417 13.8363 16.8584 13.0781 16.8584ZM14.5452 26.5717C14.4005 26.5771 14.2636 26.5809 14.1264 26.5851C14.5914 27.7988 15.0521 29.6547 13.5391 29.7039C11.974 29.7545 12.1642 27.8098 12.4256 26.6182C11.8657 26.6223 11.4113 26.6182 11.0523 26.6111C11.2669 27.7441 11.4356 29.7048 10.0321 29.7048C8.62886 29.7048 8.79759 27.7441 9.01218 26.6111C8.63104 26.6185 8.1398 26.6226 7.53535 26.6176C7.79671 27.8089 7.98697 29.7545 6.42187 29.7039C4.90823 29.6547 5.37015 27.7968 5.83582 26.583C5.71979 26.5794 5.60626 26.5762 5.48493 26.5717C2.36752 26.4631 -1.20776 21.5796 0.937473 15.8542C3.08239 10.129 10.0003 10.2379 10.0003 10.2379C10.0003 10.2379 16.9141 10.129 19.0587 15.8542C21.2036 21.5796 17.6626 26.4631 14.5452 26.5717ZM8.43486 18.2217C8.43486 16.9543 7.35195 15.9269 6.01609 15.9269C4.67993 15.9269 3.59733 16.9546 3.59733 18.2217C3.59733 19.4887 4.67993 20.5161 6.01609 20.5161C7.35195 20.5161 8.43486 19.4887 8.43486 18.2217ZM16.2526 18.2217C16.2526 16.9543 15.17 15.9269 13.8341 15.9269C12.4976 15.9269 11.415 16.9546 11.415 18.2217C11.415 19.4887 12.4976 20.5161 13.8341 20.5161C15.17 20.5161 16.2526 19.4887 16.2526 18.2217Z" fill="#F5C7F7"/>
<path d="M33.925 21.025C33.3917 20.8083 32.8917 20.5667 32.425 20.3C31.975 20.0333 31.5833 19.7167 31.25 19.35C30.9167 18.9667 30.6583 18.525 30.475 18.025C30.2917 17.5083 30.2 16.9 30.2 16.2C30.2 15.3333 30.35 14.575 30.65 13.925C30.95 13.2583 31.3667 12.7 31.9 12.25C32.45 11.8 33.1083 11.4583 33.875 11.225C34.6417 10.9917 35.4917 10.875 36.425 10.875C37.1917 10.875 37.975 10.9583 38.775 11.125C39.575 11.275 40.5333 11.5417 41.65 11.925L39.95 14.975C38.8667 14.4583 37.725 14.2 36.525 14.2C36.2917 14.2 36.05 14.225 35.8 14.275C35.55 14.325 35.325 14.4167 35.125 14.55C34.925 14.6667 34.7583 14.8333 34.625 15.05C34.4917 15.2667 34.425 15.55 34.425 15.9C34.425 16.1833 34.475 16.4167 34.575 16.6C34.6917 16.7833 34.8333 16.9417 35 17.075C35.1667 17.2083 35.3583 17.325 35.575 17.425C35.7917 17.5083 36.0083 17.5917 36.225 17.675L37.7 18.25C38.3333 18.5 38.9083 18.7667 39.425 19.05C39.9583 19.3167 40.4083 19.65 40.775 20.05C41.1417 20.4333 41.425 20.9083 41.625 21.475C41.825 22.0417 41.925 22.75 41.925 23.6C41.925 24.45 41.7667 25.225 41.45 25.925C41.15 26.625 40.7 27.225 40.1 27.725C39.5167 28.2083 38.7917 28.5917 37.925 28.875C37.0583 29.1417 36.0667 29.275 34.95 29.275C34.4333 29.275 33.9583 29.2583 33.525 29.225C33.0917 29.1917 32.6667 29.1333 32.25 29.05C31.85 28.9667 31.4417 28.8667 31.025 28.75C30.625 28.6333 30.1917 28.4833 29.725 28.3L30.575 24.8C31.2583 24.9833 31.925 25.15 32.575 25.3C33.2417 25.4333 33.9167 25.5 34.6 25.5C35.5167 25.5 36.2167 25.3833 36.7 25.15C37.1833 24.9 37.4667 24.4333 37.55 23.75C37.5833 23.4 37.5417 23.1083 37.425 22.875C37.3083 22.6417 37.1417 22.45 36.925 22.3C36.7083 22.1333 36.4667 22 36.2 21.9C35.9333 21.8 35.6667 21.7 35.4 21.6L33.925 21.025ZM57.8184 15.95H61.8184L58.0434 29H54.0684L52.3434 21.9C52.3434 21.9 52.335 21.9167 52.3184 21.95C52.3184 21.9667 52.3017 22.0417 52.2684 22.175C52.2517 22.3083 52.21 22.5167 52.1434 22.8C52.0767 23.0833 51.9767 23.4917 51.8434 24.025C51.7267 24.5417 51.5684 25.2083 51.3684 26.025C51.185 26.825 50.9517 27.8167 50.6684 29H46.6684C46.6684 29 46.61 28.8167 46.4934 28.45C46.3934 28.0833 46.2517 27.5917 46.0684 26.975C45.9017 26.3583 45.7017 25.6583 45.4684 24.875C45.2517 24.0917 45.0267 23.2917 44.7934 22.475C44.2434 20.5583 43.6184 18.3833 42.9184 15.95H46.9434L48.5684 22.5L48.7184 23.275L48.8684 22.5L50.3934 15.95H54.2934L55.8684 22.525L56.0434 23.275L56.0934 22.875C56.11 22.7583 56.135 22.6333 56.1684 22.5L57.8184 15.95ZM69.5369 23.275C69.3702 23.2417 69.1952 23.225 69.0119 23.225C68.8286 23.2083 68.6702 23.2 68.5369 23.2C67.8369 23.2 67.2702 23.3083 66.8369 23.525C66.4036 23.7417 66.1869 24.1167 66.1869 24.65C66.1869 24.9833 66.2619 25.25 66.4119 25.45C66.5786 25.6333 66.7786 25.775 67.0119 25.875C67.2452 25.9583 67.4869 26.0083 67.7369 26.025C68.0036 26.0417 68.2286 26.05 68.4119 26.05C68.7452 26.05 69.1202 26.0083 69.5369 25.925V23.275ZM68.2369 20.525C68.3702 20.525 68.5452 20.5333 68.7619 20.55C68.9952 20.55 69.2536 20.5583 69.5369 20.575C69.5202 19.925 69.2869 19.5083 68.8369 19.325C68.4036 19.125 67.8369 19.025 67.1369 19.025C66.7536 19.025 66.3119 19.075 65.8119 19.175C65.3119 19.2583 64.7702 19.3917 64.1869 19.575L63.7869 18.2C63.7369 18.0167 63.6619 17.75 63.5619 17.4C63.4786 17.05 63.4202 16.775 63.3869 16.575C64.2202 16.2917 65.0036 16.0917 65.7369 15.975C66.4869 15.8417 67.1619 15.775 67.7619 15.775C69.5286 15.775 70.8952 16.2 71.8619 17.05C72.8286 17.8833 73.3119 19.225 73.3119 21.075V28.4C72.6619 28.5833 71.9119 28.7667 71.0619 28.95C70.2119 29.1167 69.2952 29.2 68.3119 29.2C67.4452 29.2 66.6536 29.125 65.9369 28.975C65.2369 28.825 64.6286 28.575 64.1119 28.225C63.6119 27.875 63.2202 27.4167 62.9369 26.85C62.6702 26.2833 62.5369 25.5917 62.5369 24.775C62.5369 23.9583 62.7036 23.275 63.0369 22.725C63.3869 22.175 63.8286 21.7417 64.3619 21.425C64.9119 21.0917 65.5202 20.8583 66.1869 20.725C66.8702 20.5917 67.5536 20.525 68.2369 20.525ZM86.391 11.475V28.65C85.791 28.7833 85.2077 28.8833 84.641 28.95C84.0743 29.0167 83.5577 29.0667 83.091 29.1C82.6243 29.1333 82.2243 29.15 81.891 29.15C81.5577 29.15 81.3327 29.15 81.216 29.15C80.0827 29.15 79.1243 28.975 78.341 28.625C77.5743 28.275 76.9493 27.8 76.466 27.2C75.9993 26.6 75.6577 25.9083 75.441 25.125C75.2243 24.325 75.116 23.475 75.116 22.575C75.116 21.425 75.2577 20.4417 75.541 19.625C75.841 18.7917 76.2493 18.1083 76.766 17.575C77.2993 17.0417 77.9243 16.65 78.641 16.4C79.3743 16.1333 80.1827 16 81.066 16C81.216 16 81.3827 16.0167 81.566 16.05C81.766 16.0667 81.9493 16.0917 82.116 16.125C82.2993 16.1583 82.466 16.2 82.616 16.25C82.766 16.2833 82.8827 16.325 82.966 16.375V14.9L83.041 14.575H80.791L82.466 11.475H86.391ZM81.616 25.8C81.866 25.8 82.1077 25.7917 82.341 25.775C82.5743 25.7583 82.7827 25.7333 82.966 25.7V19.3C82.8493 19.2833 82.716 19.2583 82.566 19.225C82.4327 19.1917 82.2743 19.1667 82.091 19.15C81.9243 19.1333 81.7327 19.125 81.516 19.125C80.7327 19.125 80.0743 19.3917 79.541 19.925C79.0077 20.4583 78.741 21.3417 78.741 22.575C78.741 23.1917 78.816 23.7083 78.966 24.125C79.116 24.5417 79.316 24.875 79.566 25.125C79.8327 25.375 80.141 25.55 80.491 25.65C80.841 25.75 81.216 25.8 81.616 25.8ZM89.4129 10.925H93.1879V23.8C93.1879 24.2333 93.2129 24.5833 93.2629 24.85C93.3129 25.1167 93.3879 25.325 93.4879 25.475C93.6046 25.625 93.7462 25.725 93.9129 25.775C94.0796 25.825 94.2796 25.85 94.5129 25.85C94.6296 25.85 94.7629 25.85 94.9129 25.85C95.0629 25.8333 95.3129 25.7917 95.6629 25.725L95.8879 28.85C95.4546 28.9833 95.0462 29.0667 94.6629 29.1C94.2962 29.1333 93.9629 29.15 93.6629 29.15C92.3296 29.15 91.2879 28.7917 90.5379 28.075C89.7879 27.3417 89.4129 26.1583 89.4129 24.525V10.925ZM103.138 15.8C104.004 15.8 104.813 15.925 105.563 16.175C106.313 16.4083 106.954 16.7917 107.488 17.325C108.038 17.8583 108.463 18.55 108.763 19.4C109.079 20.25 109.238 21.275 109.238 22.475C109.238 23.675 109.079 24.7 108.763 25.55C108.463 26.4 108.038 27.0917 107.488 27.625C106.954 28.1583 106.313 28.55 105.563 28.8C104.813 29.0333 104.004 29.15 103.138 29.15C102.254 29.15 101.438 29.0333 100.688 28.8C99.9542 28.55 99.3125 28.1583 98.7625 27.625C98.2292 27.0917 97.8042 26.4 97.4875 25.55C97.1875 24.7 97.0375 23.675 97.0375 22.475C97.0375 21.2917 97.1875 20.2833 97.4875 19.45C97.8042 18.6 98.2292 17.9083 98.7625 17.375C99.3125 16.825 99.9542 16.425 100.688 16.175C101.438 15.925 102.254 15.8 103.138 15.8ZM103.138 25.875C103.888 25.875 104.471 25.625 104.888 25.125C105.321 24.625 105.538 23.7417 105.538 22.475C105.538 21.2083 105.321 20.325 104.888 19.825C104.471 19.3083 103.888 19.05 103.138 19.05C102.404 19.05 101.813 19.3167 101.363 19.85C100.929 20.3667 100.713 21.2417 100.713 22.475C100.713 23.7417 100.929 24.625 101.363 25.125C101.796 25.625 102.388 25.875 103.138 25.875ZM117.249 15.8C118.115 15.8 118.924 15.925 119.674 16.175C120.424 16.4083 121.065 16.7917 121.599 17.325C122.149 17.8583 122.574 18.55 122.874 19.4C123.19 20.25 123.349 21.275 123.349 22.475C123.349 23.675 123.19 24.7 122.874 25.55C122.574 26.4 122.149 27.0917 121.599 27.625C121.065 28.1583 120.424 28.55 119.674 28.8C118.924 29.0333 118.115 29.15 117.249 29.15C116.365 29.15 115.549 29.0333 114.799 28.8C114.065 28.55 113.424 28.1583 112.874 27.625C112.34 27.0917 111.915 26.4 111.599 25.55C111.299 24.7 111.149 23.675 111.149 22.475C111.149 21.2917 111.299 20.2833 111.599 19.45C111.915 18.6 112.34 17.9083 112.874 17.375C113.424 16.825 114.065 16.425 114.799 16.175C115.549 15.925 116.365 15.8 117.249 15.8ZM117.249 25.875C117.999 25.875 118.582 25.625 118.999 25.125C119.432 24.625 119.649 23.7417 119.649 22.475C119.649 21.2083 119.432 20.325 118.999 19.825C118.582 19.3083 117.999 19.05 117.249 19.05C116.515 19.05 115.924 19.3167 115.474 19.85C115.04 20.3667 114.824 21.2417 114.824 22.475C114.824 23.7417 115.04 24.625 115.474 25.125C115.907 25.625 116.499 25.875 117.249 25.875ZM126.235 19.05H124.135L125.785 15.95H129.41L129.735 17.35C130.152 16.9 130.643 16.525 131.21 16.225C131.793 15.925 132.46 15.775 133.21 15.775C134.727 15.775 135.852 16.1833 136.585 17C137.318 17.8 137.685 19.075 137.685 20.825V29H133.885V21.475C133.885 20.7083 133.693 20.1583 133.31 19.825C132.943 19.4917 132.468 19.325 131.885 19.325C131.402 19.325 130.968 19.4917 130.585 19.825C130.202 20.1417 130.01 20.675 130.01 21.425V29H126.235V19.05Z" fill="#F5C7F7"/>
</svg>
