<svg width="120" height="120" viewBox="0 0 120 120" fill="none" xmlns="http://www.w3.org/2000/svg">
<path d="M47.2618 52.8267C47.2618 55.6322 44.9872 57.9056 42.1829 57.9056C39.3787 57.9056 37.1041 55.631 37.1041 52.8267C37.1041 50.0225 39.3787 47.7479 42.1829 47.7479C44.9872 47.7479 47.2618 50.0213 47.2618 52.8267ZM71.3889 47.7479C68.5834 47.7479 66.31 50.0225 66.31 52.8267C66.31 55.631 68.5846 57.9056 71.3889 57.9056C74.1931 57.9056 76.4677 55.631 76.4677 52.8267C76.4677 50.0225 74.1943 47.7479 71.3889 47.7479ZM76.8174 85.6297C76.2819 85.6505 75.7753 85.6655 75.2675 85.6817C76.9882 90.4155 78.6926 97.6535 73.0945 97.845C67.3036 98.0424 68.0076 90.4582 68.9746 85.8109C66.9032 85.8271 65.2218 85.8109 63.8935 85.7832C64.6875 90.202 65.3118 97.8485 60.1187 97.8485C54.9268 97.8485 55.5511 90.202 56.3451 85.7832C54.9348 85.8121 53.1173 85.8282 50.8808 85.8086C51.8478 90.4547 52.5518 98.0424 46.7609 97.845C41.1605 97.6535 42.8696 90.4074 44.5925 85.6736C44.1632 85.6598 43.7432 85.6471 43.2943 85.6297C31.7598 85.2062 18.5313 66.1603 26.4687 43.8312C34.4048 21.5032 60.001 21.9279 60.001 21.9279C60.001 21.9279 85.5821 21.5032 93.5172 43.8312C101.453 66.1603 88.3518 85.2062 76.8174 85.6297ZM54.209 53.0645C54.209 48.1218 50.2022 44.1151 45.2595 44.1151C40.3157 44.1151 36.3101 48.123 36.3101 53.0645C36.3101 58.006 40.3157 62.0127 45.2595 62.0127C50.2022 62.0127 54.209 58.006 54.209 53.0645ZM83.1345 53.0645C83.1345 48.1218 79.1289 44.1151 74.1862 44.1151C69.2412 44.1151 65.2356 48.123 65.2356 53.0645C65.2356 58.006 69.2412 62.0127 74.1862 62.0127C79.1289 62.0127 83.1345 58.006 83.1345 53.0645Z" fill="#F5C7F7"/>
</svg>
