<svg width="140" height="20" viewBox="0 0 140 20" fill="none" xmlns="http://www.w3.org/2000/svg">
<path d="M6.55724 8.1607C6.55724 8.88003 5.94249 9.46296 5.18458 9.46296C4.42667 9.46296 3.81192 8.87974 3.81192 8.1607C3.81192 7.44165 4.42667 6.85843 5.18458 6.85843C5.94249 6.85843 6.55724 7.44136 6.55724 8.1607ZM13.0781 6.85843C12.3199 6.85843 11.7054 7.44165 11.7054 8.1607C11.7054 8.87974 12.3202 9.46296 13.0781 9.46296C13.836 9.46296 14.4507 8.87974 14.4507 8.1607C14.4507 7.44165 13.8363 6.85843 13.0781 6.85843ZM14.5452 16.5717C14.4005 16.577 14.2636 16.5809 14.1264 16.585C14.5914 17.7988 15.0521 19.6547 13.5391 19.7038C11.974 19.7544 12.1642 17.8098 12.4256 16.6182C11.8657 16.6223 11.4113 16.6182 11.0523 16.6111C11.2669 17.7441 11.4356 19.7047 10.0321 19.7047C8.62886 19.7047 8.7976 17.7441 9.01218 16.6111C8.63105 16.6185 8.13981 16.6226 7.53535 16.6176C7.79672 17.8089 7.98698 19.7544 6.42188 19.7038C4.90824 19.6547 5.37016 17.7968 5.83582 16.583C5.7198 16.5794 5.60627 16.5762 5.48494 16.5717C2.36753 16.4631 -1.20775 11.5796 0.93748 5.85414C3.0824 0.129017 10.0003 0.237909 10.0003 0.237909C10.0003 0.237909 16.9141 0.129017 19.0587 5.85414C21.2036 11.5796 17.6627 16.4631 14.5452 16.5717ZM8.43486 8.22165C8.43486 6.9543 7.35196 5.92693 6.0161 5.92693C4.67993 5.92693 3.59734 6.9546 3.59734 8.22165C3.59734 9.4887 4.67993 10.5161 6.0161 10.5161C7.35196 10.5161 8.43486 9.4887 8.43486 8.22165ZM16.2526 8.22165C16.2526 6.9543 15.17 5.92693 13.8341 5.92693C12.4976 5.92693 11.415 6.9546 11.415 8.22165C11.415 9.4887 12.4976 10.5161 13.8341 10.5161C15.17 10.5161 16.2526 9.4887 16.2526 8.22165Z" fill="#F5C7F7"/>
<path d="M33.925 11.025C33.3917 10.8083 32.8917 10.5667 32.425 10.3C31.975 10.0333 31.5833 9.71667 31.25 9.35C30.9167 8.96667 30.6583 8.525 30.475 8.025C30.2917 7.50833 30.2 6.9 30.2 6.2C30.2 5.33333 30.35 4.575 30.65 3.925C30.95 3.25833 31.3667 2.7 31.9 2.25C32.45 1.8 33.1083 1.45833 33.875 1.225C34.6417 0.991666 35.4917 0.874999 36.425 0.874999C37.1917 0.874999 37.975 0.958333 38.775 1.125C39.575 1.275 40.5333 1.54167 41.65 1.925L39.95 4.975C38.8667 4.45833 37.725 4.2 36.525 4.2C36.2917 4.2 36.05 4.225 35.8 4.275C35.55 4.325 35.325 4.41667 35.125 4.55C34.925 4.66667 34.7583 4.83333 34.625 5.05C34.4917 5.26667 34.425 5.55 34.425 5.9C34.425 6.18333 34.475 6.41667 34.575 6.6C34.6917 6.78333 34.8333 6.94167 35 7.075C35.1667 7.20833 35.3583 7.325 35.575 7.425C35.7917 7.50833 36.0083 7.59167 36.225 7.675L37.7 8.25C38.3333 8.5 38.9083 8.76667 39.425 9.05C39.9583 9.31667 40.4083 9.65 40.775 10.05C41.1417 10.4333 41.425 10.9083 41.625 11.475C41.825 12.0417 41.925 12.75 41.925 13.6C41.925 14.45 41.7667 15.225 41.45 15.925C41.15 16.625 40.7 17.225 40.1 17.725C39.5167 18.2083 38.7917 18.5917 37.925 18.875C37.0583 19.1417 36.0667 19.275 34.95 19.275C34.4333 19.275 33.9583 19.2583 33.525 19.225C33.0917 19.1917 32.6667 19.1333 32.25 19.05C31.85 18.9667 31.4417 18.8667 31.025 18.75C30.625 18.6333 30.1917 18.4833 29.725 18.3L30.575 14.8C31.2583 14.9833 31.925 15.15 32.575 15.3C33.2417 15.4333 33.9167 15.5 34.6 15.5C35.5167 15.5 36.2167 15.3833 36.7 15.15C37.1833 14.9 37.4667 14.4333 37.55 13.75C37.5833 13.4 37.5417 13.1083 37.425 12.875C37.3083 12.6417 37.1417 12.45 36.925 12.3C36.7083 12.1333 36.4667 12 36.2 11.9C35.9333 11.8 35.6667 11.7 35.4 11.6L33.925 11.025ZM57.8184 5.95H61.8184L58.0434 19H54.0684L52.3434 11.9C52.3434 11.9 52.335 11.9167 52.3184 11.95C52.3184 11.9667 52.3017 12.0417 52.2684 12.175C52.2517 12.3083 52.21 12.5167 52.1434 12.8C52.0767 13.0833 51.9767 13.4917 51.8434 14.025C51.7267 14.5417 51.5684 15.2083 51.3684 16.025C51.185 16.825 50.9517 17.8167 50.6684 19H46.6684C46.6684 19 46.61 18.8167 46.4934 18.45C46.3934 18.0833 46.2517 17.5917 46.0684 16.975C45.9017 16.3583 45.7017 15.6583 45.4684 14.875C45.2517 14.0917 45.0267 13.2917 44.7934 12.475C44.2434 10.5583 43.6184 8.38333 42.9184 5.95H46.9434L48.5684 12.5L48.7184 13.275L48.8684 12.5L50.3934 5.95H54.2934L55.8684 12.525L56.0434 13.275L56.0934 12.875C56.11 12.7583 56.135 12.6333 56.1684 12.5L57.8184 5.95ZM69.5369 13.275C69.3702 13.2417 69.1952 13.225 69.0119 13.225C68.8286 13.2083 68.6702 13.2 68.5369 13.2C67.8369 13.2 67.2702 13.3083 66.8369 13.525C66.4036 13.7417 66.1869 14.1167 66.1869 14.65C66.1869 14.9833 66.2619 15.25 66.4119 15.45C66.5786 15.6333 66.7786 15.775 67.0119 15.875C67.2452 15.9583 67.4869 16.0083 67.7369 16.025C68.0036 16.0417 68.2286 16.05 68.4119 16.05C68.7452 16.05 69.1202 16.0083 69.5369 15.925V13.275ZM68.2369 10.525C68.3702 10.525 68.5452 10.5333 68.7619 10.55C68.9952 10.55 69.2536 10.5583 69.5369 10.575C69.5202 9.925 69.2869 9.50833 68.8369 9.325C68.4036 9.125 67.8369 9.025 67.1369 9.025C66.7536 9.025 66.3119 9.075 65.8119 9.175C65.3119 9.25833 64.7702 9.39167 64.1869 9.575L63.7869 8.2C63.7369 8.01667 63.6619 7.75 63.5619 7.4C63.4786 7.05 63.4202 6.775 63.3869 6.575C64.2202 6.29167 65.0036 6.09167 65.7369 5.975C66.4869 5.84167 67.1619 5.775 67.7619 5.775C69.5286 5.775 70.8952 6.2 71.8619 7.05C72.8286 7.88333 73.3119 9.225 73.3119 11.075V18.4C72.6619 18.5833 71.9119 18.7667 71.0619 18.95C70.2119 19.1167 69.2952 19.2 68.3119 19.2C67.4452 19.2 66.6536 19.125 65.9369 18.975C65.2369 18.825 64.6286 18.575 64.1119 18.225C63.6119 17.875 63.2202 17.4167 62.9369 16.85C62.6702 16.2833 62.5369 15.5917 62.5369 14.775C62.5369 13.9583 62.7036 13.275 63.0369 12.725C63.3869 12.175 63.8286 11.7417 64.3619 11.425C64.9119 11.0917 65.5202 10.8583 66.1869 10.725C66.8702 10.5917 67.5536 10.525 68.2369 10.525ZM86.391 1.475V18.65C85.791 18.7833 85.2077 18.8833 84.641 18.95C84.0743 19.0167 83.5577 19.0667 83.091 19.1C82.6243 19.1333 82.2243 19.15 81.891 19.15C81.5577 19.15 81.3327 19.15 81.216 19.15C80.0827 19.15 79.1243 18.975 78.341 18.625C77.5743 18.275 76.9493 17.8 76.466 17.2C75.9993 16.6 75.6577 15.9083 75.441 15.125C75.2243 14.325 75.116 13.475 75.116 12.575C75.116 11.425 75.2577 10.4417 75.541 9.625C75.841 8.79167 76.2493 8.10833 76.766 7.575C77.2993 7.04167 77.9243 6.65 78.641 6.4C79.3743 6.13333 80.1827 6 81.066 6C81.216 6 81.3827 6.01667 81.566 6.05C81.766 6.06667 81.9493 6.09167 82.116 6.125C82.2993 6.15833 82.466 6.2 82.616 6.25C82.766 6.28333 82.8827 6.325 82.966 6.375V4.9L83.041 4.575H80.791L82.466 1.475H86.391ZM81.616 15.8C81.866 15.8 82.1077 15.7917 82.341 15.775C82.5743 15.7583 82.7827 15.7333 82.966 15.7V9.3C82.8493 9.28333 82.716 9.25833 82.566 9.225C82.4327 9.19167 82.2743 9.16667 82.091 9.15C81.9243 9.13333 81.7327 9.125 81.516 9.125C80.7327 9.125 80.0743 9.39167 79.541 9.925C79.0077 10.4583 78.741 11.3417 78.741 12.575C78.741 13.1917 78.816 13.7083 78.966 14.125C79.116 14.5417 79.316 14.875 79.566 15.125C79.8327 15.375 80.141 15.55 80.491 15.65C80.841 15.75 81.216 15.8 81.616 15.8ZM89.4129 0.924999H93.1879V13.8C93.1879 14.2333 93.2129 14.5833 93.2629 14.85C93.3129 15.1167 93.3879 15.325 93.4879 15.475C93.6046 15.625 93.7462 15.725 93.9129 15.775C94.0796 15.825 94.2796 15.85 94.5129 15.85C94.6296 15.85 94.7629 15.85 94.9129 15.85C95.0629 15.8333 95.3129 15.7917 95.6629 15.725L95.8879 18.85C95.4546 18.9833 95.0462 19.0667 94.6629 19.1C94.2962 19.1333 93.9629 19.15 93.6629 19.15C92.3296 19.15 91.2879 18.7917 90.5379 18.075C89.7879 17.3417 89.4129 16.1583 89.4129 14.525V0.924999ZM103.138 5.8C104.004 5.8 104.813 5.925 105.563 6.175C106.313 6.40833 106.954 6.79167 107.488 7.325C108.038 7.85833 108.463 8.55 108.763 9.4C109.079 10.25 109.238 11.275 109.238 12.475C109.238 13.675 109.079 14.7 108.763 15.55C108.463 16.4 108.038 17.0917 107.488 17.625C106.954 18.1583 106.313 18.55 105.563 18.8C104.813 19.0333 104.004 19.15 103.138 19.15C102.254 19.15 101.438 19.0333 100.688 18.8C99.9542 18.55 99.3125 18.1583 98.7625 17.625C98.2292 17.0917 97.8042 16.4 97.4875 15.55C97.1875 14.7 97.0375 13.675 97.0375 12.475C97.0375 11.2917 97.1875 10.2833 97.4875 9.45C97.8042 8.6 98.2292 7.90833 98.7625 7.375C99.3125 6.825 99.9542 6.425 100.688 6.175C101.438 5.925 102.254 5.8 103.138 5.8ZM103.138 15.875C103.888 15.875 104.471 15.625 104.888 15.125C105.321 14.625 105.538 13.7417 105.538 12.475C105.538 11.2083 105.321 10.325 104.888 9.825C104.471 9.30833 103.888 9.05 103.138 9.05C102.404 9.05 101.813 9.31667 101.363 9.85C100.929 10.3667 100.713 11.2417 100.713 12.475C100.713 13.7417 100.929 14.625 101.363 15.125C101.796 15.625 102.388 15.875 103.138 15.875ZM117.249 5.8C118.115 5.8 118.924 5.925 119.674 6.175C120.424 6.40833 121.065 6.79167 121.599 7.325C122.149 7.85833 122.574 8.55 122.874 9.4C123.19 10.25 123.349 11.275 123.349 12.475C123.349 13.675 123.19 14.7 122.874 15.55C122.574 16.4 122.149 17.0917 121.599 17.625C121.065 18.1583 120.424 18.55 119.674 18.8C118.924 19.0333 118.115 19.15 117.249 19.15C116.365 19.15 115.549 19.0333 114.799 18.8C114.065 18.55 113.424 18.1583 112.874 17.625C112.34 17.0917 111.915 16.4 111.599 15.55C111.299 14.7 111.149 13.675 111.149 12.475C111.149 11.2917 111.299 10.2833 111.599 9.45C111.915 8.6 112.34 7.90833 112.874 7.375C113.424 6.825 114.065 6.425 114.799 6.175C115.549 5.925 116.365 5.8 117.249 5.8ZM117.249 15.875C117.999 15.875 118.582 15.625 118.999 15.125C119.432 14.625 119.649 13.7417 119.649 12.475C119.649 11.2083 119.432 10.325 118.999 9.825C118.582 9.30833 117.999 9.05 117.249 9.05C116.515 9.05 115.924 9.31667 115.474 9.85C115.04 10.3667 114.824 11.2417 114.824 12.475C114.824 13.7417 115.04 14.625 115.474 15.125C115.907 15.625 116.499 15.875 117.249 15.875ZM126.235 9.05H124.135L125.785 5.95H129.41L129.735 7.35C130.152 6.9 130.643 6.525 131.21 6.225C131.793 5.925 132.46 5.775 133.21 5.775C134.727 5.775 135.852 6.18333 136.585 7C137.318 7.8 137.685 9.075 137.685 10.825V19H133.885V11.475C133.885 10.7083 133.693 10.1583 133.31 9.825C132.943 9.49167 132.468 9.325 131.885 9.325C131.402 9.325 130.968 9.49167 130.585 9.825C130.202 10.1417 130.01 10.675 130.01 11.425V19H126.235V9.05Z" fill="#F5C7F7"/>
</svg>
