<svg height="50px" viewBox="0 0 118 107" fill="none" xmlns="http://www.w3.org/2000/svg">
  <style>
    .logo-themable {
      fill: black;
    }

    .theme-reversed .logo-themable {
      fill: white;
    }

    .global-css-theme-scheme-dark .logo-themable {
      fill: white;
    }
  </style>
  <path
    d="M23.4182 3.8147e-06V104.789H0V3.8147e-06H23.4182ZM76.7763 26.3826C94.2659 26.3826 117.388 39.5739 117.388 66.5493C117.388 93.673 94.2659 106.271 76.7763 106.271C59.2867 106.271 36.1649 93.673 36.1649 66.5493C36.1649 39.5739 59.2867 26.3826 76.7763 26.3826ZM76.7763 46.9847C67.8833 46.9847 58.8421 53.8027 58.8421 66.5493C58.8421 78.8513 67.8833 85.6693 76.7763 85.6693C85.6693 85.6693 94.8587 78.8513 94.8587 66.5493C94.8587 53.8027 85.6693 46.9847 76.7763 46.9847Z"
    class="logo-themable" />
</svg>
