<svg width="103" height="16" viewBox="0 0 1499 235" fill="none" xmlns="http://www.w3.org/2000/svg">
    <path
        d="M37.0388 86.2472V225.497H0V29.2939H37.7922L150.693 167.076V29.2939H187.732V225.497H149.702L37.0388 86.2472Z"
        fill="white" />
    <path
        d="M250.508 151.211C252.38 164.859 259.231 177.334 269.742 186.236C280.254 195.138 293.685 199.841 307.454 199.439C339.932 199.439 359.007 171.914 359.007 171.914L388.431 188.929C388.431 188.929 362.1 228.233 304.836 228.233C237.421 228.233 214.738 178.419 214.738 142.605C214.738 106.791 237.381 56.9766 304.836 56.9766C372.291 56.9766 394.935 106.83 394.935 142.605C394.935 145.421 394.935 148.316 394.459 151.211H250.508ZM356.429 122.497C350.124 103.459 334.261 85.7705 304.876 85.7705C275.491 85.7705 259.51 103.459 253.323 122.497H356.429Z"
        fill="white" />
    <path
        d="M699.533 60.2295L624.187 225.299H560.737L550.506 121.347L502.918 225.299H439.469L423.21 60.2295H461.835L474.763 191.111H479.838L539.64 60.2295H582.944L595.872 191.111H600.988L660.829 60.2295H699.533Z"
        fill="white" />
    <path
        d="M855.144 80.3374L836.149 111.035C831.098 104.882 824.722 99.949 817.499 96.6046C810.275 93.2601 802.389 91.5904 794.43 91.7202C776.506 91.7202 756.757 104.055 743.552 118.65V225.298H705.878V60.2293H743.472V89.3008C757.273 73.0795 777.339 57.1357 799.625 57.1357C820.46 57.2761 840.403 65.6104 855.144 80.3374Z"
        fill="white" />
    <path
        d="M1038.04 132.928V225.299H1000.44V208.125C980.095 221.003 956.589 228.016 932.513 228.392C885.282 228.392 868.19 203.763 868.19 179.054C868.19 154.345 886.987 129.636 932.513 129.636C956.601 130.048 980.108 137.103 1000.44 150.022V132.928C1000.44 101.675 995.685 87.3577 956.822 87.3577C932.416 87.7307 908.507 94.3093 887.344 106.474L870.213 81.5671C870.213 81.5671 908.798 57.0566 954.125 57.0566C1019.64 57.0566 1038.04 87.1593 1038.04 132.928ZM1000.44 175.841C985.929 164.697 964.515 154.305 941.872 154.305C915.778 154.305 905.784 165.807 905.784 179.054C905.784 192.301 921.449 203.763 941.872 203.763C963.169 203.103 983.696 195.639 1000.44 182.465V175.841Z"
        fill="white" />
    <path
        d="M1233.07 1.09473V225.298H1195.47V196.98C1180.72 215.066 1153.44 228.392 1126.23 228.392C1082.02 228.392 1063.22 185.598 1063.22 142.764C1063.22 99.93 1094.51 57.1357 1138.13 57.1357C1163.11 57.1357 1183.65 76.2523 1195.51 92.8306V1.09473H1233.07ZM1195.47 126.661C1185.36 109.449 1168.7 88.111 1146.81 88.111C1115.09 88.111 1100.14 113.454 1100.14 142.764C1100.14 172.073 1110.01 197.456 1134.96 197.456C1146.93 197.372 1158.71 194.361 1169.25 188.686C1179.8 183.011 1188.8 174.843 1195.47 164.895V126.661Z"
        fill="white" />
    <path
        d="M1295.52 151.211C1297.41 164.863 1304.26 177.337 1314.78 186.239C1325.3 195.141 1338.74 199.842 1352.51 199.439C1384.95 199.439 1404.06 171.914 1404.06 171.914L1433.45 188.929C1433.45 188.929 1407.12 228.233 1349.85 228.233C1282.44 228.233 1259.75 178.419 1259.75 142.605C1259.75 106.791 1282.44 56.9766 1349.85 56.9766C1417.27 56.9766 1439.91 106.989 1439.91 142.763C1439.93 145.584 1439.8 148.404 1439.52 151.211H1295.52ZM1401.45 122.655C1395.14 103.618 1379.32 85.9291 1349.89 85.9291C1320.47 85.9291 1304.57 103.618 1298.34 122.655H1401.45Z"
        fill="white" />
    <path d="M1457.2 225.496V184.328H1499V225.496H1457.2Z" fill="white" />
    <path d="M662.296 219.785H400.526V231.168H662.296V219.785Z" fill="white" />
</svg>