<svg width="22" height="22" viewBox="0 0 22 22" fill="none" xmlns="http://www.w3.org/2000/svg">
<path d="M21.3125 4.70509C20.5388 5.04125 19.7202 5.26273 18.8826 5.36251C19.7629 4.84705 20.4249 4.02814 20.7445 3.05938C19.9122 3.54604 19.0032 3.88751 18.0563 4.06915C17.6576 3.65129 17.1781 3.31887 16.6469 3.0921C16.1157 2.86533 15.544 2.74894 14.9664 2.75001C12.6281 2.75001 10.7357 4.61485 10.7357 6.91368C10.7341 7.23344 10.7707 7.55224 10.8449 7.86329C9.16811 7.78468 7.5262 7.35694 6.02421 6.60742C4.52222 5.85791 3.19322 4.80312 2.12223 3.51055C1.7465 4.14397 1.54779 4.86667 1.54688 5.60313C1.54688 7.04688 2.30012 8.32305 3.4375 9.07071C2.76363 9.05472 2.10357 8.87636 1.51336 8.55079V8.60235C1.51336 10.6219 2.9743 12.302 4.90789 12.6844C4.54428 12.7813 4.16959 12.8304 3.79328 12.8305C3.52626 12.8309 3.25985 12.805 2.99793 12.7531C3.53547 14.4074 5.09996 15.6106 6.9532 15.6449C5.44731 16.8055 3.59847 17.4327 1.69727 17.4281C1.3598 17.4276 1.02264 17.4075 0.6875 17.368C2.6216 18.603 4.86984 19.2563 7.16461 19.25C14.9574 19.25 19.2148 12.9035 19.2148 7.39923C19.2148 7.21876 19.21 7.03829 19.2014 6.86212C20.0278 6.27433 20.7426 5.54388 21.3125 4.70509V4.70509Z" fill="#717176"/>
</svg>
