<svg width="2048" height="1152" viewBox="0 0 2048 1152" fill="none" xmlns="http://www.w3.org/2000/svg">
<rect width="2048" height="1152" fill="white"/>
<path d="M134.648 663.771C137.634 663.771 138.675 665.15 138.675 667.425V669.162C138.675 671.443 137.634 672.815 134.648 672.815H132.683V675.821H129V663.771H134.648ZM132.683 669.796H134.014C134.758 669.796 134.993 669.506 134.993 668.907V667.659C134.993 667.066 134.758 666.777 134.014 666.777H132.683V669.796Z" fill="#010101"/>
<path d="M143.634 672.023V667.57C143.634 665.254 145.144 663.592 148.516 663.592C151.889 663.592 153.399 665.254 153.399 667.57V672.023C153.399 674.339 151.889 676 148.516 676C145.144 676 143.634 674.339 143.634 672.023ZM149.682 667.57C149.682 666.977 149.337 666.598 148.516 666.598C147.696 666.598 147.351 666.977 147.351 667.57V672.023C147.351 672.615 147.696 672.994 148.516 672.994C149.337 672.994 149.682 672.615 149.682 672.023V667.57Z" fill="#010101"/>
<path d="M158.654 663.771H162.336V675.821H158.654V663.771Z" fill="#010101"/>
<path d="M167.826 663.771H171.798L174.991 669.775V663.771H178.508V675.821H174.55L171.343 669.796V675.8H167.826V663.771Z" fill="#010101"/>
<path d="M186.363 666.777H183.48V663.771H192.99V666.777H190.073V675.821H186.397L186.363 666.777Z" fill="#010101"/>
<path d="M205.203 672.023V667.57C205.203 665.254 206.714 663.592 210.086 663.592C213.458 663.592 214.968 665.254 214.968 667.57V672.023C214.968 674.339 213.458 676 210.086 676C206.714 676 205.203 674.339 205.203 672.023ZM211.251 667.57C211.251 666.977 210.907 666.598 210.086 666.598C209.265 666.598 208.92 666.977 208.92 667.57V672.023C208.92 672.615 209.265 672.994 210.086 672.994C210.907 672.994 211.251 672.615 211.251 672.023V667.57Z" fill="#010101"/>
<path d="M220.196 675.821V663.771H228.416V666.722H223.878V668.569H228.016V671.512H223.878V675.821H220.196Z" fill="#010101"/>
<path d="M240.719 675.352L241.319 672.56C242.467 672.905 243.658 673.084 244.856 673.091C245.801 673.091 246.077 672.946 246.077 672.312C246.077 671.678 245.981 671.568 244.436 671.333C241.498 670.878 240.788 670.375 240.788 667.515C240.788 664.495 242.029 663.593 245.325 663.593C246.58 663.567 247.831 663.721 249.042 664.047L248.663 666.901C247.633 666.668 246.582 666.541 245.525 666.522C244.636 666.522 244.47 666.646 244.47 667.177C244.47 667.708 244.505 667.825 246.036 668.114C249.194 668.714 249.753 669.362 249.753 672.037C249.753 674.794 248.443 676 245.112 676C243.624 675.998 242.144 675.78 240.719 675.352Z" fill="#010101"/>
<path d="M265.587 675.821H261.739L261.325 673.849H258.222L257.808 675.821H253.96L257.353 663.771H262.18L265.587 675.821ZM258.842 670.92H260.718L259.787 666.522L258.842 670.92Z" fill="#010101"/>
<path d="M270.414 663.771H274.097V672.815H278.434V675.821H270.414V663.771Z" fill="#010101"/>
<path d="M283.475 663.771H291.751V666.722H287.179V668.149H291.372V671.099H287.179V672.87H291.751V675.821H283.475V663.771Z" fill="#010101"/>
<path d="M148.999 650.613C148.49 650.613 148.002 650.411 147.641 650.052C147.28 649.693 147.077 649.205 147.075 648.697V621.924C147.071 620.789 146.618 619.702 145.814 618.901C145.01 618.1 143.921 617.65 142.785 617.65C141.892 617.654 141.035 618.01 140.402 618.641C139.77 619.272 139.412 620.127 139.406 621.021V648.697C139.403 649.205 139.199 649.691 138.838 650.05C138.478 650.409 137.991 650.611 137.482 650.613H130.931C130.422 650.613 129.933 650.411 129.573 650.052C129.212 649.693 129.009 649.205 129.007 648.697V564.815C129.01 564.032 129.324 563.283 129.878 562.73C130.432 562.178 131.182 561.867 131.965 561.865C132.56 561.869 133.14 562.054 133.627 562.396L149.171 573.073C156.033 577.753 157.378 579.077 157.378 583.805V603.457C157.378 607.256 156.378 609.661 154.219 611.04C153.92 611.231 153.676 611.498 153.514 611.814C153.352 612.131 153.276 612.484 153.295 612.839C153.311 613.189 153.419 613.529 153.609 613.823C153.799 614.118 154.065 614.356 154.378 614.514C156.543 615.596 157.468 617.519 157.468 620.945V648.703C157.466 649.211 157.263 649.698 156.904 650.056C156.545 650.415 156.058 650.618 155.55 650.62L148.999 650.613ZM143.413 580.448C142.359 580.443 141.347 580.855 140.596 581.593C139.845 582.332 139.417 583.338 139.406 584.391V604.877C139.403 605.37 139.5 605.857 139.693 606.31C139.885 606.763 140.168 607.172 140.525 607.511C140.882 607.851 141.305 608.113 141.767 608.282C142.229 608.452 142.721 608.525 143.213 608.496C144.135 608.508 145.033 608.199 145.751 607.621C146.148 607.289 146.465 606.872 146.679 606.4C146.892 605.929 146.997 605.415 146.985 604.898V583.53C146.971 583.092 146.84 582.666 146.606 582.296C146.288 581.729 145.823 581.257 145.26 580.932C144.697 580.607 144.056 580.44 143.406 580.448H143.413Z" fill="url(#paint0_linear)"/>
<path d="M177.053 651.185C169.805 651.185 166.433 647.821 166.433 640.597V598.15C166.436 597.183 166.63 596.227 167.004 595.336C167.378 594.444 167.923 593.635 168.61 592.955C169.296 592.274 170.11 591.736 171.005 591.37C171.9 591.004 172.858 590.818 173.825 590.822C175.304 590.824 176.748 591.276 177.963 592.118L189.066 599.701C191.152 601.124 192.858 603.034 194.037 605.266C195.216 607.498 195.832 609.984 195.831 612.508V639.673C195.831 641.188 195.532 642.688 194.951 644.087C194.37 645.486 193.519 646.756 192.446 647.825C191.373 648.895 190.099 649.742 188.698 650.319C187.297 650.895 185.795 651.189 184.28 651.185H177.053ZM179.473 603.83C177.942 603.83 176.832 605.174 176.832 607.028V638.343C176.877 639.45 177.348 640.496 178.146 641.263C178.945 642.03 180.01 642.459 181.118 642.459C182.226 642.459 183.291 642.03 184.09 641.263C184.889 640.496 185.36 639.45 185.404 638.343V609.771C185.404 608.138 185.018 606.876 183.094 605.636L180.749 604.133L180.673 604.098C180.297 603.924 179.888 603.833 179.473 603.83Z" fill="url(#paint1_linear)"/>
<path d="M225.975 650.647C225.668 650.647 225.366 650.581 225.087 650.454C224.809 650.327 224.561 650.141 224.361 649.91L218.154 640.797C216.879 638.839 213.513 639.777 213.617 642.176L213.658 648.51C213.662 648.792 213.609 649.071 213.504 649.332C213.399 649.593 213.244 649.831 213.046 650.032C212.849 650.232 212.613 650.392 212.354 650.501C212.094 650.61 211.816 650.667 211.534 650.668H207.134C206.571 650.668 206.031 650.445 205.632 650.049C205.233 649.652 205.007 649.114 205.003 648.552L204.858 610.702C204.857 610.179 205.029 609.671 205.349 609.258C205.668 608.844 206.117 608.549 206.623 608.418C207.129 608.288 207.664 608.33 208.144 608.537C208.624 608.745 209.021 609.106 209.272 609.564L221.54 631.926C221.797 632.262 222.151 632.511 222.554 632.64C222.957 632.769 223.39 632.771 223.795 632.647C224.199 632.522 224.555 632.276 224.816 631.943C225.076 631.609 225.228 631.204 225.251 630.781L225.057 605.215C225.05 604.867 225.131 604.523 225.293 604.214C225.454 603.906 225.691 603.643 225.982 603.45L231.843 599.445C232.019 599.325 232.224 599.255 232.436 599.243C232.648 599.23 232.86 599.276 233.048 599.374C233.237 599.472 233.395 599.62 233.506 599.802C233.617 599.983 233.676 600.191 233.678 600.404V648.524C233.678 649.087 233.454 649.627 233.056 650.025C232.657 650.423 232.117 650.647 231.554 650.647H225.975Z" fill="url(#paint2_linear)"/>
<path d="M283.262 650.647C282.773 650.643 282.301 650.47 281.924 650.159C281.547 649.848 281.289 649.417 281.193 648.938L276.165 623.613C276.072 623.087 275.795 622.612 275.383 622.272C274.971 621.933 274.451 621.75 273.917 621.759C273.292 621.76 272.692 622.007 272.248 622.448C272.037 622.663 271.87 622.919 271.759 623.199C271.648 623.48 271.594 623.78 271.6 624.082L271.766 648.49C271.767 648.77 271.712 649.047 271.606 649.306C271.5 649.564 271.344 649.8 271.146 649.998C270.949 650.196 270.715 650.354 270.457 650.462C270.198 650.57 269.921 650.626 269.642 650.627H265.235C264.671 650.627 264.13 650.403 263.731 650.005C263.331 649.607 263.106 649.067 263.104 648.504V580.262C263.104 579.917 263.189 579.577 263.352 579.271C263.514 578.966 263.749 578.705 264.035 578.512L268.973 575.168C269.165 575.034 269.393 574.962 269.628 574.962C269.884 574.96 270.134 575.043 270.338 575.197C270.543 575.352 270.691 575.569 270.759 575.816L278.772 604.161C278.9 604.646 279.187 605.075 279.587 605.378C279.987 605.682 280.477 605.843 280.979 605.836C281.288 605.836 281.594 605.775 281.879 605.657C282.164 605.538 282.423 605.365 282.641 605.146C282.853 604.933 283.02 604.678 283.133 604.399C283.245 604.12 283.301 603.821 283.296 603.52L283.089 566.525C283.089 566.178 283.174 565.836 283.336 565.53C283.498 565.224 283.733 564.962 284.02 564.767L289.917 560.734C290.119 560.594 290.36 560.522 290.606 560.528C290.918 560.528 291.217 560.651 291.438 560.87C291.659 561.09 291.784 561.388 291.785 561.699V648.524C291.785 649.087 291.562 649.627 291.163 650.026C290.765 650.424 290.225 650.647 289.661 650.647H283.262Z" fill="url(#paint3_linear)"/>
<path d="M245.546 650.647C244.926 650.647 244.332 650.401 243.893 649.963C243.455 649.524 243.208 648.93 243.208 648.31V593.414C243.208 593.035 243.301 592.662 243.477 592.327C243.654 591.992 243.91 591.705 244.222 591.491L251.594 586.459C251.797 586.316 252.037 586.237 252.284 586.231C252.625 586.231 252.952 586.366 253.193 586.607C253.435 586.847 253.572 587.173 253.574 587.514V648.31C253.574 648.93 253.327 649.524 252.889 649.963C252.45 650.401 251.856 650.647 251.236 650.647H245.546Z" fill="url(#paint4_linear)"/>
<path d="M277.186 543.522L247.47 523.222C247.178 523.022 246.836 522.905 246.482 522.884C246.128 522.863 245.775 522.939 245.461 523.103C245.147 523.267 244.884 523.514 244.7 523.817C244.515 524.12 244.417 524.467 244.415 524.821C244.485 526.03 244.814 527.21 245.38 528.28C245.947 529.351 246.737 530.287 247.698 531.025L248.994 531.935C249.856 532.523 250.561 533.313 251.049 534.236C251.536 535.158 251.791 536.186 251.791 537.229C251.791 538.272 251.536 539.299 251.049 540.222C250.561 541.145 249.856 541.934 248.994 542.523L222.209 560.886C219.68 562.626 216.79 563.771 213.754 564.236V554.682C213.768 553.905 213.493 553.15 212.984 552.563C212.475 551.975 211.767 551.596 210.996 551.497C210.569 551.455 210.138 551.503 209.731 551.637C209.323 551.771 208.948 551.989 208.63 552.276C208.312 552.564 208.057 552.915 207.883 553.307C207.708 553.698 207.618 554.122 207.617 554.551V564.277C204.528 563.82 201.586 562.659 199.017 560.886L172.35 542.509C171.488 541.921 170.782 541.131 170.295 540.208C169.808 539.286 169.553 538.258 169.553 537.215C169.553 536.172 169.808 535.144 170.295 534.222C170.782 533.299 171.488 532.509 172.35 531.921L173.667 531.025C174.625 530.286 175.414 529.349 175.979 528.279C176.544 527.209 176.873 526.029 176.942 524.821C176.94 524.468 176.841 524.122 176.657 523.82C176.473 523.519 176.211 523.273 175.898 523.109C175.585 522.944 175.233 522.868 174.88 522.888C174.528 522.908 174.187 523.024 173.894 523.222L144.172 543.522C143.31 544.11 142.604 544.9 142.117 545.823C141.63 546.745 141.375 547.773 141.375 548.816C141.375 549.859 141.63 550.887 142.117 551.809C142.604 552.732 143.31 553.522 144.172 554.11L207.044 597.054C208.114 597.788 209.381 598.181 210.679 598.181C211.976 598.181 213.243 597.788 214.313 597.054L277.186 554.11C278.048 553.522 278.753 552.732 279.24 551.809C279.728 550.887 279.983 549.859 279.983 548.816C279.983 547.773 279.728 546.745 279.24 545.823C278.753 544.9 278.048 544.11 277.186 543.522ZM199.169 575.802C198.707 576.594 198.079 577.276 197.328 577.801C196.256 578.532 194.988 578.924 193.69 578.924C192.392 578.924 191.124 578.532 190.052 577.801L155.054 553.896C154.198 553.314 153.504 552.526 153.034 551.604C152.563 550.683 152.333 549.658 152.364 548.624C152.395 547.59 152.686 546.581 153.211 545.689C153.735 544.797 154.476 544.052 155.364 543.522L155.716 543.315C156.766 542.69 157.973 542.378 159.194 542.414C160.416 542.451 161.601 542.835 162.612 543.522L197.3 567.214C198.63 568.152 199.558 569.557 199.899 571.148C200.24 572.74 199.97 574.401 199.141 575.802H199.169ZM214.341 589.409C213.27 590.14 212.003 590.531 210.706 590.531C209.41 590.531 208.143 590.14 207.072 589.409C206.21 588.821 205.505 588.031 205.018 587.109C204.53 586.186 204.275 585.159 204.275 584.115C204.275 583.072 204.53 582.045 205.018 581.122C205.505 580.2 206.21 579.41 207.072 578.821C208.143 578.091 209.41 577.7 210.706 577.7C212.003 577.7 213.27 578.091 214.341 578.821C215.201 579.412 215.904 580.204 216.389 581.127C216.874 582.051 217.126 583.079 217.123 584.123C217.121 585.166 216.863 586.193 216.374 587.114C215.884 588.035 215.177 588.823 214.313 589.409H214.341ZM266.062 554.089L231.34 577.808C230.268 578.539 229 578.93 227.702 578.93C226.404 578.93 225.136 578.539 224.064 577.808C223.311 577.285 222.683 576.602 222.223 575.809C221.395 574.408 221.124 572.747 221.465 571.155C221.807 569.564 222.734 568.159 224.064 567.22L258.732 543.543C259.808 542.812 261.079 542.421 262.38 542.421C263.681 542.421 264.952 542.812 266.028 543.543C266.885 544.13 267.586 544.917 268.07 545.837C268.555 546.756 268.807 547.779 268.807 548.818C268.806 549.857 268.552 550.88 268.067 551.798C267.581 552.717 266.879 553.503 266.021 554.089H266.062Z" fill="black"/>
<path d="M285.413 508.499H243.05C242.001 508.499 240.966 508.741 240.026 509.206C239.086 509.671 238.266 510.347 237.629 511.18L228.954 522.595C228.144 523.666 227.096 524.534 225.894 525.132C224.691 525.73 223.366 526.042 222.023 526.042H213.748V511.945C217.396 512.338 220.934 513.431 224.168 515.164C224.804 515.535 225.544 515.684 226.274 515.589C227.004 515.495 227.682 515.161 228.202 514.64C228.525 514.292 228.765 513.876 228.905 513.422C229.044 512.968 229.079 512.488 229.007 512.019C228.934 511.549 228.757 511.102 228.487 510.711C228.218 510.32 227.863 509.995 227.45 509.76C225.366 508.621 223.171 507.697 220.899 507.003C223.806 504.85 225.959 501.835 227.053 498.387C228.147 494.94 228.125 491.236 226.99 487.801C225.856 484.367 223.667 481.378 220.735 479.259C217.802 477.141 214.276 476 210.658 476C207.04 476 203.514 477.141 200.582 479.259C197.65 481.378 195.461 484.367 194.326 487.801C193.192 491.236 193.17 494.94 194.263 498.387C195.357 501.835 197.51 504.85 200.417 507.003C198.245 507.664 196.143 508.537 194.142 509.608C193.393 509.981 192.815 510.625 192.524 511.408C192.233 512.192 192.252 513.057 192.576 513.827C192.761 514.22 193.025 514.571 193.352 514.858C193.679 515.145 194.061 515.361 194.475 515.494C194.889 515.627 195.326 515.672 195.759 515.629C196.192 515.585 196.611 515.453 196.99 515.24C200.282 513.457 203.893 512.338 207.617 511.945V526.048H199.341C197.999 526.047 196.674 525.735 195.472 525.137C194.27 524.539 193.222 523.672 192.411 522.602L183.735 511.187C183.1 510.351 182.279 509.673 181.337 509.206C180.396 508.74 179.359 508.498 178.308 508.499H135.944C135.579 508.483 135.222 508.614 134.952 508.861C134.682 509.109 134.522 509.453 134.507 509.819C134.491 510.184 134.621 510.541 134.869 510.811C135.117 511.08 135.461 511.24 135.827 511.256L173.281 514.048C174.246 514.131 175.183 514.421 176.027 514.896C176.872 515.372 177.605 516.023 178.177 516.805L187.618 529.543C188.428 530.634 189.482 531.521 190.697 532.131C191.911 532.742 193.251 533.059 194.611 533.059H207.617V534.189C207.617 535.004 207.941 535.786 208.518 536.363C209.095 536.94 209.877 537.263 210.693 537.263C211.508 537.263 212.291 536.94 212.868 536.363C213.444 535.786 213.768 535.004 213.768 534.189V533.059H226.768C228.127 533.06 229.468 532.743 230.683 532.133C231.897 531.522 232.951 530.635 233.761 529.543L243.195 516.825C243.767 516.044 244.5 515.394 245.345 514.918C246.189 514.443 247.125 514.153 248.091 514.068L285.544 511.304C285.916 511.287 286.267 511.122 286.517 510.847C286.768 510.572 286.9 510.208 286.882 509.836C286.865 509.464 286.7 509.114 286.425 508.863C286.149 508.612 285.785 508.481 285.413 508.499ZM210.686 504.135C208.532 504.131 206.427 503.489 204.638 502.29C202.849 501.091 201.455 499.388 200.634 497.398C199.812 495.407 199.6 493.218 200.022 491.107C200.445 488.996 201.484 487.057 203.009 485.536C204.534 484.015 206.475 482.98 208.588 482.561C210.701 482.143 212.891 482.359 214.881 483.184C216.871 484.009 218.571 485.405 219.768 487.196C220.964 488.986 221.602 491.091 221.602 493.244C221.604 494.678 221.323 496.098 220.775 497.423C220.227 498.748 219.424 499.952 218.41 500.967C217.396 501.981 216.191 502.785 214.866 503.334C213.541 503.882 212.12 504.164 210.686 504.163V504.135Z" fill="black"/>
<path d="M200.721 549.988C202.977 548.023 205.846 546.902 208.838 546.817H210.41C214.244 546.817 217.865 547.768 220.644 550.016C221.566 550.742 222.631 551.267 223.769 551.558C224.906 551.849 226.092 551.899 227.25 551.704C232.519 551.015 235.912 545.597 235.491 540.365C235.447 539.969 235.32 539.586 235.117 539.243C234.914 538.899 234.641 538.602 234.315 538.372C233.99 538.141 233.619 537.982 233.227 537.905C232.836 537.828 232.432 537.835 232.043 537.925L219.147 540.613C217.478 540.964 215.777 541.139 214.072 541.137H207.238C205.53 541.139 203.827 540.963 202.155 540.613L189.259 537.925C188.87 537.834 188.467 537.826 188.075 537.903C187.683 537.979 187.311 538.138 186.985 538.369C186.659 538.6 186.386 538.897 186.184 539.241C185.981 539.585 185.854 539.968 185.811 540.365C185.384 545.597 188.783 551.029 194.052 551.704C195.222 551.905 196.421 551.855 197.57 551.559C198.719 551.263 199.793 550.728 200.721 549.988Z" fill="url(#paint5_linear)"/>
<path d="M210.679 499.372C214.057 499.372 216.796 496.641 216.796 493.272C216.796 489.903 214.057 487.171 210.679 487.171C207.301 487.171 204.562 489.903 204.562 493.272C204.562 496.641 207.301 499.372 210.679 499.372Z" fill="url(#paint6_linear)"/>
<defs>
<linearGradient id="paint0_linear" x1="143.234" y1="650.613" x2="143.234" y2="561.865" gradientUnits="userSpaceOnUse">
<stop stop-color="#9C0A0E"/>
<stop offset="0.3" stop-color="#C41D1E"/>
<stop offset="0.57" stop-color="#E22C2A"/>
<stop offset="0.72" stop-color="#EE312F"/>
</linearGradient>
<linearGradient id="paint1_linear" x1="9502.55" y1="28900.9" x2="9502.55" y2="23614.9" gradientUnits="userSpaceOnUse">
<stop stop-color="#9C0A0E"/>
<stop offset="0.3" stop-color="#C41D1E"/>
<stop offset="0.57" stop-color="#E22C2A"/>
<stop offset="0.72" stop-color="#EE312F"/>
</linearGradient>
<linearGradient id="paint2_linear" x1="10951.9" y1="24678.4" x2="10951.9" y2="20843" gradientUnits="userSpaceOnUse">
<stop stop-color="#9C0A0E"/>
<stop offset="0.3" stop-color="#C41D1E"/>
<stop offset="0.57" stop-color="#E22C2A"/>
<stop offset="0.72" stop-color="#EE312F"/>
</linearGradient>
<linearGradient id="paint3_linear" x1="13377.1" y1="42756.6" x2="13377.1" y2="30977.9" gradientUnits="userSpaceOnUse">
<stop stop-color="#9C0A0E"/>
<stop offset="0.3" stop-color="#C41D1E"/>
<stop offset="0.57" stop-color="#E22C2A"/>
<stop offset="0.72" stop-color="#EE312F"/>
</linearGradient>
<linearGradient id="paint4_linear" x1="4546.05" y1="30746.9" x2="4546.05" y2="24727.3" gradientUnits="userSpaceOnUse">
<stop stop-color="#9C0A0E"/>
<stop offset="0.3" stop-color="#C41D1E"/>
<stop offset="0.57" stop-color="#E22C2A"/>
<stop offset="0.72" stop-color="#EE312F"/>
</linearGradient>
<linearGradient id="paint5_linear" x1="210.679" y1="551.794" x2="210.679" y2="537.863" gradientUnits="userSpaceOnUse">
<stop offset="0.3" stop-color="#EE312F"/>
<stop offset="0.42" stop-color="#E92E2D"/>
<stop offset="0.58" stop-color="#D92727"/>
<stop offset="0.75" stop-color="#C01B1C"/>
<stop offset="0.93" stop-color="#9C0A0E"/>
</linearGradient>
<linearGradient id="paint6_linear" x1="4614.14" y1="3522.34" x2="4614.14" y2="3306.27" gradientUnits="userSpaceOnUse">
<stop offset="0.3" stop-color="#EE312F"/>
<stop offset="0.42" stop-color="#E92E2D"/>
<stop offset="0.58" stop-color="#D92727"/>
<stop offset="0.75" stop-color="#C01B1C"/>
<stop offset="0.93" stop-color="#9C0A0E"/>
</linearGradient>
</defs>
</svg>
