<svg width="326" height="400" viewBox="0 0 326 400" fill="none" xmlns="http://www.w3.org/2000/svg">
<path d="M11.2908 375.543C17.2602 375.543 19.3419 378.301 19.3419 382.85V386.324C19.3419 390.887 17.2602 393.631 11.2908 393.631H7.36178V399.642H0V375.543H11.2908ZM7.36178 387.593H10.0225C11.5114 387.593 11.9801 387.013 11.9801 385.814V383.319C11.9801 382.133 11.5114 381.554 10.0225 381.554H7.36178V387.593Z" fill="white"/>
<path d="M29.2542 392.045V383.14C29.2542 378.507 32.2733 375.185 39.0147 375.185C45.7561 375.185 48.7753 378.507 48.7753 383.14V392.045C48.7753 396.678 45.7561 400 39.0147 400C32.2733 400 29.2542 396.678 29.2542 392.045ZM41.3446 383.14C41.3446 381.954 40.6552 381.196 39.0147 381.196C37.3742 381.196 36.6848 381.954 36.6848 383.14V392.045C36.6848 393.231 37.3742 393.989 39.0147 393.989C40.6552 393.989 41.3446 393.231 41.3446 392.045V383.14Z" fill="white"/>
<path d="M59.2803 375.543H66.6421V399.642H59.2803V375.543Z" fill="white"/>
<path d="M77.6158 375.543H85.5567L91.9396 387.551V375.543H98.9706V399.642H91.0573L84.6468 387.593V399.6H77.6158V375.543Z" fill="white"/>
<path d="M114.673 381.554H108.91V375.543H127.921V381.554H122.09V399.642H114.742L114.673 381.554Z" fill="white"/>
<path d="M152.337 392.045V383.14C152.337 378.507 155.356 375.185 162.097 375.185C168.839 375.185 171.858 378.507 171.858 383.14V392.045C171.858 396.678 168.839 400 162.097 400C155.356 400 152.337 396.678 152.337 392.045ZM164.427 383.14C164.427 381.954 163.738 381.196 162.097 381.196C160.457 381.196 159.767 381.954 159.767 383.14V392.045C159.767 393.231 160.457 393.989 162.097 393.989C163.738 393.989 164.427 393.231 164.427 392.045V383.14Z" fill="white"/>
<path d="M182.308 399.642V375.543H198.741V381.444H189.669V385.139H197.941V391.025H189.669V399.642H182.308Z" fill="white"/>
<path d="M223.335 398.704L224.534 393.121C226.829 393.811 229.211 394.168 231.607 394.182C233.495 394.182 234.047 393.893 234.047 392.624C234.047 391.356 233.854 391.136 230.766 390.667C224.893 389.757 223.473 388.751 223.473 383.029C223.473 376.991 225.954 375.185 232.544 375.185C235.052 375.135 237.554 375.441 239.975 376.095L239.217 381.802C237.157 381.336 235.055 381.082 232.944 381.044C231.166 381.044 230.835 381.292 230.835 382.354C230.835 383.415 230.904 383.65 233.964 384.229C240.278 385.428 241.395 386.724 241.395 392.073C241.395 397.587 238.776 400 232.117 400C229.142 399.996 226.184 399.56 223.335 398.704Z" fill="white"/>
<path d="M273.048 399.642H265.355L264.528 395.699H258.324L257.497 399.642H249.804L256.587 375.543H266.237L273.048 399.642ZM259.565 389.84H263.315L261.454 381.044L259.565 389.84Z" fill="white"/>
<path d="M282.698 375.543H290.06V393.631H298.731V399.642H282.698V375.543Z" fill="white"/>
<path d="M308.809 375.543H325.352V381.444H316.212V384.298H324.594V390.198H316.212V393.741H325.352V399.642H308.809V375.543Z" fill="white"/>
<path d="M39.9798 349.226C38.962 349.226 37.9858 348.822 37.2649 348.104C36.5439 347.386 36.1371 346.411 36.1334 345.393V291.848C36.1261 289.578 35.2195 287.404 33.6121 285.802C32.0048 284.2 29.8279 283.301 27.5584 283.301C25.7715 283.308 24.0595 284.02 22.7946 285.282C21.5298 286.545 20.8141 288.255 20.8033 290.042V345.393C20.796 346.41 20.388 347.382 19.6679 348.1C18.9477 348.818 17.9736 349.222 16.9569 349.226H3.86013C2.84241 349.226 1.86616 348.822 1.14523 348.104C0.424302 347.386 0.0174417 346.411 0.0137939 345.393V177.63C0.0210691 176.065 0.646962 174.566 1.75492 173.461C2.86287 172.355 4.36299 171.733 5.92805 171.729C7.11748 171.739 8.27608 172.109 9.25051 172.791L40.3244 194.146C54.0416 203.506 56.7299 206.153 56.7299 215.611V254.915C56.7299 262.511 54.7309 267.322 50.4159 270.08C49.8168 270.462 49.3301 270.997 49.0055 271.629C48.6809 272.261 48.5301 272.968 48.5685 273.678C48.5989 274.378 48.8154 275.058 49.1959 275.647C49.5763 276.236 50.1069 276.712 50.7329 277.028C55.0617 279.192 56.9091 283.039 56.9091 289.89V345.407C56.9055 346.422 56.5005 347.395 55.7826 348.113C55.0646 348.831 54.0919 349.236 53.0766 349.24L39.9798 349.226ZM28.813 208.897C26.7067 208.886 24.6818 209.709 23.1809 211.187C21.6799 212.665 20.8251 214.676 20.8033 216.783V257.755C20.796 258.739 20.9907 259.715 21.3754 260.621C21.7602 261.527 22.3267 262.344 23.04 263.023C23.7533 263.701 24.5981 264.226 25.5223 264.565C26.4466 264.904 27.4304 265.049 28.4132 264.993C30.2564 265.017 32.0504 264.397 33.4865 263.242C34.2803 262.578 34.9142 261.743 35.3414 260.8C35.7687 259.858 35.9781 258.831 35.9542 257.796V215.059C35.9249 214.184 35.6632 213.332 35.196 212.592C34.5609 211.457 33.6314 210.515 32.5056 209.865C31.3797 209.214 30.0993 208.88 28.7992 208.897H28.813Z" fill="white"/>
<path d="M96.0617 350.37C81.5725 350.37 74.8311 343.642 74.8311 329.195V244.3C74.8383 242.367 75.2264 240.454 75.9732 238.671C76.72 236.889 77.8108 235.27 79.1833 233.909C80.5558 232.548 82.1831 231.471 83.9721 230.74C85.7612 230.008 87.6769 229.636 89.6098 229.645C92.5663 229.648 95.4517 230.552 97.8814 232.237L120.077 247.401C124.246 250.248 127.657 254.068 130.014 258.532C132.371 262.996 133.602 267.968 133.601 273.016V327.347C133.601 330.376 133.004 333.376 131.842 336.174C130.681 338.971 128.979 341.512 126.834 343.651C124.688 345.79 122.142 347.484 119.341 348.637C116.54 349.79 113.539 350.379 110.51 350.37H96.0617ZM100.901 255.659C97.8401 255.659 95.6205 258.348 95.6205 262.056V324.686C95.7093 326.899 96.6509 328.992 98.248 330.526C99.8451 332.061 101.974 332.918 104.189 332.918C106.403 332.918 108.532 332.061 110.129 330.526C111.726 328.992 112.668 326.899 112.757 324.686V267.543C112.757 264.276 111.985 261.753 108.138 259.271L103.451 256.266L103.299 256.197C102.547 255.849 101.729 255.666 100.901 255.659Z" fill="white"/>
<path d="M193.86 349.295C193.248 349.295 192.643 349.163 192.087 348.909C191.53 348.654 191.035 348.283 190.634 347.82L178.227 329.594C175.676 325.679 168.949 327.554 169.156 332.352L169.238 345.021C169.246 345.584 169.141 346.143 168.931 346.665C168.721 347.187 168.41 347.663 168.015 348.064C167.62 348.465 167.15 348.784 166.631 349.003C166.112 349.221 165.555 349.334 164.992 349.336H156.197C155.072 349.336 153.992 348.891 153.194 348.098C152.396 347.305 151.944 346.229 151.937 345.104L151.647 269.404C151.644 268.359 151.989 267.343 152.628 266.516C153.267 265.689 154.163 265.098 155.175 264.837C156.187 264.577 157.257 264.66 158.216 265.075C159.175 265.49 159.968 266.213 160.47 267.129L184.996 311.852C185.509 312.524 186.217 313.023 187.022 313.281C187.828 313.538 188.694 313.543 189.502 313.294C190.311 313.044 191.023 312.553 191.544 311.886C192.064 311.219 192.367 310.408 192.413 309.563L192.027 258.43C192.013 257.734 192.175 257.046 192.498 256.429C192.82 255.812 193.294 255.286 193.874 254.901L205.592 246.891C205.943 246.651 206.353 246.511 206.777 246.486C207.201 246.461 207.625 246.552 208.001 246.748C208.378 246.945 208.694 247.241 208.916 247.604C209.137 247.966 209.256 248.383 209.259 248.808V345.049C209.259 346.175 208.812 347.255 208.016 348.051C207.219 348.847 206.139 349.295 205.013 349.295H193.86Z" fill="white"/>
<path d="M308.382 349.295C307.405 349.285 306.461 348.941 305.708 348.318C304.955 347.696 304.439 346.833 304.246 345.876L294.196 295.226C294.009 294.174 293.454 293.224 292.631 292.544C291.807 291.865 290.769 291.501 289.701 291.517C288.451 291.519 287.252 292.014 286.365 292.896C285.942 293.326 285.609 293.837 285.387 294.398C285.164 294.959 285.056 295.559 285.069 296.163L285.4 344.98C285.402 345.539 285.293 346.093 285.081 346.611C284.869 347.128 284.556 347.599 284.162 347.996C283.768 348.393 283.299 348.708 282.783 348.924C282.267 349.14 281.713 349.252 281.154 349.253H272.345C271.217 349.253 270.136 348.806 269.337 348.011C268.539 347.215 268.088 346.135 268.085 345.007V208.525C268.085 207.833 268.255 207.153 268.58 206.542C268.904 205.932 269.373 205.41 269.946 205.023L279.817 198.337C280.2 198.067 280.658 197.923 281.126 197.923C281.639 197.92 282.138 198.086 282.547 198.395C282.955 198.704 283.251 199.139 283.387 199.633L299.407 256.321C299.662 257.292 300.236 258.149 301.035 258.757C301.835 259.364 302.814 259.686 303.818 259.671C304.436 259.671 305.047 259.55 305.617 259.313C306.187 259.077 306.705 258.73 307.141 258.293C307.565 257.865 307.899 257.357 308.124 256.798C308.349 256.239 308.46 255.641 308.45 255.039L308.037 181.049C308.037 180.356 308.206 179.673 308.53 179.06C308.855 178.447 309.324 177.923 309.898 177.533L321.685 169.469C322.09 169.189 322.572 169.044 323.064 169.055C323.687 169.055 324.284 169.301 324.726 169.741C325.168 170.18 325.418 170.776 325.421 171.399V345.049C325.421 346.175 324.974 347.255 324.178 348.051C323.381 348.847 322.301 349.295 321.175 349.295H308.382Z" fill="white"/>
<path d="M232.985 349.295C231.746 349.295 230.557 348.802 229.681 347.926C228.804 347.049 228.312 345.861 228.312 344.621V234.829C228.311 234.071 228.496 233.325 228.849 232.655C229.202 231.984 229.713 231.41 230.338 230.982L245.076 220.918C245.48 220.633 245.96 220.475 246.454 220.463C247.136 220.463 247.789 220.733 248.272 221.214C248.755 221.694 249.029 222.346 249.032 223.028V344.621C249.032 345.861 248.54 347.049 247.663 347.926C246.787 348.802 245.598 349.295 244.359 349.295H232.985Z" fill="white"/>
<path d="M296.236 135.045L236.832 94.4444C236.247 94.0437 235.564 93.8098 234.857 93.7678C234.149 93.7259 233.444 93.8774 232.816 94.2063C232.188 94.5351 231.662 95.0287 231.293 95.6342C230.925 96.2396 230.728 96.934 230.724 97.6428C230.864 100.061 231.522 102.42 232.654 104.561C233.787 106.702 235.366 108.574 237.287 110.05L239.878 111.87C241.601 113.047 243.011 114.626 243.986 116.471C244.96 118.316 245.469 120.371 245.469 122.458C245.469 124.544 244.96 126.599 243.986 128.444C243.011 130.289 241.601 131.869 239.878 133.046L186.333 169.772C181.277 173.252 175.499 175.543 169.431 176.472V157.364C169.457 155.81 168.909 154.301 167.892 153.125C166.874 151.95 165.459 151.192 163.917 150.995C163.063 150.91 162.202 151.005 161.387 151.274C160.573 151.542 159.823 151.978 159.187 152.553C158.551 153.128 158.042 153.83 157.693 154.613C157.344 155.397 157.163 156.245 157.162 157.102V176.555C150.988 175.639 145.106 173.319 139.97 169.772L86.6595 133.018C84.9365 131.841 83.5267 130.262 82.5524 128.417C81.5782 126.572 81.069 124.517 81.069 122.43C81.069 120.344 81.5782 118.289 82.5524 116.444C83.5267 114.599 84.9365 113.019 86.6595 111.843L89.2927 110.05C91.209 108.572 92.7853 106.699 93.9151 104.558C95.0448 102.417 95.7016 100.059 95.8411 97.6428C95.8358 96.9362 95.6388 96.2444 95.2711 95.6411C94.9033 95.0378 94.3786 94.5457 93.753 94.2173C93.1274 93.8889 92.4243 93.7366 91.7189 93.7766C91.0135 93.8166 90.3321 94.0474 89.7477 94.4444L30.3295 135.045C28.6064 136.221 27.1966 137.801 26.2224 139.646C25.2481 141.491 24.7389 143.546 24.7389 145.632C24.7389 147.719 25.2481 149.774 26.2224 151.619C27.1966 153.464 28.6064 155.043 30.3295 156.22L156.018 242.107C158.156 243.576 160.689 244.362 163.283 244.362C165.877 244.362 168.41 243.576 170.548 242.107L296.236 156.22C297.959 155.043 299.369 153.464 300.343 151.619C301.317 149.774 301.827 147.719 301.827 145.632C301.827 143.546 301.317 141.491 300.343 139.646C299.369 137.801 297.959 136.221 296.236 135.045ZM140.274 199.605C139.351 201.188 138.095 202.552 136.593 203.603C134.45 205.065 131.915 205.847 129.321 205.847C126.726 205.847 124.192 205.065 122.049 203.603L52.084 155.793C50.374 154.628 48.985 153.052 48.0453 151.209C47.1055 149.366 46.6453 147.316 46.7071 145.249C46.769 143.181 47.3508 141.162 48.399 139.379C49.4472 137.595 50.9279 136.105 52.7044 135.045L53.4074 134.631C55.5064 133.381 57.9187 132.755 60.3608 132.829C62.8029 132.902 65.1733 133.671 67.1935 135.045L136.538 182.427C139.196 184.305 141.051 187.115 141.733 190.297C142.415 193.48 141.874 196.803 140.219 199.605H140.274ZM170.603 226.819C168.462 228.28 165.93 229.061 163.338 229.061C160.746 229.061 158.214 228.28 156.073 226.819C154.35 225.642 152.94 224.063 151.966 222.218C150.991 220.372 150.482 218.317 150.482 216.231C150.482 214.144 150.991 212.089 151.966 210.244C152.94 208.399 154.35 206.82 156.073 205.643C158.214 204.182 160.746 203.401 163.338 203.401C165.93 203.401 168.462 204.182 170.603 205.643C172.323 206.824 173.729 208.407 174.698 210.255C175.668 212.103 176.172 214.159 176.166 216.246C176.161 218.332 175.646 220.386 174.667 222.228C173.688 224.071 172.274 225.646 170.548 226.819H170.603ZM273.999 156.179L204.586 203.617C202.443 205.079 199.908 205.861 197.314 205.861C194.719 205.861 192.185 205.079 190.042 203.617C188.536 202.57 187.28 201.205 186.361 199.619C184.705 196.816 184.164 193.494 184.846 190.311C185.528 187.128 187.383 184.319 190.042 182.441L259.344 135.086C261.495 133.624 264.036 132.842 266.637 132.842C269.238 132.842 271.779 133.624 273.93 135.086C275.644 136.26 277.045 137.835 278.013 139.673C278.981 141.512 279.487 143.558 279.485 145.636C279.484 147.714 278.976 149.759 278.006 151.597C277.035 153.434 275.632 155.006 273.916 156.179H273.999Z" fill="white"/>
<path d="M312.683 64.9974H227.995C225.898 64.9978 223.829 65.4819 221.95 66.412C220.071 67.3422 218.431 68.6932 217.159 70.3602L199.816 93.19C198.196 95.3316 196.102 97.0686 193.698 98.2646C191.294 99.4606 188.646 100.083 185.961 100.083H169.418V71.8904C176.711 72.6756 183.784 74.8616 190.248 78.3286C191.52 79.0695 193 79.3685 194.459 79.179C195.918 78.9894 197.274 78.3219 198.313 77.2808C198.959 76.5845 199.439 75.7512 199.718 74.8432C199.996 73.9352 200.066 72.976 199.921 72.0373C199.777 71.0986 199.422 70.2047 198.883 69.4225C198.345 68.6403 197.636 67.99 196.811 67.5202C192.643 65.2424 188.255 63.3948 183.714 62.0058C189.525 57.699 193.83 51.6693 196.016 44.7746C198.202 37.8798 198.158 30.4712 195.89 23.6029C193.623 16.7345 189.247 10.7563 183.385 6.51866C177.523 2.28107 170.474 0 163.241 0C156.008 0 148.96 2.28107 143.098 6.51866C137.236 10.7563 132.86 16.7345 130.592 23.6029C128.325 30.4712 128.281 37.8798 130.467 44.7746C132.653 51.6693 136.958 57.699 142.769 62.0058C138.427 63.3277 134.225 65.0731 130.224 67.2169C128.727 67.9621 127.571 69.2492 126.99 70.8164C126.408 72.3836 126.446 74.1134 127.094 75.6541C127.464 76.4407 127.992 77.1428 128.645 77.7164C129.298 78.29 130.063 78.7229 130.89 78.9881C131.718 79.2532 132.592 79.345 133.457 79.2576C134.322 79.1702 135.159 78.9056 135.917 78.4802C142.499 74.914 149.717 72.675 157.162 71.8904V100.097H140.618C137.934 100.094 135.286 99.4699 132.883 98.2741C130.48 97.0783 128.385 95.343 126.763 93.2038L109.42 70.374C108.15 68.701 106.509 67.3451 104.627 66.4123C102.744 65.4795 100.672 64.9952 98.5707 64.9974H13.8826C13.1514 64.9663 12.4377 65.227 11.8987 65.7221C11.3596 66.2172 11.0393 66.9062 11.0082 67.6374C10.9772 68.3687 11.2378 69.0823 11.7329 69.6214C12.228 70.1604 12.917 70.4808 13.6483 70.5118L88.5207 76.0952C90.4512 76.2627 92.3235 76.8416 94.0117 77.7927C95.7 78.7439 97.1652 80.0453 98.3088 81.6096L117.182 107.086C118.801 109.269 120.909 111.041 123.337 112.262C125.764 113.483 128.444 114.118 131.161 114.117H157.162V116.378C157.162 118.009 157.81 119.573 158.963 120.726C160.116 121.879 161.68 122.527 163.31 122.527C164.941 122.527 166.505 121.879 167.658 120.726C168.811 119.573 169.459 118.009 169.459 116.378V114.117H195.446C198.163 114.121 200.844 113.486 203.272 112.265C205.7 111.044 207.807 109.27 209.425 107.086L228.284 81.651C229.429 80.0879 230.895 78.7874 232.583 77.8364C234.271 76.8854 236.142 76.3059 238.072 76.1365L312.945 70.6083C313.689 70.5736 314.389 70.2447 314.89 69.694C315.392 69.1433 315.654 68.4159 315.619 67.6719C315.585 66.9278 315.256 66.2281 314.705 65.7265C314.154 65.2249 313.427 64.9626 312.683 64.9974ZM163.297 56.2708C158.99 56.2626 154.783 54.9781 151.206 52.5797C147.63 50.1813 144.844 46.7766 143.202 42.7957C141.56 38.8149 141.134 34.4365 141.979 30.2139C142.825 25.9914 144.902 22.114 147.95 19.0719C150.998 16.0298 154.879 13.9593 159.104 13.1222C163.328 12.2851 167.705 12.7188 171.683 14.3687C175.661 16.0185 179.06 18.8104 181.452 22.3916C183.844 25.9727 185.12 30.1824 185.12 34.4887C185.124 37.3563 184.562 40.1964 183.466 42.8466C182.371 45.4967 180.764 47.9049 178.737 49.9332C176.71 51.9615 174.303 53.5701 171.653 54.6671C169.004 55.764 166.164 56.3277 163.297 56.3259V56.2708Z" fill="white"/>
<path d="M143.376 147.976C147.886 144.046 153.622 141.805 159.602 141.634H162.745C170.41 141.634 177.648 143.537 183.204 148.031C185.048 149.484 187.176 150.535 189.45 151.117C191.725 151.699 194.096 151.798 196.411 151.409C206.943 150.03 213.726 139.194 212.885 128.731C212.797 127.938 212.542 127.173 212.136 126.485C211.731 125.798 211.185 125.205 210.534 124.744C209.883 124.283 209.141 123.965 208.359 123.811C207.576 123.657 206.769 123.67 205.992 123.85L180.212 129.227C176.876 129.927 173.475 130.278 170.066 130.275H156.404C152.99 130.278 149.585 129.927 146.243 129.227L120.463 123.85C119.686 123.668 118.879 123.653 118.095 123.806C117.311 123.959 116.569 124.277 115.917 124.738C115.266 125.199 114.72 125.794 114.315 126.482C113.91 127.171 113.656 127.937 113.57 128.731C112.715 139.194 119.512 150.058 130.044 151.409C132.383 151.809 134.78 151.71 137.077 151.119C139.375 150.527 141.521 149.456 143.376 147.976Z" fill="white"/>
<path d="M163.283 46.7444C170.036 46.7444 175.511 41.282 175.511 34.5437C175.511 27.8055 170.036 22.343 163.283 22.343C156.529 22.343 151.054 27.8055 151.054 34.5437C151.054 41.282 156.529 46.7444 163.283 46.7444Z" fill="white"/>
</svg>
