<svg width="528" height="218" viewBox="0 0 528 218" fill="none" xmlns="http://www.w3.org/2000/svg">
<path d="M188.255 196.771C191.241 196.771 192.283 198.15 192.283 200.425V202.162C192.283 204.443 191.241 205.815 188.255 205.815H186.29V208.821H182.607V196.771H188.255ZM186.29 202.796H187.621C188.366 202.796 188.6 202.506 188.6 201.907V200.659C188.6 200.066 188.366 199.777 187.621 199.777H186.29V202.796Z" fill="#010101"/>
<path d="M197.241 205.023V200.57C197.241 198.254 198.751 196.593 202.124 196.593C205.496 196.593 207.006 198.254 207.006 200.57V205.023C207.006 207.339 205.496 209 202.124 209C198.751 209 197.241 207.339 197.241 205.023ZM203.289 200.57C203.289 199.977 202.944 199.598 202.124 199.598C201.303 199.598 200.958 199.977 200.958 200.57V205.023C200.958 205.616 201.303 205.995 202.124 205.995C202.944 205.995 203.289 205.616 203.289 205.023V200.57Z" fill="#010101"/>
<path d="M212.261 196.771H215.944V208.821H212.261V196.771Z" fill="#010101"/>
<path d="M221.433 196.771H225.405L228.598 202.775V196.771H232.115V208.821H228.157L224.95 202.796V208.8H221.433V196.771Z" fill="#010101"/>
<path d="M239.97 199.777H237.088V196.771H246.598V199.777H243.68V208.821H240.005L239.97 199.777Z" fill="#010101"/>
<path d="M258.811 205.023V200.57C258.811 198.254 260.321 196.593 263.693 196.593C267.066 196.593 268.576 198.254 268.576 200.57V205.023C268.576 207.339 267.066 209 263.693 209C260.321 209 258.811 207.339 258.811 205.023ZM264.859 200.57C264.859 199.977 264.514 199.598 263.693 199.598C262.873 199.598 262.528 199.977 262.528 200.57V205.023C262.528 205.616 262.873 205.995 263.693 205.995C264.514 205.995 264.859 205.616 264.859 205.023V200.57Z" fill="#010101"/>
<path d="M273.803 208.821V196.771H282.024V199.722H277.486V201.569H281.624V204.512H277.486V208.821H273.803Z" fill="#010101"/>
<path d="M294.326 208.352L294.926 205.56C296.074 205.905 297.265 206.084 298.464 206.091C299.409 206.091 299.685 205.946 299.685 205.312C299.685 204.678 299.588 204.568 298.043 204.333C295.105 203.878 294.395 203.375 294.395 200.515C294.395 197.495 295.636 196.593 298.933 196.593C300.187 196.567 301.439 196.721 302.65 197.047L302.271 199.901C301.24 199.668 300.189 199.541 299.133 199.522C298.243 199.522 298.078 199.646 298.078 200.177C298.078 200.708 298.112 200.825 299.643 201.114C302.802 201.714 303.36 202.362 303.36 205.037C303.36 207.794 302.05 209 298.719 209C297.231 208.998 295.751 208.78 294.326 208.352Z" fill="#010101"/>
<path d="M319.194 208.821H315.346L314.932 206.849H311.829L311.415 208.821H307.567L310.96 196.771H315.787L319.194 208.821ZM312.45 203.92H314.325L313.394 199.522L312.45 203.92Z" fill="#010101"/>
<path d="M324.021 196.771H327.704V205.815H332.042V208.821H324.021V196.771Z" fill="#010101"/>
<path d="M337.083 196.771H345.358V199.722H340.786V201.149H344.979V204.099H340.786V205.87H345.358V208.821H337.083V196.771Z" fill="#010101"/>
<path d="M202.606 183.612C202.097 183.612 201.609 183.411 201.248 183.052C200.888 182.692 200.684 182.205 200.682 181.696V154.923C200.679 153.789 200.225 152.702 199.421 151.901C198.617 151.1 197.528 150.65 196.393 150.65C195.499 150.653 194.643 151.009 194.01 151.641C193.377 152.272 193.019 153.127 193.014 154.02V181.696C193.01 182.204 192.806 182.691 192.446 183.05C192.086 183.408 191.598 183.611 191.09 183.612H184.538C184.029 183.612 183.541 183.411 183.18 183.052C182.82 182.692 182.616 182.205 182.614 181.696V97.8145C182.618 97.032 182.931 96.2826 183.485 95.7299C184.039 95.1772 184.79 94.8661 185.573 94.8643C186.168 94.8689 186.747 95.0539 187.235 95.395L202.779 106.072C209.641 110.753 210.985 112.076 210.985 116.805V136.457C210.985 140.255 209.985 142.661 207.827 144.039C207.527 144.231 207.284 144.498 207.121 144.814C206.959 145.13 206.884 145.484 206.903 145.838C206.918 146.189 207.026 146.528 207.217 146.823C207.407 147.117 207.672 147.356 207.985 147.513C210.151 148.596 211.075 150.519 211.075 153.945V181.703C211.073 182.211 210.871 182.697 210.511 183.056C210.152 183.415 209.666 183.617 209.158 183.619L202.606 183.612ZM197.02 113.448C195.967 113.442 194.954 113.854 194.203 114.593C193.452 115.332 193.025 116.338 193.014 117.391V137.877C193.01 138.369 193.108 138.857 193.3 139.31C193.492 139.763 193.776 140.172 194.133 140.511C194.489 140.85 194.912 141.112 195.374 141.282C195.837 141.451 196.329 141.524 196.82 141.496C197.743 141.508 198.64 141.198 199.358 140.62C199.755 140.288 200.073 139.871 200.286 139.4C200.5 138.928 200.605 138.415 200.593 137.898V116.529C200.578 116.091 200.447 115.666 200.213 115.295C199.896 114.728 199.431 114.257 198.868 113.932C198.304 113.607 197.664 113.44 197.014 113.448H197.02Z" fill="url(#paint0_linear)"/>
<path d="M230.66 184.185C223.412 184.185 220.04 180.821 220.04 173.597V131.15C220.044 130.183 220.238 129.227 220.611 128.336C220.985 127.444 221.531 126.635 222.217 125.955C222.904 125.274 223.718 124.736 224.613 124.37C225.508 124.004 226.466 123.818 227.433 123.822C228.912 123.824 230.355 124.276 231.571 125.118L242.673 132.701C244.759 134.124 246.465 136.034 247.644 138.266C248.823 140.498 249.439 142.984 249.439 145.508V172.673C249.439 174.188 249.14 175.688 248.559 177.087C247.978 178.486 247.126 179.756 246.053 180.825C244.98 181.895 243.707 182.742 242.305 183.319C240.904 183.895 239.403 184.189 237.887 184.185H230.66ZM233.081 136.83C231.55 136.83 230.44 138.174 230.44 140.028V171.343C230.484 172.45 230.955 173.496 231.754 174.263C232.553 175.03 233.618 175.459 234.726 175.459C235.833 175.459 236.898 175.03 237.697 174.263C238.496 173.496 238.967 172.45 239.012 171.343V142.771C239.012 141.138 238.625 139.876 236.701 138.636L234.357 137.133L234.281 137.098C233.904 136.924 233.495 136.833 233.081 136.83Z" fill="url(#paint1_linear)"/>
<path d="M279.582 183.648C279.276 183.648 278.973 183.582 278.695 183.455C278.416 183.327 278.169 183.142 277.968 182.91L271.762 173.797C270.486 171.84 267.121 172.777 267.224 175.176L267.265 181.511C267.269 181.792 267.217 182.072 267.112 182.333C267.007 182.594 266.851 182.832 266.654 183.032C266.456 183.233 266.221 183.392 265.961 183.502C265.702 183.611 265.423 183.667 265.141 183.668H260.742C260.179 183.668 259.639 183.446 259.24 183.049C258.84 182.653 258.614 182.115 258.611 181.552L258.466 143.702C258.464 143.18 258.637 142.672 258.956 142.258C259.276 141.845 259.724 141.549 260.23 141.419C260.737 141.289 261.272 141.33 261.751 141.538C262.231 141.745 262.628 142.107 262.879 142.565L275.148 164.926C275.405 165.262 275.758 165.512 276.162 165.641C276.565 165.769 276.998 165.772 277.402 165.647C277.806 165.522 278.163 165.277 278.423 164.943C278.684 164.61 278.835 164.204 278.858 163.782L278.665 138.215C278.658 137.867 278.739 137.523 278.9 137.215C279.062 136.906 279.299 136.643 279.589 136.451L285.451 132.446C285.626 132.326 285.831 132.256 286.043 132.243C286.256 132.231 286.467 132.276 286.656 132.374C286.844 132.473 287.002 132.621 287.113 132.802C287.224 132.983 287.284 133.192 287.285 133.404V181.525C287.285 182.088 287.061 182.628 286.663 183.026C286.265 183.424 285.724 183.648 285.161 183.648H279.582Z" fill="url(#paint2_linear)"/>
<path d="M336.869 183.647C336.38 183.643 335.908 183.47 335.532 183.159C335.155 182.848 334.897 182.417 334.8 181.938L329.773 156.613C329.68 156.087 329.402 155.612 328.99 155.272C328.578 154.933 328.059 154.75 327.525 154.759C326.899 154.76 326.299 155.007 325.856 155.448C325.644 155.663 325.478 155.919 325.366 156.199C325.255 156.48 325.201 156.78 325.208 157.082L325.373 181.49C325.374 181.77 325.32 182.047 325.214 182.306C325.107 182.564 324.951 182.8 324.754 182.998C324.557 183.196 324.322 183.354 324.064 183.462C323.806 183.57 323.529 183.626 323.249 183.627H318.842C318.278 183.627 317.737 183.403 317.338 183.005C316.939 182.607 316.713 182.067 316.711 181.504V113.262C316.712 112.917 316.797 112.577 316.959 112.271C317.121 111.966 317.356 111.705 317.642 111.512L322.58 108.168C322.772 108.034 323.001 107.962 323.235 107.962C323.492 107.96 323.741 108.043 323.946 108.197C324.15 108.352 324.298 108.569 324.366 108.816L332.38 137.161C332.507 137.646 332.794 138.075 333.194 138.378C333.594 138.682 334.084 138.843 334.586 138.836C334.895 138.836 335.201 138.775 335.486 138.657C335.771 138.538 336.03 138.365 336.248 138.146C336.461 137.933 336.628 137.678 336.74 137.399C336.853 137.12 336.908 136.821 336.904 136.52L336.697 99.5246C336.697 99.1779 336.781 98.8364 336.944 98.53C337.106 98.2236 337.341 97.9616 337.628 97.7669L343.524 93.7344C343.726 93.5945 343.968 93.5221 344.214 93.5276C344.525 93.5276 344.824 93.6509 345.045 93.8704C345.266 94.09 345.391 94.388 345.393 94.6994V181.524C345.393 182.087 345.169 182.627 344.771 183.026C344.372 183.424 343.832 183.647 343.269 183.647H336.869Z" fill="url(#paint3_linear)"/>
<path d="M299.154 183.647C298.534 183.647 297.939 183.401 297.501 182.963C297.062 182.524 296.816 181.93 296.816 181.31V126.414C296.816 126.035 296.908 125.662 297.085 125.327C297.261 124.992 297.517 124.705 297.83 124.491L305.202 119.459C305.404 119.316 305.644 119.237 305.891 119.231C306.232 119.231 306.559 119.366 306.801 119.607C307.042 119.847 307.179 120.173 307.181 120.514V181.31C307.181 181.93 306.935 182.524 306.496 182.963C306.058 183.401 305.463 183.647 304.843 183.647H299.154Z" fill="url(#paint4_linear)"/>
<path d="M330.793 76.5226L301.078 56.2226C300.785 56.0222 300.444 55.9053 300.09 55.8843C299.736 55.8633 299.383 55.9391 299.069 56.1035C298.755 56.2679 298.491 56.5147 298.307 56.8175C298.123 57.1202 298.024 57.4674 298.023 57.8218C298.092 59.0307 298.421 60.2105 298.988 61.281C299.554 62.3514 300.345 63.2875 301.305 64.0255L302.602 64.9354C303.464 65.5237 304.169 66.3135 304.656 67.236C305.143 68.1585 305.398 69.186 305.398 70.2293C305.398 71.2725 305.143 72.3 304.656 73.2225C304.169 74.1451 303.464 74.9348 302.602 75.5231L275.817 93.8862C273.288 95.6266 270.397 96.7719 267.362 97.2362V87.6825C267.375 86.9053 267.101 86.1507 266.592 85.5631C266.083 84.9755 265.375 84.5962 264.603 84.4979C264.176 84.4556 263.745 84.503 263.338 84.6372C262.93 84.7713 262.556 84.9891 262.237 85.2767C261.919 85.5643 261.665 85.9152 261.49 86.307C261.316 86.6988 261.225 87.1227 261.224 87.5515V97.2776C258.136 96.8201 255.194 95.6598 252.625 93.8862L225.957 75.5093C225.095 74.921 224.39 74.1313 223.902 73.2087C223.415 72.2862 223.16 71.2587 223.16 70.2155C223.16 69.1722 223.415 68.1448 223.902 67.2222C224.39 66.2997 225.095 65.51 225.957 64.9216L227.274 64.0255C228.233 63.2862 229.021 62.3497 229.586 61.2794C230.152 60.2091 230.48 59.03 230.55 57.8218C230.547 57.4685 230.449 57.1226 230.265 56.8209C230.081 56.5193 229.818 56.2732 229.505 56.109C229.192 55.9448 228.841 55.8687 228.488 55.8887C228.135 55.9087 227.794 56.0241 227.502 56.2226L197.779 76.5226C196.917 77.111 196.212 77.9007 195.725 78.8232C195.237 79.7458 194.982 80.7732 194.982 81.8165C194.982 82.8597 195.237 83.8872 195.725 84.8098C196.212 85.7323 196.917 86.522 197.779 87.1104L260.652 130.054C261.722 130.788 262.989 131.181 264.286 131.181C265.584 131.181 266.851 130.788 267.921 130.054L330.793 87.1104C331.655 86.522 332.361 85.7323 332.848 84.8098C333.335 83.8872 333.59 82.8597 333.59 81.8165C333.59 80.7732 333.335 79.7458 332.848 78.8232C332.361 77.9007 331.655 77.111 330.793 76.5226ZM252.776 108.803C252.315 109.595 251.686 110.277 250.935 110.802C249.863 111.533 248.595 111.924 247.297 111.924C245.999 111.924 244.732 111.533 243.66 110.802L208.661 86.8967C207.806 86.3145 207.111 85.5264 206.641 84.6049C206.171 83.6835 205.941 82.6585 205.972 81.6246C206.003 80.5908 206.294 79.5813 206.818 78.6896C207.342 77.7979 208.083 77.0526 208.972 76.5226L209.323 76.3158C210.373 75.6907 211.58 75.378 212.802 75.4147C214.023 75.4513 215.209 75.8357 216.22 76.5226L250.908 100.214C252.237 101.153 253.165 102.558 253.506 104.149C253.848 105.74 253.577 107.402 252.749 108.803H252.776ZM267.948 122.41C266.877 123.14 265.61 123.531 264.314 123.531C263.017 123.531 261.751 123.14 260.679 122.41C259.818 121.821 259.112 121.032 258.625 120.109C258.138 119.187 257.883 118.159 257.883 117.116C257.883 116.073 258.138 115.045 258.625 114.123C259.112 113.2 259.818 112.41 260.679 111.822C261.751 111.091 263.017 110.701 264.314 110.701C265.61 110.701 266.877 111.091 267.948 111.822C268.808 112.413 269.512 113.204 269.997 114.128C270.482 115.052 270.734 116.08 270.731 117.123C270.728 118.166 270.471 119.193 269.981 120.114C269.491 121.036 268.784 121.824 267.921 122.41H267.948ZM319.67 87.0897L284.947 110.809C283.875 111.54 282.607 111.931 281.31 111.931C280.012 111.931 278.744 111.54 277.672 110.809C276.919 110.285 276.29 109.603 275.83 108.81C275.002 107.409 274.732 105.747 275.073 104.156C275.414 102.565 276.342 101.16 277.672 100.221L312.339 76.5433C313.415 75.8122 314.686 75.4213 315.987 75.4213C317.288 75.4213 318.559 75.8122 319.635 76.5433C320.493 77.1306 321.194 77.9179 321.678 78.837C322.162 79.7562 322.415 80.7795 322.414 81.8183C322.413 82.8571 322.159 83.8801 321.674 84.7986C321.189 85.7172 320.486 86.5036 319.628 87.0897H319.67Z" fill="black"/>
<path d="M339.021 41.4987H296.657C295.608 41.4989 294.573 41.741 293.633 42.206C292.693 42.6711 291.873 43.3466 291.237 44.1801L282.561 55.595C281.751 56.6658 280.704 57.5343 279.501 58.1323C278.299 58.7303 276.974 59.0415 275.631 59.0415H267.355V44.9452C271.003 45.3378 274.542 46.4308 277.775 48.1643C278.411 48.5347 279.152 48.6843 279.882 48.5895C280.612 48.4947 281.29 48.161 281.81 47.6404C282.133 47.2923 282.373 46.8756 282.512 46.4216C282.652 45.9676 282.686 45.488 282.614 45.0186C282.542 44.5493 282.364 44.1024 282.095 43.7113C281.825 43.3201 281.471 42.995 281.058 42.7601C278.973 41.6212 276.778 40.6974 274.507 40.0029C277.413 37.8495 279.567 34.8347 280.66 31.3873C281.754 27.9399 281.732 24.2356 280.598 20.8014C279.463 17.3673 277.274 14.3781 274.342 12.2593C271.41 10.1405 267.884 9 264.266 9C260.647 9 257.121 10.1405 254.189 12.2593C251.257 14.3781 249.068 17.3673 247.934 20.8014C246.799 24.2356 246.777 27.9399 247.871 31.3873C248.964 34.8347 251.118 37.8495 254.025 40.0029C251.853 40.6639 249.751 41.5366 247.749 42.6085C247.001 42.9811 246.422 43.6246 246.131 44.4082C245.841 45.1918 245.859 46.0567 246.184 46.827C246.369 47.2204 246.633 47.5714 246.96 47.8582C247.286 48.145 247.669 48.3614 248.083 48.494C248.497 48.6266 248.934 48.6725 249.366 48.6288C249.799 48.5851 250.218 48.4528 250.597 48.2401C253.89 46.457 257.5 45.3375 261.224 44.9452V59.0484H252.949C251.606 59.0468 250.282 58.7349 249.079 58.1371C247.877 57.5392 246.829 56.6715 246.018 55.6019L237.343 44.187C236.707 43.3505 235.886 42.6726 234.945 42.2062C234.003 41.7398 232.966 41.4976 231.915 41.4987H189.552C189.186 41.4832 188.829 41.6135 188.559 41.8611C188.29 42.1086 188.13 42.4531 188.114 42.8187C188.098 43.1843 188.229 43.5412 188.477 43.8107C188.724 44.0802 189.069 44.2404 189.435 44.2559L226.888 47.0476C227.854 47.1314 228.79 47.4208 229.635 47.8964C230.479 48.3719 231.212 49.0227 231.784 49.8048L241.225 62.5432C242.035 63.6343 243.09 64.5206 244.304 65.1311C245.518 65.7415 246.859 66.0592 248.218 66.0587H261.224V67.1891C261.224 68.0045 261.548 68.7864 262.125 69.363C262.702 69.9395 263.484 70.2634 264.3 70.2634C265.116 70.2634 265.898 69.9395 266.475 69.363C267.052 68.7864 267.376 68.0045 267.376 67.1891V66.0587H280.375C281.735 66.0603 283.076 65.7431 284.29 65.1325C285.505 64.522 286.559 63.6351 287.368 62.5432L296.802 49.8255C297.375 49.044 298.108 48.3937 298.952 47.9182C299.797 47.4427 300.733 47.1529 301.698 47.0683L339.152 44.3042C339.524 44.2868 339.874 44.1224 340.125 43.847C340.376 43.5717 340.507 43.208 340.49 42.8359C340.472 42.4639 340.308 42.114 340.032 41.8632C339.757 41.6125 339.393 41.4813 339.021 41.4987ZM264.293 37.1354C262.139 37.1313 260.034 36.4891 258.245 35.2899C256.456 34.0907 255.063 32.3883 254.241 30.3979C253.42 28.4074 253.207 26.2183 253.63 24.107C254.053 21.9957 255.092 20.057 256.617 18.536C258.141 17.0149 260.083 15.9797 262.196 15.5611C264.309 15.1425 266.499 15.3594 268.488 16.1843C270.478 17.0093 272.179 18.4052 273.375 20.1958C274.571 21.9864 275.21 24.0912 275.21 26.2444C275.212 27.6781 274.931 29.0982 274.383 30.4233C273.835 31.7484 273.031 32.9524 272.017 33.9666C271.003 34.9807 269.799 35.7851 268.474 36.3335C267.148 36.882 265.728 37.1639 264.293 37.163V37.1354Z" fill="black"/>
<path d="M254.328 82.9879C256.585 81.023 259.454 79.9023 262.445 79.8171H264.017C267.852 79.8171 271.472 80.7684 274.251 83.0155C275.174 83.7419 276.238 84.2675 277.376 84.5583C278.514 84.8491 279.7 84.8989 280.858 84.7043C286.127 84.015 289.52 78.5971 289.099 73.3652C289.055 72.9688 288.927 72.5862 288.724 72.2426C288.522 71.899 288.248 71.6022 287.923 71.3718C287.597 71.1413 287.226 70.9823 286.835 70.9053C286.443 70.8283 286.04 70.8351 285.651 70.9251L272.755 73.6134C271.086 73.9635 269.385 74.1391 267.679 74.1372H260.845C259.137 74.1388 257.434 73.9632 255.763 73.6134L242.867 70.9251C242.478 70.8339 242.074 70.8263 241.682 70.9028C241.29 70.9794 240.919 71.1382 240.593 71.3689C240.267 71.5996 239.993 71.8968 239.791 72.241C239.589 72.5851 239.462 72.9683 239.418 73.3652C238.991 78.5971 242.391 84.0288 247.659 84.7043C248.829 84.9045 250.028 84.8551 251.178 84.5593C252.327 84.2635 253.401 83.728 254.328 82.9879Z" fill="url(#paint5_linear)"/>
<path d="M264.286 32.3726C267.665 32.3726 270.403 29.6414 270.403 26.2722C270.403 22.9031 267.665 20.1719 264.286 20.1719C260.908 20.1719 258.169 22.9031 258.169 26.2722C258.169 29.6414 260.908 32.3726 264.286 32.3726Z" fill="url(#paint6_linear)"/>
<defs>
<linearGradient id="paint0_linear" x1="196.841" y1="183.612" x2="196.841" y2="94.8643" gradientUnits="userSpaceOnUse">
<stop stop-color="#9C0A0E"/>
<stop offset="0.3" stop-color="#C41D1E"/>
<stop offset="0.57" stop-color="#E22C2A"/>
<stop offset="0.72" stop-color="#EE312F"/>
</linearGradient>
<linearGradient id="paint1_linear" x1="9556.16" y1="28433.9" x2="9556.16" y2="23147.9" gradientUnits="userSpaceOnUse">
<stop stop-color="#9C0A0E"/>
<stop offset="0.3" stop-color="#C41D1E"/>
<stop offset="0.57" stop-color="#E22C2A"/>
<stop offset="0.72" stop-color="#EE312F"/>
</linearGradient>
<linearGradient id="paint2_linear" x1="11005.5" y1="24211.4" x2="11005.5" y2="20376" gradientUnits="userSpaceOnUse">
<stop stop-color="#9C0A0E"/>
<stop offset="0.3" stop-color="#C41D1E"/>
<stop offset="0.57" stop-color="#E22C2A"/>
<stop offset="0.72" stop-color="#EE312F"/>
</linearGradient>
<linearGradient id="paint3_linear" x1="13430.7" y1="42289.6" x2="13430.7" y2="30510.9" gradientUnits="userSpaceOnUse">
<stop stop-color="#9C0A0E"/>
<stop offset="0.3" stop-color="#C41D1E"/>
<stop offset="0.57" stop-color="#E22C2A"/>
<stop offset="0.72" stop-color="#EE312F"/>
</linearGradient>
<linearGradient id="paint4_linear" x1="4599.66" y1="30279.9" x2="4599.66" y2="24260.3" gradientUnits="userSpaceOnUse">
<stop stop-color="#9C0A0E"/>
<stop offset="0.3" stop-color="#C41D1E"/>
<stop offset="0.57" stop-color="#E22C2A"/>
<stop offset="0.72" stop-color="#EE312F"/>
</linearGradient>
<linearGradient id="paint5_linear" x1="264.286" y1="84.7939" x2="264.286" y2="70.863" gradientUnits="userSpaceOnUse">
<stop offset="0.3" stop-color="#EE312F"/>
<stop offset="0.42" stop-color="#E92E2D"/>
<stop offset="0.58" stop-color="#D92727"/>
<stop offset="0.75" stop-color="#C01B1C"/>
<stop offset="0.93" stop-color="#9C0A0E"/>
</linearGradient>
<linearGradient id="paint6_linear" x1="4667.75" y1="3055.34" x2="4667.75" y2="2839.27" gradientUnits="userSpaceOnUse">
<stop offset="0.3" stop-color="#EE312F"/>
<stop offset="0.42" stop-color="#E92E2D"/>
<stop offset="0.58" stop-color="#D92727"/>
<stop offset="0.75" stop-color="#C01B1C"/>
<stop offset="0.93" stop-color="#9C0A0E"/>
</linearGradient>
</defs>
</svg>
