<svg width="440" height="440" viewBox="0 0 440 440" fill="none" xmlns="http://www.w3.org/2000/svg">
<path d="M93.5064 366.579C98.4931 366.579 100.232 368.881 100.232 372.68V375.581C100.232 379.391 98.4931 381.682 93.5064 381.682H90.2241V386.701H84.0742V366.579H93.5064ZM90.2241 376.64H92.4469C93.6907 376.64 94.0822 376.157 94.0822 375.155V373.072C94.0822 372.082 93.6907 371.598 92.4469 371.598H90.2241V376.64Z" fill="#010101"/>
<path d="M108.513 380.358V372.921C108.513 369.054 111.035 366.279 116.667 366.279C122.298 366.279 124.82 369.054 124.82 372.921V380.358C124.82 384.226 122.298 387 116.667 387C111.035 387 108.513 384.226 108.513 380.358ZM118.613 372.921C118.613 371.931 118.037 371.298 116.667 371.298C115.296 371.298 114.72 371.931 114.72 372.921V380.358C114.72 381.348 115.296 381.981 116.667 381.981C118.037 381.981 118.613 381.348 118.613 380.358V372.921Z" fill="#010101"/>
<path d="M133.596 366.579H139.746V386.701H133.596V366.579Z" fill="#010101"/>
<path d="M148.913 366.579H155.547L160.879 376.606V366.579H166.752V386.701H160.142L154.787 376.64V386.666H148.913V366.579Z" fill="#010101"/>
<path d="M179.87 371.598H175.056V366.579H190.938V371.598H186.066V386.701H179.928L179.87 371.598Z" fill="#010101"/>
<path d="M211.333 380.358V372.921C211.333 369.054 213.856 366.279 219.487 366.279C225.119 366.279 227.641 369.054 227.641 372.921V380.358C227.641 384.226 225.119 387 219.487 387C213.856 387 211.333 384.226 211.333 380.358ZM221.434 372.921C221.434 371.931 220.858 371.298 219.487 371.298C218.117 371.298 217.541 371.931 217.541 372.921V380.358C217.541 381.348 218.117 381.981 219.487 381.981C220.858 381.981 221.434 381.348 221.434 380.358V372.921Z" fill="#010101"/>
<path d="M236.371 386.701V366.579H250.099V371.506H242.521V374.591H249.431V379.506H242.521V386.701H236.371Z" fill="#010101"/>
<path d="M270.645 385.918L271.646 381.256C273.563 381.832 275.553 382.131 277.555 382.143C279.132 382.143 279.593 381.901 279.593 380.842C279.593 379.783 279.432 379.599 276.852 379.207C271.946 378.447 270.76 377.607 270.76 372.83C270.76 367.788 272.833 366.28 278.338 366.28C280.432 366.238 282.522 366.494 284.545 367.04L283.912 371.805C282.191 371.416 280.435 371.204 278.672 371.172C277.186 371.172 276.91 371.379 276.91 372.266C276.91 373.152 276.967 373.348 279.524 373.831C284.799 374.833 285.731 375.915 285.731 380.381C285.731 384.986 283.543 387 277.981 387C275.496 386.997 273.024 386.633 270.645 385.918Z" fill="#010101"/>
<path d="M312.174 386.701H305.748L305.057 383.409H299.874L299.183 386.701H292.757L298.423 366.579H306.485L312.174 386.701ZM300.911 378.516H304.043L302.488 371.172L300.911 378.516Z" fill="#010101"/>
<path d="M320.235 366.579H326.385V381.682H333.629V386.701H320.235V366.579Z" fill="#010101"/>
<path d="M342.048 366.579H355.868V371.506H348.233V373.889H355.235V378.816H348.233V381.774H355.868V386.701H342.048V366.579Z" fill="#010101"/>
<path d="M117.473 344.604C116.623 344.604 115.807 344.267 115.205 343.667C114.603 343.067 114.263 342.254 114.26 341.404V296.693C114.254 294.798 113.496 292.983 112.153 291.645C110.811 290.308 108.992 289.556 107.096 289.556C105.603 289.562 104.173 290.157 103.117 291.211C102.06 292.265 101.462 293.693 101.453 295.185V341.404C101.447 342.253 101.106 343.065 100.505 343.664C99.903 344.263 99.0892 344.601 98.24 344.604H87.2991C86.4489 344.604 85.6334 344.267 85.0311 343.667C84.4289 343.067 84.089 342.254 84.0859 341.404V201.321C84.092 200.015 84.6149 198.763 85.5404 197.84C86.466 196.917 87.7192 196.398 89.0266 196.395C90.0202 196.402 90.9881 196.711 91.8021 197.281L117.761 215.112C129.22 222.928 131.466 225.138 131.466 233.035V265.854C131.466 272.197 129.796 276.215 126.191 278.517C125.691 278.836 125.284 279.283 125.013 279.81C124.742 280.338 124.616 280.929 124.648 281.521C124.673 282.106 124.854 282.674 125.172 283.165C125.49 283.657 125.933 284.055 126.456 284.319C130.072 286.126 131.615 289.338 131.615 295.059V341.415C131.612 342.263 131.274 343.075 130.674 343.675C130.075 344.274 129.262 344.612 128.414 344.615L117.473 344.604ZM108.144 227.429C106.385 227.42 104.693 228.108 103.439 229.341C102.185 230.575 101.471 232.255 101.453 234.014V268.226C101.447 269.048 101.61 269.862 101.931 270.619C102.252 271.375 102.726 272.058 103.322 272.624C103.917 273.191 104.623 273.629 105.395 273.912C106.167 274.195 106.989 274.316 107.81 274.269C109.35 274.289 110.849 273.772 112.048 272.807C112.712 272.253 113.241 271.556 113.598 270.769C113.955 269.982 114.13 269.124 114.11 268.26V232.575C114.085 231.844 113.867 231.133 113.477 230.514C112.946 229.567 112.17 228.78 111.229 228.237C110.289 227.694 109.219 227.415 108.133 227.429H108.144Z" fill="url(#paint0_linear)"/>
<path d="M164.323 345.558C152.219 345.558 146.587 339.941 146.587 327.877V256.99C146.593 255.376 146.917 253.779 147.541 252.29C148.165 250.801 149.076 249.45 150.223 248.314C151.369 247.177 152.729 246.278 154.223 245.667C155.718 245.056 157.318 244.745 158.933 244.753C161.403 244.756 163.813 245.511 165.843 246.917L184.385 259.58C187.868 261.956 190.717 265.147 192.686 268.874C194.655 272.601 195.684 276.753 195.683 280.968V326.334C195.683 328.864 195.183 331.368 194.213 333.704C193.243 336.041 191.821 338.162 190.029 339.948C188.237 341.734 186.11 343.149 183.77 344.112C181.43 345.074 178.923 345.566 176.392 345.558H164.323ZM168.365 266.475C165.808 266.475 163.954 268.72 163.954 271.816V324.113C164.028 325.96 164.815 327.708 166.149 328.989C167.483 330.27 169.262 330.986 171.112 330.986C172.962 330.986 174.74 330.27 176.074 328.989C177.409 327.708 178.195 325.96 178.269 324.113V276.398C178.269 273.67 177.624 271.563 174.411 269.491L170.496 266.982L170.369 266.924C169.741 266.633 169.057 266.48 168.365 266.475Z" fill="url(#paint1_linear)"/>
<path d="M246.022 344.661C245.511 344.661 245.005 344.552 244.54 344.339C244.075 344.126 243.661 343.816 243.327 343.429L232.962 328.211C230.831 324.942 225.211 326.508 225.384 330.514L225.453 341.093C225.459 341.563 225.372 342.029 225.197 342.465C225.021 342.901 224.761 343.298 224.431 343.634C224.101 343.969 223.708 344.235 223.275 344.417C222.842 344.6 222.376 344.694 221.906 344.696H214.558C213.618 344.696 212.717 344.324 212.05 343.662C211.383 343 211.006 342.101 211 341.162L210.758 277.953C210.755 277.08 211.043 276.231 211.577 275.541C212.111 274.85 212.859 274.357 213.705 274.139C214.55 273.922 215.444 273.991 216.245 274.338C217.046 274.685 217.709 275.288 218.129 276.053L238.617 313.396C239.046 313.958 239.637 314.374 240.31 314.589C240.983 314.805 241.706 314.808 242.381 314.6C243.057 314.392 243.652 313.982 244.087 313.425C244.521 312.868 244.775 312.191 244.813 311.485L244.49 268.789C244.478 268.208 244.614 267.633 244.883 267.118C245.153 266.603 245.549 266.164 246.033 265.843L255.823 259.154C256.116 258.954 256.458 258.837 256.812 258.816C257.167 258.795 257.52 258.871 257.835 259.035C258.15 259.199 258.414 259.446 258.599 259.749C258.784 260.052 258.883 260.4 258.886 260.755V341.116C258.886 342.056 258.512 342.958 257.847 343.623C257.182 344.288 256.28 344.661 255.339 344.661H246.022Z" fill="url(#paint2_linear)"/>
<path d="M341.691 344.661C340.875 344.653 340.086 344.365 339.457 343.845C338.828 343.326 338.397 342.606 338.236 341.806L329.84 299.513C329.685 298.635 329.221 297.842 328.533 297.274C327.845 296.707 326.978 296.403 326.086 296.416C325.042 296.418 324.04 296.832 323.299 297.568C322.945 297.927 322.668 298.354 322.482 298.822C322.296 299.291 322.206 299.792 322.216 300.296L322.493 341.058C322.494 341.525 322.404 341.988 322.226 342.42C322.049 342.852 321.788 343.245 321.459 343.576C321.129 343.908 320.738 344.171 320.307 344.351C319.875 344.531 319.413 344.625 318.946 344.626H311.586C310.645 344.626 309.741 344.253 309.074 343.588C308.407 342.924 308.031 342.022 308.028 341.081V227.118C308.028 226.541 308.17 225.972 308.441 225.463C308.712 224.953 309.104 224.517 309.583 224.194L317.829 218.611C318.149 218.386 318.531 218.265 318.923 218.266C319.351 218.263 319.768 218.401 320.109 218.659C320.451 218.917 320.697 219.281 320.811 219.693L334.194 267.028C334.407 267.839 334.886 268.554 335.554 269.061C336.222 269.568 337.041 269.837 337.879 269.825C338.395 269.825 338.905 269.724 339.382 269.526C339.858 269.329 340.291 269.039 340.655 268.674C341.009 268.317 341.288 267.892 341.476 267.426C341.664 266.959 341.757 266.46 341.749 265.957L341.403 204.176C341.403 203.597 341.544 203.026 341.815 202.515C342.086 202.003 342.479 201.565 342.958 201.24L352.805 194.506C353.143 194.272 353.546 194.151 353.956 194.161C354.477 194.161 354.976 194.366 355.345 194.733C355.714 195.1 355.923 195.598 355.926 196.118V341.115C355.926 342.056 355.552 342.957 354.887 343.622C354.222 344.287 353.319 344.661 352.379 344.661H341.691Z" fill="url(#paint3_linear)"/>
<path d="M278.706 344.661C277.671 344.661 276.678 344.25 275.946 343.518C275.214 342.786 274.802 341.794 274.802 340.759V249.082C274.802 248.449 274.956 247.826 275.251 247.267C275.546 246.707 275.973 246.228 276.495 245.87L288.807 237.467C289.144 237.229 289.545 237.097 289.958 237.087C290.527 237.087 291.073 237.312 291.477 237.713C291.881 238.115 292.109 238.659 292.112 239.228V340.759C292.112 341.794 291.701 342.786 290.968 343.518C290.236 344.25 289.243 344.661 288.208 344.661H278.706Z" fill="url(#paint4_linear)"/>
<path d="M331.545 165.762L281.92 131.861C281.431 131.526 280.861 131.331 280.27 131.296C279.679 131.261 279.089 131.387 278.565 131.662C278.04 131.936 277.601 132.349 277.293 132.854C276.985 133.36 276.821 133.94 276.818 134.531C276.934 136.55 277.484 138.521 278.43 140.308C279.376 142.096 280.696 143.659 282.3 144.892L284.465 146.411C285.904 147.394 287.082 148.712 287.896 150.253C288.71 151.794 289.135 153.51 289.135 155.252C289.135 156.994 288.71 158.71 287.896 160.251C287.082 161.791 285.904 163.11 284.465 164.093L239.734 194.759C235.51 197.665 230.683 199.578 225.614 200.354V184.399C225.636 183.101 225.178 181.841 224.328 180.859C223.478 179.878 222.296 179.245 221.008 179.08C220.295 179.01 219.575 179.089 218.894 179.313C218.214 179.537 217.588 179.901 217.056 180.381C216.525 180.861 216.1 181.447 215.808 182.102C215.517 182.756 215.366 183.464 215.365 184.18V200.423C210.207 199.659 205.294 197.721 201.003 194.759L156.468 164.07C155.029 163.087 153.851 161.768 153.037 160.228C152.223 158.687 151.798 156.971 151.798 155.229C151.798 153.487 152.223 151.771 153.037 150.23C153.851 148.689 155.029 147.371 156.468 146.388L158.668 144.892C160.269 143.657 161.586 142.093 162.529 140.306C163.473 138.518 164.022 136.549 164.138 134.531C164.134 133.941 163.969 133.364 163.662 132.86C163.355 132.356 162.917 131.945 162.394 131.671C161.871 131.397 161.284 131.27 160.695 131.303C160.105 131.336 159.536 131.529 159.048 131.861L109.411 165.762C107.972 166.744 106.794 168.063 105.98 169.604C105.166 171.144 104.741 172.86 104.741 174.603C104.741 176.345 105.166 178.061 105.98 179.601C106.794 181.142 107.972 182.461 109.411 183.443L214.409 255.159C216.195 256.385 218.311 257.042 220.478 257.042C222.645 257.042 224.761 256.385 226.547 255.159L331.545 183.443C332.984 182.461 334.162 181.142 334.976 179.601C335.79 178.061 336.215 176.345 336.215 174.603C336.215 172.86 335.79 171.144 334.976 169.604C334.162 168.063 332.984 166.744 331.545 165.762ZM201.257 219.67C200.486 220.992 199.436 222.131 198.182 223.008C196.391 224.229 194.274 224.882 192.107 224.882C189.939 224.882 187.822 224.229 186.032 223.008L127.584 183.086C126.156 182.114 124.996 180.798 124.211 179.259C123.425 177.72 123.041 176.009 123.093 174.282C123.144 172.556 123.63 170.87 124.506 169.381C125.382 167.891 126.619 166.647 128.103 165.762L128.69 165.416C130.443 164.372 132.459 163.85 134.499 163.911C136.539 163.973 138.519 164.615 140.207 165.762L198.136 205.326C200.357 206.894 201.906 209.24 202.476 211.898C203.045 214.555 202.594 217.33 201.211 219.67H201.257ZM226.593 242.393C224.805 243.613 222.69 244.266 220.524 244.266C218.359 244.266 216.243 243.613 214.455 242.393C213.015 241.411 211.838 240.092 211.024 238.551C210.21 237.011 209.785 235.295 209.785 233.552C209.785 231.81 210.21 230.094 211.024 228.554C211.838 227.013 213.015 225.694 214.455 224.712C216.243 223.492 218.359 222.839 220.524 222.839C222.69 222.839 224.805 223.492 226.593 224.712C228.03 225.698 229.205 227.02 230.014 228.563C230.824 230.105 231.245 231.822 231.241 233.565C231.236 235.307 230.806 237.022 229.988 238.56C229.17 240.099 227.989 241.414 226.547 242.393H226.593ZM312.969 183.409L254.982 223.02C253.192 224.24 251.074 224.894 248.907 224.894C246.74 224.894 244.622 224.24 242.832 223.02C241.575 222.146 240.525 221.006 239.757 219.681C238.374 217.341 237.922 214.567 238.492 211.909C239.062 209.252 240.611 206.906 242.832 205.338L300.726 165.796C302.523 164.575 304.646 163.923 306.819 163.923C308.991 163.923 311.114 164.575 312.911 165.796C314.343 166.777 315.514 168.092 316.322 169.627C317.131 171.162 317.553 172.871 317.552 174.606C317.551 176.34 317.126 178.049 316.316 179.583C315.505 181.117 314.332 182.43 312.9 183.409H312.969Z" fill="black"/>
<path d="M345.284 107.273H274.537C272.785 107.273 271.057 107.677 269.487 108.454C267.917 109.231 266.548 110.359 265.485 111.751L250.997 130.814C249.644 132.602 247.895 134.052 245.887 135.051C243.878 136.05 241.666 136.569 239.423 136.569H225.603V113.029C231.695 113.684 237.604 115.509 243.004 118.404C244.066 119.023 245.303 119.273 246.522 119.114C247.741 118.956 248.873 118.399 249.742 117.529C250.281 116.948 250.682 116.252 250.915 115.494C251.148 114.736 251.206 113.935 251.085 113.151C250.964 112.367 250.668 111.621 250.218 110.968C249.768 110.315 249.176 109.772 248.486 109.379C245.005 107.477 241.339 105.935 237.546 104.775C242.4 101.179 245.996 96.1439 247.823 90.3868C249.649 84.6297 249.612 78.4435 247.718 72.7084C245.823 66.9733 242.168 61.9815 237.271 58.4431C232.374 54.9047 226.486 53 220.443 53C214.401 53 208.512 54.9047 203.616 58.4431C198.719 61.9815 195.063 66.9733 193.169 72.7084C191.274 78.4435 191.238 84.6297 193.064 90.3868C194.89 96.1439 198.486 101.179 203.341 104.775C199.713 105.879 196.203 107.336 192.861 109.126C191.611 109.748 190.645 110.823 190.159 112.132C189.674 113.44 189.705 114.885 190.246 116.171C190.555 116.828 190.996 117.414 191.542 117.893C192.088 118.372 192.726 118.734 193.418 118.955C194.109 119.176 194.839 119.253 195.562 119.18C196.284 119.107 196.984 118.886 197.617 118.531C203.115 115.553 209.145 113.684 215.364 113.029V136.581H201.544C199.302 136.578 197.09 136.057 195.082 135.059C193.075 134.06 191.325 132.611 189.97 130.825L175.482 111.762C174.421 110.365 173.05 109.233 171.477 108.454C169.905 107.675 168.173 107.271 166.418 107.273H95.6714C95.0605 107.247 94.4643 107.465 94.014 107.878C93.5637 108.291 93.2961 108.867 93.2701 109.477C93.2442 110.088 93.462 110.684 93.8756 111.134C94.2892 111.584 94.8647 111.851 95.4756 111.877L158.023 116.539C159.635 116.679 161.2 117.163 162.61 117.957C164.02 118.751 165.244 119.838 166.2 121.144L181.966 142.417C183.319 144.239 185.079 145.719 187.107 146.739C189.135 147.758 191.374 148.289 193.644 148.288H215.364V150.176C215.364 151.537 215.906 152.843 216.869 153.806C217.832 154.769 219.139 155.31 220.501 155.31C221.863 155.31 223.17 154.769 224.133 153.806C225.096 152.843 225.637 151.537 225.637 150.176V148.288H247.346C249.617 148.291 251.856 147.761 253.884 146.741C255.912 145.722 257.673 144.241 259.024 142.417L274.779 121.179C275.735 119.873 276.96 118.787 278.37 117.993C279.78 117.199 281.344 116.715 282.956 116.574L345.503 111.958C346.125 111.929 346.709 111.654 347.128 111.195C347.547 110.735 347.766 110.127 347.737 109.506C347.708 108.885 347.434 108.3 346.973 107.882C346.513 107.463 345.906 107.244 345.284 107.273ZM220.489 99.9861C216.892 99.9793 213.377 98.9068 210.389 96.9041C207.402 94.9014 205.075 92.0585 203.703 88.7344C202.331 85.4104 201.975 81.7545 202.681 78.2286C203.387 74.7028 205.123 71.4652 207.669 68.925C210.215 66.3849 213.458 64.656 216.987 63.957C220.515 63.258 224.172 63.6202 227.495 64.9979C230.818 66.3755 233.658 68.7067 235.656 71.697C237.654 74.6872 238.72 78.2023 238.72 81.7981C238.723 84.1925 238.254 86.564 237.339 88.7769C236.424 90.9897 235.081 93.0006 233.388 94.6942C231.695 96.3878 229.684 97.7311 227.47 98.647C225.257 99.563 222.885 100.034 220.489 100.032V99.9861Z" fill="black"/>
<path d="M203.848 176.56C207.616 173.279 212.407 171.407 217.403 171.265H220.029C226.432 171.265 232.478 172.854 237.119 176.606C238.66 177.82 240.437 178.697 242.338 179.183C244.238 179.669 246.218 179.752 248.152 179.427C256.951 178.276 262.617 169.228 261.915 160.49C261.841 159.828 261.628 159.189 261.289 158.616C260.951 158.042 260.494 157.546 259.951 157.161C259.407 156.776 258.787 156.511 258.133 156.382C257.479 156.254 256.806 156.265 256.157 156.415L234.62 160.905C231.833 161.49 228.992 161.783 226.144 161.78H214.731C211.879 161.782 209.035 161.489 206.243 160.905L184.707 156.415C184.058 156.263 183.383 156.251 182.729 156.378C182.074 156.506 181.454 156.771 180.91 157.157C180.365 157.542 179.909 158.038 179.571 158.613C179.233 159.188 179.021 159.828 178.949 160.49C178.235 169.228 183.912 178.299 192.711 179.427C194.665 179.761 196.667 179.679 198.586 179.185C200.506 178.691 202.299 177.796 203.848 176.56Z" fill="url(#paint5_linear)"/>
<path d="M220.478 92.0314C226.12 92.0314 230.693 87.4703 230.693 81.8439C230.693 76.2174 226.12 71.6562 220.478 71.6562C214.836 71.6562 210.263 76.2174 210.263 81.8439C210.263 87.4703 214.836 92.0314 220.478 92.0314Z" fill="url(#paint6_linear)"/>
<defs>
<linearGradient id="paint0_linear" x1="107.845" y1="344.604" x2="107.845" y2="196.395" gradientUnits="userSpaceOnUse">
<stop stop-color="#9C0A0E"/>
<stop offset="0.3" stop-color="#C41D1E"/>
<stop offset="0.57" stop-color="#E22C2A"/>
<stop offset="0.72" stop-color="#EE312F"/>
</linearGradient>
<linearGradient id="paint1_linear" x1="15737.9" y1="47522.6" x2="15737.9" y2="38695" gradientUnits="userSpaceOnUse">
<stop stop-color="#9C0A0E"/>
<stop offset="0.3" stop-color="#C41D1E"/>
<stop offset="0.57" stop-color="#E22C2A"/>
<stop offset="0.72" stop-color="#EE312F"/>
</linearGradient>
<linearGradient id="paint2_linear" x1="18158.3" y1="40471" x2="18158.3" y2="34065.9" gradientUnits="userSpaceOnUse">
<stop stop-color="#9C0A0E"/>
<stop offset="0.3" stop-color="#C41D1E"/>
<stop offset="0.57" stop-color="#E22C2A"/>
<stop offset="0.72" stop-color="#EE312F"/>
</linearGradient>
<linearGradient id="paint3_linear" x1="22208.4" y1="70661.5" x2="22208.4" y2="50991.1" gradientUnits="userSpaceOnUse">
<stop stop-color="#9C0A0E"/>
<stop offset="0.3" stop-color="#C41D1E"/>
<stop offset="0.57" stop-color="#E22C2A"/>
<stop offset="0.72" stop-color="#EE312F"/>
</linearGradient>
<linearGradient id="paint4_linear" x1="7460.55" y1="50605.4" x2="7460.55" y2="40552.6" gradientUnits="userSpaceOnUse">
<stop stop-color="#9C0A0E"/>
<stop offset="0.3" stop-color="#C41D1E"/>
<stop offset="0.57" stop-color="#E22C2A"/>
<stop offset="0.72" stop-color="#EE312F"/>
</linearGradient>
<linearGradient id="paint5_linear" x1="220.478" y1="179.576" x2="220.478" y2="156.312" gradientUnits="userSpaceOnUse">
<stop offset="0.3" stop-color="#EE312F"/>
<stop offset="0.42" stop-color="#E92E2D"/>
<stop offset="0.58" stop-color="#D92727"/>
<stop offset="0.75" stop-color="#C01B1C"/>
<stop offset="0.93" stop-color="#9C0A0E"/>
</linearGradient>
<linearGradient id="paint6_linear" x1="7574.27" y1="5140.39" x2="7574.27" y2="4779.55" gradientUnits="userSpaceOnUse">
<stop offset="0.3" stop-color="#EE312F"/>
<stop offset="0.42" stop-color="#E92E2D"/>
<stop offset="0.58" stop-color="#D92727"/>
<stop offset="0.75" stop-color="#C01B1C"/>
<stop offset="0.93" stop-color="#9C0A0E"/>
</linearGradient>
</defs>
</svg>
