<svg width="150" height="150" viewBox="0 0 150 150" fill="none" xmlns="http://www.w3.org/2000/svg">
<path d="M44.7021 110.109C45.8966 110.109 46.3131 110.66 46.3131 111.57V112.265C46.3131 113.178 45.8966 113.726 44.7021 113.726H43.916V114.929H42.4429V110.109H44.7021ZM43.916 112.519H44.4484C44.7463 112.519 44.8401 112.403 44.8401 112.163V111.664C44.8401 111.427 44.7463 111.311 44.4484 111.311H43.916V112.519Z" fill="#010101"/>
<path d="M48.2965 113.409V111.628C48.2965 110.702 48.9006 110.037 50.2495 110.037C51.5984 110.037 52.2025 110.702 52.2025 111.628V113.409C52.2025 114.336 51.5984 115 50.2495 115C48.9006 115 48.2965 114.336 48.2965 113.409ZM50.7157 111.628C50.7157 111.391 50.5777 111.239 50.2495 111.239C49.9212 111.239 49.7833 111.391 49.7833 111.628V113.409C49.7833 113.646 49.9212 113.798 50.2495 113.798C50.5777 113.798 50.7157 113.646 50.7157 113.409V111.628Z" fill="#010101"/>
<path d="M54.3044 110.109H55.7775V114.929H54.3044V110.109Z" fill="#010101"/>
<path d="M57.9732 110.109H59.5621L60.8393 112.51V110.109H62.2461V114.929H60.6627L59.38 112.519V114.92H57.9732V110.109Z" fill="#010101"/>
<path d="M65.3881 111.311H64.235V110.109H68.039V111.311H66.8721V114.929H65.4019L65.3881 111.311Z" fill="#010101"/>
<path d="M72.9243 113.409V111.628C72.9243 110.702 73.5284 110.037 74.8773 110.037C76.2262 110.037 76.8303 110.702 76.8303 111.628V113.409C76.8303 114.336 76.2262 115 74.8773 115C73.5284 115 72.9243 114.336 72.9243 113.409ZM75.3435 111.628C75.3435 111.391 75.2055 111.239 74.8773 111.239C74.549 111.239 74.4111 111.391 74.4111 111.628V113.409C74.4111 113.646 74.549 113.798 74.8773 113.798C75.2055 113.798 75.3435 113.646 75.3435 113.409V111.628Z" fill="#010101"/>
<path d="M78.9212 114.929V110.109H82.2093V111.289H80.3942V112.028H82.0493V113.205H80.3942V114.929H78.9212Z" fill="#010101"/>
<path d="M87.1305 114.741L87.3704 113.624C87.8296 113.762 88.3061 113.834 88.7856 113.837C89.1635 113.837 89.2738 113.779 89.2738 113.525C89.2738 113.271 89.2352 113.227 88.6173 113.134C87.4422 112.952 87.158 112.75 87.158 111.606C87.158 110.398 87.6546 110.037 88.9731 110.037C89.4749 110.027 89.9755 110.088 90.46 110.219L90.3082 111.361C89.8962 111.267 89.4756 111.217 89.0531 111.209C88.6973 111.209 88.6311 111.259 88.6311 111.471C88.6311 111.683 88.6449 111.73 89.2573 111.846C90.5206 112.086 90.7441 112.345 90.7441 113.415C90.7441 114.518 90.22 115 88.8876 115C88.2924 114.999 87.7005 114.912 87.1305 114.741Z" fill="#010101"/>
<path d="M97.0776 114.929H95.5384L95.3729 114.14H94.1316L93.9661 114.929H92.4268L93.784 110.109H95.7149L97.0776 114.929ZM94.3798 112.968H95.1301L94.7577 111.209L94.3798 112.968Z" fill="#010101"/>
<path d="M99.0085 110.109H100.482V113.726H102.217V114.929H99.0085V110.109Z" fill="#010101"/>
<path d="M104.233 110.109H107.543V111.289H105.714V111.86H107.392V113.04H105.714V113.748H107.543V114.929H104.233V110.109Z" fill="#010101"/>
<path d="M50.4425 104.845C50.2389 104.845 50.0436 104.764 49.8993 104.621C49.7551 104.477 49.6737 104.282 49.6729 104.078V93.3694C49.6715 92.9155 49.49 92.4807 49.1684 92.1603C48.8468 91.8398 48.4112 91.6599 47.9571 91.6599C47.5996 91.6614 47.257 91.8038 47.0039 92.0562C46.7509 92.3087 46.6077 92.6508 46.6055 93.0082V104.078C46.604 104.282 46.5224 104.476 46.3783 104.62C46.2342 104.763 46.0393 104.844 45.8359 104.845H43.2153C43.0117 104.845 42.8163 104.764 42.6721 104.621C42.5278 104.477 42.4464 104.282 42.4457 104.078V70.5258C42.4471 70.2128 42.5724 69.913 42.7941 69.692C43.0158 69.4709 43.3159 69.3464 43.6291 69.3457C43.8671 69.3475 44.0989 69.4216 44.2939 69.558L50.5115 73.8289C53.2562 75.7011 53.7941 76.2305 53.7941 78.1219V85.9828C53.7941 87.502 53.3941 88.4643 52.5307 89.0157C52.4109 89.0922 52.3135 89.1991 52.2485 89.3256C52.1836 89.452 52.1534 89.5934 52.1611 89.7354C52.1672 89.8754 52.2105 90.0114 52.2866 90.1291C52.3627 90.2469 52.4689 90.3423 52.5942 90.4054C53.4603 90.8383 53.83 91.6075 53.83 92.9779V104.081C53.8292 104.284 53.7482 104.479 53.6046 104.622C53.4609 104.766 53.2663 104.847 53.0631 104.848L50.4425 104.845ZM48.2082 76.7792C47.7867 76.777 47.3815 76.9416 47.0812 77.2372C46.7809 77.5327 46.6099 77.9351 46.6055 78.3563V86.5508C46.604 86.7476 46.643 86.9427 46.72 87.1239C46.797 87.3051 46.9103 87.4687 47.053 87.6043C47.1958 87.74 47.3648 87.845 47.5497 87.9127C47.7347 87.9805 47.9315 88.0096 48.1282 87.9983C48.497 88.0031 48.8559 87.8793 49.1433 87.6481C49.3021 87.5153 49.429 87.3484 49.5145 87.1599C49.5999 86.9713 49.6418 86.766 49.6371 86.559V78.0117C49.6312 77.8366 49.5788 77.6663 49.4853 77.5181C49.3583 77.2912 49.1723 77.1028 48.947 76.9727C48.7217 76.8427 48.4655 76.7758 48.2054 76.7792H48.2082Z" fill="url(#paint0_linear)"/>
<path d="M61.6641 105.074C58.7649 105.074 57.416 103.729 57.416 100.839V83.8602C57.4174 83.4736 57.4951 83.0911 57.6445 82.7345C57.7939 82.378 58.0122 82.0543 58.2868 81.7821C58.5615 81.5099 58.8871 81.2945 59.245 81.1482C59.603 81.0018 59.9863 80.9274 60.3731 80.9292C60.9647 80.9299 61.542 81.1107 62.0282 81.4476L66.4694 84.4805C67.3036 85.0497 67.9861 85.8139 68.4577 86.7067C68.9293 87.5995 69.1757 88.5939 69.1754 89.6035V100.47C69.1754 101.076 69.0558 101.675 68.8235 102.235C68.5911 102.795 68.2505 103.303 67.8213 103.73C67.3921 104.158 66.8826 104.497 66.3221 104.728C65.7616 104.958 65.1611 105.076 64.555 105.074H61.6641ZM62.6323 86.1321C62.0199 86.1321 61.5758 86.6698 61.5758 87.4115V99.9375C61.5935 100.38 61.782 100.799 62.1015 101.106C62.4211 101.412 62.847 101.584 63.2902 101.584C63.7333 101.584 64.1593 101.412 64.4789 101.106C64.7984 100.799 64.9868 100.38 65.0046 99.9375V88.5088C65.0046 87.8554 64.8501 87.3508 64.0805 86.8545L63.1426 86.2534L63.1123 86.2396C62.9618 86.17 62.7981 86.1334 62.6323 86.1321Z" fill="url(#paint1_linear)"/>
<path d="M81.2328 104.859C81.1103 104.859 80.9893 104.833 80.8779 104.782C80.7665 104.731 80.6674 104.657 80.5873 104.564L78.1047 100.919C77.5943 100.136 76.2482 100.511 76.2896 101.47L76.3061 104.004C76.3076 104.117 76.2867 104.229 76.2447 104.333C76.2027 104.437 76.1404 104.533 76.0614 104.613C75.9824 104.693 75.8882 104.757 75.7844 104.801C75.6806 104.844 75.5691 104.867 75.4565 104.867H73.6966C73.4715 104.867 73.2555 104.778 73.0958 104.62C72.9361 104.461 72.8457 104.246 72.8442 104.021L72.7863 88.8808C72.7856 88.6718 72.8547 88.4686 72.9825 88.3032C73.1103 88.1378 73.2896 88.0197 73.4921 87.9675C73.6946 87.9153 73.9087 87.9321 74.1006 88.0151C74.2924 88.0981 74.4512 88.2426 74.5517 88.4259L79.4591 97.3703C79.5618 97.5048 79.7034 97.6046 79.8646 97.6561C80.0258 97.7077 80.199 97.7086 80.3608 97.6587C80.5225 97.6088 80.6651 97.5105 80.7692 97.3771C80.8734 97.2437 80.9341 97.0816 80.9431 96.9126L80.8659 86.6861C80.8631 86.5468 80.8955 86.4091 80.9601 86.2857C81.0247 86.1624 81.1195 86.0573 81.2355 85.9802L83.5803 84.3783C83.6505 84.3303 83.7324 84.3022 83.8173 84.2972C83.9022 84.2922 83.9869 84.3103 84.0623 84.3497C84.1377 84.3891 84.2009 84.4482 84.2453 84.5207C84.2896 84.5933 84.3134 84.6765 84.314 84.7615V104.01C84.314 104.235 84.2245 104.451 84.0652 104.61C83.9058 104.769 83.6897 104.859 83.4644 104.859H81.2328Z" fill="url(#paint2_linear)"/>
<path d="M104.148 104.859C103.952 104.857 103.763 104.788 103.613 104.664C103.462 104.539 103.359 104.367 103.32 104.175L101.309 94.0453C101.272 93.835 101.161 93.6449 100.996 93.509C100.831 93.3731 100.623 93.3003 100.41 93.3036C100.16 93.3039 99.9198 93.403 99.7423 93.5793C99.6577 93.6654 99.5911 93.7676 99.5466 93.8798C99.502 93.992 99.4804 94.112 99.483 94.2327L99.5492 103.996C99.5496 104.108 99.5279 104.219 99.4854 104.322C99.4429 104.426 99.3804 104.52 99.3015 104.599C99.2226 104.679 99.1289 104.742 99.0256 104.785C98.9223 104.828 98.8116 104.85 98.6996 104.851H96.9369C96.7114 104.851 96.495 104.761 96.3352 104.602C96.1754 104.443 96.0853 104.227 96.0846 104.002V76.7051C96.0847 76.5668 96.1187 76.4307 96.1836 76.3086C96.2485 76.1865 96.3424 76.0822 96.457 76.0047L98.432 74.6675C98.5088 74.6136 98.6003 74.5847 98.6941 74.5848C98.7966 74.5841 98.8965 74.6172 98.9783 74.6791C99.0601 74.7409 99.1192 74.8279 99.1465 74.9267L102.352 86.2644C102.403 86.4586 102.518 86.63 102.678 86.7515C102.838 86.8729 103.034 86.9373 103.235 86.9344C103.358 86.9344 103.48 86.9101 103.594 86.8628C103.709 86.8155 103.812 86.7461 103.899 86.6587C103.984 86.5731 104.051 86.4715 104.096 86.3597C104.141 86.248 104.163 86.1284 104.161 86.008L104.079 71.2099C104.079 71.0713 104.112 70.9347 104.177 70.8121C104.242 70.6895 104.336 70.5847 104.451 70.5068L106.81 68.8939C106.89 68.8379 106.987 68.8089 107.085 68.8112C107.21 68.8112 107.33 68.8604 107.418 68.9483C107.506 69.0361 107.556 69.1553 107.557 69.2799V104.01C107.557 104.235 107.468 104.451 107.308 104.61C107.149 104.77 106.933 104.859 106.708 104.859H104.148Z" fill="url(#paint3_linear)"/>
<path d="M89.0615 104.859C88.8135 104.859 88.5756 104.761 88.4003 104.585C88.2249 104.41 88.1264 104.172 88.1264 103.924V81.9658C88.1263 81.8143 88.1632 81.6651 88.2339 81.531C88.3045 81.397 88.4068 81.2822 88.5319 81.1965L91.4807 79.1838C91.5616 79.1268 91.6576 79.0951 91.7565 79.0928C91.8929 79.0928 92.0237 79.1467 92.1203 79.2428C92.217 79.3389 92.2717 79.4694 92.2724 79.6056V103.924C92.2724 104.172 92.1739 104.41 91.9985 104.585C91.8231 104.761 91.5853 104.859 91.3373 104.859H89.0615Z" fill="url(#paint4_linear)"/>
<path d="M101.717 62.0091L89.831 53.8891C89.714 53.809 89.5774 53.7622 89.4359 53.7538C89.2943 53.7454 89.1531 53.7757 89.0275 53.8415C88.9018 53.9073 88.7965 54.006 88.7228 54.1271C88.649 54.2482 88.6097 54.387 88.609 54.5288C88.6369 55.0124 88.7686 55.4843 88.9951 55.9125C89.2217 56.3407 89.5378 56.7151 89.922 57.0103L90.4406 57.3743C90.7854 57.6096 91.0675 57.9255 91.2624 58.2945C91.4574 58.6635 91.5593 59.0745 91.5593 59.4918C91.5593 59.9091 91.4574 60.3201 91.2624 60.6891C91.0675 61.0581 90.7854 61.374 90.4406 61.6093L79.7267 68.9546C78.715 69.6507 77.5588 70.1088 76.3447 70.2946V66.4731C76.35 66.1622 76.2403 65.8604 76.0367 65.6253C75.8331 65.3903 75.5499 65.2386 75.2413 65.1993C75.0706 65.1823 74.8982 65.2013 74.7352 65.255C74.5722 65.3086 74.4222 65.3958 74.2949 65.5108C74.1676 65.6258 74.0658 65.7662 73.996 65.9229C73.9262 66.0796 73.89 66.2492 73.8897 66.4207V70.3111C72.6543 70.1281 71.4774 69.664 70.4499 68.9546L59.7828 61.6038C59.438 61.3685 59.1559 61.0526 58.961 60.6836C58.766 60.3146 58.6641 59.9036 58.6641 59.4863C58.6641 59.069 58.766 58.658 58.961 58.289C59.1559 57.92 59.438 57.6041 59.7828 57.3687L60.3096 57.0103C60.6931 56.7146 61.0085 56.34 61.2345 55.9119C61.4606 55.4837 61.592 55.0121 61.6199 54.5288C61.6189 54.3875 61.5794 54.2491 61.5059 54.1285C61.4323 54.0078 61.3273 53.9094 61.2021 53.8437C61.0769 53.778 60.9363 53.7476 60.7951 53.7556C60.6539 53.7636 60.5176 53.8097 60.4007 53.8891L48.5116 62.0091C48.1668 62.2445 47.8847 62.5604 47.6898 62.9294C47.4948 63.2984 47.3929 63.7094 47.3929 64.1267C47.3929 64.544 47.4948 64.955 47.6898 65.324C47.8847 65.693 48.1668 66.0089 48.5116 66.2442L73.6607 83.4217C74.0886 83.7154 74.5954 83.8726 75.1145 83.8726C75.6335 83.8726 76.1403 83.7154 76.5682 83.4217L101.717 66.2442C102.062 66.0089 102.344 65.693 102.539 65.324C102.734 64.955 102.836 64.544 102.836 64.1267C102.836 63.7094 102.734 63.2984 102.539 62.9294C102.344 62.5604 102.062 62.2445 101.717 62.0091ZM70.5105 74.9212C70.3259 75.2379 70.0746 75.5107 69.774 75.7208C69.3452 76.0133 68.8381 76.1697 68.3189 76.1697C67.7998 76.1697 67.2927 76.0133 66.8638 75.7208L52.8645 66.1588C52.5223 65.9259 52.2444 65.6106 52.0564 65.2421C51.8683 64.8735 51.7762 64.4635 51.7886 64.05C51.801 63.6364 51.9174 63.2326 52.1271 62.8759C52.3369 62.5193 52.6332 62.2211 52.9886 62.0091L53.1293 61.9264C53.5493 61.6764 54.032 61.5513 54.5206 61.566C55.0092 61.5806 55.4835 61.7344 55.8878 62.0091L69.763 71.4857C70.295 71.8613 70.6661 72.4232 70.8025 73.0597C70.939 73.6962 70.8308 74.3608 70.4995 74.9212H70.5105ZM76.5792 80.364C76.1508 80.6562 75.6442 80.8125 75.1255 80.8125C74.6068 80.8125 74.1002 80.6562 73.6718 80.364C73.327 80.1286 73.0449 79.8128 72.85 79.4437C72.655 79.0747 72.5531 78.6637 72.5531 78.2464C72.5531 77.8291 72.655 77.4181 72.85 77.0491C73.0449 76.6801 73.327 76.3642 73.6718 76.1289C74.1002 75.8367 74.6068 75.6804 75.1255 75.6804C75.6442 75.6804 76.1508 75.8367 76.5792 76.1289C76.9234 76.3651 77.2046 76.6817 77.3986 77.0513C77.5926 77.4208 77.6934 77.832 77.6923 78.2493C77.6912 78.6666 77.5883 79.0774 77.3924 79.4459C77.1965 79.8144 76.9136 80.1295 76.5682 80.364H76.5792ZM97.2679 66.236L83.3789 75.7236C82.95 76.016 82.4429 76.1724 81.9238 76.1724C81.4046 76.1724 80.8975 76.016 80.4687 75.7236C80.1675 75.5142 79.9161 75.2413 79.7322 74.924C79.4009 74.3635 79.2927 73.699 79.4291 73.0624C79.5656 72.4259 79.9367 71.864 80.4687 71.4885L94.3356 62.0174C94.766 61.725 95.2744 61.5686 95.7949 61.5686C96.3153 61.5686 96.8237 61.725 97.2541 62.0174C97.597 62.2523 97.8774 62.5672 98.0711 62.9349C98.2648 63.3026 98.3659 63.7119 98.3656 64.1274C98.3654 64.5429 98.2637 64.9521 98.0696 65.3195C97.8754 65.687 97.5946 66.0015 97.2513 66.236H97.2679Z" fill="black"/>
<path d="M105.008 47.9995H88.0629C87.6433 47.9996 87.2294 48.0964 86.8533 48.2824C86.4773 48.4684 86.1492 48.7387 85.8947 49.072L82.4245 53.638C82.1004 54.0663 81.6815 54.4137 81.2004 54.6529C80.7194 54.8921 80.1895 55.0166 79.6522 55.0166H76.342V49.3781C77.8014 49.5351 79.2166 49.9723 80.5101 50.6657C80.7645 50.8139 81.0608 50.8737 81.3527 50.8358C81.6446 50.7979 81.9158 50.6644 82.1238 50.4562C82.2531 50.3169 82.3492 50.1502 82.4049 49.9686C82.4606 49.787 82.4745 49.5952 82.4456 49.4075C82.4167 49.2197 82.3457 49.0409 82.2379 48.8845C82.1301 48.7281 81.9883 48.598 81.8232 48.504C80.9893 48.0485 80.1113 47.679 79.2026 47.4012C80.3653 46.5398 81.2267 45.3339 81.6642 43.9549C82.1016 42.576 82.0928 41.0942 81.639 39.7206C81.1853 38.3469 80.3097 37.1513 79.1368 36.3037C77.9639 35.4562 76.5535 35 75.1062 35C73.659 35 72.2485 35.4562 71.0757 36.3037C69.9028 37.1513 69.0272 38.3469 68.5734 39.7206C68.1197 41.0942 68.1109 42.576 68.5483 43.9549C68.9858 45.3339 69.8471 46.5398 71.0099 47.4012C70.141 47.6655 69.3002 48.0146 68.4997 48.4434C68.2003 48.5924 67.9689 48.8498 67.8526 49.1633C67.7363 49.4767 67.7437 49.8227 67.8735 50.1308C67.9475 50.2882 68.0531 50.4286 68.1838 50.5433C68.3145 50.658 68.4674 50.7446 68.6331 50.7976C68.7987 50.8506 68.9735 50.869 69.1466 50.8515C69.3196 50.8341 69.4872 50.7811 69.6389 50.696C70.9559 49.9828 72.4001 49.535 73.8897 49.3781V55.0194H70.5796C70.0424 55.0187 69.5127 54.894 69.0318 54.6548C68.5509 54.4157 68.1318 54.0686 67.8073 53.6408L64.3371 49.0748C64.0828 48.7402 63.7545 48.469 63.3779 48.2825C63.0013 48.0959 62.5865 47.999 62.1662 47.9995H45.2208C45.0744 47.9933 44.9316 48.0454 44.8238 48.1444C44.7159 48.2434 44.6518 48.3812 44.6456 48.5275C44.6394 48.6737 44.6916 48.8165 44.7906 48.9243C44.8897 49.0321 45.0275 49.0962 45.1739 49.1024L60.1552 50.219C60.5415 50.2526 60.9161 50.3683 61.2539 50.5585C61.5918 50.7488 61.8849 51.0091 62.1137 51.3219L65.8901 56.4173C66.2141 56.8537 66.6359 57.2082 67.1216 57.4524C67.6073 57.6966 68.1435 57.8237 68.6872 57.8235H73.8897V58.2757C73.8897 58.6018 74.0194 58.9146 74.2501 59.1452C74.4808 59.3758 74.7937 59.5054 75.12 59.5054C75.4463 59.5054 75.7593 59.3758 75.99 59.1452C76.2207 58.9146 76.3503 58.6018 76.3503 58.2757V57.8235H81.5501C82.0938 57.8241 82.6302 57.6972 83.116 57.453C83.6018 57.2088 84.0235 56.854 84.3472 56.4173L88.1208 51.3302C88.3499 51.0176 88.6431 50.7575 88.9809 50.5673C89.3186 50.3771 89.6931 50.2612 90.0793 50.2273L105.061 49.1217C105.21 49.1147 105.35 49.0489 105.45 48.9388C105.55 48.8287 105.603 48.6832 105.596 48.5344C105.589 48.3856 105.523 48.2456 105.413 48.1453C105.303 48.045 105.157 47.9925 105.008 47.9995ZM75.1173 46.2542C74.2556 46.2525 73.4138 45.9956 72.6981 45.516C71.9825 45.0363 71.4251 44.3553 71.0965 43.5591C70.7679 42.763 70.6828 41.8873 70.8519 41.0428C71.021 40.1983 71.4367 39.4228 72.0466 38.8144C72.6565 38.206 73.4331 37.7919 74.2783 37.6244C75.1235 37.457 75.9994 37.5438 76.7953 37.8737C77.5913 38.2037 78.2715 38.7621 78.75 39.4783C79.2285 40.1945 79.484 41.0365 79.484 41.8977C79.4847 42.4713 79.3723 43.0393 79.1531 43.5693C78.9339 44.0993 78.6124 44.581 78.2068 44.9866C77.8012 45.3923 77.3195 45.714 76.7894 45.9334C76.2593 46.1528 75.6911 46.2656 75.1173 46.2652V46.2542Z" fill="black"/>
<path d="M71.1312 64.5952C72.0337 63.8092 73.1813 63.3609 74.3779 63.3268H75.0068C76.5406 63.3268 77.9888 63.7073 79.1004 64.6062C79.4694 64.8968 79.8952 65.107 80.3503 65.2233C80.8054 65.3397 81.2798 65.3595 81.7431 65.2817C83.8506 65.006 85.2077 62.8388 85.0395 60.7461C85.0218 60.5875 84.9707 60.4345 84.8896 60.297C84.8085 60.1596 84.6992 60.0409 84.569 59.9487C84.4387 59.8565 84.2904 59.7929 84.1337 59.7621C83.9771 59.7313 83.8157 59.734 83.6602 59.77L78.5018 60.8453C77.8342 60.9854 77.1538 61.0556 76.4716 61.0549H73.7379C73.0548 61.0555 72.3735 60.9853 71.7049 60.8453L66.5465 59.77C66.391 59.7336 66.2295 59.7305 66.0727 59.7611C65.9159 59.7917 65.7674 59.8553 65.637 59.9476C65.5066 60.0398 65.3973 60.1587 65.3163 60.2964C65.2354 60.4341 65.1846 60.5873 65.1673 60.7461C64.9963 62.8388 66.3562 65.0115 68.4637 65.2817C68.9316 65.3618 69.4112 65.342 69.8709 65.2237C70.3307 65.1054 70.7601 64.8912 71.1312 64.5952Z" fill="url(#paint5_linear)"/>
<path d="M75.1144 44.349C76.4658 44.349 77.5612 43.2565 77.5612 41.9089C77.5612 40.5612 76.4658 39.4688 75.1144 39.4688C73.7631 39.4688 72.6677 40.5612 72.6677 41.9089C72.6677 43.2565 73.7631 44.349 75.1144 44.349Z" fill="url(#paint6_linear)"/>
<defs>
<linearGradient id="paint0_linear" x1="48.1364" y1="104.845" x2="48.1364" y2="69.3457" gradientUnits="userSpaceOnUse">
<stop stop-color="#9C0A0E"/>
<stop offset="0.3" stop-color="#C41D1E"/>
<stop offset="0.57" stop-color="#E22C2A"/>
<stop offset="0.72" stop-color="#EE312F"/>
</linearGradient>
<linearGradient id="paint1_linear" x1="3791.86" y1="11405" x2="3791.86" y2="9290.58" gradientUnits="userSpaceOnUse">
<stop stop-color="#9C0A0E"/>
<stop offset="0.3" stop-color="#C41D1E"/>
<stop offset="0.57" stop-color="#E22C2A"/>
<stop offset="0.72" stop-color="#EE312F"/>
</linearGradient>
<linearGradient id="paint2_linear" x1="4371.59" y1="9715.97" x2="4371.59" y2="8181.8" gradientUnits="userSpaceOnUse">
<stop stop-color="#9C0A0E"/>
<stop offset="0.3" stop-color="#C41D1E"/>
<stop offset="0.57" stop-color="#E22C2A"/>
<stop offset="0.72" stop-color="#EE312F"/>
</linearGradient>
<linearGradient id="paint3_linear" x1="5341.68" y1="16947.2" x2="5341.68" y2="12235.7" gradientUnits="userSpaceOnUse">
<stop stop-color="#9C0A0E"/>
<stop offset="0.3" stop-color="#C41D1E"/>
<stop offset="0.57" stop-color="#E22C2A"/>
<stop offset="0.72" stop-color="#EE312F"/>
</linearGradient>
<linearGradient id="paint4_linear" x1="1809.26" y1="12143.4" x2="1809.26" y2="9735.52" gradientUnits="userSpaceOnUse">
<stop stop-color="#9C0A0E"/>
<stop offset="0.3" stop-color="#C41D1E"/>
<stop offset="0.57" stop-color="#E22C2A"/>
<stop offset="0.72" stop-color="#EE312F"/>
</linearGradient>
<linearGradient id="paint5_linear" x1="75.1144" y1="65.3176" x2="75.1144" y2="59.7452" gradientUnits="userSpaceOnUse">
<stop offset="0.3" stop-color="#EE312F"/>
<stop offset="0.42" stop-color="#E92E2D"/>
<stop offset="0.58" stop-color="#D92727"/>
<stop offset="0.75" stop-color="#C01B1C"/>
<stop offset="0.93" stop-color="#9C0A0E"/>
</linearGradient>
<linearGradient id="paint6_linear" x1="1836.5" y1="1253.54" x2="1836.5" y2="1167.11" gradientUnits="userSpaceOnUse">
<stop offset="0.3" stop-color="#EE312F"/>
<stop offset="0.42" stop-color="#E92E2D"/>
<stop offset="0.58" stop-color="#D92727"/>
<stop offset="0.75" stop-color="#C01B1C"/>
<stop offset="0.93" stop-color="#9C0A0E"/>
</linearGradient>
</defs>
</svg>
