<svg width="947" height="1024" viewBox="0 0 947 1024" fill="none" xmlns="http://www.w3.org/2000/svg">
<path d="M116.194 1020.55C113.243 1020.55 110.412 1019.38 108.325 1017.29C106.237 1015.2 105.065 1012.37 105.065 1009.42V852.772C105.065 846.164 102.448 839.826 97.786 835.143C93.1243 830.461 86.7976 827.815 80.1903 827.786C74.9702 827.8 69.9681 829.881 66.277 833.572C62.5858 837.263 60.5056 842.265 60.4909 847.485V1009.31C60.4909 1012.26 59.3183 1015.09 57.2311 1017.18C55.1439 1019.27 52.3131 1020.44 49.3614 1020.44H11.1313C8.17959 1020.44 5.34873 1019.27 3.26153 1017.18C1.17434 1015.09 0.00176808 1012.26 0.00176808 1009.31V518.774C-0.0435413 515.629 0.782779 512.534 2.38915 509.83C3.99552 507.126 6.31918 504.921 9.10253 503.457C11.8859 501.993 15.0202 501.329 18.158 501.538C21.2959 501.746 24.3146 502.82 26.8797 504.639L117.196 567.076C157.095 594.455 164.942 602.19 164.942 629.847V744.759C164.942 767.018 159.377 781.097 146.522 789.277C144.803 790.401 143.406 791.953 142.471 793.782C141.535 795.611 141.093 797.652 141.189 799.704C141.284 801.755 141.914 803.747 143.015 805.481C144.117 807.214 145.652 808.631 147.468 809.589C160.1 815.877 165.443 827.174 165.443 847.151V1009.48C165.443 1012.43 164.27 1015.26 162.183 1017.35C160.096 1019.43 157.265 1020.61 154.313 1020.61L116.194 1020.55ZM83.7517 610.203C77.6113 610.188 71.7141 612.602 67.3462 616.917C62.9783 621.233 60.494 627.101 60.4353 633.241V753.051C60.4075 755.933 60.9725 758.791 62.0951 761.446C63.2178 764.101 64.8742 766.497 66.9614 768.485C69.0487 770.473 71.5223 772.011 74.2287 773.003C76.9352 773.995 79.8167 774.421 82.6944 774.253C88.0559 774.314 93.2711 772.504 97.4411 769.133C99.7426 767.178 101.581 764.736 102.822 761.984C104.064 759.231 104.678 756.237 104.62 753.218V628.233C104.542 625.682 103.772 623.201 102.394 621.054C100.57 617.719 97.8689 614.946 94.5835 613.033C91.2981 611.121 87.5527 610.142 83.7517 610.203Z" fill="#EE312F"/>
<path d="M279.298 1023.89C237.228 1023.89 217.585 1004.19 217.585 961.953V713.708C217.614 702.362 222.13 691.489 230.148 683.461C238.165 675.434 249.032 670.903 260.378 670.859C268.945 670.898 277.296 673.558 284.306 678.483L348.858 723.001C360.989 731.378 370.903 742.577 377.747 755.634C384.591 768.692 388.159 783.216 388.145 797.959V956.778C388.16 974.534 381.144 991.573 368.63 1004.17C356.116 1016.77 339.124 1023.9 321.368 1024L279.298 1023.89ZM293.433 746.985C284.473 746.985 278.018 754.832 278.018 765.683V948.764C278.018 955.406 280.657 961.775 285.353 966.471C290.049 971.167 296.418 973.806 303.06 973.806C309.701 973.806 316.071 971.167 320.767 966.471C325.463 961.775 328.101 955.406 328.101 948.764V781.821C328.456 776.92 327.377 772.021 324.995 767.723C322.614 763.425 319.033 759.912 314.69 757.614L301.112 748.822H300.611C298.39 747.669 295.935 747.04 293.433 746.985Z" fill="#EE312F"/>
<path d="M563.658 1020.72C561.883 1020.72 560.13 1020.33 558.516 1019.59C556.903 1018.85 555.468 1017.78 554.309 1016.43L518.361 963.121C510.959 951.658 491.371 957.167 491.984 971.079V1008.14C492.006 1009.78 491.703 1011.41 491.093 1012.93C490.482 1014.45 489.577 1015.83 488.428 1017C487.279 1018.17 485.91 1019.1 484.4 1019.74C482.89 1020.38 481.269 1020.71 479.63 1020.72H454.032C450.76 1020.7 447.626 1019.4 445.312 1017.08C442.999 1014.77 441.693 1011.64 441.678 1008.36L440.788 787.107C440.769 784.071 441.763 781.116 443.615 778.709C445.466 776.303 448.067 774.583 451.006 773.823C453.946 773.062 457.055 773.305 459.841 774.512C462.627 775.719 464.93 777.821 466.386 780.485L537.726 911.258C539.149 913.339 541.202 914.91 543.584 915.74C545.965 916.569 548.55 916.614 550.958 915.867C553.367 915.12 555.473 913.621 556.967 911.59C558.462 909.558 559.266 907.102 559.262 904.58L558.149 755.054C558.159 753.005 558.671 750.99 559.641 749.186C560.612 747.381 562.01 745.842 563.714 744.704L597.77 721.276C598.792 720.583 599.983 720.18 601.215 720.109C602.448 720.037 603.677 720.301 604.772 720.871C605.867 721.442 606.788 722.298 607.436 723.349C608.084 724.4 608.436 725.606 608.454 726.841V1008.31C608.454 1011.59 607.155 1014.74 604.839 1017.06C602.524 1019.39 599.382 1020.7 596.101 1020.72H563.658Z" fill="#EE312F"/>
<path d="M896.655 1020.72C893.801 1020.71 891.039 1019.71 888.838 1017.89C886.637 1016.08 885.132 1013.56 884.579 1010.76L855.42 862.788C854.878 859.729 853.265 856.962 850.868 854.983C848.472 853.005 845.45 851.945 842.343 851.993C838.721 851.982 835.241 853.402 832.66 855.944C830.191 858.514 828.832 861.952 828.876 865.515L829.822 1008.25C829.837 1009.88 829.528 1011.5 828.914 1013.01C828.299 1014.53 827.392 1015.9 826.243 1017.06C825.095 1018.22 823.728 1019.14 822.221 1019.77C820.715 1020.39 819.1 1020.72 817.468 1020.72H791.87C788.589 1020.7 785.446 1019.39 783.131 1017.06C780.816 1014.74 779.516 1011.59 779.516 1008.31V609.257C779.525 607.223 780.038 605.223 781.009 603.436C781.98 601.649 783.379 600.131 785.081 599.018L813.795 579.43C814.686 578.825 815.708 578.441 816.776 578.309C817.844 578.177 818.929 578.301 819.94 578.67C820.951 579.04 821.86 579.645 822.591 580.435C823.322 581.225 823.855 582.177 824.146 583.214L870.723 748.989C871.458 751.825 873.125 754.333 875.456 756.109C877.787 757.885 880.647 758.826 883.578 758.783C887.196 758.775 890.669 757.358 893.26 754.832C895.729 752.261 897.088 748.824 897.044 745.26L895.931 528.957C895.931 526.914 896.439 524.903 897.411 523.105C898.382 521.308 899.786 519.781 901.496 518.662L935.831 495.068C936.844 494.349 938.035 493.925 939.274 493.841C940.512 493.758 941.75 494.018 942.85 494.594C943.95 495.17 944.869 496.039 945.506 497.105C946.143 498.17 946.473 499.391 946.46 500.632V1008.31C946.46 1011.59 945.16 1014.74 942.845 1017.06C940.53 1019.39 937.387 1020.7 934.106 1020.72H896.655Z" fill="#EE312F"/>
<path d="M677.402 1020.72C673.786 1020.72 670.319 1019.28 667.762 1016.72C665.205 1014.17 663.769 1010.7 663.769 1007.08V686.051C663.781 683.851 664.33 681.688 665.367 679.749C666.405 677.809 667.9 676.152 669.723 674.921L712.293 645.484C713.518 644.627 714.973 644.162 716.467 644.148C718.459 644.148 720.37 644.939 721.779 646.348C723.188 647.757 723.979 649.668 723.979 651.66V1007.19C723.979 1010.8 722.551 1014.26 720.006 1016.82C717.461 1019.37 714.008 1020.81 710.401 1020.83L677.402 1020.72Z" fill="#EE312F"/>
<path d="M861.374 394.234L688.866 275.537C687.182 274.305 685.185 273.571 683.103 273.419C681.022 273.267 678.94 273.703 677.094 274.678C675.249 275.653 673.715 277.127 672.668 278.932C671.62 280.737 671.101 282.8 671.17 284.886C671.563 291.943 673.465 298.833 676.748 305.092C680.031 311.352 684.619 316.833 690.201 321.168L697.825 326.399C702.83 329.86 706.92 334.483 709.745 339.872C712.571 345.261 714.047 351.255 714.047 357.339C714.047 363.424 712.571 369.418 709.745 374.807C706.92 380.196 702.83 384.819 697.825 388.28L542.011 495.902C527.327 506.069 510.525 512.767 492.874 515.49V459.843C492.983 455.167 491.324 450.622 488.23 447.116C485.135 443.609 480.833 441.397 476.18 440.922C473.751 440.794 471.321 441.162 469.04 442.006C466.759 442.849 464.674 444.149 462.913 445.827C461.152 447.505 459.752 449.524 458.799 451.762C457.846 454 457.36 456.409 457.371 458.841V515.713C439.372 513.062 422.23 506.281 407.288 495.902L252.253 388.447C247.237 384.987 243.137 380.362 240.304 374.968C237.471 369.573 235.992 363.571 235.992 357.479C235.992 351.386 237.471 345.384 240.304 339.99C243.137 334.595 247.237 329.97 252.253 326.511L259.877 321.28C265.475 316.955 270.077 311.477 273.37 305.216C276.664 298.956 278.572 292.06 278.964 284.997C279.041 282.902 278.525 280.828 277.475 279.013C276.425 277.199 274.883 275.718 273.028 274.741C271.173 273.764 269.08 273.33 266.989 273.491C264.899 273.652 262.897 274.4 261.212 275.648L88.7043 394.345C83.6885 397.804 79.5879 402.43 76.7553 407.824C73.9226 413.219 72.4426 419.22 72.4426 425.313C72.4426 431.406 73.9226 437.408 76.7553 442.802C79.5879 448.197 83.6885 452.822 88.7043 456.281L454.143 707.475C460.358 711.747 467.721 714.033 475.262 714.033C482.802 714.033 490.166 711.747 496.38 707.475L861.374 456.281C866.401 452.818 870.512 448.184 873.351 442.78C876.19 437.376 877.674 431.362 877.674 425.258C877.674 419.153 876.19 413.139 873.351 407.735C870.512 402.331 866.401 397.697 861.374 394.234ZM407.9 583.047C405.209 587.674 401.544 591.662 397.16 594.733C390.934 599.002 383.562 601.286 376.014 601.286C368.465 601.286 361.094 599.002 354.868 594.733L151.419 454.946C146.45 451.513 142.42 446.892 139.695 441.502C136.971 436.113 135.639 430.127 135.822 424.09C136.004 418.054 137.695 412.159 140.74 406.944C143.786 401.729 148.088 397.359 153.256 394.234L155.259 393.065C161.378 389.372 168.431 387.518 175.575 387.726C182.72 387.933 189.653 390.192 195.548 394.234L397.16 532.853C401.492 535.881 405.117 539.811 407.789 544.372C411.313 550.202 413.185 556.881 413.205 563.694C413.224 570.507 411.391 577.196 407.9 583.047ZM495.879 662.623C489.665 666.894 482.302 669.181 474.761 669.181C467.22 669.181 459.857 666.894 453.643 662.623C448.638 659.162 444.548 654.539 441.722 649.15C438.897 643.762 437.421 637.768 437.421 631.683C437.421 625.599 438.897 619.605 441.722 614.216C444.548 608.827 448.638 604.204 453.643 600.743C459.86 596.452 467.235 594.154 474.789 594.154C482.343 594.154 489.718 596.452 495.935 600.743C500.936 604.208 505.022 608.835 507.843 614.227C510.663 619.618 512.134 625.613 512.128 631.698C512.123 637.782 510.642 643.775 507.811 649.161C504.981 654.547 500.887 659.167 495.879 662.623ZM796.377 456.059L594.543 594.789C588.328 599.06 580.965 601.346 573.424 601.346C565.884 601.346 558.52 599.06 552.306 594.789C547.922 591.717 544.257 587.73 541.566 583.103C538.059 577.262 536.206 570.578 536.206 563.765C536.206 556.952 538.059 550.268 541.566 544.427C544.238 539.867 547.863 535.937 552.195 532.908L753.696 394.401C759.938 390.123 767.329 387.833 774.897 387.833C782.465 387.833 789.856 390.123 796.099 394.401C801.156 397.81 805.304 402.402 808.183 407.779C811.061 413.156 812.583 419.154 812.616 425.253C812.649 431.352 811.192 437.366 808.371 442.773C805.551 448.181 801.453 452.818 796.433 456.281L796.377 456.059Z" fill="black"/>
<path d="M909.175 189.561H662.934C656.823 189.568 650.797 190.994 645.331 193.726C639.865 196.459 635.109 200.425 631.437 205.31L581.02 272.087C576.312 278.319 570.224 283.375 563.234 286.861C556.244 290.346 548.542 292.165 540.731 292.176H492.652V209.594C513.895 211.89 534.493 218.277 553.308 228.403C556.995 230.578 561.303 231.458 565.548 230.904C569.793 230.349 573.731 228.392 576.735 225.343C578.618 223.311 580.018 220.881 580.831 218.233C581.644 215.586 581.85 212.789 581.433 210.051C581.016 207.313 579.986 204.704 578.422 202.419C576.857 200.133 574.797 198.23 572.395 196.851C560.29 190.19 547.536 184.783 534.332 180.713C551.285 168.181 563.852 150.619 570.242 130.529C576.633 110.438 576.521 88.8435 569.924 68.82C563.326 48.7966 550.579 31.3653 533.497 19.0087C516.416 6.65201 495.871 0 474.789 0C453.706 0 433.161 6.65201 416.08 19.0087C398.998 31.3653 386.251 48.7966 379.654 68.82C373.056 88.8435 372.945 110.438 379.335 130.529C385.726 150.619 398.292 168.181 415.246 180.713C402.622 184.579 390.412 189.686 378.796 195.961C374.434 198.148 371.066 201.911 369.372 206.487C367.677 211.063 367.784 216.112 369.67 220.613C370.737 222.88 372.256 224.905 374.135 226.563C376.014 228.221 378.212 229.477 380.594 230.254C382.976 231.03 385.492 231.311 387.987 231.079C390.482 230.847 392.903 230.107 395.101 228.904C414.175 218.502 435.104 211.942 456.703 209.594V292.12H408.623C400.813 292.109 393.111 290.29 386.121 286.805C379.131 283.32 373.043 278.263 368.334 272.031L317.918 205.254C314.234 200.368 309.468 196.403 303.993 193.67C298.518 190.938 292.484 189.512 286.365 189.506H40.402C38.2325 189.41 36.1137 190.179 34.5118 191.646C32.9098 193.112 31.956 195.155 31.8601 197.324C31.7641 199.494 32.534 201.612 34.0002 203.214C35.4665 204.816 37.509 205.77 39.6786 205.866L257.428 222.227C263.032 222.711 268.467 224.387 273.371 227.141C278.275 229.895 282.534 233.665 285.864 238.197L340.678 312.543C345.364 318.929 351.489 324.121 358.556 327.699C365.624 331.276 373.435 333.137 381.356 333.133H456.926V339.755C456.926 342.1 457.388 344.423 458.285 346.59C459.183 348.758 460.499 350.727 462.158 352.386C463.816 354.044 465.786 355.36 467.953 356.258C470.12 357.156 472.443 357.618 474.789 357.618C477.135 357.618 479.457 357.156 481.625 356.258C483.792 355.36 485.761 354.044 487.42 352.386C489.078 350.727 490.394 348.758 491.292 346.59C492.19 344.423 492.652 342.1 492.652 339.755V333.133H568.221C576.141 333.129 583.949 331.263 591.015 327.687C598.081 324.11 604.207 318.923 608.9 312.543L663.713 238.197C667.035 233.657 671.293 229.882 676.198 227.127C681.104 224.372 686.543 222.701 692.149 222.227L909.843 205.866C910.914 205.822 911.965 205.568 912.938 205.118C913.91 204.667 914.784 204.03 915.51 203.242C916.236 202.454 916.8 201.531 917.169 200.525C917.538 199.519 917.706 198.45 917.662 197.38C917.618 196.309 917.364 195.258 916.913 194.285C916.463 193.313 915.826 192.439 915.038 191.713C914.25 190.987 913.327 190.423 912.321 190.054C911.315 189.685 910.246 189.517 909.175 189.561ZM474.789 164.075C462.187 164.118 449.855 160.425 439.352 153.46C428.85 146.495 420.649 136.573 415.785 124.947C410.922 113.321 409.616 100.514 412.031 88.146C414.446 75.7776 420.475 64.4033 429.355 55.4613C438.235 46.5193 449.566 40.4113 461.918 37.9096C474.269 35.4079 487.084 36.6249 498.744 41.4067C510.403 46.1885 520.383 54.3204 527.421 64.774C534.459 75.2276 538.239 87.5333 538.283 100.135C538.327 108.507 536.718 116.805 533.548 124.553C530.378 132.301 525.71 139.347 519.811 145.288C513.912 151.228 506.899 155.945 499.173 159.169C491.447 162.393 483.16 164.06 474.789 164.075Z" fill="black"/>
<path d="M416.971 432.074C430.064 420.592 446.753 414.038 464.16 413.544H473.287C494.678 412.735 515.692 419.339 532.774 432.241C538.126 436.484 544.31 439.553 550.925 441.25C557.54 442.947 564.438 443.234 571.171 442.091C601.777 438.196 621.532 406.365 619.084 375.815C618.801 373.523 618.047 371.315 616.868 369.329C615.688 367.344 614.11 365.625 612.232 364.281C610.355 362.937 608.219 361.997 605.96 361.521C603.7 361.044 601.367 361.042 599.106 361.513L524.149 377.261C514.451 379.309 504.566 380.335 494.655 380.322H454.923C444.993 380.334 435.09 379.309 425.374 377.261L350.583 361.68C348.327 361.217 345.999 361.226 343.746 361.707C341.493 362.187 339.365 363.129 337.493 364.472C335.622 365.815 334.049 367.531 332.873 369.512C331.698 371.493 330.944 373.696 330.661 375.981C328.213 406.532 347.912 438.363 378.574 442.258C385.33 443.362 392.244 443.025 398.861 441.27C405.478 439.515 411.65 436.381 416.971 432.074Z" fill="#EE312F"/>
<path d="M474.789 136.084C494.428 136.084 510.348 120.114 510.348 100.413C510.348 80.7133 494.428 64.7432 474.789 64.7432C455.151 64.7432 439.23 80.7133 439.23 100.413C439.23 120.114 455.151 136.084 474.789 136.084Z" fill="#EE312F"/>
</svg>
