<svg width="714" height="400" viewBox="0 0 714 400" fill="none" xmlns="http://www.w3.org/2000/svg">
<path d="M87.6216 397.459C85.413 397.46 83.2924 396.594 81.7156 395.047C80.1388 393.501 79.2316 391.397 79.1892 389.189V270.865C79.1893 265.88 77.2166 261.098 73.702 257.563C70.1876 254.029 65.4169 252.029 60.4324 252C56.4944 252.014 52.7217 253.585 49.9371 256.369C47.1525 259.154 45.5818 262.927 45.5676 266.865V389.189C45.5676 391.425 44.6791 393.57 43.0978 395.152C41.5164 396.733 39.3715 397.621 37.1351 397.621H8.43244C6.19602 397.621 4.05119 396.733 2.4698 395.152C0.888412 393.57 4.83438e-10 391.425 4.83438e-10 389.189V18.8109C-2.9662e-05 15.3652 1.36504 12.0599 3.79641 9.61839C6.22777 7.17689 9.52737 5.79811 12.973 5.78381C15.585 5.79981 18.1302 6.61052 20.2703 8.10814L88.4324 55.2433C118.486 75.6757 124.324 81.7838 124.324 102.703V189.189C124.324 205.946 119.946 216.595 110.486 222.649C109.169 223.497 108.099 224.679 107.387 226.074C106.675 227.47 106.346 229.03 106.432 230.595C106.494 232.134 106.968 233.628 107.804 234.921C108.641 236.215 109.81 237.259 111.189 237.946C120.703 242.757 124.757 251.243 124.757 266.324V389.189C124.757 391.425 123.868 393.57 122.287 395.152C120.706 396.733 118.561 397.621 116.324 397.621L87.6216 397.459ZM63.1892 87.7838C58.5486 87.7693 54.0907 89.5916 50.7891 92.8527C47.4875 96.1138 45.6104 100.549 45.5676 105.189V195.622C45.5201 197.806 45.9235 199.976 46.7525 201.997C47.5815 204.019 48.8183 205.847 50.3857 207.369C51.9531 208.891 53.8175 210.073 55.8623 210.842C57.9071 211.611 60.0885 211.95 62.2703 211.838C66.3226 211.881 70.2621 210.504 73.4054 207.946C75.1456 206.477 76.5345 204.636 77.4699 202.559C78.4053 200.483 78.8635 198.223 78.8108 195.946V101.405C78.7421 99.4868 78.1637 97.6211 77.1351 96C75.7734 93.4952 73.7565 91.4076 71.3001 89.9604C68.8437 88.5132 66.0401 87.7609 63.1892 87.7838Z" fill="#EE312F"/>
<path d="M210.81 400C179.081 400 164.27 385.135 164.27 353.243V165.946C164.27 157.344 167.687 149.095 173.769 143.013C179.851 136.93 188.101 133.513 196.702 133.513C203.163 133.544 209.46 135.543 214.756 139.243L263.405 172.811C272.562 179.126 280.047 187.571 285.217 197.421C290.386 207.27 293.085 218.228 293.081 229.351V349.243C293.095 355.913 291.792 362.519 289.246 368.684C286.7 374.848 282.962 380.449 278.246 385.165C273.53 389.881 267.929 393.62 261.764 396.165C255.6 398.711 248.993 400.014 242.324 400H210.81ZM221.621 191.027C219.861 191.1 218.135 191.541 216.556 192.322C214.977 193.103 213.58 194.207 212.454 195.562C211.328 196.917 210.499 198.494 210.02 200.189C209.542 201.885 209.424 203.662 209.675 205.405V343.622C209.675 348.639 211.668 353.451 215.216 356.999C218.764 360.547 223.576 362.54 228.594 362.54C233.612 362.54 238.424 360.547 241.972 356.999C245.52 353.451 247.513 348.639 247.513 343.622V217.243C247.774 213.54 246.952 209.842 245.148 206.598C243.343 203.354 240.634 200.704 237.351 198.973L227.027 192.324H226.702C225.023 191.486 223.174 191.042 221.297 191.027H221.621Z" fill="#EE312F"/>
<path d="M425.135 397.621C423.792 397.618 422.465 397.327 421.243 396.767C420.022 396.208 418.934 395.393 418.054 394.378L391.027 354.162C389.755 352.192 387.876 350.689 385.675 349.879C383.474 349.07 381.069 348.999 378.823 349.676C376.578 350.354 374.614 351.743 373.227 353.634C371.84 355.526 371.106 357.817 371.135 360.162V388.108C371.15 389.348 370.919 390.578 370.456 391.728C369.993 392.878 369.307 393.925 368.438 394.809C367.569 395.694 366.534 396.397 365.392 396.88C364.25 397.362 363.024 397.614 361.784 397.621H342.649C340.178 397.621 337.808 396.644 336.055 394.902C334.303 393.16 333.312 390.795 333.297 388.324L332.595 221.297C332.603 219.013 333.369 216.795 334.772 214.993C336.175 213.19 338.137 211.904 340.349 211.335C342.562 210.766 344.901 210.948 346.999 211.851C349.098 212.753 350.837 214.327 351.946 216.324L406 315.027C407.088 316.574 408.639 317.736 410.43 318.344C412.221 318.953 414.159 318.975 415.964 318.41C417.769 317.844 419.348 316.72 420.472 315.198C421.595 313.677 422.206 311.837 422.216 309.946L421.351 197.081C421.353 195.553 421.722 194.048 422.427 192.694C423.133 191.339 424.154 190.174 425.406 189.297L451.135 171.621C451.926 171.173 452.816 170.932 453.725 170.919C454.633 170.906 455.531 171.122 456.333 171.548C457.136 171.974 457.819 172.595 458.318 173.354C458.817 174.113 459.117 174.986 459.189 175.892V388.27C459.175 390.746 458.185 393.116 456.435 394.867C454.684 396.617 452.314 397.607 449.838 397.621H425.135Z" fill="#EE312F"/>
<path d="M676.324 397.622C674.155 397.613 672.055 396.856 670.38 395.477C668.705 394.097 667.559 392.182 667.135 390.054L645.189 278.432C644.778 276.119 643.557 274.027 641.745 272.531C639.932 271.036 637.647 270.234 635.297 270.27C632.57 270.269 629.95 271.336 628 273.243C627.072 274.202 626.345 275.337 625.862 276.581C625.379 277.825 625.151 279.153 625.189 280.486L625.892 388.216C625.888 390.699 624.918 393.083 623.189 394.865C622.328 395.739 621.301 396.433 620.169 396.906C619.037 397.38 617.822 397.623 616.594 397.622H597.243C594.772 397.607 592.408 396.616 590.666 394.864C588.924 393.111 587.946 390.741 587.946 388.27V87.0811C587.942 85.5601 588.309 84.0612 589.016 82.7142C589.722 81.3672 590.746 80.2129 592 79.3513L613.621 64.5946C614.46 64.003 615.46 63.6823 616.486 63.6757C617.609 63.6743 618.701 64.0448 619.591 64.7293C620.48 65.4139 621.119 66.3739 621.405 67.4595L656.54 192.541C657.104 194.673 658.36 196.558 660.111 197.898C661.863 199.239 664.01 199.959 666.216 199.946C667.573 199.954 668.918 199.69 670.171 199.171C671.424 198.651 672.561 197.885 673.513 196.919C674.45 195.975 675.186 194.851 675.678 193.616C676.17 192.381 676.408 191.059 676.378 189.73L675.675 26.4865C675.648 24.9539 676.005 23.4388 676.713 22.0793C677.421 20.7198 678.458 19.559 679.729 18.7027L705.567 0.918909C706.323 0.402502 707.197 0.0863302 708.108 0C709.541 0 710.916 0.569492 711.93 1.5832C712.944 2.59691 713.513 3.9718 713.513 5.4054V388.486C713.513 390.966 712.528 393.345 710.774 395.099C709.021 396.853 706.642 397.838 704.162 397.838L676.324 397.622Z" fill="#EE312F"/>
<path d="M510.919 397.622C508.195 397.622 505.583 396.54 503.657 394.613C501.731 392.687 500.649 390.075 500.649 387.351V145.027C500.649 143.354 501.058 141.706 501.84 140.227C502.622 138.748 503.753 137.483 505.135 136.541L537.568 114.324C538.39 113.65 539.393 113.234 540.451 113.127C541.509 113.021 542.575 113.229 543.516 113.725C544.456 114.221 545.23 114.984 545.739 115.917C546.248 116.851 546.471 117.914 546.379 118.973V387.351C546.379 390.066 545.304 392.67 543.39 394.594C541.475 396.519 538.877 397.607 536.162 397.622H510.919Z" fill="#EE312F"/>
</svg>
