<svg width="800" height="800" viewBox="0 0 800 800" fill="none" xmlns="http://www.w3.org/2000/svg">
<path d="M169.736 666.826C178.814 666.826 181.979 671.017 181.979 677.932V683.213C181.979 690.149 178.814 694.319 169.736 694.319H163.761V703.455H152.566V666.826H169.736ZM163.761 685.141H167.807C170.072 685.141 170.784 684.261 170.784 682.438V678.645C170.784 676.843 170.072 675.962 167.807 675.962H163.761V685.141Z" fill="#010101"/>
<path d="M197.053 691.909V678.372C197.053 671.331 201.644 666.281 211.896 666.281C222.147 666.281 226.739 671.331 226.739 678.372V691.909C226.739 698.95 222.147 704 211.896 704C201.644 704 197.053 698.95 197.053 691.909ZM215.439 678.372C215.439 676.57 214.391 675.418 211.896 675.418C209.401 675.418 208.353 676.57 208.353 678.372V691.909C208.353 693.711 209.401 694.864 211.896 694.864C214.391 694.864 215.439 693.711 215.439 691.909V678.372Z" fill="#010101"/>
<path d="M242.714 666.826H253.909V703.455H242.714V666.826Z" fill="#010101"/>
<path d="M270.597 666.826H282.672L292.379 685.078V666.826H303.071V703.455H291.037L281.288 685.141V703.392H270.597V666.826Z" fill="#010101"/>
<path d="M326.949 675.962H318.186V666.826H347.096V675.962H338.228V703.455H327.054L326.949 675.962Z" fill="#010101"/>
<path d="M384.224 691.909V678.372C384.224 671.331 388.815 666.281 399.067 666.281C409.319 666.281 413.91 671.331 413.91 678.372V691.909C413.91 698.95 409.319 704 399.067 704C388.815 704 384.224 698.95 384.224 691.909ZM402.61 678.372C402.61 676.57 401.562 675.418 399.067 675.418C396.572 675.418 395.524 676.57 395.524 678.372V691.909C395.524 693.711 396.572 694.864 399.067 694.864C401.562 694.864 402.61 693.711 402.61 691.909V678.372Z" fill="#010101"/>
<path d="M429.801 703.455V666.826H454.791V675.795H440.996V681.411H453.575V690.358H440.996V703.455H429.801Z" fill="#010101"/>
<path d="M492.192 702.03L494.015 693.543C497.505 694.592 501.127 695.136 504.77 695.157C507.642 695.157 508.481 694.717 508.481 692.789C508.481 690.861 508.188 690.526 503.491 689.813C494.561 688.43 492.401 686.901 492.401 678.204C492.401 669.026 496.175 666.281 506.196 666.281C510.009 666.205 513.814 666.67 517.496 667.664L516.343 676.339C513.211 675.63 510.014 675.244 506.804 675.187C504.099 675.187 503.596 675.564 503.596 677.178C503.596 678.791 503.701 679.147 508.355 680.027C517.957 681.851 519.655 683.82 519.655 691.951C519.655 700.333 515.672 704 505.546 704C501.022 703.994 496.524 703.331 492.192 702.03Z" fill="#010101"/>
<path d="M567.79 703.455H556.091L554.833 697.462H545.399L544.142 703.455H532.443L542.758 666.826H557.433L567.79 703.455ZM547.286 688.556H552.989L550.158 675.187L547.286 688.556Z" fill="#010101"/>
<path d="M582.465 666.826H593.66V694.319H606.847V703.455H582.465V666.826Z" fill="#010101"/>
<path d="M622.172 666.826H647.329V675.795H633.43V680.132H646.176V689.101H633.43V694.487H647.329V703.455H622.172V666.826Z" fill="#010101"/>
<path d="M213.363 626.823C211.816 626.823 210.331 626.21 209.235 625.118C208.138 624.026 207.52 622.545 207.514 620.998V539.609C207.503 536.159 206.124 532.855 203.68 530.42C201.236 527.984 197.925 526.617 194.474 526.617C191.757 526.628 189.153 527.71 187.23 529.629C185.306 531.548 184.218 534.148 184.202 536.864V620.998C184.191 622.543 183.57 624.021 182.475 625.112C181.38 626.203 179.899 626.818 178.353 626.823H158.436C156.889 626.823 155.404 626.21 154.308 625.118C153.211 624.026 152.593 622.545 152.587 620.998V365.998C152.598 363.619 153.55 361.341 155.235 359.66C156.92 357.98 159.201 357.034 161.581 357.029C163.39 357.043 165.152 357.605 166.633 358.642L213.887 391.101C234.747 405.33 238.835 409.353 238.835 423.728V483.471C238.835 495.017 235.795 502.33 229.234 506.521C228.323 507.102 227.582 507.915 227.089 508.876C226.595 509.837 226.366 510.912 226.424 511.99C226.47 513.055 226.8 514.088 227.378 514.983C227.957 515.878 228.764 516.603 229.716 517.082C236.299 520.372 239.108 526.219 239.108 536.633V621.019C239.102 622.562 238.486 624.04 237.395 625.132C236.303 626.223 234.824 626.839 233.28 626.844L213.363 626.823ZM196.382 413.523C193.179 413.506 190.1 414.758 187.817 417.004C185.535 419.25 184.235 422.308 184.202 425.509V487.787C184.191 489.284 184.487 490.766 185.072 492.143C185.657 493.521 186.518 494.763 187.603 495.794C188.688 496.826 189.973 497.623 191.378 498.138C192.783 498.653 194.28 498.875 195.774 498.789C198.577 498.825 201.305 497.884 203.489 496.127C204.696 495.118 205.66 493.85 206.31 492.417C206.96 490.984 207.278 489.423 207.242 487.85V422.89C207.197 421.56 206.799 420.265 206.089 419.139C205.123 417.415 203.709 415.983 201.997 414.994C200.285 414.006 198.338 413.498 196.361 413.523H196.382Z" fill="url(#paint0_linear)"/>
<path d="M298.647 628.562C276.613 628.562 266.362 618.336 266.362 596.376V467.335C266.373 464.397 266.963 461.49 268.099 458.78C269.234 456.071 270.893 453.611 272.98 451.542C275.067 449.474 277.542 447.836 280.263 446.724C282.983 445.612 285.896 445.047 288.836 445.06C293.332 445.065 297.72 446.439 301.414 449L335.167 472.05C341.507 476.376 346.695 482.184 350.279 488.969C353.863 495.754 355.735 503.312 355.733 510.984V593.568C355.733 598.172 354.824 602.731 353.058 606.984C351.292 611.236 348.704 615.099 345.442 618.35C342.18 621.601 338.308 624.176 334.048 625.929C329.788 627.681 325.224 628.576 320.618 628.562H298.647ZM306.006 484.602C301.351 484.602 297.976 488.688 297.976 494.325V589.523C298.111 592.887 299.543 596.068 301.972 598.4C304.4 600.732 307.638 602.035 311.006 602.035C314.374 602.035 317.611 600.732 320.04 598.4C322.468 596.068 323.9 592.887 324.035 589.523V502.665C324.035 497.699 322.861 493.864 317.012 490.092L309.884 485.524L309.653 485.419C308.51 484.89 307.266 484.612 306.006 484.602Z" fill="url(#paint1_linear)"/>
<path d="M447.369 626.928C446.439 626.928 445.519 626.728 444.672 626.341C443.825 625.954 443.072 625.39 442.464 624.686L423.596 596.983C419.717 591.032 409.487 593.882 409.801 601.174L409.927 620.432C409.938 621.287 409.779 622.137 409.46 622.931C409.141 623.724 408.667 624.447 408.067 625.057C407.466 625.667 406.751 626.152 405.962 626.484C405.173 626.816 404.326 626.988 403.47 626.991H390.094C388.383 626.991 386.742 626.314 385.528 625.109C384.315 623.904 383.627 622.267 383.616 620.557L383.176 505.494C383.171 503.906 383.696 502.361 384.667 501.104C385.639 499.847 387.001 498.949 388.54 498.553C390.079 498.156 391.706 498.283 393.164 498.914C394.623 499.545 395.829 500.644 396.593 502.037L433.889 570.014C434.67 571.036 435.746 571.794 436.971 572.186C438.197 572.578 439.513 572.585 440.742 572.206C441.971 571.827 443.055 571.08 443.846 570.066C444.638 569.052 445.099 567.82 445.168 566.536L444.581 488.814C444.56 487.756 444.806 486.709 445.297 485.771C445.788 484.834 446.508 484.035 447.39 483.45L465.21 471.275C465.744 470.91 466.366 470.697 467.012 470.659C467.657 470.62 468.301 470.758 468.873 471.057C469.446 471.357 469.927 471.806 470.264 472.357C470.601 472.909 470.782 473.541 470.787 474.188V620.474C470.787 622.185 470.106 623.827 468.896 625.037C467.685 626.248 466.042 626.928 464.33 626.928H447.369Z" fill="url(#paint2_linear)"/>
<path d="M621.522 626.928C620.036 626.914 618.6 626.39 617.455 625.444C616.31 624.498 615.526 623.187 615.232 621.731L599.949 544.743C599.665 543.145 598.822 541.7 597.57 540.667C596.317 539.635 594.738 539.081 593.115 539.106C591.213 539.109 589.39 539.862 588.041 541.202C587.398 541.856 586.892 542.633 586.553 543.486C586.215 544.338 586.051 545.25 586.071 546.168L586.574 620.369C586.577 621.219 586.412 622.062 586.089 622.849C585.766 623.635 585.291 624.351 584.691 624.954C584.092 625.557 583.379 626.036 582.594 626.364C581.809 626.692 580.967 626.862 580.117 626.865H566.72C565.006 626.865 563.361 626.186 562.147 624.976C560.933 623.766 560.248 622.125 560.242 620.411V412.958C560.243 411.907 560.502 410.872 560.995 409.945C561.489 409.017 562.202 408.224 563.073 407.635L578.083 397.472C578.666 397.062 579.362 396.843 580.075 396.843C580.854 396.838 581.613 397.09 582.235 397.56C582.856 398.03 583.305 398.691 583.513 399.442L607.874 485.608C608.262 487.084 609.134 488.387 610.35 489.31C611.566 490.233 613.056 490.722 614.582 490.7C615.521 490.701 616.451 490.516 617.318 490.156C618.185 489.797 618.972 489.269 619.635 488.605C620.28 487.955 620.788 487.182 621.13 486.333C621.472 485.484 621.641 484.575 621.626 483.659L620.998 371.195C620.997 370.141 621.255 369.103 621.748 368.171C622.241 367.24 622.955 366.443 623.828 365.851L641.752 353.592C642.367 353.167 643.101 352.947 643.849 352.964C644.796 352.964 645.705 353.338 646.376 354.006C647.048 354.673 647.428 355.579 647.434 356.526V620.474C647.434 622.186 646.754 623.827 645.543 625.038C644.332 626.248 642.689 626.928 640.977 626.928H621.522Z" fill="url(#paint3_linear)"/>
<path d="M506.867 626.928C504.982 626.928 503.174 626.18 501.841 624.847C500.508 623.515 499.76 621.708 499.76 619.824V452.94C499.759 451.788 500.039 450.654 500.576 449.635C501.113 448.616 501.891 447.744 502.841 447.093L525.252 431.796C525.867 431.363 526.597 431.122 527.349 431.104C528.385 431.104 529.379 431.514 530.114 432.245C530.848 432.975 531.264 433.967 531.269 435.002V619.824C531.269 621.708 530.52 623.515 529.188 624.847C527.855 626.18 526.047 626.928 524.162 626.928H506.867Z" fill="url(#paint4_linear)"/>
<path d="M603.052 301.268L512.716 239.555C511.827 238.946 510.789 238.591 509.713 238.527C508.637 238.463 507.564 238.694 506.609 239.193C505.654 239.693 504.854 240.444 504.293 241.364C503.733 242.284 503.434 243.34 503.429 244.417C503.64 248.092 504.641 251.679 506.363 254.933C508.085 258.187 510.488 261.033 513.408 263.276L517.349 266.042C519.969 267.831 522.113 270.232 523.595 273.036C525.076 275.841 525.851 278.964 525.851 282.136C525.851 285.307 525.076 288.431 523.595 291.235C522.113 294.04 519.969 296.441 517.349 298.229L435.923 354.053C428.234 359.344 419.447 362.825 410.22 364.237V335.194C410.26 332.831 409.426 330.537 407.879 328.751C406.332 326.964 404.179 325.811 401.834 325.512C400.537 325.384 399.226 325.528 397.987 325.936C396.749 326.343 395.609 327.006 394.641 327.88C393.674 328.754 392.9 329.821 392.37 331.012C391.839 332.203 391.564 333.492 391.562 334.795V364.363C382.173 362.972 373.229 359.445 365.419 354.053L284.349 298.187C281.729 296.399 279.585 293.998 278.104 291.193C276.622 288.389 275.848 285.265 275.848 282.094C275.848 278.922 276.622 275.799 278.104 272.994C279.585 270.19 281.729 267.789 284.349 266.001L288.353 263.276C291.268 261.029 293.665 258.182 295.383 254.928C297.101 251.674 298.1 248.09 298.312 244.417C298.304 243.343 298.004 242.291 297.445 241.374C296.886 240.457 296.088 239.709 295.136 239.21C294.185 238.711 293.116 238.48 292.043 238.54C290.97 238.601 289.934 238.952 289.045 239.555L198.688 301.268C196.068 303.056 193.924 305.457 192.443 308.261C190.961 311.066 190.187 314.189 190.187 317.361C190.187 320.532 190.961 323.656 192.443 326.461C193.924 329.265 196.068 331.666 198.688 333.454L389.822 464.003C393.074 466.235 396.926 467.43 400.87 467.43C404.815 467.43 408.667 466.235 411.918 464.003L603.052 333.454C605.672 331.666 607.816 329.265 609.298 326.461C610.779 323.656 611.554 320.532 611.554 317.361C611.554 314.189 610.779 311.066 609.298 308.261C607.816 305.457 605.672 303.056 603.052 301.268ZM365.88 399.399C364.477 401.806 362.567 403.88 360.283 405.476C357.023 407.699 353.17 408.888 349.224 408.888C345.278 408.888 341.425 407.699 338.165 405.476L231.77 332.805C229.17 331.035 227.058 328.639 225.629 325.838C224.2 323.037 223.5 319.921 223.594 316.778C223.688 313.635 224.573 310.566 226.167 307.855C227.761 305.144 230.012 302.879 232.714 301.268L233.783 300.639C236.975 298.738 240.643 297.788 244.357 297.899C248.07 298.011 251.675 299.179 254.747 301.268L360.199 373.29C364.242 376.144 367.062 380.414 368.099 385.252C369.137 390.089 368.314 395.14 365.796 399.399H365.88ZM412.002 440.764C408.746 442.985 404.896 444.173 400.954 444.173C397.012 444.173 393.162 442.985 389.906 440.764C387.285 438.976 385.142 436.575 383.66 433.771C382.178 430.966 381.404 427.842 381.404 424.671C381.404 421.499 382.178 418.376 383.66 415.571C385.142 412.767 387.285 410.366 389.906 408.578C393.162 406.357 397.012 405.169 400.954 405.169C404.896 405.169 408.746 406.357 412.002 408.578C414.618 410.373 416.756 412.779 418.23 415.588C419.704 418.396 420.47 421.522 420.462 424.693C420.454 427.865 419.671 430.986 418.182 433.787C416.693 436.587 414.543 438.983 411.918 440.764H412.002ZM569.236 333.391L463.68 405.497C460.421 407.72 456.567 408.909 452.621 408.909C448.675 408.909 444.822 407.72 441.562 405.497C439.273 403.906 437.362 401.832 435.965 399.42C433.447 395.161 432.625 390.11 433.662 385.273C434.699 380.435 437.519 376.165 441.562 373.311L546.951 301.33C550.222 299.108 554.086 297.92 558.041 297.92C561.996 297.92 565.86 299.108 569.131 301.33C571.738 303.116 573.869 305.509 575.341 308.303C576.813 311.098 577.581 314.209 577.579 317.366C577.577 320.524 576.805 323.634 575.329 326.427C573.853 329.219 571.719 331.61 569.11 333.391H569.236Z" fill="black"/>
<path d="M628.062 194.796H499.277C496.089 194.797 492.943 195.533 490.085 196.946C487.227 198.36 484.734 200.414 482.799 202.948L456.426 237.649C453.963 240.904 450.779 243.544 447.123 245.362C443.467 247.18 439.44 248.126 435.357 248.126H410.199V205.273C421.29 206.467 432.046 209.79 441.877 215.059C443.81 216.186 446.061 216.64 448.28 216.352C450.499 216.064 452.56 215.049 454.141 213.467C455.123 212.409 455.853 211.142 456.277 209.762C456.7 208.382 456.806 206.923 456.586 205.497C456.367 204.07 455.827 202.711 455.008 201.522C454.188 200.333 453.111 199.345 451.856 198.631C445.519 195.168 438.846 192.36 431.939 190.249C440.776 183.702 447.323 174.537 450.647 164.057C453.972 153.577 453.905 142.316 450.456 131.876C447.008 121.436 440.353 112.35 431.439 105.908C422.525 99.4672 411.806 96 400.807 96C389.808 96 379.089 99.4672 370.175 105.908C361.261 112.35 354.606 121.436 351.158 131.876C347.709 142.316 347.642 153.577 350.967 164.057C354.291 174.537 360.838 183.702 369.675 190.249C363.071 192.258 356.681 194.911 350.597 198.17C348.322 199.302 346.563 201.259 345.679 203.641C344.795 206.023 344.852 208.652 345.838 210.994C346.401 212.19 347.203 213.257 348.197 214.129C349.19 215.001 350.352 215.659 351.611 216.062C352.87 216.465 354.198 216.604 355.514 216.472C356.829 216.339 358.103 215.936 359.255 215.29C369.264 209.869 380.241 206.466 391.562 205.273V248.147H366.404C362.322 248.142 358.296 247.194 354.641 245.377C350.986 243.559 347.801 240.921 345.335 237.67L318.962 202.968C317.029 200.426 314.534 198.365 311.672 196.947C308.809 195.529 305.657 194.793 302.463 194.796H173.677C172.565 194.749 171.48 195.145 170.66 195.898C169.841 196.65 169.354 197.697 169.306 198.809C169.259 199.92 169.656 201.005 170.408 201.824C171.161 202.644 172.209 203.131 173.321 203.178L287.179 211.665C290.115 211.919 292.962 212.799 295.53 214.245C298.097 215.691 300.325 217.669 302.064 220.047L330.765 258.771C333.227 262.088 336.432 264.783 340.124 266.638C343.815 268.494 347.89 269.46 352.023 269.458H391.562V272.895C391.562 275.374 392.547 277.751 394.3 279.503C396.054 281.256 398.432 282.241 400.912 282.241C403.392 282.241 405.77 281.256 407.524 279.503C409.277 277.751 410.262 275.374 410.262 272.895V269.458H449.78C453.913 269.463 457.989 268.499 461.681 266.643C465.373 264.787 468.578 262.091 471.038 258.771L499.718 220.11C501.459 217.734 503.687 215.757 506.254 214.311C508.821 212.866 511.667 211.985 514.603 211.728L628.461 203.325C629.592 203.272 630.656 202.772 631.419 201.935C632.182 201.098 632.581 199.992 632.528 198.861C632.475 197.73 631.975 196.667 631.138 195.904C630.3 195.142 629.194 194.743 628.062 194.796ZM400.891 181.532C394.342 181.519 387.944 179.567 382.505 175.921C377.067 172.276 372.831 167.1 370.333 161.05C367.836 154.999 367.189 148.344 368.474 141.925C369.759 135.507 372.919 129.613 377.554 124.989C382.189 120.365 388.091 117.218 394.515 115.946C400.938 114.673 407.595 115.333 413.644 117.84C419.693 120.348 424.863 124.592 428.5 130.035C432.137 135.479 434.078 141.877 434.078 148.423C434.083 152.782 433.229 157.099 431.563 161.127C429.898 165.155 427.454 168.815 424.371 171.898C421.289 174.981 417.628 177.427 413.599 179.094C409.57 180.761 405.252 181.618 400.891 181.615V181.532Z" fill="black"/>
<path d="M370.597 320.923C377.457 314.95 386.179 311.543 395.273 311.284H400.052C411.709 311.284 422.715 314.176 431.164 321.007C433.968 323.216 437.204 324.813 440.663 325.697C444.121 326.582 447.727 326.733 451.248 326.141C467.265 324.046 477.579 307.575 476.3 291.67C476.166 290.465 475.778 289.302 475.162 288.258C474.545 287.213 473.715 286.311 472.725 285.61C471.735 284.91 470.607 284.426 469.417 284.192C468.227 283.958 467 283.979 465.818 284.252L426.615 292.425C421.54 293.489 416.369 294.023 411.185 294.017H390.409C385.217 294.022 380.039 293.488 374.958 292.425L335.754 284.252C334.572 283.975 333.345 283.952 332.153 284.185C330.961 284.417 329.833 284.9 328.842 285.602C327.851 286.303 327.02 287.206 326.405 288.253C325.789 289.299 325.403 290.464 325.272 291.67C323.972 307.575 334.308 324.088 350.325 326.141C353.881 326.75 357.526 326.6 361.02 325.7C364.514 324.801 367.778 323.173 370.597 320.923Z" fill="url(#paint5_linear)"/>
<path d="M400.87 167.052C411.14 167.052 419.466 158.749 419.466 148.507C419.466 138.264 411.14 129.961 400.87 129.961C390.6 129.961 382.275 138.264 382.275 148.507C382.275 158.749 390.6 167.052 400.87 167.052Z" fill="url(#paint6_linear)"/>
<defs>
<linearGradient id="paint0_linear" x1="195.837" y1="626.823" x2="195.837" y2="357.029" gradientUnits="userSpaceOnUse">
<stop stop-color="#9C0A0E"/>
<stop offset="0.3" stop-color="#C41D1E"/>
<stop offset="0.57" stop-color="#E22C2A"/>
<stop offset="0.72" stop-color="#EE312F"/>
</linearGradient>
<linearGradient id="paint1_linear" x1="28648.2" y1="86507.7" x2="28648.2" y2="70438.4" gradientUnits="userSpaceOnUse">
<stop stop-color="#9C0A0E"/>
<stop offset="0.3" stop-color="#C41D1E"/>
<stop offset="0.57" stop-color="#E22C2A"/>
<stop offset="0.72" stop-color="#EE312F"/>
</linearGradient>
<linearGradient id="paint2_linear" x1="33054.1" y1="73671.3" x2="33054.1" y2="62011.6" gradientUnits="userSpaceOnUse">
<stop stop-color="#9C0A0E"/>
<stop offset="0.3" stop-color="#C41D1E"/>
<stop offset="0.57" stop-color="#E22C2A"/>
<stop offset="0.72" stop-color="#EE312F"/>
</linearGradient>
<linearGradient id="paint3_linear" x1="40426.8" y1="128629" x2="40426.8" y2="92821.7" gradientUnits="userSpaceOnUse">
<stop stop-color="#9C0A0E"/>
<stop offset="0.3" stop-color="#C41D1E"/>
<stop offset="0.57" stop-color="#E22C2A"/>
<stop offset="0.72" stop-color="#EE312F"/>
</linearGradient>
<linearGradient id="paint4_linear" x1="13580.4" y1="92119.6" x2="13580.4" y2="73819.9" gradientUnits="userSpaceOnUse">
<stop stop-color="#9C0A0E"/>
<stop offset="0.3" stop-color="#C41D1E"/>
<stop offset="0.57" stop-color="#E22C2A"/>
<stop offset="0.72" stop-color="#EE312F"/>
</linearGradient>
<linearGradient id="paint5_linear" x1="400.87" y1="326.414" x2="400.87" y2="284.064" gradientUnits="userSpaceOnUse">
<stop offset="0.3" stop-color="#EE312F"/>
<stop offset="0.42" stop-color="#E92E2D"/>
<stop offset="0.58" stop-color="#D92727"/>
<stop offset="0.75" stop-color="#C01B1C"/>
<stop offset="0.93" stop-color="#9C0A0E"/>
</linearGradient>
<linearGradient id="paint6_linear" x1="13787.4" y1="9356.88" x2="13787.4" y2="8700.01" gradientUnits="userSpaceOnUse">
<stop offset="0.3" stop-color="#EE312F"/>
<stop offset="0.42" stop-color="#E92E2D"/>
<stop offset="0.58" stop-color="#D92727"/>
<stop offset="0.75" stop-color="#C01B1C"/>
<stop offset="0.93" stop-color="#9C0A0E"/>
</linearGradient>
</defs>
</svg>
