<svg width="713" height="876" viewBox="0 0 713 876" fill="none" xmlns="http://www.w3.org/2000/svg">
<path d="M24.7383 822.44C37.8173 822.44 42.3783 828.478 42.3783 838.442V846.05C42.3783 856.043 37.8173 862.051 24.7383 862.051H16.1297V875.215H0V822.44H24.7383ZM16.1297 848.827H21.9594C25.2216 848.827 26.2486 847.559 26.2486 844.933V839.468C26.2486 836.872 25.2216 835.604 21.9594 835.604H16.1297V848.827Z" fill="#010101"/>
<path d="M64.0959 858.579V839.076C64.0959 828.931 70.7109 821.655 85.4814 821.655C100.252 821.655 106.867 828.931 106.867 839.076V858.579C106.867 868.724 100.252 876 85.4814 876C70.7109 876 64.0959 868.724 64.0959 858.579ZM90.5861 839.076C90.5861 836.479 89.0758 834.819 85.4814 834.819C81.8869 834.819 80.3766 836.479 80.3766 839.076V858.579C80.3766 861.176 81.8869 862.836 85.4814 862.836C89.0758 862.836 90.5861 861.176 90.5861 858.579V839.076Z" fill="#010101"/>
<path d="M129.884 822.44H146.013V875.215H129.884V822.44Z" fill="#010101"/>
<path d="M170.057 822.44H187.455L201.44 848.737V822.44H216.845V875.215H199.507L185.462 848.827V875.124H170.057V822.44Z" fill="#010101"/>
<path d="M251.249 835.604H238.623V822.44H280.277V835.604H267.5V875.215H251.4L251.249 835.604Z" fill="#010101"/>
<path d="M333.771 858.579V839.076C333.771 828.931 340.385 821.655 355.156 821.655C369.926 821.655 376.541 828.931 376.541 839.076V858.579C376.541 868.724 369.926 876 355.156 876C340.385 876 333.771 868.724 333.771 858.579ZM360.261 839.076C360.261 836.479 358.75 834.819 355.156 834.819C351.561 834.819 350.051 836.479 350.051 839.076V858.579C350.051 861.176 351.561 862.836 355.156 862.836C358.75 862.836 360.261 861.176 360.261 858.579V839.076Z" fill="#010101"/>
<path d="M399.437 875.215V822.44H435.442V835.362H415.567V843.453H433.69V856.345H415.567V875.215H399.437Z" fill="#010101"/>
<path d="M489.329 873.162L491.956 860.934C496.984 862.446 502.202 863.229 507.452 863.259C511.59 863.259 512.798 862.625 512.798 859.847C512.798 857.07 512.375 856.587 505.609 855.56C492.742 853.568 489.631 851.364 489.631 838.834C489.631 825.61 495.068 821.655 509.506 821.655C515 821.545 520.482 822.216 525.787 823.648L524.125 836.147C519.613 835.125 515.008 834.569 510.382 834.487C506.485 834.487 505.76 835.03 505.76 837.355C505.76 839.679 505.911 840.193 512.617 841.461C526.451 844.087 528.898 846.925 528.898 858.64C528.898 870.716 523.159 876 508.569 876C502.052 875.992 495.571 875.036 489.329 873.162Z" fill="#010101"/>
<path d="M598.249 875.215H581.395L579.582 866.58H565.99L564.178 875.215H547.323L562.184 822.44H583.328L598.249 875.215ZM568.708 853.749H576.924L572.847 834.486L568.708 853.749Z" fill="#010101"/>
<path d="M619.394 822.44H635.523V862.051H654.522V875.215H619.394V822.44Z" fill="#010101"/>
<path d="M676.603 822.44H712.849V835.362H692.823V841.612H711.188V854.534H692.823V862.293H712.849V875.215H676.603V822.44Z" fill="#010101"/>
<path d="M87.5959 764.804C85.3661 764.804 83.2271 763.921 81.6476 762.348C80.068 760.775 79.1766 758.64 79.1686 756.411V639.147C79.1526 634.177 77.1661 629.416 73.6444 625.907C70.1228 622.398 65.3532 620.428 60.3808 620.428C56.4655 620.444 52.7146 622.004 49.9433 624.768C47.1719 627.532 45.604 631.278 45.5801 635.192V756.411C45.5642 758.637 44.6703 760.768 43.0925 762.339C41.5146 763.911 39.3802 764.797 37.1528 764.804H8.45762C6.22778 764.804 4.08883 763.921 2.50926 762.348C0.929699 760.775 0.0382657 758.64 0.0302734 756.411V389.01C0.0462134 385.582 1.41755 382.3 3.84509 379.879C6.27262 377.459 9.5594 376.096 12.9884 376.088C15.5945 376.108 18.133 376.918 20.268 378.412L88.3511 425.179C118.406 445.679 124.296 451.476 124.296 472.187V558.264C124.296 574.899 119.916 585.436 110.462 591.474C109.149 592.312 108.083 593.483 107.371 594.867C106.66 596.252 106.33 597.8 106.414 599.354C106.481 600.888 106.955 602.377 107.789 603.666C108.622 604.956 109.785 606 111.156 606.691C120.641 611.431 124.688 619.855 124.688 634.86V756.441C124.68 758.665 123.793 760.795 122.22 762.367C120.647 763.94 118.516 764.827 116.291 764.835L87.5959 764.804ZM63.1295 457.484C58.5147 457.46 54.078 459.263 50.7895 462.499C47.5009 465.735 45.628 470.141 45.5801 474.754V564.483C45.5642 566.639 45.9908 568.775 46.8338 570.759C47.6767 572.744 48.918 574.534 50.4808 576.02C52.0436 577.505 53.8947 578.655 55.9197 579.397C57.9446 580.139 60.1003 580.458 62.2535 580.334C66.292 580.386 70.2227 579.03 73.3692 576.499C75.1083 575.045 76.4974 573.218 77.4334 571.153C78.3694 569.088 78.8282 566.84 78.7759 564.574V470.98C78.7116 469.063 78.1383 467.198 77.1146 465.575C75.7232 463.091 73.6867 461.028 71.2199 459.604C68.7532 458.18 65.9477 457.447 63.0993 457.484H63.1295Z" fill="url(#paint0_linear)"/>
<path d="M210.472 767.31C178.726 767.31 163.955 752.577 163.955 720.936V535.016C163.971 530.783 164.822 526.595 166.458 522.69C168.094 518.786 170.484 515.242 173.491 512.262C176.498 509.281 180.064 506.922 183.983 505.32C187.903 503.717 192.101 502.902 196.336 502.922C202.813 502.929 209.135 504.909 214.459 508.598L263.09 541.809C272.224 548.042 279.698 556.41 284.862 566.186C290.026 575.962 292.724 586.85 292.721 597.905V716.89C292.721 723.524 291.412 730.093 288.867 736.22C286.323 742.347 282.593 747.912 277.893 752.596C273.193 757.28 267.615 760.991 261.477 763.516C255.34 766.041 248.764 767.33 242.127 767.31H210.472ZM221.074 559.894C214.368 559.894 209.505 565.781 209.505 573.903V711.063C209.7 715.91 211.763 720.493 215.262 723.853C218.761 727.213 223.425 729.09 228.278 729.09C233.13 729.09 237.795 727.213 241.294 723.853C244.793 720.493 246.856 715.91 247.051 711.063V585.919C247.051 578.764 245.359 573.239 236.932 567.804L226.662 561.222L226.33 561.071C224.682 560.309 222.89 559.908 221.074 559.894Z" fill="url(#paint1_linear)"/>
<path d="M424.749 764.955C423.408 764.956 422.082 764.668 420.863 764.11C419.643 763.553 418.558 762.739 417.681 761.725L390.496 721.811C384.908 713.237 370.168 717.343 370.621 727.85L370.802 755.596C370.818 756.829 370.59 758.052 370.13 759.196C369.67 760.34 368.987 761.381 368.122 762.26C367.257 763.139 366.226 763.837 365.09 764.316C363.953 764.794 362.732 765.042 361.499 765.046H342.228C339.763 765.046 337.398 764.071 335.649 762.335C333.901 760.598 332.91 758.241 332.894 755.777L332.26 589.995C332.253 587.706 333.009 585.481 334.409 583.67C335.808 581.859 337.772 580.565 339.989 579.994C342.206 579.423 344.55 579.606 346.651 580.515C348.752 581.424 350.491 583.007 351.592 585.013L405.327 682.955C406.452 684.427 408.002 685.52 409.767 686.084C411.533 686.649 413.429 686.659 415.201 686.113C416.972 685.566 418.533 684.49 419.673 683.029C420.814 681.569 421.478 679.793 421.578 677.943L420.732 565.962C420.701 564.438 421.056 562.93 421.763 561.579C422.471 560.228 423.508 559.077 424.779 558.233L450.454 540.692C451.223 540.166 452.12 539.859 453.05 539.804C453.979 539.749 454.907 539.948 455.732 540.379C456.558 540.81 457.25 541.457 457.736 542.252C458.221 543.046 458.482 543.958 458.489 544.889V755.656C458.489 758.122 457.508 760.488 455.764 762.232C454.019 763.976 451.653 764.955 449.185 764.955H424.749Z" fill="url(#paint2_linear)"/>
<path d="M675.666 764.955C673.526 764.935 671.457 764.18 669.808 762.817C668.158 761.454 667.027 759.565 666.605 757.468L644.585 646.544C644.176 644.242 642.961 642.16 641.156 640.672C639.352 639.184 637.077 638.386 634.738 638.422C631.998 638.426 629.371 639.511 627.428 641.442C626.501 642.384 625.772 643.503 625.284 644.732C624.797 645.961 624.56 647.275 624.589 648.597L625.314 755.505C625.318 756.73 625.08 757.944 624.615 759.078C624.149 760.211 623.465 761.242 622.601 762.111C621.737 762.98 620.711 763.671 619.58 764.143C618.449 764.616 617.236 764.861 616.01 764.865H596.709C594.239 764.865 591.869 763.886 590.12 762.143C588.37 760.4 587.383 758.035 587.375 755.566V456.669C587.377 455.155 587.749 453.665 588.46 452.328C589.171 450.991 590.199 449.849 591.453 449L613.08 434.357C613.921 433.767 614.923 433.451 615.95 433.452C617.073 433.444 618.166 433.807 619.062 434.484C619.957 435.161 620.605 436.114 620.904 437.195L656.002 561.343C656.562 563.47 657.818 565.347 659.57 566.677C661.322 568.007 663.469 568.712 665.668 568.68C667.021 568.68 668.36 568.414 669.609 567.896C670.858 567.378 671.993 566.618 672.948 565.661C673.877 564.724 674.609 563.611 675.102 562.387C675.594 561.164 675.838 559.854 675.817 558.535L674.911 396.497C674.91 394.979 675.281 393.483 675.992 392.141C676.703 390.799 677.732 389.651 678.989 388.798L704.814 371.136C705.7 370.523 706.758 370.206 707.835 370.23C709.2 370.23 710.509 370.77 711.477 371.732C712.444 372.694 712.992 373.999 713 375.363V755.656C713 758.123 712.02 760.488 710.275 762.232C708.531 763.976 706.164 764.955 703.697 764.955H675.666Z" fill="url(#paint3_linear)"/>
<path d="M510.472 764.955C507.756 764.955 505.152 763.877 503.232 761.958C501.311 760.038 500.232 757.435 500.232 754.72V514.274C500.232 512.615 500.636 510.981 501.409 509.513C502.183 508.046 503.303 506.789 504.673 505.851L536.962 483.811C537.848 483.187 538.899 482.84 539.983 482.815C541.476 482.815 542.908 483.406 543.966 484.458C545.025 485.51 545.623 486.938 545.631 488.431V754.72C545.631 757.435 544.552 760.038 542.632 761.958C540.712 763.877 538.107 764.955 535.392 764.955H510.472Z" fill="url(#paint4_linear)"/>
<path d="M649.055 295.748L518.9 206.833C517.619 205.956 516.123 205.444 514.573 205.352C513.023 205.26 511.477 205.592 510.101 206.312C508.725 207.032 507.572 208.113 506.765 209.439C505.957 210.765 505.527 212.286 505.519 213.838C505.824 219.133 507.266 224.301 509.747 228.989C512.228 233.678 515.69 237.778 519.897 241.01L525.575 244.996C529.35 247.573 532.439 251.031 534.574 255.072C536.708 259.113 537.824 263.613 537.824 268.183C537.824 272.752 536.708 277.253 534.574 281.293C532.439 285.334 529.35 288.793 525.575 291.37L408.257 371.8C397.18 379.423 384.519 384.439 371.225 386.473V344.628C371.282 341.224 370.081 337.919 367.852 335.345C365.622 332.771 362.522 331.11 359.143 330.679C357.273 330.494 355.385 330.702 353.6 331.289C351.815 331.877 350.173 332.831 348.78 334.091C347.386 335.35 346.271 336.887 345.507 338.603C344.742 340.319 344.346 342.176 344.342 344.054V386.655C330.815 384.651 317.928 379.569 306.676 371.8L189.872 291.309C186.096 288.733 183.008 285.274 180.873 281.233C178.738 277.192 177.623 272.692 177.623 268.122C177.623 263.553 178.738 259.053 180.873 255.012C183.008 250.971 186.096 247.512 189.872 244.935L195.641 241.01C199.839 237.772 203.293 233.67 205.769 228.982C208.244 224.294 209.683 219.13 209.988 213.838C209.977 212.291 209.545 210.775 208.74 209.454C207.934 208.133 206.784 207.055 205.413 206.336C204.043 205.617 202.502 205.283 200.957 205.371C199.411 205.459 197.918 205.964 196.638 206.833L66.4522 295.748C62.677 298.325 59.5881 301.784 57.4535 305.824C55.3189 309.865 54.2031 314.365 54.2031 318.935C54.2031 323.504 55.3189 328.005 57.4535 332.045C59.5881 336.086 62.677 339.545 66.4522 342.122L341.835 530.216C346.521 533.431 352.07 535.152 357.754 535.152C363.437 535.152 368.987 533.431 373.672 530.216L649.055 342.122C652.83 339.545 655.919 336.086 658.054 332.045C660.188 328.005 661.304 323.504 661.304 318.935C661.304 314.365 660.188 309.865 658.054 305.824C655.919 301.784 652.83 298.325 649.055 295.748ZM307.341 437.135C305.318 440.603 302.567 443.59 299.276 445.89C294.58 449.093 289.027 450.806 283.342 450.806C277.658 450.806 272.105 449.093 267.409 445.89L114.116 341.186C110.37 338.636 107.327 335.184 105.268 331.148C103.209 327.112 102.2 322.623 102.336 318.094C102.471 313.566 103.746 309.145 106.043 305.239C108.339 301.333 111.583 298.069 115.476 295.748L117.016 294.842C121.615 292.104 126.9 290.734 132.251 290.895C137.602 291.055 142.795 292.739 147.222 295.748L299.155 399.516C304.98 403.628 309.044 409.781 310.538 416.751C312.032 423.721 310.848 430.998 307.22 437.135H307.341ZM373.793 496.733C369.101 499.933 363.554 501.644 357.875 501.644C352.195 501.644 346.648 499.933 341.956 496.733C338.181 494.156 335.092 490.697 332.957 486.657C330.823 482.616 329.707 478.115 329.707 473.546C329.707 468.977 330.823 464.476 332.957 460.435C335.092 456.395 338.181 452.936 341.956 450.359C346.648 447.159 352.195 445.448 357.875 445.448C363.554 445.448 369.101 447.159 373.793 450.359C377.561 452.946 380.641 456.413 382.765 460.459C384.889 464.505 385.993 469.008 385.981 473.578C385.97 478.147 384.842 482.645 382.697 486.68C380.552 490.715 377.454 494.166 373.672 496.733H373.793ZM600.334 342.031L448.249 445.921C443.553 449.123 438.001 450.836 432.316 450.836C426.631 450.836 421.078 449.123 416.382 445.921C413.085 443.628 410.331 440.639 408.318 437.165C404.69 431.028 403.505 423.751 404.999 416.781C406.494 409.811 410.557 403.659 416.382 399.546L568.225 295.838C572.938 292.636 578.505 290.924 584.204 290.924C589.903 290.924 595.47 292.636 600.183 295.838C603.938 298.41 607.008 301.859 609.129 305.885C611.25 309.911 612.357 314.393 612.354 318.943C612.351 323.493 611.238 327.973 609.112 331.997C606.986 336.02 603.911 339.464 600.153 342.031H600.334Z" fill="black"/>
<path d="M685.09 142.344H499.538C494.944 142.345 490.411 143.405 486.294 145.442C482.176 147.479 478.584 150.438 475.796 154.089L437.798 204.086C434.25 208.776 429.662 212.58 424.394 215.2C419.127 217.819 413.324 219.182 407.442 219.182H371.195V157.44C387.175 159.16 402.672 163.947 416.835 171.54C419.62 173.162 422.865 173.817 426.062 173.402C429.258 172.987 432.228 171.525 434.506 169.245C435.921 167.72 436.973 165.895 437.583 163.907C438.193 161.918 438.346 159.817 438.029 157.762C437.712 155.706 436.935 153.748 435.755 152.035C434.574 150.322 433.022 148.898 431.213 147.869C422.083 142.881 412.468 138.835 402.518 135.793C415.25 126.361 424.682 113.156 429.472 98.0563C434.262 82.9568 434.166 66.732 429.197 51.6903C424.229 36.6486 414.641 23.5562 401.798 14.2759C388.954 4.99554 373.511 0 357.663 0C341.815 0 326.371 4.99554 313.528 14.2759C300.685 23.5562 291.097 36.6486 286.129 51.6903C281.16 66.732 281.064 82.9568 285.854 98.0563C290.644 113.156 300.076 126.361 312.808 135.793C303.294 138.688 294.087 142.51 285.321 147.205C282.042 148.837 279.509 151.656 278.235 155.088C276.962 158.52 277.044 162.308 278.464 165.682C279.274 167.405 280.431 168.943 281.862 170.199C283.293 171.455 284.968 172.403 286.782 172.984C288.596 173.565 290.51 173.765 292.405 173.574C294.3 173.383 296.135 172.803 297.796 171.872C312.216 164.062 328.031 159.158 344.342 157.44V219.212H308.096C302.214 219.205 296.413 217.839 291.147 215.22C285.881 212.602 281.293 208.801 277.739 204.116L239.741 154.119C236.957 150.455 233.362 147.486 229.237 145.443C225.113 143.4 220.572 142.339 215.969 142.344H30.4168C28.8146 142.276 27.251 142.847 26.0699 143.931C24.8888 145.016 24.1871 146.525 24.119 148.126C24.0509 149.727 24.6221 151.29 25.7068 152.471C26.7916 153.651 28.3011 154.353 29.9033 154.421L193.949 166.648C198.179 167.015 202.281 168.283 205.98 170.366C209.679 172.449 212.889 175.299 215.395 178.725L256.746 234.519C260.294 239.298 264.912 243.18 270.231 245.854C275.55 248.528 281.421 249.919 287.375 249.917H344.342V254.868C344.342 258.44 345.762 261.865 348.288 264.39C350.814 266.915 354.241 268.334 357.814 268.334C361.387 268.334 364.813 266.915 367.34 264.39C369.866 261.865 371.286 258.44 371.286 254.868V249.917H428.223C434.177 249.924 440.05 248.535 445.37 245.86C450.689 243.186 455.307 239.302 458.851 234.519L500.172 178.816C502.681 175.393 505.892 172.544 509.59 170.462C513.289 168.379 517.389 167.11 521.618 166.739L685.664 154.632C687.294 154.556 688.828 153.836 689.926 152.63C691.025 151.424 691.6 149.831 691.524 148.201C691.448 146.572 690.727 145.039 689.521 143.941C688.314 142.843 686.72 142.268 685.09 142.344ZM357.784 123.233C348.349 123.215 339.13 120.402 331.294 115.15C323.458 109.897 317.355 102.441 313.757 93.7226C310.158 85.0046 309.226 75.416 311.078 66.1685C312.93 56.9211 317.482 48.4297 324.16 41.7675C330.838 35.1052 339.342 30.5709 348.597 28.7376C357.852 26.9043 367.443 27.8543 376.159 31.4674C384.874 35.0806 392.322 41.1948 397.562 49.0375C402.802 56.8802 405.599 66.0994 405.599 75.5303C405.607 81.8102 404.376 88.0301 401.976 93.8339C399.576 99.6378 396.055 104.912 391.614 109.354C387.172 113.796 381.898 117.319 376.094 119.721C370.289 122.123 364.067 123.358 357.784 123.354V123.233Z" fill="black"/>
<path d="M314.137 324.068C324.02 315.461 336.586 310.552 349.689 310.179H356.576C373.37 310.179 389.228 314.346 401.401 324.188C405.441 327.37 410.103 329.672 415.086 330.946C420.07 332.22 425.265 332.437 430.337 331.585C453.414 328.566 468.275 304.835 466.433 281.92C466.239 280.184 465.68 278.508 464.792 277.003C463.904 275.498 462.707 274.198 461.281 273.189C459.854 272.179 458.23 271.483 456.515 271.146C454.8 270.808 453.033 270.838 451.33 271.232L394.846 283.007C387.535 284.541 380.085 285.31 372.615 285.302H342.681C335.201 285.308 327.741 284.539 320.42 283.007L263.935 271.232C262.232 270.833 260.464 270.8 258.747 271.135C257.03 271.47 255.404 272.166 253.976 273.176C252.548 274.187 251.351 275.489 250.465 276.996C249.578 278.503 249.022 280.182 248.833 281.92C246.96 304.835 261.851 328.626 284.928 331.585C290.052 332.462 295.303 332.246 300.337 330.95C305.371 329.654 310.074 327.309 314.137 324.068Z" fill="url(#paint5_linear)"/>
<path d="M357.754 102.371C372.551 102.371 384.546 90.4078 384.546 75.651C384.546 60.8942 372.551 48.9314 357.754 48.9314C342.957 48.9314 330.961 60.8942 330.961 75.651C330.961 90.4078 342.957 102.371 357.754 102.371Z" fill="url(#paint6_linear)"/>
<defs>
<linearGradient id="paint0_linear" x1="62.3442" y1="764.804" x2="62.3442" y2="376.088" gradientUnits="userSpaceOnUse">
<stop stop-color="#9C0A0E"/>
<stop offset="0.3" stop-color="#C41D1E"/>
<stop offset="0.57" stop-color="#E22C2A"/>
<stop offset="0.72" stop-color="#EE312F"/>
</linearGradient>
<linearGradient id="paint1_linear" x1="41056.2" y1="124501" x2="41056.2" y2="101349" gradientUnits="userSpaceOnUse">
<stop stop-color="#9C0A0E"/>
<stop offset="0.3" stop-color="#C41D1E"/>
<stop offset="0.57" stop-color="#E22C2A"/>
<stop offset="0.72" stop-color="#EE312F"/>
</linearGradient>
<linearGradient id="paint2_linear" x1="47404.2" y1="106007" x2="47404.2" y2="89207.4" gradientUnits="userSpaceOnUse">
<stop stop-color="#9C0A0E"/>
<stop offset="0.3" stop-color="#C41D1E"/>
<stop offset="0.57" stop-color="#E22C2A"/>
<stop offset="0.72" stop-color="#EE312F"/>
</linearGradient>
<linearGradient id="paint3_linear" x1="58026.7" y1="185189" x2="58026.7" y2="133598" gradientUnits="userSpaceOnUse">
<stop stop-color="#9C0A0E"/>
<stop offset="0.3" stop-color="#C41D1E"/>
<stop offset="0.57" stop-color="#E22C2A"/>
<stop offset="0.72" stop-color="#EE312F"/>
</linearGradient>
<linearGradient id="paint4_linear" x1="19346.7" y1="132587" x2="19346.7" y2="106221" gradientUnits="userSpaceOnUse">
<stop stop-color="#9C0A0E"/>
<stop offset="0.3" stop-color="#C41D1E"/>
<stop offset="0.57" stop-color="#E22C2A"/>
<stop offset="0.72" stop-color="#EE312F"/>
</linearGradient>
<linearGradient id="paint5_linear" x1="357.754" y1="331.978" x2="357.754" y2="270.96" gradientUnits="userSpaceOnUse">
<stop offset="0.3" stop-color="#EE312F"/>
<stop offset="0.42" stop-color="#E92E2D"/>
<stop offset="0.58" stop-color="#D92727"/>
<stop offset="0.75" stop-color="#C01B1C"/>
<stop offset="0.93" stop-color="#9C0A0E"/>
</linearGradient>
<linearGradient id="paint6_linear" x1="19644.9" y1="13343" x2="19644.9" y2="12396.6" gradientUnits="userSpaceOnUse">
<stop offset="0.3" stop-color="#EE312F"/>
<stop offset="0.42" stop-color="#E92E2D"/>
<stop offset="0.58" stop-color="#D92727"/>
<stop offset="0.75" stop-color="#C01B1C"/>
<stop offset="0.93" stop-color="#9C0A0E"/>
</linearGradient>
</defs>
</svg>
