<svg width="203" height="249" viewBox="0 0 203 249" fill="none" xmlns="http://www.w3.org/2000/svg">
<path d="M7.19779 233.775C10.9154 233.775 12.2119 235.492 12.2119 238.324V240.486C12.2119 243.327 10.9154 245.035 7.19779 245.035H4.75083V248.776H0.166016V233.775H7.19779ZM4.75083 241.276H6.4079C7.33516 241.276 7.62708 240.915 7.62708 240.169V238.616C7.62708 237.878 7.33516 237.517 6.4079 237.517H4.75083V241.276Z" fill="#010101"/>
<path d="M18.385 244.048V238.504C18.385 235.621 20.2653 233.553 24.4637 233.553C28.6622 233.553 30.5425 235.621 30.5425 238.504V244.048C30.5425 246.932 28.6622 249 24.4637 249C20.2653 249 18.385 246.932 18.385 244.048ZM25.9147 238.504C25.9147 237.766 25.4855 237.294 24.4637 237.294C23.442 237.294 23.0127 237.766 23.0127 238.504V244.048C23.0127 244.786 23.442 245.258 24.4637 245.258C25.4855 245.258 25.9147 244.786 25.9147 244.048V238.504Z" fill="#010101"/>
<path d="M37.085 233.775H41.6698V248.776H37.085V233.775Z" fill="#010101"/>
<path d="M48.5042 233.775H53.4496L57.4248 241.25V233.775H61.8036V248.776H56.8753L52.8829 241.276V248.751H48.5042V233.775Z" fill="#010101"/>
<path d="M71.5828 237.517H67.9939V233.775H79.8337V237.517H76.2019V248.776H71.6257L71.5828 237.517Z" fill="#010101"/>
<path d="M95.0391 244.048V238.504C95.0391 235.621 96.9193 233.553 101.118 233.553C105.316 233.553 107.197 235.621 107.197 238.504V244.048C107.197 246.932 105.316 249 101.118 249C96.9193 249 95.0391 246.932 95.0391 244.048ZM102.569 238.504C102.569 237.766 102.14 237.294 101.118 237.294C100.096 237.294 99.6668 237.766 99.6668 238.504V244.048C99.6668 244.786 100.096 245.258 101.118 245.258C102.14 245.258 102.569 244.786 102.569 244.048V238.504Z" fill="#010101"/>
<path d="M113.705 248.776V233.775H123.939V237.448H118.289V239.748H123.441V243.413H118.289V248.776H113.705Z" fill="#010101"/>
<path d="M139.256 248.194L140.003 244.718C141.432 245.148 142.915 245.37 144.407 245.379C145.584 245.379 145.927 245.199 145.927 244.409C145.927 243.62 145.807 243.482 143.884 243.191C140.226 242.624 139.342 241.998 139.342 238.436C139.342 234.677 140.887 233.553 144.991 233.553C146.553 233.522 148.111 233.713 149.619 234.12L149.147 237.672C147.864 237.382 146.555 237.224 145.24 237.2C144.133 237.2 143.927 237.355 143.927 238.016C143.927 238.676 143.969 238.822 145.876 239.183C149.808 239.929 150.503 240.736 150.503 244.066C150.503 247.499 148.872 249 144.725 249C142.872 248.998 141.03 248.726 139.256 248.194Z" fill="#010101"/>
<path d="M170.216 248.776H165.426L164.91 246.322H161.047L160.532 248.776H155.741L159.965 233.775H165.975L170.216 248.776ZM161.819 242.675H164.155L162.996 237.2L161.819 242.675Z" fill="#010101"/>
<path d="M176.226 233.775H180.811V245.035H186.212V248.776H176.226V233.775Z" fill="#010101"/>
<path d="M192.488 233.775H202.791V237.448H197.099V239.225H202.319V242.898H197.099V245.103H202.791V248.776H192.488V233.775Z" fill="#010101"/>
<path d="M25.0648 217.393C24.431 217.393 23.823 217.142 23.374 216.694C22.925 216.247 22.6716 215.641 22.6694 215.007V181.675C22.6648 180.262 22.1002 178.909 21.0991 177.912C20.0981 176.914 18.7424 176.354 17.329 176.354C16.2161 176.359 15.1499 176.802 14.3622 177.588C13.5744 178.374 13.1287 179.438 13.1219 180.551V215.007C13.1174 215.64 12.8633 216.245 12.4148 216.692C11.9663 217.139 11.3597 217.391 10.7265 217.393H2.57001C1.93618 217.393 1.32819 217.142 0.879205 216.694C0.430219 216.247 0.176832 215.641 0.174561 215.007V110.574C0.179091 109.6 0.568889 108.667 1.25891 107.979C1.94893 107.291 2.88318 106.904 3.85788 106.901C4.59864 106.907 5.32019 107.138 5.92706 107.562L25.2794 120.855C33.8223 126.683 35.4965 128.33 35.4965 134.217V158.684C35.4965 163.413 34.2516 166.408 31.5643 168.124C31.1912 168.362 30.8881 168.695 30.6859 169.089C30.4838 169.482 30.3899 169.922 30.4138 170.364C30.4327 170.8 30.5675 171.223 30.8045 171.59C31.0414 171.956 31.3718 172.253 31.7617 172.45C34.4577 173.797 35.6082 176.191 35.6082 180.456V215.016C35.6059 215.648 35.3537 216.253 34.9066 216.7C34.4595 217.147 33.8536 217.399 33.2213 217.401L25.0648 217.393ZM18.1103 130.038C16.7986 130.031 15.5375 130.544 14.6027 131.464C13.6679 132.383 13.1355 133.636 13.1219 134.947V160.452C13.1174 161.065 13.2387 161.672 13.4783 162.236C13.7179 162.8 14.0707 163.309 14.5149 163.731C14.9592 164.154 15.4853 164.48 16.0609 164.691C16.6365 164.902 17.2493 164.993 17.8613 164.958C19.0092 164.973 20.1265 164.587 21.0209 163.868C21.5152 163.454 21.9101 162.935 22.1761 162.348C22.4422 161.761 22.5726 161.122 22.5577 160.478V133.874C22.5395 133.329 22.3765 132.799 22.0855 132.338C21.69 131.632 21.1111 131.045 20.41 130.641C19.7088 130.236 18.9114 130.028 18.1017 130.038H18.1103Z" fill="url(#paint0_linear)"/>
<path d="M59.9919 218.106C50.9682 218.106 46.7698 213.918 46.7698 204.924V152.077C46.7743 150.874 47.016 149.683 47.4811 148.573C47.9462 147.463 48.6255 146.456 49.4803 145.609C50.3351 144.762 51.3485 144.091 52.4627 143.636C53.5769 143.18 54.77 142.949 55.9738 142.954C57.8151 142.956 59.612 143.519 61.1252 144.568L74.9484 154.008C77.5448 155.779 79.6693 158.158 81.1371 160.937C82.6049 163.715 83.3718 166.81 83.371 169.953V203.774C83.3711 205.66 82.9988 207.527 82.2755 209.268C81.5523 211.01 80.4923 212.592 79.1563 213.923C77.8203 215.254 76.2346 216.309 74.49 217.027C72.7455 217.745 70.8764 218.111 68.9898 218.106H59.9919ZM63.0055 159.148C61.0995 159.148 59.7171 160.822 59.7171 163.13V202.118C59.7724 203.495 60.3588 204.798 61.3535 205.753C62.3482 206.708 63.674 207.241 65.0532 207.241C66.4325 207.241 67.7583 206.708 68.753 205.753C69.7477 204.798 70.334 203.495 70.3893 202.118V166.546C70.3893 164.512 69.9085 162.941 67.5131 161.397L64.5939 159.526L64.4994 159.483C64.031 159.266 63.5217 159.152 63.0055 159.148Z" fill="url(#paint1_linear)"/>
<path d="M120.9 217.436C120.518 217.436 120.142 217.354 119.795 217.195C119.448 217.037 119.14 216.806 118.891 216.517L111.163 205.172C109.575 202.735 105.385 203.902 105.514 206.888L105.565 214.775C105.57 215.126 105.505 215.473 105.374 215.799C105.243 216.124 105.049 216.42 104.804 216.669C104.558 216.919 104.265 217.118 103.942 217.254C103.618 217.39 103.272 217.46 102.921 217.461H97.4432C96.7425 217.461 96.0703 217.184 95.5733 216.691C95.0762 216.197 94.7947 215.527 94.7902 214.827L94.6099 167.704C94.6079 167.053 94.8228 166.421 95.2206 165.906C95.6184 165.391 96.1765 165.023 96.8067 164.861C97.4369 164.698 98.1033 164.751 98.7005 165.009C99.2978 165.267 99.7919 165.717 100.105 166.288L115.379 194.127C115.699 194.546 116.139 194.856 116.641 195.017C117.143 195.177 117.682 195.18 118.185 195.025C118.689 194.87 119.133 194.564 119.457 194.148C119.781 193.733 119.97 193.229 119.998 192.703L119.758 160.873C119.749 160.439 119.85 160.011 120.051 159.626C120.252 159.242 120.547 158.915 120.908 158.676L128.206 153.689C128.425 153.54 128.68 153.453 128.944 153.437C129.208 153.421 129.472 153.478 129.706 153.6C129.941 153.723 130.138 153.907 130.276 154.133C130.414 154.359 130.488 154.618 130.49 154.882V214.792C130.49 215.493 130.211 216.166 129.715 216.661C129.219 217.157 128.547 217.436 127.846 217.436H120.9Z" fill="url(#paint2_linear)"/>
<path d="M192.222 217.436C191.613 217.43 191.025 217.216 190.557 216.828C190.088 216.441 189.766 215.904 189.646 215.308L183.387 183.778C183.271 183.123 182.925 182.532 182.413 182.109C181.9 181.686 181.253 181.459 180.588 181.469C179.809 181.47 179.063 181.779 178.51 182.327C178.247 182.596 178.04 182.914 177.901 183.263C177.762 183.612 177.695 183.986 177.703 184.361L177.909 214.75C177.91 215.098 177.843 215.443 177.711 215.765C177.578 216.087 177.384 216.38 177.138 216.627C176.893 216.874 176.601 217.071 176.279 217.205C175.958 217.339 175.613 217.409 175.265 217.41H169.778C169.076 217.41 168.403 217.132 167.906 216.636C167.408 216.141 167.128 215.469 167.125 214.767V129.807C167.126 129.376 167.232 128.953 167.434 128.573C167.636 128.193 167.928 127.868 168.285 127.627L174.432 123.465C174.671 123.297 174.956 123.207 175.248 123.207C175.567 123.205 175.878 123.308 176.132 123.501C176.387 123.693 176.571 123.964 176.656 124.271L186.632 159.56C186.792 160.164 187.149 160.698 187.647 161.076C188.144 161.454 188.755 161.654 189.38 161.645C189.764 161.645 190.145 161.57 190.5 161.422C190.855 161.275 191.178 161.059 191.449 160.787C191.713 160.521 191.921 160.204 192.061 159.857C192.201 159.509 192.271 159.137 192.265 158.762L192.007 112.703C192.007 112.271 192.112 111.846 192.314 111.465C192.517 111.083 192.809 110.757 193.166 110.515L200.507 105.494C200.759 105.32 201.059 105.23 201.366 105.237C201.754 105.237 202.126 105.39 202.401 105.663C202.676 105.937 202.832 106.308 202.834 106.696V214.793C202.834 215.494 202.555 216.166 202.059 216.662C201.563 217.157 200.891 217.436 200.189 217.436H192.222Z" fill="url(#paint3_linear)"/>
<path d="M145.266 217.436C144.494 217.436 143.754 217.129 143.208 216.584C142.662 216.038 142.355 215.298 142.355 214.526V146.181C142.355 145.709 142.47 145.244 142.69 144.827C142.91 144.41 143.228 144.053 143.618 143.786L152.796 137.521C153.048 137.344 153.346 137.246 153.654 137.238C154.079 137.238 154.486 137.406 154.787 137.705C155.088 138.004 155.258 138.41 155.26 138.835V214.526C155.26 215.298 154.953 216.038 154.407 216.584C153.862 217.129 153.121 217.436 152.349 217.436H145.266Z" fill="url(#paint4_linear)"/>
<path d="M184.658 84.0652L147.661 58.7916C147.297 58.5422 146.872 58.3966 146.432 58.3705C145.991 58.3444 145.551 58.4387 145.16 58.6434C144.769 58.8481 144.442 59.1554 144.212 59.5323C143.983 59.9092 143.86 60.3414 143.858 60.7826C143.945 62.2878 144.355 63.7566 145.06 65.0893C145.765 66.4221 146.749 67.5875 147.945 68.5063L149.559 69.6391C150.632 70.3716 151.51 71.3548 152.117 72.5033C152.723 73.6519 153.041 74.9311 153.041 76.23C153.041 77.5288 152.723 78.808 152.117 79.9566C151.51 81.1051 150.632 82.0883 149.559 82.8208L116.212 105.683C113.063 107.85 109.464 109.275 105.685 109.854V97.9592C105.702 96.9917 105.36 96.0522 104.727 95.3206C104.093 94.589 103.211 94.1168 102.251 93.9944C101.72 93.9417 101.183 94.0008 100.676 94.1678C100.168 94.3348 99.7015 94.606 99.3053 94.9641C98.9091 95.3221 98.5922 95.759 98.375 96.2468C98.1578 96.7345 98.0451 97.2623 98.0441 97.7962V109.905C94.1989 109.336 90.536 107.891 87.3376 105.683L54.1363 82.8037C53.0632 82.0712 52.1852 81.088 51.5785 79.9394C50.9717 78.7909 50.6546 77.5117 50.6546 76.2128C50.6546 74.914 50.9717 73.6348 51.5785 72.4862C52.1852 71.3376 53.0632 70.3544 54.1363 69.622L55.7762 68.5063C56.9696 67.5858 57.9514 66.4199 58.655 65.0874C59.3586 63.7549 59.7676 62.2868 59.8545 60.7826C59.8512 60.3428 59.7285 59.9121 59.4994 59.5366C59.2704 59.161 58.9436 58.8547 58.554 58.6503C58.1644 58.4458 57.7265 58.351 57.2872 58.3759C56.8479 58.4008 56.4236 58.5445 56.0595 58.7916L19.0547 84.0652C17.9817 84.7977 17.1036 85.7809 16.4969 86.9294C15.8902 88.078 15.573 89.3572 15.573 90.6561C15.573 91.9549 15.8902 93.2341 16.4969 94.3827C17.1036 95.5313 17.9817 96.5145 19.0547 97.2469L97.3315 150.712C98.6632 151.626 100.241 152.115 101.856 152.115C103.472 152.115 105.049 151.626 106.381 150.712L184.658 97.2469C185.731 96.5145 186.609 95.5313 187.215 94.3827C187.822 93.2341 188.139 91.9549 188.139 90.6561C188.139 89.3572 187.822 88.078 187.215 86.9294C186.609 85.7809 185.731 84.7977 184.658 84.0652ZM87.5265 124.254C86.9517 125.24 86.1695 126.089 85.2341 126.743C83.8993 127.653 82.3209 128.14 80.7051 128.14C79.0892 128.14 77.5109 127.653 76.1761 126.743L32.6031 96.9809C31.5382 96.2561 30.6732 95.2749 30.0879 94.1277C29.5026 92.9805 29.216 91.7044 29.2545 90.4172C29.293 89.13 29.6554 87.8733 30.3082 86.7631C30.961 85.6529 31.8832 84.7251 32.9895 84.0652L33.4274 83.8078C34.7346 83.0294 36.2369 82.6402 37.7578 82.6858C39.2787 82.7314 40.755 83.2099 42.0132 84.0652L85.1997 113.561C86.8555 114.73 88.0106 116.479 88.4353 118.46C88.8601 120.441 88.5234 122.51 87.4921 124.254H87.5265ZM106.415 141.195C105.082 142.104 103.505 142.591 101.891 142.591C100.276 142.591 98.6993 142.104 97.3658 141.195C96.2927 140.462 95.4147 139.479 94.808 138.33C94.2012 137.182 93.8841 135.903 93.8841 134.604C93.8841 133.305 94.2012 132.026 94.808 130.877C95.4147 129.729 96.2927 128.745 97.3658 128.013C98.6993 127.103 100.276 126.617 101.891 126.617C103.505 126.617 105.082 127.103 106.415 128.013C107.486 128.748 108.362 129.734 108.966 130.884C109.569 132.034 109.883 133.314 109.88 134.613C109.876 135.912 109.556 137.19 108.946 138.337C108.336 139.484 107.456 140.465 106.381 141.195H106.415ZM170.809 97.2212L127.579 126.751C126.244 127.662 124.666 128.148 123.05 128.148C121.434 128.148 119.856 127.662 118.521 126.751C117.584 126.1 116.801 125.25 116.229 124.263C115.198 122.518 114.861 120.45 115.286 118.469C115.71 116.487 116.865 114.739 118.521 113.57L161.682 84.091C163.022 83.1808 164.604 82.6941 166.224 82.6941C167.844 82.6941 169.426 83.1808 170.766 84.091C171.833 84.8221 172.706 85.8023 173.309 86.9467C173.912 88.091 174.226 89.365 174.225 90.6583C174.225 91.9517 173.908 93.2253 173.304 94.3688C172.7 95.5124 171.826 96.4915 170.757 97.2212H170.809Z" fill="black"/>
<path d="M194.901 40.4609H142.158C140.852 40.4611 139.564 40.7625 138.393 41.3415C137.223 41.9205 136.202 42.7615 135.41 43.7992L124.609 58.0108C123.6 59.3439 122.296 60.4252 120.799 61.1697C119.302 61.9142 117.652 62.3017 115.98 62.3017H105.677V44.7518C110.219 45.2405 114.624 46.6014 118.65 48.7595C119.442 49.2208 120.364 49.4069 121.273 49.2889C122.181 49.1709 123.025 48.7554 123.673 48.1073C124.075 47.6739 124.374 47.1551 124.548 46.5899C124.721 46.0247 124.764 45.4275 124.674 44.8432C124.584 44.2589 124.363 43.7024 124.028 43.2155C123.692 42.7286 123.251 42.3238 122.737 42.0313C120.142 40.6134 117.409 39.4632 114.58 38.5986C118.2 35.9176 120.881 32.1642 122.242 27.8722C123.604 23.5802 123.576 18.9683 122.164 14.6928C120.752 10.4172 118.026 6.69577 114.376 4.05787C110.725 1.41996 106.335 0 101.831 0C97.3259 0 92.936 1.41996 89.2854 4.05787C85.6348 6.69577 82.9095 10.4172 81.4972 14.6928C80.0848 18.9683 80.0575 23.5802 81.419 27.8722C82.7805 32.1642 85.4615 35.9176 89.0806 38.5986C86.3762 39.4215 83.7593 40.508 81.2675 41.8425C80.3357 42.3064 79.6155 43.1076 79.2535 44.0832C78.8915 45.0588 78.9147 46.1356 79.3186 47.0947C79.5489 47.5844 79.8777 48.0214 80.2845 48.3785C80.6912 48.7355 81.1673 49.005 81.6828 49.1701C82.1984 49.3351 82.7424 49.3923 83.2811 49.3379C83.8197 49.2835 84.3413 49.1187 84.8135 48.8539C88.9125 46.6339 93.4078 45.2402 98.0442 44.7518V62.3103H87.7412C86.0694 62.3083 84.4206 61.92 82.9237 61.1756C81.4269 60.4313 80.1225 59.351 79.1125 58.0193L68.3116 43.8078C67.5202 42.7664 66.4983 41.9223 65.326 41.3417C64.1537 40.761 62.8629 40.4595 61.5545 40.4609H8.81196C8.35654 40.4415 7.91208 40.6038 7.57636 40.912C7.24065 41.2202 7.04117 41.6491 7.02182 42.1043C7.00246 42.5595 7.16481 43.0037 7.47315 43.3393C7.7815 43.6749 8.21057 43.8743 8.66599 43.8936L55.2955 47.3693C56.4978 47.4736 57.6638 47.8339 58.7152 48.426C59.7667 49.018 60.6792 49.8282 61.3914 50.802L73.1454 66.6613C74.1538 68.0197 75.4665 69.1231 76.9783 69.8832C78.4902 70.6432 80.1591 71.0387 81.8514 71.038H98.0442V72.4454C98.0442 73.4606 98.4476 74.4341 99.1657 75.1519C99.8839 75.8697 100.858 76.273 101.873 76.273C102.889 76.273 103.863 75.8697 104.581 75.1519C105.299 74.4341 105.703 73.4606 105.703 72.4454V71.038H121.887C123.579 71.0401 125.249 70.6451 126.761 69.885C128.273 69.1249 129.585 68.0207 130.593 66.6613L142.338 50.8277C143.051 49.8547 143.964 49.0452 145.015 48.4532C146.067 47.8612 147.232 47.5004 148.434 47.395L195.064 43.9537C195.527 43.9321 195.963 43.7273 196.275 43.3845C196.588 43.0417 196.751 42.5889 196.729 42.1258C196.708 41.6626 196.503 41.227 196.16 40.9147C195.817 40.6025 195.364 40.4392 194.901 40.4609ZM101.865 35.0286C99.183 35.0235 96.5627 34.2239 94.3353 32.7309C92.1078 31.2379 90.3731 29.1184 89.3503 26.6403C88.3275 24.1623 88.0625 21.4367 88.5889 18.8082C89.1152 16.1796 90.4092 13.766 92.3074 11.8723C94.2056 9.97853 96.6228 8.68968 99.2536 8.16857C101.884 7.64746 104.611 7.91748 107.088 8.94451C109.565 9.97153 111.682 11.7095 113.172 13.9387C114.661 16.168 115.456 18.7885 115.456 21.4692C115.458 23.2543 115.108 25.0223 114.426 26.672C113.744 28.3217 112.743 29.8208 111.481 31.0834C110.219 32.346 108.719 33.3474 107.069 34.0303C105.419 34.7131 103.651 35.064 101.865 35.0629V35.0286Z" fill="black"/>
<path d="M89.4584 92.1149C92.2676 89.6686 95.8395 88.2733 99.5638 88.1672H101.521C106.295 88.1672 110.803 89.3515 114.263 92.1492C115.411 93.0536 116.736 93.7079 118.153 94.07C119.569 94.4321 121.046 94.494 122.488 94.2518C129.047 93.3936 133.272 86.6483 132.748 80.1346C132.693 79.6411 132.534 79.1647 132.282 78.737C132.029 78.3092 131.689 77.9397 131.284 77.6528C130.878 77.3658 130.416 77.1679 129.929 77.072C129.441 76.9762 128.939 76.9846 128.455 77.0966L112.4 80.4436C110.322 80.8795 108.204 81.0981 106.08 81.0958H97.572C95.4458 81.0977 93.3252 80.8791 91.2442 80.4436L75.1888 77.0966C74.7046 76.9832 74.2019 76.9737 73.7139 77.069C73.2259 77.1642 72.7636 77.362 72.3578 77.6492C71.9519 77.9364 71.6117 78.3065 71.3597 78.7349C71.1077 79.1634 70.9496 79.6405 70.8959 80.1346C70.3635 86.6483 74.5963 93.4107 81.1559 94.2518C82.6123 94.501 84.105 94.4395 85.5359 94.0712C86.9668 93.703 88.3035 93.0362 89.4584 92.1149Z" fill="url(#paint5_linear)"/>
<path d="M101.856 29.0981C106.062 29.0981 109.472 25.6977 109.472 21.5032C109.472 17.3086 106.062 13.9082 101.856 13.9082C97.6503 13.9082 94.2407 17.3086 94.2407 21.5032C94.2407 25.6977 97.6503 29.0981 101.856 29.0981Z" fill="url(#paint6_linear)"/>
<defs>
<linearGradient id="paint0_linear" x1="17.8871" y1="217.393" x2="17.8871" y2="106.901" gradientUnits="userSpaceOnUse">
<stop stop-color="#9C0A0E"/>
<stop offset="0.3" stop-color="#C41D1E"/>
<stop offset="0.57" stop-color="#E22C2A"/>
<stop offset="0.72" stop-color="#EE312F"/>
</linearGradient>
<linearGradient id="paint1_linear" x1="11670.2" y1="35389" x2="11670.2" y2="28808" gradientUnits="userSpaceOnUse">
<stop stop-color="#9C0A0E"/>
<stop offset="0.3" stop-color="#C41D1E"/>
<stop offset="0.57" stop-color="#E22C2A"/>
<stop offset="0.72" stop-color="#EE312F"/>
</linearGradient>
<linearGradient id="paint2_linear" x1="13474.7" y1="30132" x2="13474.7" y2="25356.9" gradientUnits="userSpaceOnUse">
<stop stop-color="#9C0A0E"/>
<stop offset="0.3" stop-color="#C41D1E"/>
<stop offset="0.57" stop-color="#E22C2A"/>
<stop offset="0.72" stop-color="#EE312F"/>
</linearGradient>
<linearGradient id="paint3_linear" x1="16494.1" y1="52639.3" x2="16494.1" y2="37974.8" gradientUnits="userSpaceOnUse">
<stop stop-color="#9C0A0E"/>
<stop offset="0.3" stop-color="#C41D1E"/>
<stop offset="0.57" stop-color="#E22C2A"/>
<stop offset="0.72" stop-color="#EE312F"/>
</linearGradient>
<linearGradient id="paint4_linear" x1="5499.39" y1="37687.3" x2="5499.39" y2="30192.8" gradientUnits="userSpaceOnUse">
<stop stop-color="#9C0A0E"/>
<stop offset="0.3" stop-color="#C41D1E"/>
<stop offset="0.57" stop-color="#E22C2A"/>
<stop offset="0.72" stop-color="#EE312F"/>
</linearGradient>
<linearGradient id="paint5_linear" x1="101.856" y1="94.3633" x2="101.856" y2="77.0194" gradientUnits="userSpaceOnUse">
<stop offset="0.3" stop-color="#EE312F"/>
<stop offset="0.42" stop-color="#E92E2D"/>
<stop offset="0.58" stop-color="#D92727"/>
<stop offset="0.75" stop-color="#C01B1C"/>
<stop offset="0.93" stop-color="#9C0A0E"/>
</linearGradient>
<linearGradient id="paint6_linear" x1="5584.17" y1="3792.7" x2="5584.17" y2="3523.68" gradientUnits="userSpaceOnUse">
<stop offset="0.3" stop-color="#EE312F"/>
<stop offset="0.42" stop-color="#E92E2D"/>
<stop offset="0.58" stop-color="#D92727"/>
<stop offset="0.75" stop-color="#C01B1C"/>
<stop offset="0.93" stop-color="#9C0A0E"/>
</linearGradient>
</defs>
</svg>
