<svg width="300" height="300" viewBox="0 0 300 300" fill="none" xmlns="http://www.w3.org/2000/svg">
<path d="M63.6511 250.06C67.0552 250.06 68.2424 251.631 68.2424 254.224V256.205C68.2424 258.806 67.0552 260.369 63.6511 260.369H61.4105V263.796H57.2124V250.06H63.6511ZM61.4105 256.928H62.9279C63.7769 256.928 64.0442 256.597 64.0442 255.914V254.492C64.0442 253.816 63.7769 253.486 62.9279 253.486H61.4105V256.928Z" fill="#010101"/>
<path d="M73.895 259.466V254.39C73.895 251.749 75.6167 249.855 79.4611 249.855C83.3055 249.855 85.0272 251.749 85.0272 254.39V259.466C85.0272 262.106 83.3055 264 79.4611 264C75.6167 264 73.895 262.106 73.895 259.466ZM80.7897 254.39C80.7897 253.714 80.3966 253.282 79.4611 253.282C78.5255 253.282 78.1325 253.714 78.1325 254.39V259.466C78.1325 260.142 78.5255 260.574 79.4611 260.574C80.3966 260.574 80.7897 260.142 80.7897 259.466V254.39Z" fill="#010101"/>
<path d="M91.0176 250.06H95.2157V263.796H91.0176V250.06Z" fill="#010101"/>
<path d="M101.474 250.06H106.002L109.642 256.904V250.06H113.651V263.796H109.139L105.483 256.928V263.772H101.474V250.06Z" fill="#010101"/>
<path d="M122.606 253.486H119.32V250.06H130.161V253.486H126.836V263.796H122.645L122.606 253.486Z" fill="#010101"/>
<path d="M144.084 259.466V254.39C144.084 251.749 145.806 249.855 149.65 249.855C153.494 249.855 155.216 251.749 155.216 254.39V259.466C155.216 262.106 153.494 264 149.65 264C145.806 264 144.084 262.106 144.084 259.466ZM150.979 254.39C150.979 253.714 150.586 253.282 149.65 253.282C148.715 253.282 148.321 253.714 148.321 254.39V259.466C148.321 260.142 148.715 260.574 149.65 260.574C150.586 260.574 150.979 260.142 150.979 259.466V254.39Z" fill="#010101"/>
<path d="M161.175 263.796V250.06H170.546V253.423H165.373V255.529H170.09V258.884H165.373V263.796H161.175Z" fill="#010101"/>
<path d="M184.572 263.261L185.256 260.079C186.564 260.472 187.922 260.676 189.289 260.684C190.366 260.684 190.68 260.519 190.68 259.796C190.68 259.073 190.57 258.947 188.809 258.68C185.46 258.162 184.65 257.588 184.65 254.327C184.65 250.885 186.065 249.856 189.823 249.856C191.253 249.827 192.68 250.002 194.061 250.374L193.628 253.627C192.454 253.362 191.255 253.217 190.051 253.195C189.037 253.195 188.849 253.337 188.849 253.942C188.849 254.547 188.888 254.68 190.633 255.01C194.234 255.694 194.871 256.433 194.871 259.482C194.871 262.625 193.377 264 189.58 264C187.883 263.998 186.196 263.749 184.572 263.261Z" fill="#010101"/>
<path d="M212.921 263.796H208.535L208.063 261.548H204.525L204.053 263.796H199.667L203.534 250.06H209.038L212.921 263.796ZM205.233 258.208H207.371L206.31 253.195L205.233 258.208Z" fill="#010101"/>
<path d="M218.424 250.06H222.622V260.369H227.567V263.796H218.424V250.06Z" fill="#010101"/>
<path d="M233.314 250.06H242.748V253.423H237.536V255.049H242.316V258.413H237.536V260.432H242.748V263.796H233.314V250.06Z" fill="#010101"/>
<path d="M80.0113 235.059C79.4309 235.059 78.8742 234.829 78.4631 234.419C78.052 234.01 77.8199 233.454 77.8179 232.874V202.353C77.8137 201.06 77.2967 199.82 76.3801 198.907C75.4635 197.994 74.2221 197.481 72.9279 197.481C71.9088 197.485 70.9326 197.891 70.2113 198.611C69.49 199.33 69.0819 200.305 69.0757 201.324V232.874C69.0715 233.454 68.8389 234.008 68.4282 234.417C68.0175 234.826 67.462 235.057 66.8822 235.059H59.4136C58.8333 235.059 58.2766 234.829 57.8654 234.419C57.4543 234.01 57.2223 233.454 57.2202 232.874V137.249C57.2244 136.357 57.5813 135.503 58.2131 134.873C58.8449 134.243 59.7004 133.888 60.5929 133.886C61.2712 133.891 61.9319 134.102 62.4876 134.491L80.2078 146.663C88.0302 151.999 89.5632 153.507 89.5632 158.898V181.301C89.5632 185.631 88.4233 188.374 85.9626 189.945C85.621 190.163 85.3434 190.468 85.1583 190.828C84.9732 191.189 84.8872 191.592 84.9091 191.996C84.9264 192.396 85.0499 192.783 85.2669 193.119C85.4838 193.454 85.7864 193.726 86.1434 193.906C88.612 195.14 89.6654 197.332 89.6654 201.237V232.882C89.6634 233.461 89.4325 234.015 89.023 234.424C88.6136 234.834 88.0589 235.064 87.4799 235.066L80.0113 235.059ZM73.6433 155.071C72.4422 155.065 71.2874 155.534 70.4315 156.376C69.5756 157.219 69.0881 158.365 69.0757 159.566V182.92C69.0715 183.481 69.1826 184.037 69.4019 184.554C69.6213 185.07 69.9444 185.536 70.3512 185.923C70.7579 186.31 71.2397 186.609 71.7668 186.802C72.2938 186.995 72.8549 187.078 73.4153 187.046C74.4664 187.059 75.4895 186.706 76.3084 186.048C76.7611 185.669 77.1226 185.194 77.3662 184.656C77.6098 184.119 77.7293 183.534 77.7157 182.944V158.584C77.6989 158.085 77.5497 157.599 77.2833 157.177C76.9211 156.53 76.3911 155.993 75.749 155.623C75.107 155.252 74.3768 155.062 73.6355 155.071H73.6433Z" fill="url(#paint0_linear)"/>
<path d="M111.993 235.711C103.73 235.711 99.8857 231.876 99.8857 223.641V175.251C99.8899 174.149 100.111 173.059 100.537 172.043C100.963 171.026 101.585 170.104 102.368 169.328C103.15 168.553 104.078 167.939 105.099 167.521C106.119 167.104 107.211 166.892 108.313 166.898C109.999 166.899 111.645 167.415 113.03 168.375L125.688 177.019C128.065 178.641 130.011 180.819 131.355 183.363C132.699 185.908 133.401 188.742 133.4 191.619V222.588C133.4 224.314 133.059 226.024 132.397 227.619C131.735 229.214 130.764 230.662 129.541 231.881C128.318 233.1 126.866 234.066 125.268 234.723C123.671 235.38 121.959 235.716 120.232 235.711H111.993ZM114.752 181.726C113.007 181.726 111.741 183.258 111.741 185.372V221.071C111.792 222.333 112.329 223.525 113.24 224.4C114.15 225.275 115.364 225.763 116.627 225.763C117.89 225.763 119.104 225.275 120.015 224.4C120.926 223.525 121.463 222.333 121.513 221.071V188.499C121.513 186.637 121.073 185.199 118.88 183.785L116.207 182.072L116.12 182.032C115.691 181.834 115.225 181.729 114.752 181.726Z" fill="url(#paint1_linear)"/>
<path d="M167.763 235.098C167.414 235.098 167.069 235.023 166.752 234.878C166.434 234.733 166.152 234.521 165.924 234.257L158.848 223.869C157.394 221.637 153.557 222.706 153.675 225.44L153.722 232.662C153.727 232.983 153.667 233.301 153.547 233.599C153.428 233.897 153.25 234.168 153.025 234.396C152.8 234.625 152.531 234.807 152.236 234.931C151.94 235.056 151.622 235.12 151.301 235.121H146.285C145.644 235.121 145.028 234.868 144.573 234.416C144.118 233.964 143.86 233.35 143.856 232.709L143.691 189.56C143.689 188.965 143.886 188.385 144.25 187.914C144.614 187.443 145.125 187.106 145.702 186.957C146.28 186.809 146.89 186.856 147.437 187.093C147.983 187.329 148.436 187.741 148.722 188.264L162.708 213.755C163.001 214.139 163.405 214.423 163.864 214.57C164.324 214.717 164.817 214.719 165.278 214.577C165.739 214.435 166.146 214.155 166.442 213.775C166.739 213.395 166.912 212.932 166.938 212.451L166.718 183.305C166.71 182.908 166.802 182.516 166.986 182.164C167.17 181.813 167.44 181.513 167.771 181.294L174.454 176.728C174.654 176.591 174.887 176.511 175.129 176.497C175.371 176.483 175.613 176.534 175.827 176.647C176.042 176.759 176.223 176.927 176.349 177.134C176.475 177.341 176.543 177.578 176.545 177.82V232.678C176.545 233.32 176.29 233.935 175.836 234.389C175.382 234.843 174.766 235.098 174.124 235.098H167.763Z" fill="url(#paint2_linear)"/>
<path d="M233.071 235.098C232.513 235.093 231.975 234.896 231.546 234.541C231.116 234.186 230.822 233.695 230.712 233.149L224.981 204.278C224.875 203.679 224.558 203.137 224.089 202.75C223.619 202.363 223.027 202.155 222.418 202.165C221.705 202.166 221.021 202.448 220.515 202.95C220.274 203.196 220.084 203.487 219.957 203.807C219.831 204.127 219.769 204.469 219.776 204.813L219.965 232.638C219.966 232.957 219.904 233.273 219.783 233.568C219.662 233.863 219.484 234.131 219.259 234.357C219.034 234.584 218.767 234.763 218.473 234.886C218.178 235.009 217.863 235.073 217.544 235.074H212.52C211.877 235.074 211.26 234.819 210.805 234.366C210.35 233.912 210.093 233.297 210.091 232.654V154.859C210.091 154.465 210.188 154.077 210.373 153.729C210.558 153.381 210.826 153.084 211.152 152.863L216.781 149.052C217 148.898 217.261 148.816 217.528 148.816C217.82 148.814 218.105 148.909 218.338 149.085C218.571 149.261 218.74 149.509 218.817 149.79L227.953 182.103C228.098 182.656 228.425 183.145 228.881 183.491C229.337 183.837 229.896 184.021 230.468 184.012C230.82 184.013 231.169 183.943 231.494 183.808C231.819 183.674 232.115 183.476 232.363 183.227C232.605 182.983 232.795 182.693 232.924 182.375C233.052 182.056 233.115 181.715 233.11 181.372L232.874 139.198C232.874 138.802 232.97 138.413 233.155 138.064C233.34 137.715 233.608 137.416 233.935 137.194L240.657 132.597C240.888 132.437 241.163 132.355 241.443 132.361C241.798 132.361 242.139 132.502 242.391 132.752C242.643 133.002 242.786 133.342 242.788 133.697V232.677C242.788 233.319 242.533 233.935 242.078 234.389C241.624 234.843 241.008 235.098 240.366 235.098H233.071Z" fill="url(#paint3_linear)"/>
<path d="M190.075 235.098C189.368 235.098 188.691 234.817 188.191 234.318C187.691 233.818 187.41 233.14 187.41 232.434V169.852C187.41 169.42 187.515 168.995 187.717 168.613C187.918 168.231 188.209 167.904 188.566 167.66L196.97 161.923C197.201 161.761 197.474 161.671 197.756 161.664C198.145 161.664 198.517 161.818 198.793 162.092C199.068 162.366 199.224 162.737 199.226 163.126V232.434C199.226 233.14 198.946 233.818 198.446 234.318C197.946 234.817 197.268 235.098 196.561 235.098H190.075Z" fill="url(#paint4_linear)"/>
<path d="M226.144 112.975L192.268 89.8334C191.935 89.605 191.546 89.4717 191.142 89.4477C190.739 89.4238 190.336 89.5102 189.978 89.6977C189.62 89.8851 189.32 90.1665 189.11 90.5116C188.9 90.8567 188.788 91.2525 188.786 91.6565C188.865 93.0347 189.24 94.3796 189.886 95.6C190.532 96.8203 191.433 97.8874 192.528 98.7287L194.006 99.766C194.988 100.437 195.792 101.337 196.348 102.389C196.903 103.44 197.194 104.612 197.194 105.801C197.194 106.99 196.903 108.162 196.348 109.213C195.792 110.265 194.988 111.165 194.006 111.836L163.471 132.77C160.588 134.754 157.292 136.06 153.832 136.589V125.698C153.847 124.812 153.535 123.951 152.954 123.282C152.374 122.612 151.567 122.179 150.688 122.067C150.201 122.019 149.71 122.073 149.245 122.226C148.781 122.379 148.353 122.627 147.99 122.955C147.628 123.283 147.337 123.683 147.139 124.13C146.94 124.576 146.836 125.06 146.836 125.548V136.636C143.315 136.115 139.961 134.792 137.032 132.77L106.631 111.82C105.648 111.15 104.844 110.249 104.289 109.198C103.733 108.146 103.443 106.975 103.443 105.785C103.443 104.596 103.733 103.425 104.289 102.373C104.844 101.321 105.648 100.421 106.631 99.7503L108.132 98.7287C109.225 97.8859 110.124 96.8183 110.768 95.5982C111.413 94.3781 111.787 93.0338 111.867 91.6565C111.864 91.2537 111.751 90.8594 111.542 90.5155C111.332 90.1716 111.033 89.8911 110.676 89.7039C110.319 89.5168 109.918 89.43 109.516 89.4528C109.114 89.4756 108.725 89.6071 108.392 89.8334L74.5079 112.975C73.5253 113.646 72.7214 114.546 72.1658 115.598C71.6102 116.65 71.3198 117.821 71.3198 119.01C71.3198 120.2 71.6102 121.371 72.1658 122.423C72.7214 123.475 73.5253 124.375 74.5079 125.045L146.183 174.001C147.402 174.838 148.847 175.286 150.326 175.286C151.805 175.286 153.25 174.838 154.469 174.001L226.144 125.045C227.127 124.375 227.931 123.475 228.486 122.423C229.042 121.371 229.332 120.2 229.332 119.01C229.332 117.821 229.042 116.65 228.486 115.598C227.931 114.546 227.127 113.646 226.144 112.975ZM137.205 149.775C136.679 150.677 135.962 151.455 135.106 152.054C133.884 152.887 132.438 153.333 130.959 153.333C129.479 153.333 128.034 152.887 126.812 152.054L86.9137 124.802C85.9386 124.138 85.1465 123.24 84.6106 122.189C84.0747 121.139 83.8122 119.97 83.8475 118.792C83.8827 117.613 84.2146 116.462 84.8123 115.446C85.41 114.429 86.2544 113.58 87.2675 112.975L87.6684 112.74C88.8654 112.027 90.241 111.671 91.6336 111.712C93.0263 111.754 94.378 112.192 95.5301 112.975L135.074 139.984C136.591 141.054 137.648 142.655 138.037 144.47C138.426 146.284 138.118 148.178 137.174 149.775H137.205ZM154.501 165.287C153.28 166.12 151.836 166.565 150.358 166.565C148.879 166.565 147.435 166.12 146.214 165.287C145.232 164.616 144.428 163.716 143.872 162.664C143.317 161.612 143.026 160.441 143.026 159.252C143.026 158.062 143.317 156.891 143.872 155.839C144.428 154.788 145.232 153.887 146.214 153.217C147.435 152.384 148.879 151.938 150.358 151.938C151.836 151.938 153.28 152.384 154.501 153.217C155.482 153.89 156.283 154.792 156.836 155.845C157.389 156.899 157.676 158.071 157.673 159.26C157.67 160.449 157.377 161.62 156.818 162.67C156.26 163.72 155.454 164.619 154.469 165.287H154.501ZM213.463 125.022L173.88 152.062C172.658 152.895 171.212 153.341 169.733 153.341C168.253 153.341 166.808 152.895 165.586 152.062C164.727 151.465 164.011 150.687 163.487 149.783C162.542 148.185 162.234 146.291 162.623 144.477C163.012 142.663 164.07 141.062 165.586 139.992L205.106 112.999C206.333 112.166 207.782 111.72 209.265 111.72C210.748 111.72 212.197 112.166 213.424 112.999C214.401 113.669 215.201 114.566 215.753 115.614C216.305 116.662 216.593 117.828 216.592 119.013C216.591 120.197 216.302 121.363 215.748 122.41C215.195 123.457 214.394 124.354 213.416 125.022H213.463Z" fill="black"/>
<path d="M235.524 73.0485H187.229C186.034 73.0488 184.854 73.3247 183.782 73.8549C182.71 74.385 181.776 75.1551 181.05 76.1053L171.16 89.1183C170.236 90.339 169.042 91.3291 167.671 92.0108C166.301 92.6926 164.79 93.0474 163.259 93.0473H153.825V76.9776C157.984 77.4251 162.018 78.6711 165.704 80.6473C166.429 81.0696 167.273 81.2401 168.105 81.132C168.937 81.024 169.71 80.6435 170.303 80.0501C170.672 79.6532 170.945 79.1782 171.104 78.6606C171.263 78.1431 171.303 77.5963 171.22 77.0612C171.138 76.5262 170.935 76.0167 170.628 75.5708C170.321 75.125 169.917 74.7543 169.446 74.4865C167.07 73.1882 164.567 72.135 161.978 71.3433C165.291 68.8884 167.746 65.4515 168.993 61.5215C170.24 57.5915 170.215 53.3686 168.921 49.4536C167.628 45.5387 165.133 42.1311 161.79 39.7156C158.447 37.3002 154.428 36 150.303 36C146.178 36 142.159 37.3002 138.816 39.7156C135.473 42.1311 132.978 45.5387 131.684 49.4536C130.391 53.3686 130.366 57.5915 131.613 61.5215C132.86 65.4515 135.315 68.8884 138.628 71.3433C136.152 72.0968 133.756 73.0917 131.474 74.3136C130.621 74.7384 129.962 75.472 129.63 76.3653C129.299 77.2587 129.32 78.2446 129.69 79.1228C129.901 79.5712 130.202 79.9714 130.574 80.2983C130.947 80.6253 131.382 80.872 131.854 81.0232C132.327 81.1743 132.825 81.2266 133.318 81.1768C133.811 81.127 134.289 80.9762 134.721 80.7337C138.474 78.701 142.591 77.4247 146.836 76.9776V93.0552H137.402C135.871 93.0534 134.361 92.6978 132.991 92.0162C131.62 91.3347 130.426 90.3455 129.501 89.1261L119.611 76.1132C118.886 75.1596 117.951 74.3867 116.877 73.855C115.804 73.3233 114.622 73.0473 113.424 73.0485H65.1294C64.7123 73.0308 64.3054 73.1794 63.998 73.4616C63.6906 73.7438 63.5079 74.1365 63.4902 74.5533C63.4725 74.9702 63.6211 75.3769 63.9035 75.6842C64.1858 75.9914 64.5787 76.174 64.9957 76.1917L107.693 79.3743C108.793 79.4698 109.861 79.7997 110.824 80.3418C111.787 80.884 112.622 81.6258 113.274 82.5175L124.037 97.0392C124.96 98.2831 126.162 99.2935 127.547 99.9894C128.931 100.685 130.459 101.048 132.009 101.047H146.836V102.336C146.836 103.265 147.205 104.157 147.863 104.814C148.521 105.471 149.412 105.84 150.342 105.84C151.272 105.84 152.164 105.471 152.822 104.814C153.479 104.157 153.849 103.265 153.849 102.336V101.047H168.668C170.218 101.049 171.746 100.687 173.131 99.9911C174.515 99.295 175.717 98.284 176.64 97.0392L187.394 82.5411C188.047 81.6501 188.883 80.9088 189.846 80.3668C190.808 79.8247 191.876 79.4943 192.976 79.3978L235.673 76.2468C236.097 76.227 236.497 76.0395 236.783 75.7256C237.069 75.4117 237.218 74.9971 237.198 74.573C237.179 74.1489 236.991 73.75 236.677 73.4641C236.363 73.1782 235.948 73.0287 235.524 73.0485ZM150.334 68.0743C147.879 68.0697 145.479 67.3375 143.44 65.9704C141.4 64.6034 139.812 62.6627 138.875 60.3936C137.939 58.1245 137.696 55.6288 138.178 53.2219C138.66 50.8151 139.845 48.605 141.583 46.871C143.321 45.137 145.534 43.9568 147.943 43.4797C150.352 43.0025 152.849 43.2497 155.117 44.1902C157.385 45.1306 159.324 46.7219 160.688 48.7632C162.052 50.8044 162.779 53.204 162.78 55.6586C162.782 57.2931 162.461 58.912 161.837 60.4225C161.212 61.9331 160.295 63.3058 159.14 64.4619C157.984 65.618 156.611 66.535 155.1 67.1602C153.589 67.7855 151.97 68.1068 150.334 68.1058V68.0743Z" fill="black"/>
<path d="M138.974 120.346C141.547 118.106 144.817 116.829 148.227 116.732H150.02C154.391 116.732 158.518 117.816 161.687 120.378C162.738 121.206 163.952 121.805 165.249 122.137C166.546 122.468 167.898 122.525 169.218 122.303C175.225 121.517 179.093 115.341 178.613 109.376C178.563 108.925 178.417 108.488 178.186 108.097C177.955 107.705 177.643 107.367 177.272 107.104C176.901 106.841 176.478 106.66 176.032 106.572C175.585 106.484 175.125 106.492 174.682 106.595L159.981 109.659C158.078 110.059 156.139 110.259 154.194 110.257H146.404C144.457 110.258 142.515 110.058 140.609 109.659L125.908 106.595C125.465 106.491 125.005 106.482 124.558 106.569C124.111 106.657 123.687 106.838 123.316 107.101C122.944 107.364 122.633 107.702 122.402 108.095C122.171 108.487 122.026 108.924 121.977 109.376C121.49 115.341 125.366 121.533 131.372 122.303C132.706 122.531 134.072 122.475 135.383 122.138C136.693 121.8 137.917 121.19 138.974 120.346Z" fill="url(#paint5_linear)"/>
<path d="M150.326 62.6442C154.178 62.6442 157.3 59.5306 157.3 55.6898C157.3 51.8489 154.178 48.7354 150.326 48.7354C146.475 48.7354 143.353 51.8489 143.353 55.6898C143.353 59.5306 146.475 62.6442 150.326 62.6442Z" fill="url(#paint6_linear)"/>
<defs>
<linearGradient id="paint0_linear" x1="73.4389" y1="235.059" x2="73.4389" y2="133.886" gradientUnits="userSpaceOnUse">
<stop stop-color="#9C0A0E"/>
<stop offset="0.3" stop-color="#C41D1E"/>
<stop offset="0.57" stop-color="#E22C2A"/>
<stop offset="0.72" stop-color="#EE312F"/>
</linearGradient>
<linearGradient id="paint1_linear" x1="10743.1" y1="32440.4" x2="10743.1" y2="26414.4" gradientUnits="userSpaceOnUse">
<stop stop-color="#9C0A0E"/>
<stop offset="0.3" stop-color="#C41D1E"/>
<stop offset="0.57" stop-color="#E22C2A"/>
<stop offset="0.72" stop-color="#EE312F"/>
</linearGradient>
<linearGradient id="paint2_linear" x1="12395.3" y1="27626.8" x2="12395.3" y2="23254.4" gradientUnits="userSpaceOnUse">
<stop stop-color="#9C0A0E"/>
<stop offset="0.3" stop-color="#C41D1E"/>
<stop offset="0.57" stop-color="#E22C2A"/>
<stop offset="0.72" stop-color="#EE312F"/>
</linearGradient>
<linearGradient id="paint3_linear" x1="15160.1" y1="48235.9" x2="15160.1" y2="34808.1" gradientUnits="userSpaceOnUse">
<stop stop-color="#9C0A0E"/>
<stop offset="0.3" stop-color="#C41D1E"/>
<stop offset="0.57" stop-color="#E22C2A"/>
<stop offset="0.72" stop-color="#EE312F"/>
</linearGradient>
<linearGradient id="paint4_linear" x1="5092.65" y1="34544.9" x2="5092.65" y2="27682.5" gradientUnits="userSpaceOnUse">
<stop stop-color="#9C0A0E"/>
<stop offset="0.3" stop-color="#C41D1E"/>
<stop offset="0.57" stop-color="#E22C2A"/>
<stop offset="0.72" stop-color="#EE312F"/>
</linearGradient>
<linearGradient id="paint5_linear" x1="150.327" y1="122.405" x2="150.327" y2="106.524" gradientUnits="userSpaceOnUse">
<stop offset="0.3" stop-color="#EE312F"/>
<stop offset="0.42" stop-color="#E92E2D"/>
<stop offset="0.58" stop-color="#D92727"/>
<stop offset="0.75" stop-color="#C01B1C"/>
<stop offset="0.93" stop-color="#9C0A0E"/>
</linearGradient>
<linearGradient id="paint6_linear" x1="5170.28" y1="3508.83" x2="5170.28" y2="3262.5" gradientUnits="userSpaceOnUse">
<stop offset="0.3" stop-color="#EE312F"/>
<stop offset="0.42" stop-color="#E92E2D"/>
<stop offset="0.58" stop-color="#D92727"/>
<stop offset="0.75" stop-color="#C01B1C"/>
<stop offset="0.93" stop-color="#9C0A0E"/>
</linearGradient>
</defs>
</svg>
