<svg width="360" height="360" viewBox="0 0 360 360" fill="none" xmlns="http://www.w3.org/2000/svg">
<path d="M76.6085 299.809C80.6844 299.809 82.1059 301.69 82.1059 304.795V307.166C82.1059 310.281 80.6844 312.153 76.6085 312.153H73.9256V316.256H68.8989V299.809H76.6085ZM73.9256 308.032H75.7424C76.7591 308.032 77.0791 307.637 77.0791 306.818V305.115C77.0791 304.306 76.7591 303.911 75.7424 303.911H73.9256V308.032Z" fill="#010101"/>
<path d="M88.874 311.071V304.992C88.874 301.831 90.9355 299.563 95.5387 299.563C100.142 299.563 102.203 301.831 102.203 304.992V311.071C102.203 314.232 100.142 316.5 95.5387 316.5C90.9355 316.5 88.874 314.232 88.874 311.071ZM97.1295 304.992C97.1295 304.183 96.6589 303.666 95.5387 303.666C94.4185 303.666 93.9478 304.183 93.9478 304.992V311.071C93.9478 311.88 94.4185 312.397 95.5387 312.397C96.6589 312.397 97.1295 311.88 97.1295 311.071V304.992Z" fill="#010101"/>
<path d="M109.376 299.809H114.403V316.256H109.376V299.809Z" fill="#010101"/>
<path d="M121.896 299.809H127.318L131.676 308.004V299.809H136.477V316.256H131.074L126.697 308.032V316.227H121.896V299.809Z" fill="#010101"/>
<path d="M147.199 303.911H143.264V299.809H156.245V303.911H152.263V316.256H147.246L147.199 303.911Z" fill="#010101"/>
<path d="M172.917 311.071V304.992C172.917 301.831 174.978 299.563 179.581 299.563C184.184 299.563 186.246 301.831 186.246 304.992V311.071C186.246 314.232 184.184 316.5 179.581 316.5C174.978 316.5 172.917 314.232 172.917 311.071ZM181.172 304.992C181.172 304.183 180.701 303.666 179.581 303.666C178.461 303.666 177.99 304.183 177.99 304.992V311.071C177.99 311.88 178.461 312.397 179.581 312.397C180.701 312.397 181.172 311.88 181.172 311.071V304.992Z" fill="#010101"/>
<path d="M193.381 316.256V299.809H204.602V303.836H198.408V306.357H204.056V310.375H198.408V316.256H193.381Z" fill="#010101"/>
<path d="M221.395 315.616L222.214 311.805C223.781 312.276 225.407 312.52 227.043 312.53C228.333 312.53 228.709 312.332 228.709 311.467C228.709 310.601 228.577 310.45 226.469 310.131C222.459 309.51 221.489 308.823 221.489 304.918C221.489 300.797 223.184 299.564 227.683 299.564C229.395 299.53 231.104 299.739 232.757 300.185L232.239 304.08C230.833 303.762 229.398 303.589 227.956 303.563C226.742 303.563 226.516 303.732 226.516 304.457C226.516 305.181 226.563 305.341 228.653 305.736C232.964 306.555 233.727 307.44 233.727 311.09C233.727 314.854 231.938 316.5 227.391 316.5C225.36 316.498 223.34 316.2 221.395 315.616Z" fill="#010101"/>
<path d="M255.34 316.256H250.087L249.522 313.565H245.286L244.721 316.256H239.469L244.1 299.809H250.689L255.34 316.256ZM246.133 309.566H248.694L247.423 303.563L246.133 309.566Z" fill="#010101"/>
<path d="M261.929 299.809H266.956V312.153H272.877V316.256H261.929V299.809Z" fill="#010101"/>
<path d="M279.758 299.809H291.054V303.836H284.813V305.783H290.536V309.81H284.813V312.228H291.054V316.256H279.758V299.809Z" fill="#010101"/>
<path d="M96.1975 281.846C95.5026 281.846 94.836 281.571 94.3437 281.081C93.8515 280.59 93.5737 279.925 93.5712 279.231V242.686C93.5662 241.137 92.9471 239.653 91.8496 238.56C90.7521 237.466 89.2657 236.852 87.7161 236.852C86.4959 236.857 85.327 237.343 84.4633 238.205C83.5996 239.066 83.111 240.234 83.1035 241.453V279.231C83.0986 279.924 82.82 280.588 82.3283 281.078C81.8365 281.568 81.1714 281.844 80.4772 281.846H71.5345C70.8396 281.846 70.173 281.571 69.6808 281.081C69.1885 280.59 68.9107 279.925 68.9082 279.231V164.732C68.9132 163.664 69.3405 162.641 70.0971 161.887C70.8536 161.132 71.8779 160.708 72.9465 160.705C73.7587 160.711 74.5498 160.964 75.2152 161.43L96.4328 176.004C105.799 182.393 107.635 184.199 107.635 190.654V217.479C107.635 222.663 106.27 225.947 103.323 227.829C102.914 228.09 102.582 228.455 102.36 228.886C102.139 229.318 102.036 229.8 102.062 230.285C102.083 230.763 102.231 231.227 102.49 231.629C102.75 232.03 103.112 232.356 103.54 232.571C106.496 234.048 107.757 236.674 107.757 241.35V279.24C107.755 279.933 107.478 280.597 106.988 281.087C106.498 281.577 105.833 281.853 105.14 281.856L96.1975 281.846ZM88.5727 186.072C87.1345 186.064 85.7519 186.626 84.727 187.635C83.7021 188.643 83.1184 190.016 83.1035 191.454V219.417C83.0986 220.089 83.2315 220.755 83.4942 221.373C83.7569 221.992 84.1438 222.55 84.6308 223.013C85.1178 223.476 85.6947 223.834 86.3258 224.065C86.9569 224.296 87.6287 224.396 88.2997 224.357C89.5583 224.374 90.7832 223.951 91.7638 223.162C92.3058 222.709 92.7387 222.139 93.0304 221.496C93.3221 220.853 93.4651 220.152 93.4488 219.446V190.278C93.4288 189.68 93.2501 189.099 92.9311 188.593C92.4974 187.819 91.8628 187.176 91.094 186.732C90.3253 186.289 89.451 186.06 88.5633 186.072H88.5727Z" fill="url(#paint0_linear)"/>
<path d="M134.491 282.627C124.598 282.627 119.995 278.036 119.995 268.175V210.234C120 208.915 120.265 207.61 120.774 206.393C121.284 205.176 122.029 204.072 122.966 203.143C123.904 202.214 125.015 201.479 126.236 200.98C127.458 200.48 128.766 200.226 130.086 200.233C132.105 200.235 134.075 200.852 135.734 202.001L150.889 212.351C153.736 214.294 156.065 216.902 157.674 219.948C159.284 222.995 160.125 226.388 160.124 229.833V266.914C160.124 268.982 159.716 271.029 158.923 272.938C158.13 274.848 156.967 276.582 155.503 278.042C154.038 279.501 152.299 280.658 150.387 281.445C148.474 282.232 146.425 282.634 144.356 282.627H134.491ZM137.795 217.987C135.706 217.987 134.19 219.822 134.19 222.353V265.098C134.251 266.609 134.893 268.037 135.984 269.084C137.075 270.131 138.528 270.716 140.04 270.716C141.553 270.716 143.006 270.131 144.097 269.084C145.187 268.037 145.83 266.609 145.891 265.098V226.098C145.891 223.868 145.364 222.146 142.737 220.453L139.537 218.401L139.433 218.354C138.92 218.117 138.361 217.992 137.795 217.987Z" fill="url(#paint1_linear)"/>
<path d="M201.269 281.893C200.852 281.894 200.438 281.804 200.058 281.63C199.678 281.456 199.34 281.203 199.067 280.887L190.595 268.448C188.853 265.776 184.26 267.055 184.401 270.33L184.457 278.977C184.462 279.361 184.391 279.742 184.248 280.099C184.104 280.455 183.892 280.78 183.622 281.053C183.352 281.327 183.031 281.545 182.677 281.694C182.323 281.843 181.942 281.92 181.558 281.922H175.552C174.784 281.922 174.047 281.618 173.502 281.077C172.957 280.536 172.648 279.801 172.643 279.033L172.446 227.368C172.444 226.655 172.679 225.961 173.115 225.397C173.552 224.832 174.163 224.429 174.854 224.251C175.545 224.073 176.276 224.13 176.931 224.414C177.586 224.697 178.127 225.19 178.47 225.816L195.217 256.338C195.567 256.797 196.05 257.138 196.601 257.314C197.151 257.49 197.742 257.493 198.294 257.323C198.846 257.152 199.332 256.817 199.688 256.362C200.043 255.906 200.25 255.353 200.281 254.777L200.018 219.878C200.008 219.403 200.118 218.933 200.339 218.512C200.559 218.091 200.883 217.733 201.279 217.47L209.28 212.003C209.52 211.839 209.799 211.744 210.089 211.726C210.379 211.709 210.668 211.771 210.925 211.906C211.182 212.04 211.398 212.242 211.55 212.489C211.701 212.737 211.782 213.021 211.784 213.311V278.995C211.784 279.764 211.479 280.501 210.935 281.045C210.391 281.588 209.654 281.893 208.885 281.893H201.269Z" fill="url(#paint2_linear)"/>
<path d="M279.466 281.894C278.799 281.888 278.154 281.652 277.64 281.227C277.126 280.803 276.774 280.214 276.642 279.56L269.78 244.992C269.652 244.274 269.273 243.625 268.711 243.162C268.149 242.698 267.44 242.449 266.711 242.461C265.857 242.462 265.038 242.8 264.433 243.402C264.144 243.695 263.917 244.044 263.765 244.427C263.613 244.81 263.539 245.22 263.548 245.631L263.774 278.949C263.775 279.331 263.701 279.709 263.556 280.062C263.411 280.415 263.198 280.737 262.929 281.007C262.659 281.278 262.339 281.493 261.987 281.641C261.635 281.788 261.257 281.864 260.875 281.866H254.859C254.09 281.866 253.351 281.561 252.806 281.017C252.261 280.474 251.953 279.737 251.951 278.968V185.818C251.951 185.346 252.067 184.882 252.289 184.465C252.51 184.049 252.831 183.693 253.221 183.428L259.961 178.865C260.223 178.681 260.536 178.583 260.856 178.583C261.206 178.581 261.546 178.694 261.826 178.904C262.105 179.115 262.306 179.412 262.4 179.749L273.338 218.439C273.512 219.102 273.904 219.687 274.45 220.102C274.996 220.516 275.665 220.736 276.35 220.726C276.772 220.726 277.189 220.643 277.578 220.481C277.968 220.32 278.321 220.083 278.619 219.785C278.908 219.493 279.136 219.146 279.29 218.765C279.444 218.383 279.519 217.975 279.513 217.564L279.231 167.066C279.23 166.593 279.346 166.127 279.568 165.709C279.789 165.29 280.11 164.933 280.501 164.667L288.55 159.163C288.826 158.972 289.155 158.873 289.491 158.88C289.916 158.88 290.324 159.048 290.626 159.348C290.928 159.648 291.098 160.055 291.101 160.48V278.996C291.101 279.764 290.795 280.502 290.252 281.045C289.708 281.589 288.97 281.894 288.201 281.894H279.466Z" fill="url(#paint3_linear)"/>
<path d="M227.985 281.893C227.138 281.893 226.327 281.557 225.728 280.959C225.13 280.361 224.793 279.549 224.793 278.703V203.77C224.793 203.253 224.919 202.744 225.16 202.286C225.401 201.829 225.75 201.437 226.177 201.145L236.24 194.276C236.516 194.082 236.844 193.974 237.181 193.966C237.647 193.966 238.093 194.15 238.423 194.478C238.753 194.806 238.939 195.251 238.942 195.716V278.703C238.942 279.549 238.606 280.361 238.007 280.959C237.409 281.557 236.597 281.893 235.751 281.893H227.985Z" fill="url(#paint4_linear)"/>
<path d="M271.173 135.668L230.611 107.959C230.212 107.685 229.746 107.525 229.262 107.497C228.779 107.468 228.298 107.572 227.869 107.796C227.44 108.021 227.081 108.357 226.829 108.771C226.577 109.184 226.443 109.658 226.441 110.142C226.536 111.792 226.985 113.402 227.758 114.863C228.532 116.325 229.61 117.602 230.922 118.61L232.691 119.852C233.868 120.655 234.83 121.733 235.496 122.992C236.161 124.251 236.509 125.654 236.509 127.078C236.509 128.502 236.161 129.904 235.496 131.164C234.83 132.423 233.868 133.501 232.691 134.304L196.13 159.37C192.678 161.745 188.732 163.308 184.589 163.942V150.901C184.607 149.841 184.232 148.811 183.538 148.008C182.843 147.206 181.877 146.689 180.824 146.554C180.241 146.497 179.653 146.561 179.096 146.745C178.54 146.928 178.028 147.225 177.594 147.618C177.16 148.01 176.812 148.489 176.574 149.024C176.336 149.559 176.212 150.137 176.211 150.723V163.999C171.995 163.374 167.979 161.79 164.473 159.37L128.071 134.285C126.895 133.482 125.932 132.404 125.267 131.145C124.602 129.885 124.254 128.483 124.254 127.059C124.254 125.635 124.602 124.232 125.267 122.973C125.932 121.714 126.895 120.636 128.071 119.833L129.869 118.61C131.178 117.6 132.254 116.322 133.025 114.861C133.797 113.4 134.245 111.791 134.341 110.142C134.337 109.659 134.202 109.187 133.951 108.775C133.7 108.364 133.342 108.028 132.915 107.804C132.488 107.579 132.008 107.476 131.526 107.503C131.044 107.53 130.579 107.688 130.18 107.959L89.6084 135.668C88.4318 136.471 87.4692 137.549 86.804 138.809C86.1387 140.068 85.791 141.47 85.791 142.894C85.791 144.318 86.1387 145.721 86.804 146.98C87.4692 148.239 88.4318 149.317 89.6084 150.12L175.43 208.739C176.89 209.741 178.62 210.277 180.391 210.277C182.162 210.277 183.891 209.741 185.351 208.739L271.173 150.12C272.35 149.317 273.312 148.239 273.977 146.98C274.643 145.721 274.99 144.318 274.99 142.894C274.99 141.47 274.643 140.068 273.977 138.809C273.312 137.549 272.35 136.471 271.173 135.668ZM164.68 179.731C164.05 180.811 163.192 181.742 162.166 182.459C160.703 183.457 158.972 183.991 157.201 183.991C155.429 183.991 153.699 183.457 152.235 182.459L104.463 149.829C103.295 149.034 102.347 147.958 101.705 146.701C101.063 145.443 100.749 144.044 100.791 142.632C100.833 141.221 101.231 139.843 101.946 138.626C102.662 137.409 103.673 136.392 104.886 135.668L105.366 135.386C106.8 134.533 108.447 134.106 110.114 134.156C111.782 134.206 113.4 134.73 114.78 135.668L162.129 168.007C163.944 169.289 165.211 171.206 165.676 173.378C166.142 175.55 165.773 177.818 164.642 179.731H164.68ZM185.389 198.304C183.927 199.301 182.198 199.835 180.428 199.835C178.658 199.835 176.93 199.301 175.467 198.304C174.291 197.501 173.328 196.423 172.663 195.164C171.998 193.904 171.65 192.502 171.65 191.078C171.65 189.654 171.998 188.251 172.663 186.992C173.328 185.733 174.291 184.655 175.467 183.852C176.93 182.855 178.658 182.321 180.428 182.321C182.198 182.321 183.927 182.855 185.389 183.852C186.564 184.658 187.523 185.738 188.185 186.999C188.847 188.26 189.191 189.664 189.188 191.088C189.184 192.512 188.833 193.914 188.164 195.171C187.496 196.429 186.53 197.504 185.351 198.304H185.389ZM255.989 150.092L208.593 182.469C207.13 183.467 205.399 184 203.628 184C201.856 184 200.125 183.467 198.662 182.469C197.634 181.754 196.776 180.823 196.149 179.74C195.018 177.828 194.649 175.56 195.115 173.388C195.58 171.215 196.847 169.298 198.662 168.016L245.983 135.696C247.452 134.698 249.187 134.165 250.963 134.165C252.738 134.165 254.473 134.698 255.942 135.696C257.112 136.498 258.069 137.573 258.73 138.827C259.391 140.082 259.736 141.479 259.735 142.897C259.734 144.315 259.388 145.711 258.725 146.965C258.062 148.219 257.104 149.292 255.933 150.092H255.989Z" fill="black"/>
<path d="M282.403 87.8607H224.577C223.145 87.861 221.732 88.1914 220.449 88.8262C219.166 89.461 218.046 90.3831 217.178 91.5208L205.336 107.102C204.23 108.564 202.8 109.749 201.159 110.566C199.517 111.382 197.709 111.807 195.875 111.807H184.579V92.5652C189.559 93.1011 194.389 94.5931 198.803 96.9593C199.671 97.4649 200.682 97.669 201.678 97.5396C202.674 97.4103 203.6 96.9547 204.31 96.2442C204.751 95.769 205.079 95.2002 205.269 94.5805C205.459 93.9608 205.506 93.3061 205.408 92.6654C205.309 92.0248 205.067 91.4147 204.699 90.8809C204.331 90.347 203.847 89.9032 203.284 89.5826C200.438 88.028 197.442 86.7669 194.341 85.8189C198.309 82.8796 201.248 78.7643 202.741 74.0587C204.234 69.353 204.204 64.2966 202.655 59.609C201.107 54.9213 198.119 50.8411 194.116 47.949C190.114 45.0568 185.301 43.5 180.362 43.5C175.423 43.5 170.61 45.0568 166.608 47.949C162.605 50.8411 159.617 54.9213 158.069 59.609C156.521 64.2966 156.491 69.353 157.983 74.0587C159.476 78.7643 162.415 82.8796 166.383 85.8189C163.418 86.7212 160.549 87.9124 157.817 89.3756C156.796 89.8842 156.006 90.7626 155.609 91.8322C155.212 92.9018 155.238 94.0824 155.68 95.1339C155.933 95.6708 156.293 96.1499 156.739 96.5414C157.185 96.9329 157.707 97.2284 158.273 97.4093C158.838 97.5903 159.434 97.653 160.025 97.5933C160.615 97.5337 161.187 97.3531 161.705 97.0627C166.199 94.6288 171.128 93.1007 176.211 92.5652V111.816H164.915C163.082 111.814 161.274 111.388 159.633 110.572C157.992 109.756 156.562 108.572 155.454 107.112L143.612 91.5302C142.745 90.3885 141.624 89.463 140.339 88.8264C139.054 88.1898 137.639 87.8592 136.204 87.8607H78.378C77.8786 87.8395 77.3913 88.0174 77.0233 88.3553C76.6552 88.6933 76.4365 89.1635 76.4153 89.6626C76.3941 90.1616 76.5721 90.6487 76.9101 91.0166C77.2482 91.3845 77.7186 91.6031 78.2179 91.6243L129.342 95.435C130.66 95.5493 131.938 95.9444 133.091 96.5935C134.244 97.2427 135.244 98.1309 136.025 99.1986L148.912 116.586C150.018 118.076 151.457 119.286 153.115 120.119C154.772 120.952 156.602 121.386 158.457 121.385H176.211V122.928C176.211 124.041 176.653 125.108 177.441 125.895C178.228 126.682 179.296 127.125 180.409 127.125C181.523 127.125 182.591 126.682 183.378 125.895C184.165 125.108 184.608 124.041 184.608 122.928V121.385H202.352C204.207 121.387 206.038 120.954 207.695 120.121C209.353 119.287 210.792 118.077 211.897 116.586L224.774 99.2268C225.556 98.16 226.557 97.2724 227.709 96.6234C228.862 95.9743 230.14 95.5788 231.458 95.4632L282.582 91.6902C283.09 91.6665 283.568 91.442 283.91 91.0662C284.253 90.6903 284.432 90.1939 284.408 89.6861C284.384 89.1782 284.16 88.7006 283.784 88.3583C283.408 88.016 282.911 87.837 282.403 87.8607ZM180.4 81.9048C177.459 81.8992 174.587 81.0226 172.144 79.3857C169.702 77.7488 167.8 75.425 166.679 72.7081C165.558 69.9911 165.267 67.0029 165.844 64.121C166.421 61.2391 167.84 58.5928 169.921 56.5166C172.002 54.4403 174.653 53.0272 177.537 52.4559C180.421 51.8846 183.41 52.1806 186.126 53.3066C188.842 54.4326 191.163 56.3381 192.797 58.7822C194.43 61.2264 195.301 64.0995 195.301 67.0385C195.304 68.9957 194.92 70.934 194.172 72.7428C193.424 74.5515 192.327 76.1951 190.943 77.5794C189.559 78.9637 187.915 80.0616 186.106 80.8103C184.297 81.559 182.358 81.9437 180.4 81.9424V81.9048Z" fill="black"/>
<path d="M166.798 144.493C169.878 141.811 173.794 140.281 177.877 140.165H180.023C185.257 140.165 190.199 141.464 193.993 144.531C195.252 145.522 196.705 146.24 198.258 146.637C199.811 147.034 201.43 147.102 203.011 146.836C210.202 145.895 214.834 138.5 214.26 131.358C214.199 130.817 214.025 130.295 213.748 129.826C213.472 129.357 213.099 128.952 212.654 128.637C212.209 128.323 211.703 128.106 211.169 128C210.634 127.895 210.084 127.905 209.553 128.027L191.95 131.697C189.672 132.175 187.35 132.415 185.022 132.412H175.693C173.362 132.414 171.037 132.175 168.755 131.697L151.153 128.027C150.622 127.903 150.071 127.893 149.536 127.997C149 128.102 148.494 128.318 148.049 128.633C147.604 128.948 147.231 129.354 146.954 129.824C146.678 130.293 146.505 130.817 146.446 131.358C145.862 138.5 150.503 145.914 157.695 146.836C159.292 147.109 160.928 147.042 162.497 146.638C164.066 146.234 165.531 145.503 166.798 144.493Z" fill="url(#paint5_linear)"/>
<path d="M180.391 75.403C185.002 75.403 188.74 71.6749 188.74 67.076C188.74 62.4771 185.002 58.749 180.391 58.749C175.779 58.749 172.041 62.4771 172.041 67.076C172.041 71.6749 175.779 75.403 180.391 75.403Z" fill="url(#paint6_linear)"/>
<defs>
<linearGradient id="paint0_linear" x1="88.3279" y1="281.846" x2="88.3279" y2="160.705" gradientUnits="userSpaceOnUse">
<stop stop-color="#9C0A0E"/>
<stop offset="0.3" stop-color="#C41D1E"/>
<stop offset="0.57" stop-color="#E22C2A"/>
<stop offset="0.72" stop-color="#EE312F"/>
</linearGradient>
<linearGradient id="paint1_linear" x1="12863.8" y1="38843.5" x2="12863.8" y2="31628.2" gradientUnits="userSpaceOnUse">
<stop stop-color="#9C0A0E"/>
<stop offset="0.3" stop-color="#C41D1E"/>
<stop offset="0.57" stop-color="#E22C2A"/>
<stop offset="0.72" stop-color="#EE312F"/>
</linearGradient>
<linearGradient id="paint2_linear" x1="14842.1" y1="33079.8" x2="14842.1" y2="27844.4" gradientUnits="userSpaceOnUse">
<stop stop-color="#9C0A0E"/>
<stop offset="0.3" stop-color="#C41D1E"/>
<stop offset="0.57" stop-color="#E22C2A"/>
<stop offset="0.72" stop-color="#EE312F"/>
</linearGradient>
<linearGradient id="paint3_linear" x1="18152.6" y1="57756.5" x2="18152.6" y2="41678.6" gradientUnits="userSpaceOnUse">
<stop stop-color="#9C0A0E"/>
<stop offset="0.3" stop-color="#C41D1E"/>
<stop offset="0.57" stop-color="#E22C2A"/>
<stop offset="0.72" stop-color="#EE312F"/>
</linearGradient>
<linearGradient id="paint4_linear" x1="6098.17" y1="41363.3" x2="6098.17" y2="33146.5" gradientUnits="userSpaceOnUse">
<stop stop-color="#9C0A0E"/>
<stop offset="0.3" stop-color="#C41D1E"/>
<stop offset="0.57" stop-color="#E22C2A"/>
<stop offset="0.72" stop-color="#EE312F"/>
</linearGradient>
<linearGradient id="paint5_linear" x1="180.39" y1="146.958" x2="180.39" y2="127.943" gradientUnits="userSpaceOnUse">
<stop offset="0.3" stop-color="#EE312F"/>
<stop offset="0.42" stop-color="#E92E2D"/>
<stop offset="0.58" stop-color="#D92727"/>
<stop offset="0.75" stop-color="#C01B1C"/>
<stop offset="0.93" stop-color="#9C0A0E"/>
</linearGradient>
<linearGradient id="paint6_linear" x1="6191.13" y1="4201.76" x2="6191.13" y2="3906.82" gradientUnits="userSpaceOnUse">
<stop offset="0.3" stop-color="#EE312F"/>
<stop offset="0.42" stop-color="#E92E2D"/>
<stop offset="0.58" stop-color="#D92727"/>
<stop offset="0.75" stop-color="#C01B1C"/>
<stop offset="0.93" stop-color="#9C0A0E"/>
</linearGradient>
</defs>
</svg>
