<svg width="100" height="59" viewBox="0 0 100 59" fill="none" xmlns="http://www.w3.org/2000/svg">
<path d="M94.4011 37V53.4005H78V59H100V37H94.4011Z" fill="white"/>
<path d="M0 0V22H5.59874V5.598H22V0H0Z" fill="white"/>
<path d="M39.8688 19.0003L32.6744 30.7231L25.2858 19.0003H19V41H25.9672V31.3202L30.893 39.0201H34.263L39.1881 30.9745L39.2531 41H46.2203L46.1553 19.0003H39.8688Z" fill="white"/>
<path d="M49.9143 40.9997H57.5622V19H49.9143V40.9997Z" fill="white"/>
<path fill-rule="evenodd" clip-rule="evenodd" d="M70.9778 35.4688H68.9034V40.9997H61.2555V19.0001H72.1763C74.2718 19.0001 76.0978 19.3358 77.6528 20.0059C79.2085 20.6768 80.4071 21.6401 81.25 22.8975C82.0921 24.1541 82.5136 25.6211 82.5136 27.2978C82.5136 28.869 82.1462 30.2418 81.4121 31.4141C80.6774 32.5879 79.6183 33.5201 78.2364 34.2115L83 40.9997H74.8335L70.9778 35.4688ZM71.6906 24.7197H68.9034V29.8734H71.6906C72.727 29.8734 73.5049 29.6488 74.0235 29.1983C74.5421 28.7479 74.8014 28.1139 74.8014 27.2972C74.8014 26.4798 74.5421 25.8459 74.0235 25.3954C73.5049 24.9449 72.727 24.7197 71.6906 24.7197Z" fill="white"/>
</svg>
