<svg width="192" height="192" viewBox="0 0 192 192" fill="none" xmlns="http://www.w3.org/2000/svg">
<path d="M125 96.14C124.997 103.749 123.494 111.283 120.577 118.311C117.66 125.339 113.385 131.723 107.998 137.097C102.611 142.471 96.2168 146.73 89.1819 149.631C82.1471 152.531 74.6093 154.016 67 154V135C77.1733 134.837 86.8746 130.681 94.0112 123.429C101.148 116.176 105.147 106.41 105.147 96.235C105.147 86.0604 101.148 76.2936 94.0112 69.0415C86.8746 61.7894 77.1733 57.6334 67 57.47V38C82.397 38.0318 97.1523 44.1719 108.027 55.0724C118.901 65.9729 125.005 80.7429 125 96.14Z" fill="#265935"/>
</svg>
