<svg width="192" height="192" viewBox="0 0 192 192" fill="none" xmlns="http://www.w3.org/2000/svg">
<path d="M138 54.21L136.74 53.21C124.89 44 110.94 37 96 37C52.92 37 18 95.5 18 95.5C18 95.5 52.92 154 96 154C108.54 154 120.38 149 130.88 142L138.01 136.77C159.66 119.51 174.01 95.48 174.01 95.48C174.01 95.48 159.66 71.47 138 54.21ZM95.93 134.36C85.6237 134.36 75.7395 130.266 68.4518 122.978C61.1642 115.691 57.07 105.806 57.07 95.5C57.07 85.1937 61.1642 75.3095 68.4518 68.0218C75.7395 60.7342 85.6237 56.64 95.93 56.64V76C90.6851 76.2017 85.7222 78.4272 82.0827 82.2093C78.4433 85.9914 76.4102 91.0362 76.4102 96.285C76.4102 101.534 78.4433 106.579 82.0827 110.361C85.7222 114.143 90.6851 116.368 95.93 116.57V134.36Z" fill="#6061EC"/>
</svg>
