<svg width="24" height="24" viewBox="0 0 24 24" fill="none" xmlns="http://www.w3.org/2000/svg">
<path d="M15.0014 6.0024L13.5056 6C11.8252 6 10.7392 7.1142 10.7392 8.83872V10.1476H9.2352C9.10524 10.1476 9 10.2529 9 10.3829V12.2792C9 12.4092 9.10536 12.5144 9.2352 12.5144H10.7392V17.2996C10.7392 17.4295 10.8444 17.5348 10.9744 17.5348H12.9366C13.0666 17.5348 13.1718 17.4294 13.1718 17.2996V12.5144H14.9303C15.0602 12.5144 15.1655 12.4092 15.1655 12.2792L15.1662 10.3829C15.1662 10.3205 15.1414 10.2607 15.0973 10.2166C15.0533 10.1724 14.9933 10.1476 14.9309 10.1476H13.1718V9.03804C13.1718 8.50476 13.2989 8.23404 13.9936 8.23404L15.0012 8.23368C15.131 8.23368 15.2363 8.12832 15.2363 7.99848V6.2376C15.2363 6.10788 15.1312 6.00264 15.0014 6.0024Z" fill="#0E0E11"/>
</svg>
