<svg width="24" height="24" viewBox="0 0 24 24" fill="none" xmlns="http://www.w3.org/2000/svg">
<rect x="6.14826" y="9.72266" width="2.57538" height="7.7339" fill="#0E0E11"/>
<path d="M17.1756 10.4291C16.6347 9.83854 15.9191 9.54321 15.0295 9.54321C14.7018 9.54321 14.4038 9.58353 14.1358 9.66422C13.8679 9.74486 13.6416 9.858 13.4569 10.0037C13.2722 10.1494 13.1252 10.2846 13.016 10.4095C12.9122 10.528 12.8106 10.6661 12.7116 10.8223V9.72258H10.1439L10.1518 10.0972C10.157 10.347 10.1596 11.117 10.1596 12.4072C10.1596 13.6976 10.1544 15.3807 10.144 17.4566H12.7116V13.1408C12.7116 12.8755 12.74 12.6648 12.7974 12.5086C12.9067 12.2431 13.0717 12.0209 13.293 11.8414C13.5142 11.6618 13.7886 11.5721 14.1165 11.5721C14.5638 11.5721 14.893 11.7268 15.1037 12.0364C15.3144 12.3459 15.4197 12.7739 15.4197 13.3202V17.4564H17.9873V13.0238C17.9871 11.8843 17.7168 11.0194 17.1756 10.4291Z" fill="#0E0E11"/>
<path d="M7.45156 6C7.01978 6 6.66992 6.12626 6.4019 6.37853C6.13391 6.63086 6 6.94942 6 7.33451C6 7.71422 6.13006 8.03169 6.39021 8.28656C6.65027 8.54146 6.9937 8.66897 7.42032 8.66897H7.43593C7.87301 8.66897 8.22555 8.54157 8.49346 8.28656C8.76137 8.03169 8.89271 7.71433 8.88754 7.33451C8.88235 6.94945 8.74959 6.63086 8.48952 6.37853C8.22949 6.12615 7.88337 6 7.45156 6Z" fill="#0E0E11"/>
</svg>
