<svg width="24" height="24" viewBox="0 0 24 24" fill="none" xmlns="http://www.w3.org/2000/svg">
<path d="M11.6636 2.1576L11.3479 2.47457C11.1387 2.68466 11.1387 3.0253 11.3479 3.23543L19.3164 11.2379H2.53571C2.23987 11.2379 2 11.4788 2 11.7759V12.2242C2 12.5213 2.23987 12.7622 2.53571 12.7622H19.3164L11.3479 20.7646C11.1387 20.9747 11.1387 21.3154 11.3479 21.5255L11.6636 21.8425C11.8728 22.0525 12.212 22.0525 12.4212 21.8425L21.8431 12.3804C22.0523 12.1703 22.0523 11.8297 21.8431 11.6196L12.4212 2.1576C12.212 1.94747 11.8728 1.94747 11.6636 2.1576Z" fill="#0E0E11"/>
</svg>
