<svg width="24" height="24" viewBox="0 0 24 24" fill="none" xmlns="http://www.w3.org/2000/svg">
<path d="M21.7321 5.61798H2.26786C2.19682 5.61798 2.12869 5.58957 2.07845 5.53899C2.02822 5.48842 2 5.41983 2 5.34831V4.26966C2 4.19814 2.02822 4.12955 2.07845 4.07898C2.12869 4.02841 2.19682 4 2.26786 4H21.7321C21.8032 4 21.8713 4.02841 21.9215 4.07898C21.9718 4.12955 22 4.19814 22 4.26966V5.34831C22 5.41983 21.9718 5.48842 21.9215 5.53899C21.8713 5.58957 21.8032 5.61798 21.7321 5.61798V5.61798ZM21.7321 12.809H2.26786C2.19682 12.809 2.12869 12.7806 2.07845 12.73C2.02822 12.6794 2 12.6108 2 12.5393V11.4607C2 11.3892 2.02822 11.3206 2.07845 11.27C2.12869 11.2194 2.19682 11.191 2.26786 11.191H21.7321C21.8032 11.191 21.8713 11.2194 21.9215 11.27C21.9718 11.3206 22 11.3892 22 11.4607V12.5393C22 12.6108 21.9718 12.6794 21.9215 12.73C21.8713 12.7806 21.8032 12.809 21.7321 12.809V12.809ZM21.7321 20H2.26786C2.19682 20 2.12869 19.9716 2.07845 19.921C2.02822 19.8704 2 19.8019 2 19.7303V18.6517C2 18.5802 2.02822 18.5116 2.07845 18.461C2.12869 18.4104 2.19682 18.382 2.26786 18.382H21.7321C21.8032 18.382 21.8713 18.4104 21.9215 18.461C21.9718 18.5116 22 18.5802 22 18.6517V19.7303C22 19.8019 21.9718 19.8704 21.9215 19.921C21.8713 19.9716 21.8032 20 21.7321 20V20Z" fill="#0E0E11"/>
</svg>
