<svg width="24" height="24" viewBox="0 0 24 24" fill="none" xmlns="http://www.w3.org/2000/svg">
<path d="M15.2435 6.0025L13.6874 6C11.9391 6 10.8093 7.15914 10.8093 8.95322V10.3148H9.24469C9.10948 10.3148 9 10.4245 9 10.5597V12.5325C9 12.6677 9.10961 12.7772 9.24469 12.7772H10.8093V17.7553C10.8093 17.8905 10.9188 18 11.054 18H13.0954C13.2306 18 13.3401 17.8904 13.3401 17.7553V12.7772H15.1695C15.3047 12.7772 15.4142 12.6677 15.4142 12.5325L15.4149 10.5597C15.4149 10.4947 15.3891 10.4326 15.3432 10.3866C15.2974 10.3407 15.235 10.3148 15.1701 10.3148H13.3401V9.16058C13.3401 8.60579 13.4723 8.32415 14.195 8.32415L15.2433 8.32377C15.3783 8.32377 15.4878 8.21416 15.4878 8.07909V6.24718C15.4878 6.11223 15.3785 6.00275 15.2435 6.0025Z" fill="#0E0E11"/>
</svg>
