<svg width="24" height="24" viewBox="0 0 24 24" fill="none" xmlns="http://www.w3.org/2000/svg">
<path fill-rule="evenodd" clip-rule="evenodd" d="M2 12C2 6.48577 6.48615 2 12 2C17.5138 2 22 6.48577 22 12C22 17.5142 17.5138 22 12 22C6.48615 22 2 17.5142 2 12ZM12.7667 12.7697H16.8052C17.2298 12.7697 17.5744 12.4251 17.5744 12.0005C17.5744 11.5759 17.2298 11.2313 16.8052 11.2313H12.7667V7.38512C12.7667 6.9605 12.4221 6.61589 11.9975 6.61589C11.5729 6.61589 11.2283 6.9605 11.2283 7.38512V11.2313H7.1898C6.76519 11.2313 6.42057 11.5759 6.42057 12.0005C6.42057 12.4251 6.76519 12.7697 7.1898 12.7697H11.2283V17.0005C11.2283 17.4251 11.5729 17.7697 11.9975 17.7697C12.4221 17.7697 12.7667 17.4251 12.7667 17.0005V12.7697Z" fill="#0E0E11"/>
</svg>
