<svg width="24" height="24" viewBox="0 0 24 24" fill="none" xmlns="http://www.w3.org/2000/svg">
<path fill-rule="evenodd" clip-rule="evenodd" d="M9 4H15C17.761 4 20 6.239 20 9V15C20 17.761 17.761 20 15 20H9C6.239 20 4 17.761 4 15V9C4 6.239 6.239 4 9 4ZM15 18.5C16.93 18.5 18.5 16.93 18.5 15V9C18.5 7.07 16.93 5.5 15 5.5H9C7.07 5.5 5.5 7.07 5.5 9V15C5.5 16.93 7.07 18.5 9 18.5H15Z" fill="#0E0E11"/>
<path fill-rule="evenodd" clip-rule="evenodd" d="M8 12C8 9.791 9.791 8 12 8C14.209 8 16 9.791 16 12C16 14.209 14.209 16 12 16C9.791 16 8 14.209 8 12ZM9.5 12C9.5 13.378 10.622 14.5 12 14.5C13.378 14.5 14.5 13.378 14.5 12C14.5 10.621 13.378 9.5 12 9.5C10.622 9.5 9.5 10.621 9.5 12Z" fill="#0E0E11"/>
<path d="M16.3006 8.23299C16.5949 8.23299 16.8336 7.99436 16.8336 7.69999C16.8336 7.40562 16.5949 7.16699 16.3006 7.16699C16.0062 7.16699 15.7676 7.40562 15.7676 7.69999C15.7676 7.99436 16.0062 8.23299 16.3006 8.23299Z" fill="#0E0E11"/>
</svg>
