<svg width="24" height="24" viewBox="0 0 24 24" fill="none" xmlns="http://www.w3.org/2000/svg">
<rect x="4.19922" y="8.96777" width="3.43772" height="10.3235" fill="#0E0E11"/>
<path d="M18.9175 9.91198C18.1954 9.1237 17.2403 8.72949 16.0528 8.72949C15.6153 8.72949 15.2176 8.78331 14.8598 8.89102C14.5022 8.99866 14.2002 9.14968 13.9536 9.34416C13.7071 9.53864 13.5108 9.71918 13.365 9.88579C13.2265 10.044 13.0909 10.2284 12.9587 10.4369V8.96892H9.53125L9.54176 9.46902C9.5488 9.80248 9.55227 10.8303 9.55227 12.5525C9.55227 14.2749 9.54533 16.5215 9.5314 19.2926H12.9587V13.5317C12.9587 13.1776 12.9967 12.8963 13.0733 12.6878C13.2192 12.3335 13.4395 12.0368 13.7348 11.7973C14.0301 11.5575 14.3963 11.4377 14.834 11.4377C15.4311 11.4377 15.8705 11.6443 16.1518 12.0575C16.433 12.4707 16.5737 13.0419 16.5737 13.7712V19.2923H20.001V13.3756C20.0007 11.8545 19.6399 10.7 18.9175 9.91198Z" fill="#0E0E11"/>
<path d="M5.9376 4C5.36124 4 4.89424 4.16854 4.53648 4.50528C4.17875 4.8421 4 5.26733 4 5.78136C4 6.28821 4.17361 6.71198 4.52086 7.05219C4.868 7.39244 5.32644 7.56265 5.8959 7.56265H5.91673C6.50017 7.56265 6.97075 7.39259 7.32837 7.05219C7.68598 6.71198 7.86131 6.28836 7.85441 5.78136C7.84748 5.26736 7.67026 4.8421 7.32311 4.50528C6.97601 4.16839 6.514 4 5.9376 4Z" fill="#0E0E11"/>
</svg>
