<svg width="24" height="24" viewBox="0 0 24 24" fill="none" xmlns="http://www.w3.org/2000/svg">
<path fill-rule="evenodd" clip-rule="evenodd" d="M9.75 6H14.25C16.3208 6 18 7.67925 18 9.75V14.25C18 16.3208 16.3208 18 14.25 18H9.75C7.67925 18 6 16.3208 6 14.25V9.75C6 7.67925 7.67925 6 9.75 6ZM14.25 16.875C15.6975 16.875 16.875 15.6975 16.875 14.25V9.75C16.875 8.3025 15.6975 7.125 14.25 7.125H9.75C8.3025 7.125 7.125 8.3025 7.125 9.75V14.25C7.125 15.6975 8.3025 16.875 9.75 16.875H14.25Z" fill="#0E0E11"/>
<path fill-rule="evenodd" clip-rule="evenodd" d="M9 12C9 10.3433 10.3433 9 12 9C13.6567 9 15 10.3433 15 12C15 13.6567 13.6567 15 12 15C10.3433 15 9 13.6567 9 12ZM10.125 12C10.125 13.0335 10.9665 13.875 12 13.875C13.0335 13.875 13.875 13.0335 13.875 12C13.875 10.9657 13.0335 10.125 12 10.125C10.9665 10.125 10.125 10.9657 10.125 12Z" fill="#0E0E11"/>
<path d="M15.2249 9.1745C15.4457 9.1745 15.6247 8.99553 15.6247 8.77475C15.6247 8.55397 15.4457 8.375 15.2249 8.375C15.0042 8.375 14.8252 8.55397 14.8252 8.77475C14.8252 8.99553 15.0042 9.1745 15.2249 9.1745Z" fill="#0E0E11"/>
</svg>
