<svg width="24" height="24" viewBox="0 0 24 24" fill="none" xmlns="http://www.w3.org/2000/svg">
<rect x="6.15625" y="9.89844" width="2.69757" height="8.10085" fill="#0E0E11"/>
<path d="M17.7052 10.6388C17.1386 10.0203 16.3891 9.71094 15.4573 9.71094C15.114 9.71094 14.8019 9.75317 14.5212 9.83769C14.2406 9.92215 14.0035 10.0407 13.81 10.1933C13.6166 10.3459 13.4626 10.4875 13.3482 10.6183C13.2395 10.7425 13.1331 10.8871 13.0294 11.0507V9.89882H10.3398L10.3481 10.2912C10.3536 10.5529 10.3563 11.3594 10.3563 12.7109C10.3563 14.0624 10.3509 15.8253 10.34 17.9998H13.0294V13.4792C13.0294 13.2013 13.0592 12.9807 13.1192 12.817C13.2338 12.539 13.4066 12.3062 13.6384 12.1182C13.8701 11.93 14.1575 11.836 14.5009 11.836C14.9694 11.836 15.3142 11.9982 15.535 12.3224C15.7557 12.6466 15.866 13.0949 15.866 13.6671V17.9995H18.5554V13.3567C18.5552 12.1631 18.2721 11.2572 17.7052 10.6388Z" fill="#0E0E11"/>
<path d="M7.52043 6C7.06817 6 6.70171 6.13225 6.42097 6.39649C6.14027 6.66079 6 6.99447 6 7.39783C6 7.79556 6.13623 8.12809 6.40872 8.39505C6.68112 8.66204 7.04085 8.79561 7.48771 8.79561H7.50406C7.96188 8.79561 8.33114 8.66216 8.61176 8.39505C8.89238 8.12809 9.02996 7.79567 9.02455 7.39783C9.01911 6.9945 8.88004 6.66079 8.60764 6.39649C8.33527 6.13214 7.97273 6 7.52043 6Z" fill="#0E0E11"/>
</svg>
