<svg width="24" height="24" viewBox="0 0 24 24" fill="none" xmlns="http://www.w3.org/2000/svg">
<path fill-rule="evenodd" clip-rule="evenodd" d="M4 11.8C4 7.4989 7.4992 4 11.8 4C16.1008 4 19.6 7.4989 19.6 11.8C19.6 16.1011 16.1008 19.6 11.8 19.6C7.4992 19.6 4 16.1011 4 11.8ZM12.4 12.4H15.55C15.8812 12.4 16.15 12.1312 16.15 11.8C16.15 11.4688 15.8812 11.2 15.55 11.2H12.4V8.2C12.4 7.8688 12.1312 7.6 11.8 7.6C11.4688 7.6 11.2 7.8688 11.2 8.2V11.2H8.05C7.7188 11.2 7.45 11.4688 7.45 11.8C7.45 12.1312 7.7188 12.4 8.05 12.4H11.2V15.7C11.2 16.0312 11.4688 16.3 11.8 16.3C12.1312 16.3 12.4 16.0312 12.4 15.7V12.4Z" fill="#0E0E11"/>
</svg>
