<svg width="1024" height="1024" viewBox="0 0 1024 1024" fill="none" xmlns="http://www.w3.org/2000/svg">
<g clip-path="url(#clip0)">
<path d="M128 545.633C128.023 552.524 129.477 559.335 132.269 565.629C135.061 571.923 139.129 577.563 144.214 582.187C149.298 586.81 155.287 590.317 161.797 592.482C168.307 594.646 175.194 595.422 182.02 594.759C222.183 590.93 256.681 585.475 288.742 580.405C307.344 577.464 325.126 574.652 342.718 572.363C342.944 572.188 343.17 572.013 343.396 571.839L343.701 572.235L343.765 572.731C343.482 572.768 343.2 572.804 342.917 572.841C321.462 589.438 299.709 608.949 275.939 630.27C256.191 647.982 235.051 666.944 211.533 686.521C206.275 690.903 201.987 696.34 198.943 702.485C195.898 708.63 194.166 715.346 193.855 722.203C193.545 729.06 194.665 735.907 197.142 742.303C199.619 748.7 203.398 754.506 208.239 759.349L256.988 808.607M128 545.633H128.5V545.632M128 545.633L128.5 545.631C128.5 545.632 128.5 545.632 128.5 545.632M128 545.633V475.983M128.5 545.632C128.523 552.454 129.963 559.196 132.726 565.427C135.49 571.657 139.517 577.24 144.55 581.817C149.583 586.394 155.511 589.864 161.955 592.007C168.398 594.15 175.216 594.918 181.971 594.261L181.972 594.261C222.127 590.433 256.588 584.984 288.634 579.916C307.587 576.919 325.695 574.055 343.637 571.739L345.471 571.503L344.006 572.631C324.26 587.846 304.274 605.548 282.694 624.885C280.569 626.788 278.429 628.708 276.273 630.642C256.526 648.354 235.379 667.322 211.853 686.906C206.649 691.242 202.404 696.624 199.391 702.707C196.377 708.789 194.662 715.438 194.355 722.225C194.048 729.013 195.156 735.791 197.608 742.123C200.06 748.455 203.801 754.202 208.592 758.995L208.594 758.997L257.341 808.253M128.5 545.632V475.984M257.341 808.253L256.988 808.607M257.341 808.253L257.344 808.255M257.341 808.253C257.342 808.253 257.343 808.254 257.344 808.255M256.988 808.607C261.86 813.455 267.681 817.234 274.081 819.704C280.481 822.175 287.322 823.284 294.171 822.96C301.019 822.636 307.726 820.888 313.868 817.824C320.009 814.761 325.451 810.45 329.849 805.164L257.344 808.255M256.988 808.607L257.344 808.255M128.5 475.984C128.5 475.985 128.5 475.985 128.5 475.985L128 475.983M128.5 475.984C128.525 469.175 129.961 462.445 132.716 456.224C135.472 450.003 139.488 444.427 144.506 439.852C149.525 435.278 155.436 431.804 161.864 429.652C168.292 427.501 175.095 426.718 181.841 427.356L181.843 427.356C244.684 433.049 296.476 438.773 343.639 444.731L345.474 444.963L344.005 443.838C312.52 419.73 279.021 392.013 240.331 360.003C231.433 352.64 222.26 345.051 212.773 337.225M128.5 475.984V475.983H128M128 475.983C128.025 469.104 129.475 462.306 132.259 456.022C135.043 449.737 139.1 444.105 144.169 439.483C149.239 434.861 155.211 431.352 161.706 429.178C168.2 427.004 175.073 426.214 181.888 426.858L212.773 337.225M212.773 337.225C207.54 332.898 203.266 327.516 200.229 321.427C197.191 315.337 195.456 308.676 195.136 301.871C194.817 295.067 195.92 288.271 198.374 281.921C200.827 275.571 204.578 269.808 209.383 265.005L258.658 215.748C263.482 210.959 269.24 207.224 275.568 204.779C281.897 202.334 288.66 201.23 295.433 201.538C302.207 201.846 308.844 203.558 314.927 206.567C321.01 209.576 326.408 213.817 330.782 219.024C370.53 266.669 404.288 310.985 433.088 348.793C438.459 355.843 443.658 362.668 448.69 369.245L449.867 370.783L449.582 368.868C441.942 317.506 435.487 253.615 428.768 181.978C428.133 175.216 428.908 168.394 431.043 161.949C433.177 155.505 436.624 149.578 441.164 144.546C445.704 139.515 451.238 135.49 457.411 132.727C463.585 129.964 470.263 128.525 477.02 128.5L546.849 128.5L546.85 128.5C553.606 128.492 560.289 129.898 566.474 132.628C572.659 135.359 578.211 139.355 582.775 144.361C587.339 149.367 590.816 155.274 592.984 161.706C595.151 168.137 595.961 174.951 595.364 181.714C592.533 212.682 587.415 247.812 582.278 281.034C581.04 289.044 579.8 296.944 578.591 304.648C574.787 328.888 571.288 351.188 569.087 368.879L568.862 370.696L569.98 369.247C581.347 354.512 594.928 334.991 609.611 313.886C613.149 308.799 616.752 303.621 620.403 298.396C639.209 271.479 659.306 243.303 678.594 219.949C682.948 214.716 688.334 210.449 694.413 207.417C700.492 204.385 707.132 202.654 713.911 202.334C720.69 202.014 727.461 203.111 733.797 205.557C740.132 208.002 745.894 211.743 750.717 216.542L799.992 265.931L799.994 265.933C804.8 270.704 808.556 276.437 811.018 282.76C813.481 289.083 814.593 295.856 814.286 302.639C813.979 309.422 812.258 316.065 809.234 322.137C806.21 328.209 801.951 333.575 796.733 337.888L796.733 337.888C757.22 370.675 720.774 398.055 688.063 422.63C678.244 430.006 668.762 437.13 659.634 444.071L658.114 445.227L660.005 444.964C694.106 440.234 733.151 436.889 776.42 433.181C797.33 431.39 819.226 429.513 842.028 427.356L842.029 427.356C848.785 426.699 855.602 427.467 862.046 429.609C868.489 431.752 874.417 435.223 879.45 439.8C884.483 444.377 888.51 449.959 891.274 456.19C894.038 462.421 895.477 469.163 895.5 475.985V545.631C895.476 552.441 894.039 559.171 891.283 565.392C888.527 571.613 884.512 577.189 879.494 581.764C874.475 586.339 868.564 589.813 862.136 591.964C855.708 594.116 848.904 594.898 842.159 594.261C786.699 588.913 738.501 582.36 695.659 576.536C683.346 574.861 671.475 573.247 660.002 571.74L658.144 571.495L659.633 572.633C689.183 595.199 721.505 622.312 757.6 652.59C770.417 663.341 783.71 674.491 797.523 685.979L797.524 685.98C802.754 690.296 807.026 695.666 810.062 701.744C813.099 707.822 814.833 714.473 815.153 721.267C815.473 728.061 814.37 734.847 811.918 741.186C809.465 747.525 805.717 753.276 800.915 758.068L800.914 758.069L751.64 807.458C746.816 812.247 741.058 815.981 734.73 818.426C728.401 820.872 721.638 821.975 714.865 821.667C708.091 821.36 701.454 819.647 695.37 816.638C689.287 813.629 683.888 809.387 679.514 804.18C659.897 780.562 639.669 752.419 620.764 725.57C617.089 720.35 613.464 715.179 609.903 710.099C595.151 689.058 581.502 669.588 569.979 654.752L568.846 653.294L569.088 655.124C571.269 671.631 574.433 691.952 577.878 714.071C584.224 754.827 591.521 801.685 595.364 842.023C596 848.807 595.219 855.65 593.069 862.113C590.919 868.576 587.448 874.515 582.88 879.551C578.311 884.586 572.747 888.606 566.542 891.352C560.337 894.099 553.63 895.512 546.85 895.5H477.019C470.239 895.512 463.531 894.099 457.327 891.352C451.122 888.606 445.557 884.586 440.989 879.551C436.421 874.515 432.95 868.576 430.8 862.113C428.65 855.651 427.868 848.809 428.504 842.025C435.75 769.728 442.601 706.891 449.583 655.126L449.837 653.24L448.689 654.757C416.413 697.388 376.891 747.648 329.464 804.845L212.773 337.225Z" fill="#171717" stroke="#171717"/>
</g>
<defs>
<clipPath id="clip0">
<rect width="768" height="768" fill="white" transform="translate(128 128)"/>
</clipPath>
</defs>
</svg>
