<svg width="546" height="89" viewBox="0 0 546 89" fill="none" xmlns="http://www.w3.org/2000/svg">
<g clip-path="url(#clip0)">
<path d="M142.145 56.0925C141.694 58.6373 141.027 61.139 140.15 63.5703H95.5254C96.648 70.4263 102.381 72.2963 108.365 72.2963C113.6 72.2963 117.838 70.8004 121.452 67.4347L134.541 78.1551C127.311 85.5087 118.711 88.9998 107.119 88.9998C85.5535 88.9998 74.3355 73.5424 77.3271 54.8455C78.763 45.9998 83.3029 37.9548 90.1327 32.153C96.9625 26.3511 105.636 23.1717 114.597 23.1849C132.671 23.185 145.635 37.1458 142.145 56.0925ZM124.569 49.3606C123.946 42.3803 119.085 39.7628 113.351 39.7628C106.744 39.7628 101.26 43.1286 98.1437 49.3606H124.569Z" fill="#635CF5"/>
<path d="M478.762 0L463.43 87.2544H444.733L445.48 82.7671C440.868 86.7559 434.636 89.0001 426.533 89.0001C406.341 89.0001 398.612 71.4239 401.853 54.596C404.72 38.641 417.434 23.1852 436.88 23.1852C445.231 23.1852 450.966 26.4253 454.455 31.7859L460.065 0H478.762ZM450.093 56.7157L450.342 55.4687C451.588 46.4939 446.603 40.8849 438.126 40.8849C429.525 40.8849 422.171 46.7437 420.55 56.0926C418.929 65.4416 424.166 71.2994 432.766 71.2994C441.118 71.2998 448.223 65.6904 450.093 56.7157Z" fill="#635CF5"/>
<path d="M395.814 24.9297L384.845 87.2542H366.147L366.895 83.0165C362.283 86.88 356.175 88.9997 348.197 88.9997C328.005 88.9997 320.276 71.4235 323.517 54.5957C326.384 38.6406 339.098 23.1849 358.543 23.1849C366.771 23.1849 372.504 26.425 375.994 31.5358L377.116 24.9296L395.814 24.9297ZM371.632 56.2168V56.0924C373.252 46.7435 368.141 40.8847 359.541 40.8847C350.94 40.8847 343.835 46.7435 342.214 56.0924C340.594 65.4414 345.58 71.2996 354.18 71.2996C362.781 71.2996 370.011 65.4405 371.632 56.2168Z" fill="#635CF5"/>
<path d="M293.423 43.3463H273.214L266.458 87.0138H286.666L293.423 43.3463Z" fill="#635CF5"/>
<path d="M316.541 25.2662H296.332L293.423 43.3461H313.631L316.541 25.2662Z" fill="#635CF5"/>
<path d="M233.38 68.9345H253.589L260.346 25.2662H240.138L233.38 68.9345Z" fill="#635CF5"/>
<path d="M152.55 68.9345H172.758L179.516 25.2662H159.307L152.55 68.9345Z" fill="#635CF5"/>
<path d="M210.263 87.0134H230.471L233.38 68.9343H213.172L210.263 87.0134Z" fill="#635CF5"/>
<path d="M169.851 87.0134H190.059L192.969 68.9343H172.76L169.851 87.0134Z" fill="#635CF5"/>
<path d="M192.969 68.9348H213.177L217.419 43.3463H197.211L192.969 68.9348Z" fill="#635CF5"/>
<path d="M545.258 56.0926C544.806 58.6373 544.139 61.139 543.263 63.5704H498.639C499.761 70.4264 505.495 72.2963 511.477 72.2963C516.713 72.2963 520.951 70.8005 524.566 67.4348L537.655 78.1551C530.425 85.5087 521.824 88.9998 510.232 88.9998C488.668 88.9998 477.449 73.5424 480.44 54.8455C481.876 45.9998 486.416 37.9548 493.246 32.1529C500.076 26.3511 508.749 23.1717 517.71 23.1849C535.784 23.1851 548.748 37.1459 545.258 56.0926ZM527.682 49.3607C527.058 42.3804 522.198 39.7629 516.463 39.7629C509.857 39.7629 504.373 43.1287 501.257 49.3607H527.682Z" fill="#635CF5"/>
<path d="M66.5623 48.9871L59.8316 87.2547H41.1338L47.3668 51.7299C48.7373 43.7523 44.3752 40.3866 38.3921 40.3866C32.1591 40.3866 26.5502 44.0012 24.8047 52.4774L18.6971 87.2547H0L10.9691 24.93H29.6661L28.6689 30.7888C32.9074 26.0516 40.0122 23.1853 46.9926 23.1853C59.8315 23.1853 69.4294 32.409 66.5623 48.9871Z" fill="#635CF5"/>
</g>
<defs>
<clipPath id="clip0">
<rect width="545.827" height="89" fill="white"/>
</clipPath>
</defs>
</svg>
